<svg width="332" height="296" viewBox="0 0 332 296" fill="none" xmlns="http://www.w3.org/2000/svg">
<path opacity="0.5" fill-rule="evenodd" clip-rule="evenodd" d="M0 188.002L145.25 100.22L332 210.878L187.814 296L0 188.002Z" fill="#171717" fill-opacity="0.7"/>
<path fill-rule="evenodd" clip-rule="evenodd" d="M41.6792 199.545L169.952 124.414L164.555 121.508L36.2827 196.64L41.6792 199.545ZM108.099 237.734L236.371 162.602L230.975 159.697L102.702 234.828L108.099 237.734ZM80.9274 215.982L75.9459 218.888L70.5493 215.982L75.5308 213.077L80.9274 215.982ZM114.187 196.225L119.169 193.319L113.772 190.413L108.791 193.319L114.187 196.225ZM171.566 162.326L166.585 165.231L161.188 162.326L166.17 159.42L171.566 162.326ZM89.0453 211.14L94.0268 208.234L88.6302 205.328L83.6487 208.234L89.0453 211.14ZM132.268 185.571L127.287 188.476L121.89 185.571L126.871 182.665L132.268 185.571ZM179.684 157.483L184.666 154.577L179.269 151.672L174.288 154.577L179.684 157.483ZM106.069 201.067L101.088 203.973L95.6912 201.067L100.673 198.162L106.069 201.067ZM153.485 172.98L158.467 170.074L153.07 167.168L148.089 170.074L153.485 172.98ZM145.367 177.822L140.386 180.728L134.989 177.822L139.971 174.917L145.367 177.822ZM192.784 149.734L197.765 146.829L192.368 143.923L187.387 146.829L192.784 149.734Z" fill="white"/>
<g filter="url(#filter0_b_54_1686)">
<path fill-rule="evenodd" clip-rule="evenodd" d="M144.303 13.9482C146.596 17.5147 148.018 21.1166 148.57 24.7537L152.215 22.4558C163.822 19.5513 173.361 23.9104 180.833 35.5329C183.451 39.604 184.934 43.7212 185.283 47.8844L188.745 45.7009C200.352 42.7964 209.892 47.1555 217.364 58.778C224.836 70.4006 223.064 82.3982 212.048 94.771L189.97 107.516L190.105 107.436C198.996 102.061 199.779 91.2381 192.457 74.9665C188.719 69.7545 185.087 65.8355 181.56 63.2096C180.017 65.9633 178.002 68.7351 175.517 71.5259L153.408 84.2894L153.575 84.1914C162.465 78.8163 163.249 67.993 155.926 51.7215C152.412 46.8202 148.99 43.0623 145.661 40.448C144.051 43.5881 141.826 46.7522 138.986 49.9412L116.877 62.7047L117.044 62.6066C125.934 57.2316 126.718 46.4083 119.395 30.1367C109.194 15.9102 99.7746 11.3174 91.136 16.3584L90.9091 16.4925L115.684 0.871066C127.291 -2.03341 136.83 2.32562 144.303 13.9482Z" fill="#171717" fill-opacity="0.7"/>
</g>
<g filter="url(#filter1_b_54_1686)">
<path fill-rule="evenodd" clip-rule="evenodd" d="M195.947 90.4164L214.212 102.039V221.585L205.91 216.604V105.36L195.947 100.379V90.4164Z" fill="#171717" fill-opacity="0.8"/>
</g>
<g filter="url(#filter2_b_54_1686)">
<path fill-rule="evenodd" clip-rule="evenodd" d="M240.78 85.4353L214.212 102.039L195.947 90.4164L222.515 73.8127L240.78 85.4353Z" fill="#171717" fill-opacity="0.7"/>
</g>
<path fill-rule="evenodd" clip-rule="evenodd" d="M240.78 85.4354L214.212 102.039L214.212 221.585L240.78 204.982V85.4354Z" fill="#171717"/>
<g filter="url(#filter3_b_54_1686)">
<path fill-rule="evenodd" clip-rule="evenodd" d="M119.845 31.0842C121.777 34.7167 123.064 38.4445 123.729 42.0282C124.917 40.0475 126.515 38.4572 128.509 37.3973C137.011 32.8771 149.487 39.7144 156.376 52.6689C158.544 56.7469 159.901 60.9449 160.476 64.9244C161.639 63.1056 163.164 61.6394 165.04 60.6424C173.542 56.1222 186.018 62.9595 192.907 75.914C199.795 88.8685 198.487 103.035 189.985 107.555C181.483 112.075 169.007 105.238 162.118 92.2834C159.95 88.2057 158.594 84.008 158.018 80.0289C156.854 81.8472 155.329 83.313 153.454 84.3098C144.952 88.8301 132.476 81.9928 125.587 69.0383C123.656 65.4057 122.369 61.6779 121.704 58.0942C120.515 60.075 118.917 61.6652 116.924 62.7251C108.422 67.2453 95.9452 60.408 89.0566 47.4535C82.1681 34.499 83.4761 20.3329 91.9781 15.8126C100.48 11.2923 112.957 18.1296 119.845 31.0842Z" fill="#171717" fill-opacity="0.7"/>
</g>
<path fill-rule="evenodd" clip-rule="evenodd" d="M115.365 59.7929C122.341 56.084 123.11 43.8883 117.082 32.5531C111.055 21.2179 100.513 15.0356 93.5372 18.7445C86.5612 22.4535 85.7923 34.6492 91.8197 45.9844C97.8472 57.3196 108.389 63.5019 115.365 59.7929ZM151.895 81.3777C158.871 77.6687 159.64 65.473 153.613 54.1378C147.585 42.8026 137.044 36.6203 130.068 40.3292C123.092 44.0382 122.323 56.2339 128.35 67.5691C134.378 78.9043 144.919 85.0866 151.895 81.3777ZM188.426 104.623C195.402 100.914 196.171 88.7181 190.144 77.3829C184.116 66.0477 173.575 59.8654 166.599 63.5743C159.623 67.2833 158.854 79.479 164.881 90.8142C170.909 102.149 181.45 108.332 188.426 104.623Z" fill="white"/>
<g filter="url(#filter4_d_54_1686)">
<path d="M191.882 251.325L215.386 237.755L215.386 243.689L206.542 248.795L206.541 276.533L200.725 279.891L200.726 252.153L191.882 257.259L191.882 251.325ZM225.493 241.166C226.29 240.706 227.033 240.414 227.724 240.292C228.414 240.169 228.945 240.215 229.317 240.43L227.166 246.594C226.475 246.44 225.692 246.617 224.816 247.123C223.381 247.951 222.226 249.308 221.35 251.194C220.5 253.064 220.075 255.211 220.075 257.634L220.074 268.72L214.537 271.917L214.538 248.089L219.398 245.283C219.531 247.046 219.65 248.234 219.756 248.848C220.367 247.054 221.164 245.505 222.147 244.202C223.129 242.898 224.245 241.886 225.493 241.166ZM238.746 233.514C241.534 231.904 243.712 231.567 245.279 232.502C246.846 233.407 247.629 235.546 247.629 238.919L247.629 252.811L242.968 255.502C242.941 255.272 242.901 254.897 242.848 254.375C242.822 253.808 242.768 253.333 242.689 252.949C242.078 254.406 241.281 255.694 240.299 256.813C239.342 257.887 238.174 258.822 236.793 259.619C235.359 260.447 234.044 260.915 232.849 261.022C231.68 261.114 230.751 260.808 230.06 260.102C229.37 259.366 229.025 258.232 229.025 256.698C229.025 255.104 229.41 253.501 230.18 251.891C230.977 250.235 232.039 248.702 233.367 247.291C234.695 245.881 236.156 244.715 237.749 243.795C239.184 242.967 240.657 242.392 242.171 242.07C242.092 238.59 240.79 237.578 238.267 239.034C236.249 240.2 234.775 242.093 233.845 244.715L229.902 244.37C230.645 242.162 231.787 240.108 233.328 238.206C234.868 236.274 236.674 234.71 238.746 233.514ZM242.171 246.302C240.843 246.701 239.688 247.184 238.705 247.751C237.404 248.503 236.395 249.361 235.678 250.327C234.961 251.263 234.602 252.221 234.602 253.202C234.602 254.092 234.881 254.621 235.439 254.789C236.023 254.943 236.766 254.759 237.669 254.237C238.865 253.547 239.914 252.558 240.817 251.27C241.72 249.952 242.171 248.602 242.171 247.222L242.171 246.302ZM267.925 216.116C267.925 212.497 268.629 209.423 270.036 206.893C271.444 204.332 273.369 202.346 275.813 200.936C277.061 200.215 278.19 199.793 279.199 199.671L279.199 205.237C278.455 205.206 277.672 205.428 276.848 205.904C275.733 206.548 274.883 207.468 274.299 208.664C273.741 209.814 273.462 211.431 273.462 213.517L273.462 214.069L278.601 211.102L278.601 216.438L273.462 219.405L273.461 237.897L267.924 241.094L267.924 222.602L259.359 227.547L259.359 246.039L253.821 249.236L253.822 230.744L250.276 232.791L250.277 227.455L253.822 225.408L253.822 224.258C253.822 220.67 254.566 217.572 256.053 214.966C257.541 212.359 259.479 210.366 261.87 208.986C263.038 208.311 264.047 207.928 264.897 207.836C265.774 207.728 266.451 207.859 266.929 208.227L264.817 214.046C264.074 213.678 263.25 213.754 262.347 214.276C261.365 214.843 260.621 215.702 260.117 216.852C259.612 218.002 259.36 219.589 259.36 221.613L259.359 222.211L267.924 217.266L267.925 216.116ZM284.258 204.8C283.355 205.321 282.585 205.382 281.947 204.984C281.31 204.554 280.991 203.818 280.991 202.776C280.991 201.702 281.31 200.598 281.947 199.464C282.585 198.329 283.355 197.501 284.258 196.98C285.161 196.458 285.931 196.397 286.569 196.796C287.233 197.179 287.564 197.907 287.564 198.981C287.564 200.023 287.232 201.135 286.568 202.316C285.931 203.45 285.161 204.278 284.258 204.8ZM287.046 230.054L281.508 233.251L281.509 209.423L287.046 206.226L287.046 230.054ZM301.509 216.689C303.103 215.769 304.378 214.129 305.334 211.767L309.557 212.181C308.893 214.343 307.843 216.298 306.409 218.046C304.975 219.794 303.342 221.197 301.509 222.255C299.677 223.313 297.964 223.827 296.37 223.796C294.777 223.735 293.489 223.053 292.506 221.749C291.524 220.415 291.032 218.445 291.032 215.838C291.033 213.201 291.524 210.663 292.507 208.225C293.489 205.756 294.777 203.587 296.371 201.716C297.965 199.815 299.678 198.335 301.51 197.277C303.343 196.219 304.976 195.736 306.41 195.828C307.844 195.92 308.893 196.664 309.557 198.059L305.334 203.349C304.405 202.107 303.13 201.954 301.51 202.889C300.076 203.717 298.92 205.013 298.044 206.776C297.194 208.494 296.769 210.41 296.769 212.526C296.769 214.612 297.207 216.03 298.083 216.781C298.96 217.533 300.102 217.502 301.509 216.689Z" fill="white"/>
</g>
<defs>
<filter id="filter0_b_54_1686" x="40.9091" y="-50" width="230.985" height="207.516" filterUnits="userSpaceOnUse" color-interpolation-filters="sRGB">
<feFlood flood-opacity="0" result="BackgroundImageFix"/>
<feGaussianBlur in="BackgroundImageFix" stdDeviation="25"/>
<feComposite in2="SourceAlpha" operator="in" result="effect1_backgroundBlur_54_1686"/>
<feBlend mode="normal" in="SourceGraphic" in2="effect1_backgroundBlur_54_1686" result="shape"/>
</filter>
<filter id="filter1_b_54_1686" x="145.947" y="40.4164" width="118.265" height="231.169" filterUnits="userSpaceOnUse" color-interpolation-filters="sRGB">
<feFlood flood-opacity="0" result="BackgroundImageFix"/>
<feGaussianBlur in="BackgroundImageFix" stdDeviation="25"/>
<feComposite in2="SourceAlpha" operator="in" result="effect1_backgroundBlur_54_1686"/>
<feBlend mode="normal" in="SourceGraphic" in2="effect1_backgroundBlur_54_1686" result="shape"/>
</filter>
<filter id="filter2_b_54_1686" x="60.033" y="-62.1013" width="316.661" height="300.054" filterUnits="userSpaceOnUse" color-interpolation-filters="sRGB">
<feFlood flood-opacity="0" result="BackgroundImageFix"/>
<feGaussianBlur in="BackgroundImageFix" stdDeviation="67.957"/>
<feComposite in2="SourceAlpha" operator="in" result="effect1_backgroundBlur_54_1686"/>
<feBlend mode="normal" in="SourceGraphic" in2="effect1_backgroundBlur_54_1686" result="shape"/>
</filter>
<filter id="filter3_b_54_1686" x="34.6373" y="-35.5811" width="212.689" height="194.53" filterUnits="userSpaceOnUse" color-interpolation-filters="sRGB">
<feFlood flood-opacity="0" result="BackgroundImageFix"/>
<feGaussianBlur in="BackgroundImageFix" stdDeviation="25"/>
<feComposite in2="SourceAlpha" operator="in" result="effect1_backgroundBlur_54_1686"/>
<feBlend mode="normal" in="SourceGraphic" in2="effect1_backgroundBlur_54_1686" result="shape"/>
</filter>
<filter id="filter4_d_54_1686" x="187.881" y="181.453" width="121.677" height="104.096" filterUnits="userSpaceOnUse" color-interpolation-filters="sRGB">
<feFlood flood-opacity="0" result="BackgroundImageFix"/>
<feColorMatrix in="SourceAlpha" type="matrix" values="0 0 0 0 0 0 0 0 0 0 0 0 0 0 0 0 0 0 127 0" result="hardAlpha"/>
<feOffset dx="-4"/>
<feComposite in2="hardAlpha" operator="out"/>
<feColorMatrix type="matrix" values="0 0 0 0 0.0901961 0 0 0 0 0.0901961 0 0 0 0 0.0901961 0 0 0 1 0"/>
<feBlend mode="normal" in2="BackgroundImageFix" result="effect1_dropShadow_54_1686"/>
<feBlend mode="normal" in="SourceGraphic" in2="effect1_dropShadow_54_1686" result="shape"/>
</filter>
</defs>
</svg>
