<svg width="332" height="294" viewBox="0 0 332 294" fill="none" xmlns="http://www.w3.org/2000/svg">
<path opacity="0.5" fill-rule="evenodd" clip-rule="evenodd" d="M0 185.88L145.25 98L332 208.783L187.814 294L0 185.88Z" fill="#171717" fill-opacity="0.7"/>
<g filter="url(#filter0_b_54_1721)">
<path fill-rule="evenodd" clip-rule="evenodd" d="M235.811 61.2417L244.744 56L146.586 0L88.9069 34L91.1151 35.2632L67.9288 49L92.9817 63.4609L67.9288 78L92.9817 92.4609L67.9288 107L93.0296 121.489L67.9288 136L192.144 207.463L264.723 165L239.795 150.528L264.723 136L239.754 121.552L264.723 107L239.754 92.5516L264.723 78L235.811 61.2417Z" fill="#171717" fill-opacity="0.7"/>
</g>
<g filter="url(#filter1_b_54_1721)">
<path fill-rule="evenodd" clip-rule="evenodd" d="M186.804 90.0233L88.9069 34V50.7087L186.804 107V90.0233ZM67.9288 49L191.799 120.474V146L67.9288 74.5263V49ZM191.799 149.474L67.9288 78V103.526L191.799 175V149.474ZM67.9288 107L191.799 178.474V204L67.9288 132.526V107ZM67.9288 136L191.799 207.463V250L67.9288 178.537V136Z" fill="#171717" fill-opacity="0.8"/>
</g>
<path fill-rule="evenodd" clip-rule="evenodd" d="M186.804 90L244.744 56V73L186.804 107V90ZM191.799 120.5L264.723 78V103.5L191.799 146V120.5ZM264.723 107L191.799 149.5V175L264.723 132.5V107ZM191.799 178.5L264.723 136V161.5L191.799 204V178.5ZM191.799 207.5L264.723 165V207.5L191.799 250V207.5ZM144.848 194L154.181 185.867C154.784 185.341 155.152 184.597 155.204 183.798L159.904 110.956L163.329 109.25L158.666 181.923C158.591 183.093 158.007 184.171 157.068 184.872L144.848 194Z" fill="#171717"/>
<path opacity="0.859119" fill-rule="evenodd" clip-rule="evenodd" d="M128.865 106L159.833 111L155.561 184.37C155.561 184.37 144.669 197.148 128.865 198C128.438 170.741 128.865 106 128.865 106Z" fill="white"/>
<path fill-rule="evenodd" clip-rule="evenodd" d="M128.865 106L97.8974 79.0001L102.269 150.179C102.485 153.695 103.352 157.13 104.952 160.268C109.054 168.309 118.106 184.967 128.865 198C129.292 170.8 128.865 106 128.865 106Z" fill="white"/>
<path opacity="0.850958" fill-rule="evenodd" clip-rule="evenodd" d="M128.865 106L97.8974 79.0001L102.588 75.5557L132.861 103L128.865 106Z" fill="white"/>
<path fill-rule="evenodd" clip-rule="evenodd" d="M128.865 106L159.833 111L163.229 109.222L132.861 103L128.865 106Z" fill="white"/>
<g filter="url(#filter2_d_54_1721)">
<path d="M219.988 229.025L226.265 225.397L226.264 255.497L240.679 247.165L240.679 253.665L219.987 265.625L219.988 229.025ZM253.722 219.577C256.752 217.826 259.118 217.458 260.821 218.474C262.523 219.456 263.375 221.781 263.375 225.448L263.374 240.548L258.309 243.475C258.28 243.225 258.237 242.817 258.179 242.25C258.151 241.633 258.093 241.117 258.006 240.7C257.343 242.284 256.477 243.684 255.409 244.901C254.37 246.069 253.1 247.086 251.599 247.953C250.041 248.854 248.613 249.363 247.314 249.48C246.044 249.581 245.034 249.248 244.284 248.482C243.533 247.682 243.158 246.449 243.158 244.782C243.158 243.049 243.577 241.307 244.414 239.557C245.28 237.756 246.434 236.089 247.877 234.555C249.32 233.021 250.907 231.754 252.639 230.753C254.197 229.852 255.799 229.226 257.444 228.875C257.358 225.092 255.944 223.993 253.202 225.577C251.009 226.845 249.407 228.904 248.397 231.755L244.111 231.382C244.919 228.981 246.16 226.748 247.834 224.68C249.508 222.579 251.47 220.878 253.722 219.577ZM257.444 233.475C256.001 233.909 254.746 234.435 253.678 235.052C252.264 235.87 251.167 236.803 250.388 237.854C249.609 238.871 249.219 239.913 249.219 240.979C249.219 241.946 249.522 242.521 250.128 242.704C250.763 242.87 251.571 242.67 252.552 242.103C253.851 241.352 254.991 240.277 255.972 238.876C256.953 237.442 257.444 235.975 257.444 234.475L257.444 233.475ZM285.409 201.912L290.084 215.36L294.5 196.658L300.344 193.28L292.161 223.859L287.875 226.336L282.768 213.538L277.876 232.116L273.547 234.618L265.063 213.672L271.253 210.094L275.971 223.717L280.387 204.814L285.409 201.912Z" fill="white"/>
</g>
<defs>
<filter id="filter0_b_54_1721" x="-67.9853" y="-135.914" width="468.622" height="479.291" filterUnits="userSpaceOnUse" color-interpolation-filters="sRGB">
<feFlood flood-opacity="0" result="BackgroundImageFix"/>
<feGaussianBlur in="BackgroundImageFix" stdDeviation="67.957"/>
<feComposite in2="SourceAlpha" operator="in" result="effect1_backgroundBlur_54_1721"/>
<feBlend mode="normal" in="SourceGraphic" in2="effect1_backgroundBlur_54_1721" result="shape"/>
</filter>
<filter id="filter1_b_54_1721" x="-67.9853" y="-101.914" width="395.698" height="487.828" filterUnits="userSpaceOnUse" color-interpolation-filters="sRGB">
<feFlood flood-opacity="0" result="BackgroundImageFix"/>
<feGaussianBlur in="BackgroundImageFix" stdDeviation="67.957"/>
<feComposite in2="SourceAlpha" operator="in" result="effect1_backgroundBlur_54_1721"/>
<feBlend mode="normal" in="SourceGraphic" in2="effect1_backgroundBlur_54_1721" result="shape"/>
</filter>
<filter id="filter2_d_54_1721" x="215.987" y="182.58" width="84.357" height="83.6454" filterUnits="userSpaceOnUse" color-interpolation-filters="sRGB">
<feFlood flood-opacity="0" result="BackgroundImageFix"/>
<feColorMatrix in="SourceAlpha" type="matrix" values="0 0 0 0 0 0 0 0 0 0 0 0 0 0 0 0 0 0 127 0" result="hardAlpha"/>
<feOffset dx="-4"/>
<feComposite in2="hardAlpha" operator="out"/>
<feColorMatrix type="matrix" values="0 0 0 0 0.0901961 0 0 0 0 0.0901961 0 0 0 0 0.0901961 0 0 0 1 0"/>
<feBlend mode="normal" in2="BackgroundImageFix" result="effect1_dropShadow_54_1721"/>
<feBlend mode="normal" in="SourceGraphic" in2="effect1_dropShadow_54_1721" result="shape"/>
</filter>
</defs>
</svg>
