<svg width="339" height="278" viewBox="0 0 339 278" fill="none" xmlns="http://www.w3.org/2000/svg">
<path opacity="0.5" fill-rule="evenodd" clip-rule="evenodd" d="M0 161.12L145.602 73.1086L332.805 184.056L188.27 269.401L0 161.12Z" fill="#171717" fill-opacity="0.7"/>
<g filter="url(#filter0_b_54_1723)">
<path fill-rule="evenodd" clip-rule="evenodd" d="M204.05 53.9794L227.312 40.2781L157.069 0L91.1253 39.0581L114.384 52.3223L91.1253 66.0983L114.384 79.3625L91.1253 93.1385L113.522 105.911L91.1253 119.177L116.181 133.466L74.1019 158.433L174.239 217.574L259.356 167.051L204.01 134.628L227.312 121.18L204.457 107.82L227.312 94.3585L204.05 81.0196L227.312 67.3183L204.05 53.9794Z" fill="#171717" fill-opacity="0.7"/>
</g>
<path fill-rule="evenodd" clip-rule="evenodd" d="M161.222 78.7762L227.312 40.0596V64.4367L161.222 103.153V78.7762ZM227.312 67.0998L161.222 105.816L161.222 130.194L227.312 91.4769V67.0998ZM161.222 132.857L227.312 94.14V118.517L161.222 157.234L161.222 132.857ZM227.312 121.18L161.222 159.237V198.295L227.312 159.738V121.18ZM259.356 167.249L174.239 217.574V226.221L259.356 175.896V167.249Z" fill="#171717"/>
<g filter="url(#filter1_b_54_1723)">
<path fill-rule="evenodd" clip-rule="evenodd" d="M161.222 78.9396L91.1253 39.0581V63.2719L161.222 103.153V78.9396ZM91.1253 66.0983L161.222 105.98V130.194L91.1253 90.3121V66.0983ZM161.222 133.02L91.1253 93.1385V117.352L161.222 157.234V133.02ZM91.1253 119.177L161.222 159.237V198.295L91.1253 158.017V119.177ZM74.1019 158.235L174.239 217.643V226.337L74.1019 166.929V158.235Z" fill="#171717" fill-opacity="0.8"/>
</g>
<path fill-rule="evenodd" clip-rule="evenodd" d="M97.1335 75.1117L106.721 80.8047V93.9884L97.1335 88.2954V75.1117ZM122.168 146.858L108.149 138.206V165.967L122.168 174.259V146.858ZM144.198 159.878L130.179 151.225V178.986L144.198 187.278V159.878ZM118.704 87.9958L109.117 82.3028V95.4865L118.704 101.179V87.9958ZM121.142 89.3175L130.729 95.0105V108.194L121.142 102.501V89.3175ZM142.798 102.187L133.211 96.4941V109.678L142.798 115.371V102.187ZM145.279 103.671L154.866 109.364V122.547L145.279 116.854V103.671ZM106.721 106.478L97.1335 100.785V113.968L106.721 119.661V106.478ZM109.117 107.976L118.704 113.669V126.852L109.117 121.159V107.976ZM130.729 120.683L121.142 114.99V128.174L130.729 133.867V120.683ZM133.211 122.167L142.798 127.86V141.044L133.211 135.351V122.167ZM154.866 135.037L145.279 129.344V142.527L154.866 148.22V135.037Z" fill="white"/>
<path fill-rule="evenodd" clip-rule="evenodd" d="M217.482 89.2463C216.186 90.996 214.666 92.5403 213.001 93.7426L213.195 97.7819L209.098 99.8934L208.905 95.8542C207.208 96.384 205.617 96.443 204.22 96.0817L201.814 100.249L198.762 98.4862L201.167 94.3192C200.156 93.2895 199.412 91.8821 199.022 90.1477L195.428 92L195.208 87.3959L198.802 85.5436C199.011 83.5007 199.588 81.4121 200.455 79.4144L197.776 77.8675L200.518 73.119L203.196 74.6657C204.493 72.9161 206.013 71.3718 207.677 70.1693L207.484 66.1301L211.581 64.0186L211.774 68.0579C213.471 67.528 215.061 67.469 216.459 67.8303L218.864 63.6632L221.917 65.4258L219.511 69.5929C220.523 70.6225 221.267 72.0298 221.657 73.7643L225.251 71.9119L225.471 76.5161L221.877 78.3684C221.668 80.4113 221.09 82.4999 220.224 84.4976L222.902 86.0444L220.161 90.793L217.482 89.2463ZM203.698 85.3788C203.895 89.5007 207.028 91.3098 210.696 89.4194C214.364 87.5291 217.177 82.6552 216.98 78.5332C216.783 74.4113 213.65 72.6022 209.982 74.4926C206.315 76.3829 203.501 81.2569 203.698 85.3788ZM189.802 125.98C191.648 124.651 193.333 122.942 194.769 121.005L197.745 122.724L200.78 117.467L197.804 115.748C198.763 113.536 199.4 111.222 199.628 108.959L203.615 106.912L203.363 101.81L199.376 103.856C198.941 101.934 198.112 100.373 196.987 99.2303L199.651 94.6167L196.259 92.6582L193.596 97.2719C192.044 96.8691 190.278 96.9317 188.396 97.5159L188.174 93.0396L183.63 95.3723L183.851 99.8487C182.006 101.178 180.321 102.887 178.885 104.824L175.908 103.105L172.873 108.362L175.85 110.081C174.891 112.293 174.254 114.607 174.025 116.87L170.038 118.917L170.291 124.019L174.277 121.972C174.713 123.895 175.541 125.456 176.666 126.599L174.003 131.212L177.394 133.171L180.058 128.557C181.61 128.96 183.376 128.897 185.258 128.313L185.479 132.789L190.024 130.457L189.802 125.98ZM187.235 121.186C183.167 123.274 179.686 121.264 179.46 116.696C179.234 112.128 182.349 106.732 186.418 104.643C190.486 102.555 193.967 104.565 194.193 109.133C194.419 113.701 191.304 119.097 187.235 121.186ZM197.866 161.546C200 159.996 201.95 158.009 203.616 155.758L207.038 157.734L210.563 151.629L207.14 149.653C208.256 147.085 209.002 144.402 209.277 141.779L213.883 139.389L213.617 133.479L209.011 135.869C208.519 133.644 207.571 131.84 206.28 130.521L209.373 125.164L205.472 122.912L202.379 128.269C200.592 127.81 198.556 127.891 196.383 128.577L196.15 123.393L190.9 126.118L191.133 131.302C188.999 132.851 187.048 134.839 185.383 137.09L181.96 135.113L178.436 141.219L181.859 143.195C180.742 145.763 179.996 148.446 179.722 151.069L175.116 153.459L175.382 159.369L179.988 156.979C180.48 159.204 181.428 161.008 182.719 162.326L179.626 167.684L183.527 169.936L186.619 164.578C188.407 165.037 190.443 164.956 192.616 164.27L192.849 169.455L198.099 166.73L197.866 161.546ZM194.93 156.004C190.23 158.443 186.226 156.131 185.988 150.841C185.75 145.55 189.368 139.283 194.068 136.844C198.769 134.405 202.772 136.716 203.01 142.007C203.248 147.298 199.63 153.564 194.93 156.004Z" fill="white"/>
<g filter="url(#filter2_d_54_1723)">
<path d="M202.248 230.69L204.915 229.15L204.915 249.646L201.568 251.578L201.569 238.362L197.058 248.722L195.216 249.786L190.682 244.593L190.681 257.865L187.359 259.783L187.36 239.287L190.148 237.677L196.21 244.788L202.248 230.69ZM213.667 229.724C215.364 228.744 216.69 228.538 217.643 229.108C218.597 229.658 219.074 230.96 219.074 233.013L219.073 241.469L216.236 243.108C216.22 242.968 216.196 242.739 216.164 242.422C216.148 242.076 216.115 241.787 216.067 241.554C215.695 242.44 215.21 243.224 214.612 243.906C214.03 244.559 213.319 245.129 212.478 245.614C211.605 246.118 210.805 246.403 210.078 246.468C209.366 246.524 208.801 246.338 208.38 245.908C207.96 245.46 207.75 244.77 207.75 243.836C207.75 242.866 207.984 241.89 208.453 240.91C208.938 239.902 209.585 238.969 210.393 238.11C211.201 237.251 212.09 236.542 213.06 235.982C213.933 235.478 214.83 235.128 215.752 234.932C215.703 232.813 214.911 232.197 213.376 233.084C212.147 233.793 211.25 234.946 210.684 236.542L208.284 236.332C208.736 234.988 209.431 233.738 210.369 232.58C211.307 231.404 212.406 230.452 213.667 229.724ZM215.752 237.508C214.943 237.75 214.24 238.044 213.642 238.39C212.85 238.847 212.236 239.37 211.799 239.958C211.363 240.527 211.145 241.111 211.145 241.708C211.145 242.249 211.314 242.571 211.654 242.674C212.009 242.767 212.462 242.655 213.012 242.338C213.739 241.918 214.378 241.316 214.927 240.532C215.477 239.729 215.752 238.908 215.752 238.068L215.752 237.508ZM229.245 220.728C230.635 219.925 231.734 219.823 232.542 220.42C233.35 220.999 233.755 222.296 233.754 224.312L233.754 232.992L230.384 234.938L230.384 227.518C230.384 224.867 229.624 223.981 228.105 224.858C227.297 225.325 226.642 226.067 226.141 227.085C225.656 228.074 225.413 229.222 225.413 230.529L225.413 237.809L222.043 239.755L222.043 225.251L225.001 223.543C225.082 224.635 225.155 225.367 225.219 225.741C226.028 223.482 227.369 221.811 229.245 220.728ZM244.8 212.11L248.17 210.164L248.17 224.668L245.187 226.39C245.123 225.307 245.058 224.588 244.993 224.234C244.573 225.354 244.023 226.325 243.345 227.146C242.666 227.967 241.89 228.63 241.017 229.134C239.61 229.946 238.503 230.063 237.695 229.484C236.887 228.906 236.483 227.608 236.483 225.592L236.483 216.912L239.853 214.966L239.853 222.358C239.853 225.028 240.597 225.933 242.084 225.074C242.892 224.607 243.547 223.865 244.048 222.848C244.549 221.83 244.8 220.668 244.8 219.362L244.8 212.11ZM257.3 201.112C256.702 201.457 256.249 201.97 255.942 202.652C255.635 203.333 255.481 204.243 255.481 205.382L255.481 205.942L258.755 204.051L258.755 207.299L255.481 209.19L255.481 220.446L252.11 222.392L252.111 211.136L249.953 212.382L249.953 209.134L252.111 207.888L252.111 207.188C252.111 205.004 252.564 203.119 253.469 201.532C254.374 199.945 255.554 198.732 257.009 197.892C257.72 197.481 258.351 197.238 258.9 197.163C259.45 197.089 259.886 197.154 260.21 197.359L258.925 200.901C258.423 200.705 257.882 200.776 257.3 201.112ZM265.169 199.983C266.866 199.003 268.192 198.798 269.146 199.367C270.099 199.918 270.576 201.22 270.576 203.273L270.576 211.729L267.739 213.367C267.723 213.227 267.698 212.999 267.666 212.681C267.65 212.336 267.618 212.047 267.569 211.813C267.197 212.7 266.712 213.484 266.114 214.165C265.532 214.819 264.821 215.388 263.981 215.873C263.108 216.378 262.307 216.662 261.58 216.728C260.869 216.784 260.303 216.597 259.883 216.168C259.462 215.72 259.252 215.029 259.252 214.096C259.252 213.125 259.487 212.15 259.956 211.17C260.441 210.162 261.087 209.228 261.895 208.37C262.704 207.511 263.593 206.802 264.563 206.241C265.436 205.737 266.333 205.387 267.254 205.191C267.206 203.073 266.414 202.457 264.878 203.343C263.65 204.053 262.752 205.206 262.187 206.802L259.786 206.592C260.239 205.248 260.934 203.997 261.871 202.84C262.809 201.664 263.908 200.711 265.169 199.983ZM267.254 207.767C266.446 208.01 265.743 208.304 265.145 208.649C264.353 209.107 263.738 209.629 263.302 210.218C262.865 210.787 262.647 211.37 262.647 211.968C262.647 212.509 262.817 212.831 263.156 212.934C263.512 213.027 263.964 212.915 264.514 212.597C265.241 212.177 265.88 211.575 266.43 210.791C266.979 209.989 267.254 209.167 267.254 208.327L267.254 207.767ZM279.195 203.7C280.165 203.14 280.941 202.141 281.523 200.704L284.093 200.956C283.689 202.272 283.05 203.462 282.177 204.526C281.304 205.59 280.31 206.444 279.195 207.088C278.079 207.732 277.037 208.045 276.067 208.026C275.097 207.989 274.313 207.574 273.715 206.78C273.117 205.968 272.818 204.769 272.818 203.182C272.818 201.577 273.117 200.032 273.715 198.548C274.313 197.046 275.097 195.725 276.067 194.586C277.037 193.429 278.08 192.528 279.195 191.884C280.311 191.24 281.305 190.946 282.178 191.002C283.051 191.058 283.689 191.51 284.093 192.36L281.523 195.58C280.957 194.824 280.181 194.73 279.195 195.3C278.322 195.804 277.619 196.593 277.086 197.666C276.568 198.711 276.31 199.878 276.31 201.166C276.309 202.435 276.576 203.299 277.11 203.756C277.643 204.213 278.338 204.195 279.195 203.7ZM295.085 196.736C294.26 197.996 293.113 199.051 291.642 199.9C290.284 200.685 289.184 200.909 288.344 200.573C287.519 200.209 287.107 198.953 287.107 196.807L287.108 190.955L284.877 192.243L284.877 188.967L287.108 187.679L287.108 183.227L290.478 181.281L290.478 185.733L294.261 183.548L294.261 186.824L290.478 189.009L290.478 194.217C290.478 195.187 290.623 195.84 290.914 196.176C291.205 196.512 291.674 196.494 292.321 196.12C292.886 195.794 293.42 195.29 293.921 194.608L295.085 196.736ZM304.732 177.501L308.102 175.555L308.102 190.059L305.12 191.781C305.055 190.699 304.99 189.98 304.926 189.625C304.505 190.745 303.956 191.716 303.277 192.538C302.598 193.359 301.822 194.022 300.949 194.526C299.543 195.338 298.435 195.455 297.627 194.876C296.819 194.297 296.415 193 296.415 190.984L296.415 182.304L299.786 180.358L299.785 187.75C299.785 190.419 300.529 191.324 302.016 190.466C302.824 189.999 303.479 189.257 303.98 188.239C304.481 187.222 304.732 186.06 304.732 184.753L304.732 177.501ZM317.911 169.527C318.396 169.247 318.849 169.07 319.269 168.995C319.689 168.92 320.012 168.948 320.239 169.079L318.929 172.831C318.509 172.738 318.032 172.845 317.499 173.153C316.626 173.657 315.923 174.483 315.389 175.631C314.872 176.77 314.613 178.077 314.613 179.551L314.613 186.299L311.242 188.246L311.243 173.742L314.201 172.033C314.282 173.107 314.355 173.83 314.419 174.203C314.791 173.111 315.276 172.169 315.874 171.375C316.472 170.582 317.151 169.966 317.911 169.527ZM326.41 164.619C327.525 163.975 328.511 163.695 329.368 163.779C330.241 163.835 330.912 164.25 331.381 165.025C331.866 165.772 332.108 166.817 332.108 168.161C332.108 168.758 332.059 169.393 331.962 170.065L323.621 174.882C323.767 175.88 324.106 176.506 324.64 176.757C325.173 176.991 325.836 176.879 326.628 176.421C327.194 176.095 327.695 175.665 328.131 175.133C328.584 174.573 328.931 173.934 329.174 173.215L331.647 173.467C331.308 174.727 330.653 175.926 329.683 177.065C328.729 178.195 327.662 179.1 326.482 179.781C325.351 180.435 324.3 180.752 323.33 180.734C322.36 180.715 321.576 180.3 320.978 179.488C320.396 178.667 320.105 177.444 320.105 175.82C320.105 174.215 320.396 172.675 320.978 171.2C321.577 169.716 322.353 168.409 323.306 167.28C324.26 166.15 325.295 165.263 326.41 164.619ZM326.313 167.839C325.65 168.222 325.084 168.791 324.616 169.547C324.147 170.304 323.832 171.167 323.67 172.138L328.665 169.253C328.6 168.395 328.35 167.858 327.913 167.643C327.493 167.401 326.96 167.466 326.313 167.839Z" fill="white"/>
</g>
<defs>
<filter id="filter0_b_54_1723" x="-61.8122" y="-135.914" width="457.083" height="489.402" filterUnits="userSpaceOnUse" color-interpolation-filters="sRGB">
<feFlood flood-opacity="0" result="BackgroundImageFix"/>
<feGaussianBlur in="BackgroundImageFix" stdDeviation="67.957"/>
<feComposite in2="SourceAlpha" operator="in" result="effect1_backgroundBlur_54_1723"/>
<feBlend mode="normal" in="SourceGraphic" in2="effect1_backgroundBlur_54_1723" result="shape"/>
</filter>
<filter id="filter1_b_54_1723" x="-61.8122" y="-96.856" width="371.966" height="459.107" filterUnits="userSpaceOnUse" color-interpolation-filters="sRGB">
<feFlood flood-opacity="0" result="BackgroundImageFix"/>
<feGaussianBlur in="BackgroundImageFix" stdDeviation="67.957"/>
<feComposite in2="SourceAlpha" operator="in" result="effect1_backgroundBlur_54_1723"/>
<feBlend mode="normal" in="SourceGraphic" in2="effect1_backgroundBlur_54_1723" result="shape"/>
</filter>
<filter id="filter2_d_54_1723" x="183.359" y="154.525" width="148.749" height="105.594" filterUnits="userSpaceOnUse" color-interpolation-filters="sRGB">
<feFlood flood-opacity="0" result="BackgroundImageFix"/>
<feColorMatrix in="SourceAlpha" type="matrix" values="0 0 0 0 0 0 0 0 0 0 0 0 0 0 0 0 0 0 127 0" result="hardAlpha"/>
<feOffset dx="-4"/>
<feComposite in2="hardAlpha" operator="out"/>
<feColorMatrix type="matrix" values="0 0 0 0 0.0901961 0 0 0 0 0.0901961 0 0 0 0 0.0901961 0 0 0 1 0"/>
<feBlend mode="normal" in2="BackgroundImageFix" result="effect1_dropShadow_54_1723"/>
<feBlend mode="normal" in="SourceGraphic" in2="effect1_dropShadow_54_1723" result="shape"/>
</filter>
</defs>
</svg>
