<svg width="332" height="336" viewBox="0 0 332 336" fill="none" xmlns="http://www.w3.org/2000/svg">
<path opacity="0.5" fill-rule="evenodd" clip-rule="evenodd" d="M0 220.158L145.25 132.167L332 243.089L187.814 328.414L0 220.158Z" fill="#171717" fill-opacity="0.7"/>
<g filter="url(#filter0_b_54_1724)">
<path fill-rule="evenodd" clip-rule="evenodd" d="M133.181 15.7567L186.892 48.5832V214.029L133.181 181.202V15.7567Z" fill="white"/>
</g>
<g filter="url(#filter1_b_54_1724)">
<path fill-rule="evenodd" clip-rule="evenodd" d="M133.181 15.7567L186.892 48.5832L213.093 32.8265L159.381 0L133.181 15.7567Z" fill="#171717" fill-opacity="0.7"/>
</g>
<path fill-rule="evenodd" clip-rule="evenodd" d="M139.853 27.3202L137.856 26.0328V30.7531L139.853 32.0404V27.3202ZM165.826 42.3391L163.828 41.0518V45.772L165.826 47.0594V42.3391ZM150.842 33.0417L152.84 34.329V39.0493L150.842 37.7619V33.0417ZM178.813 50.3492L176.815 49.0619V53.7821L178.813 55.0695V50.3492ZM137.856 59.0745L139.854 60.3619V65.0821L137.856 63.7948V59.0745ZM165.826 75.3808L163.828 74.0935V78.8137L165.826 80.1011V75.3808ZM150.842 66.0834L152.84 67.3707V72.0909L150.842 70.8036V66.0834ZM178.813 83.3909L176.815 82.1036V86.8238L178.813 88.1112V83.3909ZM137.856 92.1162L139.854 93.4035V98.1238L137.856 96.8364V92.1162ZM165.826 107.421L163.828 106.134V110.854L165.826 112.141V107.421ZM150.842 98.1238L152.84 99.4111V104.131L150.842 102.844V98.1238ZM178.813 115.431L176.815 114.144V118.864L178.813 120.152V115.431ZM137.856 124.157L139.854 125.444V130.164L137.856 128.877V124.157ZM165.826 140.463L163.828 139.176V143.896L165.826 145.183V140.463ZM150.842 131.165L152.84 132.453V137.173L150.842 135.886V131.165ZM178.813 148.473L176.815 147.186V151.906L178.813 153.193V148.473ZM137.856 157.198L139.854 158.486V163.206L137.856 161.919V157.198ZM165.826 172.503L163.828 171.216V175.936L165.826 177.224V172.503ZM150.842 163.206L152.84 164.493V169.213L150.842 167.926V163.206ZM178.813 180.513L176.815 179.226V183.946L178.813 185.234V180.513ZM137.856 43.0543L139.854 44.3417V49.0619L137.856 47.7746V43.0543ZM165.826 58.3593L163.828 57.072V61.7922L165.826 63.0796V58.3593ZM150.842 49.0619L152.84 50.3492V55.0695L150.842 53.7821V49.0619ZM178.813 67.3707L176.815 66.0834V70.8036L178.813 72.0909V67.3707ZM137.856 75.0947L139.854 76.3821V81.1023L137.856 79.815V75.0947ZM165.826 91.401L163.828 90.1137V94.8339L165.826 96.1213V91.401ZM150.842 82.1036L152.84 83.3909V88.1112L150.842 86.8238V82.1036ZM178.813 99.4111L176.815 98.1238V102.844L178.813 104.131V99.4111ZM137.856 108.136L139.854 109.424V114.144L137.856 112.857V108.136ZM165.826 123.441L163.828 122.154V126.874L165.826 128.162V123.441ZM150.842 114.144L152.84 115.431V120.152L150.842 118.864V114.144ZM178.813 132.453L176.815 131.165V135.886L178.813 137.173V132.453ZM137.856 140.177L139.854 141.464V146.184L137.856 144.897V140.177ZM165.826 156.483L163.828 155.196V159.916L165.826 161.203V156.483ZM150.842 147.186L152.84 148.473V153.193L150.842 151.906V147.186ZM178.813 164.493L176.815 163.206V167.926L178.813 169.213V164.493ZM137.856 35.0442L139.854 36.3315V41.0518L137.856 39.7644V35.0442ZM165.826 50.3492L163.828 49.0619V53.7821L165.826 55.0695V50.3492ZM150.842 41.0518L152.84 42.3391V47.0594L150.842 45.772V41.0518ZM178.813 58.3593L176.815 57.072V61.7922L178.813 63.0796V58.3593ZM137.856 67.0846L139.854 68.372V73.0922L137.856 71.8049V67.0846ZM165.826 83.3909L163.828 82.1036V86.8238L165.826 88.1112V83.3909ZM150.842 74.0935L152.84 75.3808V80.1011L150.842 78.8137V74.0935ZM178.813 91.401L176.815 90.1137V94.8339L178.813 96.1213V91.401ZM137.856 100.126L139.854 101.414V106.134L137.856 104.847V100.126ZM165.826 115.431L163.828 114.144V118.864L165.826 120.152V115.431ZM150.842 106.134L152.84 107.421V112.141L150.842 110.854V106.134ZM178.813 123.441L176.815 122.154V126.874L178.813 128.162V123.441ZM137.856 132.167L139.854 133.454V138.174L137.856 136.887V132.167ZM165.826 148.473L163.828 147.186V151.906L165.826 153.193V148.473ZM150.842 139.176L152.84 140.463V145.183L150.842 143.896V139.176ZM178.813 156.483L176.815 155.196V159.916L178.813 161.203V156.483ZM137.856 165.208L139.854 166.496V171.216L137.856 169.929V165.208ZM165.826 180.513L163.828 179.226V183.946L165.826 185.234V180.513ZM150.842 171.216L152.84 172.503V177.224L150.842 175.936V171.216ZM178.813 189.525L176.815 188.237V192.958L178.813 194.245V189.525ZM137.856 51.0644L139.854 52.3518V57.072L137.856 55.7847V51.0644ZM165.826 67.3707L163.828 66.0834V70.8036L165.826 72.0909V67.3707ZM150.842 57.072L152.84 58.3593V63.0796L150.842 61.7922V57.072ZM178.813 75.3808L176.815 74.0935V78.8137L178.813 80.1011V75.3808ZM137.856 83.1048L139.854 84.3922V89.1124L137.856 87.8251V83.1048ZM165.826 99.4111L163.828 98.1238V102.844L165.826 104.131V99.4111ZM150.842 90.1137L152.84 91.401V96.1213L150.842 94.8339V90.1137ZM178.813 107.421L176.815 106.134V110.854L178.813 112.141V107.421ZM137.856 116.147L139.854 117.434V122.154L137.856 120.867V116.147ZM165.826 132.453L163.828 131.165V135.886L165.826 137.173V132.453ZM150.842 122.154L152.84 123.441V128.162L150.842 126.874V122.154ZM178.813 140.463L176.815 139.176V143.896L178.813 145.183V140.463ZM137.856 149.188L139.854 150.476V155.196L137.856 153.908V149.188ZM165.826 164.493L163.828 163.206V167.926L165.826 169.213V164.493ZM150.842 155.196L152.84 156.483V161.203L150.842 159.916V155.196ZM178.813 172.503L176.815 171.216V175.936L178.813 177.224V172.503ZM141.851 28.0354L143.849 29.3227V34.0429L141.851 32.7556V28.0354ZM169.822 44.3417L167.824 43.0543V47.7746L169.822 49.0619V44.3417ZM154.838 35.0442L156.836 36.3315V41.0518L154.838 39.7644V35.0442ZM182.808 52.3518L180.811 51.0644V55.7847L182.808 57.072V52.3518ZM141.851 61.0771L143.849 62.3644V67.0846L141.851 65.7973V61.0771ZM169.822 77.3833L167.824 76.096V80.8162L169.822 82.1036V77.3833ZM154.838 68.0859L156.836 69.3732V74.0935L154.838 72.8061V68.0859ZM182.808 85.3934L180.811 84.1061V88.8263L182.808 90.1137V85.3934ZM141.851 94.1187L143.849 95.4061V100.126L141.851 98.839V94.1187ZM169.822 109.424L167.824 108.136V112.857L169.822 114.144V109.424ZM154.838 100.126L156.836 101.414V106.134L154.838 104.847V100.126ZM182.808 117.434L180.811 116.147V120.867L182.808 122.154V117.434ZM141.851 126.159L143.849 127.447V132.167L141.851 130.879V126.159ZM169.822 142.465L167.824 141.178V145.898L169.822 147.186V142.465ZM154.838 133.168L156.836 134.455V139.176L154.838 137.888V133.168ZM182.808 150.476L180.811 149.188V153.908L182.808 155.196V150.476ZM141.851 159.201L143.849 160.488V165.208L141.851 163.921V159.201ZM169.822 174.506L167.824 173.219V177.939L169.822 179.226V174.506ZM154.838 165.208L156.836 166.496V171.216L154.838 169.929V165.208ZM182.808 182.516L180.811 181.229V185.949L182.808 187.236V182.516ZM141.851 45.0568L143.849 46.3442V51.0644L141.851 49.7771V45.0568ZM169.822 60.3619L167.824 59.0745V63.7948L169.822 65.0821V60.3619ZM154.838 51.0644L156.836 52.3518V57.072L154.838 55.7847V51.0644ZM182.808 69.3732L180.811 68.0859V72.8061L182.808 74.0935V69.3732ZM141.851 77.0973L143.849 78.3846V83.1048L141.851 81.8175V77.0973ZM169.822 93.4035L167.824 92.1162V96.8364L169.822 98.1238V93.4035ZM154.838 84.1061L156.836 85.3934V90.1137L154.838 88.8263V84.1061ZM182.808 101.414L180.811 100.126V104.847L182.808 106.134V101.414ZM141.851 110.139L143.849 111.426V116.147L141.851 114.859V110.139ZM169.822 125.444L167.824 124.157V128.877L169.822 130.164V125.444ZM154.838 116.147L156.836 117.434V122.154L154.838 120.867V116.147ZM182.808 134.455L180.811 133.168V137.888L182.808 139.176V134.455ZM141.851 142.179L143.849 143.467V148.187L141.851 146.9V142.179ZM169.822 158.486L167.824 157.198V161.919L169.822 163.206V158.486ZM154.838 149.188L156.836 150.476V155.196L154.838 153.908V149.188ZM182.808 166.496L180.811 165.208V169.929L182.808 171.216V166.496ZM141.851 37.0467L143.849 38.3341V43.0543L141.851 41.767V37.0467ZM169.822 52.3518L167.824 51.0644V55.7847L169.822 57.072V52.3518ZM154.838 43.0543L156.836 44.3417V49.0619L154.838 47.7746V43.0543ZM182.808 60.3619L180.811 59.0745V63.7948L182.808 65.0821V60.3619ZM141.851 69.0872L143.849 70.3745V75.0947L141.851 73.8074V69.0872ZM169.822 85.3934L167.824 84.1061V88.8263L169.822 90.1137V85.3934ZM154.838 76.096L156.836 77.3833V82.1036L154.838 80.8162V76.096ZM182.808 93.4035L180.811 92.1162V96.8364L182.808 98.1238V93.4035ZM141.851 102.129L143.849 103.416V108.136L141.851 106.849V102.129ZM169.822 117.434L167.824 116.147V120.867L169.822 122.154V117.434ZM154.838 108.136L156.836 109.424V114.144L154.838 112.857V108.136ZM182.808 125.444L180.811 124.157V128.877L182.808 130.164V125.444ZM141.851 134.169L143.849 135.457V140.177L141.851 138.89V134.169ZM169.822 150.476L167.824 149.188V153.908L169.822 155.196V150.476ZM154.838 141.178L156.836 142.465V147.186L154.838 145.898V141.178ZM182.808 158.486L180.811 157.198V161.919L182.808 163.206V158.486ZM141.851 167.211L143.849 168.498V173.219L141.851 171.931V167.211ZM169.822 182.516L167.824 181.229V185.949L169.822 187.236V182.516ZM154.838 173.219L156.836 174.506V179.226L154.838 177.939V173.219ZM182.808 191.527L180.811 190.24V194.96L182.808 196.248V191.527ZM141.851 53.0669L143.849 54.3543V59.0745L141.851 57.7872V53.0669ZM169.822 69.3732L167.824 68.0859V72.8061L169.822 74.0935V69.3732ZM154.838 59.0745L156.836 60.3619V65.0821L154.838 63.7948V59.0745ZM182.808 77.3833L180.811 76.096V80.8162L182.808 82.1036V77.3833ZM141.851 85.1074L143.849 86.3947V91.1149L141.851 89.8276V85.1074ZM169.822 101.414L167.824 100.126V104.847L169.822 106.134V101.414ZM154.838 92.1162L156.836 93.4035V98.1238L154.838 96.8364V92.1162ZM182.808 109.424L180.811 108.136V112.857L182.808 114.144V109.424ZM141.851 118.149L143.849 119.436V124.157L141.851 122.869V118.149ZM169.822 134.455L167.824 133.168V137.888L169.822 139.176V134.455ZM154.838 124.157L156.836 125.444V130.164L154.838 128.877V124.157ZM182.808 142.465L180.811 141.178V145.898L182.808 147.186V142.465ZM141.851 151.191L143.849 152.478V157.198L141.851 155.911V151.191ZM169.822 166.496L167.824 165.208V169.929L169.822 171.216V166.496ZM154.838 157.198L156.836 158.486V163.206L154.838 161.919V157.198ZM182.808 174.506L180.811 173.219V177.939L182.808 179.226V174.506Z" fill="#171717"/>
<path fill-rule="evenodd" clip-rule="evenodd" d="M213.093 32.8265L186.892 48.5833V214.029L213.093 198.272V32.8265Z" fill="#171717"/>
<g filter="url(#filter2_b_54_1724)">
<path fill-rule="evenodd" clip-rule="evenodd" d="M203.922 90.6012L223.573 78.7837L258.944 98.4796L239.293 110.297L203.922 90.6012ZM139.731 80.0968L104.36 100.121L124.01 111.61L158.071 91.9143L139.731 80.0968ZM68.9965 161.624L50.6487 172.011L70.2992 183.5L85.5765 174.666L104.36 163.804V114.236L95.1898 119.489V137.871L68.9892 152.315L68.9965 161.624ZM253.704 125.726L219.97 171.026L278.594 206.151L300.685 193.745L278.458 178.475L278.594 141.811L253.704 125.726ZM196.062 119.489L203.922 114.236L239.293 133.932L231.433 139.184L196.062 119.489ZM196.062 166.759L177.722 178.248L213.093 197.944L231.433 186.455L196.062 166.759ZM143.661 241.931L177.722 221.907L213.093 244.229L180.342 263.925L143.661 241.931ZM158.071 146.735L124.01 166.759L143.661 178.576L177.722 158.88L158.071 146.735Z" fill="#171717" fill-opacity="0.7"/>
</g>
<g filter="url(#filter3_b_54_1724)">
<path fill-rule="evenodd" clip-rule="evenodd" d="M203.922 114.236V90.6011L239.293 110.297V133.932L203.922 114.236ZM69.0685 182.741L50.6487 172.011V223.829L180.342 299.378V263.925L143.661 241.931V178.576L124.01 166.759V111.61L104.36 100.121V124.741L95.1898 119.488V168.072L68.9892 152.315L69.0685 182.741ZM196.062 119.488V166.759L231.433 186.454V139.184L196.062 119.488ZM177.722 221.907V178.248L213.093 197.944V244.229L177.722 221.907Z" fill="#171717" fill-opacity="0.8"/>
</g>
<path fill-rule="evenodd" clip-rule="evenodd" d="M124.01 166.759L158.071 146.735V91.9143L124.01 111.61V166.759ZM143.661 241.931L177.722 221.907V158.88L143.661 178.576V241.931ZM278.594 206.151L300.685 193.745V229.197L180.342 299.378V263.925L213.093 244.229V197.944L231.433 186.455V139.184L239.293 133.932V110.297L258.944 98.4796V153.628L278.594 141.811V206.151Z" fill="#171717"/>
<path fill-rule="evenodd" clip-rule="evenodd" d="M103.891 131.406L98.8964 128.162V133.929L103.891 137.173V131.406ZM256.731 133.168L251.736 136.412V142.179L256.731 138.935V133.168ZM256.731 177.224L251.736 180.468V186.235L256.731 182.991V177.224ZM251.736 156.437L256.731 153.193V158.961L251.736 162.205V156.437ZM256.731 197.249L251.736 200.493V206.26L256.731 203.016V197.249ZM251.736 146.425L256.731 143.181V148.948L251.736 152.192V146.425ZM256.731 187.236L251.736 190.48V196.248L256.731 193.004V187.236ZM251.736 167.451L256.731 164.207V169.974L251.736 173.219V167.451ZM274.712 153.193L269.717 156.437V162.205L274.712 158.961V153.193ZM251.736 211.507L256.731 208.263V214.03L251.736 217.274V211.507ZM256.731 219.277L251.736 222.521V228.288L256.731 225.044V219.277ZM235.753 242.549L282.704 215.272V236.055L263.519 247.201L235.753 263.332V242.549ZM231.757 244.308L218.771 252.227V273.345L231.757 265.426V244.308ZM198.792 264.243L211.778 256.323V277.441L198.792 285.36V264.243ZM248.739 137.173L243.745 140.417V146.184L248.739 142.94V137.173ZM243.745 184.473L248.739 181.229V186.996L243.745 190.24V184.473ZM274.712 167.211L269.717 170.455V176.222L274.712 172.978V167.211ZM226.762 195.487L231.757 192.243V198.01L226.762 201.254V195.487ZM248.739 157.198L243.745 160.442V166.21L248.739 162.966V157.198ZM243.745 206.501L248.739 203.256V209.024L243.745 212.268V206.501ZM274.712 187.236L269.717 190.48V196.248L274.712 193.004V187.236ZM226.762 216.513L231.757 213.269V219.036L226.762 222.28V216.513ZM248.739 146.184L243.745 149.429V155.196L248.739 151.952V146.184ZM243.745 195.487L248.739 192.243V198.01L243.745 201.254V195.487ZM274.712 177.224L269.717 180.468V186.235L274.712 182.991V177.224ZM226.762 206.501L231.757 203.256V209.024L226.762 212.268V206.501ZM248.739 168.212L243.745 171.456V177.224L248.739 173.98V168.212ZM261.726 160.442L266.721 157.198V162.966L261.726 166.21V160.442ZM248.739 213.269L243.745 216.513V222.28L248.739 219.036V213.269ZM269.717 201.494L274.712 198.25V204.017L269.717 207.262V201.494ZM231.757 224.283L226.762 227.527V233.294L231.757 230.05V224.283ZM243.745 227.527L248.739 224.283V230.05L243.745 233.294V227.527ZM274.712 209.264L269.717 212.508V218.275L274.712 215.031V209.264ZM226.762 237.54L231.757 234.296V240.063L226.762 243.307V237.54ZM240.748 141.178L235.753 144.422V150.19L240.748 146.945V141.178ZM235.753 188.478L240.748 185.234V191.001L235.753 194.245V188.478ZM265.722 172.217L260.727 175.461V181.229L265.722 177.985V172.217ZM217.772 199.492L222.767 196.248V202.015L217.772 205.259V199.492ZM240.748 162.205L235.753 165.449V171.216L240.748 167.972V162.205ZM235.753 210.506L240.748 207.262V213.029L235.753 216.273V210.506ZM265.722 192.243L260.727 195.487V201.254L265.722 198.01V192.243ZM217.772 219.517L222.767 216.273V222.04L217.772 225.284V219.517ZM240.748 152.192L235.753 155.436V161.203L240.748 157.959V152.192ZM235.753 199.492L240.748 196.248V202.015L235.753 205.259V199.492ZM265.722 182.23L260.727 185.474V191.241L265.722 187.997V182.23ZM217.772 210.506L222.767 207.262V213.029L217.772 216.273V210.506ZM240.748 173.219L235.753 176.463V182.23L240.748 178.986V173.219ZM235.753 219.517L240.748 216.273V222.04L235.753 225.284V219.517ZM265.722 203.256L260.727 206.501V212.268L265.722 209.024V203.256ZM217.772 230.531L222.767 227.287V233.054L217.772 236.298V230.531ZM240.748 227.287L235.753 230.531V236.298L240.748 233.054V227.287ZM260.727 217.514L265.722 214.27V220.038L260.727 223.282V217.514ZM222.767 238.301L217.772 241.545V247.312L222.767 244.068V238.301ZM98.8964 173.219L103.891 176.463V182.23L98.8964 178.986V173.219ZM78.9173 161.444L73.9226 158.2V163.967L78.9173 167.211V161.444ZM98.8964 149.188L103.891 152.432V158.2L98.8964 154.956V149.188ZM103.891 198.49L98.8964 195.246V201.014L103.891 204.258V198.49ZM73.9226 179.226L78.9173 182.47V188.238L73.9226 184.993V179.226ZM103.891 142.42L98.8964 139.176V144.943L103.891 148.187V142.42ZM98.8964 184.232L103.891 187.477V193.244L98.8964 190V184.232ZM78.9173 172.458L73.9226 169.214V174.981L78.9173 178.225V172.458ZM98.8964 160.202L103.891 163.446V169.214L98.8964 165.969V160.202ZM103.891 207.502L98.8964 204.258V210.025L103.891 213.269V207.502ZM73.9226 190.24L78.9173 193.484V199.251L73.9226 196.007V190.24ZM61.9351 183.472L56.9404 180.227V185.995L61.9351 189.239V183.472ZM98.8964 215.272L103.891 218.516V224.283L98.8964 221.039V215.272ZM78.9173 204.498L73.9226 201.254V207.021L78.9173 210.265V204.498ZM73.9226 212.268L120.873 239.546V260.328L93.1076 244.197L73.9226 233.051V212.268ZM136.857 248.222L123.87 240.303V261.421L136.857 269.34V248.222ZM143.849 252.318L156.836 260.237V281.355L143.849 273.436V252.318ZM61.9351 194.485L56.9404 191.241V197.009L61.9351 200.253V194.485ZM106.888 133.168L111.883 136.412V142.179L106.888 138.935V133.168ZM111.883 180.468L106.888 177.224V182.991L111.883 186.235V180.468ZM80.9153 163.206L85.91 166.45V172.217L80.9153 168.973V163.206ZM128.865 190.48L123.87 187.236V193.004L128.865 196.248V190.48ZM106.888 155.196L111.883 158.44V164.207L106.888 160.963V155.196ZM111.883 201.494L106.888 198.25V204.017L111.883 207.262V201.494ZM80.9153 184.232L85.91 187.477V193.244L80.9153 190V184.232ZM128.865 212.508L123.87 209.264V215.031L128.865 218.275V212.508ZM106.888 144.182L111.883 147.426V153.193L106.888 149.949V144.182ZM111.883 190.48L106.888 187.236V193.004L111.883 196.248V190.48ZM80.9153 174.22L85.91 177.464V183.231L80.9153 179.987V174.22ZM128.865 201.494L123.87 198.25V204.017L128.865 207.262V201.494ZM106.888 164.207L111.883 167.451V173.219L106.888 169.974V164.207ZM128.865 178.465L123.87 175.221V180.988L128.865 184.232V178.465ZM106.888 209.264L111.883 212.508V218.275L106.888 215.031V209.264ZM85.91 198.49L80.9153 195.246V201.014L85.91 204.258V198.49ZM63.933 185.234L68.9278 188.478V194.245L63.933 191.001V185.234ZM128.865 222.521L123.87 219.277V225.044L128.865 228.288V222.521ZM106.888 219.277L111.883 222.521V228.288L106.888 225.044V219.277ZM85.91 208.503L80.9153 205.259V211.026L85.91 214.27V208.503ZM63.933 195.246L68.9278 198.49V204.258L63.933 201.014V195.246ZM128.865 233.535L123.87 230.291V236.058L128.865 239.302V233.535ZM114.88 137.173L119.874 140.417V146.184L114.88 142.94V137.173ZM119.874 185.474L114.88 182.23V187.997L119.874 191.241V185.474ZM87.9079 167.211L92.9027 170.455V176.222L87.9079 172.978V167.211ZM136.857 195.487L131.862 192.243V198.01L136.857 201.254V195.487ZM114.88 158.2L119.874 161.444V167.211L114.88 163.967V158.2ZM119.874 206.501L114.88 203.256V209.024L119.874 212.268V206.501ZM87.9079 189.239L92.9027 192.483V198.25L87.9079 195.006V189.239ZM136.857 217.514L131.862 214.27V220.038L136.857 223.282V217.514ZM114.88 147.186L119.874 150.43V156.197L114.88 152.953V147.186ZM119.874 195.487L114.88 192.243V198.01L119.874 201.254V195.487ZM87.9079 178.225L92.9027 181.469V187.236L87.9079 183.992V178.225ZM136.857 206.501L131.862 203.256V209.024L136.857 212.268V206.501ZM114.88 169.214L119.874 172.458V178.225L114.88 174.981V169.214ZM136.857 182.47L131.862 179.226V184.993L136.857 188.238V182.47ZM114.88 214.27L119.874 217.514V223.282L114.88 220.038V214.27ZM92.9027 201.494L87.9079 198.25V204.017L92.9027 207.262V201.494ZM131.862 225.284L136.857 228.528V234.296L131.862 231.052V225.284ZM119.874 228.528L114.88 225.284V231.052L119.874 234.296V228.528ZM87.9079 209.264L92.9027 212.508V218.275L87.9079 215.031V209.264ZM136.857 237.54L131.862 234.296V240.063L136.857 243.307V237.54Z" fill="white"/>
<g filter="url(#filter4_d_54_1724)">
<path d="M184.516 303.562L198.304 295.583L198.304 299.066L193.116 302.068L193.115 318.349L189.704 320.324L189.704 304.043L184.516 307.045L184.516 303.562ZM204.233 297.578C204.7 297.308 205.136 297.136 205.541 297.064C205.946 296.992 206.258 297.018 206.476 297.144L205.214 300.763C204.809 300.674 204.349 300.778 203.835 301.075C202.994 301.562 202.316 302.359 201.802 303.467C201.304 304.565 201.054 305.826 201.054 307.248L201.054 313.755L197.806 315.635L197.806 301.649L200.657 299.999C200.735 301.033 200.805 301.731 200.868 302.091C201.226 301.037 201.693 300.128 202.27 299.362C202.846 298.597 203.501 298.002 204.233 297.578ZM212.007 293.079C213.643 292.133 214.92 291.933 215.839 292.481C216.758 293.011 217.218 294.266 217.218 296.246L217.218 304.4L214.483 305.983C214.468 305.848 214.445 305.627 214.413 305.321C214.398 304.988 214.367 304.709 214.32 304.484C213.962 305.34 213.494 306.096 212.918 306.754C212.357 307.384 211.671 307.934 210.861 308.403C210.02 308.89 209.249 309.165 208.548 309.229C207.862 309.284 207.317 309.104 206.912 308.691C206.507 308.259 206.305 307.593 206.305 306.693C206.305 305.757 206.531 304.816 206.982 303.871C207.45 302.898 208.073 301.998 208.852 301.169C209.631 300.34 210.488 299.655 211.422 299.114C212.264 298.628 213.128 298.289 214.016 298.099C213.97 296.056 213.206 295.463 211.726 296.32C210.542 297.005 209.678 298.117 209.132 299.657L206.819 299.457C207.255 298.16 207.925 296.953 208.829 295.837C209.732 294.702 210.792 293.783 212.007 293.079ZM214.016 300.583C213.237 300.818 212.56 301.102 211.983 301.436C211.22 301.878 210.628 302.382 210.207 302.95C209.787 303.499 209.576 304.062 209.576 304.638C209.576 305.16 209.74 305.47 210.067 305.569C210.41 305.658 210.846 305.55 211.376 305.243C212.077 304.838 212.692 304.257 213.222 303.5C213.751 302.725 214.016 301.933 214.016 301.123L214.016 300.583ZM228.493 277.329L231.741 275.449L231.74 295.996L228.889 297.646C228.811 296.647 228.749 295.981 228.702 295.648C228.282 296.701 227.729 297.633 227.043 298.444C226.373 299.228 225.641 299.85 224.846 300.309C223.849 300.886 222.938 301.126 222.112 301.028C221.287 300.93 220.625 300.476 220.126 299.666C219.628 298.839 219.378 297.669 219.378 296.157C219.378 294.627 219.628 293.169 220.126 291.782C220.625 290.378 221.287 289.149 222.113 288.095C222.938 287.041 223.85 286.225 224.847 285.648C225.579 285.225 226.257 285.003 226.88 284.985C227.519 284.957 228.056 285.168 228.492 285.618L228.493 277.329ZM225.594 296.664C226.404 296.195 227.09 295.456 227.651 294.448C228.212 293.439 228.492 292.251 228.492 290.883C228.492 289.533 228.212 288.696 227.651 288.373C227.09 288.031 226.405 288.095 225.595 288.564C224.738 289.06 224.044 289.812 223.515 290.82C223.001 291.82 222.744 292.95 222.743 294.21C222.743 295.47 223 296.32 223.515 296.76C224.044 297.192 224.737 297.16 225.594 296.664ZM240.151 276.791C241.226 276.169 242.176 275.898 243.002 275.978C243.843 276.032 244.49 276.431 244.942 277.178C245.409 277.897 245.643 278.905 245.643 280.201C245.643 280.777 245.596 281.389 245.502 282.037L237.464 286.69C237.604 287.652 237.931 288.255 238.445 288.498C238.959 288.722 239.598 288.613 240.361 288.172C240.906 287.856 241.389 287.442 241.81 286.928C242.246 286.388 242.581 285.771 242.815 285.078L245.199 285.318C244.871 286.533 244.24 287.691 243.306 288.79C242.386 289.88 241.358 290.754 240.221 291.412C239.13 292.043 238.118 292.35 237.183 292.333C236.248 292.316 235.493 291.916 234.916 291.134C234.355 290.342 234.075 289.164 234.075 287.598C234.075 286.05 234.356 284.564 234.917 283.142C235.493 281.71 236.241 280.449 237.16 279.359C238.079 278.269 239.076 277.413 240.151 276.791ZM240.058 279.896C239.419 280.266 238.874 280.816 238.422 281.545C237.97 282.275 237.666 283.107 237.51 284.044L242.324 281.258C242.262 280.43 242.021 279.912 241.6 279.706C241.195 279.472 240.681 279.536 240.058 279.896ZM261.677 275.403C262.503 274.925 263.212 274.263 263.804 273.417C264.412 272.561 264.895 271.579 265.253 270.472L268.081 270.726C267.66 272.301 266.889 273.845 265.767 275.359C264.645 276.854 263.305 278.052 261.747 278.954C260.236 279.828 258.858 280.203 257.611 280.079C256.365 279.954 255.376 279.329 254.644 278.205C253.911 277.063 253.545 275.484 253.545 273.468C253.545 271.452 253.904 269.462 254.621 267.5C255.353 265.528 256.342 263.758 257.588 262.191C258.85 260.615 260.237 259.389 261.748 258.515C263.306 257.613 264.646 257.27 265.768 257.485C266.889 257.681 267.66 258.324 268.081 259.413L265.253 262.939C264.895 262.246 264.412 261.824 263.804 261.672C263.212 261.51 262.504 261.668 261.678 262.146C260.805 262.651 260.027 263.372 259.341 264.309C258.656 265.245 258.11 266.335 257.705 267.577C257.316 268.793 257.121 270.067 257.121 271.399C257.121 272.731 257.315 273.788 257.705 274.57C258.11 275.344 258.655 275.802 259.341 275.946C260.026 276.089 260.805 275.908 261.677 275.403ZM275.364 256.413C276.439 255.791 277.389 255.52 278.215 255.6C279.056 255.653 279.703 256.053 280.155 256.799C280.622 257.519 280.856 258.527 280.856 259.823C280.855 260.399 280.809 261.011 280.715 261.659L272.676 266.311C272.817 267.274 273.144 267.876 273.658 268.119C274.172 268.343 274.811 268.235 275.574 267.793C276.119 267.477 276.602 267.063 277.023 266.549C277.459 266.009 277.794 265.392 278.028 264.699L280.411 264.939C280.084 266.155 279.453 267.312 278.518 268.411C277.599 269.501 276.571 270.375 275.434 271.033C274.343 271.664 273.331 271.971 272.396 271.954C271.461 271.937 270.706 271.538 270.129 270.755C269.568 269.964 269.288 268.785 269.288 267.219C269.288 265.671 269.568 264.186 270.129 262.763C270.706 261.332 271.454 260.071 272.373 258.981C273.292 257.891 274.289 257.035 275.364 256.413ZM275.27 259.518C274.632 259.887 274.086 260.437 273.635 261.166C273.183 261.896 272.879 262.729 272.723 263.665L277.537 260.879C277.475 260.051 277.233 259.534 276.813 259.327C276.408 259.094 275.894 259.157 275.27 259.518ZM289.938 247.978C291.278 247.203 292.337 247.103 293.116 247.678C293.895 248.235 294.284 249.486 294.284 251.43L294.284 259.8L291.036 261.68L291.036 254.525C291.036 251.969 290.304 251.115 288.839 251.962C288.06 252.413 287.429 253.129 286.946 254.111C286.479 255.065 286.245 256.172 286.245 257.432L286.245 264.452L282.997 266.332L282.997 252.346L285.848 250.696C285.926 251.749 285.996 252.456 286.058 252.816C286.837 250.637 288.131 249.024 289.938 247.978ZM305.444 252.531C304.65 253.747 303.544 254.765 302.126 255.585C300.817 256.343 299.758 256.56 298.948 256.237C298.153 255.887 297.756 254.677 297.756 252.607L297.757 246.964L295.607 248.208L295.607 245.049L297.757 243.805L297.757 239.512L301.005 237.632L301.005 241.925L304.65 239.815L304.65 242.974L301.005 245.084L301.005 250.106C301.005 251.042 301.145 251.672 301.425 251.995C301.706 252.319 302.157 252.3 302.781 251.94C303.326 251.624 303.84 251.138 304.323 250.48L305.444 252.531ZM312.083 235.162C313.158 234.54 314.108 234.269 314.934 234.349C315.775 234.403 316.422 234.802 316.874 235.549C317.341 236.268 317.575 237.276 317.575 238.572C317.575 239.148 317.528 239.76 317.434 240.408L309.395 245.061C309.536 246.024 309.863 246.626 310.377 246.869C310.891 247.093 311.53 246.984 312.293 246.543C312.838 246.227 313.321 245.813 313.742 245.299C314.178 244.759 314.513 244.142 314.747 243.449L317.13 243.689C316.803 244.904 316.172 246.062 315.237 247.161C314.318 248.251 313.29 249.125 312.153 249.783C311.062 250.414 310.05 250.721 309.115 250.704C308.18 250.687 307.425 250.287 306.848 249.505C306.287 248.713 306.007 247.535 306.007 245.969C306.007 244.421 306.288 242.935 306.848 241.513C307.425 240.081 308.173 238.82 309.092 237.73C310.011 236.641 311.008 235.784 312.083 235.162ZM311.99 238.267C311.351 238.637 310.806 239.187 310.354 239.916C309.902 240.646 309.598 241.478 309.442 242.415L314.256 239.629C314.194 238.801 313.952 238.283 313.532 238.077C313.127 237.843 312.613 237.907 311.99 238.267ZM326.143 227.026C326.61 226.755 327.046 226.584 327.451 226.511C327.856 226.439 328.168 226.466 328.386 226.591L327.124 230.211C326.719 230.121 326.259 230.225 325.745 230.523C324.904 231.009 324.226 231.807 323.712 232.914C323.214 234.013 322.964 235.273 322.964 236.695L322.964 243.202L319.716 245.082L319.716 231.096L322.567 229.446C322.645 230.481 322.715 231.178 322.778 231.538C323.136 230.485 323.603 229.575 324.18 228.81C324.756 228.044 325.41 227.449 326.143 227.026Z" fill="white"/>
</g>
<defs>
<filter id="filter0_b_54_1724" x="-2.73343" y="-120.157" width="325.539" height="470.1" filterUnits="userSpaceOnUse" color-interpolation-filters="sRGB">
<feFlood flood-opacity="0" result="BackgroundImageFix"/>
<feGaussianBlur in="BackgroundImageFix" stdDeviation="67.957"/>
<feComposite in2="SourceAlpha" operator="in" result="effect1_backgroundBlur_54_1724"/>
<feBlend mode="normal" in="SourceGraphic" in2="effect1_backgroundBlur_54_1724" result="shape"/>
</filter>
<filter id="filter1_b_54_1724" x="-2.73343" y="-135.914" width="351.74" height="320.411" filterUnits="userSpaceOnUse" color-interpolation-filters="sRGB">
<feFlood flood-opacity="0" result="BackgroundImageFix"/>
<feGaussianBlur in="BackgroundImageFix" stdDeviation="67.957"/>
<feComposite in2="SourceAlpha" operator="in" result="effect1_backgroundBlur_54_1724"/>
<feBlend mode="normal" in="SourceGraphic" in2="effect1_backgroundBlur_54_1724" result="shape"/>
</filter>
<filter id="filter2_b_54_1724" x="-85.2654" y="-57.1304" width="521.864" height="456.97" filterUnits="userSpaceOnUse" color-interpolation-filters="sRGB">
<feFlood flood-opacity="0" result="BackgroundImageFix"/>
<feGaussianBlur in="BackgroundImageFix" stdDeviation="67.957"/>
<feComposite in2="SourceAlpha" operator="in" result="effect1_backgroundBlur_54_1724"/>
<feBlend mode="normal" in="SourceGraphic" in2="effect1_backgroundBlur_54_1724" result="shape"/>
</filter>
<filter id="filter3_b_54_1724" x="-85.2654" y="-45.313" width="460.473" height="480.605" filterUnits="userSpaceOnUse" color-interpolation-filters="sRGB">
<feFlood flood-opacity="0" result="BackgroundImageFix"/>
<feGaussianBlur in="BackgroundImageFix" stdDeviation="67.957"/>
<feComposite in2="SourceAlpha" operator="in" result="effect1_backgroundBlur_54_1724"/>
<feBlend mode="normal" in="SourceGraphic" in2="effect1_backgroundBlur_54_1724" result="shape"/>
</filter>
<filter id="filter4_d_54_1724" x="180.516" y="219.517" width="147.871" height="104.133" filterUnits="userSpaceOnUse" color-interpolation-filters="sRGB">
<feFlood flood-opacity="0" result="BackgroundImageFix"/>
<feColorMatrix in="SourceAlpha" type="matrix" values="0 0 0 0 0 0 0 0 0 0 0 0 0 0 0 0 0 0 127 0" result="hardAlpha"/>
<feOffset dx="-4"/>
<feComposite in2="hardAlpha" operator="out"/>
<feColorMatrix type="matrix" values="0 0 0 0 0.0901961 0 0 0 0 0.0901961 0 0 0 0 0.0901961 0 0 0 1 0"/>
<feBlend mode="normal" in2="BackgroundImageFix" result="effect1_dropShadow_54_1724"/>
<feBlend mode="normal" in="SourceGraphic" in2="effect1_dropShadow_54_1724" result="shape"/>
</filter>
</defs>
</svg>
