<svg width="332" height="273" viewBox="0 0 332 273" fill="none" xmlns="http://www.w3.org/2000/svg">
<path opacity="0.5" fill-rule="evenodd" clip-rule="evenodd" d="M0 164.88L145.25 77L332 187.783L187.814 273L0 164.88Z" fill="#171717" fill-opacity="0.7"/>
<g filter="url(#filter0_b_54_1684)">
<path fill-rule="evenodd" clip-rule="evenodd" d="M192.288 45.7165L210.779 35L165.826 10L127.866 32L146.357 42.2835L127.866 53L146.357 63.2835L127.866 74L146.357 84.2835L127.866 95L146.357 105.284L127.866 116L172.819 141L210.779 119L192.288 108.716L210.779 98L192.288 87.7165L210.779 77L192.288 66.7165L210.779 56L192.288 45.7165Z" fill="#171717" fill-opacity="0.7"/>
</g>
<path fill-rule="evenodd" clip-rule="evenodd" d="M188.802 0L150.842 22L127.866 32L165.826 10L188.802 0ZM210.779 35L172.819 57V76L210.779 53.9895V35ZM172.819 78L210.779 56V74.9895L172.819 97V78ZM210.779 77L172.819 99V118L210.779 95.9895V77ZM172.819 120L210.779 98V116.989L172.819 139V120ZM172.819 141L210.779 119V137.989L172.819 160V141Z" fill="#171717"/>
<path fill-rule="evenodd" clip-rule="evenodd" d="M172.819 57L127.866 32V51L172.819 76V57ZM127.866 53L172.819 78V97L127.866 72V53ZM172.819 99L127.866 74V93L172.819 118V99ZM127.866 95L172.819 120V139L127.866 114V95ZM127.866 116L172.819 141V160L127.866 135V116Z" fill="white"/>
<g filter="url(#filter1_i_54_1684)">
<path fill-rule="evenodd" clip-rule="evenodd" d="M172.819 57L127.866 32L150.842 22L172.819 57ZM131.862 42.5968C131.862 42.5968 133.096 40.4419 135.564 41.7348C138.032 43.0278 138.855 46.9066 138.855 46.9066V57.5L131.862 53.6212V42.5968ZM135.564 62.7348C133.096 61.4419 131.862 63.5968 131.862 63.5968V74.6212L138.855 78.5V67.9066C138.855 67.9066 138.032 64.0278 135.564 62.7348ZM131.862 84.5968C131.862 84.5968 133.096 82.4419 135.564 83.7348C138.032 85.0278 138.855 88.9066 138.855 88.9066V99.5L131.862 95.6212V84.5968ZM135.564 104.735C133.096 103.442 131.862 105.597 131.862 105.597V116.621L138.855 120.5V109.907C138.855 109.907 138.032 106.028 135.564 104.735ZM135.564 125.735C133.096 124.442 131.862 126.597 131.862 126.597V137.621L138.855 141.5V130.907C138.855 130.907 138.032 127.028 135.564 125.735ZM149.549 134.235C147.081 132.942 145.847 135.097 145.847 135.097V145.44L152.84 149.25V139.407C152.84 139.407 152.017 135.528 149.549 134.235ZM160.831 142.847C160.831 142.847 162.065 140.692 164.533 141.985C167.001 143.278 167.824 147.157 167.824 147.157V157.25L160.831 153.19V142.847ZM145.847 114.097C145.847 114.097 147.081 111.942 149.549 113.235C152.017 114.528 152.84 118.407 152.84 118.407V128.25L145.847 124.44V114.097ZM164.533 120.985C162.065 119.692 160.831 121.847 160.831 121.847V132.19L167.824 136.25V126.157C167.824 126.157 167.001 122.278 164.533 120.985ZM149.549 92.2348C147.081 90.9419 145.847 93.0968 145.847 93.0968V103.44L152.84 107.25V97.4066C152.84 97.4066 152.017 93.5278 149.549 92.2348ZM160.831 100.847C160.831 100.847 162.065 98.6919 164.533 99.9848C167.001 101.278 167.824 105.157 167.824 105.157V115.25L160.831 111.19V100.847ZM145.847 72.0968C145.847 72.0968 147.081 69.9419 149.549 71.2348C152.017 72.5278 152.84 76.4066 152.84 76.4066V86.25L145.847 82.4402V72.0968ZM164.533 78.9848C162.065 77.6919 160.831 79.8468 160.831 79.8468V90.1902L167.824 94.25V84.1566C167.824 84.1566 167.001 80.2778 164.533 78.9848ZM149.549 50.2348C147.081 48.9419 145.847 51.0968 145.847 51.0968V61.4402L152.84 65.25V55.4066C152.84 55.4066 152.017 51.5278 149.549 50.2348ZM160.831 58.8468C160.831 58.8468 162.065 56.6919 164.533 57.9848C167.001 59.2778 167.824 63.1566 167.824 63.1566V73.25L160.831 69.1902V58.8468Z" fill="#171717" fill-opacity="0.8"/>
</g>
<g filter="url(#filter2_b_54_1684)">
<path fill-rule="evenodd" clip-rule="evenodd" d="M150.842 22L188.802 0L210.779 35L172.819 57L150.842 22Z" fill="#171717" fill-opacity="0.7"/>
</g>
<g filter="url(#filter3_b_54_1684)">
<path fill-rule="evenodd" clip-rule="evenodd" d="M132.351 82.7165L150.842 72L105.889 47L67.9288 69L86.4198 79.2835L67.9288 90L86.4198 100.284L67.9288 111L86.4198 121.284L67.9288 132L86.4198 142.284L67.9288 153L112.882 178L150.842 156L132.351 145.716L150.842 135L132.351 124.716L150.842 114L132.351 103.716L150.842 93L132.351 82.7165Z" fill="#171717" fill-opacity="0.7"/>
</g>
<path fill-rule="evenodd" clip-rule="evenodd" d="M128.865 37L90.9048 59L67.9288 69L105.889 47L128.865 37ZM150.842 72L112.882 94V113L150.842 90.9895V72ZM112.882 115L150.842 93V111.989L112.882 134V115ZM150.842 114L112.882 136V155L150.842 132.989V114ZM112.882 157L150.842 135V153.989L112.882 176V157ZM112.882 178L150.842 156V174.989L112.882 197V178Z" fill="#171717"/>
<path fill-rule="evenodd" clip-rule="evenodd" d="M112.882 94L67.9288 69V88L112.882 113V94ZM67.9288 90L112.882 115V134L67.9288 109V90ZM112.882 136L67.9288 111V130L112.882 155V136ZM67.9288 132L112.882 157V176L67.9288 151V132ZM67.9288 153L112.882 178V197L67.9288 172V153Z" fill="white"/>
<g filter="url(#filter4_i_54_1684)">
<path fill-rule="evenodd" clip-rule="evenodd" d="M112.882 94L67.9288 69L90.9048 59L112.882 94ZM71.9246 79.5968C71.9246 79.5968 73.1586 77.4419 75.6266 78.7348C78.0947 80.0278 78.9173 83.9066 78.9173 83.9066V94.5L71.9246 90.6212V79.5968ZM75.6266 99.7348C73.1586 98.4419 71.9246 100.597 71.9246 100.597V111.621L78.9173 115.5V104.907C78.9173 104.907 78.0947 101.028 75.6266 99.7348ZM71.9246 121.597C71.9246 121.597 73.1586 119.442 75.6266 120.735C78.0947 122.028 78.9173 125.907 78.9173 125.907V136.5L71.9246 132.621V121.597ZM75.6266 141.735C73.1586 140.442 71.9246 142.597 71.9246 142.597V153.621L78.9173 157.5V146.907C78.9173 146.907 78.0947 143.028 75.6266 141.735ZM75.6266 162.735C73.1586 161.442 71.9246 163.597 71.9246 163.597V174.621L78.9173 178.5V167.907C78.9173 167.907 78.0947 164.028 75.6266 162.735ZM89.612 171.235C87.144 169.942 85.91 172.097 85.91 172.097V182.44L92.9027 186.25V176.407C92.9027 176.407 92.08 172.528 89.612 171.235ZM100.894 179.847C100.894 179.847 102.128 177.692 104.596 178.985C107.064 180.278 107.887 184.157 107.887 184.157V194.25L100.894 190.19V179.847ZM85.91 151.097C85.91 151.097 87.144 148.942 89.612 150.235C92.08 151.528 92.9027 155.407 92.9027 155.407V165.25L85.91 161.44V151.097ZM104.596 157.985C102.128 156.692 100.894 158.847 100.894 158.847V169.19L107.887 173.25V163.157C107.887 163.157 107.064 159.278 104.596 157.985ZM89.612 129.235C87.144 127.942 85.91 130.097 85.91 130.097V140.44L92.9027 144.25V134.407C92.9027 134.407 92.08 130.528 89.612 129.235ZM100.894 137.847C100.894 137.847 102.128 135.692 104.596 136.985C107.064 138.278 107.887 142.157 107.887 142.157V152.25L100.894 148.19V137.847ZM85.91 109.097C85.91 109.097 87.144 106.942 89.612 108.235C92.08 109.528 92.9027 113.407 92.9027 113.407V123.25L85.91 119.44V109.097ZM104.596 115.985C102.128 114.692 100.894 116.847 100.894 116.847V127.19L107.887 131.25V121.157C107.887 121.157 107.064 117.278 104.596 115.985ZM89.612 87.2348C87.144 85.9419 85.91 88.0968 85.91 88.0968V98.4402L92.9027 102.25V92.4066C92.9027 92.4066 92.08 88.5278 89.612 87.2348ZM100.894 95.8468C100.894 95.8468 102.128 93.6919 104.596 94.9848C107.064 96.2778 107.887 100.157 107.887 100.157V110.25L100.894 106.19V95.8468Z" fill="#171717" fill-opacity="0.8"/>
</g>
<g filter="url(#filter5_b_54_1684)">
<path fill-rule="evenodd" clip-rule="evenodd" d="M90.9048 59L128.865 37L150.842 72L112.882 94L90.9048 59Z" fill="#171717" fill-opacity="0.7"/>
</g>
<g filter="url(#filter6_b_54_1684)">
<path fill-rule="evenodd" clip-rule="evenodd" d="M264.213 83.7165L282.704 73L237.751 48L199.791 70L218.282 80.2835L199.791 91L218.282 101.284L199.791 112L218.282 122.284L199.791 133L218.282 143.284L199.791 154L244.744 179L282.704 157L264.213 146.716L282.704 136L264.213 125.716L282.704 115L264.213 104.716L282.704 94L264.213 83.7165Z" fill="#171717" fill-opacity="0.7"/>
</g>
<path fill-rule="evenodd" clip-rule="evenodd" d="M260.727 38L222.767 60L199.791 70L237.751 48L260.727 38ZM282.704 73L244.744 95V114L282.704 91.9895V73ZM244.744 116L282.704 94V112.989L244.744 135V116ZM282.704 115L244.744 137V156L282.704 133.989V115ZM244.744 158L282.704 136V154.989L244.744 177V158ZM244.744 179L282.704 157V175.989L244.744 198V179Z" fill="#171717"/>
<path fill-rule="evenodd" clip-rule="evenodd" d="M244.744 95L199.791 70V89L244.744 114V95ZM199.791 91L244.744 116V135L199.791 110V91ZM244.744 137L199.791 112V131L244.744 156V137ZM199.791 133L244.744 158V177L199.791 152V133ZM199.791 154L244.744 179V198L199.791 173V154Z" fill="white"/>
<g filter="url(#filter7_i_54_1684)">
<path fill-rule="evenodd" clip-rule="evenodd" d="M244.744 95L199.791 70L222.767 60L244.744 95ZM203.786 80.5968C203.786 80.5968 205.02 78.4419 207.488 79.7348C209.956 81.0278 210.779 84.9066 210.779 84.9066V95.5L203.786 91.6212V80.5968ZM207.488 100.735C205.02 99.4419 203.786 101.597 203.786 101.597V112.621L210.779 116.5V105.907C210.779 105.907 209.956 102.028 207.488 100.735ZM203.786 122.597C203.786 122.597 205.02 120.442 207.488 121.735C209.956 123.028 210.779 126.907 210.779 126.907V137.5L203.786 133.621V122.597ZM207.488 142.735C205.02 141.442 203.786 143.597 203.786 143.597V154.621L210.779 158.5V147.907C210.779 147.907 209.956 144.028 207.488 142.735ZM207.488 163.735C205.02 162.442 203.786 164.597 203.786 164.597V175.621L210.779 179.5V168.907C210.779 168.907 209.956 165.028 207.488 163.735ZM221.474 172.235C219.006 170.942 217.772 173.097 217.772 173.097V183.44L224.765 187.25V177.407C224.765 177.407 223.942 173.528 221.474 172.235ZM232.756 180.847C232.756 180.847 233.99 178.692 236.458 179.985C238.926 181.278 239.749 185.157 239.749 185.157V195.25L232.756 191.19V180.847ZM217.772 152.097C217.772 152.097 219.006 149.942 221.474 151.235C223.942 152.528 224.765 156.407 224.765 156.407V166.25L217.772 162.44V152.097ZM236.458 158.985C233.99 157.692 232.756 159.847 232.756 159.847V170.19L239.749 174.25V164.157C239.749 164.157 238.926 160.278 236.458 158.985ZM221.474 130.235C219.006 128.942 217.772 131.097 217.772 131.097V141.44L224.765 145.25V135.407C224.765 135.407 223.942 131.528 221.474 130.235ZM232.756 138.847C232.756 138.847 233.99 136.692 236.458 137.985C238.926 139.278 239.749 143.157 239.749 143.157V153.25L232.756 149.19V138.847ZM217.772 110.097C217.772 110.097 219.006 107.942 221.474 109.235C223.942 110.528 224.765 114.407 224.765 114.407V124.25L217.772 120.44V110.097ZM236.458 116.985C233.99 115.692 232.756 117.847 232.756 117.847V128.19L239.749 132.25V122.157C239.749 122.157 238.926 118.278 236.458 116.985ZM221.474 88.2348C219.006 86.9419 217.772 89.0968 217.772 89.0968V99.4402L224.765 103.25V93.4066C224.765 93.4066 223.942 89.5278 221.474 88.2348ZM232.756 96.8468C232.756 96.8468 233.99 94.6919 236.458 95.9848C238.926 97.2778 239.749 101.157 239.749 101.157V111.25L232.756 107.19V96.8468Z" fill="#171717" fill-opacity="0.8"/>
</g>
<g filter="url(#filter8_b_54_1684)">
<path fill-rule="evenodd" clip-rule="evenodd" d="M222.767 60L260.727 38L282.704 73L244.744 95L222.767 60Z" fill="#171717" fill-opacity="0.7"/>
</g>
<g filter="url(#filter9_b_54_1684)">
<path fill-rule="evenodd" clip-rule="evenodd" d="M204.276 120.716L222.767 110L177.814 85L139.853 107L158.344 117.284L139.853 128L158.344 138.284L139.853 149L158.344 159.284L139.853 170L158.344 180.284L139.853 191L184.806 216L222.767 194L204.276 183.716L222.767 173L204.276 162.716L222.767 152L204.276 141.716L222.767 131L204.276 120.716Z" fill="#171717" fill-opacity="0.7"/>
</g>
<path fill-rule="evenodd" clip-rule="evenodd" d="M200.79 75L162.829 97L139.853 107L177.814 85L200.79 75ZM222.767 110L184.806 132V151L222.767 128.989V110ZM184.806 153L222.767 131V149.989L184.806 172V153ZM222.767 152L184.806 174V193L222.767 170.989V152ZM184.806 195L222.767 173V191.989L184.806 214V195ZM184.806 216L222.767 194V212.989L184.806 235V216Z" fill="#171717"/>
<path fill-rule="evenodd" clip-rule="evenodd" d="M184.806 132L139.853 107V126L184.806 151V132ZM139.853 128L184.806 153V172L139.853 147V128ZM184.806 174L139.853 149V168L184.806 193V174ZM139.853 170L184.806 195V214L139.853 189V170ZM139.853 191L184.806 216V235L139.853 210V191Z" fill="white"/>
<g filter="url(#filter10_i_54_1684)">
<path fill-rule="evenodd" clip-rule="evenodd" d="M184.806 132L139.853 107L162.829 97L184.806 132ZM143.849 117.597C143.849 117.597 145.083 115.442 147.551 116.735C150.019 118.028 150.842 121.907 150.842 121.907V132.5L143.849 128.621V117.597ZM147.551 137.735C145.083 136.442 143.849 138.597 143.849 138.597V149.621L150.842 153.5V142.907C150.842 142.907 150.019 139.028 147.551 137.735ZM143.849 159.597C143.849 159.597 145.083 157.442 147.551 158.735C150.019 160.028 150.842 163.907 150.842 163.907V174.5L143.849 170.621V159.597ZM147.551 179.735C145.083 178.442 143.849 180.597 143.849 180.597V191.621L150.842 195.5V184.907C150.842 184.907 150.019 181.028 147.551 179.735ZM147.551 200.735C145.083 199.442 143.849 201.597 143.849 201.597V212.621L150.842 216.5V205.907C150.842 205.907 150.019 202.028 147.551 200.735ZM161.537 209.235C159.069 207.942 157.835 210.097 157.835 210.097V220.44L164.827 224.25V214.407C164.827 214.407 164.005 210.528 161.537 209.235ZM172.819 217.847C172.819 217.847 174.053 215.692 176.521 216.985C178.989 218.278 179.812 222.157 179.812 222.157V232.25L172.819 228.19V217.847ZM157.835 189.097C157.835 189.097 159.069 186.942 161.537 188.235C164.005 189.528 164.827 193.407 164.827 193.407V203.25L157.835 199.44V189.097ZM176.521 195.985C174.053 194.692 172.819 196.847 172.819 196.847V207.19L179.812 211.25V201.157C179.812 201.157 178.989 197.278 176.521 195.985ZM161.537 167.235C159.069 165.942 157.835 168.097 157.835 168.097V178.44L164.827 182.25V172.407C164.827 172.407 164.005 168.528 161.537 167.235ZM172.819 175.847C172.819 175.847 174.053 173.692 176.521 174.985C178.989 176.278 179.812 180.157 179.812 180.157V190.25L172.819 186.19V175.847ZM157.835 147.097C157.835 147.097 159.069 144.942 161.537 146.235C164.005 147.528 164.827 151.407 164.827 151.407V161.25L157.835 157.44V147.097ZM176.521 153.985C174.053 152.692 172.819 154.847 172.819 154.847V165.19L179.812 169.25V159.157C179.812 159.157 178.989 155.278 176.521 153.985ZM161.537 125.235C159.069 123.942 157.835 126.097 157.835 126.097V136.44L164.827 140.25V130.407C164.827 130.407 164.005 126.528 161.537 125.235ZM172.819 133.847C172.819 133.847 174.053 131.692 176.521 132.985C178.989 134.278 179.812 138.157 179.812 138.157V148.25L172.819 144.19V133.847Z" fill="#171717" fill-opacity="0.8"/>
</g>
<g filter="url(#filter11_b_54_1684)">
<path fill-rule="evenodd" clip-rule="evenodd" d="M162.829 97L200.79 75L222.767 110L184.806 132L162.829 97Z" fill="#171717" fill-opacity="0.7"/>
</g>
<defs>
<filter id="filter0_b_54_1684" x="-8.04807" y="-125.914" width="354.741" height="402.828" filterUnits="userSpaceOnUse" color-interpolation-filters="sRGB">
<feFlood flood-opacity="0" result="BackgroundImageFix"/>
<feGaussianBlur in="BackgroundImageFix" stdDeviation="67.957"/>
<feComposite in2="SourceAlpha" operator="in" result="effect1_backgroundBlur_54_1684"/>
<feBlend mode="normal" in="SourceGraphic" in2="effect1_backgroundBlur_54_1684" result="shape"/>
</filter>
<filter id="filter1_i_54_1684" x="127.866" y="22" width="44.9529" height="135.25" filterUnits="userSpaceOnUse" color-interpolation-filters="sRGB">
<feFlood flood-opacity="0" result="BackgroundImageFix"/>
<feBlend mode="normal" in="SourceGraphic" in2="BackgroundImageFix" result="shape"/>
<feColorMatrix in="SourceAlpha" type="matrix" values="0 0 0 0 0 0 0 0 0 0 0 0 0 0 0 0 0 0 127 0" result="hardAlpha"/>
<feOffset dx="1"/>
<feComposite in2="hardAlpha" operator="arithmetic" k2="-1" k3="1"/>
<feColorMatrix type="matrix" values="0 0 0 0 0.321569 0 0 0 0 0.34902 0 0 0 0 0.552941 0 0 0 1 0"/>
<feBlend mode="normal" in2="shape" result="effect1_innerShadow_54_1684"/>
</filter>
<filter id="filter2_b_54_1684" x="14.9279" y="-135.914" width="331.765" height="328.828" filterUnits="userSpaceOnUse" color-interpolation-filters="sRGB">
<feFlood flood-opacity="0" result="BackgroundImageFix"/>
<feGaussianBlur in="BackgroundImageFix" stdDeviation="67.957"/>
<feComposite in2="SourceAlpha" operator="in" result="effect1_backgroundBlur_54_1684"/>
<feBlend mode="normal" in="SourceGraphic" in2="effect1_backgroundBlur_54_1684" result="shape"/>
</filter>
<filter id="filter3_b_54_1684" x="-67.9853" y="-88.9141" width="354.741" height="402.828" filterUnits="userSpaceOnUse" color-interpolation-filters="sRGB">
<feFlood flood-opacity="0" result="BackgroundImageFix"/>
<feGaussianBlur in="BackgroundImageFix" stdDeviation="67.957"/>
<feComposite in2="SourceAlpha" operator="in" result="effect1_backgroundBlur_54_1684"/>
<feBlend mode="normal" in="SourceGraphic" in2="effect1_backgroundBlur_54_1684" result="shape"/>
</filter>
<filter id="filter4_i_54_1684" x="67.9288" y="59" width="44.9529" height="135.25" filterUnits="userSpaceOnUse" color-interpolation-filters="sRGB">
<feFlood flood-opacity="0" result="BackgroundImageFix"/>
<feBlend mode="normal" in="SourceGraphic" in2="BackgroundImageFix" result="shape"/>
<feColorMatrix in="SourceAlpha" type="matrix" values="0 0 0 0 0 0 0 0 0 0 0 0 0 0 0 0 0 0 127 0" result="hardAlpha"/>
<feOffset dx="1"/>
<feComposite in2="hardAlpha" operator="arithmetic" k2="-1" k3="1"/>
<feColorMatrix type="matrix" values="0 0 0 0 0.321569 0 0 0 0 0.34902 0 0 0 0 0.552941 0 0 0 1 0"/>
<feBlend mode="normal" in2="shape" result="effect1_innerShadow_54_1684"/>
</filter>
<filter id="filter5_b_54_1684" x="-45.0093" y="-98.9141" width="331.765" height="328.828" filterUnits="userSpaceOnUse" color-interpolation-filters="sRGB">
<feFlood flood-opacity="0" result="BackgroundImageFix"/>
<feGaussianBlur in="BackgroundImageFix" stdDeviation="67.957"/>
<feComposite in2="SourceAlpha" operator="in" result="effect1_backgroundBlur_54_1684"/>
<feBlend mode="normal" in="SourceGraphic" in2="effect1_backgroundBlur_54_1684" result="shape"/>
</filter>
<filter id="filter6_b_54_1684" x="63.8766" y="-87.9141" width="354.741" height="402.828" filterUnits="userSpaceOnUse" color-interpolation-filters="sRGB">
<feFlood flood-opacity="0" result="BackgroundImageFix"/>
<feGaussianBlur in="BackgroundImageFix" stdDeviation="67.957"/>
<feComposite in2="SourceAlpha" operator="in" result="effect1_backgroundBlur_54_1684"/>
<feBlend mode="normal" in="SourceGraphic" in2="effect1_backgroundBlur_54_1684" result="shape"/>
</filter>
<filter id="filter7_i_54_1684" x="199.791" y="60" width="44.9529" height="135.25" filterUnits="userSpaceOnUse" color-interpolation-filters="sRGB">
<feFlood flood-opacity="0" result="BackgroundImageFix"/>
<feBlend mode="normal" in="SourceGraphic" in2="BackgroundImageFix" result="shape"/>
<feColorMatrix in="SourceAlpha" type="matrix" values="0 0 0 0 0 0 0 0 0 0 0 0 0 0 0 0 0 0 127 0" result="hardAlpha"/>
<feOffset dx="1"/>
<feComposite in2="hardAlpha" operator="arithmetic" k2="-1" k3="1"/>
<feColorMatrix type="matrix" values="0 0 0 0 0.321569 0 0 0 0 0.34902 0 0 0 0 0.552941 0 0 0 1 0"/>
<feBlend mode="normal" in2="shape" result="effect1_innerShadow_54_1684"/>
</filter>
<filter id="filter8_b_54_1684" x="86.8525" y="-97.9141" width="331.765" height="328.828" filterUnits="userSpaceOnUse" color-interpolation-filters="sRGB">
<feFlood flood-opacity="0" result="BackgroundImageFix"/>
<feGaussianBlur in="BackgroundImageFix" stdDeviation="67.957"/>
<feComposite in2="SourceAlpha" operator="in" result="effect1_backgroundBlur_54_1684"/>
<feBlend mode="normal" in="SourceGraphic" in2="effect1_backgroundBlur_54_1684" result="shape"/>
</filter>
<filter id="filter9_b_54_1684" x="3.93936" y="-50.9141" width="354.741" height="402.828" filterUnits="userSpaceOnUse" color-interpolation-filters="sRGB">
<feFlood flood-opacity="0" result="BackgroundImageFix"/>
<feGaussianBlur in="BackgroundImageFix" stdDeviation="67.957"/>
<feComposite in2="SourceAlpha" operator="in" result="effect1_backgroundBlur_54_1684"/>
<feBlend mode="normal" in="SourceGraphic" in2="effect1_backgroundBlur_54_1684" result="shape"/>
</filter>
<filter id="filter10_i_54_1684" x="139.853" y="97" width="44.9529" height="135.25" filterUnits="userSpaceOnUse" color-interpolation-filters="sRGB">
<feFlood flood-opacity="0" result="BackgroundImageFix"/>
<feBlend mode="normal" in="SourceGraphic" in2="BackgroundImageFix" result="shape"/>
<feColorMatrix in="SourceAlpha" type="matrix" values="0 0 0 0 0 0 0 0 0 0 0 0 0 0 0 0 0 0 127 0" result="hardAlpha"/>
<feOffset dx="1"/>
<feComposite in2="hardAlpha" operator="arithmetic" k2="-1" k3="1"/>
<feColorMatrix type="matrix" values="0 0 0 0 0.321569 0 0 0 0 0.34902 0 0 0 0 0.552941 0 0 0 1 0"/>
<feBlend mode="normal" in2="shape" result="effect1_innerShadow_54_1684"/>
</filter>
<filter id="filter11_b_54_1684" x="26.9153" y="-60.9141" width="331.765" height="328.828" filterUnits="userSpaceOnUse" color-interpolation-filters="sRGB">
<feFlood flood-opacity="0" result="BackgroundImageFix"/>
<feGaussianBlur in="BackgroundImageFix" stdDeviation="67.957"/>
<feComposite in2="SourceAlpha" operator="in" result="effect1_backgroundBlur_54_1684"/>
<feBlend mode="normal" in="SourceGraphic" in2="effect1_backgroundBlur_54_1684" result="shape"/>
</filter>
</defs>
</svg>
