<svg width="332" height="294" viewBox="0 0 332 294" fill="none" xmlns="http://www.w3.org/2000/svg">
<path opacity="0.5" fill-rule="evenodd" clip-rule="evenodd" d="M0 180.14L145.25 92.1328L332 203.075L187.814 288.416L0 180.14Z" fill="#171717" fill-opacity="0.7"/>
<g filter="url(#filter0_b_54_1720)">
<path fill-rule="evenodd" clip-rule="evenodd" d="M76.8784 137.445L96.009 148.632L73.6899 159.819L158.084 207.799L180.503 196.578L202.822 209.363L276.156 166.212L148.618 91.8961L76.8784 137.445ZM60.9362 178.998L145.43 226.943L151.807 223.747L67.313 175.801L60.9362 178.998ZM151.807 217.354L67.313 169.409L73.6899 166.212L158.184 214.158L151.807 217.354Z" fill="#171717" fill-opacity="0.7"/>
</g>
<g filter="url(#filter1_b_54_1720)">
<path fill-rule="evenodd" clip-rule="evenodd" d="M202.822 127.855L76.8784 55.9368V134.248L202.822 206.167V127.855ZM76.8784 137.445L88.1576 143.957V152.72L79.9163 156.726L76.8784 155.025V137.445ZM180.503 196.578L202.822 209.363V226.943L180.503 214.158V196.578Z" fill="#171717" fill-opacity="0.8"/>
</g>
<path fill-rule="evenodd" clip-rule="evenodd" d="M100.792 91.097H88.0379V156.623C88.0379 156.623 89.4044 160.618 94.4148 160.618C99.4252 160.618 100.792 156.623 100.792 156.623V91.097ZM105.574 100.686H118.328V166.212C118.328 166.212 116.962 170.207 111.951 170.207C106.941 170.207 105.574 166.212 105.574 166.212V100.686ZM135.865 110.275H123.111V175.801C123.111 175.801 124.477 179.797 129.488 179.797C134.498 179.797 135.865 175.801 135.865 175.801V110.275ZM140.647 119.865H153.401V185.391C153.401 185.391 152.035 189.386 147.024 189.386C142.014 189.386 140.647 185.391 140.647 185.391V119.865ZM158.184 125.858H170.937V194.979C170.937 194.979 169.571 198.975 164.56 198.975C159.55 198.975 158.184 194.979 158.184 194.979V125.858Z" fill="white"/>
<g filter="url(#filter2_b_54_1720)">
<path fill-rule="evenodd" clip-rule="evenodd" d="M76.8783 55.9368L96.009 67.1242L74.0884 78.3115L156.589 127.856L180.503 115.07L202.822 127.856L276.156 84.7043L148.618 10.3883L76.8783 55.9368Z" fill="#171717" fill-opacity="0.7"/>
</g>
<g filter="url(#filter3_b_54_1720)">
<path fill-rule="evenodd" clip-rule="evenodd" d="M276.156 71.9187L202.822 115.07L76.8784 43.1512L150.212 0L276.156 71.9187Z" fill="#171717" fill-opacity="0.7"/>
</g>
<g filter="url(#filter4_b_54_1720)">
<path fill-rule="evenodd" clip-rule="evenodd" d="M76.8784 43.1512L202.822 115.07V124.659L76.8784 52.7404V43.1512ZM74.0885 78.2905L156.589 127.856V134.248L74.0885 84.7043V78.2905ZM145.43 226.943L60.9362 178.998V185.39L145.43 233.336V226.943ZM67.313 169.409L151.807 217.354V223.747L67.313 175.801V169.409ZM158.184 207.765L73.6899 159.819V166.212L158.184 214.158V207.765Z" fill="#171717" fill-opacity="0.8"/>
</g>
<path fill-rule="evenodd" clip-rule="evenodd" d="M202.822 115.07L276.156 71.9188V81.508L202.822 124.659V115.07ZM202.822 209.363L276.156 166.212V183.792L202.822 226.944V209.363ZM180.503 196.578L158.184 207.765V214.158L151.807 217.354V223.747L145.43 226.944V233.336L180.503 214.158V196.578ZM202.822 127.856L276.156 84.7044V163.016L202.822 206.167V127.856ZM180.503 115.049L156.589 127.856L156.589 134.248L180.503 121.463V115.049Z" fill="#171717"/>
<g filter="url(#filter5_d_54_1720)">
<path d="M195.024 266.493L195.025 263.118L201.568 259.331L201.567 267.377C201.038 268.673 200.189 269.957 199.02 271.227C197.867 272.47 196.59 273.498 195.188 274.309C193.521 275.274 192.041 275.699 190.748 275.583C189.455 275.468 188.45 274.843 187.734 273.71C187.017 272.577 186.659 271.011 186.659 269.013C186.659 266.997 187.025 265.003 187.757 263.032C188.505 261.051 189.526 259.263 190.819 257.669C192.112 256.074 193.545 254.822 195.118 253.911C196.692 253 198.055 252.625 199.208 252.786C200.376 252.92 201.163 253.508 201.568 254.552L198.763 258.038C198.421 257.408 197.93 257.044 197.291 256.946C196.653 256.83 195.897 257.024 195.025 257.529C194.106 258.061 193.28 258.809 192.548 259.773C191.816 260.737 191.239 261.844 190.818 263.096C190.398 264.347 190.187 265.639 190.187 266.971C190.187 268.339 190.398 269.405 190.818 270.17C191.254 270.925 191.862 271.348 192.641 271.437C193.435 271.517 194.354 271.255 195.398 270.651C196.613 269.947 197.564 269.01 198.249 267.839L198.249 264.626L195.024 266.493ZM203.359 262.263C203.359 260.805 203.64 259.355 204.201 257.915C204.777 256.465 205.54 255.168 206.491 254.024C207.441 252.862 208.469 251.961 209.575 251.321C210.666 250.689 211.678 250.409 212.613 250.48C213.563 250.524 214.319 250.942 214.88 251.733C215.456 252.516 215.744 253.636 215.744 255.094C215.744 256.552 215.456 258.006 214.879 259.455C214.318 260.896 213.563 262.188 212.613 263.332C211.678 264.467 210.665 265.35 209.575 265.982C208.469 266.622 207.441 266.92 206.49 266.876C205.54 266.832 204.777 266.419 204.2 265.637C203.64 264.845 203.359 263.721 203.359 262.263ZM206.724 260.315C206.724 261.557 206.989 262.394 207.519 262.825C208.064 263.229 208.741 263.197 209.552 262.728C210.362 262.259 211.031 261.512 211.561 260.485C212.091 259.44 212.356 258.297 212.356 257.055C212.356 255.813 212.091 254.976 211.561 254.545C211.032 254.114 210.362 254.132 209.552 254.601C208.742 255.07 208.064 255.831 207.519 256.885C206.989 257.93 206.724 259.073 206.724 260.315ZM219.561 245.892L222.692 253.313L225.613 242.389L229.001 240.427L223.883 257.349L221.243 258.877L215.962 247.975L219.561 245.892ZM235.29 236.436C236.365 235.814 237.315 235.543 238.141 235.623C238.982 235.676 239.629 236.076 240.08 236.822C240.548 237.542 240.781 238.55 240.781 239.846C240.781 240.422 240.735 241.034 240.641 241.682L232.603 246.335C232.743 247.297 233.07 247.9 233.584 248.142C234.098 248.367 234.737 248.258 235.5 247.816C236.045 247.501 236.528 247.086 236.949 246.573C237.385 246.032 237.72 245.415 237.954 244.722L240.337 244.962C240.01 246.178 239.379 247.335 238.444 248.434C237.525 249.524 236.497 250.398 235.36 251.057C234.269 251.688 233.257 251.995 232.322 251.978C231.387 251.961 230.632 251.561 230.055 250.779C229.495 249.988 229.214 248.809 229.214 247.243C229.214 245.695 229.495 244.21 230.056 242.787C230.632 241.355 231.38 240.094 232.299 239.004C233.218 237.914 234.215 237.058 235.29 236.436ZM235.197 239.541C234.558 239.911 234.013 240.461 233.561 241.19C233.109 241.92 232.805 242.752 232.649 243.689L237.463 240.902C237.401 240.074 237.159 239.557 236.739 239.35C236.334 239.117 235.82 239.181 235.197 239.541ZM249.349 228.298C249.816 228.028 250.253 227.856 250.658 227.784C251.063 227.711 251.374 227.738 251.592 227.864L250.33 231.483C249.925 231.394 249.466 231.498 248.952 231.795C248.11 232.282 247.433 233.079 246.919 234.187C246.42 235.286 246.171 236.546 246.171 237.968L246.171 244.475L242.922 246.355L242.923 232.369L245.774 230.719C245.852 231.754 245.922 232.451 245.984 232.811C246.342 231.758 246.81 230.848 247.386 230.083C247.963 229.317 248.617 228.722 249.349 228.298ZM259.904 222.189C261.244 221.413 262.303 221.313 263.082 221.888C263.861 222.445 264.25 223.696 264.25 225.64L264.25 234.01L261.002 235.89L261.002 228.735C261.002 226.179 260.27 225.325 258.806 226.173C258.027 226.623 257.396 227.34 256.913 228.321C256.445 229.276 256.212 230.383 256.212 231.643L256.211 238.663L252.963 240.543L252.964 226.557L255.815 224.907C255.892 225.96 255.963 226.666 256.025 227.026C256.804 224.847 258.097 223.235 259.904 222.189ZM280.69 210.157C281.858 209.481 282.809 209.444 283.541 210.046C284.273 210.63 284.639 211.876 284.639 213.784L284.639 222.208L281.461 224.048L281.461 216.893C281.461 214.337 280.846 213.415 279.615 214.127C278.945 214.515 278.407 215.177 278.002 216.114C277.613 217.041 277.418 218.126 277.418 219.368L277.418 226.388L274.263 228.214L274.264 221.059C274.264 218.503 273.648 217.581 272.418 218.293C271.748 218.681 271.218 219.339 270.829 220.266C270.439 221.194 270.244 222.278 270.244 223.52L270.244 230.54L267.066 232.38L267.066 218.394L269.847 216.784C269.925 217.765 269.987 218.413 270.034 218.728C270.829 216.666 271.982 215.198 273.493 214.323C274.303 213.854 275.012 213.687 275.619 213.821C276.227 213.956 276.686 214.41 276.998 215.183C277.387 213.968 277.901 212.941 278.54 212.104C279.179 211.266 279.895 210.617 280.69 210.157ZM292.865 203.11C293.94 202.488 294.89 202.217 295.716 202.297C296.557 202.35 297.203 202.75 297.655 203.496C298.123 204.216 298.356 205.223 298.356 206.519C298.356 207.095 298.309 207.707 298.216 208.355L290.177 213.008C290.318 213.971 290.645 214.574 291.159 214.816C291.673 215.041 292.312 214.932 293.075 214.49C293.62 214.175 294.103 213.76 294.524 213.247C294.96 212.706 295.295 212.089 295.529 211.396L297.912 211.636C297.585 212.852 296.954 214.009 296.019 215.108C295.1 216.198 294.072 217.072 292.935 217.73C291.844 218.362 290.832 218.669 289.897 218.652C288.962 218.635 288.207 218.235 287.63 217.453C287.069 216.661 286.789 215.483 286.789 213.917C286.789 212.369 287.07 210.883 287.631 209.461C288.207 208.029 288.955 206.768 289.874 205.678C290.793 204.588 291.79 203.732 292.865 203.11ZM292.771 206.215C292.133 206.585 291.587 207.134 291.136 207.864C290.684 208.593 290.38 209.426 290.224 210.362L295.038 207.576C294.976 206.748 294.734 206.231 294.314 206.024C293.909 205.791 293.395 205.854 292.771 206.215ZM307.438 194.675C308.778 193.899 309.837 193.799 310.616 194.374C311.395 194.931 311.784 196.182 311.784 198.126L311.784 206.496L308.536 208.376L308.536 201.221C308.536 198.665 307.804 197.811 306.34 198.658C305.561 199.109 304.93 199.825 304.447 200.807C303.979 201.761 303.746 202.869 303.746 204.129L303.745 211.149L300.497 213.029L300.498 199.043L303.349 197.393C303.427 198.446 303.497 199.152 303.559 199.512C304.338 197.333 305.631 195.721 307.438 194.675ZM322.944 199.226C322.15 200.442 321.043 201.46 319.626 202.281C318.317 203.038 317.258 203.255 316.448 202.932C315.653 202.582 315.256 201.372 315.256 199.302L315.256 193.659L313.107 194.903L313.107 191.744L315.256 190.5L315.257 186.207L318.505 184.327L318.505 188.62L322.15 186.51L322.15 189.669L318.505 191.779L318.504 196.801C318.504 197.737 318.644 198.367 318.925 198.69C319.205 199.014 319.657 198.996 320.28 198.635C320.825 198.319 321.34 197.833 321.822 197.175L322.944 199.226Z" fill="white"/>
</g>
<defs>
<filter id="filter0_b_54_1720" x="-74.9779" y="-44.018" width="487.048" height="406.876" filterUnits="userSpaceOnUse" color-interpolation-filters="sRGB">
<feFlood flood-opacity="0" result="BackgroundImageFix"/>
<feGaussianBlur in="BackgroundImageFix" stdDeviation="67.957"/>
<feComposite in2="SourceAlpha" operator="in" result="effect1_backgroundBlur_54_1720"/>
<feBlend mode="normal" in="SourceGraphic" in2="effect1_backgroundBlur_54_1720" result="shape"/>
</filter>
<filter id="filter1_b_54_1720" x="-59.0357" y="-79.9773" width="397.772" height="442.835" filterUnits="userSpaceOnUse" color-interpolation-filters="sRGB">
<feFlood flood-opacity="0" result="BackgroundImageFix"/>
<feGaussianBlur in="BackgroundImageFix" stdDeviation="67.957"/>
<feComposite in2="SourceAlpha" operator="in" result="effect1_backgroundBlur_54_1720"/>
<feBlend mode="normal" in="SourceGraphic" in2="effect1_backgroundBlur_54_1720" result="shape"/>
</filter>
<filter id="filter2_b_54_1720" x="-61.8257" y="-125.526" width="473.896" height="389.295" filterUnits="userSpaceOnUse" color-interpolation-filters="sRGB">
<feFlood flood-opacity="0" result="BackgroundImageFix"/>
<feGaussianBlur in="BackgroundImageFix" stdDeviation="67.957"/>
<feComposite in2="SourceAlpha" operator="in" result="effect1_backgroundBlur_54_1720"/>
<feBlend mode="normal" in="SourceGraphic" in2="effect1_backgroundBlur_54_1720" result="shape"/>
</filter>
<filter id="filter3_b_54_1720" x="-59.0357" y="-135.914" width="471.106" height="386.898" filterUnits="userSpaceOnUse" color-interpolation-filters="sRGB">
<feFlood flood-opacity="0" result="BackgroundImageFix"/>
<feGaussianBlur in="BackgroundImageFix" stdDeviation="67.957"/>
<feComposite in2="SourceAlpha" operator="in" result="effect1_backgroundBlur_54_1720"/>
<feBlend mode="normal" in="SourceGraphic" in2="effect1_backgroundBlur_54_1720" result="shape"/>
</filter>
<filter id="filter4_b_54_1720" x="-74.9779" y="-92.7628" width="413.714" height="462.013" filterUnits="userSpaceOnUse" color-interpolation-filters="sRGB">
<feFlood flood-opacity="0" result="BackgroundImageFix"/>
<feGaussianBlur in="BackgroundImageFix" stdDeviation="67.957"/>
<feComposite in2="SourceAlpha" operator="in" result="effect1_backgroundBlur_54_1720"/>
<feBlend mode="normal" in="SourceGraphic" in2="effect1_backgroundBlur_54_1720" result="shape"/>
</filter>
<filter id="filter5_d_54_1720" x="182.659" y="179.921" width="140.286" height="99.3253" filterUnits="userSpaceOnUse" color-interpolation-filters="sRGB">
<feFlood flood-opacity="0" result="BackgroundImageFix"/>
<feColorMatrix in="SourceAlpha" type="matrix" values="0 0 0 0 0 0 0 0 0 0 0 0 0 0 0 0 0 0 127 0" result="hardAlpha"/>
<feOffset dx="-4"/>
<feComposite in2="hardAlpha" operator="out"/>
<feColorMatrix type="matrix" values="0 0 0 0 0.0901961 0 0 0 0 0.0901961 0 0 0 0 0.0901961 0 0 0 1 0"/>
<feBlend mode="normal" in2="BackgroundImageFix" result="effect1_dropShadow_54_1720"/>
<feBlend mode="normal" in="SourceGraphic" in2="effect1_dropShadow_54_1720" result="shape"/>
</filter>
</defs>
</svg>
