<svg width="332" height="284" viewBox="0 0 332 284" fill="none" xmlns="http://www.w3.org/2000/svg">
<path opacity="0.5" fill-rule="evenodd" clip-rule="evenodd" d="M0 173.649L145.25 85.6682L332 196.577L187.814 281.891L0 173.649Z" fill="#171717" fill-opacity="0.7"/>
<path fill-rule="evenodd" clip-rule="evenodd" d="M211.666 0L213.801 0L215.935 0V156.076L213.801 156.165L211.666 156.076V0Z" fill="#171717"/>
<path fill-rule="evenodd" clip-rule="evenodd" d="M211.666 2.13916C211.666 2.13916 217.976 3.75984 221.694 4.25194C226.985 4.95203 233.902 2.84067 237.123 3.13995C245.349 3.90443 247.537 5.47269 247.537 5.47269V28.991C247.537 28.991 246.837 27.5745 237.123 26.6717C233.502 26.3352 226.609 28.8158 221.732 28.1708C217.887 27.6622 211.666 25.6575 211.666 25.6575V2.13916Z" fill="#171717" fill-opacity="0.7"/>
<g filter="url(#filter0_b_54_1685)">
<path fill-rule="evenodd" clip-rule="evenodd" d="M157.667 98.1832L100.583 65.7131V146.115L157.667 178.585V98.1832ZM99.0403 160.031L41.956 127.561V183.224L99.0403 215.694V160.031Z" fill="#171717" fill-opacity="0.8"/>
</g>
<path fill-rule="evenodd" clip-rule="evenodd" d="M114.228 85.0304L106.888 80.6625V90.7777L114.228 95.1456V85.0304ZM47.9498 140.731L55.2902 145.099V155.214L47.9498 150.846V140.731ZM57.1253 146.248L64.4658 150.616V160.731L57.1253 156.363V146.248ZM73.6728 155.998L66.3324 151.63V161.745L73.6728 166.113V155.998ZM75.5727 157.136L82.9131 161.504V171.62L75.5727 167.252V157.136ZM92.1535 167.011L84.813 162.643V172.758L92.1535 177.126V167.011ZM47.9498 163.757L55.2902 168.125V178.24L47.9498 173.872V163.757ZM64.4658 173.642L57.1253 169.274V179.39L64.4658 183.757V173.642ZM66.3324 174.656L73.6728 179.024V189.139L66.3324 184.772V174.656ZM82.9131 184.531L75.5727 180.163V190.278L82.9131 194.646V184.531ZM84.813 185.669L92.1535 190.037V200.152L84.813 195.784V185.669ZM116.064 86.1799L123.404 90.5478V100.663L116.064 96.2951V86.1799ZM132.611 95.9298L125.271 91.5619V101.677L132.611 106.045V95.9298ZM143.751 102.574L151.092 106.942V117.058L143.751 112.69V102.574ZM114.228 108.057L106.888 103.689V113.804L114.228 118.172V108.057ZM116.064 109.206L123.404 113.574V123.689L116.064 119.321V109.206ZM132.611 118.956L125.271 114.588V124.703L132.611 129.071V118.956ZM143.751 125.601L151.092 129.969V140.084L143.751 135.716V125.601ZM151.092 152.995L143.751 148.627V158.742L151.092 163.11V152.995Z" fill="white"/>
<path fill-rule="evenodd" clip-rule="evenodd" d="M157.667 98.1831L205.495 70.3517V150.754L157.667 178.585V98.1831ZM99.0403 160.031L139.154 136.838V192.501L99.0403 215.694L99.0403 160.031Z" fill="#171717"/>
<g filter="url(#filter1_b_54_1685)">
<path fill-rule="evenodd" clip-rule="evenodd" d="M157.667 98.1832L205.495 70.3517L148.41 37.8817L100.583 65.7132L157.667 98.1832ZM99.0403 160.031L139.154 136.838L82.0693 104.368L41.956 127.561L99.0403 160.031Z" fill="#171717" fill-opacity="0.7"/>
</g>
<path fill-rule="evenodd" clip-rule="evenodd" d="M255.665 213.213C271.697 204.073 271.847 181.014 255.935 171.667C236.008 159.962 211.344 159.801 191.266 171.247L149.555 195.026C133.236 204.329 133.084 227.8 149.28 237.314C168.812 248.788 192.987 248.945 212.666 237.726L255.665 213.213ZM194.296 232.836L253.734 197.57L211.279 172.767L151.841 208.033L194.296 232.836Z" fill="white"/>
<g filter="url(#filter2_d_54_1685)">
<path d="M198.388 258.242L189.647 263.3L189.647 269.488L199.741 263.647L199.741 267.965L185.38 276.275L185.381 251.387L199.418 243.264L199.418 247.548L189.648 253.202L189.648 259.05L198.388 253.992L198.388 258.242ZM213.239 234.281L217.329 231.914L217.328 257.788L213.738 259.865C213.64 258.607 213.562 257.769 213.503 257.35C212.973 258.676 212.276 259.85 211.413 260.871C210.57 261.857 209.648 262.64 208.647 263.219C207.391 263.946 206.244 264.247 205.204 264.124C204.164 264 203.33 263.429 202.703 262.409C202.075 261.367 201.761 259.894 201.761 257.99C201.761 256.063 202.075 254.227 202.703 252.481C203.331 250.713 204.165 249.165 205.204 247.838C206.244 246.511 207.392 245.484 208.648 244.757C209.57 244.224 210.423 243.945 211.208 243.922C212.012 243.887 212.689 244.153 213.238 244.719L213.239 234.281ZM209.589 258.628C210.609 258.038 211.472 257.108 212.179 255.838C212.885 254.568 213.238 253.072 213.238 251.349C213.238 249.649 212.885 248.595 212.179 248.188C211.473 247.758 210.609 247.838 209.589 248.428C208.51 249.053 207.637 250 206.97 251.27C206.323 252.529 205.999 253.951 205.999 255.538C205.999 257.125 206.322 258.195 206.97 258.75C207.637 259.293 208.51 259.253 209.589 258.628ZM231.01 232.259L235.101 229.892L235.1 247.504L231.481 249.599C231.402 248.284 231.324 247.411 231.245 246.981C230.735 248.341 230.068 249.521 229.244 250.519C228.42 251.517 227.478 252.323 226.419 252.936C224.712 253.923 223.368 254.066 222.387 253.364C221.406 252.663 220.916 251.088 220.916 248.64L220.916 238.1L225.007 235.733L225.007 244.709C225.006 247.95 225.909 249.049 227.714 248.004C228.695 247.437 229.489 246.535 230.098 245.299C230.706 244.063 231.01 242.652 231.01 241.065L231.01 232.259ZM245.768 237.625C246.946 236.944 247.887 235.73 248.594 233.984L251.713 234.287C251.222 235.886 250.448 237.331 249.388 238.624C248.329 239.917 247.122 240.956 245.768 241.739C244.415 242.522 243.149 242.903 241.972 242.882C240.795 242.837 239.844 242.334 239.118 241.371C238.392 240.386 238.029 238.93 238.029 237.003C238.029 235.054 238.392 233.178 239.118 231.375C239.844 229.55 240.796 227.945 241.973 226.562C243.15 225.155 244.415 224.06 245.769 223.277C247.123 222.494 248.329 222.135 249.389 222.202C250.448 222.269 251.223 222.818 251.713 223.849L248.594 227.762C247.907 226.845 246.966 226.732 245.769 227.425C244.709 228.038 243.856 228.996 243.209 230.3C242.581 231.57 242.267 232.987 242.267 234.551C242.267 236.093 242.59 237.141 243.238 237.695C243.885 238.25 244.729 238.227 245.768 237.625ZM260.157 214.951C262.217 213.759 263.826 213.508 264.983 214.198C266.141 214.866 266.72 216.446 266.72 218.94L266.719 229.208L263.276 231.2C263.256 231.03 263.227 230.752 263.188 230.367C263.168 229.948 263.129 229.596 263.07 229.313C262.619 230.39 262.03 231.343 261.304 232.171C260.598 232.965 259.735 233.657 258.715 234.247C257.655 234.86 256.684 235.207 255.801 235.287C254.938 235.356 254.251 235.13 253.741 234.609C253.231 234.066 252.976 233.227 252.976 232.094C252.976 230.915 253.261 229.731 253.83 228.54C254.418 227.316 255.203 226.181 256.184 225.138C257.165 224.094 258.244 223.232 259.421 222.551C260.481 221.938 261.57 221.512 262.688 221.272C262.629 218.7 261.668 217.953 259.804 219.031C258.313 219.894 257.224 221.295 256.537 223.233L253.624 222.981C254.173 221.349 255.017 219.829 256.155 218.423C257.293 216.994 258.627 215.836 260.157 214.951ZM262.688 224.4C261.707 224.696 260.853 225.054 260.128 225.474C259.166 226.03 258.421 226.666 257.891 227.38C257.361 228.072 257.096 228.781 257.096 229.506C257.096 230.163 257.302 230.554 257.714 230.678C258.146 230.791 258.695 230.655 259.362 230.269C260.245 229.758 261.02 229.026 261.687 228.073C262.354 227.098 262.688 226.1 262.688 225.08L262.688 224.4ZM280.831 220.022C279.83 221.553 278.437 222.835 276.652 223.868C275.004 224.822 273.67 225.095 272.65 224.688C271.649 224.247 271.149 222.723 271.149 220.116L271.149 213.01L268.442 214.577L268.442 210.599L271.149 209.032L271.15 203.626L275.24 201.259L275.24 206.665L279.831 204.009L279.831 207.987L275.24 210.643L275.24 216.967C275.24 218.146 275.416 218.939 275.769 219.347C276.122 219.754 276.691 219.731 277.476 219.277C278.163 218.88 278.81 218.267 279.418 217.439L280.831 220.022ZM284.682 198.958C284.035 199.332 283.466 199.378 282.975 199.095C282.504 198.778 282.269 198.235 282.269 197.464C282.269 196.671 282.505 195.854 282.975 195.015C283.446 194.176 284.015 193.564 284.682 193.178C285.349 192.792 285.928 192.751 286.419 193.057C286.909 193.34 287.154 193.866 287.154 194.637C287.154 195.408 286.909 196.23 286.418 197.103C285.928 197.953 285.349 198.572 284.682 198.958ZM286.771 217.605L282.68 219.972L282.681 202.36L286.771 199.993L286.771 217.605ZM289.672 207.12C289.672 205.284 290.025 203.459 290.732 201.645C291.458 199.819 292.419 198.187 293.616 196.746C294.813 195.283 296.107 194.148 297.5 193.342C298.874 192.548 300.149 192.195 301.326 192.284C302.523 192.34 303.474 192.866 304.18 193.863C304.906 194.848 305.269 196.259 305.269 198.095C305.269 199.931 304.906 201.761 304.18 203.587C303.474 205.401 302.522 207.028 301.325 208.468C300.148 209.898 298.873 211.01 297.5 211.804C296.107 212.61 294.812 212.986 293.615 212.93C292.419 212.875 291.457 212.354 290.731 211.369C290.025 210.372 289.672 208.956 289.672 207.12ZM293.91 204.668C293.91 206.232 294.243 207.285 294.91 207.829C295.597 208.338 296.45 208.298 297.47 207.707C298.491 207.117 299.334 206.175 300.001 204.883C300.668 203.567 301.002 202.128 301.002 200.564C301.002 199 300.669 197.946 300.002 197.403C299.335 196.859 298.491 196.883 297.471 197.473C296.451 198.064 295.597 199.022 294.91 200.349C294.243 201.664 293.91 203.104 293.91 204.668ZM316.97 182.076C318.657 181.1 319.991 180.974 320.972 181.698C321.953 182.4 322.443 183.975 322.443 186.423L322.443 196.963L318.352 199.33L318.352 190.32C318.353 187.101 317.431 186.025 315.586 187.093C314.605 187.66 313.811 188.562 313.203 189.798C312.614 191 312.32 192.394 312.32 193.981L312.319 202.821L308.229 205.188L308.229 187.576L311.82 185.498C311.918 186.824 312.006 187.714 312.084 188.167C313.065 185.423 314.694 183.393 316.97 182.076Z" fill="white"/>
</g>
<defs>
<filter id="filter0_b_54_1685" x="-93.9581" y="-70.201" width="387.54" height="421.809" filterUnits="userSpaceOnUse" color-interpolation-filters="sRGB">
<feFlood flood-opacity="0" result="BackgroundImageFix"/>
<feGaussianBlur in="BackgroundImageFix" stdDeviation="67.957"/>
<feComposite in2="SourceAlpha" operator="in" result="effect1_backgroundBlur_54_1685"/>
<feBlend mode="normal" in="SourceGraphic" in2="effect1_backgroundBlur_54_1685" result="shape"/>
</filter>
<filter id="filter1_b_54_1685" x="-93.9581" y="-98.0324" width="435.367" height="393.977" filterUnits="userSpaceOnUse" color-interpolation-filters="sRGB">
<feFlood flood-opacity="0" result="BackgroundImageFix"/>
<feGaussianBlur in="BackgroundImageFix" stdDeviation="67.957"/>
<feComposite in2="SourceAlpha" operator="in" result="effect1_backgroundBlur_54_1685"/>
<feBlend mode="normal" in="SourceGraphic" in2="effect1_backgroundBlur_54_1685" result="shape"/>
</filter>
<filter id="filter2_d_54_1685" x="181.38" y="171.089" width="141.063" height="105.594" filterUnits="userSpaceOnUse" color-interpolation-filters="sRGB">
<feFlood flood-opacity="0" result="BackgroundImageFix"/>
<feColorMatrix in="SourceAlpha" type="matrix" values="0 0 0 0 0 0 0 0 0 0 0 0 0 0 0 0 0 0 127 0" result="hardAlpha"/>
<feOffset dx="-4"/>
<feComposite in2="hardAlpha" operator="out"/>
<feColorMatrix type="matrix" values="0 0 0 0 0.0901961 0 0 0 0 0.0901961 0 0 0 0 0.0901961 0 0 0 1 0"/>
<feBlend mode="normal" in2="BackgroundImageFix" result="effect1_dropShadow_54_1685"/>
<feBlend mode="normal" in="SourceGraphic" in2="effect1_dropShadow_54_1685" result="shape"/>
</filter>
</defs>
</svg>
