<svg width="332" height="295" viewBox="0 0 332 295" fill="none" xmlns="http://www.w3.org/2000/svg">
<path opacity="0.5" fill-rule="evenodd" clip-rule="evenodd" d="M0 186.88L145.25 99L332 209.783L187.814 295L0 186.88Z" fill="#171717" fill-opacity="0.7"/>
<g filter="url(#filter0_b_54_1725)">
<path fill-rule="evenodd" clip-rule="evenodd" d="M83.9472 43.0118L71.9246 36L133.86 0L248.739 67L236.717 73.9882L248.739 81L236.717 87.9882L248.739 95L236.717 101.988L248.739 109L236.717 115.988L248.739 123L236.717 129.988L248.739 137L236.717 143.988L248.739 151L236.717 157.988L248.739 165L236.717 171.988L248.739 179L236.717 185.988L248.739 193L186.804 229L71.9246 162L83.9472 155.012L71.9246 148L83.9472 141.012L71.9246 134L83.9472 127.012L71.9246 120L83.9472 113.012L71.9246 106L83.9472 99.0118L71.9246 92L83.9472 85.0118L71.9246 78L83.9472 71.0118L71.9246 64L83.9472 57.0118L71.9246 50L83.9472 43.0118Z" fill="#171717" fill-opacity="0.7"/>
</g>
<g filter="url(#filter1_b_54_1725)">
<path fill-rule="evenodd" clip-rule="evenodd" d="M71.9246 36L186.804 103V115L71.9246 48V36ZM186.804 117L71.9246 50V62L186.804 129V117ZM71.9246 64L186.804 131V143L71.9246 76V64ZM186.804 145L71.9246 78V90L186.804 157V145ZM71.9246 92L186.804 159V171L71.9246 104V92ZM186.804 173L71.9246 106V118L186.804 185V173ZM71.9246 120L186.804 187V199L71.9246 132V120ZM186.804 201L71.9246 134V146L186.804 213V201ZM71.9246 148L186.804 215V227L71.9246 160V148ZM71.9246 162L186.804 229V251L71.9246 184V162ZM176.285 74.3217L112.352 37.0348V43.713L176.285 81V74.3217Z" fill="#171717" fill-opacity="0.8"/>
</g>
<path fill-rule="evenodd" clip-rule="evenodd" d="M85.7489 47.6613L80.9152 45V49.8387L85.7489 52.5V47.6613ZM80.9152 143L85.7489 145.661V150.5L80.9152 147.839V143ZM136.857 176.231L141.69 178.892V183.731L136.857 181.069V176.231ZM113.72 162.277L108.886 159.615V164.454L113.72 167.115V162.277ZM164.827 192.846L169.661 195.507V200.346L164.827 197.685V192.846ZM99.7342 153.969L94.9006 151.308V156.146L99.7342 158.808V153.969ZM150.842 184.538L155.676 187.2V192.038L150.842 189.377V184.538ZM127.705 170.584L122.871 167.923V172.762L127.705 175.423V170.584ZM87.9079 147.154L92.7415 149.815V154.654L87.9079 151.993V147.154ZM148.683 183.046L143.849 180.385V185.223L148.683 187.885V183.046ZM115.879 163.769L120.712 166.431V171.269L115.879 168.608V163.769ZM176.654 199.661L171.82 197V201.839L176.654 204.5V199.661ZM101.893 155.462L106.727 158.123V162.962L101.893 160.3V155.462ZM162.668 191.354L157.835 188.692V193.531L162.668 196.192V191.354ZM129.864 172.077L134.698 174.738V179.577L129.864 176.916V172.077ZM85.7489 131.661L80.9152 129V133.839L85.7489 136.5V131.661ZM141.69 164.892L136.857 162.231V167.069L141.69 169.731V164.892ZM108.886 145.615L113.72 148.277V153.115L108.886 150.454V145.615ZM169.661 181.507L164.827 178.846V183.685L169.661 186.346V181.507ZM94.9006 137.308L99.7342 139.969V144.808L94.9006 142.146V137.308ZM155.676 173.2L150.842 170.538V175.377L155.676 178.038V173.2ZM122.871 153.923L127.705 156.584V161.423L122.871 158.762V153.923ZM92.7415 135.815L87.9079 133.154V137.993L92.7415 140.654V135.815ZM143.849 166.385L148.683 169.046V173.885L143.849 171.223V166.385ZM120.712 152.431L115.879 149.769V154.608L120.712 157.269V152.431ZM171.82 183L176.654 185.661V190.5L171.82 187.839V183ZM106.727 144.123L101.893 141.462V146.3L106.727 148.962V144.123ZM157.835 174.692L162.668 177.354V182.192L157.835 179.531V174.692ZM134.698 160.738L129.864 158.077V162.916L134.698 165.577V160.738ZM141.69 80.8921L136.857 78.2308V83.0695L141.69 85.7308V80.8921ZM85.7489 117.661L80.9152 115V119.839L85.7489 122.5V117.661ZM141.69 150.892L136.857 148.231V153.069L141.69 155.731V150.892ZM108.886 131.615L113.72 134.277V139.115L108.886 136.454V131.615ZM169.661 167.507L164.827 164.846V169.685L169.661 172.346V167.507ZM94.9006 123.308L99.7342 125.969V130.808L94.9006 128.146V123.308ZM155.676 159.2L150.842 156.538V161.377L155.676 164.038V159.2ZM122.871 139.923L127.705 142.584V147.423L122.871 144.762V139.923ZM92.7415 121.815L87.9079 119.154V123.993L92.7415 126.654V121.815ZM143.849 152.385L148.683 155.046V159.885L143.849 157.223V152.385ZM120.712 138.431L115.879 135.769V140.608L120.712 143.269V138.431ZM171.82 169L176.654 171.661V176.5L171.82 173.839V169ZM106.727 130.123L101.893 127.462V132.3L106.727 134.962V130.123ZM157.835 160.692L162.668 163.354V168.192L157.835 165.531V160.692ZM134.698 146.738L129.864 144.077V148.916L134.698 151.577V146.738ZM113.72 64.2767L108.886 61.6154V66.4541L113.72 69.1154V64.2767ZM85.7489 103.661L80.9152 101V105.839L85.7489 108.5V103.661ZM141.69 136.892L136.857 134.231V139.069L141.69 141.731V136.892ZM108.886 117.615L113.72 120.277V125.115L108.886 122.454V117.615ZM169.661 153.507L164.827 150.846V155.685L169.661 158.346V153.507ZM94.9006 109.308L99.7342 111.969V116.808L94.9006 114.146V109.308ZM155.676 145.2L150.842 142.538V147.377L155.676 150.038V145.2ZM122.871 125.923L127.705 128.584V133.423L122.871 130.762V125.923ZM92.7415 107.815L87.9079 105.154V109.993L92.7415 112.654V107.815ZM143.849 138.385L148.683 141.046V145.885L143.849 143.223V138.385ZM120.712 124.431L115.879 121.769V126.608L120.712 129.269V124.431ZM171.82 155L176.654 157.661V162.5L171.82 159.839V155ZM106.727 116.123L101.893 113.462V118.3L106.727 120.962V116.123ZM157.835 146.692L162.668 149.354V154.192L157.835 151.531V146.692ZM134.698 132.738L129.864 130.077V134.916L134.698 137.577V132.738ZM169.661 97.5074L164.827 94.8462V99.6849L169.661 102.346V97.5074ZM85.7489 89.6613L80.9152 87V91.8387L85.7489 94.5V89.6613ZM141.69 122.892L136.857 120.231V125.069L141.69 127.731V122.892ZM108.886 103.615L113.72 106.277V111.115L108.886 108.454V103.615ZM169.661 139.507L164.827 136.846V141.685L169.661 144.346V139.507ZM94.9006 95.3077L99.7342 97.969V102.808L94.9006 100.146V95.3077ZM155.676 131.2L150.842 128.538V133.377L155.676 136.038V131.2ZM122.871 111.923L127.705 114.584V119.423L122.871 116.762V111.923ZM92.7415 93.8151L87.9079 91.1538V95.9926L92.7415 98.6538V93.8151ZM143.849 124.385L148.683 127.046V131.885L143.849 129.223V124.385ZM120.712 110.431L115.879 107.769V112.608L120.712 115.269V110.431ZM171.82 141L176.654 143.661V148.5L171.82 145.839V141ZM106.727 102.123L101.893 99.4615V104.3L106.727 106.962V102.123ZM157.835 132.692L162.668 135.354V140.192L157.835 137.531V132.692ZM134.698 118.738L129.864 116.077V120.916L134.698 123.577V118.738ZM99.7342 55.969L94.9006 53.3077V58.1464L99.7342 60.8077V55.969ZM85.7489 75.6613L80.9152 73V77.8387L85.7489 80.5V75.6613ZM141.69 108.892L136.857 106.231V111.069L141.69 113.731V108.892ZM108.886 89.6154L113.72 92.2767V97.1154L108.886 94.4541V89.6154ZM169.661 125.507L164.827 122.846V127.685L169.661 130.346V125.507ZM94.9006 81.3077L99.7342 83.969V88.8077L94.9006 86.1464V81.3077ZM155.676 117.2L150.842 114.538V119.377L155.676 122.038V117.2ZM122.871 97.9231L127.705 100.584V105.423L122.871 102.762V97.9231ZM92.7415 79.8151L87.9079 77.1538V81.9926L92.7415 84.6538V79.8151ZM143.849 110.385L148.683 113.046V117.885L143.849 115.223V110.385ZM120.712 96.4305L115.879 93.7692V98.6079L120.712 101.269V96.4305ZM171.82 127L176.654 129.661V134.5L171.82 131.839V127ZM106.727 88.1228L101.893 85.4615V90.3002L106.727 92.9615V88.1228ZM157.835 118.692L162.668 121.354V126.192L157.835 123.531V118.692ZM134.698 104.738L129.864 102.077V106.916L134.698 109.577V104.738ZM155.676 89.1997L150.842 86.5385V91.3772L155.676 94.0385V89.1997ZM85.7489 61.6613L80.9152 59V63.8387L85.7489 66.5V61.6613ZM141.69 94.8921L136.857 92.2308V97.0695L141.69 99.7308V94.8921ZM108.886 75.6154L113.72 78.2767V83.1154L108.886 80.4541V75.6154ZM169.661 111.507L164.827 108.846V113.685L169.661 116.346V111.507ZM94.9006 67.3077L99.7342 69.969V74.8077L94.9006 72.1464V67.3077ZM155.676 103.2L150.842 100.538V105.377L155.676 108.038V103.2ZM122.871 83.9231L127.705 86.5844V91.4231L122.871 88.7618V83.9231ZM92.7415 65.8151L87.9079 63.1538V67.9926L92.7415 70.6538V65.8151ZM143.849 96.3846L148.683 99.0459V103.885L143.849 101.223V96.3846ZM120.712 82.4305L115.879 79.7692V84.6079L120.712 87.2692V82.4305ZM171.82 113L176.654 115.661V120.5L171.82 117.839V113ZM106.727 74.1228L101.893 71.4615V76.3002L106.727 78.9615V74.1228ZM157.835 104.692L162.668 107.354V112.192L157.835 109.531V104.692ZM134.698 90.7382L129.864 88.0769V92.9156L134.698 95.5769V90.7382ZM127.705 72.5844L122.871 69.9231V74.7618L127.705 77.4231V72.5844ZM92.7415 51.8151L87.9079 49.1538V53.9926L92.7415 56.6538V51.8151ZM143.849 82.3846L148.683 85.0459V89.8846L143.849 87.2233V82.3846ZM120.712 68.4305L115.879 65.7692V70.6079L120.712 73.2692V68.4305ZM171.82 99L176.654 101.661V106.5L171.82 103.839V99ZM106.727 60.1228L101.893 57.4615V62.3002L106.727 64.9615V60.1228ZM157.835 90.6923L162.668 93.3536V98.1923L157.835 95.531V90.6923ZM134.698 76.7382L129.864 74.0769V78.9156L134.698 81.5769V76.7382ZM95.8995 181L113.631 191.25V208.25L95.8995 198V181ZM131.862 202L149.593 212.25V229.25L131.862 219V202Z" fill="white"/>
<path fill-rule="evenodd" clip-rule="evenodd" d="M176.285 74.3216L210.753 54.2869V60.9651L176.285 80.9999V74.3216ZM248.739 66.9999L186.804 103V115L248.739 78.9999V66.9999ZM186.804 117L248.739 80.9999V92.9999L186.804 129V117ZM248.739 94.9999L186.804 131V143L248.739 107V94.9999ZM186.804 145L248.739 109V121L186.804 157V145ZM248.739 123L186.804 159V171L248.739 135V123ZM186.804 173L248.739 137V149L186.804 185V173ZM248.739 151L186.804 187V199L248.739 163V151ZM186.804 201L248.739 165V177L186.804 213V201ZM248.739 179L186.804 215V227L248.739 191V179ZM248.739 193L186.804 229V251L248.739 215V193Z" fill="#171717"/>
<g filter="url(#filter2_d_54_1725)">
<path d="M186.488 147.73L200.28 139.759L200.28 143.242L195.091 146.241L195.09 162.522L191.677 164.495L191.678 148.214L186.488 151.213L186.488 147.73ZM206.211 141.758C206.679 141.487 207.115 141.316 207.52 141.244C207.925 141.172 208.237 141.199 208.455 141.325L207.193 144.943C206.788 144.853 206.328 144.957 205.814 145.254C204.972 145.741 204.294 146.538 203.78 147.645C203.281 148.743 203.032 150.003 203.032 151.425L203.032 157.932L199.782 159.81L199.783 145.824L202.635 144.176C202.712 145.211 202.783 145.908 202.845 146.268C203.203 145.215 203.671 144.306 204.248 143.541C204.824 142.775 205.479 142.181 206.211 141.758ZM213.988 137.263C215.624 136.317 216.902 136.118 217.821 136.667C218.741 137.197 219.2 138.453 219.2 140.433L219.2 148.587L216.465 150.168C216.45 150.033 216.426 149.812 216.395 149.506C216.379 149.173 216.348 148.894 216.302 148.669C215.943 149.524 215.476 150.281 214.899 150.938C214.338 151.568 213.652 152.117 212.842 152.586C212 153.072 211.229 153.347 210.528 153.41C209.842 153.465 209.296 153.285 208.891 152.871C208.486 152.439 208.284 151.774 208.284 150.874C208.284 149.938 208.51 148.997 208.962 148.052C209.429 147.08 210.053 146.179 210.832 145.351C211.611 144.522 212.468 143.838 213.403 143.298C214.245 142.811 215.11 142.473 215.998 142.284C215.951 140.241 215.188 139.647 213.707 140.503C212.523 141.188 211.658 142.299 211.112 143.839L208.798 143.637C209.234 142.341 209.905 141.135 210.809 140.018C211.712 138.884 212.772 137.965 213.988 137.263ZM215.998 144.768C215.219 145.002 214.541 145.286 213.964 145.619C213.2 146.061 212.608 146.565 212.187 147.132C211.767 147.681 211.556 148.244 211.556 148.82C211.556 149.342 211.72 149.652 212.047 149.751C212.39 149.841 212.826 149.733 213.356 149.427C214.057 149.021 214.673 148.44 215.203 147.684C215.733 146.91 215.998 146.118 215.998 145.308L215.998 144.768ZM230.479 121.521L233.728 119.643L233.727 140.19L230.875 141.838C230.798 140.84 230.735 140.174 230.688 139.841C230.268 140.894 229.714 141.826 229.029 142.636C228.359 143.419 227.626 144.041 226.831 144.5C225.834 145.076 224.922 145.315 224.096 145.217C223.27 145.118 222.608 144.664 222.109 143.854C221.611 143.026 221.362 141.857 221.362 140.345C221.362 138.815 221.611 137.356 222.11 135.97C222.608 134.566 223.271 133.337 224.097 132.284C224.923 131.23 225.834 130.415 226.832 129.839C227.564 129.416 228.242 129.195 228.866 129.176C229.504 129.149 230.042 129.36 230.478 129.81L230.479 121.521ZM227.579 140.855C228.39 140.386 229.076 139.648 229.637 138.64C230.198 137.631 230.478 136.443 230.478 135.075C230.478 133.725 230.198 132.888 229.637 132.565C229.076 132.223 228.39 132.286 227.58 132.755C226.723 133.25 226.029 134.002 225.499 135.01C224.985 136.009 224.728 137.139 224.728 138.399C224.728 139.659 224.985 140.509 225.499 140.95C226.029 141.382 226.722 141.35 227.579 140.855ZM242.141 120.99C243.216 120.369 244.167 120.098 244.993 120.179C245.834 120.232 246.481 120.633 246.933 121.379C247.4 122.099 247.634 123.107 247.634 124.403C247.634 124.979 247.587 125.591 247.494 126.239L239.452 130.887C239.593 131.85 239.92 132.453 240.434 132.696C240.948 132.92 241.587 132.812 242.351 132.371C242.896 132.055 243.38 131.641 243.8 131.128C244.237 130.588 244.572 129.971 244.806 129.278L247.19 129.52C246.863 130.735 246.231 131.892 245.296 132.99C244.377 134.08 243.348 134.953 242.211 135.611C241.12 136.241 240.107 136.548 239.172 136.53C238.237 136.513 237.481 136.113 236.904 135.33C236.343 134.538 236.063 133.359 236.063 131.793C236.063 130.245 236.344 128.76 236.905 127.338C237.481 125.907 238.229 124.646 239.149 123.557C240.068 122.467 241.066 121.612 242.141 120.99ZM242.047 124.095C241.408 124.465 240.863 125.014 240.411 125.743C239.959 126.472 239.655 127.305 239.499 128.241L244.315 125.458C244.252 124.63 244.011 124.112 243.59 123.906C243.185 123.672 242.671 123.735 242.047 124.095Z" fill="white"/>
</g>
<defs>
<filter id="filter0_b_54_1725" x="44.7418" y="-27.1828" width="231.18" height="283.366" filterUnits="userSpaceOnUse" color-interpolation-filters="sRGB">
<feFlood flood-opacity="0" result="BackgroundImageFix"/>
<feGaussianBlur in="BackgroundImageFix" stdDeviation="13.5914"/>
<feComposite in2="SourceAlpha" operator="in" result="effect1_backgroundBlur_54_1725"/>
<feBlend mode="normal" in="SourceGraphic" in2="effect1_backgroundBlur_54_1725" result="shape"/>
</filter>
<filter id="filter1_b_54_1725" x="44.7418" y="8.81718" width="169.245" height="269.366" filterUnits="userSpaceOnUse" color-interpolation-filters="sRGB">
<feFlood flood-opacity="0" result="BackgroundImageFix"/>
<feGaussianBlur in="BackgroundImageFix" stdDeviation="13.5914"/>
<feComposite in2="SourceAlpha" operator="in" result="effect1_backgroundBlur_54_1725"/>
<feBlend mode="normal" in="SourceGraphic" in2="effect1_backgroundBlur_54_1725" result="shape"/>
</filter>
<filter id="filter2_d_54_1725" x="182.488" y="111.605" width="65.1468" height="56.2133" filterUnits="userSpaceOnUse" color-interpolation-filters="sRGB">
<feFlood flood-opacity="0" result="BackgroundImageFix"/>
<feColorMatrix in="SourceAlpha" type="matrix" values="0 0 0 0 0 0 0 0 0 0 0 0 0 0 0 0 0 0 127 0" result="hardAlpha"/>
<feOffset dx="-4"/>
<feComposite in2="hardAlpha" operator="out"/>
<feColorMatrix type="matrix" values="0 0 0 0 0.0901961 0 0 0 0 0.0901961 0 0 0 0 0.0901961 0 0 0 1 0"/>
<feBlend mode="normal" in2="BackgroundImageFix" result="effect1_dropShadow_54_1725"/>
<feBlend mode="normal" in="SourceGraphic" in2="effect1_dropShadow_54_1725" result="shape"/>
</filter>
</defs>
</svg>
