<svg width="332" height="277" viewBox="0 0 332 277" fill="none" xmlns="http://www.w3.org/2000/svg">
<path opacity="0.5" fill-rule="evenodd" clip-rule="evenodd" d="M0 168.88L145.25 81L332 191.783L187.814 277L0 168.88Z" fill="#171717" fill-opacity="0.7"/>
<g filter="url(#filter0_b_54_1728)">
<path fill-rule="evenodd" clip-rule="evenodd" d="M107.887 43L116.624 47.8592L105.889 54L114.626 58.8592L103.891 65L112.628 69.8592L101.893 76L110.631 80.8592L99.8953 87L108.633 91.8592L97.8974 98L106.635 102.859L95.8995 109L104.637 113.859L93.9016 120L102.639 124.859L91.9037 131L100.641 135.859L89.9058 142L98.6431 146.859L87.9079 153L123.87 173L164.743 149.62L164.87 149.69L153.839 156L165.868 162.69L154.838 169L166.867 175.69L155.837 182L167.866 188.69L156.836 195L192.798 215L248.739 183L236.71 176.31L247.74 170L235.711 163.31L246.741 157L234.712 150.31L245.743 144L233.713 137.31L244.744 131L232.714 124.31L243.745 118L231.715 111.31L242.746 105L230.716 98.3099L241.747 92L229.717 85.3099L240.748 79L228.718 72.3099L239.749 66L227.719 59.3099L238.75 53L202.788 33L192.348 38.9718L189.055 37.1408L199.791 31L163.828 11L107.887 43Z" fill="white"/>
</g>
<g filter="url(#filter1_b_54_1728)">
<path fill-rule="evenodd" clip-rule="evenodd" d="M109.885 32L181.81 72L237.751 40L165.826 0L109.885 32Z" fill="#171717" fill-opacity="0.7"/>
</g>
<path fill-rule="evenodd" clip-rule="evenodd" d="M181.81 72L237.751 40V51L181.81 83V72ZM238.75 53L182.808 85V96L238.75 64V53ZM143.849 63L147.845 60.75V70.5714L148.844 70V79.825L149.843 79.25V89V90.25V98.6L150.842 98V108.083L151.841 107.5L151.841 117.5L151.841 118.5L151.841 127.087L152.84 126.5V136.577L153.839 136V146.069L154.838 145.5V156.5L154.838 166L123.87 184V173L125.868 171.839V162L127.866 160.862V151L129.864 149.846V140L131.862 138.826V129L133.86 127.85V118L135.858 116.833V107L137.856 105.8V96L139.853 94.8333V85L141.851 83.85V74L143.849 72.8571V63ZM248.739 183L192.798 215V226L248.739 194V183ZM191.799 202L247.74 170V181L191.799 213V202ZM246.742 157L190.8 189V200L246.742 168V157ZM189.801 176L245.743 144V155L189.801 187V176ZM244.744 131L188.802 163V174L244.744 142V131ZM187.803 150L243.745 118V129L187.803 161V150ZM242.746 105L186.804 137V148L242.746 116V105ZM185.805 124L241.747 92V103L185.805 135V124ZM240.748 79L184.806 111V122L240.748 90V79ZM183.807 98L239.749 66V77L183.807 109V98Z" fill="#171717"/>
<g filter="url(#filter2_b_54_1728)">
<path fill-rule="evenodd" clip-rule="evenodd" d="M181.81 72L109.885 32V43L181.81 83V72ZM143.849 63L107.887 43V54L143.849 74V63ZM105.889 54L141.851 74V85L105.889 65V54ZM139.853 85L103.891 65V76L139.853 96V85ZM101.893 76L137.856 96V107L101.893 87V76ZM135.858 107L99.8953 87V98L135.858 118V107ZM97.8974 98L133.86 118V129L97.8974 109V98ZM131.862 129L95.8995 109V120L131.862 140V129ZM93.9016 120L129.864 140V151L93.9016 131V120ZM127.866 162V151L91.9037 131V142L127.866 162ZM89.9058 142L125.868 162V173L89.9058 153V142ZM123.87 173V184L87.9079 164V153L123.87 173ZM156.836 195L192.798 215V226L156.836 206V195ZM191.799 202L155.837 182V193L191.799 213V202ZM154.838 169L190.8 189V200L154.838 180V169ZM189.801 176L153.839 156V167L189.801 187V176ZM152.84 143L188.802 163V174L152.84 154V143ZM187.803 150L151.841 130V141L187.803 161V150ZM150.842 117L186.804 137V148L150.842 128V117ZM185.805 124L149.843 104V115L185.805 135V124ZM148.844 91L184.806 111V122L148.844 102V91ZM183.807 98L147.845 78V89L183.807 109V98ZM146.846 65L182.808 85V96L146.846 76V65Z" fill="#171717" fill-opacity="0.8"/>
</g>
<defs>
<filter id="filter0_b_54_1728" x="-48.0062" y="-124.914" width="432.66" height="475.828" filterUnits="userSpaceOnUse" color-interpolation-filters="sRGB">
<feFlood flood-opacity="0" result="BackgroundImageFix"/>
<feGaussianBlur in="BackgroundImageFix" stdDeviation="67.957"/>
<feComposite in2="SourceAlpha" operator="in" result="effect1_backgroundBlur_54_1728"/>
<feBlend mode="normal" in="SourceGraphic" in2="effect1_backgroundBlur_54_1728" result="shape"/>
</filter>
<filter id="filter1_b_54_1728" x="-26.0292" y="-135.914" width="399.694" height="343.828" filterUnits="userSpaceOnUse" color-interpolation-filters="sRGB">
<feFlood flood-opacity="0" result="BackgroundImageFix"/>
<feGaussianBlur in="BackgroundImageFix" stdDeviation="67.957"/>
<feComposite in2="SourceAlpha" operator="in" result="effect1_backgroundBlur_54_1728"/>
<feBlend mode="normal" in="SourceGraphic" in2="effect1_backgroundBlur_54_1728" result="shape"/>
</filter>
<filter id="filter2_b_54_1728" x="-48.0062" y="-103.914" width="376.718" height="465.828" filterUnits="userSpaceOnUse" color-interpolation-filters="sRGB">
<feFlood flood-opacity="0" result="BackgroundImageFix"/>
<feGaussianBlur in="BackgroundImageFix" stdDeviation="67.957"/>
<feComposite in2="SourceAlpha" operator="in" result="effect1_backgroundBlur_54_1728"/>
<feBlend mode="normal" in="SourceGraphic" in2="effect1_backgroundBlur_54_1728" result="shape"/>
</filter>
</defs>
</svg>
