<svg width="332" height="337" viewBox="0 0 332 337" fill="none" xmlns="http://www.w3.org/2000/svg">
<path opacity="0.5" fill-rule="evenodd" clip-rule="evenodd" d="M0 228.88L145.25 141L332 251.783L187.814 337L0 228.88Z" fill="#171717" fill-opacity="0.7"/>
<g filter="url(#filter0_b_54_1732)">
<path fill-rule="evenodd" clip-rule="evenodd" d="M91.8045 47.0254L72.9236 36L134.859 0L194.796 35L175.915 45.9746L194.796 57L175.915 67.9746L194.796 79L175.915 89.9746L194.796 101L175.915 111.975L194.796 123L175.941 133.96L249.738 177L230.846 187.981L249.738 199L230.846 209.981L249.738 221L230.846 231.981L249.738 243L187.803 279L72.9236 212L91.8163 201.019L72.9236 190L91.8163 179.019L72.9236 168L91.8163 157.019L72.9236 146L91.8045 135.025L72.9236 124L91.8045 113.025L72.9236 102L91.8045 91.0254L72.9236 80L91.8045 69.0254L72.9236 58L91.8045 47.0254Z" fill="#171717" fill-opacity="0.7"/>
</g>
<g filter="url(#filter1_b_54_1732)">
<path fill-rule="evenodd" clip-rule="evenodd" d="M132.861 42.7273L98.8964 23V34.2727L132.861 54V42.7273ZM72.9236 36L132.861 71V91L72.9236 56V36ZM132.861 93L72.9236 58V78L132.861 113V93ZM72.9236 80L132.861 115V135L72.9236 100V80ZM132.861 137L72.9236 102V122L132.861 157V137ZM72.9236 124L132.861 159V179L72.9236 144V124ZM187.803 213L72.9236 146V166L187.803 233V213ZM72.9236 168L187.803 235V255L72.9236 188V168ZM187.803 257L72.9236 190V210L187.803 277V257ZM187.803 279L72.9236 212V232L187.803 299V279Z" fill="#171717" fill-opacity="0.8"/>
</g>
<path fill-rule="evenodd" clip-rule="evenodd" d="M132.861 42.5714L167.824 22V33.4286L132.861 54V42.5714ZM194.796 35L132.861 71V91L194.796 55V35ZM132.861 93L194.796 57V77L132.861 113V93ZM194.796 79L132.861 115V135L194.796 99V79ZM132.861 137L194.796 101V121L132.861 157V137ZM194.796 123L132.861 159V179L194.796 143V123ZM187.803 213L249.738 177V197L187.803 233V213ZM249.738 199L187.803 235V255L249.738 219V199ZM187.803 257L249.738 221V241L187.803 277V257ZM187.803 279L249.738 243V263L187.803 299V279Z" fill="#171717"/>
<path fill-rule="evenodd" clip-rule="evenodd" d="M81.9142 46L85.91 48.1613V57.75L81.9142 55.5887V46ZM105.656 238.75L120.873 247.563V259.75L105.656 250.937V238.75ZM154.838 267.313L139.853 258.5V270.687L154.838 279.5V267.313ZM109.885 62.5556L113.881 64.7168V74.3056L109.885 72.1443V62.5556ZM81.9142 200L85.91 202.161V211.75L81.9142 209.589V200ZM109.885 216.556L113.881 218.717V228.306L109.885 226.144V216.556ZM150.842 240.272L146.846 238.111V247.7L150.842 249.861V240.272ZM95.8995 208.278L99.8953 210.439V220.028L95.8995 217.866V208.278ZM164.827 248.55L160.831 246.389V255.978L164.827 258.139V248.55ZM88.9069 204.139L92.9027 206.3V215.889L88.9069 213.728V204.139ZM120.873 222.856L116.878 220.694V230.283L120.873 232.444V222.856ZM153.839 242.25L157.835 244.411V254L153.839 251.839V242.25ZM106.888 214.578L102.892 212.417V222.005L106.888 224.167V214.578ZM139.853 233.972L143.849 236.134V245.722L139.853 243.561V233.972ZM171.82 252.689L167.824 250.528V260.116L171.82 262.278V252.689ZM174.817 254.667L178.813 256.828V266.417L174.817 264.255V254.667ZM88.9069 182.139L92.9027 184.3V193.889L88.9069 191.728V182.139ZM81.9142 156L85.91 158.161V167.75L81.9142 165.589V156ZM109.885 172.556L113.881 174.717V184.306L109.885 182.144V172.556ZM150.842 196.272L146.846 194.111V203.7L150.842 205.861V196.272ZM95.8995 164.278L99.8953 166.439V176.028L95.8995 173.866V164.278ZM164.827 204.55L160.831 202.389V211.978L164.827 214.139V204.55ZM88.9069 160.139L92.9027 162.3V171.889L88.9069 169.728V160.139ZM120.873 178.856L116.878 176.694V186.283L120.873 188.444V178.856ZM153.839 198.25L157.835 200.411V210L153.839 207.839V198.25ZM106.888 170.578L102.892 168.417V178.005L106.888 180.167V170.578ZM139.853 189.972L143.849 192.134V201.722L139.853 199.561V189.972ZM171.82 208.689L167.824 206.528V216.116L171.82 218.278V208.689ZM174.817 210.667L178.813 212.828V222.417L174.817 220.255V210.667ZM95.8995 54.2778L99.8953 56.4391V66.0278L95.8995 63.8665V54.2778ZM81.9142 134L85.91 136.161V145.75L81.9142 143.589V134ZM109.885 150.556L113.881 152.717V162.306L109.885 160.144V150.556ZM99.8953 144.439L95.8995 142.278V151.866L99.8953 154.028V144.439ZM88.9069 138.139L92.9027 140.3V149.889L88.9069 147.728V138.139ZM120.873 156.856L116.878 154.694V164.283L120.873 166.444V156.856ZM102.892 146.417L106.888 148.578V158.167L102.892 156.005V146.417ZM102.892 190.417L106.888 192.578V202.167L102.892 200.005V190.417ZM81.9142 112L85.91 114.161V123.75L81.9142 121.589V112ZM109.885 128.556L113.881 130.717V140.306L109.885 138.144V128.556ZM99.8953 122.439L95.8995 120.278V129.866L99.8953 132.028V122.439ZM88.9069 116.139L92.9027 118.3V127.889L88.9069 125.728V116.139ZM120.873 134.856L116.878 132.694V142.283L120.873 144.444V134.856ZM102.892 124.417L106.888 126.578V136.167L102.892 134.005V124.417ZM88.9069 50.1389L92.9027 52.3002V61.8889L88.9069 59.7276V50.1389ZM81.9142 90L85.91 92.1613V101.75L81.9142 99.5887V90ZM109.885 106.556L113.881 108.717V118.306L109.885 116.144V106.556ZM99.8953 100.439L95.8995 98.2778V107.866L99.8953 110.028V100.439ZM88.9069 94.1389L92.9027 96.3002V105.889L88.9069 103.728V94.1389ZM120.873 112.856L116.878 110.694V120.283L120.873 122.444V112.856ZM102.892 102.417L106.888 104.578V114.167L102.892 112.005V102.417ZM116.878 66.6944L120.873 68.8557V78.4444L116.878 76.2832V66.6944ZM81.9142 68L85.91 70.1613V79.75L81.9142 77.5887V68ZM109.885 84.5556L113.881 86.7168V96.3056L109.885 94.1443V84.5556ZM99.8953 78.4391L95.8995 76.2778V85.8665L99.8953 88.0278V78.4391ZM88.9069 72.1389L92.9027 74.3002V83.8889L88.9069 81.7276V72.1389ZM120.873 90.8557L116.878 88.6944V98.2832L120.873 100.444V90.8557ZM102.892 80.4167L106.888 82.578V92.1667L102.892 90.0054V80.4167ZM95.8995 186.278L99.8953 188.439V198.028L95.8995 195.867V186.278ZM102.892 58.4167L106.888 60.578V70.1667L102.892 68.0054V58.4167ZM85.91 180.161L81.9142 178V187.589L85.91 189.75V180.161ZM109.885 194.556L113.881 196.717V206.306L109.885 204.144V194.556ZM120.873 200.856L116.878 198.695V208.283L120.873 210.445V200.856ZM146.846 215.139L150.842 217.3V226.889L146.846 224.727V215.139ZM164.827 225.578L160.831 223.417V233.006L164.827 235.167V225.578ZM153.839 219.278L157.835 221.439V231.028L153.839 228.867V219.278ZM143.849 213.161L139.853 211V220.589L143.849 222.75V213.161ZM167.824 227.556L171.82 229.717V239.306L167.824 237.144V227.556ZM178.813 233.856L174.817 231.694V241.283L178.813 243.444V233.856Z" fill="white"/>
<defs>
<filter id="filter0_b_54_1732" x="-62.9905" y="-135.914" width="448.643" height="550.828" filterUnits="userSpaceOnUse" color-interpolation-filters="sRGB">
<feFlood flood-opacity="0" result="BackgroundImageFix"/>
<feGaussianBlur in="BackgroundImageFix" stdDeviation="67.957"/>
<feComposite in2="SourceAlpha" operator="in" result="effect1_backgroundBlur_54_1732"/>
<feBlend mode="normal" in="SourceGraphic" in2="effect1_backgroundBlur_54_1732" result="shape"/>
</filter>
<filter id="filter1_b_54_1732" x="-62.9905" y="-112.914" width="386.708" height="547.828" filterUnits="userSpaceOnUse" color-interpolation-filters="sRGB">
<feFlood flood-opacity="0" result="BackgroundImageFix"/>
<feGaussianBlur in="BackgroundImageFix" stdDeviation="67.957"/>
<feComposite in2="SourceAlpha" operator="in" result="effect1_backgroundBlur_54_1732"/>
<feBlend mode="normal" in="SourceGraphic" in2="effect1_backgroundBlur_54_1732" result="shape"/>
</filter>
</defs>
</svg>
