<svg width="332" height="321" viewBox="0 0 332 321" fill="none" xmlns="http://www.w3.org/2000/svg">
<path opacity="0.5" fill-rule="evenodd" clip-rule="evenodd" d="M0 212.88L145.25 125L332 235.783L187.814 321L0 212.88Z" fill="#171717" fill-opacity="0.7"/>
<g filter="url(#filter0_b_54_1730)">
<path fill-rule="evenodd" clip-rule="evenodd" d="M110.506 41.9951L94.9006 33L152.091 0L242.746 52L227.042 60.9924L242.746 70L227.042 78.9924L242.746 88L227.042 96.9924L242.746 106L227.042 114.992L242.746 124L227.042 132.992L242.746 142L227.042 150.992L242.746 160L227.042 168.992L242.746 178L227.042 186.992L242.746 196L225.708 205.756L242.746 214L185.117 247L94.9006 194.311L109.843 185.613L94.9006 177L110.506 167.995L94.9006 159L110.506 149.995L94.9006 141L110.506 131.995L94.9006 123L110.506 113.995L94.9006 105L110.506 95.9951L94.9006 87L110.506 77.9951L94.9006 69L110.506 59.9951L94.9006 51L110.506 41.9951Z" fill="#171717" fill-opacity="0.7"/>
</g>
<g filter="url(#filter1_b_54_1730)">
<path fill-rule="evenodd" clip-rule="evenodd" d="M184.806 85L94.9006 33V48.6322L184.806 101V85ZM94.9006 51L184.806 103V119L94.9006 66.6322V51ZM184.806 121L94.9006 69V84.6322L184.806 137V121ZM94.9006 87L184.806 139V155L94.9006 102.632V87ZM184.806 157L94.9006 105V120.632L184.806 173V157ZM94.9006 123L184.806 175V191L94.9006 138.632V123ZM184.806 193L94.9006 141V156.632L184.806 209V193ZM94.9006 159L184.806 211V227L94.9006 174.632V159ZM184.806 229L94.9006 177V192.632L184.806 245V229ZM184.806 246.689L94.9006 194V222.311L184.806 275V246.689Z" fill="#171717" fill-opacity="0.8"/>
</g>
<path fill-rule="evenodd" clip-rule="evenodd" d="M184.806 85L242.746 52V68L184.806 101V85ZM242.746 70L184.806 103V119L242.746 86V70ZM184.806 121L242.746 88V104L184.806 137V121ZM242.746 106L184.806 139V155L242.746 122V106ZM184.806 157L242.746 124V140L184.806 173V157ZM242.746 142L184.806 175V191L242.746 158V142ZM184.806 193L242.746 160V176L184.806 209V193ZM242.746 178L184.806 211V227L242.746 194V178ZM184.806 229L242.746 196V212L184.806 245V229ZM184.806 247L242.746 214V242L184.806 275V247Z" fill="#171717"/>
<path fill-rule="evenodd" clip-rule="evenodd" d="M101.031 40.6615L97.8975 39V46.3712L101.031 48.0326V40.6615ZM127.957 56.3389L124.824 54.6775V62.0487L127.957 63.7101V56.3389ZM151.75 70.355L154.883 72.0164V79.3876L151.75 77.7261V70.355ZM114.494 48.5006L111.361 46.8391V54.2103L114.494 55.8717V48.5006ZM138.287 62.5166L141.42 64.1781V71.5492L138.287 69.8878V62.5166ZM168.346 79.8553L165.213 78.1938V85.565L168.346 87.2265V79.8553ZM104.629 42.9194L107.762 44.5809V51.952L104.629 50.2906V42.9194ZM134.688 60.2584L131.555 58.5969V65.9681L134.688 67.6295V60.2584ZM158.482 74.2744L161.615 75.9359V83.307L158.482 81.6456V74.2744ZM121.225 52.4193L118.092 50.7578V58.129L121.225 59.7904V52.4193ZM145.019 66.4358L148.152 68.0972V75.4684L145.019 73.8069V66.4358ZM175.078 83.775L171.945 82.1135V89.4847L175.078 91.1461V83.775ZM178.676 86.033L181.81 87.6944V95.0656L178.676 93.4041V86.033ZM189.665 86.6944L192.798 85.033V92.4041L189.665 94.0656V86.6944ZM210.779 74.8035L207.646 76.4649V83.8361L210.779 82.1746V74.8035ZM225.627 66.2354L228.76 64.574V71.9451L225.627 73.6066V66.2354ZM201.789 79.918L198.656 81.5794V88.9506L201.789 87.2891V79.918ZM216.637 71.3502L219.77 69.6887V77.0599L216.637 78.7213V71.3502ZM237.751 59.4592L234.618 61.1207V68.4918L237.751 66.8304V59.4592ZM97.8975 57L101.031 58.6615V66.0326L97.8975 64.3712V57ZM124.824 72.6775L127.957 74.3389V81.7101L124.824 80.0487V72.6775ZM154.883 90.0164L151.75 88.355V95.7261L154.883 97.3876V90.0164ZM111.361 64.8391L114.494 66.5006V73.8717L111.361 72.2103V64.8391ZM141.42 82.1781L138.287 80.5166V87.8878L141.42 89.5492V82.1781ZM165.213 96.1938L168.346 97.8553V105.226L165.213 103.565V96.1938ZM107.762 62.5809L104.629 60.9194V68.2906L107.762 69.952V62.5809ZM131.555 76.5969L134.688 78.2584V85.6295L131.555 83.9681V76.5969ZM161.615 93.9359L158.482 92.2744V99.6456L161.615 101.307V93.9359ZM118.092 68.7578L121.225 70.4193V77.7904L118.092 76.129V68.7578ZM148.152 86.0972L145.019 84.4358V91.8069L148.152 93.4684V86.0972ZM171.945 100.114L175.078 101.775V109.146L171.945 107.485V100.114ZM181.81 105.694L178.676 104.033V111.404L181.81 113.066V105.694ZM192.798 103.033L189.665 104.694V112.066L192.798 110.404V103.033ZM207.646 94.4649L210.779 92.8035V100.175L207.646 101.836V94.4649ZM228.76 82.574L225.627 84.2354V91.6066L228.76 89.9451V82.574ZM198.656 99.5794L201.789 97.918V105.289L198.656 106.951V99.5794ZM219.77 87.6887L216.637 89.3502V96.7213L219.77 95.0599V87.6887ZM234.618 79.1207L237.751 77.4592V84.8304L234.618 86.4918V79.1207ZM97.8975 75L101.031 76.6615V84.0326L97.8975 82.3712V75ZM124.824 90.6775L127.957 92.3389V99.7101L124.824 98.0487V90.6775ZM154.883 108.016L151.75 106.355V113.726L154.883 115.388V108.016ZM111.361 82.8391L114.494 84.5006V91.8717L111.361 90.2103V82.8391ZM141.42 100.178L138.287 98.5166V105.888L141.42 107.549V100.178ZM165.213 114.194L168.346 115.855V123.226L165.213 121.565V114.194ZM107.762 80.5809L104.629 78.9194V86.2906L107.762 87.952V80.5809ZM131.555 94.5969L134.688 96.2584V103.63L131.555 101.968V94.5969ZM161.615 111.936L158.482 110.274V117.646L161.615 119.307V111.936ZM118.092 86.7578L121.225 88.4193V95.7904L118.092 94.129V86.7578ZM148.152 104.097L145.019 102.436V109.807L148.152 111.468V104.097ZM171.945 118.114L175.078 119.775V127.146L171.945 125.485V118.114ZM181.81 123.694L178.676 122.033V129.404L181.81 131.066V123.694ZM192.798 121.033L189.665 122.694V130.066L192.798 128.404V121.033ZM207.646 112.465L210.779 110.803V118.175L207.646 119.836V112.465ZM228.76 100.574L225.627 102.235V109.607L228.76 107.945V100.574ZM198.656 117.579L201.789 115.918V123.289L198.656 124.951V117.579ZM219.77 105.689L216.637 107.35V114.721L219.77 113.06V105.689ZM234.618 97.1207L237.751 95.4592V102.83L234.618 104.492V97.1207ZM97.8975 93L101.031 94.6615V102.033L97.8975 100.371V93ZM124.824 108.677L127.957 110.339V117.71L124.824 116.049V108.677ZM154.883 126.016L151.75 124.355V131.726L154.883 133.388V126.016ZM111.361 100.839L114.494 102.501V109.872L111.361 108.21V100.839ZM141.42 118.178L138.287 116.517V123.888L141.42 125.549V118.178ZM165.213 132.194L168.346 133.855V141.226L165.213 139.565V132.194ZM107.762 98.5809L104.629 96.9194V104.291L107.762 105.952V98.5809ZM131.555 112.597L134.688 114.258V121.63L131.555 119.968V112.597ZM161.615 129.936L158.482 128.274V135.646L161.615 137.307V129.936ZM118.092 104.758L121.225 106.419V113.79L118.092 112.129V104.758ZM148.152 122.097L145.019 120.436V127.807L148.152 129.468V122.097ZM171.945 136.114L175.078 137.775V145.146L171.945 143.485V136.114ZM181.81 141.694L178.676 140.033V147.404L181.81 149.066V141.694ZM192.798 139.033L189.665 140.694V148.066L192.798 146.404V139.033ZM207.646 130.465L210.779 128.803V136.175L207.646 137.836V130.465ZM228.76 118.574L225.627 120.235V127.607L228.76 125.945V118.574ZM198.656 135.579L201.789 133.918V141.289L198.656 142.951V135.579ZM219.77 123.689L216.637 125.35V132.721L219.77 131.06V123.689ZM234.618 115.121L237.751 113.459V120.83L234.618 122.492V115.121ZM101.031 112.661L97.8975 111V118.371L101.031 120.033V112.661ZM127.957 128.339L124.824 126.677V134.049L127.957 135.71V128.339ZM151.75 142.355L154.883 144.016V151.388L151.75 149.726V142.355ZM114.494 120.501L111.361 118.839V126.21L114.494 127.872V120.501ZM138.287 134.517L141.42 136.178V143.549L138.287 141.888V134.517ZM168.346 151.855L165.213 150.194V157.565L168.346 159.226V151.855ZM104.629 114.919L107.762 116.581V123.952L104.629 122.291V114.919ZM134.688 132.258L131.555 130.597V137.968L134.688 139.63V132.258ZM158.482 146.274L161.615 147.936V155.307L158.482 153.646V146.274ZM121.225 124.419L118.092 122.758V130.129L121.225 131.79V124.419ZM145.019 138.436L148.152 140.097V147.468L145.019 145.807V138.436ZM175.078 155.775L171.945 154.114V161.485L175.078 163.146V155.775ZM178.676 158.033L181.81 159.694V167.066L178.676 165.404V158.033ZM189.665 158.694L192.798 157.033V164.404L189.665 166.066V158.694ZM210.779 146.803L207.646 148.465V155.836L210.779 154.175V146.803ZM225.627 138.235L228.76 136.574V143.945L225.627 145.607V138.235ZM201.789 151.918L198.656 153.579V160.951L201.789 159.289V151.918ZM216.637 143.35L219.77 141.689V149.06L216.637 150.721V143.35ZM237.751 131.459L234.618 133.121V140.492L237.751 138.83V131.459ZM97.8975 147L101.031 148.661V156.033L97.8975 154.371V147ZM124.824 162.677L127.957 164.339V171.71L124.824 170.049V162.677ZM154.883 180.016L151.75 178.355V185.726L154.883 187.388V180.016ZM111.361 154.839L114.494 156.501V163.872L111.361 162.21V154.839ZM141.42 172.178L138.287 170.517V177.888L141.42 179.549V172.178ZM165.213 186.194L168.346 187.855V195.226L165.213 193.565V186.194ZM107.762 152.581L104.629 150.919V158.291L107.762 159.952V152.581ZM131.555 166.597L134.688 168.258V175.63L131.555 173.968V166.597ZM161.615 183.936L158.482 182.274V189.646L161.615 191.307V183.936ZM118.092 158.758L121.225 160.419V167.79L118.092 166.129V158.758ZM148.152 176.097L145.019 174.436V181.807L148.152 183.468V176.097ZM171.945 190.114L175.078 191.775V199.146L171.945 197.485V190.114ZM181.81 195.694L178.676 194.033V201.404L181.81 203.066V195.694ZM192.798 193.033L189.665 194.694V202.066L192.798 200.404V193.033ZM207.646 184.465L210.779 182.803V190.175L207.646 191.836V184.465ZM228.76 172.574L225.627 174.235V181.607L228.76 179.945V172.574ZM198.656 189.579L201.789 187.918V195.289L198.656 196.951V189.579ZM219.77 177.689L216.637 179.35V186.721L219.77 185.06V177.689ZM234.618 169.121L237.751 167.459V174.83L234.618 176.492V169.121ZM101.031 166.661L97.8975 165V172.371L101.031 174.033V166.661ZM127.957 182.339L124.824 180.677V188.049L127.957 189.71V182.339ZM151.75 196.355L154.883 198.016V205.388L151.75 203.726V196.355ZM114.494 174.501L111.361 172.839V180.21L114.494 181.872V174.501ZM138.287 188.517L141.42 190.178V197.549L138.287 195.888V188.517ZM168.346 205.855L165.213 204.194V211.565L168.346 213.226V205.855ZM104.629 168.919L107.762 170.581V177.952L104.629 176.291V168.919ZM134.688 186.258L131.555 184.597V191.968L134.688 193.63V186.258ZM158.482 200.274L161.615 201.936V209.307L158.482 207.646V200.274ZM121.225 178.419L118.092 176.758V184.129L121.225 185.79V178.419ZM145.019 192.436L148.152 194.097V201.468L145.019 199.807V192.436ZM175.078 209.775L171.945 208.114V215.485L175.078 217.146V209.775ZM178.676 212.033L181.81 213.694V221.066L178.676 219.404V212.033ZM189.665 212.694L192.798 211.033V218.404L189.665 220.066V212.694ZM210.779 200.803L207.646 202.465V209.836L210.779 208.175V200.803ZM225.627 192.235L228.76 190.574V197.945L225.627 199.607V192.235ZM201.789 205.918L198.656 207.579V214.951L201.789 213.289V205.918ZM216.637 197.35L219.77 195.689V203.06L216.637 204.721V197.35ZM237.751 185.459L234.618 187.121V194.492L237.751 192.83V185.459ZM97.8975 183L101.031 184.661V192.033L97.8975 190.371V183ZM124.824 198.677L127.957 200.339V207.71L124.824 206.049V198.677ZM154.883 216.016L151.75 214.355V221.726L154.883 223.388V216.016ZM111.361 190.839L114.494 192.501V199.872L111.361 198.21V190.839ZM141.42 208.178L138.287 206.517V213.888L141.42 215.549V208.178ZM165.213 222.194L168.346 223.855V231.226L165.213 229.565V222.194ZM107.762 188.581L104.629 186.919V194.291L107.762 195.952V188.581ZM131.555 202.597L134.688 204.258V211.63L131.555 209.968V202.597ZM161.615 219.936L158.482 218.274V225.646L161.615 227.307V219.936ZM118.092 194.758L121.225 196.419V203.79L118.092 202.129V194.758ZM148.152 212.097L145.019 210.436V217.807L148.152 219.468V212.097ZM171.945 226.114L175.078 227.775V235.146L171.945 233.485V226.114ZM181.81 231.694L178.676 230.033V237.404L181.81 239.066V231.694ZM192.798 229.033L189.665 230.694V238.066L192.798 236.404V229.033ZM207.646 220.465L210.779 218.803V226.175L207.646 227.836V220.465ZM228.76 208.574L225.627 210.235V217.607L228.76 215.945V208.574ZM198.656 225.579L201.789 223.918V231.289L198.656 232.951V225.579ZM219.77 213.689L216.637 215.35V222.721L219.77 221.06V213.689ZM234.618 205.121L237.751 203.459V210.83L234.618 212.492V205.121ZM101.031 130.661L97.8975 129V136.371L101.031 138.033V130.661ZM127.957 146.339L124.824 144.677V152.049L127.957 153.71V146.339ZM151.75 160.355L154.883 162.016V169.388L151.75 167.726V160.355ZM114.494 138.501L111.361 136.839V144.21L114.494 145.872V138.501ZM138.287 152.517L141.42 154.178V161.549L138.287 159.888V152.517ZM168.346 169.855L165.213 168.194V175.565L168.346 177.226V169.855ZM104.629 132.919L107.762 134.581V141.952L104.629 140.291V132.919ZM134.688 150.258L131.555 148.597V155.968L134.688 157.63V150.258ZM158.482 164.274L161.615 165.936V173.307L158.482 171.646V164.274ZM121.225 142.419L118.092 140.758V148.129L121.225 149.79V142.419ZM145.019 156.436L148.152 158.097V165.468L145.019 163.807V156.436ZM175.078 173.775L171.945 172.114V179.485L175.078 181.146V173.775ZM178.676 176.033L181.81 177.694V185.066L178.676 183.404V176.033ZM189.665 176.694L192.798 175.033V182.404L189.665 184.066V176.694ZM210.779 164.803L207.646 166.465V173.836L210.779 172.175V164.803ZM225.627 156.235L228.76 154.574V161.945L225.627 163.607V156.235ZM201.789 169.918L198.656 171.579V178.951L201.789 177.289V169.918ZM216.637 161.35L219.77 159.689V167.06L216.637 168.721V161.35ZM237.751 149.459L234.618 151.121V158.492L237.751 156.83V149.459Z" fill="white"/>
<defs>
<filter id="filter0_b_54_1730" x="-41.0135" y="-135.914" width="419.673" height="518.828" filterUnits="userSpaceOnUse" color-interpolation-filters="sRGB">
<feFlood flood-opacity="0" result="BackgroundImageFix"/>
<feGaussianBlur in="BackgroundImageFix" stdDeviation="67.957"/>
<feComposite in2="SourceAlpha" operator="in" result="effect1_backgroundBlur_54_1730"/>
<feBlend mode="normal" in="SourceGraphic" in2="effect1_backgroundBlur_54_1730" result="shape"/>
</filter>
<filter id="filter1_b_54_1730" x="-41.0135" y="-102.914" width="361.734" height="513.828" filterUnits="userSpaceOnUse" color-interpolation-filters="sRGB">
<feFlood flood-opacity="0" result="BackgroundImageFix"/>
<feGaussianBlur in="BackgroundImageFix" stdDeviation="67.957"/>
<feComposite in2="SourceAlpha" operator="in" result="effect1_backgroundBlur_54_1730"/>
<feBlend mode="normal" in="SourceGraphic" in2="effect1_backgroundBlur_54_1730" result="shape"/>
</filter>
</defs>
</svg>
