<svg width="332" height="347" viewBox="0 0 332 347" fill="none" xmlns="http://www.w3.org/2000/svg">
<path opacity="0.5" fill-rule="evenodd" clip-rule="evenodd" d="M0 238.88L145.25 151L332 261.783L187.814 347L0 238.88Z" fill="#171717" fill-opacity="0.7"/>
<g filter="url(#filter0_b_54_1726)">
<path fill-rule="evenodd" clip-rule="evenodd" d="M80.8278 47.0186L61.9351 36L123.87 0L238.75 67L219.857 77.9814L238.75 89L219.857 99.9814L238.75 111L219.857 121.981L238.75 133L219.857 143.981L238.75 155L219.857 165.981L238.75 177L219.857 187.981L238.75 199L218.998 210.481L238.75 222L176.815 258L61.9351 191L81.6865 179.519L61.9351 168L80.8278 157.019L61.9351 146L80.8278 135.019L61.9351 124L80.8278 113.019L61.9351 102L80.8278 91.0186L61.9351 80L80.8278 69.0186L61.9351 58L80.8278 47.0186Z" fill="#171717" fill-opacity="0.7"/>
</g>
<g filter="url(#filter1_b_54_1726)">
<path fill-rule="evenodd" clip-rule="evenodd" d="M169.822 81.8174L81.9142 30.5479V39.7305L169.822 91V81.8174ZM61.9351 36L176.815 103V123L61.9351 56V36ZM176.815 125L61.9351 58V78L176.815 145V125ZM61.9351 80L176.815 147V167L61.9351 100V80ZM176.815 169L61.9351 102V122L176.815 189V169ZM61.9351 124L176.815 191V211L61.9351 144V124ZM176.815 213L61.9351 146V166L176.815 233V213ZM61.9351 168L176.815 235V255L61.9351 188V168ZM61.9351 191L176.815 258V294L61.9351 227V191Z" fill="#171717" fill-opacity="0.8"/>
</g>
<path fill-rule="evenodd" clip-rule="evenodd" d="M75.9205 49.6613L71.9246 47.5V57.0887L75.9205 59.25V49.6613ZM103.891 66.2168L99.8953 64.0556V73.6443L103.891 75.8056V66.2168ZM127.866 80.6111L131.862 82.7724V92.3611L127.866 90.1998V80.6111ZM89.9058 57.9391L85.91 55.7778V65.3665L89.9058 67.5278V57.9391ZM113.881 72.3333L117.877 74.4946V84.0833L113.881 81.922V72.3333ZM145.847 91.0502L141.851 88.8889V98.4776L145.847 100.639V91.0502ZM78.9173 51.6389L82.9131 53.8002V63.3889L78.9173 61.2276V51.6389ZM110.884 70.3557L106.888 68.1944V77.7832L110.884 79.9444V70.3557ZM134.859 84.75L138.855 86.9113V96.5L134.859 94.3387V84.75ZM96.8985 62.078L92.9027 59.9167V69.5054L96.8985 71.6667V62.078ZM120.873 76.4722L124.869 78.6335V88.2222L120.873 86.0609V76.4722ZM152.84 95.1891L148.844 93.0278V102.616L152.84 104.778V95.1891ZM155.837 97.1667L159.833 99.328V108.917L155.837 106.755V97.1667ZM71.9246 69.5L75.9205 71.6613V81.25L71.9246 79.0887V69.5ZM99.8953 86.0556L103.891 88.2168V97.8056L99.8953 95.6443V86.0556ZM131.862 104.772L127.866 102.611V112.2L131.862 114.361V104.772ZM85.91 77.7778L89.9058 79.9391V89.5278L85.91 87.3665V77.7778ZM117.877 96.4946L113.881 94.3333V103.922L117.877 106.083V96.4946ZM141.851 110.889L145.847 113.05V122.639L141.851 120.478V110.889ZM82.9131 75.8002L78.9173 73.6389V83.2276L82.9131 85.3889V75.8002ZM106.888 90.1944L110.884 92.3557V101.944L106.888 99.7832V90.1944ZM138.855 108.911L134.859 106.75V116.339L138.855 118.5V108.911ZM92.9027 81.9167L96.8985 84.078V93.6667L92.9027 91.5054V81.9167ZM124.869 100.634L120.873 98.4722V108.061L124.869 110.222V100.634ZM148.844 115.028L152.84 117.189V126.778L148.844 124.616V115.028ZM159.833 121.328L155.837 119.167V128.755L159.833 130.917V121.328ZM75.9205 93.6613L71.9246 91.5V101.089L75.9205 103.25V93.6613ZM103.891 110.217L99.8953 108.056V117.644L103.891 119.806V110.217ZM127.866 124.611L131.862 126.772V136.361L127.866 134.2V124.611ZM89.9058 101.939L85.91 99.7778V109.366L89.9058 111.528V101.939ZM113.881 116.333L117.877 118.495V128.083L113.881 125.922V116.333ZM145.847 135.05L141.851 132.889V142.478L145.847 144.639V135.05ZM78.9173 95.6389L82.9131 97.8002V107.389L78.9173 105.228V95.6389ZM110.884 114.356L106.888 112.194V121.783L110.884 123.944V114.356ZM134.859 128.75L138.855 130.911V140.5L134.859 138.339V128.75ZM96.8985 106.078L92.9027 103.917V113.505L96.8985 115.667V106.078ZM120.873 120.472L124.869 122.634V132.222L120.873 130.061V120.472ZM152.84 139.189L148.844 137.028V146.616L152.84 148.778V139.189ZM155.837 141.167L159.833 143.328V152.917L155.837 150.755V141.167ZM71.9246 113.5L75.9205 115.661V125.25L71.9246 123.089V113.5ZM99.8953 130.056L103.891 132.217V141.806L99.8953 139.644V130.056ZM131.862 148.772L127.866 146.611V156.2L131.862 158.361V148.772ZM85.91 121.778L89.9058 123.939V133.528L85.91 131.366V121.778ZM117.877 140.495L113.881 138.333V147.922L117.877 150.083V140.495ZM141.851 154.889L145.847 157.05V166.639L141.851 164.478V154.889ZM82.9131 119.8L78.9173 117.639V127.228L82.9131 129.389V119.8ZM106.888 134.194L110.884 136.356V145.944L106.888 143.783V134.194ZM138.855 152.911L134.859 150.75V160.339L138.855 162.5V152.911ZM92.9027 125.917L96.8985 128.078V137.667L92.9027 135.505V125.917ZM124.869 144.634L120.873 142.472V152.061L124.869 154.222V144.634ZM148.844 159.028L152.84 161.189V170.778L148.844 168.616V159.028ZM159.833 165.328L155.837 163.167V172.755L159.833 174.917V165.328ZM75.9205 137.661L71.9246 135.5V145.089L75.9205 147.25V137.661ZM103.891 154.217L99.8953 152.056V161.644L103.891 163.806V154.217ZM127.866 168.611L131.862 170.772V180.361L127.866 178.2V168.611ZM89.9058 145.939L85.91 143.778V153.366L89.9058 155.528V145.939ZM113.881 160.333L117.877 162.495V172.083L113.881 169.922V160.333ZM145.847 179.05L141.851 176.889V186.478L145.847 188.639V179.05ZM78.9173 139.639L82.9131 141.8V151.389L78.9173 149.228V139.639ZM110.884 158.356L106.888 156.194V165.783L110.884 167.944V158.356ZM134.859 172.75L138.855 174.911V184.5L134.859 182.339V172.75ZM96.8985 150.078L92.9027 147.917V157.505L96.8985 159.667V150.078ZM120.873 164.472L124.869 166.634V176.222L120.873 174.061V164.472ZM152.84 183.189L148.844 181.028V190.616L152.84 192.778V183.189ZM155.837 185.167L159.833 187.328V196.917L155.837 194.755V185.167ZM71.9246 157.5L75.9205 159.661V169.25L71.9246 167.089V157.5ZM99.8953 174.056L103.891 176.217V185.806L99.8953 183.644V174.056ZM131.862 192.772L127.866 190.611V200.2L131.862 202.361V192.772ZM85.91 165.778L89.9058 167.939V177.528L85.91 175.366V165.778ZM117.877 184.495L113.881 182.333V191.922L117.877 194.083V184.495ZM141.851 198.889L145.847 201.05V210.639L141.851 208.478V198.889ZM82.9131 163.8L78.9173 161.639V171.228L82.9131 173.389V163.8ZM106.888 178.194L110.884 180.356V189.944L106.888 187.783V178.194ZM138.855 196.911L134.859 194.75V204.339L138.855 206.5V196.911ZM92.9027 169.917L96.8985 172.078V181.667L92.9027 179.505V169.917ZM124.869 188.634L120.873 186.472V196.061L124.869 198.222V188.634ZM148.844 203.028L152.84 205.189V214.778L148.844 212.616V203.028ZM159.833 209.328L155.837 207.167V216.755L159.833 218.917V209.328ZM75.9205 181.661L71.9246 179.5V189.089L75.9205 191.25V181.661ZM103.891 198.217L99.8953 196.056V205.644L103.891 207.806V198.217ZM127.866 212.611L131.862 214.772V224.361L127.866 222.2V212.611ZM89.9058 189.939L85.91 187.778V197.366L89.9058 199.528V189.939ZM113.881 204.333L117.877 206.495V216.083L113.881 213.922V204.333ZM145.847 223.05L141.851 220.889V230.478L145.847 232.639V223.05ZM78.9173 183.639L82.9131 185.8V195.389L78.9173 193.228V183.639ZM110.884 202.356L106.888 200.194V209.783L110.884 211.944V202.356ZM134.859 216.75L138.855 218.911V228.5L134.859 226.339V216.75ZM96.8985 194.078L92.9027 191.917V201.505L96.8985 203.667V194.078ZM120.873 208.472L124.869 210.634V220.222L120.873 218.061V208.472ZM152.84 227.189L148.844 225.028V234.616L152.84 236.778V227.189ZM155.837 229.167L159.833 231.328V240.917L155.837 238.755V229.167ZM87.9079 214L105.639 224.25V252.25L87.9079 242V214ZM126.867 237L144.848 247.183V275L126.867 264.817V237Z" fill="white"/>
<path fill-rule="evenodd" clip-rule="evenodd" d="M169.822 81.8174L217.216 54.2695V63.4521L169.822 91V81.8174ZM238.75 67L176.815 103V123L238.75 87V67ZM176.815 125L238.75 89V109L176.815 145V125ZM238.75 111L176.815 147V167L238.75 131V111ZM176.815 169L238.75 133V153L176.815 189V169ZM238.75 155L176.815 191V211L238.75 175V155ZM176.815 213L238.75 177V197L176.815 233V213ZM238.75 199L176.815 235V255L238.75 219V199ZM238.75 222L176.815 258V294L238.75 258V222Z" fill="#171717"/>
<path fill-rule="evenodd" clip-rule="evenodd" d="M225.436 141.605C215.919 158.106 200.457 167.006 190.901 161.483C181.345 155.96 181.314 138.106 190.831 121.605C200.348 105.104 215.809 96.2046 225.365 101.727C234.921 107.25 234.952 125.104 225.436 141.605ZM194.796 124.593V153.908C188.044 149.579 188.039 136.675 194.796 124.593ZM221.173 139.142C214.049 151.494 202.505 158.194 195.293 154.205L221.268 138.75V109.177C228.321 113.437 228.295 126.792 221.173 139.142ZM220.209 108.63L195.544 123.305C202.444 111.862 213.124 105.556 220.209 108.63ZM201.201 127.379L214.864 119.25V135.121L201.201 143.25V127.379Z" fill="white"/>
<g filter="url(#filter2_d_54_1726)">
<path d="M198.555 294.228L215.9 284.203L215.9 289.537L203.827 296.514L203.827 304.368L214.627 298.126L214.626 303.418L203.827 309.66L203.826 321.924L198.554 324.972L198.555 294.228ZM221.649 287.096C220.849 287.558 220.146 287.614 219.54 287.265C218.958 286.873 218.667 286.201 218.667 285.249C218.667 284.269 218.958 283.261 219.54 282.225C220.122 281.188 220.825 280.432 221.649 279.956C222.473 279.479 223.188 279.43 223.794 279.808C224.4 280.157 224.703 280.808 224.703 281.76C224.703 282.712 224.4 283.727 223.794 284.806C223.188 285.856 222.473 286.619 221.649 287.096ZM224.23 310.131L219.175 313.053L219.176 291.297L224.23 288.375L224.23 310.131ZM239.706 278.885C241.79 277.68 243.439 277.525 244.651 278.42C245.863 279.288 246.469 281.233 246.469 284.257L246.468 297.277L241.414 300.199L241.414 289.069C241.414 285.093 240.275 283.763 237.996 285.081C236.784 285.781 235.802 286.895 235.051 288.421C234.324 289.905 233.96 291.628 233.96 293.588L233.959 304.508L228.905 307.429L228.906 285.673L233.342 283.109C233.463 284.747 233.572 285.846 233.669 286.406C234.881 283.017 236.893 280.51 239.706 278.885ZM258.815 267.84C261.36 266.368 263.348 266.059 264.778 266.913C266.208 267.738 266.924 269.691 266.923 272.771L266.923 285.455L262.669 287.914C262.644 287.704 262.608 287.361 262.559 286.885C262.535 286.367 262.487 285.933 262.414 285.583C261.856 286.913 261.129 288.09 260.232 289.112C259.36 290.092 258.293 290.947 257.032 291.676C255.723 292.432 254.523 292.86 253.432 292.958C252.366 293.043 251.517 292.763 250.887 292.119C250.257 291.448 249.942 290.412 249.942 289.012C249.942 287.556 250.293 286.093 250.996 284.622C251.724 283.11 252.693 281.71 253.906 280.421C255.118 279.132 256.451 278.068 257.905 277.227C259.215 276.47 260.56 275.945 261.942 275.65C261.869 272.472 260.681 271.549 258.378 272.88C256.536 273.945 255.19 275.674 254.342 278.069L250.742 277.756C251.421 275.739 252.463 273.863 253.869 272.126C255.275 270.361 256.924 268.933 258.815 267.84ZM261.942 279.514C260.729 279.879 259.675 280.32 258.778 280.839C257.59 281.525 256.669 282.31 256.014 283.192C255.36 284.046 255.033 284.921 255.033 285.817C255.033 286.629 255.287 287.112 255.796 287.266C256.329 287.406 257.008 287.238 257.832 286.761C258.923 286.131 259.881 285.227 260.705 284.051C261.529 282.846 261.942 281.614 261.942 280.354L261.942 279.514ZM279.848 273.406C281.303 272.565 282.467 271.067 283.339 268.91L287.194 269.286C286.588 271.261 285.63 273.046 284.321 274.643C283.012 276.239 281.521 277.521 279.848 278.488C278.176 279.455 276.612 279.924 275.158 279.897C273.703 279.842 272.527 279.219 271.63 278.03C270.734 276.812 270.285 275.014 270.285 272.634C270.285 270.226 270.734 267.908 271.631 265.682C272.528 263.427 273.704 261.446 275.158 259.737C276.613 258 278.176 256.649 279.849 255.682C281.522 254.715 283.013 254.273 284.322 254.357C285.631 254.44 286.588 255.119 287.194 256.392L283.34 261.224C282.491 260.091 281.328 259.951 279.849 260.806C278.54 261.563 277.485 262.746 276.685 264.356C275.909 265.925 275.522 267.675 275.521 269.607C275.521 271.511 275.921 272.806 276.721 273.491C277.521 274.177 278.564 274.149 279.848 273.406ZM297.886 245.257C299.559 244.29 301.037 243.869 302.322 243.995C303.631 244.078 304.637 244.7 305.34 245.862C306.067 246.982 306.431 248.55 306.431 250.566C306.431 251.462 306.358 252.414 306.213 253.422L293.704 260.652C293.922 262.15 294.431 263.087 295.231 263.465C296.031 263.815 297.025 263.646 298.213 262.959C299.061 262.469 299.813 261.825 300.467 261.026C301.146 260.186 301.667 259.227 302.031 258.149L305.74 258.525C305.231 260.415 304.249 262.215 302.794 263.923C301.364 265.618 299.764 266.977 297.994 268C296.297 268.98 294.722 269.457 293.267 269.43C291.813 269.403 290.637 268.78 289.74 267.563C288.867 266.331 288.431 264.497 288.431 262.061C288.431 259.653 288.868 257.343 289.74 255.131C290.637 252.904 291.801 250.944 293.231 249.249C294.662 247.554 296.213 246.223 297.886 245.257ZM297.74 250.087C296.746 250.661 295.898 251.516 295.195 252.65C294.492 253.784 294.019 255.08 293.777 256.536L301.267 252.206C301.17 250.918 300.795 250.113 300.14 249.792C299.51 249.428 298.71 249.526 297.74 250.087Z" fill="white"/>
</g>
<defs>
<filter id="filter0_b_54_1726" x="-73.979" y="-135.914" width="448.643" height="529.828" filterUnits="userSpaceOnUse" color-interpolation-filters="sRGB">
<feFlood flood-opacity="0" result="BackgroundImageFix"/>
<feGaussianBlur in="BackgroundImageFix" stdDeviation="67.957"/>
<feComposite in2="SourceAlpha" operator="in" result="effect1_backgroundBlur_54_1726"/>
<feBlend mode="normal" in="SourceGraphic" in2="effect1_backgroundBlur_54_1726" result="shape"/>
</filter>
<filter id="filter1_b_54_1726" x="-73.979" y="-105.366" width="386.708" height="535.28" filterUnits="userSpaceOnUse" color-interpolation-filters="sRGB">
<feFlood flood-opacity="0" result="BackgroundImageFix"/>
<feGaussianBlur in="BackgroundImageFix" stdDeviation="67.957"/>
<feComposite in2="SourceAlpha" operator="in" result="effect1_backgroundBlur_54_1726"/>
<feBlend mode="normal" in="SourceGraphic" in2="effect1_backgroundBlur_54_1726" result="shape"/>
</filter>
<filter id="filter2_d_54_1726" x="194.554" y="230.952" width="111.878" height="94.5245" filterUnits="userSpaceOnUse" color-interpolation-filters="sRGB">
<feFlood flood-opacity="0" result="BackgroundImageFix"/>
<feColorMatrix in="SourceAlpha" type="matrix" values="0 0 0 0 0 0 0 0 0 0 0 0 0 0 0 0 0 0 127 0" result="hardAlpha"/>
<feOffset dx="-4"/>
<feComposite in2="hardAlpha" operator="out"/>
<feColorMatrix type="matrix" values="0 0 0 0 0.0901961 0 0 0 0 0.0901961 0 0 0 0 0.0901961 0 0 0 1 0"/>
<feBlend mode="normal" in2="BackgroundImageFix" result="effect1_dropShadow_54_1726"/>
<feBlend mode="normal" in="SourceGraphic" in2="effect1_dropShadow_54_1726" result="shape"/>
</filter>
</defs>
</svg>
