<svg width="341" height="259" viewBox="0 0 341 259" fill="none" xmlns="http://www.w3.org/2000/svg">
<path opacity="0.5" fill-rule="evenodd" clip-rule="evenodd" d="M0 150.88L145.601 63L332.803 173.783L188.268 259L0 150.88Z" fill="#171717" fill-opacity="0.7"/>
<path fill-rule="evenodd" clip-rule="evenodd" d="M166.227 23L80.1095 73.1573V167L110.151 149.503V155L159.218 124.463V120.925L166.227 116.843V23ZM251.343 72L165.226 122V216L251.343 165.843V72Z" fill="#171717"/>
<g filter="url(#filter0_b_54_1689)">
<path fill-rule="evenodd" clip-rule="evenodd" d="M174.23 122L62.0848 56L160.822 0L273.374 65.0667L174.23 122ZM165.226 122L166.477 121.25L76.855 69.5L75.1026 70L165.226 122Z" fill="#171717" fill-opacity="0.7"/>
</g>
<g filter="url(#filter1_b_54_1689)">
<path fill-rule="evenodd" clip-rule="evenodd" d="M174.238 121.116L62.0848 56V60.8837L174.238 126V121.116ZM75.1026 70L165.226 122V216L82.0355 168.082L106.236 181.933V107.311L80.0184 92.3056V166.92L75.1026 164.089V70ZM160.31 138.133L111.152 110.15V154.356L160.31 182.339V138.133Z" fill="#171717" fill-opacity="0.8"/>
</g>
<path fill-rule="evenodd" clip-rule="evenodd" d="M273.373 65L174.238 121.184L174.238 126L273.373 69.8158V65Z" fill="#171717"/>
<g filter="url(#filter2_d_54_1689)">
<path d="M221.245 225.051L216.449 227.784L211.515 222.213L211.348 222.309L208.41 224.004L208.41 232.452L204.39 234.769L204.391 211.345L211.404 207.301C212.994 206.385 214.389 205.89 215.59 205.816C216.792 205.742 217.716 206.094 218.362 206.873C219.009 207.631 219.333 208.746 219.332 210.218C219.332 211.711 219 213.215 218.334 214.729C217.669 216.243 216.736 217.646 215.534 218.936L221.245 225.051ZM208.41 212.964L208.41 220.068L210.933 218.613C212.115 217.931 213.095 217.078 213.871 216.055C214.666 214.999 215.063 213.874 215.063 212.679C215.063 211.463 214.675 210.791 213.899 210.663C213.123 210.534 212.134 210.816 210.933 211.509L208.41 212.964ZM229.086 203.537C230.362 202.802 231.489 202.483 232.468 202.579C233.466 202.644 234.233 203.119 234.769 204.005C235.324 204.858 235.601 206.053 235.601 207.589C235.601 208.272 235.545 208.997 235.434 209.765L225.898 215.264C226.064 216.405 226.453 217.12 227.062 217.408C227.672 217.675 228.43 217.548 229.336 217.026C229.982 216.653 230.555 216.162 231.054 215.555C231.572 214.915 231.969 214.184 232.246 213.363L235.074 213.653C234.686 215.093 233.937 216.463 232.828 217.764C231.738 219.054 230.518 220.088 229.169 220.866C227.875 221.611 226.674 221.973 225.565 221.952C224.456 221.93 223.56 221.454 222.876 220.526C222.211 219.587 221.878 218.189 221.879 216.333C221.879 214.499 222.211 212.739 222.877 211.054C223.561 209.358 224.448 207.866 225.538 206.575C226.628 205.285 227.811 204.273 229.086 203.537ZM228.975 207.217C228.218 207.654 227.571 208.305 227.035 209.168C226.499 210.032 226.139 211.018 225.954 212.128L231.664 208.835C231.59 207.854 231.304 207.24 230.805 206.994C230.325 206.717 229.715 206.791 228.975 207.217ZM248.121 208.594C247.178 210.033 245.866 211.238 244.184 212.208C242.632 213.103 241.375 213.358 240.414 212.974C239.472 212.557 239 211.122 239.001 208.669L239.001 201.981L236.45 203.451L236.45 199.707L239.001 198.237L239.001 193.149L242.854 190.927L242.854 196.015L247.179 193.521L247.179 197.265L242.854 199.759L242.854 205.711C242.854 206.82 243.02 207.567 243.353 207.951C243.685 208.335 244.221 208.314 244.961 207.888C245.607 207.515 246.217 206.939 246.79 206.161L248.121 208.594ZM255.935 188.057C257.875 186.938 259.391 186.704 260.481 187.355C261.571 187.985 262.117 189.473 262.117 191.82L262.116 201.484L258.873 203.354C258.854 203.194 258.827 202.933 258.79 202.57C258.771 202.176 258.734 201.845 258.679 201.578C258.254 202.591 257.699 203.487 257.015 204.265C256.35 205.012 255.537 205.662 254.576 206.216C253.578 206.791 252.663 207.116 251.831 207.19C251.018 207.254 250.371 207.04 249.891 206.549C249.41 206.037 249.17 205.248 249.17 204.181C249.17 203.072 249.438 201.957 249.974 200.837C250.529 199.686 251.268 198.619 252.192 197.639C253.116 196.658 254.133 195.848 255.242 195.208C256.24 194.633 257.265 194.233 258.319 194.01C258.263 191.589 257.358 190.884 255.602 191.896C254.197 192.706 253.172 194.023 252.525 195.847L249.78 195.605C250.298 194.069 251.093 192.641 252.165 191.319C253.237 189.975 254.493 188.888 255.935 188.057ZM258.319 196.954C257.394 197.231 256.591 197.566 255.907 197.961C255.001 198.483 254.299 199.08 253.8 199.751C253.301 200.402 253.051 201.068 253.051 201.751C253.051 202.37 253.245 202.738 253.633 202.855C254.04 202.962 254.557 202.835 255.186 202.472C256.018 201.993 256.748 201.305 257.376 200.409C258.004 199.492 258.318 198.554 258.319 197.594L258.319 196.954ZM267.396 179.752C266.787 180.103 266.251 180.146 265.789 179.879C265.345 179.58 265.123 179.068 265.123 178.343C265.123 177.596 265.345 176.828 265.789 176.039C266.232 175.25 266.768 174.674 267.397 174.312C268.025 173.949 268.57 173.912 269.032 174.201C269.494 174.468 269.725 174.964 269.725 175.689C269.725 176.414 269.494 177.188 269.032 178.009C268.57 178.808 268.025 179.389 267.396 179.752ZM269.364 197.305L265.511 199.527L265.511 182.951L269.365 180.729L269.364 197.305ZM276.782 193.028L272.929 195.25L272.929 170.898L276.783 168.676L276.782 193.028ZM282.232 171.198C281.622 171.549 281.086 171.592 280.624 171.325C280.181 171.026 279.959 170.514 279.959 169.788C279.959 169.042 280.181 168.274 280.624 167.485C281.068 166.696 281.604 166.12 282.232 165.758C282.861 165.395 283.406 165.358 283.868 165.647C284.33 165.913 284.561 166.41 284.561 167.135C284.561 167.86 284.33 168.633 283.868 169.455C283.406 170.254 282.86 170.835 282.232 171.198ZM284.2 188.751L280.346 190.973L280.347 174.397L284.2 172.175L284.2 188.751ZM295.998 164.956C297.587 164.04 298.844 163.923 299.768 164.606C300.692 165.268 301.154 166.751 301.154 169.055L301.154 178.975L297.3 181.197L297.301 172.717C297.301 169.687 296.432 168.674 294.695 169.675C293.771 170.208 293.022 171.056 292.449 172.218C291.895 173.348 291.618 174.66 291.618 176.154L291.617 184.474L287.764 186.695L287.765 170.119L291.147 168.169C291.239 169.417 291.322 170.255 291.396 170.681C292.32 168.101 293.854 166.192 295.998 164.956ZM318.328 152.496L318.328 167.376C318.328 170.726 317.598 173.568 316.138 175.903C314.677 178.238 312.866 180.029 310.704 181.276C309.133 182.182 307.747 182.597 306.546 182.522C305.363 182.436 304.522 181.854 304.023 180.776L306.989 177.114C307.71 178.298 308.948 178.384 310.704 177.372C312.072 176.583 313.033 175.56 313.587 174.302C314.16 173.054 314.456 171.39 314.474 169.31C313.513 171.443 312.127 173.032 310.316 174.076C309.152 174.747 308.061 175.035 307.045 174.938C306.029 174.82 305.206 174.292 304.578 173.353C303.968 172.382 303.663 171.011 303.663 169.24C303.663 167.448 303.968 165.726 304.578 164.073C305.207 162.388 306.029 160.911 307.045 159.642C308.062 158.352 309.152 157.371 310.317 156.7C311.259 156.156 312.109 155.901 312.867 155.933C313.625 155.966 314.244 156.323 314.724 157.006C314.854 156.057 314.928 155.204 314.946 154.446L318.328 152.496ZM311.037 169.852C311.998 169.298 312.811 168.424 313.477 167.23C314.142 166.035 314.475 164.627 314.475 163.006C314.475 161.406 314.142 160.414 313.477 160.03C312.811 159.624 311.998 159.698 311.037 160.252C310.021 160.838 309.198 161.729 308.57 162.923C307.96 164.107 307.655 165.445 307.655 166.938C307.655 168.432 307.96 169.44 308.57 169.963C309.198 170.475 310.021 170.438 311.037 169.852Z" fill="white"/>
</g>
<defs>
<filter id="filter0_b_54_1689" x="-73.8293" y="-135.914" width="483.117" height="393.828" filterUnits="userSpaceOnUse" color-interpolation-filters="sRGB">
<feFlood flood-opacity="0" result="BackgroundImageFix"/>
<feGaussianBlur in="BackgroundImageFix" stdDeviation="67.957"/>
<feComposite in2="SourceAlpha" operator="in" result="effect1_backgroundBlur_54_1689"/>
<feBlend mode="normal" in="SourceGraphic" in2="effect1_backgroundBlur_54_1689" result="shape"/>
</filter>
<filter id="filter1_b_54_1689" x="-73.8293" y="-79.9141" width="383.981" height="431.828" filterUnits="userSpaceOnUse" color-interpolation-filters="sRGB">
<feFlood flood-opacity="0" result="BackgroundImageFix"/>
<feGaussianBlur in="BackgroundImageFix" stdDeviation="67.957"/>
<feComposite in2="SourceAlpha" operator="in" result="effect1_backgroundBlur_54_1689"/>
<feBlend mode="normal" in="SourceGraphic" in2="effect1_backgroundBlur_54_1689" result="shape"/>
</filter>
<filter id="filter2_d_54_1689" x="200.39" y="144.72" width="117.939" height="97.8569" filterUnits="userSpaceOnUse" color-interpolation-filters="sRGB">
<feFlood flood-opacity="0" result="BackgroundImageFix"/>
<feColorMatrix in="SourceAlpha" type="matrix" values="0 0 0 0 0 0 0 0 0 0 0 0 0 0 0 0 0 0 127 0" result="hardAlpha"/>
<feOffset dx="-4"/>
<feComposite in2="hardAlpha" operator="out"/>
<feColorMatrix type="matrix" values="0 0 0 0 0.0901961 0 0 0 0 0.0901961 0 0 0 0 0.0901961 0 0 0 1 0"/>
<feBlend mode="normal" in2="BackgroundImageFix" result="effect1_dropShadow_54_1689"/>
<feBlend mode="normal" in="SourceGraphic" in2="effect1_dropShadow_54_1689" result="shape"/>
</filter>
</defs>
</svg>
