<svg width="120" height="89" viewBox="0 0 120 89" fill="none" xmlns="http://www.w3.org/2000/svg">
<g filter="url(#filter0_b_53_1574)">
<ellipse cx="60" cy="35" rx="60" ry="35" fill="#03571F" fill-opacity="0.7"/>
</g>
<path fill-rule="evenodd" clip-rule="evenodd" d="M0 35C0 53.75 26.1905 70 60 70C88.75 70.1428 119.25 57 120 35C120 41.8959 120 50.9072 120 55.8956C120 58.352 119.451 60.7712 118.053 62.7912C112.802 70.3809 96.2264 89 60 89C23.7736 89 7.19837 70.3809 1.9467 62.7912C0.548938 60.7712 0 58.3578 0 55.9013C0 49.8141 0 38.1044 0 35Z" fill="#03571F"/>
<g filter="url(#filter1_d_53_1574)">
<path fill-rule="evenodd" clip-rule="evenodd" d="M100 11V26.75H92V20L78.25 27.75C78.25 27.75 74.75 29.25 71.25 29.25C67.75 29.25 63.75 27.75 63.75 27.75L53 21.5L59.25 17.5L67.75 22.25C67.75 22.25 69 23 71 23C73 23 75.25 21.5 75.25 21.5L85 16H73.25V11H100ZM21 57.25V41.5H29V48.25L42.75 40.5C42.75 40.5 46.25 39 49.75 39C53.25 39 57.25 40.5 57.25 40.5L68 46.75L61.75 50.75L53.25 46C53.25 46 52 45.25 50 45.25C48 45.25 45.75 46.75 45.75 46.75L36 52.25H47.75V57.25H21ZM21 11V26.5H29.25V19.5L41.25 26.5C41.25 26.5 42.25 27 42.25 27.75C42.25 28.5 40.75 29.25 40.75 29.25L32.5 34.25L39 38.25L50 31.5C50 31.5 51.5 30.25 51.5 28C51.5 25.75 49.5 24 49.5 24L36.25 15.75H47.75V11H21ZM99.5 41.75V57.25H72.75V52.5H84.25L71 44.25C71 44.25 69 42.5 69 40.25C69 38 70.5 36.75 70.5 36.75L81.5 30L88 34L79.75 39C79.75 39 78.25 39.75 78.25 40.5C78.25 41.25 79.25 41.75 79.25 41.75L91.25 48.75V41.75H99.5Z" fill="white"/>
</g>
<path d="M47.4588 82.032C47.4588 82.732 47.2768 83.32 46.9128 83.796C46.5582 84.2627 46.0915 84.608 45.5128 84.832C44.9435 85.056 44.3322 85.168 43.6788 85.168C42.7268 85.168 41.8682 84.9487 41.1028 84.51C40.3375 84.062 39.8288 83.432 39.5768 82.62L41.2288 81.682C41.4528 82.2047 41.7795 82.6107 42.2088 82.9C42.6382 83.1893 43.1515 83.334 43.7488 83.334C44.2342 83.334 44.6168 83.236 44.8968 83.04C45.1862 82.844 45.3308 82.5593 45.3308 82.186C45.3308 81.8873 45.2328 81.64 45.0368 81.444C44.8502 81.248 44.6122 81.094 44.3228 80.982C44.0428 80.87 43.6555 80.7393 43.1608 80.59C42.4982 80.394 41.9568 80.2027 41.5368 80.016C41.1168 79.82 40.7575 79.5307 40.4588 79.148C40.1602 78.7653 40.0108 78.2613 40.0108 77.636C40.0108 76.9733 40.1835 76.4133 40.5288 75.956C40.8835 75.4893 41.3455 75.144 41.9148 74.92C42.4935 74.6867 43.1142 74.57 43.7768 74.57C44.6822 74.57 45.4568 74.7753 46.1008 75.186C46.7448 75.5967 47.1602 76.152 47.3468 76.852L45.6948 77.79C45.5268 77.3513 45.2748 77.0107 44.9388 76.768C44.6028 76.516 44.1828 76.39 43.6788 76.39C43.2215 76.39 42.8482 76.4973 42.5588 76.712C42.2788 76.9173 42.1388 77.1927 42.1388 77.538C42.1388 77.7993 42.2275 78.0187 42.4048 78.196C42.5822 78.364 42.8062 78.504 43.0768 78.616C43.3568 78.7187 43.7302 78.84 44.1968 78.98C44.8688 79.176 45.4242 79.3767 45.8628 79.582C46.3015 79.778 46.6748 80.0767 46.9828 80.478C47.3002 80.87 47.4588 81.388 47.4588 82.032ZM48.338 79.862C48.338 78.7887 48.5527 77.8507 48.982 77.048C49.4113 76.2453 49.9947 75.634 50.732 75.214C51.4787 74.7847 52.3093 74.57 53.224 74.57C54.1387 74.57 54.9647 74.7847 55.702 75.214C56.4487 75.634 57.0367 76.2453 57.466 77.048C57.9047 77.8507 58.124 78.7887 58.124 79.862C58.124 80.9447 57.9047 81.8873 57.466 82.69C57.0367 83.4927 56.4487 84.1087 55.702 84.538C54.9647 84.958 54.1387 85.168 53.224 85.168C52.3093 85.168 51.4787 84.958 50.732 84.538C49.9947 84.1087 49.4113 83.4927 48.982 82.69C48.5527 81.8873 48.338 80.9447 48.338 79.862ZM50.48 79.862C50.48 80.5433 50.592 81.1453 50.816 81.668C51.0493 82.1907 51.3713 82.5967 51.782 82.886C52.202 83.166 52.6827 83.306 53.224 83.306C53.7653 83.306 54.2413 83.166 54.652 82.886C55.072 82.5967 55.394 82.1907 55.618 81.668C55.8513 81.1453 55.968 80.5433 55.968 79.862C55.968 79.1807 55.8513 78.5833 55.618 78.07C55.394 77.5473 55.072 77.146 54.652 76.866C54.2413 76.5767 53.7653 76.432 53.224 76.432C52.6827 76.432 52.202 76.5767 51.782 76.866C51.3713 77.146 51.0493 77.5473 50.816 78.07C50.592 78.5833 50.48 79.1807 50.48 79.862ZM61.8228 78.784H66.4428V74.752H68.4868V85H66.4428V80.59H61.8228V85H59.7928V74.752H61.8228V78.784ZM70.1583 79.862C70.1583 78.7887 70.373 77.8507 70.8023 77.048C71.2316 76.2453 71.815 75.634 72.5523 75.214C73.299 74.7847 74.1296 74.57 75.0443 74.57C75.959 74.57 76.785 74.7847 77.5223 75.214C78.269 75.634 78.857 76.2453 79.2863 77.048C79.725 77.8507 79.9443 78.7887 79.9443 79.862C79.9443 80.9447 79.725 81.8873 79.2863 82.69C78.857 83.4927 78.269 84.1087 77.5223 84.538C76.785 84.958 75.959 85.168 75.0443 85.168C74.1296 85.168 73.299 84.958 72.5523 84.538C71.815 84.1087 71.2316 83.4927 70.8023 82.69C70.373 81.8873 70.1583 80.9447 70.1583 79.862ZM72.3003 79.862C72.3003 80.5433 72.4123 81.1453 72.6363 81.668C72.8696 82.1907 73.1916 82.5967 73.6023 82.886C74.0223 83.166 74.503 83.306 75.0443 83.306C75.5856 83.306 76.0616 83.166 76.4723 82.886C76.8923 82.5967 77.2143 82.1907 77.4383 81.668C77.6716 81.1453 77.7883 80.5433 77.7883 79.862C77.7883 79.1807 77.6716 78.5833 77.4383 78.07C77.2143 77.5473 76.8923 77.146 76.4723 76.866C76.0616 76.5767 75.5856 76.432 75.0443 76.432C74.503 76.432 74.0223 76.5767 73.6023 76.866C73.1916 77.146 72.8696 77.5473 72.6363 78.07C72.4123 78.5833 72.3003 79.1807 72.3003 79.862Z" fill="white"/>
<defs>
<filter id="filter0_b_53_1574" x="-100" y="-100" width="320" height="270" filterUnits="userSpaceOnUse" color-interpolation-filters="sRGB">
<feFlood flood-opacity="0" result="BackgroundImageFix"/>
<feGaussianBlur in="BackgroundImageFix" stdDeviation="50"/>
<feComposite in2="SourceAlpha" operator="in" result="effect1_backgroundBlur_53_1574"/>
<feBlend mode="normal" in="SourceGraphic" in2="effect1_backgroundBlur_53_1574" result="shape"/>
</filter>
<filter id="filter1_d_53_1574" x="21" y="11" width="79" height="48.25" filterUnits="userSpaceOnUse" color-interpolation-filters="sRGB">
<feFlood flood-opacity="0" result="BackgroundImageFix"/>
<feColorMatrix in="SourceAlpha" type="matrix" values="0 0 0 0 0 0 0 0 0 0 0 0 0 0 0 0 0 0 127 0" result="hardAlpha"/>
<feOffset dy="2"/>
<feComposite in2="hardAlpha" operator="out"/>
<feColorMatrix type="matrix" values="0 0 0 0 0.0117647 0 0 0 0 0.341176 0 0 0 0 0.121569 0 0 0 1 0"/>
<feBlend mode="normal" in2="BackgroundImageFix" result="effect1_dropShadow_53_1574"/>
<feBlend mode="normal" in="SourceGraphic" in2="effect1_dropShadow_53_1574" result="shape"/>
</filter>
</defs>
</svg>
