<svg width="120" height="89" viewBox="0 0 120 89" fill="none" xmlns="http://www.w3.org/2000/svg">
<g filter="url(#filter0_b_53_1572)">
<ellipse cx="60" cy="35" rx="60" ry="35" fill="#03571F" fill-opacity="0.7"/>
</g>
<path fill-rule="evenodd" clip-rule="evenodd" d="M0 35C0 53.75 26.1905 70 60 70C88.75 70.1428 119.25 57 120 35C120 41.8959 120 50.9072 120 55.8956C120 58.352 119.451 60.7712 118.053 62.7912C112.802 70.3809 96.2264 89 60 89C23.7736 89 7.19837 70.3809 1.9467 62.7912C0.548938 60.7712 0 58.3578 0 55.9013C0 49.8141 0 38.1044 0 35Z" fill="#03571F"/>
<g filter="url(#filter1_d_53_1572)">
<path fill-rule="evenodd" clip-rule="evenodd" d="M99 11V26.75H91V20L77.25 27.75C77.25 27.75 73.75 29.25 70.25 29.25C66.75 29.25 62.75 27.75 62.75 27.75L52 21.5L58.25 17.5L66.75 22.25C66.75 22.25 68 23 70 23C72 23 74.25 21.5 74.25 21.5L84 16H72.25V11H99ZM20 57.25V41.5H28V48.25L41.75 40.5C41.75 40.5 45.25 39 48.75 39C52.25 39 56.25 40.5 56.25 40.5L67 46.75L60.75 50.75L52.25 46C52.25 46 51 45.25 49 45.25C47 45.25 44.75 46.75 44.75 46.75L35 52.25H46.75V57.25H20ZM20 11V26.5H28.25V19.5L40.25 26.5C40.25 26.5 41.25 27 41.25 27.75C41.25 28.5 39.75 29.25 39.75 29.25L31.5 34.25L38 38.25L49 31.5C49 31.5 50.5 30.25 50.5 28C50.5 25.75 48.5 24 48.5 24L35.25 15.75H46.75V11H20ZM98.5 41.75V57.25H71.75V52.5H83.25L70 44.25C70 44.25 68 42.5 68 40.25C68 38 69.5 36.75 69.5 36.75L80.5 30L87 34L78.75 39C78.75 39 77.25 39.75 77.25 40.5C77.25 41.25 78.25 41.75 78.25 41.75L90.25 48.75V41.75H98.5Z" fill="white"/>
</g>
<defs>
<filter id="filter0_b_53_1572" x="-100" y="-100" width="320" height="270" filterUnits="userSpaceOnUse" color-interpolation-filters="sRGB">
<feFlood flood-opacity="0" result="BackgroundImageFix"/>
<feGaussianBlur in="BackgroundImageFix" stdDeviation="50"/>
<feComposite in2="SourceAlpha" operator="in" result="effect1_backgroundBlur_53_1572"/>
<feBlend mode="normal" in="SourceGraphic" in2="effect1_backgroundBlur_53_1572" result="shape"/>
</filter>
<filter id="filter1_d_53_1572" x="20" y="11" width="79" height="48.25" filterUnits="userSpaceOnUse" color-interpolation-filters="sRGB">
<feFlood flood-opacity="0" result="BackgroundImageFix"/>
<feColorMatrix in="SourceAlpha" type="matrix" values="0 0 0 0 0 0 0 0 0 0 0 0 0 0 0 0 0 0 127 0" result="hardAlpha"/>
<feOffset dy="2"/>
<feComposite in2="hardAlpha" operator="out"/>
<feColorMatrix type="matrix" values="0 0 0 0 0.0117647 0 0 0 0 0.341176 0 0 0 0 0.121569 0 0 0 1 0"/>
<feBlend mode="normal" in2="BackgroundImageFix" result="effect1_dropShadow_53_1572"/>
<feBlend mode="normal" in="SourceGraphic" in2="effect1_dropShadow_53_1572" result="shape"/>
</filter>
</defs>
</svg>
