<svg width="120" height="89" viewBox="0 0 120 89" fill="none" xmlns="http://www.w3.org/2000/svg">
<g filter="url(#filter0_b_53_1575)">
<ellipse cx="60" cy="35" rx="60" ry="35" fill="#03571F" fill-opacity="0.7"/>
</g>
<path fill-rule="evenodd" clip-rule="evenodd" d="M0 35C0 53.75 26.1905 70 60 70C88.75 70.1428 119.25 57 120 35C120 41.8959 120 50.9072 120 55.8956C120 58.352 119.451 60.7712 118.053 62.7912C112.802 70.3809 96.2264 89 60 89C23.7736 89 7.19837 70.3809 1.9467 62.7912C0.548938 60.7712 0 58.3578 0 55.9013C0 49.8141 0 38.1044 0 35Z" fill="#03571F"/>
<g filter="url(#filter1_d_53_1575)">
<path fill-rule="evenodd" clip-rule="evenodd" d="M99 11V26.75H91V20L77.25 27.75C77.25 27.75 73.75 29.25 70.25 29.25C66.75 29.25 62.75 27.75 62.75 27.75L52 21.5L58.25 17.5L66.75 22.25C66.75 22.25 68 23 70 23C72 23 74.25 21.5 74.25 21.5L84 16H72.25V11H99ZM20 57.25V41.5H28V48.25L41.75 40.5C41.75 40.5 45.25 39 48.75 39C52.25 39 56.25 40.5 56.25 40.5L67 46.75L60.75 50.75L52.25 46C52.25 46 51 45.25 49 45.25C47 45.25 44.75 46.75 44.75 46.75L35 52.25H46.75V57.25H20ZM20 11V26.5H28.25V19.5L40.25 26.5C40.25 26.5 41.25 27 41.25 27.75C41.25 28.5 39.75 29.25 39.75 29.25L31.5 34.25L38 38.25L49 31.5C49 31.5 50.5 30.25 50.5 28C50.5 25.75 48.5 24 48.5 24L35.25 15.75H46.75V11H20ZM98.5 41.75V57.25H71.75V52.5H83.25L70 44.25C70 44.25 68 42.5 68 40.25C68 38 69.5 36.75 69.5 36.75L80.5 30L87 34L78.75 39C78.75 39 77.25 39.75 77.25 40.5C77.25 41.25 78.25 41.75 78.25 41.75L90.25 48.75V41.75H98.5Z" fill="white"/>
</g>
<path d="M41.1069 73.752L43.8509 81.158L46.4829 73.752H48.6529L44.6629 84H42.9409L38.7969 73.752H41.1069ZM48.6935 78.862C48.6935 77.7887 48.9081 76.8507 49.3375 76.048C49.7668 75.2453 50.3501 74.634 51.0875 74.214C51.8341 73.7847 52.6648 73.57 53.5795 73.57C54.4941 73.57 55.3201 73.7847 56.0575 74.214C56.8041 74.634 57.3921 75.2453 57.8215 76.048C58.2601 76.8507 58.4795 77.7887 58.4795 78.862C58.4795 79.9447 58.2601 80.8873 57.8215 81.69C57.3921 82.4927 56.8041 83.1087 56.0575 83.538C55.3201 83.958 54.4941 84.168 53.5795 84.168C52.6648 84.168 51.8341 83.958 51.0875 83.538C50.3501 83.1087 49.7668 82.4927 49.3375 81.69C48.9081 80.8873 48.6935 79.9447 48.6935 78.862ZM50.8355 78.862C50.8355 79.5433 50.9475 80.1453 51.1715 80.668C51.4048 81.1907 51.7268 81.5967 52.1375 81.886C52.5575 82.166 53.0381 82.306 53.5795 82.306C54.1208 82.306 54.5968 82.166 55.0075 81.886C55.4275 81.5967 55.7495 81.1907 55.9735 80.668C56.2068 80.1453 56.3235 79.5433 56.3235 78.862C56.3235 78.1807 56.2068 77.5833 55.9735 77.07C55.7495 76.5473 55.4275 76.146 55.0075 75.866C54.5968 75.5767 54.1208 75.432 53.5795 75.432C53.0381 75.432 52.5575 75.5767 52.1375 75.866C51.7268 76.146 51.4048 76.5473 51.1715 77.07C50.9475 77.5833 50.8355 78.1807 50.8355 78.862ZM62.1783 84H60.1483V73.752H62.1783V84ZM68.7002 82.306C69.1949 82.306 69.6196 82.1753 69.9742 81.914C70.3382 81.6527 70.6276 81.2887 70.8422 80.822L72.5362 81.802C72.2842 82.4927 71.8222 83.062 71.1502 83.51C70.4782 83.9487 69.6756 84.168 68.7422 84.168C67.8369 84.168 67.0109 83.9487 66.2642 83.51C65.5176 83.0713 64.9249 82.4507 64.4862 81.648C64.0476 80.836 63.8282 79.9073 63.8282 78.862C63.8282 77.8167 64.0429 76.8927 64.4722 76.09C64.9109 75.2873 65.5036 74.6667 66.2502 74.228C67.0062 73.7893 67.8369 73.57 68.7422 73.57C69.6756 73.57 70.4782 73.794 71.1502 74.242C71.8222 74.6807 72.2842 75.2453 72.5362 75.936L70.8422 76.916C70.6276 76.4493 70.3382 76.0853 69.9742 75.824C69.6196 75.5627 69.1949 75.432 68.7002 75.432C68.1776 75.432 67.7109 75.572 67.3002 75.852C66.8896 76.132 66.5629 76.5333 66.3202 77.056C66.0869 77.5693 65.9702 78.1713 65.9702 78.862C65.9702 79.5527 66.0869 80.1593 66.3202 80.682C66.5629 81.2047 66.8896 81.606 67.3002 81.886C67.7109 82.166 68.1776 82.306 68.7002 82.306ZM80.0355 79.674H75.8775V82.222H80.6795V84H73.8475V73.752H80.5255V75.516H75.8775V77.924H80.0355V79.674Z" fill="white"/>
<defs>
<filter id="filter0_b_53_1575" x="-100" y="-100" width="320" height="270" filterUnits="userSpaceOnUse" color-interpolation-filters="sRGB">
<feFlood flood-opacity="0" result="BackgroundImageFix"/>
<feGaussianBlur in="BackgroundImageFix" stdDeviation="50"/>
<feComposite in2="SourceAlpha" operator="in" result="effect1_backgroundBlur_53_1575"/>
<feBlend mode="normal" in="SourceGraphic" in2="effect1_backgroundBlur_53_1575" result="shape"/>
</filter>
<filter id="filter1_d_53_1575" x="20" y="11" width="79" height="48.25" filterUnits="userSpaceOnUse" color-interpolation-filters="sRGB">
<feFlood flood-opacity="0" result="BackgroundImageFix"/>
<feColorMatrix in="SourceAlpha" type="matrix" values="0 0 0 0 0 0 0 0 0 0 0 0 0 0 0 0 0 0 127 0" result="hardAlpha"/>
<feOffset dy="2"/>
<feComposite in2="hardAlpha" operator="out"/>
<feColorMatrix type="matrix" values="0 0 0 0 0.0117647 0 0 0 0 0.341176 0 0 0 0 0.121569 0 0 0 1 0"/>
<feBlend mode="normal" in2="BackgroundImageFix" result="effect1_dropShadow_53_1575"/>
<feBlend mode="normal" in="SourceGraphic" in2="effect1_dropShadow_53_1575" result="shape"/>
</filter>
</defs>
</svg>
