<svg width="121" height="83" viewBox="0 0 121 83" fill="none" xmlns="http://www.w3.org/2000/svg">
<path fill-rule="evenodd" clip-rule="evenodd" d="M61.2653 0L69.7635 4.93673L62.3709 9.42857L67.0852 12.1786L74.3517 7.60207L90.2638 16.8929L83.5852 20.8214L87.9066 23.5714L94.3826 19.2383L113.049 30.25L105.585 34.5714L109.121 36.5357L116.54 32.2017L121 34.5L64.25 67.5L60 64L5.5 32.25L61.2653 0Z" fill="#1E3C89" fill-opacity="0.7"/>
<path fill-rule="evenodd" clip-rule="evenodd" d="M0 29L60 64V83L0 48V29Z" fill="#1E3D89" fill-opacity="0.8"/>
<path fill-rule="evenodd" clip-rule="evenodd" d="M69.7499 5L62.4642 9.42857L67.1785 12.1786L69.7499 10.75V5ZM90.3571 16.8929L83.6785 20.8214L87.9999 23.5714L90.3571 22V16.8929ZM105.286 34.5714L113.143 30.25V34.1786L109.214 36.5357L105.286 34.5714ZM64.25 67.5L121 34.5V40.4102L64.25 73.75V80.5L60 83V64L64.25 61.5V67.5Z" fill="#1E3B89"/>
<g filter="url(#filter0_b_54_1616)">
<path fill-rule="evenodd" clip-rule="evenodd" d="M0 29L60 64L64.25 61.5L4.25 26.5L0 29Z" fill="#1E3D89" fill-opacity="0.8"/>
</g>
<g filter="url(#filter1_d_54_1616)">
<path fill-rule="evenodd" clip-rule="evenodd" d="M38 40.7343L80.5309 15L91 21.2657L48.4691 47L38 40.7343ZM77.1348 20.1058L79.1573 19L85 22.5385L82.9775 23.6442L77.1348 20.1058ZM71.7416 23.2019L73.764 22.0962L79.6067 25.6346L77.5843 26.7404L71.7416 23.2019ZM68.3708 25.1923L66.3483 26.2981L72.191 29.8365L74.2135 28.7308L68.3708 25.1923ZM60.9551 29.3942L62.9775 28.2885L68.8202 31.8269L66.7978 32.9327L60.9551 29.3942ZM57.5843 31.3846L55.5618 32.4904L61.4045 36.0288L63.427 34.9231L57.5843 31.3846ZM50.1685 35.5865L52.191 34.4808L58.0337 38.0192L56.0112 39.125L50.1685 35.5865ZM47.0225 37.3558L45 38.4615L50.8427 42L52.8652 40.8942L47.0225 37.3558Z" fill="#C31B21"/>
</g>
<g filter="url(#filter2_d_54_1616)">
<path fill-rule="evenodd" clip-rule="evenodd" d="M29 27.2162L33.1436 24.7387L42.0851 30.3694V25.8649H49.5L40.5585 20.4595L44.7021 17.7568L53.6436 23.6126V18.6577H60.6223L52.117 13.4775L56.4787 11L65.2021 16.6306V11.9009H70V22.036H58.6596V29.018H47.1011V36H30.5266V32.8468H37.9415L29 27.2162ZM67 35.3269L71.1087 33L82.5217 38.9231V34.6923H88L87.7717 44H70.1957V41.0385H78.1848L67 35.3269Z" fill="white"/>
</g>
<path d="M12.8883 47.5879C12.8883 48.1879 12.7533 48.6139 12.4831 48.8659C12.2198 49.1139 11.8734 49.2099 11.4439 49.1539C11.0213 49.1018 10.5675 48.9358 10.0825 48.6558C9.37588 48.2478 8.73849 47.6918 8.17038 46.9878C7.60226 46.2757 7.22467 45.5177 7.03758 44.7137L8.26383 44.6178C8.43012 45.1618 8.67261 45.6498 8.99131 46.0818C9.31001 46.5138 9.69106 46.8578 10.1345 47.1138C10.4947 47.3218 10.7788 47.4018 10.9866 47.3538C11.2014 47.3098 11.3087 47.1279 11.3087 46.8079C11.3087 46.5519 11.236 46.2978 11.0905 46.0458C10.9519 45.7978 10.7752 45.5638 10.5605 45.3438C10.3526 45.1278 10.0651 44.8498 9.69791 44.5098C9.20601 44.0578 8.80418 43.6618 8.49241 43.3218C8.18064 42.9738 7.9139 42.5717 7.69219 42.1157C7.47048 41.6597 7.35962 41.1637 7.3596 40.6277C7.35959 40.0597 7.48774 39.6537 7.74407 39.4097C8.00732 39.1617 8.35025 39.0638 8.77286 39.1158C9.20239 39.1638 9.66311 39.3298 10.155 39.6138C10.827 40.0018 11.4021 40.5099 11.8801 41.1379C12.3582 41.7659 12.6665 42.4199 12.8051 43.0999L11.5788 43.1959C11.4541 42.7479 11.267 42.3478 11.0176 41.9958C10.7682 41.6358 10.4564 41.3478 10.0823 41.1318C9.74283 40.9358 9.46571 40.8678 9.25094 40.9278C9.04311 40.9838 8.93919 41.1598 8.9392 41.4558C8.93921 41.6798 9.00503 41.9058 9.13667 42.1338C9.26831 42.3538 9.43459 42.5698 9.6355 42.7818C9.84335 42.9898 10.1205 43.2538 10.4669 43.5738C10.9657 44.0298 11.3779 44.4399 11.7036 44.8039C12.0292 45.1599 12.3063 45.5759 12.535 46.0519C12.7705 46.5239 12.8883 47.0359 12.8883 47.5879ZM16.17 45.6548C16.648 45.9308 17.0707 46.2988 17.4379 46.7588C17.812 47.2148 18.0995 47.7248 18.3004 48.2889C18.5083 48.8489 18.6122 49.4169 18.6122 49.9929C18.6123 50.2489 18.5915 50.4969 18.5499 50.7369L14.975 48.6727C15.0374 49.1728 15.1829 49.6088 15.4115 49.9808C15.6402 50.3448 15.9242 50.6248 16.2637 50.8208C16.5062 50.9608 16.7209 51.0248 16.908 51.0128C17.102 50.9968 17.2509 50.8948 17.3548 50.7068L18.4149 52.0389C18.2694 52.4109 17.9888 52.6008 17.5731 52.6088C17.1644 52.6208 16.7071 52.4808 16.2014 52.1888C15.7164 51.9088 15.2661 51.5248 14.8504 51.0367C14.4347 50.5487 14.0987 49.9827 13.8423 49.3387C13.5929 48.6987 13.4682 48.0307 13.4682 47.3347C13.4681 46.6467 13.5928 46.1307 13.8422 45.7867C14.0985 45.4467 14.4311 45.2707 14.8398 45.2587C15.2486 45.2468 15.692 45.3788 16.17 45.6548ZM16.1285 46.9868C15.8444 46.8228 15.6019 46.7868 15.401 46.8788C15.2001 46.9708 15.065 47.1848 14.9958 47.5207L17.1366 48.7568C17.1088 48.3568 17.0014 48.0028 16.8144 47.6948C16.6342 47.3828 16.4056 47.1468 16.1285 46.9868ZM21.986 54.0768C22.4017 54.3168 22.7342 54.2728 22.9836 53.9448L24.0852 55.3249C23.912 55.6889 23.6384 55.8829 23.2643 55.9069C22.8902 55.9308 22.4641 55.8048 21.9861 55.5288C21.508 55.2528 21.0612 54.8708 20.6455 54.3828C20.2298 53.8868 19.8938 53.3207 19.6374 52.6847C19.381 52.0407 19.2529 51.3787 19.2528 50.6987C19.2528 50.0107 19.381 49.4967 19.6373 49.1567C19.8936 48.8087 20.2296 48.6308 20.6453 48.6228C21.061 48.6068 21.5078 48.7368 21.9859 49.0128C22.4639 49.2888 22.89 49.6548 23.2641 50.1109C23.6382 50.5669 23.9119 51.0769 24.0851 51.6409L22.9836 51.7488C22.7411 51.1448 22.4085 50.7208 21.9859 50.4768C21.6118 50.2608 21.3104 50.2508 21.0818 50.4468C20.8601 50.6388 20.7493 51.0108 20.7493 51.5628C20.7493 52.1068 20.8636 52.6088 21.0923 53.0688C21.3209 53.5288 21.6188 53.8648 21.986 54.0768ZM29.5509 55.1928C30.3892 56.0208 30.8084 56.9388 30.8084 57.9468C30.8084 58.7388 30.5556 59.2128 30.0498 59.3688C29.551 59.5288 28.8478 59.3468 27.9403 58.8227L24.9058 57.0706L24.9055 48.2866L27.6594 49.8767C28.47 50.3447 29.1281 50.9408 29.6339 51.6648C30.1466 52.3848 30.403 53.1328 30.403 53.9088C30.403 54.7168 30.119 55.1448 29.5509 55.1928ZM26.3812 50.6507L26.3813 52.7267L27.514 53.3807C27.9228 53.6167 28.2449 53.7067 28.4805 53.6507C28.7229 53.5907 28.8442 53.3968 28.8442 53.0688C28.8442 52.7488 28.7264 52.4367 28.4908 52.1327C28.2553 51.8207 27.9296 51.5447 27.5139 51.3047L26.3812 50.6507ZM27.8155 57.2387C28.2728 57.5027 28.6226 57.6087 28.8651 57.5568C29.1145 57.5088 29.2392 57.3088 29.2392 56.9568C29.2392 56.6048 29.1145 56.2568 28.865 55.9128C28.6226 55.5727 28.2692 55.2687 27.805 55.0007L26.3813 54.1787L26.3814 56.4107L27.8155 57.2387ZM33.2889 61.911L31.8444 61.077L31.8441 51.945L33.2887 52.779L33.2889 61.911ZM36.9008 57.6246C37.6283 58.0446 38.1964 58.6126 38.6051 59.3287C39.0139 60.0367 39.2183 60.8307 39.2183 61.7107L39.2185 65.3347L38.0026 64.6326C37.9956 64.5646 37.9853 64.4546 37.9714 64.3026C37.9645 64.1466 37.9506 64.0066 37.9298 63.8826C37.7705 64.0786 37.5626 64.1746 37.3063 64.1706C37.0569 64.1626 36.7521 64.0546 36.3918 63.8466C36.0177 63.6306 35.6747 63.3566 35.363 63.0246C35.0581 62.6965 34.8156 62.3365 34.6355 61.9445C34.4554 61.5445 34.3653 61.1445 34.3653 60.7445C34.3653 60.3285 34.4657 60.0265 34.6666 59.8385C34.8745 59.6465 35.1516 59.5665 35.498 59.5986C35.8444 59.6306 36.2254 59.7666 36.6411 60.0066C37.0152 60.2226 37.3997 60.5166 37.7946 60.8886C37.7738 59.9566 37.4343 59.3006 36.7761 58.9206C36.2496 58.6166 35.8651 58.6666 35.6227 59.0706L34.5938 57.7925C34.7878 57.4405 35.0857 57.2485 35.4875 57.2166C35.8893 57.1766 36.3604 57.3126 36.9008 57.6246ZM37.7947 61.9926C37.4482 61.6966 37.1469 61.4746 36.8905 61.3266C36.5511 61.1306 36.2878 61.0506 36.1007 61.0866C35.9137 61.1146 35.8202 61.2566 35.8202 61.5126C35.8202 61.7446 35.8929 61.9666 36.0384 62.1786C36.1908 62.3946 36.3848 62.5706 36.6204 62.7066C36.9322 62.8866 37.2058 62.9446 37.4414 62.8806C37.6769 62.8086 37.7947 62.5926 37.7947 62.2326L37.7947 61.9926ZM44.2319 59.0976L45.6764 59.9316L45.6767 69.0636L44.4088 68.3316C44.3742 67.8476 44.3465 67.5196 44.3257 67.3476C44.1386 67.5996 43.8927 67.7295 43.5878 67.7375C43.2899 67.7415 42.9643 67.6415 42.611 67.4375C42.1676 67.1815 41.7623 66.8195 41.3951 66.3515C41.0279 65.8835 40.7335 65.3414 40.5117 64.7254C40.29 64.1014 40.1792 63.4534 40.1791 62.7814C40.1791 62.1014 40.2899 61.5814 40.5116 61.2214C40.7333 60.8534 41.0277 60.6475 41.3949 60.6035C41.7621 60.5595 42.1674 60.6655 42.6108 60.9215C42.9364 61.1095 43.2378 61.3595 43.5149 61.6715C43.799 61.9875 44.038 62.3575 44.232 62.7816L44.2319 59.0976ZM42.9435 66.2015C43.3038 66.4095 43.6086 66.4335 43.858 66.2735C44.1074 66.1136 44.2321 65.7296 44.2321 65.1216C44.232 64.5216 44.1073 64.0056 43.8579 63.5735C43.6085 63.1335 43.3036 62.8095 42.9434 62.6015C42.5623 62.3815 42.254 62.3595 42.0185 62.5355C41.7899 62.7155 41.6756 63.0855 41.6756 63.6455C41.6756 64.2055 41.79 64.7155 42.0186 65.1755C42.2542 65.6395 42.5625 65.9815 42.9435 66.2015ZM49.4167 64.8512C49.8947 65.1272 50.3173 65.4952 50.6845 65.9552C51.0586 66.4112 51.3462 66.9212 51.5471 67.4852C51.7549 68.0452 51.8589 68.6132 51.8589 69.1892C51.8589 69.4452 51.8381 69.6932 51.7966 69.9332L48.2217 67.8691C48.284 68.3691 48.4295 68.8051 48.6582 69.1771C48.8868 69.5411 49.1709 69.8212 49.5103 70.0172C49.7528 70.1572 49.9676 70.2212 50.1546 70.2092C50.3486 70.1932 50.4976 70.0912 50.6015 69.9032L51.6615 71.2352C51.516 71.6072 51.2355 71.7972 50.8198 71.8052C50.411 71.8172 49.9538 71.6772 49.448 71.3852C48.9631 71.1051 48.5127 70.7211 48.097 70.2331C47.6814 69.7451 47.3453 69.1791 47.089 68.5351C46.8396 67.8951 46.7148 67.2271 46.7148 66.5311C46.7148 65.8431 46.8395 65.3271 47.0889 64.9831C47.3452 64.6431 47.6777 64.4671 48.0865 64.4551C48.4952 64.4431 48.9386 64.5751 49.4167 64.8512ZM49.3751 66.1832C49.0911 66.0191 48.8486 65.9831 48.6477 66.0751C48.4468 66.1671 48.3117 66.3811 48.2424 66.7171L50.3832 67.9532C50.3555 67.5532 50.2481 67.1992 50.061 66.8912C49.8809 66.5792 49.6522 66.3432 49.3751 66.1832Z" fill="white"/>
<defs>
<filter id="filter0_b_54_1616" x="-4" y="22.5" width="72.25" height="45.5" filterUnits="userSpaceOnUse" color-interpolation-filters="sRGB">
<feFlood flood-opacity="0" result="BackgroundImageFix"/>
<feGaussianBlur in="BackgroundImageFix" stdDeviation="2"/>
<feComposite in2="SourceAlpha" operator="in" result="effect1_backgroundBlur_54_1616"/>
<feBlend mode="normal" in="SourceGraphic" in2="effect1_backgroundBlur_54_1616" result="shape"/>
</filter>
<filter id="filter1_d_54_1616" x="38" y="15" width="53" height="34" filterUnits="userSpaceOnUse" color-interpolation-filters="sRGB">
<feFlood flood-opacity="0" result="BackgroundImageFix"/>
<feColorMatrix in="SourceAlpha" type="matrix" values="0 0 0 0 0 0 0 0 0 0 0 0 0 0 0 0 0 0 127 0" result="hardAlpha"/>
<feOffset dy="2"/>
<feColorMatrix type="matrix" values="0 0 0 0 0.44769 0 0 0 0 0 0 0 0 0 0.0159889 0 0 0 1 0"/>
<feBlend mode="normal" in2="BackgroundImageFix" result="effect1_dropShadow_54_1616"/>
<feBlend mode="normal" in="SourceGraphic" in2="effect1_dropShadow_54_1616" result="shape"/>
</filter>
<filter id="filter2_d_54_1616" x="29" y="11" width="59" height="35" filterUnits="userSpaceOnUse" color-interpolation-filters="sRGB">
<feFlood flood-opacity="0" result="BackgroundImageFix"/>
<feColorMatrix in="SourceAlpha" type="matrix" values="0 0 0 0 0 0 0 0 0 0 0 0 0 0 0 0 0 0 127 0" result="hardAlpha"/>
<feOffset dy="2"/>
<feComposite in2="hardAlpha" operator="out"/>
<feColorMatrix type="matrix" values="0 0 0 0 0.117647 0 0 0 0 0.232922 0 0 0 0 0.537255 0 0 0 1 0"/>
<feBlend mode="normal" in2="BackgroundImageFix" result="effect1_dropShadow_54_1616"/>
<feBlend mode="normal" in="SourceGraphic" in2="effect1_dropShadow_54_1616" result="shape"/>
</filter>
</defs>
</svg>
