<svg width="121" height="88" viewBox="0 0 121 88" fill="none" xmlns="http://www.w3.org/2000/svg">
<path fill-rule="evenodd" clip-rule="evenodd" d="M0 35L60.3755 70V88L0 53V35Z" fill="#1E3D89" fill-opacity="0.8"/>
<g filter="url(#filter0_b_53_1597)">
<path fill-rule="evenodd" clip-rule="evenodd" d="M60.125 0L120.501 35L60.3755 70L0 35L60.125 0Z" fill="#1E3C89" fill-opacity="0.7"/>
</g>
<path fill-rule="evenodd" clip-rule="evenodd" d="M120.5 35L60.125 70V88L120.5 53V35Z" fill="#1E3B89"/>
<g filter="url(#filter1_d_53_1597)">
<path fill-rule="evenodd" clip-rule="evenodd" d="M31.75 45.25L80.5 16.5L92.5 23.5L43.75 52.25L31.75 45.25ZM75.75 22.75L78 21.5L84.5 25.5L82.25 26.75L75.75 22.75ZM69.75 26.25L72 25L78.5 29L76.25 30.25L69.75 26.25ZM66 28.5L63.75 29.75L70.25 33.75L72.5 32.5L66 28.5ZM57.75 33.25L60 32L66.5 36L64.25 37.25L57.75 33.25ZM54 35.5L51.75 36.75L58.25 40.75L60.5 39.5L54 35.5ZM45.75 40.25L48 39L54.5 43L52.25 44.25L45.75 40.25ZM42.25 42.25L40 43.5L46.5 47.5L48.75 46.25L42.25 42.25Z" fill="#C31B21"/>
</g>
<g filter="url(#filter2_d_53_1597)">
<path fill-rule="evenodd" clip-rule="evenodd" d="M21 29L25.75 26.25L36 32.5V27.5H44.5L34.25 21.5L39 18.5L49.25 25V19.5H57.25L47.5 13.75L52.5 11L62.5 17.25V12H68V23.25H55V31H41.75V38.75H22.75V35.25H31.25L21 29ZM64.5 39.25L69 36.5L81.5 43.5V38.5H87.5L87.25 49.5H68V46H76.75L64.5 39.25Z" fill="white"/>
</g>
<defs>
<filter id="filter0_b_53_1597" x="-135.914" y="-135.914" width="392.329" height="341.828" filterUnits="userSpaceOnUse" color-interpolation-filters="sRGB">
<feFlood flood-opacity="0" result="BackgroundImageFix"/>
<feGaussianBlur in="BackgroundImageFix" stdDeviation="67.957"/>
<feComposite in2="SourceAlpha" operator="in" result="effect1_backgroundBlur_53_1597"/>
<feBlend mode="normal" in="SourceGraphic" in2="effect1_backgroundBlur_53_1597" result="shape"/>
</filter>
<filter id="filter1_d_53_1597" x="31.75" y="16.5" width="60.75" height="37.75" filterUnits="userSpaceOnUse" color-interpolation-filters="sRGB">
<feFlood flood-opacity="0" result="BackgroundImageFix"/>
<feColorMatrix in="SourceAlpha" type="matrix" values="0 0 0 0 0 0 0 0 0 0 0 0 0 0 0 0 0 0 127 0" result="hardAlpha"/>
<feOffset dy="2"/>
<feColorMatrix type="matrix" values="0 0 0 0 0.44769 0 0 0 0 0 0 0 0 0 0.0159889 0 0 0 1 0"/>
<feBlend mode="normal" in2="BackgroundImageFix" result="effect1_dropShadow_53_1597"/>
<feBlend mode="normal" in="SourceGraphic" in2="effect1_dropShadow_53_1597" result="shape"/>
</filter>
<filter id="filter2_d_53_1597" x="21" y="11" width="66.5" height="40.5" filterUnits="userSpaceOnUse" color-interpolation-filters="sRGB">
<feFlood flood-opacity="0" result="BackgroundImageFix"/>
<feColorMatrix in="SourceAlpha" type="matrix" values="0 0 0 0 0 0 0 0 0 0 0 0 0 0 0 0 0 0 127 0" result="hardAlpha"/>
<feOffset dy="2"/>
<feComposite in2="hardAlpha" operator="out"/>
<feColorMatrix type="matrix" values="0 0 0 0 0.117647 0 0 0 0 0.232922 0 0 0 0 0.537255 0 0 0 1 0"/>
<feBlend mode="normal" in2="BackgroundImageFix" result="effect1_dropShadow_53_1597"/>
<feBlend mode="normal" in="SourceGraphic" in2="effect1_dropShadow_53_1597" result="shape"/>
</filter>
</defs>
</svg>
