<svg width="121" height="88" viewBox="0 0 121 88" fill="none" xmlns="http://www.w3.org/2000/svg">
<path fill-rule="evenodd" clip-rule="evenodd" d="M0 35L60.3755 70V88L0 53V35Z" fill="#1E3D89" fill-opacity="0.8"/>
<g filter="url(#filter0_b_54_1615)">
<path fill-rule="evenodd" clip-rule="evenodd" d="M60.125 0L120.501 35L60.3755 70L0 35L60.125 0Z" fill="#1E3C89" fill-opacity="0.7"/>
</g>
<path fill-rule="evenodd" clip-rule="evenodd" d="M120.501 35L60.125 70V88L120.501 53V35Z" fill="#1E3B89"/>
<path fill-rule="evenodd" clip-rule="evenodd" d="M60.1687 8L65.1857 10.9145L60.8214 13.5663L63.6045 15.1898L67.8944 12.488L77.2882 17.9729L73.3455 20.2922L75.8967 21.9157L79.7199 19.3575L90.7401 25.8584L86.3334 28.4096L88.4208 29.5693L92.8006 27.0106L95.4337 28.3675L61.9307 47.8494L59.4217 45.7831L27.247 27.0392L60.1687 8Z" fill="#1E3C89" fill-opacity="0.7"/>
<path fill-rule="evenodd" clip-rule="evenodd" d="M24 25.1205L59.4217 45.7831V57L24 36.3374V25.1205Z" fill="#1E3D89" fill-opacity="0.8"/>
<path fill-rule="evenodd" clip-rule="evenodd" d="M65.1777 10.9518L60.8765 13.5662L63.6596 15.1897L65.1777 14.3464V10.9518ZM77.3433 17.9729L73.4006 20.2921L75.9518 21.9156L77.3433 20.9879V17.9729ZM86.1566 28.4096L90.7952 25.8584V28.1777L88.4759 29.5693L86.1566 28.4096ZM61.9307 47.8494L95.4337 28.3674V31.8566L61.9307 51.5391V55.5241L59.4217 57V45.7831L61.9307 44.3072V47.8494Z" fill="#1E3B89"/>
<g filter="url(#filter1_b_54_1615)">
<path fill-rule="evenodd" clip-rule="evenodd" d="M24 25.1205L59.4217 45.7831L61.9307 44.3072L26.509 23.6446L24 25.1205Z" fill="#1E3D89" fill-opacity="0.8"/>
</g>
<g filter="url(#filter2_d_54_1615)">
<path fill-rule="evenodd" clip-rule="evenodd" d="M46 33.0839L73.284 17L80 20.9161L52.716 37L46 33.0839ZM71.0843 19.7212L72.3483 19L76 21.3077L74.736 22.0288L71.0843 19.7212ZM67.7135 21.7404L68.9775 21.0192L72.6292 23.3269L71.3652 24.0481L67.7135 21.7404ZM65.6067 23.0385L64.3427 23.7596L67.9944 26.0673L69.2584 25.3462L65.6067 23.0385ZM60.9719 25.7788L62.236 25.0577L65.8876 27.3654L64.6236 28.0865L60.9719 25.7788ZM58.8652 27.0769L57.6011 27.7981L61.2528 30.1058L62.5169 29.3846L58.8652 27.0769ZM54.2303 29.8173L55.4944 29.0962L59.1461 31.4038L57.882 32.125L54.2303 29.8173ZM52.264 30.9712L51 31.6923L54.6517 34L55.9157 33.2788L52.264 30.9712Z" fill="#C31B21"/>
</g>
<g filter="url(#filter3_d_54_1615)">
<path fill-rule="evenodd" clip-rule="evenodd" d="M40 24.3784L42.7287 22.7928L48.617 26.3964V23.5135H53.5L47.6117 20.0541L50.3404 18.3243L56.2287 22.0721V18.9009H60.8245L55.2234 15.5856L58.0957 14L63.8404 17.6036V14.5766H67V21.0631H59.5319V25.5315H51.9202V30H41.0053V27.982H45.8883L40 24.3784ZM65 30.4808L67.5435 29L74.6087 32.7692V30.0769H78L77.8587 36H66.9783V34.1154H71.9239L65 30.4808Z" fill="white"/>
</g>
<path d="M15.0601 55.8419C15.0601 56.4419 14.9251 56.8679 14.6549 57.1199C14.3916 57.3679 14.0452 57.4638 13.6157 57.4078C13.1931 57.3558 12.7393 57.1898 12.2543 56.9098C11.5477 56.5018 10.9103 55.9457 10.3422 55.2417C9.77405 54.5297 9.39645 53.7717 9.20937 52.9677L10.4356 52.8717C10.6019 53.4157 10.8444 53.9037 11.1631 54.3358C11.4818 54.7678 11.8628 55.1118 12.3062 55.3678C12.6665 55.5758 12.9506 55.6558 13.1584 55.6078C13.3732 55.5638 13.4805 55.3818 13.4805 55.0618C13.4805 54.8058 13.4078 54.5518 13.2623 54.2998C13.1237 54.0518 12.947 53.8178 12.7323 53.5978C12.5244 53.3818 12.2369 53.1038 11.8697 52.7638C11.3778 52.3118 10.976 51.9157 10.6642 51.5757C10.3524 51.2277 10.0857 50.8257 9.86398 50.3697C9.64227 49.9137 9.53141 49.4177 9.53139 48.8817C9.53138 48.3137 9.65953 47.9077 9.91586 47.6637C10.1791 47.4157 10.522 47.3177 10.9446 47.3697C11.3742 47.4178 11.8349 47.5838 12.3268 47.8678C12.9988 48.2558 13.5738 48.7638 14.0519 49.3918C14.5299 50.0199 14.8383 50.6739 14.9768 51.3539L13.7506 51.4498C13.6259 51.0018 13.4388 50.6018 13.1894 50.2498C12.94 49.8898 12.6282 49.6018 12.2541 49.3858C11.9146 49.1898 11.6375 49.1218 11.4227 49.1818C11.2149 49.2378 11.111 49.4138 11.111 49.7098C11.111 49.9338 11.1768 50.1598 11.3085 50.3878C11.4401 50.6078 11.6064 50.8238 11.8073 51.0358C12.0151 51.2438 12.2923 51.5078 12.6387 51.8278C13.1375 52.2838 13.5497 52.6938 13.8754 53.0578C14.201 53.4138 14.4781 53.8299 14.7067 54.3059C14.9423 54.7779 15.0601 55.2899 15.0601 55.8419ZM21.1684 53.1289L22.7482 59.9449L24.2029 54.8809L25.6578 55.721L23.2886 63.1369L22.1247 62.4649L20.5242 55.8048L18.9759 60.6468L17.8224 59.9807L15.3488 49.7687L16.9076 50.6687L18.4666 57.4728L19.9629 52.4328L21.1684 53.1289ZM28.0364 65.8782L26.5295 65.0082L26.5292 56.2242L28.0361 57.0942L28.0364 65.8782ZM28.9075 57.5974L35.0388 61.1376L35.0389 62.6856L32.7318 61.3535L32.7321 68.5895L31.2148 67.7134L31.2146 60.4774L28.9075 59.1454L28.9075 57.5974ZM38.8855 70.6904C39.2526 70.9024 39.5679 70.9725 39.8311 70.9005C40.1013 70.8325 40.3161 70.6445 40.4754 70.3365L41.7329 71.9025C41.5458 72.3865 41.2029 72.6765 40.7041 72.7725C40.2053 72.8605 39.6095 72.7045 38.9167 72.3044C38.2447 71.9164 37.6315 71.3744 37.0773 70.6784C36.523 69.9824 36.0831 69.1963 35.7574 68.3203C35.4318 67.4363 35.2689 66.5463 35.2689 65.6503C35.2689 64.7543 35.4282 64.0543 35.7469 63.5503C36.0725 63.0503 36.5124 62.7724 37.0666 62.7164C37.6278 62.6644 38.2444 62.8324 38.9164 63.2204C39.6092 63.6205 40.205 64.1565 40.7039 64.8285C41.2027 65.4925 41.5456 66.1745 41.7327 66.8745L40.4753 66.9885C40.3159 66.4965 40.1012 66.0605 39.831 65.6805C39.5677 65.3045 39.2525 65.0104 38.8853 64.7984C38.4973 64.5744 38.1509 64.4944 37.8461 64.5584C37.5412 64.6224 37.2988 64.8264 37.1187 65.1704C36.9455 65.5104 36.8589 65.9764 36.8589 66.5684C36.8589 67.1604 36.9455 67.7304 37.1188 68.2784C37.2989 68.8304 37.5414 69.3144 37.8462 69.7304C38.1511 70.1464 38.4975 70.4664 38.8855 70.6904ZM44.213 69.8906L47.6424 71.8707L47.6423 68.4147L49.1595 69.2907L49.1598 78.0747L47.6426 77.1987L47.6424 73.4187L44.213 71.4386L44.2132 75.2186L42.7063 74.3485L42.706 65.5645L44.2129 66.4346L44.213 69.8906Z" fill="white"/>
<path d="M30.4405 35.6417C30.4405 36.0417 30.3504 36.3257 30.1703 36.4937C29.9948 36.659 29.7639 36.723 29.4775 36.6857C29.1958 36.651 28.8933 36.5403 28.5699 36.3537C28.0988 36.0817 27.6739 35.711 27.2952 35.2416C26.9164 34.7669 26.6647 34.2616 26.54 33.7256L27.3575 33.6616C27.4683 34.0243 27.63 34.3496 27.8425 34.6376C28.0549 34.9256 28.309 35.155 28.6046 35.3257C28.8447 35.4643 29.0341 35.5177 29.1726 35.4857C29.3158 35.4564 29.3874 35.335 29.3874 35.1217C29.3874 34.951 29.3389 34.7817 29.2419 34.6137C29.1495 34.4484 29.0317 34.2923 28.8886 34.1457C28.75 34.0017 28.5583 33.8163 28.3135 33.5897C27.9856 33.2883 27.7177 33.0243 27.5099 32.7976C27.302 32.5656 27.1242 32.2976 26.9764 31.9936C26.8286 31.6896 26.7547 31.3589 26.7547 31.0016C26.7546 30.6229 26.8401 30.3523 27.011 30.1896C27.1865 30.0243 27.4151 29.959 27.6968 29.9936C27.9832 30.0256 28.2903 30.1363 28.6182 30.3257C29.0663 30.5843 29.4496 30.923 29.7683 31.3417C30.087 31.7604 30.2926 32.1964 30.3849 32.6497L29.5675 32.7137C29.4843 32.415 29.3596 32.1484 29.1933 31.9137C29.027 31.6737 28.8192 31.4817 28.5698 31.3377C28.3435 31.207 28.1587 31.1617 28.0155 31.2016C27.877 31.239 27.8077 31.3563 27.8077 31.5536C27.8077 31.703 27.8516 31.8536 27.9394 32.0056C28.0271 32.1523 28.138 32.2963 28.2719 32.4377C28.4105 32.5763 28.5952 32.7523 28.8262 32.9657C29.1587 33.2697 29.4335 33.543 29.6506 33.7857C29.8677 34.023 30.0525 34.3004 30.2049 34.6177C30.3619 34.9324 30.4405 35.2737 30.4405 35.6417ZM32.6283 34.353C32.9469 34.537 33.2287 34.7823 33.4735 35.089C33.7229 35.393 33.9146 35.733 34.0485 36.109C34.1871 36.4824 34.2564 36.861 34.2564 37.245C34.2564 37.4157 34.2426 37.581 34.2149 37.741L31.8316 36.365C31.8732 36.6983 31.9702 36.989 32.1226 37.237C32.275 37.4796 32.4644 37.6663 32.6907 37.797C32.8524 37.8903 32.9955 37.933 33.1202 37.925C33.2496 37.9143 33.3489 37.8463 33.4181 37.721L34.1248 38.609C34.0278 38.857 33.8408 38.9837 33.5637 38.989C33.2912 38.997 32.9863 38.9037 32.6492 38.709C32.3259 38.5223 32.0256 38.2663 31.7485 37.941C31.4714 37.6156 31.2474 37.2383 31.0765 36.8089C30.9102 36.3823 30.827 35.9369 30.827 35.4729C30.827 35.0143 30.9101 34.6703 31.0764 34.4409C31.2473 34.2143 31.469 34.0969 31.7415 34.089C32.014 34.081 32.3096 34.169 32.6283 34.353ZM32.6006 35.241C32.4112 35.1316 32.2495 35.1076 32.1156 35.169C31.9817 35.2303 31.8916 35.373 31.8454 35.597L33.2726 36.421C33.2541 36.1543 33.1825 35.9183 33.0578 35.713C32.9377 35.505 32.7853 35.3477 32.6006 35.241ZM36.5056 39.9677C36.7827 40.1277 37.0044 40.0984 37.1707 39.8797L37.9051 40.7997C37.7896 41.0424 37.6072 41.1717 37.3578 41.1877C37.1084 41.2037 36.8243 41.1197 36.5056 40.9357C36.1869 40.7517 35.889 40.497 35.6119 40.1716C35.3348 39.841 35.1107 39.4636 34.9398 39.0396C34.7689 38.6103 34.6835 38.1689 34.6835 37.7156C34.6835 37.2569 34.7689 36.9143 34.9398 36.6876C35.1107 36.4556 35.3347 36.337 35.6118 36.3316C35.8889 36.321 36.1868 36.4077 36.5055 36.5917C36.8242 36.7757 37.1082 37.0197 37.3576 37.3237C37.6071 37.6277 37.7895 37.9677 37.905 38.3437L37.1706 38.4157C37.009 38.013 36.7873 37.7303 36.5055 37.5677C36.2561 37.4237 36.0552 37.417 35.9028 37.5476C35.755 37.6756 35.6811 37.9236 35.6811 38.2916C35.6811 38.6543 35.7573 38.989 35.9098 39.2956C36.0622 39.6023 36.2608 39.8263 36.5056 39.9677ZM41.5488 40.7116C42.1077 41.2637 42.3872 41.8757 42.3872 42.5477C42.3872 43.0757 42.2186 43.3917 41.8815 43.4957C41.5489 43.6023 41.0801 43.481 40.4751 43.1316L38.4521 41.9635L38.4519 36.1075L40.2878 37.1676C40.8282 37.4796 41.267 37.877 41.6042 38.3596C41.946 38.8397 42.1169 39.3383 42.1169 39.8557C42.1169 40.3943 41.9276 40.6797 41.5488 40.7116ZM39.4357 37.6836L39.4358 39.0676L40.1909 39.5036C40.4634 39.6609 40.6782 39.7209 40.8352 39.6836C40.9969 39.6436 41.0777 39.5143 41.0777 39.2956C41.0777 39.0823 40.9992 38.8743 40.8421 38.6716C40.6851 38.4636 40.468 38.2796 40.1909 38.1196L39.4357 37.6836ZM40.3919 42.0756C40.6967 42.2516 40.93 42.3223 41.0916 42.2876C41.2579 42.2556 41.341 42.1223 41.341 41.8876C41.341 41.653 41.2579 41.421 41.0916 41.1916C40.9299 40.965 40.6944 40.7623 40.3849 40.5836L39.4358 40.0356L39.4358 41.5236L40.3919 42.0756ZM44.0409 45.1905L43.0779 44.6344L43.0777 38.5464L44.0407 39.1025L44.0409 45.1905ZM46.4488 42.3329C46.9338 42.6129 47.3125 42.9916 47.585 43.4689C47.8575 43.9409 47.9938 44.4702 47.9938 45.0569L47.9939 47.4729L47.1833 47.0049C47.1787 46.9596 47.1717 46.8862 47.1625 46.7849C47.1579 46.6809 47.1486 46.5875 47.1348 46.5049C47.0286 46.6355 46.89 46.6995 46.7191 46.6969C46.5528 46.6915 46.3496 46.6195 46.1095 46.4808C45.86 46.3368 45.6314 46.1542 45.4236 45.9328C45.2203 45.7142 45.0587 45.4741 44.9386 45.2128C44.8185 44.9461 44.7584 44.6795 44.7584 44.4128C44.7584 44.1355 44.8254 43.9341 44.9593 43.8088C45.0979 43.6808 45.2826 43.6275 45.5136 43.6488C45.7445 43.6702 45.9985 43.7608 46.2756 43.9209C46.5251 44.0649 46.7814 44.2609 47.0447 44.5089C47.0308 43.8875 46.8045 43.4502 46.3657 43.1969C46.0147 42.9942 45.7583 43.0275 45.5967 43.2968L44.9108 42.4448C45.0401 42.2101 45.2387 42.0822 45.5066 42.0608C45.7745 42.0342 46.0885 42.1248 46.4488 42.3329ZM47.0447 45.2449C46.8137 45.0475 46.6128 44.8995 46.4419 44.8009C46.2156 44.6702 46.0401 44.6168 45.9154 44.6408C45.7907 44.6595 45.7284 44.7542 45.7284 44.9248C45.7284 45.0795 45.7769 45.2275 45.8739 45.3688C45.9755 45.5128 46.1048 45.6302 46.2618 45.7209C46.4697 45.8409 46.6521 45.8795 46.8092 45.8369C46.9662 45.7889 47.0447 45.6449 47.0447 45.4049L47.0447 45.2449ZM51.3362 43.3148L52.2992 43.8709L52.2994 49.9589L51.4541 49.4708C51.431 49.1482 51.4125 48.9295 51.3987 48.8148C51.274 48.9828 51.11 49.0695 50.9068 49.0748C50.7082 49.0775 50.4911 49.0108 50.2556 48.8748C49.96 48.7041 49.6898 48.4628 49.445 48.1508C49.2002 47.8388 49.0039 47.4774 48.8561 47.0667C48.7083 46.6507 48.6344 46.2187 48.6343 45.7707C48.6343 45.3174 48.7082 44.9707 48.856 44.7307C49.0038 44.4854 49.2001 44.3481 49.4449 44.3188C49.6897 44.2894 49.9598 44.3601 50.2554 44.5308C50.4725 44.6561 50.6734 44.8228 50.8582 45.0308C51.0476 45.2415 51.2069 45.4882 51.3362 45.7708L51.3362 43.3148ZM50.4772 48.0508C50.7174 48.1895 50.9206 48.2055 51.0869 48.0988C51.2532 47.9922 51.3363 47.7362 51.3363 47.3308C51.3363 46.9308 51.2531 46.5868 51.0869 46.2988C50.9206 46.0055 50.7173 45.7895 50.4772 45.6508C50.2231 45.5041 50.0176 45.4895 49.8606 45.6068C49.7082 45.7268 49.632 45.9734 49.632 46.3468C49.632 46.7201 49.7082 47.0601 49.8606 47.3668C50.0177 47.6761 50.2232 47.9041 50.4772 48.0508ZM54.7927 47.1506C55.1114 47.3346 55.3931 47.5799 55.6379 47.8866C55.8873 48.1906 56.079 48.5306 56.213 48.9066C56.3515 49.2799 56.4208 49.6586 56.4208 50.0426C56.4208 50.2133 56.407 50.3786 56.3793 50.5386L53.996 49.1625C54.0376 49.4959 54.1346 49.7865 54.287 50.0345C54.4395 50.2772 54.6288 50.4639 54.8551 50.5946C55.0168 50.6879 55.16 50.7306 55.2847 50.7226C55.414 50.7119 55.5133 50.6439 55.5826 50.5186L56.2893 51.4066C56.1923 51.6546 56.0052 51.7813 55.7281 51.7866C55.4556 51.7946 55.1508 51.7012 54.8136 51.5066C54.4903 51.3199 54.1901 51.0639 53.9129 50.7385C53.6358 50.4132 53.4118 50.0359 53.2409 49.6065C53.0746 49.1798 52.9915 48.7345 52.9915 48.2705C52.9914 47.8118 53.0746 47.4678 53.2408 47.2385C53.4117 47.0119 53.6334 46.8945 53.9059 46.8865C54.1784 46.8785 54.474 46.9666 54.7927 47.1506ZM54.765 48.0386C54.5756 47.9292 54.414 47.9052 54.28 47.9665C54.1461 48.0279 54.056 48.1705 54.0099 48.3945L55.437 49.2186C55.4186 48.9519 55.347 48.7159 55.2223 48.5106C55.1022 48.3026 54.9497 48.1452 54.765 48.0386Z" fill="white"/>
<defs>
<filter id="filter0_b_54_1615" x="-135.914" y="-135.914" width="392.329" height="341.828" filterUnits="userSpaceOnUse" color-interpolation-filters="sRGB">
<feFlood flood-opacity="0" result="BackgroundImageFix"/>
<feGaussianBlur in="BackgroundImageFix" stdDeviation="67.957"/>
<feComposite in2="SourceAlpha" operator="in" result="effect1_backgroundBlur_54_1615"/>
<feBlend mode="normal" in="SourceGraphic" in2="effect1_backgroundBlur_54_1615" result="shape"/>
</filter>
<filter id="filter1_b_54_1615" x="20" y="19.6446" width="45.9307" height="30.1385" filterUnits="userSpaceOnUse" color-interpolation-filters="sRGB">
<feFlood flood-opacity="0" result="BackgroundImageFix"/>
<feGaussianBlur in="BackgroundImageFix" stdDeviation="2"/>
<feComposite in2="SourceAlpha" operator="in" result="effect1_backgroundBlur_54_1615"/>
<feBlend mode="normal" in="SourceGraphic" in2="effect1_backgroundBlur_54_1615" result="shape"/>
</filter>
<filter id="filter2_d_54_1615" x="46" y="17" width="34" height="21" filterUnits="userSpaceOnUse" color-interpolation-filters="sRGB">
<feFlood flood-opacity="0" result="BackgroundImageFix"/>
<feColorMatrix in="SourceAlpha" type="matrix" values="0 0 0 0 0 0 0 0 0 0 0 0 0 0 0 0 0 0 127 0" result="hardAlpha"/>
<feOffset dy="1"/>
<feColorMatrix type="matrix" values="0 0 0 0 0.44769 0 0 0 0 0 0 0 0 0 0.0159889 0 0 0 1 0"/>
<feBlend mode="normal" in2="BackgroundImageFix" result="effect1_dropShadow_54_1615"/>
<feBlend mode="normal" in="SourceGraphic" in2="effect1_dropShadow_54_1615" result="shape"/>
</filter>
<filter id="filter3_d_54_1615" x="40" y="14" width="38" height="23" filterUnits="userSpaceOnUse" color-interpolation-filters="sRGB">
<feFlood flood-opacity="0" result="BackgroundImageFix"/>
<feColorMatrix in="SourceAlpha" type="matrix" values="0 0 0 0 0 0 0 0 0 0 0 0 0 0 0 0 0 0 127 0" result="hardAlpha"/>
<feOffset dy="1"/>
<feColorMatrix type="matrix" values="0 0 0 0 0.11641 0 0 0 0 0.237537 0 0 0 0 0.536317 0 0 0 1 0"/>
<feBlend mode="normal" in2="BackgroundImageFix" result="effect1_dropShadow_54_1615"/>
<feBlend mode="normal" in="SourceGraphic" in2="effect1_dropShadow_54_1615" result="shape"/>
</filter>
</defs>
</svg>
