<svg width="121" height="88" viewBox="0 0 121 88" fill="none" xmlns="http://www.w3.org/2000/svg">
<path fill-rule="evenodd" clip-rule="evenodd" d="M0 35L60.3755 70V88L0 53V35Z" fill="#265B6E" fill-opacity="0.8"/>
<g filter="url(#filter0_b_54_1625)">
<path fill-rule="evenodd" clip-rule="evenodd" d="M60.125 0L120.501 35L60.3755 70L0 35L60.125 0Z" fill="#265B6E" fill-opacity="0.7"/>
</g>
<path fill-rule="evenodd" clip-rule="evenodd" d="M120.501 35L60.125 70V88L120.501 53V35Z" fill="#265B6E"/>
<g filter="url(#filter1_d_54_1625)">
<path fill-rule="evenodd" clip-rule="evenodd" d="M43.0794 17.9994L37.582 21.1887C43.507 24.8474 47.1359 29.7696 47.1359 35.183C47.1359 40.5549 43.5624 45.4432 37.7179 49.093L43.2456 52.2628C50.3566 47.7936 54.7102 41.7874 54.7102 35.183C54.7102 28.5274 50.2887 22.4792 43.0794 17.9994ZM33.5217 23.5443L28.4035 26.5137C32.2475 28.7611 34.6112 31.8166 34.6112 35.183C34.6112 38.5241 32.2829 41.559 28.49 43.8015L33.6336 46.751C38.4096 43.712 41.3281 39.648 41.3281 35.183C41.3281 30.6833 38.364 26.5908 33.5217 23.5443ZM24.3787 41.444C27.1918 39.8137 28.9181 37.6094 28.9181 35.183C28.9181 32.7385 27.1658 30.5193 24.3151 28.8855L19.9566 31.4141C21.2891 32.2903 22.0864 33.4034 22.0864 34.6149C22.0864 36.0936 20.8985 37.4257 18.9994 38.3594L24.3787 41.444ZM78.6309 17.9994L84.1282 21.1887C78.2032 24.8474 74.5743 29.7696 74.5743 35.183C74.5743 40.5549 78.1478 45.4432 83.9923 49.093L78.4646 52.2628C71.3536 47.7936 67 41.7874 67 35.183C67 28.5274 71.4215 22.4792 78.6309 17.9994ZM88.1885 23.5443L93.3068 26.5137C89.4628 28.7611 87.099 31.8166 87.099 35.183C87.099 38.5241 89.4273 41.559 93.2202 43.8015L88.0766 46.751C83.3006 43.712 80.3821 39.648 80.3821 35.183C80.3821 30.6833 83.3462 26.5908 88.1885 23.5443ZM97.3316 41.444C94.5184 39.8137 92.7921 37.6094 92.7921 35.183C92.7921 32.7385 94.5444 30.5193 97.3951 28.8855L101.754 31.4141C100.421 32.2903 99.6238 33.4034 99.6238 34.6149C99.6238 36.0936 100.812 37.4257 102.711 38.3594L97.3316 41.444ZM63.7102 33.183H57.7102V37.183H63.7102V33.183Z" fill="white"/>
</g>
<defs>
<filter id="filter0_b_54_1625" x="-135.914" y="-135.914" width="392.329" height="341.828" filterUnits="userSpaceOnUse" color-interpolation-filters="sRGB">
<feFlood flood-opacity="0" result="BackgroundImageFix"/>
<feGaussianBlur in="BackgroundImageFix" stdDeviation="67.957"/>
<feComposite in2="SourceAlpha" operator="in" result="effect1_backgroundBlur_54_1625"/>
<feBlend mode="normal" in="SourceGraphic" in2="effect1_backgroundBlur_54_1625" result="shape"/>
</filter>
<filter id="filter1_d_54_1625" x="18.9994" y="17.9994" width="83.7114" height="36.2634" filterUnits="userSpaceOnUse" color-interpolation-filters="sRGB">
<feFlood flood-opacity="0" result="BackgroundImageFix"/>
<feColorMatrix in="SourceAlpha" type="matrix" values="0 0 0 0 0 0 0 0 0 0 0 0 0 0 0 0 0 0 127 0" result="hardAlpha"/>
<feOffset dy="2"/>
<feComposite in2="hardAlpha" operator="out"/>
<feColorMatrix type="matrix" values="0 0 0 0 0.14902 0 0 0 0 0.356863 0 0 0 0 0.431373 0 0 0 1 0"/>
<feBlend mode="normal" in2="BackgroundImageFix" result="effect1_dropShadow_54_1625"/>
<feBlend mode="normal" in="SourceGraphic" in2="effect1_dropShadow_54_1625" result="shape"/>
</filter>
</defs>
</svg>
