<svg width="121" height="88" viewBox="0 0 121 88" fill="none" xmlns="http://www.w3.org/2000/svg">
<path fill-rule="evenodd" clip-rule="evenodd" d="M0 35L60.25 70V88L0 53V35Z" fill="#03571F" fill-opacity="0.8"/>
<g filter="url(#filter0_b_54_1615)">
<path fill-rule="evenodd" clip-rule="evenodd" d="M60 0L120.25 35L60.25 70L0 35L60 0Z" fill="#03571F" fill-opacity="0.7"/>
</g>
<path fill-rule="evenodd" clip-rule="evenodd" d="M120.25 35L60 70V88L120.25 53V35Z" fill="#03571F"/>
<path fill-rule="evenodd" clip-rule="evenodd" d="M60.0436 8L65.0502 10.9145L60.6949 13.5663L63.4723 15.1898L67.7532 12.488L77.1276 17.9729L73.193 20.2922L75.7389 21.9157L79.5541 19.3575L90.5514 25.8584L86.1539 28.4096L88.237 29.5693L92.6076 27.0106L95.2353 28.3675L61.802 47.8494L59.2981 45.7831L27.1903 27.0392L60.0436 8Z" fill="#03571F" fill-opacity="0.7"/>
<path fill-rule="evenodd" clip-rule="evenodd" d="M23.9501 25.1205L59.2981 45.7831V57L23.9501 36.3374V25.1205Z" fill="#03571F" fill-opacity="0.8"/>
<path fill-rule="evenodd" clip-rule="evenodd" d="M65.0422 10.9518L60.7499 13.5662L63.5273 15.1897L65.0422 14.3464V10.9518ZM77.1826 17.9729L73.248 20.2921L75.7939 21.9156L77.1826 20.9879V17.9729ZM85.9775 28.4096L90.6064 25.8584V28.1777L88.2919 29.5693L85.9775 28.4096ZM61.802 47.8494L95.2353 28.3674V31.8566L61.802 51.5391V55.5241L59.2982 57V45.7831L61.802 44.3072V47.8494Z" fill="#03571F"/>
<g filter="url(#filter1_b_54_1615)">
<path fill-rule="evenodd" clip-rule="evenodd" d="M23.9501 25.1205L59.2981 45.7831L61.802 44.3072L26.4539 23.6446L23.9501 25.1205Z" fill="#03571F" fill-opacity="0.8"/>
</g>
<g filter="url(#filter2_d_54_1615)">
<path fill-rule="evenodd" clip-rule="evenodd" d="M45.9044 33.0839L73.1316 17L79.8337 20.9161L52.6064 37L45.9044 33.0839ZM70.9365 19.7212L72.1979 19L75.842 21.3077L74.5806 22.0288L70.9365 19.7212ZM67.5727 21.7404L68.8341 21.0192L72.4782 23.3269L71.2168 24.0481L67.5727 21.7404ZM65.4703 23.0385L64.2089 23.7596L67.853 26.0673L69.1144 25.3462L65.4703 23.0385ZM60.8451 25.7788L62.1066 25.0577L65.7507 27.3654L64.4892 28.0865L60.8451 25.7788ZM58.7428 27.0769L57.4814 27.7981L61.1255 30.1058L62.3869 29.3846L58.7428 27.0769ZM54.1176 29.8173L55.379 29.0962L59.0231 31.4038L57.7617 32.125L54.1176 29.8173ZM52.1554 30.9712L50.894 31.6923L54.5381 34L55.7995 33.2788L52.1554 30.9712Z" fill="#C31B21"/>
</g>
<g filter="url(#filter3_d_54_1615)">
<path fill-rule="evenodd" clip-rule="evenodd" d="M39.9168 24.3784L42.6399 22.7928L48.5159 26.3964V23.5135H53.3888L47.5127 20.0541L50.2358 18.3243L56.1118 22.0721V18.9009H60.698L55.1086 15.5856L57.975 14L63.7077 17.6036V14.5766H66.8607V21.0631H59.4081V25.5315H51.8123V30H40.9201V27.982H45.7929L39.9168 24.3784ZM64.8649 30.4808L67.4031 29L74.4536 32.7692V30.0769H77.8378L77.6968 36H66.839V34.1154H71.7744L64.8649 30.4808Z" fill="white"/>
</g>
<path d="M15.0062 55.8288C15.0063 56.4288 14.8712 56.8547 14.6012 57.1064C14.3381 57.3542 13.9919 57.4499 13.5626 57.3935C13.1402 57.3411 12.6866 57.1747 12.2019 56.8942C11.4956 56.4855 10.8586 55.9289 10.2907 55.2244C9.72293 54.5119 9.34553 53.7535 9.15854 52.9494L10.3842 52.8545C10.5504 53.3987 10.7927 53.8869 11.1113 54.3192C11.4298 54.7515 11.8106 55.0958 12.2538 55.3522C12.6139 55.5606 12.8978 55.6408 13.1055 55.593C13.3202 55.5492 13.4275 55.3673 13.4275 55.0473C13.4275 54.7913 13.3547 54.5373 13.2093 54.2851C13.0708 54.037 12.8943 53.8028 12.6796 53.5826C12.4719 53.3665 12.1845 53.0882 11.8175 52.7478C11.3258 52.2954 10.9242 51.899 10.6126 51.5587C10.301 51.2104 10.0344 50.8082 9.81281 50.352C9.59122 49.8958 9.48041 49.3997 9.4804 48.8637C9.48038 48.2957 9.60847 47.8898 9.86466 47.646C10.1278 47.3983 10.4705 47.3006 10.8929 47.353C11.3222 47.4014 11.7827 47.5678 12.2743 47.8523C12.946 48.2409 13.5207 48.7494 13.9985 49.3779C14.4763 50.0063 14.7845 50.6606 14.923 51.3407L13.6974 51.4356C13.5727 50.9875 13.3858 50.5873 13.1365 50.2351C12.8872 49.8748 12.5756 49.5865 12.2017 49.3702C11.8624 49.1739 11.5854 49.1056 11.3708 49.1654C11.163 49.2212 11.0592 49.3971 11.0592 49.6931C11.0592 49.9171 11.125 50.1432 11.2565 50.3713C11.3881 50.5914 11.5543 50.8076 11.7551 51.0198C11.9628 51.228 12.2398 51.4922 12.5861 51.8126C13.0846 52.269 13.4966 52.6794 13.8221 53.0437C14.1475 53.4 14.4245 53.8163 14.6531 54.2925C14.8885 54.7647 15.0062 55.2768 15.0062 55.8288ZM21.1113 53.1213L22.6903 59.9388L24.1442 54.8761L25.5984 55.7175L23.2305 63.1313L22.0672 62.4582L20.4674 55.7967L18.92 60.6373L17.7671 59.9702L15.2948 49.7559L16.8528 50.6573L18.411 57.4628L19.9065 52.4242L21.1113 53.1213ZM27.9757 65.8769L26.4697 65.0055L26.4694 56.2215L27.9755 57.0929L27.9757 65.8769ZM28.8464 57.5968L34.9746 61.1425L34.9746 62.6905L32.6688 61.3564L32.669 68.5924L31.1525 67.7149L31.1523 60.4789L28.8465 59.1448L28.8464 57.5968ZM38.8192 70.6989C39.1862 70.9112 39.5012 70.9815 39.7643 70.9097C40.0344 70.842 40.249 70.6542 40.4083 70.3463L41.6651 71.9135C41.4782 72.3973 41.1354 72.687 40.6369 72.7825C40.1383 72.8701 39.5428 72.7135 38.8504 72.3129C38.1787 71.9243 37.5659 71.3817 37.0119 70.6852C36.4579 69.9886 36.0182 69.2022 35.6928 68.3259C35.3673 67.4416 35.2045 66.5515 35.2045 65.6555C35.2045 64.7595 35.3637 64.0596 35.6822 63.5559C36.0076 63.0562 36.4473 62.7786 37.0013 62.7232C37.5621 62.6717 38.1784 62.8403 38.8501 63.2289C39.5425 63.6295 40.138 64.1661 40.6366 64.8385C41.1352 65.503 41.478 66.1853 41.6649 66.8855L40.4082 66.9983C40.2489 66.5062 40.0342 66.07 39.7642 65.6897C39.501 65.3135 39.186 65.0192 38.819 64.8069C38.4312 64.5825 38.085 64.5022 37.7803 64.5659C37.4757 64.6296 37.2333 64.8334 37.0533 65.1772C36.8802 65.517 36.7936 65.983 36.7937 66.575C36.7937 67.167 36.8803 67.737 37.0534 68.2852C37.2334 68.8374 37.4758 69.3216 37.7805 69.7379C38.0852 70.1542 38.4314 70.4745 38.8192 70.6989ZM44.1439 69.9038L47.5715 71.887L47.5714 68.431L49.0879 69.3084L49.0882 78.0924L47.5717 77.215L47.5716 73.435L44.144 71.4518L44.1441 75.2318L42.638 74.3604L42.6377 65.5764L44.1438 66.4478L44.1439 69.9038Z" fill="white"/>
<path d="M30.3599 35.6317C30.3599 36.0317 30.2699 36.3156 30.0899 36.4835C29.9144 36.6486 29.6836 36.7124 29.3974 36.6748C29.1158 36.6399 28.8135 36.5289 28.4903 36.342C28.0195 36.0695 27.5948 35.6985 27.2162 35.2288C26.8377 34.7538 26.5861 34.2482 26.4614 33.7121L27.2785 33.6488C27.3893 34.0116 27.5509 34.3371 27.7632 34.6253C27.9756 34.9135 28.2295 35.1431 28.5249 35.314C28.765 35.4529 28.9542 35.5064 29.0927 35.4745C29.2358 35.4453 29.3074 35.3241 29.3074 35.1107C29.3074 34.9401 29.2589 34.7707 29.1619 34.6026C29.0696 34.4372 28.9519 34.2811 28.8088 34.1343C28.6703 33.9901 28.4787 33.8046 28.234 33.5777C27.9063 33.2761 27.6385 33.0118 27.4308 32.785C27.2231 32.5528 27.0453 32.2846 26.8976 31.9805C26.7499 31.6763 26.676 31.3456 26.676 30.9883C26.676 30.6096 26.7614 30.339 26.9322 30.1765C27.1076 30.0113 27.3361 29.9462 27.6177 29.9812C27.9039 30.0134 28.2108 30.1244 28.5386 30.314C28.9864 30.5731 29.3695 30.9121 29.6881 31.3311C30.0066 31.7501 30.212 32.1862 30.3044 32.6397L29.4873 32.7029C29.4042 32.4042 29.2796 32.1374 29.1134 31.9026C28.9472 31.6624 28.7394 31.4702 28.4902 31.326C28.264 31.1951 28.0793 31.1496 27.9362 31.1895C27.7977 31.2267 27.7285 31.3439 27.7285 31.5413C27.7285 31.6906 27.7724 31.8413 27.8601 31.9934C27.9478 32.1401 28.0586 32.2842 28.1925 32.4257C28.3309 32.5645 28.5156 32.7407 28.7464 32.9542C29.0788 33.2585 29.3535 33.5321 29.5704 33.775C29.7874 34.0125 29.9721 34.29 30.1244 34.6075C30.2814 34.9223 30.3599 35.2637 30.3599 35.6317ZM32.5465 34.3449C32.865 34.5292 33.1466 34.7748 33.3913 35.0817C33.6406 35.386 33.8322 35.7261 33.9661 36.1023C34.1046 36.4757 34.1738 36.8545 34.1738 37.2385C34.1738 37.4091 34.16 37.5745 34.1323 37.7344L31.7503 36.3562C31.7918 36.6896 31.8888 36.9803 32.0411 37.2285C32.1935 37.4713 32.3827 37.6581 32.6089 37.789C32.7705 37.8825 32.9136 37.9253 33.0383 37.9174C33.1675 37.9069 33.2668 37.839 33.336 37.7137L34.0423 38.6023C33.9454 38.8503 33.7584 38.9767 33.4815 38.9818C33.2091 38.9896 32.9044 38.8959 32.5674 38.701C32.2443 38.514 31.9442 38.2577 31.6672 37.9321C31.3903 37.6065 31.1664 37.229 30.9955 36.7995C30.8293 36.3727 30.7462 35.9273 30.7462 35.4633C30.7462 35.0046 30.8293 34.6607 30.9955 34.4315C31.1663 34.205 31.3878 34.0879 31.6602 34.0801C31.9326 34.0724 32.228 34.1606 32.5465 34.3449ZM32.5188 35.2329C32.3296 35.1234 32.168 35.0993 32.0341 35.1605C31.9003 35.2217 31.8103 35.3643 31.7641 35.5882L33.1905 36.4135C33.1721 36.1469 33.1005 35.9108 32.9759 35.7053C32.8558 35.4972 32.7035 35.3398 32.5188 35.2329ZM36.4218 39.9631C36.6988 40.1234 36.9204 40.0943 37.0866 39.8757L37.8206 40.7964C37.7052 41.039 37.5228 41.1682 37.2736 41.1839C37.0243 41.1997 36.7404 41.1154 36.4219 40.9311C36.1033 40.7468 35.8056 40.4919 35.5286 40.1663C35.2516 39.8354 35.0277 39.4578 34.8569 39.0337C34.6861 38.6042 34.6007 38.1628 34.6007 37.7094C34.6007 37.2508 34.686 36.9082 34.8568 36.6817C35.0276 36.4498 35.2515 36.3314 35.5285 36.3263C35.8055 36.3159 36.1032 36.4028 36.4217 36.5871C36.7403 36.7714 37.0242 37.0157 37.2734 37.3199C37.5227 37.6242 37.7051 37.9643 37.8205 38.3404L37.0865 38.4117C36.9249 38.0089 36.7034 37.7261 36.4218 37.5631C36.1725 37.4189 35.9717 37.412 35.8193 37.5426C35.6716 37.6704 35.5978 37.9184 35.5978 38.2864C35.5978 38.649 35.674 38.9838 35.8263 39.2906C35.9787 39.5974 36.1772 39.8216 36.4218 39.9631ZM41.4625 40.7116C42.021 41.2642 42.3003 41.8764 42.3004 42.5484C42.3004 43.0764 42.1319 43.3923 41.7949 43.496C41.4625 43.6023 40.994 43.4805 40.3893 43.1306L38.3673 41.9608L38.3671 36.1048L40.2021 37.1665C40.7422 37.479 41.1808 37.8767 41.5178 38.3597C41.8594 38.84 42.0302 39.3388 42.0302 39.8562C42.0302 40.3948 41.841 40.68 41.4625 40.7116ZM39.3504 37.6817L39.3505 39.0657L40.1052 39.5024C40.3776 39.66 40.5923 39.7202 40.7492 39.683C40.9108 39.6431 40.9916 39.5139 40.9916 39.2952C40.9916 39.0819 40.9131 38.8738 40.7561 38.671C40.5992 38.4628 40.3822 38.2786 40.1052 38.1184L39.3504 37.6817ZM40.3061 42.0746C40.6108 42.2508 40.8439 42.3217 41.0055 42.2872C41.1717 42.2554 41.2548 42.1221 41.2548 41.8875C41.2548 41.6528 41.1717 41.4207 41.0055 41.1912C40.8439 40.9644 40.6085 40.7615 40.2992 40.5826L39.3505 40.0337L39.3506 41.5217L40.3061 42.0746ZM43.9532 45.1927L42.9907 44.6358L42.9905 38.5478L43.953 39.1047L43.9532 45.1927ZM46.3599 42.3373C46.8446 42.6177 47.2231 42.9968 47.4955 43.4743C47.7679 43.9466 47.9041 44.4761 47.9041 45.0627L47.9041 47.4787L47.094 47.01C47.0894 46.9646 47.0824 46.8913 47.0732 46.7899C47.0686 46.6859 47.0593 46.5926 47.0455 46.5099C46.9393 46.6405 46.8008 46.7044 46.63 46.7015C46.4639 46.696 46.2607 46.6239 46.0207 46.485C45.7714 46.3407 45.5429 46.1579 45.3352 45.9363C45.132 45.7175 44.9705 45.4773 44.8504 45.2159C44.7304 44.9491 44.6704 44.6824 44.6704 44.4157C44.6704 44.1384 44.7373 43.9371 44.8712 43.8119C45.0097 43.684 45.1943 43.6309 45.4251 43.6524C45.6559 43.674 45.9098 43.7649 46.1868 43.9251C46.4361 44.0694 46.6923 44.2656 46.9554 44.5138C46.9415 43.8925 46.7153 43.4549 46.2768 43.2012C45.926 42.9982 45.6698 43.0313 45.5082 43.3005L44.8227 42.4478C44.9519 42.2133 45.1504 42.0855 45.4181 42.0644C45.6859 42.038 45.9998 42.1289 46.3599 42.3373ZM46.9554 45.2498C46.7246 45.0523 46.5238 44.9041 46.353 44.8053C46.1268 44.6744 45.9514 44.6209 45.8268 44.6448C45.7021 44.6633 45.6398 44.7579 45.6398 44.9286C45.6398 45.0833 45.6883 45.2313 45.7852 45.3727C45.8868 45.5168 46.0161 45.6343 46.173 45.7251C46.3807 45.8453 46.5631 45.8841 46.72 45.8416C46.877 45.7938 46.9555 45.6498 46.9554 45.4098L46.9554 45.2498ZM51.2447 43.3237L52.2072 43.8806L52.2074 49.9686L51.3626 49.4798C51.3395 49.1571 51.321 48.9384 51.3072 48.8237C51.1825 48.9916 51.0187 49.0781 50.8156 49.0833C50.6171 49.0857 50.4001 49.0189 50.1647 48.8826C49.8692 48.7117 49.5992 48.4701 49.3545 48.1579C49.1098 47.8457 48.9136 47.4841 48.7659 47.0733C48.6182 46.6572 48.5443 46.2251 48.5443 45.7771C48.5443 45.3238 48.6181 44.9772 48.7658 44.7373C48.9135 44.4921 49.1097 44.355 49.3544 44.3259C49.599 44.2968 49.8691 44.3677 50.1645 44.5386C50.3815 44.6642 50.5823 44.831 50.767 45.0392C50.9562 45.2501 51.1155 45.4969 51.2448 45.7797L51.2447 43.3237ZM50.3862 48.0589C50.6263 48.1977 50.8294 48.2139 50.9956 48.1074C51.1617 48.0009 51.2448 47.745 51.2448 47.3397C51.2448 46.9397 51.1617 46.5956 50.9955 46.3074C50.8293 46.0139 50.6262 45.7977 50.3861 45.6589C50.1322 45.5119 49.9268 45.4971 49.7699 45.6143C49.6175 45.7341 49.5414 45.9807 49.5414 46.3541C49.5414 46.7274 49.6176 47.0675 49.7699 47.3743C49.9269 47.6838 50.1323 47.9119 50.3862 48.0589ZM54.6994 47.1625C55.0179 47.3468 55.2995 47.5924 55.5442 47.8993C55.7935 48.2035 55.9851 48.5437 56.1189 48.9198C56.2574 49.2933 56.3267 49.672 56.3267 50.056C56.3267 50.2267 56.3129 50.392 56.2852 50.552L53.9032 49.1738C53.9447 49.5071 54.0417 49.7979 54.194 50.046C54.3464 50.2888 54.5356 50.4757 54.7618 50.6066C54.9234 50.7 55.0665 50.7428 55.1911 50.735C55.3204 50.7244 55.4196 50.6565 55.4889 50.5312L56.1952 51.4199C56.0983 51.6678 55.9113 51.7943 55.6343 51.7994C55.362 51.8071 55.0573 51.7135 54.7203 51.5185C54.3972 51.3316 54.0971 51.0753 53.8201 50.7497C53.5431 50.4241 53.3192 50.0465 53.1484 49.6171C52.9822 49.1902 52.8991 48.7448 52.8991 48.2808C52.8991 47.8222 52.9822 47.4782 53.1484 47.2491C53.3191 47.0225 53.5407 46.9054 53.8131 46.8977C54.0854 46.8899 54.3809 46.9782 54.6994 47.1625ZM54.6717 48.0505C54.4825 47.941 54.3209 47.9168 54.187 47.978C54.0532 48.0392 53.9631 48.1818 53.917 48.4058L55.3434 49.2311C55.325 48.9644 55.2534 48.7284 55.1288 48.5229C55.0087 48.3148 54.8564 48.1573 54.6717 48.0505Z" fill="white"/>
<defs>
<filter id="filter0_b_54_1615" x="-135.914" y="-135.914" width="392.078" height="341.828" filterUnits="userSpaceOnUse" color-interpolation-filters="sRGB">
<feFlood flood-opacity="0" result="BackgroundImageFix"/>
<feGaussianBlur in="BackgroundImageFix" stdDeviation="67.957"/>
<feComposite in2="SourceAlpha" operator="in" result="effect1_backgroundBlur_54_1615"/>
<feBlend mode="normal" in="SourceGraphic" in2="effect1_backgroundBlur_54_1615" result="shape"/>
</filter>
<filter id="filter1_b_54_1615" x="19.9501" y="19.6446" width="45.8519" height="30.1385" filterUnits="userSpaceOnUse" color-interpolation-filters="sRGB">
<feFlood flood-opacity="0" result="BackgroundImageFix"/>
<feGaussianBlur in="BackgroundImageFix" stdDeviation="2"/>
<feComposite in2="SourceAlpha" operator="in" result="effect1_backgroundBlur_54_1615"/>
<feBlend mode="normal" in="SourceGraphic" in2="effect1_backgroundBlur_54_1615" result="shape"/>
</filter>
<filter id="filter2_d_54_1615" x="45.9044" y="17" width="33.9293" height="21" filterUnits="userSpaceOnUse" color-interpolation-filters="sRGB">
<feFlood flood-opacity="0" result="BackgroundImageFix"/>
<feColorMatrix in="SourceAlpha" type="matrix" values="0 0 0 0 0 0 0 0 0 0 0 0 0 0 0 0 0 0 127 0" result="hardAlpha"/>
<feOffset dy="1"/>
<feColorMatrix type="matrix" values="0 0 0 0 0.44769 0 0 0 0 0 0 0 0 0 0.0159889 0 0 0 1 0"/>
<feBlend mode="normal" in2="BackgroundImageFix" result="effect1_dropShadow_54_1615"/>
<feBlend mode="normal" in="SourceGraphic" in2="effect1_dropShadow_54_1615" result="shape"/>
</filter>
<filter id="filter3_d_54_1615" x="39.9168" y="14" width="37.921" height="23" filterUnits="userSpaceOnUse" color-interpolation-filters="sRGB">
<feFlood flood-opacity="0" result="BackgroundImageFix"/>
<feColorMatrix in="SourceAlpha" type="matrix" values="0 0 0 0 0 0 0 0 0 0 0 0 0 0 0 0 0 0 127 0" result="hardAlpha"/>
<feOffset dy="1"/>
<feColorMatrix type="matrix" values="0 0 0 0 0.11641 0 0 0 0 0.237537 0 0 0 0 0.536317 0 0 0 1 0"/>
<feBlend mode="normal" in2="BackgroundImageFix" result="effect1_dropShadow_54_1615"/>
<feBlend mode="normal" in="SourceGraphic" in2="effect1_dropShadow_54_1615" result="shape"/>
</filter>
</defs>
</svg>
