<svg width="70" height="157" viewBox="0 0 70 157" fill="none" xmlns="http://www.w3.org/2000/svg">
<path fill-rule="evenodd" clip-rule="evenodd" d="M0 119.5L0 3.5L63 40.5V156.5L0 119.5Z" fill="#1E3D89" fill-opacity="0.8"/>
<path fill-rule="evenodd" clip-rule="evenodd" d="M5 89.5195L58.5 122V44.0673L5 12.5L5 89.5195Z" fill="white"/>
<path fill-rule="evenodd" clip-rule="evenodd" d="M8.6531 91.6504V14.631L5 12.5V93.5L8.6531 91.6504ZM70 152.5V36.5L63 40.5V156.5L70 152.5ZM59 128.521V147.25L56 148.75V130.037L59 128.521Z" fill="#1E3B89"/>
<path fill-rule="evenodd" clip-rule="evenodd" d="M7.47965 0L70 36.5L63 40.5L0 3.5L7.47965 0ZM8.75 91.75L58.5 121.542V125.5L5 93.5L8.75 91.75ZM59 128.521L5 96.5L1.88835 97.8522L56.25 130.25L59 128.521Z" fill="#1E3C89" fill-opacity="0.7"/>
</svg>
