<svg width="120" height="89" viewBox="0 0 120 89" fill="none" xmlns="http://www.w3.org/2000/svg">
<g filter="url(#filter0_b_53_1576)">
<ellipse cx="60" cy="35" rx="60" ry="35" fill="#1E3C89" fill-opacity="0.7"/>
</g>
<path fill-rule="evenodd" clip-rule="evenodd" d="M0 35C0 53.75 26.1905 70 60 70C88.75 70.1428 119.25 57 120 35C120 41.8959 120 50.9072 120 55.8956C120 58.352 119.451 60.7712 118.053 62.7912C112.802 70.3809 96.2264 89 60 89C23.7736 89 7.19837 70.3809 1.9467 62.7912C0.548938 60.7712 0 58.3578 0 55.9013C0 49.8141 0 38.1044 0 35Z" fill="#1E3B89"/>
<g filter="url(#filter1_d_53_1576)">
<path fill-rule="evenodd" clip-rule="evenodd" d="M99 11V26.75H91V20L77.25 27.75C77.25 27.75 73.75 29.25 70.25 29.25C66.75 29.25 62.75 27.75 62.75 27.75L52 21.5L58.25 17.5L66.75 22.25C66.75 22.25 68 23 70 23C72 23 74.25 21.5 74.25 21.5L84 16H72.25V11H99ZM20 57.25V41.5H28V48.25L41.75 40.5C41.75 40.5 45.25 39 48.75 39C52.25 39 56.25 40.5 56.25 40.5L67 46.75L60.75 50.75L52.25 46C52.25 46 51 45.25 49 45.25C47 45.25 44.75 46.75 44.75 46.75L35 52.25H46.75V57.25H20ZM20 11V26.5H28.25V19.5L40.25 26.5C40.25 26.5 41.25 27 41.25 27.75C41.25 28.5 39.75 29.25 39.75 29.25L31.5 34.25L38 38.25L49 31.5C49 31.5 50.5 30.25 50.5 28C50.5 25.75 48.5 24 48.5 24L35.25 15.75H46.75V11H20ZM98.5 41.75V57.25H71.75V52.5H83.25L70 44.25C70 44.25 68 42.5 68 40.25C68 38 69.5 36.75 69.5 36.75L80.5 30L87 34L78.75 39C78.75 39 77.25 39.75 77.25 40.5C77.25 41.25 78.25 41.75 78.25 41.75L90.25 48.75V41.75H98.5Z" fill="white"/>
</g>
<path d="M40.2765 83L37.8545 82.986L35.3625 79.304H35.2785H33.7945V83H31.7645V72.752H35.3065C36.1092 72.752 36.8139 72.8873 37.4205 73.158C38.0272 73.4287 38.4939 73.816 38.8205 74.32C39.1472 74.8147 39.3105 75.384 39.3105 76.028C39.3105 76.6813 39.1425 77.2553 38.8065 77.75C38.4705 78.2447 37.9992 78.6227 37.3925 78.884L40.2765 83ZM33.7945 74.474V77.582H35.0685C35.6659 77.582 36.1605 77.456 36.5525 77.204C36.9539 76.9427 37.1545 76.5507 37.1545 76.028C37.1545 75.496 36.9585 75.104 36.5665 74.852C36.1745 74.6 35.6752 74.474 35.0685 74.474H33.7945ZM40.7081 77.862C40.7081 76.7887 40.9228 75.8507 41.3521 75.048C41.7815 74.2453 42.3648 73.634 43.1021 73.214C43.8488 72.7847 44.6795 72.57 45.5941 72.57C46.5088 72.57 47.3348 72.7847 48.0721 73.214C48.8188 73.634 49.4068 74.2453 49.8361 75.048C50.2748 75.8507 50.4941 76.7887 50.4941 77.862C50.4941 78.9447 50.2748 79.8873 49.8361 80.69C49.4068 81.4927 48.8188 82.1087 48.0721 82.538C47.3348 82.958 46.5088 83.168 45.5941 83.168C44.6795 83.168 43.8488 82.958 43.1021 82.538C42.3648 82.1087 41.7815 81.4927 41.3521 80.69C40.9228 79.8873 40.7081 78.9447 40.7081 77.862ZM42.8501 77.862C42.8501 78.5433 42.9621 79.1453 43.1861 79.668C43.4195 80.1907 43.7415 80.5967 44.1521 80.886C44.5721 81.166 45.0528 81.306 45.5941 81.306C46.1355 81.306 46.6115 81.166 47.0221 80.886C47.4421 80.5967 47.7641 80.1907 47.9881 79.668C48.2215 79.1453 48.3381 78.5433 48.3381 77.862C48.3381 77.1807 48.2215 76.5833 47.9881 76.07C47.7641 75.5473 47.4421 75.146 47.0221 74.866C46.6115 74.5767 46.1355 74.432 45.5941 74.432C45.0528 74.432 44.5721 74.5767 44.1521 74.866C43.7415 75.146 43.4195 75.5473 43.1861 76.07C42.9621 76.5833 42.8501 77.1807 42.8501 77.862ZM58.715 72.752H60.745V78.856C60.745 79.7333 60.5723 80.4987 60.227 81.152C59.8816 81.796 59.3823 82.2953 58.729 82.65C58.0756 82.9953 57.301 83.168 56.405 83.168C55.4996 83.168 54.7203 82.9953 54.067 82.65C53.4136 82.2953 52.9143 81.796 52.569 81.152C52.2236 80.4987 52.051 79.7333 52.051 78.856V72.752H54.081V78.366C54.081 79.3553 54.2816 80.0927 54.683 80.578C55.0936 81.0633 55.6676 81.306 56.405 81.306C57.133 81.306 57.6976 81.0633 58.099 80.578C58.5096 80.0927 58.715 79.3553 58.715 78.366V72.752ZM61.82 72.752H70.08V74.558H66.972V83H64.928V74.558H61.82V72.752ZM77.4779 78.674H73.3199V81.222H78.1219V83H71.2899V72.752H77.9679V74.516H73.3199V76.924H77.4779V78.674ZM88.3195 83L85.8975 82.986L83.4055 79.304H83.3215H81.8375V83H79.8075V72.752H83.3495C84.1522 72.752 84.8568 72.8873 85.4635 73.158C86.0702 73.4287 86.5368 73.816 86.8635 74.32C87.1902 74.8147 87.3535 75.384 87.3535 76.028C87.3535 76.6813 87.1855 77.2553 86.8495 77.75C86.5135 78.2447 86.0422 78.6227 85.4355 78.884L88.3195 83ZM81.8375 74.474V77.582H83.1115C83.7088 77.582 84.2035 77.456 84.5955 77.204C84.9968 76.9427 85.1975 76.5507 85.1975 76.028C85.1975 75.496 85.0015 75.104 84.6095 74.852C84.2175 74.6 83.7182 74.474 83.1115 74.474H81.8375Z" fill="white"/>
<defs>
<filter id="filter0_b_53_1576" x="-100" y="-100" width="320" height="270" filterUnits="userSpaceOnUse" color-interpolation-filters="sRGB">
<feFlood flood-opacity="0" result="BackgroundImageFix"/>
<feGaussianBlur in="BackgroundImageFix" stdDeviation="50"/>
<feComposite in2="SourceAlpha" operator="in" result="effect1_backgroundBlur_53_1576"/>
<feBlend mode="normal" in="SourceGraphic" in2="effect1_backgroundBlur_53_1576" result="shape"/>
</filter>
<filter id="filter1_d_53_1576" x="20" y="11" width="79" height="48.25" filterUnits="userSpaceOnUse" color-interpolation-filters="sRGB">
<feFlood flood-opacity="0" result="BackgroundImageFix"/>
<feColorMatrix in="SourceAlpha" type="matrix" values="0 0 0 0 0 0 0 0 0 0 0 0 0 0 0 0 0 0 127 0" result="hardAlpha"/>
<feOffset dy="2"/>
<feComposite in2="hardAlpha" operator="out"/>
<feColorMatrix type="matrix" values="0 0 0 0 0.117647 0 0 0 0 0.232922 0 0 0 0 0.537255 0 0 0 1 0"/>
<feBlend mode="normal" in2="BackgroundImageFix" result="effect1_dropShadow_53_1576"/>
<feBlend mode="normal" in="SourceGraphic" in2="effect1_dropShadow_53_1576" result="shape"/>
</filter>
</defs>
</svg>
