<svg width="333" height="297" viewBox="0 0 333 297" fill="none" xmlns="http://www.w3.org/2000/svg">
<path opacity="0.5" fill-rule="evenodd" clip-rule="evenodd" d="M0 188.88L145.402 101L332.348 211.783L188.011 297L0 188.88Z" fill="#1E3C89" fill-opacity="0.7"/>
<path fill-rule="evenodd" clip-rule="evenodd" d="M41.7229 200.437L170.13 125.221L164.728 122.312L36.3207 197.528L41.7229 200.437ZM108.212 238.668L236.619 163.453L231.217 160.544L102.81 235.759L108.212 238.668ZM81.0122 216.893L76.0255 219.802L70.6233 216.893L75.6099 213.984L81.0122 216.893ZM114.307 197.113L119.293 194.204L113.891 191.295L108.905 194.204L114.307 197.113ZM171.746 163.176L166.759 166.084L161.357 163.176L166.344 160.267L171.746 163.176ZM89.1386 212.045L94.1253 209.136L88.7231 206.227L83.7364 209.136L89.1386 212.045ZM132.407 186.447L127.42 189.356L122.018 186.447L127.004 183.538L132.407 186.447ZM179.872 158.327L184.859 155.419L179.457 152.51L174.47 155.419L179.872 158.327ZM106.18 201.961L101.194 204.87L95.7915 201.961L100.778 199.052L106.18 201.961ZM153.646 173.842L158.633 170.933L153.231 168.024L148.244 170.933L153.646 173.842ZM145.52 178.69L140.533 181.599L135.131 178.69L140.118 175.781L145.52 178.69ZM192.986 150.57L197.972 147.661L192.57 144.753L187.583 147.661L192.986 150.57Z" fill="white"/>
<g filter="url(#filter0_b_54_1686)">
<path fill-rule="evenodd" clip-rule="evenodd" d="M144.454 14.6318C146.749 18.2023 148.173 21.8082 148.726 25.4495L152.374 23.149C163.993 20.2412 173.543 24.6051 181.023 36.2407C183.643 40.3164 185.128 44.4382 185.477 48.6061L188.943 46.4201C200.562 43.5124 210.112 47.8763 217.592 59.5119C225.072 71.1475 223.298 83.1586 212.27 95.5453L190.169 108.305L190.304 108.225C199.204 102.844 199.989 92.0084 192.658 75.7186C188.917 70.5007 185.281 66.5773 181.75 63.9484C180.205 66.7053 178.189 69.4802 175.701 72.2741L153.568 85.052L153.735 84.9538C162.635 79.5727 163.42 68.7373 156.089 52.4474C152.571 47.5407 149.146 43.7786 145.814 41.1613C144.202 44.305 141.974 47.4726 139.132 50.6652L116.999 63.443L117.166 63.3448C126.066 57.9638 126.851 47.1283 119.52 30.8385C109.309 16.596 99.8791 11.9981 91.2315 17.0448L91.0044 17.179L115.805 1.54001C127.424 -1.36773 136.974 2.9962 144.454 14.6318Z" fill="#1E3C89" fill-opacity="0.7"/>
</g>
<g filter="url(#filter1_b_54_1686)">
<path fill-rule="evenodd" clip-rule="evenodd" d="M196.152 91.1858L214.437 102.821V222.502L206.126 217.515V106.146L196.152 101.159V91.1858Z" fill="#1E3D89" fill-opacity="0.8"/>
</g>
<g filter="url(#filter2_b_54_1686)">
<path fill-rule="evenodd" clip-rule="evenodd" d="M241.032 86.1991L214.437 102.821L196.152 91.1857L222.748 74.5635L241.032 86.1991Z" fill="#1E3C89" fill-opacity="0.7"/>
</g>
<path fill-rule="evenodd" clip-rule="evenodd" d="M241.032 86.1992L214.437 102.821L214.437 222.502L241.032 205.88V86.1992Z" fill="#1E3B89"/>
<g filter="url(#filter3_b_54_1686)">
<path fill-rule="evenodd" clip-rule="evenodd" d="M119.971 31.787C121.904 35.4236 123.193 39.1556 123.858 42.7433C125.048 40.7604 126.648 39.1683 128.643 38.1073C137.154 33.5819 149.644 40.4269 156.54 53.3959C158.711 57.4785 160.068 61.6813 160.644 65.6652C161.808 63.8444 163.335 62.3765 165.212 61.3784C173.723 56.8531 186.213 63.6981 193.109 76.6671C200.005 89.6362 198.695 103.818 190.184 108.344C181.673 112.869 169.184 106.024 162.288 93.0548C160.117 88.9726 158.76 84.7702 158.184 80.7866C157.019 82.607 155.492 84.0745 153.615 85.0723C145.104 89.5977 132.615 82.7527 125.719 69.7837C123.785 66.1471 122.497 62.4151 121.831 58.8274C120.642 60.8103 119.042 62.4023 117.046 63.4634C108.535 67.9887 96.0457 61.1438 89.15 48.1747C82.2542 35.2057 83.5635 21.0237 92.0745 16.4983C100.585 11.973 113.075 18.8179 119.971 31.787Z" fill="#1E3C89" fill-opacity="0.7"/>
</g>
<path fill-rule="evenodd" clip-rule="evenodd" d="M115.486 60.528C122.469 56.8149 123.239 44.6055 117.205 33.2576C111.171 21.9097 100.619 15.7204 93.6352 19.4335C86.6519 23.1466 85.8821 35.356 91.9159 46.7039C97.9497 58.0518 108.502 64.2411 115.486 60.528ZM152.055 82.1369C159.038 78.4238 159.808 66.2144 153.774 54.8665C147.74 43.5186 137.188 37.3294 130.204 41.0425C123.221 44.7556 122.451 56.965 128.485 68.3129C134.519 79.6608 145.071 85.85 152.055 82.1369ZM188.624 105.408C195.607 101.695 196.377 89.4856 190.343 78.1377C184.309 66.7898 173.757 60.6005 166.773 64.3136C159.79 68.0267 159.02 80.2361 165.054 91.584C171.088 102.932 181.64 109.121 188.624 105.408Z" fill="white"/>
<g filter="url(#filter4_d_54_1686)">
<path d="M192.145 252.228L215.649 238.658L215.649 244.592L206.805 249.698L206.804 277.436L200.988 280.794L200.989 253.056L192.145 258.162L192.145 252.228ZM225.756 242.068C226.553 241.608 227.296 241.316 227.987 241.194C228.677 241.071 229.208 241.117 229.58 241.332L227.429 247.496C226.738 247.342 225.955 247.519 225.079 248.025C223.644 248.853 222.489 250.21 221.613 252.096C220.763 253.967 220.338 256.113 220.338 258.536L220.337 269.622L214.8 272.819L214.801 248.991L219.661 246.185C219.794 247.948 219.913 249.137 220.019 249.75C220.63 247.956 221.427 246.407 222.41 245.104C223.392 243.801 224.508 242.789 225.756 242.068ZM239.008 234.416C241.797 232.806 243.975 232.468 245.541 233.404C247.108 234.308 247.892 236.447 247.892 239.821L247.891 253.713L243.23 256.404C243.204 256.174 243.164 255.798 243.111 255.277C243.084 254.709 243.031 254.234 242.952 253.851C242.341 255.307 241.544 256.596 240.561 257.715C239.605 258.788 238.437 259.724 237.056 260.521C235.622 261.349 234.307 261.817 233.112 261.924C231.943 262.016 231.014 261.71 230.323 261.004C229.633 260.268 229.288 259.134 229.288 257.6C229.288 256.006 229.673 254.403 230.443 252.793C231.24 251.137 232.302 249.604 233.63 248.193C234.958 246.782 236.419 245.617 238.012 244.697C239.446 243.869 240.92 243.294 242.434 242.972C242.354 239.491 241.053 238.479 238.53 239.936C236.512 241.101 235.038 242.995 234.108 245.617L230.165 245.272C230.908 243.064 232.05 241.009 233.591 239.108C235.131 237.176 236.937 235.612 239.008 234.416ZM242.434 247.204C241.106 247.603 239.951 248.086 238.968 248.653C237.667 249.404 236.658 250.263 235.941 251.229C235.223 252.164 234.865 253.123 234.865 254.104C234.865 254.993 235.144 255.522 235.701 255.691C236.286 255.844 237.029 255.66 237.932 255.139C239.127 254.449 240.176 253.46 241.079 252.172C241.982 250.853 242.434 249.504 242.434 248.124L242.434 247.204ZM268.187 217.017C268.187 213.398 268.891 210.324 270.298 207.794C271.706 205.233 273.631 203.247 276.075 201.836C277.323 201.116 278.452 200.694 279.461 200.571L279.461 206.137C278.717 206.107 277.934 206.329 277.11 206.804C275.995 207.448 275.145 208.368 274.561 209.564C274.003 210.714 273.724 212.332 273.724 214.417L273.724 214.969L278.863 212.002L278.863 217.338L273.724 220.305L273.723 238.797L268.186 241.995L268.187 223.503L259.622 228.448L259.621 246.94L254.084 250.137L254.084 231.645L250.539 233.692L250.539 228.356L254.085 226.309L254.085 225.159C254.085 221.571 254.828 218.474 256.316 215.867C257.803 213.26 259.742 211.267 262.132 209.887C263.3 209.212 264.31 208.829 265.159 208.737C266.036 208.629 266.713 208.76 267.191 209.128L265.08 214.947C264.336 214.579 263.513 214.655 262.61 215.177C261.627 215.744 260.884 216.603 260.379 217.753C259.874 218.903 259.622 220.49 259.622 222.514L259.622 223.112L268.187 218.167L268.187 217.017ZM284.52 205.7C283.617 206.221 282.847 206.283 282.209 205.884C281.572 205.455 281.253 204.719 281.253 203.676C281.253 202.603 281.572 201.499 282.209 200.364C282.847 199.229 283.617 198.401 284.52 197.88C285.423 197.359 286.193 197.297 286.83 197.696C287.494 198.079 287.826 198.808 287.826 199.881C287.826 200.924 287.494 202.035 286.83 203.216C286.193 204.351 285.423 205.179 284.52 205.7ZM287.307 230.954L281.77 234.151L281.771 210.323L287.308 207.126L287.307 230.954ZM301.771 217.589C303.364 216.669 304.639 215.028 305.595 212.667L309.818 213.081C309.154 215.243 308.105 217.198 306.671 218.946C305.237 220.694 303.603 222.097 301.771 223.155C299.938 224.213 298.225 224.727 296.632 224.696C295.039 224.635 293.751 223.952 292.768 222.649C291.785 221.315 291.294 219.345 291.294 216.738C291.294 214.101 291.786 211.563 292.768 209.125C293.751 206.656 295.039 204.487 296.633 202.616C298.226 200.715 299.939 199.235 301.772 198.177C303.604 197.119 305.237 196.636 306.671 196.728C308.106 196.82 309.155 197.563 309.818 198.959L305.596 204.249C304.666 203.007 303.391 202.854 301.771 203.789C300.337 204.617 299.182 205.913 298.306 207.676C297.456 209.393 297.031 211.31 297.031 213.426C297.031 215.511 297.469 216.93 298.345 217.681C299.222 218.432 300.363 218.402 301.771 217.589Z" fill="white"/>
</g>
<defs>
<filter id="filter0_b_54_1686" x="41.0044" y="-49.332" width="231.122" height="207.637" filterUnits="userSpaceOnUse" color-interpolation-filters="sRGB">
<feFlood flood-opacity="0" result="BackgroundImageFix"/>
<feGaussianBlur in="BackgroundImageFix" stdDeviation="25"/>
<feComposite in2="SourceAlpha" operator="in" result="effect1_backgroundBlur_54_1686"/>
<feBlend mode="normal" in="SourceGraphic" in2="effect1_backgroundBlur_54_1686" result="shape"/>
</filter>
<filter id="filter1_b_54_1686" x="146.152" y="41.1858" width="118.284" height="231.316" filterUnits="userSpaceOnUse" color-interpolation-filters="sRGB">
<feFlood flood-opacity="0" result="BackgroundImageFix"/>
<feGaussianBlur in="BackgroundImageFix" stdDeviation="25"/>
<feComposite in2="SourceAlpha" operator="in" result="effect1_backgroundBlur_54_1686"/>
<feBlend mode="normal" in="SourceGraphic" in2="effect1_backgroundBlur_54_1686" result="shape"/>
</filter>
<filter id="filter2_b_54_1686" x="60.2383" y="-61.3506" width="316.708" height="300.086" filterUnits="userSpaceOnUse" color-interpolation-filters="sRGB">
<feFlood flood-opacity="0" result="BackgroundImageFix"/>
<feGaussianBlur in="BackgroundImageFix" stdDeviation="67.957"/>
<feComposite in2="SourceAlpha" operator="in" result="effect1_backgroundBlur_54_1686"/>
<feBlend mode="normal" in="SourceGraphic" in2="effect1_backgroundBlur_54_1686" result="shape"/>
</filter>
<filter id="filter3_b_54_1686" x="34.726" y="-34.897" width="212.807" height="194.636" filterUnits="userSpaceOnUse" color-interpolation-filters="sRGB">
<feFlood flood-opacity="0" result="BackgroundImageFix"/>
<feGaussianBlur in="BackgroundImageFix" stdDeviation="25"/>
<feComposite in2="SourceAlpha" operator="in" result="effect1_backgroundBlur_54_1686"/>
<feBlend mode="normal" in="SourceGraphic" in2="effect1_backgroundBlur_54_1686" result="shape"/>
</filter>
<filter id="filter4_d_54_1686" x="188.144" y="182.353" width="121.675" height="104.1" filterUnits="userSpaceOnUse" color-interpolation-filters="sRGB">
<feFlood flood-opacity="0" result="BackgroundImageFix"/>
<feColorMatrix in="SourceAlpha" type="matrix" values="0 0 0 0 0 0 0 0 0 0 0 0 0 0 0 0 0 0 127 0" result="hardAlpha"/>
<feOffset dx="-4"/>
<feComposite in2="hardAlpha" operator="out"/>
<feColorMatrix type="matrix" values="0 0 0 0 0.117647 0 0 0 0 0.232922 0 0 0 0 0.537255 0 0 0 1 0"/>
<feBlend mode="normal" in2="BackgroundImageFix" result="effect1_dropShadow_54_1686"/>
<feBlend mode="normal" in="SourceGraphic" in2="effect1_dropShadow_54_1686" result="shape"/>
</filter>
</defs>
</svg>
