<svg width="333" height="313" viewBox="0 0 333 313" fill="none" xmlns="http://www.w3.org/2000/svg">
<path opacity="0.5" fill-rule="evenodd" clip-rule="evenodd" d="M0 204.88L145.402 117L332.348 227.783L188.011 313L0 204.88Z" fill="#1E3C89" fill-opacity="0.7"/>
<g filter="url(#filter0_b_54_1727)">
<path fill-rule="evenodd" clip-rule="evenodd" d="M112.912 47.0186L94 36L156 0L186.837 17.9658L204 8L250.443 51.2022L247.158 53.1097L271 67L252.088 77.9814L271 89L252.088 99.9814L271 111L252.088 121.981L271 133L252.088 143.981L271 155L251.228 166.481L271 178L209 214L94 147L113.772 135.519L94 124L112.912 113.019L94 102L112.912 91.0186L94 80L112.912 69.0186L94 58L112.912 47.0186Z" fill="#1E3C89" fill-opacity="0.7"/>
</g>
<path fill-rule="evenodd" clip-rule="evenodd" d="M203 78.8174L250.443 51.2695V60.4521L203 88V78.8174ZM271 67L209 103V123L271 87V67ZM209 125L271 89V109L209 145V125ZM271 111L209 147V167L271 131V111ZM209 169L271 133V153L209 189V169ZM271 155L209 191V211L271 175V155ZM271 178L209 214V250L271 214V178Z" fill="#1E3B89"/>
<g filter="url(#filter1_b_54_1727)">
<path fill-rule="evenodd" clip-rule="evenodd" d="M156.5 35.5L115 27.5479V36.7305L203 88V78.8174L156.5 35.5ZM94 36L209 103V123L94 56V36ZM209 125L94 58V78L209 145V125ZM94 80L209 147V167L94 100V80ZM209 169L94 102V122L209 189V169ZM94 124L209 191V211L94 144V124ZM94 147L209 214V250L94 183V147Z" fill="#1E3D89" fill-opacity="0.8"/>
</g>
<path fill-rule="evenodd" clip-rule="evenodd" d="M108 49.6613L104 47.5V57.0887L108 59.25V49.6613ZM136 66.2168L132 64.0556V73.6443L136 75.8056V66.2168ZM160 80.6111L164 82.7724V92.3611L160 90.1998V80.6111ZM122 57.9391L118 55.7778V65.3665L122 67.5278V57.9391ZM146 72.3333L150 74.4946V84.0833L146 81.922V72.3333ZM178 91.0502L174 88.8889V98.4776L178 100.639V91.0502ZM111 51.6389L115 53.8002V63.3889L111 61.2276V51.6389ZM143 70.3557L139 68.1944V77.7832L143 79.9444V70.3557ZM167 84.75L171 86.9113V96.5L167 94.3387V84.75ZM129 62.078L125 59.9167V69.5054L129 71.6667V62.078ZM153 76.4722L157 78.6335V88.2222L153 86.0609V76.4722ZM185 95.1891L181 93.0278V102.616L185 104.778V95.1891ZM188 97.1667L192 99.328V108.917L188 106.755V97.1667ZM104 69.5L108 71.6613V81.25L104 79.0887V69.5ZM132 86.0556L136 88.2168V97.8056L132 95.6443V86.0556ZM164 104.772L160 102.611V112.2L164 114.361V104.772ZM118 77.7778L122 79.9391V89.5278L118 87.3665V77.7778ZM150 96.4946L146 94.3333V103.922L150 106.083V96.4946ZM174 110.889L178 113.05V122.639L174 120.478V110.889ZM115 75.8002L111 73.6389V83.2276L115 85.3889V75.8002ZM139 90.1944L143 92.3557V101.944L139 99.7832V90.1944ZM171 108.911L167 106.75V116.339L171 118.5V108.911ZM125 81.9167L129 84.078V93.6667L125 91.5054V81.9167ZM157 100.634L153 98.4722V108.061L157 110.222V100.634ZM181 115.028L185 117.189V126.778L181 124.616V115.028ZM192 121.328L188 119.167V128.755L192 130.917V121.328ZM108 93.6613L104 91.5V101.089L108 103.25V93.6613ZM136 110.217L132 108.056V117.644L136 119.806V110.217ZM160 124.611L164 126.772V136.361L160 134.2V124.611ZM122 101.939L118 99.7778V109.366L122 111.528V101.939ZM146 116.333L150 118.495V128.083L146 125.922V116.333ZM178 135.05L174 132.889V142.478L178 144.639V135.05ZM111 95.6389L115 97.8002V107.389L111 105.228V95.6389ZM143 114.356L139 112.194V121.783L143 123.944V114.356ZM167 128.75L171 130.911V140.5L167 138.339V128.75ZM129 106.078L125 103.917V113.505L129 115.667V106.078ZM153 120.472L157 122.634V132.222L153 130.061V120.472ZM185 139.189L181 137.028V146.616L185 148.778V139.189ZM188 141.167L192 143.328V152.917L188 150.755V141.167ZM104 113.5L108 115.661V125.25L104 123.089V113.5ZM132 130.056L136 132.217V141.806L132 139.644V130.056ZM164 148.772L160 146.611V156.2L164 158.361V148.772ZM118 121.778L122 123.939V133.528L118 131.366V121.778ZM150 140.495L146 138.333V147.922L150 150.083V140.495ZM174 154.889L178 157.05V166.639L174 164.478V154.889ZM115 119.8L111 117.639V127.228L115 129.389V119.8ZM139 134.194L143 136.356V145.944L139 143.783V134.194ZM171 152.911L167 150.75V160.339L171 162.5V152.911ZM125 125.917L129 128.078V137.667L125 135.505V125.917ZM157 144.634L153 142.472V152.061L157 154.222V144.634ZM181 159.028L185 161.189V170.778L181 168.616V159.028ZM192 165.328L188 163.167V172.755L192 174.917V165.328ZM108 137.661L104 135.5V145.089L108 147.25V137.661ZM136 154.217L132 152.056V161.644L136 163.806V154.217ZM160 168.611L164 170.772V180.361L160 178.2V168.611ZM122 145.939L118 143.778V153.366L122 155.528V145.939ZM146 160.333L150 162.495V172.083L146 169.922V160.333ZM178 179.05L174 176.889V186.478L178 188.639V179.05ZM111 139.639L115 141.8V151.389L111 149.228V139.639ZM143 158.356L139 156.194V165.783L143 167.944V158.356ZM167 172.75L171 174.911V184.5L167 182.339V172.75ZM129 150.078L125 147.917V157.505L129 159.667V150.078ZM153 164.472L157 166.634V176.222L153 174.061V164.472ZM185 183.189L181 181.028V190.616L185 192.778V183.189ZM188 185.167L192 187.328V196.917L188 194.755V185.167ZM164 196.25L129 176V204L164 224.25V196.25Z" fill="white"/>
<g filter="url(#filter2_b_54_1727)">
<path fill-rule="evenodd" clip-rule="evenodd" d="M115 27.5478L156.557 35.5478L204 8L162.443 0L115 27.5478Z" fill="#1E3D89" fill-opacity="0.8"/>
</g>
<path fill-rule="evenodd" clip-rule="evenodd" d="M97 98.5L99 98.5L101 98.5V244.417L99 244.5L97 244.417V98.5Z" fill="#1E3B89"/>
<g filter="url(#filter3_b_54_1727)">
<path fill-rule="evenodd" clip-rule="evenodd" d="M97 100.5L115.5 100.5L134 100.5V122.487L115.5 122.5L97 122.487V100.5Z" fill="#1E3C89" fill-opacity="0.7"/>
</g>
<g filter="url(#filter4_d_54_1727)">
<path d="M220.936 249.199C223.046 247.981 224.889 247.337 226.465 247.267C228.041 247.197 229.253 247.687 230.102 248.737C230.975 249.745 231.411 251.271 231.411 253.315C231.411 255.331 230.974 257.361 230.101 259.405C229.253 261.407 228.04 263.283 226.464 265.033C224.888 266.755 223.045 268.225 220.935 269.443L217.044 271.69L217.043 282.19L211.769 285.235L211.77 254.491L220.936 249.199ZM220.354 264.613C222.003 263.661 223.324 262.492 224.318 261.106C225.313 259.692 225.81 258.173 225.81 256.549C225.81 254.925 225.313 253.98 224.319 253.714C223.324 253.42 222.003 253.749 220.354 254.701L217.044 256.612L217.044 266.524L220.354 264.613ZM246.677 243.324L251.733 240.405L251.732 262.161L247.259 264.744C247.162 263.12 247.065 262.042 246.968 261.51C246.337 263.19 245.513 264.646 244.494 265.878C243.476 267.11 242.312 268.104 241.002 268.86C238.893 270.078 237.232 270.254 236.02 269.386C234.807 268.518 234.201 266.572 234.201 263.548L234.202 250.528L239.257 247.608L239.257 258.696C239.257 262.7 240.372 264.058 242.603 262.77C243.815 262.07 244.798 260.957 245.549 259.431C246.301 257.905 246.677 256.162 246.677 254.202L246.677 243.324ZM267.21 230.923C268.738 230.041 270.144 229.677 271.429 229.831C272.739 229.971 273.769 230.692 274.521 231.994C275.297 233.281 275.685 235.101 275.684 237.453C275.684 239.805 275.296 242.073 274.52 244.258C273.769 246.4 272.738 248.297 271.429 249.949C270.143 251.587 268.737 252.847 267.209 253.729C265.948 254.457 264.785 254.821 263.718 254.821C262.675 254.807 261.826 254.345 261.172 253.435C261.002 255.129 260.905 256.277 260.881 256.879L256.443 259.441L256.444 227.479L261.5 224.56L261.5 237.496C262.179 236.012 263.003 234.724 263.973 233.632C264.967 232.498 266.046 231.595 267.21 230.923ZM266.046 249.403C267.355 248.647 268.41 247.464 269.21 245.854C270.035 244.23 270.447 242.438 270.447 240.478C270.447 238.518 270.047 237.223 269.247 236.593C268.447 235.963 267.38 236.033 266.046 236.803C264.761 237.545 263.682 238.686 262.809 240.226C261.936 241.738 261.499 243.544 261.499 245.644C261.499 247.744 261.936 249.088 262.809 249.676C263.706 250.222 264.785 250.131 266.046 249.403ZM284.409 243.294L279.353 246.213L279.355 214.251L284.41 211.332L284.409 243.294ZM291.56 214.637C290.76 215.099 290.057 215.155 289.45 214.805C288.869 214.413 288.578 213.741 288.578 212.789C288.578 211.809 288.869 210.801 289.451 209.765C290.033 208.729 290.736 207.973 291.56 207.497C292.385 207.021 293.1 206.972 293.706 207.35C294.312 207.7 294.615 208.351 294.615 209.303C294.615 210.255 294.312 211.27 293.706 212.348C293.1 213.398 292.385 214.161 291.56 214.637ZM294.142 237.674L289.086 240.593L289.087 218.837L294.142 215.918L294.142 237.674ZM307.293 225.503C308.748 224.663 309.912 223.165 310.785 221.009L314.641 221.386C314.034 223.36 313.076 225.145 311.767 226.742C310.458 228.338 308.966 229.619 307.293 230.585C305.62 231.551 304.056 232.02 302.601 231.992C301.146 231.936 299.97 231.313 299.073 230.123C298.176 228.905 297.728 227.106 297.728 224.726C297.728 222.318 298.176 220.001 299.074 217.775C299.971 215.521 301.147 213.54 302.602 211.832C304.057 210.096 305.621 208.745 307.294 207.779C308.967 206.813 310.458 206.372 311.768 206.456C313.077 206.539 314.035 207.218 314.641 208.492L310.785 213.323C309.937 212.189 308.773 212.049 307.294 212.903C305.984 213.659 304.93 214.842 304.129 216.452C303.353 218.02 302.965 219.77 302.965 221.702C302.965 223.606 303.365 224.901 304.165 225.587C304.966 226.273 306.008 226.245 307.293 225.503Z" fill="white"/>
</g>
<defs>
<filter id="filter0_b_54_1727" x="-41.9141" y="-135.914" width="448.828" height="485.828" filterUnits="userSpaceOnUse" color-interpolation-filters="sRGB">
<feFlood flood-opacity="0" result="BackgroundImageFix"/>
<feGaussianBlur in="BackgroundImageFix" stdDeviation="67.957"/>
<feComposite in2="SourceAlpha" operator="in" result="effect1_backgroundBlur_54_1727"/>
<feBlend mode="normal" in="SourceGraphic" in2="effect1_backgroundBlur_54_1727" result="shape"/>
</filter>
<filter id="filter1_b_54_1727" x="-41.9141" y="-108.366" width="386.828" height="494.28" filterUnits="userSpaceOnUse" color-interpolation-filters="sRGB">
<feFlood flood-opacity="0" result="BackgroundImageFix"/>
<feGaussianBlur in="BackgroundImageFix" stdDeviation="67.957"/>
<feComposite in2="SourceAlpha" operator="in" result="effect1_backgroundBlur_54_1727"/>
<feBlend mode="normal" in="SourceGraphic" in2="effect1_backgroundBlur_54_1727" result="shape"/>
</filter>
<filter id="filter2_b_54_1727" x="-20.9141" y="-135.914" width="360.828" height="307.376" filterUnits="userSpaceOnUse" color-interpolation-filters="sRGB">
<feFlood flood-opacity="0" result="BackgroundImageFix"/>
<feGaussianBlur in="BackgroundImageFix" stdDeviation="67.957"/>
<feComposite in2="SourceAlpha" operator="in" result="effect1_backgroundBlur_54_1727"/>
<feBlend mode="normal" in="SourceGraphic" in2="effect1_backgroundBlur_54_1727" result="shape"/>
</filter>
<filter id="filter3_b_54_1727" x="-38.9141" y="-35.4141" width="308.828" height="293.828" filterUnits="userSpaceOnUse" color-interpolation-filters="sRGB">
<feFlood flood-opacity="0" result="BackgroundImageFix"/>
<feGaussianBlur in="BackgroundImageFix" stdDeviation="67.957"/>
<feComposite in2="SourceAlpha" operator="in" result="effect1_backgroundBlur_54_1727"/>
<feBlend mode="normal" in="SourceGraphic" in2="effect1_backgroundBlur_54_1727" result="shape"/>
</filter>
<filter id="filter4_d_54_1727" x="207.769" y="193.876" width="106.872" height="91.863" filterUnits="userSpaceOnUse" color-interpolation-filters="sRGB">
<feFlood flood-opacity="0" result="BackgroundImageFix"/>
<feColorMatrix in="SourceAlpha" type="matrix" values="0 0 0 0 0 0 0 0 0 0 0 0 0 0 0 0 0 0 127 0" result="hardAlpha"/>
<feOffset dx="-4"/>
<feComposite in2="hardAlpha" operator="out"/>
<feColorMatrix type="matrix" values="0 0 0 0 0.117647 0 0 0 0 0.232922 0 0 0 0 0.537255 0 0 0 1 0"/>
<feBlend mode="normal" in2="BackgroundImageFix" result="effect1_dropShadow_54_1727"/>
<feBlend mode="normal" in="SourceGraphic" in2="effect1_dropShadow_54_1727" result="shape"/>
</filter>
</defs>
</svg>
