<svg width="339" height="278" viewBox="0 0 339 278" fill="none" xmlns="http://www.w3.org/2000/svg">
<path opacity="0.5" fill-rule="evenodd" clip-rule="evenodd" d="M0 160.88L145.402 73L332.348 183.783L188.011 269L0 160.88Z" fill="#1E3C89" fill-opacity="0.7"/>
<g filter="url(#filter0_b_54_1723)">
<path fill-rule="evenodd" clip-rule="evenodd" d="M203.769 53.8991L227 40.2182L156.853 0L91 39L114.227 52.2445L91 66L114.227 79.2445L91 93L113.366 105.754L91 119L116.021 133.268L74 158.197L174 217.25L259 166.803L203.73 134.428L227 121L204.176 107.66L227 94.2182L203.769 80.8991L227 67.2182L203.769 53.8991Z" fill="#1E3C89" fill-opacity="0.7"/>
</g>
<path fill-rule="evenodd" clip-rule="evenodd" d="M161 78.6591L227 40V64.3409L161 103V78.6591ZM227 67L161 105.659V130L227 91.3409V67ZM161 132.659L227 94V118.341L161 157V132.659ZM227 121L161 159V198L227 159.5V121ZM259 167L174 217.25V225.884L259 175.634V167Z" fill="#1E3B89"/>
<g filter="url(#filter1_b_54_1723)">
<path fill-rule="evenodd" clip-rule="evenodd" d="M161 78.8222L91 39V63.1778L161 103V78.8222ZM91 66L161 105.822V130L91 90.1778V66ZM161 132.822L91 93V117.178L161 157V132.822ZM91 119L161 159V198L91 157.782V119ZM74 158L174 217.319V226L74 166.681V158Z" fill="#1E3D89" fill-opacity="0.8"/>
</g>
<path fill-rule="evenodd" clip-rule="evenodd" d="M97 75L106.574 80.6845V93.8486L97 88.1641V75ZM122 146.64L108 138V165.72L122 174V146.64ZM144 159.64L130 151V178.72L144 187V159.64ZM118.541 87.8649L108.967 82.1804V95.3445L118.541 101.029V87.8649ZM120.976 89.1847L130.55 94.8692V108.033L120.976 102.349V89.1847ZM142.601 102.035L133.028 96.3507V109.515L142.601 115.199V102.035ZM145.079 103.517L154.653 109.201V122.365L145.079 116.681V103.517ZM106.574 106.319L97 100.635V113.799L106.574 119.483V106.319ZM108.967 107.815L118.541 113.5V126.664L108.967 120.979V107.815ZM130.55 120.504L120.976 114.819V127.984L130.55 133.668V120.504ZM133.028 121.985L142.601 127.67V140.834L133.028 135.15V121.985ZM154.653 134.836L145.079 129.151V142.315L154.653 148V134.836Z" fill="white"/>
<path fill-rule="evenodd" clip-rule="evenodd" d="M217.183 89.1138C215.888 90.8608 214.37 92.4029 212.708 93.6035L212.901 97.6367L208.81 99.7452L208.617 95.712C206.923 96.2411 205.334 96.3 203.939 95.9393L201.536 100.1L198.488 98.3403L200.891 94.1794C199.881 93.1513 199.137 91.746 198.748 90.0142L195.159 91.8639L194.94 87.2666L198.529 85.4169C198.737 83.3771 199.314 81.2916 200.18 79.2968L197.505 77.7523L200.242 73.0108L202.917 74.5551C204.212 72.8081 205.73 71.266 207.392 70.0653L207.199 66.0321L211.29 63.9236L211.483 67.9569C213.177 67.4278 214.766 67.3688 216.161 67.7296L218.564 63.5686L221.612 65.3285L219.21 69.4895C220.22 70.5175 220.963 71.9228 221.352 73.6547L224.941 71.8049L225.161 76.4022L221.572 78.2519C221.363 80.2918 220.786 82.3773 219.921 84.372L222.596 85.9165L219.858 90.658L217.183 89.1138ZM203.418 85.2523C203.615 89.368 206.743 91.1744 210.406 89.2868C214.069 87.3992 216.879 82.5324 216.682 78.4166C216.485 74.3007 213.357 72.4944 209.694 74.3821C206.031 76.2697 203.221 81.1365 203.418 85.2523ZM189.541 125.793C191.384 124.466 193.067 122.759 194.501 120.826L197.473 122.541L200.504 117.292L197.532 115.576C198.489 113.367 199.126 111.057 199.354 108.797L203.335 106.753L203.083 101.658L199.102 103.702C198.668 101.782 197.84 100.224 196.717 99.0828L199.377 94.4759L195.99 92.5205L193.33 97.1273C191.78 96.7252 190.017 96.7877 188.137 97.3711L187.916 92.9015L183.378 95.2309L183.599 99.7006C181.756 101.028 180.073 102.734 178.639 104.668L175.667 102.952L172.636 108.202L175.608 109.918C174.651 112.127 174.014 114.437 173.786 116.697L169.805 118.741L170.056 123.835L174.038 121.792C174.472 123.712 175.3 125.27 176.423 126.411L173.763 131.018L177.15 132.973L179.81 128.366C181.36 128.769 183.123 128.706 185.003 128.123L185.224 132.592L189.762 130.263L189.541 125.793ZM186.978 121.006C182.915 123.091 179.439 121.084 179.213 116.523C178.988 111.962 182.099 106.573 186.162 104.488C190.224 102.403 193.701 104.41 193.926 108.971C194.152 113.532 191.041 118.92 186.978 121.006ZM197.593 161.306C199.725 159.759 201.672 157.774 203.335 155.527L206.753 157.5L210.273 151.404L206.855 149.43C207.97 146.866 208.715 144.187 208.989 141.568L213.589 139.181L213.323 133.28L208.724 135.667C208.232 133.445 207.285 131.644 205.996 130.327L209.085 124.978L205.19 122.729L202.101 128.079C200.317 127.62 198.284 127.701 196.114 128.387L195.881 123.21L190.638 125.93L190.871 131.107C188.739 132.654 186.792 134.639 185.129 136.886L181.711 134.913L178.191 141.009L181.609 142.983C180.494 145.546 179.749 148.226 179.475 150.845L174.875 153.232L175.141 159.133L179.74 156.746C180.232 158.968 181.178 160.769 182.468 162.085L179.379 167.435L183.274 169.684L186.363 164.334C188.147 164.792 190.18 164.711 192.351 164.026L192.583 169.203L197.826 166.482L197.593 161.306ZM194.662 155.772C189.968 158.208 185.97 155.9 185.733 150.617C185.495 145.334 189.108 139.077 193.802 136.641C198.496 134.205 202.493 136.513 202.731 141.796C202.968 147.079 199.356 153.336 194.662 155.772Z" fill="white"/>
<g filter="url(#filter2_d_54_1723)">
<path d="M201.89 230.401L204.558 228.861L204.557 249.357L201.211 251.289L201.211 238.073L196.701 248.433L194.858 249.497L190.324 244.303L190.323 257.575L187.001 259.493L187.002 238.997L189.79 237.387L195.852 244.499L201.89 230.401ZM213.309 229.436C215.007 228.456 216.332 228.25 217.286 228.819C218.24 229.37 218.717 230.672 218.716 232.725L218.716 241.181L215.879 242.82C215.863 242.68 215.839 242.451 215.806 242.134C215.79 241.788 215.758 241.499 215.709 241.266C215.338 242.152 214.853 242.936 214.254 243.618C213.673 244.271 212.961 244.84 212.121 245.326C211.248 245.83 210.448 246.114 209.72 246.18C209.009 246.236 208.443 246.049 208.023 245.62C207.602 245.172 207.392 244.481 207.392 243.548C207.392 242.577 207.627 241.602 208.096 240.622C208.581 239.614 209.227 238.68 210.036 237.822C210.844 236.963 211.733 236.254 212.703 235.694C213.576 235.19 214.473 234.84 215.394 234.644C215.346 232.525 214.554 231.909 213.018 232.796C211.79 233.505 210.892 234.658 210.327 236.254L207.926 236.044C208.379 234.7 209.074 233.449 210.011 232.292C210.949 231.116 212.048 230.164 213.309 229.436ZM215.394 237.22C214.586 237.462 213.883 237.756 213.285 238.102C212.493 238.559 211.878 239.082 211.442 239.67C211.005 240.239 210.787 240.822 210.787 241.42C210.787 241.961 210.957 242.283 211.296 242.386C211.652 242.479 212.105 242.367 212.654 242.05C213.382 241.63 214.02 241.028 214.57 240.244C215.119 239.441 215.394 238.62 215.394 237.78L215.394 237.22ZM228.888 220.441C230.278 219.638 231.377 219.535 232.185 220.133C232.994 220.711 233.398 222.009 233.398 224.025L233.397 232.705L230.027 234.651L230.027 227.231C230.027 224.58 229.267 223.693 227.748 224.571C226.94 225.037 226.285 225.78 225.784 226.797C225.299 227.786 225.056 228.934 225.056 230.241L225.056 237.521L221.685 239.467L221.686 224.963L224.644 223.255C224.725 224.347 224.798 225.08 224.862 225.453C225.671 223.194 227.012 221.523 228.888 220.441ZM244.443 211.823L247.814 209.877L247.813 224.381L244.831 226.103C244.766 225.02 244.702 224.302 244.637 223.947C244.217 225.067 243.667 226.038 242.988 226.859C242.309 227.68 241.533 228.343 240.66 228.847C239.254 229.659 238.146 229.776 237.338 229.197C236.53 228.619 236.126 227.321 236.126 225.305L236.126 216.625L239.497 214.679L239.496 222.071C239.496 224.741 240.24 225.646 241.727 224.787C242.535 224.32 243.19 223.578 243.691 222.561C244.192 221.544 244.443 220.382 244.443 219.075L244.443 211.823ZM256.944 200.825C256.346 201.171 255.893 201.684 255.586 202.365C255.279 203.047 255.125 203.957 255.125 205.095L255.125 205.655L258.399 203.765L258.398 207.013L255.125 208.903L255.125 220.159L251.754 222.106L251.754 210.85L249.596 212.096L249.596 208.848L251.755 207.602L251.755 206.902C251.755 204.718 252.207 202.832 253.113 201.246C254.018 199.659 255.198 198.445 256.653 197.605C257.364 197.195 257.995 196.952 258.544 196.877C259.094 196.803 259.53 196.868 259.854 197.073L258.568 200.615C258.067 200.419 257.526 200.489 256.944 200.825ZM264.813 199.698C266.511 198.718 267.836 198.512 268.79 199.082C269.744 199.632 270.22 200.934 270.22 202.987L270.22 211.443L267.383 213.082C267.367 212.942 267.343 212.713 267.31 212.396C267.294 212.05 267.262 211.761 267.213 211.528C266.841 212.414 266.357 213.198 265.758 213.88C265.176 214.533 264.465 215.102 263.625 215.588C262.752 216.092 261.951 216.376 261.224 216.442C260.513 216.498 259.947 216.311 259.527 215.882C259.106 215.434 258.896 214.743 258.896 213.81C258.896 212.839 259.131 211.864 259.6 210.884C260.085 209.876 260.731 208.942 261.539 208.084C262.348 207.225 263.237 206.516 264.207 205.956C265.08 205.452 265.977 205.102 266.898 204.906C266.85 202.787 266.058 202.171 264.522 203.058C263.294 203.767 262.396 204.92 261.83 206.516L259.43 206.306C259.883 204.962 260.578 203.711 261.515 202.554C262.453 201.378 263.552 200.426 264.813 199.698ZM266.898 207.482C266.09 207.724 265.387 208.018 264.789 208.364C263.997 208.821 263.382 209.344 262.946 209.932C262.509 210.501 262.291 211.084 262.291 211.682C262.291 212.223 262.461 212.545 262.8 212.648C263.156 212.741 263.608 212.629 264.158 212.312C264.886 211.892 265.524 211.29 266.074 210.506C266.623 209.703 266.898 208.882 266.898 208.042L266.898 207.482ZM278.839 203.415C279.809 202.855 280.585 201.856 281.167 200.419L283.737 200.671C283.333 201.987 282.695 203.177 281.822 204.241C280.949 205.305 279.955 206.159 278.839 206.803C277.724 207.447 276.681 207.76 275.711 207.741C274.741 207.704 273.957 207.288 273.359 206.495C272.761 205.683 272.462 204.484 272.462 202.897C272.462 201.292 272.761 199.747 273.359 198.263C273.958 196.76 274.742 195.44 275.712 194.301C276.682 193.144 277.724 192.243 278.84 191.599C279.955 190.955 280.949 190.661 281.822 190.717C282.695 190.773 283.334 191.225 283.738 192.075L281.167 195.295C280.602 194.539 279.826 194.445 278.84 195.015C277.967 195.519 277.263 196.308 276.73 197.381C276.213 198.426 275.954 199.593 275.954 200.881C275.954 202.15 276.221 203.014 276.754 203.471C277.287 203.928 277.983 203.91 278.839 203.415ZM294.73 196.452C293.905 197.712 292.757 198.767 291.286 199.616C289.928 200.4 288.829 200.624 287.989 200.288C287.164 199.924 286.752 198.669 286.752 196.522L286.752 190.67L284.521 191.958L284.522 188.682L286.752 187.394L286.752 182.942L290.123 180.996L290.123 185.448L293.906 183.264L293.905 186.54L290.123 188.724L290.123 193.932C290.123 194.903 290.268 195.556 290.559 195.892C290.85 196.228 291.319 196.209 291.965 195.836C292.531 195.509 293.065 195.005 293.566 194.324L294.73 196.452ZM304.377 177.218L307.748 175.272L307.747 189.776L304.765 191.498C304.7 190.415 304.635 189.696 304.571 189.342C304.151 190.462 303.601 191.432 302.922 192.254C302.243 193.075 301.467 193.738 300.594 194.242C299.188 195.054 298.08 195.17 297.272 194.592C296.464 194.013 296.06 192.716 296.06 190.7L296.06 182.02L299.431 180.074L299.43 187.466C299.43 190.135 300.174 191.04 301.661 190.182C302.469 189.715 303.124 188.973 303.625 187.956C304.126 186.938 304.377 185.776 304.377 184.47L304.377 177.218ZM317.557 169.244C318.042 168.964 318.494 168.787 318.914 168.712C319.335 168.637 319.658 168.665 319.884 168.796L318.575 172.548C318.155 172.455 317.678 172.562 317.144 172.87C316.271 173.374 315.568 174.2 315.035 175.348C314.517 176.487 314.259 177.793 314.259 179.268L314.258 186.016L310.888 187.962L310.888 173.458L313.847 171.75C313.927 172.823 314 173.547 314.065 173.92C314.437 172.828 314.922 171.885 315.52 171.092C316.118 170.299 316.797 169.683 317.557 169.244ZM326.056 164.337C327.171 163.693 328.157 163.413 329.014 163.497C329.887 163.552 330.558 163.968 331.027 164.742C331.511 165.489 331.754 166.534 331.754 167.878C331.754 168.476 331.705 169.11 331.608 169.782L323.267 174.599C323.412 175.597 323.752 176.223 324.285 176.475C324.819 176.708 325.482 176.596 326.274 176.139C326.839 175.812 327.341 175.383 327.777 174.851C328.23 174.291 328.577 173.651 328.82 172.933L331.293 173.184C330.954 174.444 330.299 175.644 329.329 176.783C328.375 177.912 327.308 178.817 326.128 179.499C324.996 180.152 323.946 180.469 322.976 180.451C322.006 180.432 321.222 180.017 320.624 179.205C320.042 178.383 319.751 177.161 319.751 175.537C319.751 173.931 320.042 172.391 320.624 170.917C321.222 169.433 321.998 168.126 322.952 166.997C323.906 165.867 324.94 164.981 326.056 164.337ZM325.959 167.557C325.296 167.939 324.73 168.509 324.261 169.265C323.792 170.021 323.477 170.884 323.316 171.855L328.311 168.971C328.246 168.112 327.995 167.575 327.559 167.361C327.139 167.118 326.605 167.183 325.959 167.557Z" fill="white"/>
</g>
<defs>
<filter id="filter0_b_54_1723" x="-61.9141" y="-135.914" width="456.828" height="489.078" filterUnits="userSpaceOnUse" color-interpolation-filters="sRGB">
<feFlood flood-opacity="0" result="BackgroundImageFix"/>
<feGaussianBlur in="BackgroundImageFix" stdDeviation="67.957"/>
<feComposite in2="SourceAlpha" operator="in" result="effect1_backgroundBlur_54_1723"/>
<feBlend mode="normal" in="SourceGraphic" in2="effect1_backgroundBlur_54_1723" result="shape"/>
</filter>
<filter id="filter1_b_54_1723" x="-61.9141" y="-96.9141" width="371.828" height="458.828" filterUnits="userSpaceOnUse" color-interpolation-filters="sRGB">
<feFlood flood-opacity="0" result="BackgroundImageFix"/>
<feGaussianBlur in="BackgroundImageFix" stdDeviation="67.957"/>
<feComposite in2="SourceAlpha" operator="in" result="effect1_backgroundBlur_54_1723"/>
<feBlend mode="normal" in="SourceGraphic" in2="effect1_backgroundBlur_54_1723" result="shape"/>
</filter>
<filter id="filter2_d_54_1723" x="183.001" y="154.242" width="148.753" height="105.587" filterUnits="userSpaceOnUse" color-interpolation-filters="sRGB">
<feFlood flood-opacity="0" result="BackgroundImageFix"/>
<feColorMatrix in="SourceAlpha" type="matrix" values="0 0 0 0 0 0 0 0 0 0 0 0 0 0 0 0 0 0 127 0" result="hardAlpha"/>
<feOffset dx="-4"/>
<feComposite in2="hardAlpha" operator="out"/>
<feColorMatrix type="matrix" values="0 0 0 0 0.117647 0 0 0 0 0.232922 0 0 0 0 0.537255 0 0 0 1 0"/>
<feBlend mode="normal" in2="BackgroundImageFix" result="effect1_dropShadow_54_1723"/>
<feBlend mode="normal" in="SourceGraphic" in2="effect1_dropShadow_54_1723" result="shape"/>
</filter>
</defs>
</svg>
