<svg width="333" height="294" viewBox="0 0 333 294" fill="none" xmlns="http://www.w3.org/2000/svg">
<path opacity="0.5" fill-rule="evenodd" clip-rule="evenodd" d="M0 179.88L145.402 92L332.348 202.783L188.011 288L0 179.88Z" fill="#1E3C89" fill-opacity="0.7"/>
<g filter="url(#filter0_b_54_1720)">
<path fill-rule="evenodd" clip-rule="evenodd" d="M76.9589 137.247L96.1096 148.418L73.7671 159.589L158.25 207.5L180.692 196.294L203.034 209.062L276.445 165.973L148.774 91.7637L76.9589 137.247ZM61 178.74L145.582 226.616L151.966 223.425L67.3836 175.548L61 178.74ZM151.966 217.041L67.3836 169.164L73.7671 165.973L158.349 213.849L151.966 217.041Z" fill="#1E3C89" fill-opacity="0.7"/>
</g>
<g filter="url(#filter1_b_54_1720)">
<path fill-rule="evenodd" clip-rule="evenodd" d="M203.034 127.671L76.9589 55.8562V134.055L203.034 205.87V127.671ZM76.9589 137.247L88.25 143.75V152.5L80 156.5L76.9589 154.801V137.247ZM180.692 196.295L203.034 209.062V226.616L180.692 213.849V196.295Z" fill="#1E3D89" fill-opacity="0.8"/>
</g>
<path fill-rule="evenodd" clip-rule="evenodd" d="M100.897 90.9658H88.1301V156.397C88.1301 156.397 89.498 160.387 94.5137 160.387C99.5293 160.387 100.897 156.397 100.897 156.397V90.9658ZM105.685 100.541H118.452V165.973C118.452 165.973 117.084 169.962 112.068 169.962C107.053 169.962 105.685 165.973 105.685 165.973V100.541ZM136.007 110.116H123.24V175.548C123.24 175.548 124.608 179.538 129.623 179.538C134.639 179.538 136.007 175.548 136.007 175.548V110.116ZM140.795 119.692H153.562V185.123C153.562 185.123 152.194 189.113 147.178 189.113C142.162 189.113 140.795 185.123 140.795 185.123V119.692ZM158.349 125.676H171.116V194.699C171.116 194.699 169.749 198.688 164.733 198.688C159.717 198.688 158.349 194.699 158.349 194.699V125.676Z" fill="white"/>
<g filter="url(#filter2_b_54_1720)">
<path fill-rule="evenodd" clip-rule="evenodd" d="M76.9589 55.8562L96.1096 67.0274L74.1661 78.1986L156.753 127.671L180.692 114.904L203.034 127.671L276.445 84.5822L148.774 10.3733L76.9589 55.8562Z" fill="#1E3C89" fill-opacity="0.7"/>
</g>
<g filter="url(#filter3_b_54_1720)">
<path fill-rule="evenodd" clip-rule="evenodd" d="M276.445 71.8151L203.034 114.904L76.9589 43.089L150.37 0L276.445 71.8151Z" fill="#1E3C89" fill-opacity="0.7"/>
</g>
<g filter="url(#filter4_b_54_1720)">
<path fill-rule="evenodd" clip-rule="evenodd" d="M76.9589 43.0891L203.034 114.904V124.48L76.9589 52.6645V43.0891ZM74.1661 78.1777L156.753 127.671V134.055L74.1661 84.5823V78.1777ZM145.582 226.617L61 178.74V185.123L145.582 233V226.617ZM67.3836 169.164L151.966 217.041V223.425L67.3836 175.548V169.164ZM158.349 207.466L73.7671 159.589V165.973L158.349 213.849V207.466Z" fill="#1E3D89" fill-opacity="0.8"/>
</g>
<path fill-rule="evenodd" clip-rule="evenodd" d="M203.034 114.904L276.445 71.8152V81.3905L203.034 124.48V114.904ZM203.034 209.062L276.445 165.973V183.528L203.034 226.617V209.062ZM180.692 196.295L158.349 207.466V213.849L151.966 217.041V223.425L145.582 226.617V233L180.692 213.849V196.295ZM203.034 127.671L276.445 84.5823V162.781L203.034 205.87V127.671ZM180.692 114.883L156.753 127.671V134.055L180.692 121.288V114.883Z" fill="#1E3B89"/>
<g filter="url(#filter5_d_54_1720)">
<path d="M195.254 266.12L195.254 262.745L201.801 258.964L201.801 267.01C201.271 268.306 200.421 269.589 199.252 270.858C198.099 272.1 196.82 273.126 195.417 273.936C193.749 274.899 192.269 275.322 190.975 275.205C189.681 275.088 188.676 274.463 187.959 273.329C187.242 272.195 186.883 270.629 186.883 268.631C186.883 266.615 187.25 264.621 187.982 262.65C188.731 260.67 189.752 258.884 191.045 257.291C192.339 255.698 193.773 254.447 195.348 253.538C196.922 252.628 198.286 252.255 199.44 252.417C200.609 252.552 201.396 253.141 201.801 254.185L198.995 257.668C198.652 257.038 198.161 256.674 197.522 256.575C196.883 256.458 196.127 256.651 195.254 257.156C194.335 257.687 193.508 258.434 192.776 259.397C192.043 260.36 191.466 261.467 191.045 262.718C190.624 263.969 190.414 265.26 190.414 266.592C190.414 267.96 190.624 269.027 191.045 269.792C191.482 270.548 192.089 270.971 192.869 271.061C193.664 271.142 194.583 270.881 195.628 270.278C196.844 269.575 197.795 268.639 198.481 267.469L198.481 264.256L195.254 266.12ZM203.594 261.898C203.594 260.44 203.875 258.991 204.436 257.551C205.013 256.102 205.776 254.806 206.727 253.663C207.678 252.502 208.707 251.602 209.814 250.963C210.905 250.333 211.918 250.054 212.853 250.126C213.804 250.171 214.56 250.589 215.121 251.381C215.698 252.164 215.987 253.285 215.986 254.743C215.986 256.201 215.698 257.654 215.121 259.103C214.56 260.543 213.804 261.835 212.853 262.978C211.918 264.112 210.905 264.994 209.813 265.624C208.707 266.263 207.678 266.56 206.727 266.515C205.776 266.47 205.012 266.056 204.436 265.273C203.874 264.481 203.594 263.356 203.594 261.898ZM206.961 259.954C206.961 261.196 207.226 262.033 207.756 262.465C208.301 262.87 208.979 262.838 209.79 262.37C210.601 261.902 211.271 261.155 211.801 260.129C212.331 259.085 212.596 257.942 212.596 256.7C212.596 255.458 212.331 254.621 211.801 254.189C211.271 253.757 210.601 253.775 209.79 254.243C208.98 254.711 208.302 255.472 207.756 256.525C207.226 257.569 206.961 258.712 206.961 259.954ZM219.805 245.545L222.938 252.97L225.861 242.048L229.252 240.091L224.131 257.006L221.488 258.532L216.204 247.624L219.805 245.545ZM235.545 236.106C236.62 235.485 237.571 235.215 238.397 235.296C239.239 235.35 239.886 235.75 240.338 236.497C240.806 237.217 241.039 238.225 241.039 239.521C241.039 240.097 240.993 240.709 240.899 241.357L232.855 246.002C232.996 246.965 233.323 247.568 233.837 247.811C234.352 248.036 234.991 247.928 235.755 247.487C236.3 247.172 236.784 246.758 237.204 246.244C237.641 245.704 237.976 245.088 238.21 244.395L240.595 244.638C240.268 245.853 239.636 247.009 238.701 248.107C237.781 249.196 236.752 250.07 235.614 250.727C234.523 251.357 233.51 251.663 232.575 251.645C231.639 251.627 230.883 251.226 230.307 250.443C229.746 249.651 229.465 248.472 229.465 246.906C229.465 245.358 229.746 243.873 230.307 242.451C230.884 241.02 231.632 239.76 232.552 238.671C233.471 237.582 234.469 236.727 235.545 236.106ZM235.451 239.211C234.812 239.58 234.266 240.129 233.814 240.858C233.362 241.587 233.058 242.42 232.902 243.356L237.719 240.574C237.657 239.746 237.415 239.229 236.994 239.022C236.589 238.788 236.075 238.851 235.451 239.211ZM249.612 227.983C250.08 227.713 250.517 227.542 250.922 227.47C251.327 227.398 251.639 227.425 251.857 227.551L250.594 231.169C250.189 231.079 249.729 231.183 249.215 231.48C248.373 231.966 247.695 232.763 247.181 233.87C246.682 234.968 246.432 236.228 246.432 237.65L246.432 244.157L243.182 246.033L243.182 232.047L246.035 230.4C246.113 231.435 246.183 232.133 246.245 232.493C246.604 231.44 247.071 230.531 247.648 229.766C248.225 229 248.88 228.406 249.612 227.983ZM260.174 221.885C261.514 221.111 262.574 221.012 263.354 221.588C264.133 222.146 264.523 223.397 264.523 225.341L264.523 233.711L261.272 235.588L261.273 228.433C261.273 225.877 260.54 225.022 259.075 225.868C258.295 226.318 257.664 227.033 257.181 228.014C256.713 228.968 256.479 230.075 256.479 231.335L256.479 238.355L253.229 240.232L253.229 226.246L256.082 224.599C256.16 225.652 256.23 226.358 256.292 226.718C257.072 224.54 258.366 222.929 260.174 221.885ZM280.973 209.876C282.142 209.201 283.093 209.165 283.825 209.768C284.558 210.353 284.924 211.6 284.924 213.508L284.924 221.932L281.744 223.768L281.744 216.613C281.744 214.057 281.129 213.134 279.897 213.845C279.227 214.232 278.689 214.894 278.284 215.83C277.894 216.757 277.699 217.841 277.699 219.083L277.699 226.103L274.542 227.926L274.542 220.771C274.542 218.215 273.927 217.292 272.695 218.003C272.025 218.39 271.495 219.048 271.105 219.975C270.716 220.902 270.521 221.986 270.521 223.228L270.52 230.248L267.34 232.084L267.341 218.098L270.123 216.492C270.201 217.473 270.264 218.121 270.31 218.436C271.105 216.375 272.259 214.907 273.771 214.034C274.582 213.566 275.291 213.4 275.899 213.535C276.507 213.67 276.967 214.124 277.278 214.898C277.668 213.683 278.182 212.657 278.822 211.82C279.461 210.983 280.178 210.335 280.973 209.876ZM293.155 202.842C294.231 202.221 295.182 201.951 296.008 202.032C296.85 202.086 297.497 202.486 297.949 203.233C298.416 203.953 298.65 204.961 298.65 206.257C298.65 206.833 298.603 207.445 298.51 208.093L290.466 212.738C290.607 213.701 290.934 214.304 291.448 214.547C291.963 214.772 292.602 214.664 293.366 214.222C293.911 213.907 294.394 213.493 294.815 212.98C295.252 212.44 295.587 211.824 295.821 211.131L298.206 211.374C297.878 212.589 297.247 213.745 296.312 214.843C295.392 215.932 294.363 216.805 293.225 217.463C292.134 218.093 291.121 218.399 290.185 218.381C289.25 218.363 288.494 217.962 287.917 217.179C287.356 216.387 287.076 215.208 287.076 213.642C287.076 212.094 287.357 210.609 287.918 209.187C288.495 207.756 289.243 206.496 290.163 205.407C291.082 204.318 292.08 203.463 293.155 202.842ZM293.062 205.947C292.423 206.316 291.877 206.865 291.425 207.594C290.973 208.323 290.669 209.156 290.513 210.092L295.33 207.31C295.268 206.482 295.026 205.965 294.605 205.758C294.2 205.524 293.685 205.587 293.062 205.947ZM307.738 194.422C309.078 193.648 310.138 193.549 310.918 194.125C311.697 194.683 312.087 195.934 312.087 197.878L312.086 206.248L308.836 208.125L308.836 200.97C308.836 198.414 308.104 197.559 306.639 198.405C305.859 198.855 305.228 199.57 304.745 200.551C304.277 201.505 304.043 202.613 304.043 203.873L304.043 210.893L300.793 212.769L300.793 198.783L303.646 197.136C303.724 198.189 303.794 198.896 303.856 199.256C304.636 197.077 305.929 195.466 307.738 194.422ZM323.253 198.99C322.458 200.206 321.352 201.223 319.933 202.042C318.624 202.798 317.564 203.014 316.753 202.69C315.958 202.339 315.561 201.128 315.561 199.058L315.561 193.415L313.41 194.657L313.41 191.498L315.561 190.256L315.561 185.963L318.811 184.087L318.811 188.38L322.459 186.274L322.459 189.433L318.811 191.539L318.811 196.561C318.811 197.497 318.951 198.127 319.232 198.451C319.512 198.775 319.964 198.757 320.588 198.397C321.133 198.082 321.648 197.596 322.131 196.939L323.253 198.99Z" fill="white"/>
</g>
<defs>
<filter id="filter0_b_54_1720" x="-74.9141" y="-44.1504" width="487.273" height="406.681" filterUnits="userSpaceOnUse" color-interpolation-filters="sRGB">
<feFlood flood-opacity="0" result="BackgroundImageFix"/>
<feGaussianBlur in="BackgroundImageFix" stdDeviation="67.957"/>
<feComposite in2="SourceAlpha" operator="in" result="effect1_backgroundBlur_54_1720"/>
<feBlend mode="normal" in="SourceGraphic" in2="effect1_backgroundBlur_54_1720" result="shape"/>
</filter>
<filter id="filter1_b_54_1720" x="-58.9552" y="-80.0579" width="397.904" height="442.588" filterUnits="userSpaceOnUse" color-interpolation-filters="sRGB">
<feFlood flood-opacity="0" result="BackgroundImageFix"/>
<feGaussianBlur in="BackgroundImageFix" stdDeviation="67.957"/>
<feComposite in2="SourceAlpha" operator="in" result="effect1_backgroundBlur_54_1720"/>
<feBlend mode="normal" in="SourceGraphic" in2="effect1_backgroundBlur_54_1720" result="shape"/>
</filter>
<filter id="filter2_b_54_1720" x="-61.748" y="-125.541" width="474.107" height="389.126" filterUnits="userSpaceOnUse" color-interpolation-filters="sRGB">
<feFlood flood-opacity="0" result="BackgroundImageFix"/>
<feGaussianBlur in="BackgroundImageFix" stdDeviation="67.957"/>
<feComposite in2="SourceAlpha" operator="in" result="effect1_backgroundBlur_54_1720"/>
<feBlend mode="normal" in="SourceGraphic" in2="effect1_backgroundBlur_54_1720" result="shape"/>
</filter>
<filter id="filter3_b_54_1720" x="-58.9552" y="-135.914" width="471.314" height="386.732" filterUnits="userSpaceOnUse" color-interpolation-filters="sRGB">
<feFlood flood-opacity="0" result="BackgroundImageFix"/>
<feGaussianBlur in="BackgroundImageFix" stdDeviation="67.957"/>
<feComposite in2="SourceAlpha" operator="in" result="effect1_backgroundBlur_54_1720"/>
<feBlend mode="normal" in="SourceGraphic" in2="effect1_backgroundBlur_54_1720" result="shape"/>
</filter>
<filter id="filter4_b_54_1720" x="-74.9141" y="-92.825" width="413.862" height="461.739" filterUnits="userSpaceOnUse" color-interpolation-filters="sRGB">
<feFlood flood-opacity="0" result="BackgroundImageFix"/>
<feGaussianBlur in="BackgroundImageFix" stdDeviation="67.957"/>
<feComposite in2="SourceAlpha" operator="in" result="effect1_backgroundBlur_54_1720"/>
<feBlend mode="normal" in="SourceGraphic" in2="effect1_backgroundBlur_54_1720" result="shape"/>
</filter>
<filter id="filter5_d_54_1720" x="182.883" y="179.685" width="140.371" height="99.1783" filterUnits="userSpaceOnUse" color-interpolation-filters="sRGB">
<feFlood flood-opacity="0" result="BackgroundImageFix"/>
<feColorMatrix in="SourceAlpha" type="matrix" values="0 0 0 0 0 0 0 0 0 0 0 0 0 0 0 0 0 0 127 0" result="hardAlpha"/>
<feOffset dx="-4"/>
<feComposite in2="hardAlpha" operator="out"/>
<feColorMatrix type="matrix" values="0 0 0 0 0.117647 0 0 0 0 0.232922 0 0 0 0 0.537255 0 0 0 1 0"/>
<feBlend mode="normal" in2="BackgroundImageFix" result="effect1_dropShadow_54_1720"/>
<feBlend mode="normal" in="SourceGraphic" in2="effect1_dropShadow_54_1720" result="shape"/>
</filter>
</defs>
</svg>
