<svg width="333" height="285" viewBox="0 0 333 285" fill="none" xmlns="http://www.w3.org/2000/svg">
<path opacity="0.5" fill-rule="evenodd" clip-rule="evenodd" d="M0 173.88L145.402 86L332.348 196.783L188.011 282L0 173.88Z" fill="#1E3C89" fill-opacity="0.7"/>
<path fill-rule="evenodd" clip-rule="evenodd" d="M211.888 0.429199L214.025 0.429199L216.161 0.429199V156.328L214.025 156.417L211.888 156.328V0.429199Z" fill="#1E3B89"/>
<path fill-rule="evenodd" clip-rule="evenodd" d="M211.888 2.56592C211.888 2.56592 218.204 4.18475 221.927 4.67629C227.223 5.37559 234.147 3.26663 237.371 3.56557C245.606 4.32918 247.796 5.89566 247.796 5.89566V29.3872C247.796 29.3872 247.096 27.9724 237.371 27.0706C233.746 26.7345 226.847 29.2122 221.965 28.568C218.115 28.0599 211.888 26.0575 211.888 26.0575V2.56592Z" fill="#1E3C89" fill-opacity="0.7"/>
<g filter="url(#filter0_b_54_1685)">
<path fill-rule="evenodd" clip-rule="evenodd" d="M157.833 98.5008L100.689 66.0676V146.378L157.833 178.811V98.5008ZM99.1441 160.278L42 127.845V183.445L99.1441 215.878V160.278Z" fill="#1E3D89" fill-opacity="0.8"/>
</g>
<path fill-rule="evenodd" clip-rule="evenodd" d="M114.348 85.363L107 81V91.1037L114.348 95.4667V85.363ZM48 141L55.3481 145.363V155.467L48 151.104V141ZM57.1852 146.511L64.5333 150.874V160.978L57.1852 156.615V146.511ZM73.75 156.25L66.4019 151.887V161.991L73.75 166.354V156.25ZM75.6519 157.387L83 161.75V171.854L75.6519 167.491V157.387ZM92.25 167.25L84.9019 162.887V172.991L92.25 177.354V167.25ZM48 164L55.3481 168.363V178.467L48 174.104V164ZM64.5333 173.874L57.1852 169.511V179.615L64.5333 183.978V173.874ZM66.4019 174.887L73.75 179.25V189.354L66.4019 184.991V174.887ZM83 184.75L75.6519 180.387V190.491L83 194.854V184.75ZM84.9019 185.887L92.25 190.25V200.354L84.9019 195.991V185.887ZM116.185 86.5111L123.533 90.8741V100.978L116.185 96.6148V86.5111ZM132.75 96.25L125.402 91.887V101.991L132.75 106.354V96.25ZM143.902 102.887L151.25 107.25V117.354L143.902 112.991V102.887ZM114.348 108.363L107 104V114.104L114.348 118.467V108.363ZM116.185 109.511L123.533 113.874V123.978L116.185 119.615V109.511ZM132.75 119.25L125.402 114.887V124.991L132.75 129.354V119.25ZM143.902 125.887L151.25 130.25V140.354L143.902 135.991V125.887ZM151.25 153.25L143.902 148.887V158.991L151.25 163.354V153.25Z" fill="white"/>
<path fill-rule="evenodd" clip-rule="evenodd" d="M157.833 98.5007L205.71 70.7009V151.012L157.833 178.811V98.5007ZM99.144 160.278L139.299 137.112V192.711L99.144 215.878V160.278Z" fill="#1E3B89"/>
<g filter="url(#filter1_b_54_1685)">
<path fill-rule="evenodd" clip-rule="evenodd" d="M157.833 98.5008L205.71 70.7009L148.566 38.2678L100.689 66.0676L157.833 98.5008ZM99.1441 160.278L139.299 137.112L82.1553 104.679L42 127.845L99.1441 160.278Z" fill="#1E3C89" fill-opacity="0.7"/>
</g>
<path fill-rule="evenodd" clip-rule="evenodd" d="M255.859 213.442C271.923 204.304 272.073 181.203 256.129 171.858C236.221 160.189 211.6 160.029 191.542 171.439L149.785 195.192C133.435 204.493 133.282 228.005 149.51 237.517C169.022 248.954 193.154 249.111 212.813 237.928L255.859 213.442ZM194.5 233L254 197.774L211.5 173L152 208.226L194.5 233Z" fill="white"/>
<g filter="url(#filter2_d_54_1685)">
<path d="M198.623 258.386L189.878 263.436L189.878 269.624L199.977 263.792L199.977 268.11L185.608 276.407L185.609 251.519L199.654 243.409L199.654 247.693L189.879 253.338L189.878 259.186L198.623 254.136L198.623 258.386ZM213.482 234.439L217.575 232.076L217.574 257.95L213.982 260.024C213.884 258.766 213.805 257.927 213.746 257.508C213.216 258.834 212.52 260.007 211.656 261.027C210.812 262.013 209.889 262.795 208.888 263.373C207.632 264.099 206.483 264.399 205.443 264.274C204.403 264.15 203.569 263.577 202.94 262.557C202.312 261.515 201.998 260.041 201.998 258.137C201.998 256.211 202.313 254.375 202.941 252.629C203.569 250.861 204.403 249.314 205.444 247.988C206.484 246.662 207.632 245.637 208.889 244.911C209.811 244.378 210.665 244.101 211.45 244.078C212.255 244.044 212.932 244.31 213.482 244.877L213.482 234.439ZM209.83 258.783C210.851 258.194 211.715 257.264 212.422 255.995C213.128 254.726 213.482 253.23 213.482 251.507C213.482 249.807 213.128 248.753 212.422 248.345C211.715 247.914 210.851 247.994 209.831 248.583C208.751 249.207 207.878 250.153 207.21 251.422C206.562 252.68 206.238 254.103 206.238 255.689C206.238 257.276 206.562 258.347 207.21 258.902C207.877 259.446 208.751 259.407 209.83 258.783ZM231.264 232.434L235.356 230.071L235.356 247.683L231.734 249.774C231.656 248.459 231.577 247.587 231.499 247.156C230.988 248.516 230.321 249.695 229.496 250.692C228.672 251.689 227.73 252.494 226.67 253.106C224.962 254.092 223.617 254.234 222.636 253.531C221.654 252.829 221.164 251.253 221.164 248.805L221.164 238.265L225.257 235.902L225.257 244.878C225.257 248.12 226.159 249.219 227.965 248.176C228.947 247.609 229.742 246.708 230.35 245.473C230.959 244.238 231.263 242.827 231.263 241.24L231.264 232.434ZM246.03 237.814C247.208 237.134 248.15 235.921 248.857 234.176L251.978 234.482C251.487 236.08 250.711 237.525 249.651 238.817C248.591 240.109 247.384 241.146 246.03 241.928C244.675 242.71 243.409 243.09 242.231 243.067C241.054 243.022 240.102 242.517 239.375 241.554C238.649 240.568 238.286 239.112 238.286 237.185C238.286 235.236 238.649 233.36 239.376 231.558C240.102 229.733 241.054 228.13 242.232 226.747C243.41 225.342 244.676 224.248 246.03 223.466C247.385 222.684 248.592 222.327 249.652 222.395C250.712 222.463 251.487 223.012 251.978 224.044L248.857 227.954C248.17 227.036 247.228 226.922 246.03 227.614C244.97 228.226 244.116 229.184 243.469 230.487C242.84 231.756 242.526 233.173 242.526 234.737C242.526 236.278 242.85 237.327 243.498 237.882C244.145 238.437 244.99 238.415 246.03 237.814ZM260.427 215.154C262.488 213.964 264.097 213.714 265.255 214.405C266.413 215.074 266.992 216.655 266.992 219.148L266.992 229.416L263.547 231.405C263.527 231.235 263.498 230.958 263.459 230.572C263.439 230.153 263.4 229.802 263.341 229.518C262.89 230.595 262.301 231.547 261.574 232.375C260.868 233.168 260.004 233.859 258.983 234.449C257.923 235.061 256.952 235.406 256.068 235.486C255.205 235.554 254.518 235.327 254.007 234.806C253.497 234.262 253.242 233.423 253.242 232.29C253.242 231.111 253.526 229.927 254.096 228.737C254.685 227.513 255.47 226.379 256.451 225.337C257.433 224.294 258.512 223.433 259.69 222.753C260.75 222.141 261.84 221.716 262.959 221.477C262.9 218.905 261.938 218.157 260.073 219.234C258.581 220.095 257.492 221.495 256.805 223.433L253.89 223.178C254.439 221.546 255.284 220.027 256.422 218.622C257.561 217.194 258.895 216.038 260.427 215.154ZM262.958 224.605C261.977 224.9 261.123 225.257 260.397 225.677C259.435 226.232 258.689 226.867 258.159 227.581C257.629 228.272 257.364 228.98 257.364 229.706C257.364 230.363 257.57 230.754 257.982 230.879C258.414 230.992 258.964 230.856 259.631 230.471C260.514 229.961 261.29 229.23 261.957 228.278C262.625 227.303 262.958 226.305 262.958 225.285L262.958 224.605ZM281.111 220.244C280.11 221.774 278.717 223.055 276.93 224.086C275.281 225.038 273.947 225.31 272.926 224.902C271.925 224.46 271.424 222.936 271.424 220.329L271.425 213.223L268.716 214.787L268.716 210.809L271.425 209.245L271.425 203.839L275.518 201.476L275.517 206.882L280.111 204.23L280.111 208.208L275.517 210.86L275.517 217.184C275.517 218.363 275.694 219.156 276.047 219.564C276.4 219.972 276.97 219.949 277.755 219.496C278.442 219.099 279.09 218.487 279.698 217.66L281.111 220.244ZM284.965 199.183C284.317 199.557 283.748 199.603 283.257 199.319C282.786 199.002 282.55 198.458 282.55 197.687C282.55 196.894 282.786 196.078 283.257 195.239C283.728 194.401 284.298 193.789 284.965 193.403C285.632 193.018 286.211 192.978 286.702 193.284C287.193 193.568 287.438 194.095 287.438 194.865C287.438 195.636 287.193 196.458 286.702 197.33C286.211 198.18 285.632 198.798 284.965 199.183ZM287.055 217.832L282.962 220.195L282.963 202.583L287.055 200.22L287.055 217.832ZM289.958 207.35C289.958 205.514 290.311 203.69 291.018 201.876C291.744 200.052 292.706 198.42 293.903 196.98C295.101 195.518 296.396 194.385 297.79 193.58C299.164 192.787 300.44 192.435 301.618 192.526C302.815 192.583 303.767 193.11 304.474 194.107C305.2 195.093 305.563 196.504 305.563 198.34C305.563 200.176 305.2 202.006 304.473 203.831C303.767 205.644 302.815 207.271 301.617 208.71C300.439 210.138 299.164 211.249 297.789 212.042C296.396 212.847 295.1 213.221 293.903 213.164C292.705 213.108 291.744 212.586 291.017 211.6C290.311 210.603 289.957 209.186 289.958 207.35ZM294.198 204.902C294.197 206.466 294.531 207.52 295.199 208.064C295.886 208.574 296.739 208.535 297.76 207.945C298.781 207.356 299.625 206.415 300.292 205.123C300.96 203.808 301.294 202.369 301.294 200.805C301.294 199.241 300.96 198.187 300.293 197.643C299.625 197.099 298.781 197.122 297.76 197.711C296.74 198.301 295.886 199.258 295.199 200.584C294.531 201.899 294.198 203.338 294.198 204.902ZM317.27 182.333C318.958 181.358 320.293 181.233 321.274 181.958C322.256 182.661 322.746 184.236 322.746 186.684L322.746 197.224L318.653 199.588L318.654 190.578C318.654 187.359 317.731 186.282 315.886 187.348C314.904 187.914 314.109 188.815 313.501 190.051C312.912 191.252 312.618 192.646 312.617 194.233L312.617 203.073L308.524 205.436L308.525 187.824L312.117 185.75C312.215 187.076 312.304 187.965 312.382 188.419C313.364 185.676 314.993 183.647 317.27 182.333Z" fill="white"/>
</g>
<defs>
<filter id="filter0_b_54_1685" x="-93.9141" y="-69.8465" width="387.661" height="421.638" filterUnits="userSpaceOnUse" color-interpolation-filters="sRGB">
<feFlood flood-opacity="0" result="BackgroundImageFix"/>
<feGaussianBlur in="BackgroundImageFix" stdDeviation="67.957"/>
<feComposite in2="SourceAlpha" operator="in" result="effect1_backgroundBlur_54_1685"/>
<feBlend mode="normal" in="SourceGraphic" in2="effect1_backgroundBlur_54_1685" result="shape"/>
</filter>
<filter id="filter1_b_54_1685" x="-93.9141" y="-97.6463" width="435.538" height="393.839" filterUnits="userSpaceOnUse" color-interpolation-filters="sRGB">
<feFlood flood-opacity="0" result="BackgroundImageFix"/>
<feGaussianBlur in="BackgroundImageFix" stdDeviation="67.957"/>
<feComposite in2="SourceAlpha" operator="in" result="effect1_backgroundBlur_54_1685"/>
<feBlend mode="normal" in="SourceGraphic" in2="effect1_backgroundBlur_54_1685" result="shape"/>
</filter>
<filter id="filter2_d_54_1685" x="181.608" y="171.35" width="141.138" height="105.464" filterUnits="userSpaceOnUse" color-interpolation-filters="sRGB">
<feFlood flood-opacity="0" result="BackgroundImageFix"/>
<feColorMatrix in="SourceAlpha" type="matrix" values="0 0 0 0 0 0 0 0 0 0 0 0 0 0 0 0 0 0 127 0" result="hardAlpha"/>
<feOffset dx="-4"/>
<feComposite in2="hardAlpha" operator="out"/>
<feColorMatrix type="matrix" values="0 0 0 0 0.117647 0 0 0 0 0.232922 0 0 0 0 0.537255 0 0 0 1 0"/>
<feBlend mode="normal" in2="BackgroundImageFix" result="effect1_dropShadow_54_1685"/>
<feBlend mode="normal" in="SourceGraphic" in2="effect1_dropShadow_54_1685" result="shape"/>
</filter>
</defs>
</svg>
