<svg width="334" height="268" viewBox="0 0 334 268" fill="none" xmlns="http://www.w3.org/2000/svg">
<path opacity="0.5" fill-rule="evenodd" clip-rule="evenodd" d="M0 159.88L145.402 72L332.348 182.783L188.011 268L0 159.88Z" fill="#1E3C89" fill-opacity="0.7"/>
<g filter="url(#filter0_b_54_1722)">
<path fill-rule="evenodd" clip-rule="evenodd" d="M86.9488 30.7847L169.049 30.7847C169.049 30.7847 166.691 58.0085 168.406 79.6589C170.121 101.309 178.481 125.747 180.196 133.678C181.911 141.609 169.263 164.546 127.463 164.546C85.6626 164.546 73.2297 141.824 74.7302 133.678C76.2307 125.532 84.3765 98.3083 86.9488 79.6589C89.5211 61.0095 86.9488 30.7847 86.9488 30.7847Z" fill="#1E3B89"/>
</g>
<ellipse cx="133.692" cy="109.154" rx="33" ry="59" fill="url(#paint0_radial_54_1722)"/>
<g filter="url(#filter1_b_54_1722)">
<ellipse cx="127.968" cy="30.3561" rx="41.0195" ry="24.4371" fill="#1E3C89" fill-opacity="0.7"/>
</g>
<ellipse cx="127.5" cy="30" rx="36.5" ry="22" fill="white"/>
<g filter="url(#filter2_b_54_1722)">
<path fill-rule="evenodd" clip-rule="evenodd" d="M134.261 34.3298L247.608 34.3298C247.608 34.3298 244.352 71.915 246.72 101.806C249.088 131.696 260.63 165.434 262.997 176.384C265.365 187.334 247.904 219 190.194 219C132.485 219 115.32 187.63 117.392 176.384C119.463 165.138 130.709 127.553 134.261 101.806C137.812 76.0582 134.261 34.3298 134.261 34.3298Z" fill="#1E3B89"/>
</g>
<ellipse cx="231.845" cy="135.189" rx="33" ry="82.5" transform="rotate(-12 231.845 135.189)" fill="url(#paint1_radial_54_1722)"/>
<g filter="url(#filter3_b_54_1722)">
<ellipse cx="190.892" cy="33.7378" rx="56.6314" ry="33.7378" fill="#1E3C89" fill-opacity="0.7"/>
</g>
<ellipse cx="190.892" cy="34.0513" rx="50.6702" ry="29.5" fill="white"/>
<g filter="url(#filter4_d_54_1722)">
<path d="M206.833 233.02L198.602 237.772L198.602 243.596L208.107 238.108L208.107 242.172L194.583 249.98L194.584 226.556L207.803 218.924L207.803 222.956L198.602 228.268L198.602 233.772L206.833 229.02L206.833 233.02ZM214.963 238.213L211.111 240.438L211.112 216.086L214.964 213.861L214.963 238.213ZM224.901 215.484C226.175 214.748 227.302 214.428 228.281 214.524C229.279 214.588 230.046 215.062 230.582 215.948C231.136 216.801 231.413 217.996 231.413 219.532C231.413 220.214 231.357 220.94 231.246 221.708L221.713 227.212C221.88 228.353 222.268 229.068 222.877 229.356C223.487 229.623 224.244 229.495 225.15 228.972C225.796 228.598 226.369 228.108 226.868 227.5C227.385 226.86 227.782 226.129 228.059 225.308L230.886 225.596C230.498 227.036 229.75 228.406 228.641 229.708C227.551 230.998 226.332 232.033 224.983 232.812C223.69 233.559 222.489 233.921 221.381 233.9C220.272 233.879 219.376 233.404 218.693 232.476C218.028 231.537 217.695 230.14 217.695 228.284C217.695 226.449 218.028 224.689 218.693 223.004C219.377 221.308 220.263 219.815 221.353 218.524C222.443 217.233 223.626 216.22 224.901 215.484ZM224.79 219.164C224.032 219.601 223.386 220.252 222.85 221.116C222.314 221.98 221.954 222.967 221.769 224.076L227.478 220.78C227.404 219.798 227.117 219.185 226.619 218.94C226.138 218.662 225.529 218.737 224.79 219.164ZM240.409 220.033C241.518 219.393 242.404 218.252 243.07 216.609L246.007 216.897C245.545 218.401 244.815 219.761 243.818 220.977C242.82 222.193 241.684 223.169 240.409 223.905C239.134 224.641 237.943 224.998 236.834 224.977C235.726 224.935 234.83 224.46 234.146 223.553C233.463 222.625 233.121 221.255 233.121 219.441C233.121 217.607 233.463 215.841 234.146 214.145C234.83 212.428 235.726 210.919 236.835 209.617C237.943 208.294 239.135 207.265 240.41 206.529C241.684 205.793 242.82 205.457 243.818 205.521C244.816 205.585 245.545 206.102 246.007 207.073L243.07 210.753C242.423 209.889 241.536 209.782 240.409 210.433C239.412 211.009 238.608 211.91 237.998 213.137C237.407 214.332 237.112 215.665 237.111 217.137C237.111 218.588 237.416 219.575 238.026 220.097C238.636 220.62 239.43 220.598 240.409 220.033ZM258.569 212.075C257.627 213.515 256.315 214.721 254.634 215.691C253.082 216.588 251.826 216.844 250.865 216.46C249.923 216.044 249.452 214.609 249.452 212.156L249.452 205.468L246.903 206.94L246.903 203.196L249.453 201.724L249.453 196.636L253.305 194.412L253.305 199.5L257.628 197.003L257.628 200.747L253.305 203.244L253.304 209.196C253.304 210.305 253.471 211.052 253.803 211.436C254.136 211.82 254.671 211.798 255.41 211.371C256.057 210.998 256.667 210.422 257.239 209.643L258.569 212.075ZM267.933 190.637C268.487 190.317 269.004 190.115 269.484 190.029C269.965 189.944 270.334 189.976 270.593 190.125L269.096 194.413C268.616 194.307 268.071 194.429 267.461 194.781C266.464 195.357 265.66 196.302 265.05 197.614C264.459 198.915 264.164 200.408 264.163 202.094L264.163 209.806L260.311 212.03L260.312 195.454L263.693 193.502C263.785 194.728 263.868 195.555 263.942 195.982C264.367 194.734 264.921 193.656 265.605 192.75C266.288 191.843 267.064 191.139 267.933 190.637ZM274.104 185.378C273.494 185.73 272.958 185.773 272.497 185.506C272.053 185.208 271.832 184.696 271.832 183.97C271.832 183.224 272.053 182.456 272.497 181.666C272.94 180.877 273.476 180.301 274.104 179.938C274.732 179.576 275.277 179.538 275.739 179.826C276.201 180.093 276.432 180.589 276.432 181.314C276.432 182.04 276.201 182.813 275.739 183.634C275.277 184.434 274.732 185.016 274.104 185.378ZM276.071 202.93L272.219 205.154L272.219 188.578L276.071 186.354L276.071 202.93ZM286.091 193.657C287.2 193.017 288.086 191.875 288.752 190.233L291.689 190.52C291.227 192.024 290.497 193.384 289.5 194.601C288.502 195.817 287.366 196.793 286.091 197.529C284.816 198.265 283.625 198.622 282.516 198.601C281.408 198.558 280.512 198.083 279.828 197.177C279.145 196.249 278.803 194.878 278.803 193.065C278.803 191.23 279.145 189.465 279.828 187.769C280.512 186.051 281.408 184.542 282.517 183.241C283.625 181.918 284.817 180.889 286.092 180.153C287.366 179.417 288.502 179.081 289.5 179.145C290.498 179.208 291.227 179.726 291.689 180.696L288.752 184.377C288.105 183.513 287.218 183.406 286.091 184.057C285.094 184.633 284.29 185.534 283.68 186.761C283.089 187.955 282.794 189.289 282.793 190.761C282.793 192.211 283.098 193.198 283.708 193.721C284.318 194.243 285.112 194.222 286.091 193.657ZM295.429 173.065C294.82 173.417 294.284 173.46 293.822 173.193C293.379 172.894 293.157 172.382 293.157 171.657C293.157 170.91 293.379 170.142 293.822 169.353C294.266 168.564 294.801 167.988 295.43 167.625C296.058 167.262 296.603 167.225 297.065 167.513C297.526 167.78 297.757 168.276 297.757 169.001C297.757 169.726 297.526 170.5 297.064 171.321C296.603 172.121 296.057 172.702 295.429 173.065ZM297.396 190.617L293.544 192.841L293.545 176.265L297.397 174.041L297.396 190.617ZM310.936 181.839C309.994 183.279 308.682 184.485 307.001 185.455C305.449 186.352 304.193 186.608 303.232 186.224C302.29 185.808 301.819 184.373 301.819 181.92L301.819 175.232L299.269 176.704L299.27 172.96L301.819 171.488L301.819 166.4L305.671 164.175L305.671 169.263L309.994 166.767L309.994 170.511L305.671 173.007L305.671 178.959C305.671 180.069 305.837 180.815 306.17 181.199C306.502 181.583 307.038 181.562 307.777 181.135C308.423 180.762 309.033 180.186 309.606 179.407L310.936 181.839ZM322.516 159.537L326.534 157.217L320.077 179.697C319.393 182.076 318.589 183.969 317.666 185.377C316.76 186.796 315.624 187.9 314.257 188.69C313.592 189.074 312.964 189.319 312.373 189.426C311.8 189.543 311.301 189.532 310.876 189.394L312.4 185.122C312.955 185.271 313.564 185.154 314.229 184.77C314.654 184.524 315.015 184.21 315.31 183.826C315.624 183.452 315.92 182.93 316.197 182.258C316.474 181.607 316.798 180.684 317.167 179.49L310.932 166.226L315.255 163.73L319.052 172.961L322.516 159.537Z" fill="white"/>
</g>
<defs>
<filter id="filter0_b_54_1722" x="-61.3028" y="-105.129" width="377.563" height="405.589" filterUnits="userSpaceOnUse" color-interpolation-filters="sRGB">
<feFlood flood-opacity="0" result="BackgroundImageFix"/>
<feGaussianBlur in="BackgroundImageFix" stdDeviation="67.957"/>
<feComposite in2="SourceAlpha" operator="in" result="effect1_backgroundBlur_54_1722"/>
<feBlend mode="normal" in="SourceGraphic" in2="effect1_backgroundBlur_54_1722" result="shape"/>
</filter>
<filter id="filter1_b_54_1722" x="-48.9652" y="-129.995" width="353.867" height="320.702" filterUnits="userSpaceOnUse" color-interpolation-filters="sRGB">
<feFlood flood-opacity="0" result="BackgroundImageFix"/>
<feGaussianBlur in="BackgroundImageFix" stdDeviation="67.957"/>
<feComposite in2="SourceAlpha" operator="in" result="effect1_backgroundBlur_54_1722"/>
<feBlend mode="normal" in="SourceGraphic" in2="effect1_backgroundBlur_54_1722" result="shape"/>
</filter>
<filter id="filter2_b_54_1722" x="-18.6866" y="-101.584" width="417.806" height="456.498" filterUnits="userSpaceOnUse" color-interpolation-filters="sRGB">
<feFlood flood-opacity="0" result="BackgroundImageFix"/>
<feGaussianBlur in="BackgroundImageFix" stdDeviation="67.957"/>
<feComposite in2="SourceAlpha" operator="in" result="effect1_backgroundBlur_54_1722"/>
<feBlend mode="normal" in="SourceGraphic" in2="effect1_backgroundBlur_54_1722" result="shape"/>
</filter>
<filter id="filter3_b_54_1722" x="-1.65347" y="-135.914" width="385.091" height="339.304" filterUnits="userSpaceOnUse" color-interpolation-filters="sRGB">
<feFlood flood-opacity="0" result="BackgroundImageFix"/>
<feGaussianBlur in="BackgroundImageFix" stdDeviation="67.957"/>
<feComposite in2="SourceAlpha" operator="in" result="effect1_backgroundBlur_54_1722"/>
<feBlend mode="normal" in="SourceGraphic" in2="effect1_backgroundBlur_54_1722" result="shape"/>
</filter>
<filter id="filter4_d_54_1722" x="190.583" y="149.441" width="135.951" height="108.347" filterUnits="userSpaceOnUse" color-interpolation-filters="sRGB">
<feFlood flood-opacity="0" result="BackgroundImageFix"/>
<feColorMatrix in="SourceAlpha" type="matrix" values="0 0 0 0 0 0 0 0 0 0 0 0 0 0 0 0 0 0 127 0" result="hardAlpha"/>
<feOffset dx="-4"/>
<feComposite in2="hardAlpha" operator="out"/>
<feColorMatrix type="matrix" values="0 0 0 0 0.117647 0 0 0 0 0.232922 0 0 0 0 0.537255 0 0 0 1 0"/>
<feBlend mode="normal" in2="BackgroundImageFix" result="effect1_dropShadow_54_1722"/>
<feBlend mode="normal" in="SourceGraphic" in2="effect1_dropShadow_54_1722" result="shape"/>
</filter>
<radialGradient id="paint0_radial_54_1722" cx="0" cy="0" r="1" gradientUnits="userSpaceOnUse" gradientTransform="translate(133.692 106.161) rotate(90) scale(53.5796 13.8742)">
<stop stop-color="white" stop-opacity="0.377814"/>
<stop offset="1" stop-color="white" stop-opacity="0.01"/>
</radialGradient>
<radialGradient id="paint1_radial_54_1722" cx="0" cy="0" r="1" gradientUnits="userSpaceOnUse" gradientTransform="translate(231.845 131.004) rotate(90) scale(74.9206 13.8742)">
<stop stop-color="white" stop-opacity="0.377814"/>
<stop offset="1" stop-color="white" stop-opacity="0.01"/>
</radialGradient>
</defs>
</svg>
