<svg width="333" height="295" viewBox="0 0 333 295" fill="none" xmlns="http://www.w3.org/2000/svg">
<path opacity="0.5" fill-rule="evenodd" clip-rule="evenodd" d="M0 186.88L145.402 99L332.348 209.783L188.011 295L0 186.88Z" fill="#1E3C89" fill-opacity="0.7"/>
<g filter="url(#filter0_b_54_1725)">
<path fill-rule="evenodd" clip-rule="evenodd" d="M84.0352 43.0118L72 36L134 0L249 67L236.965 73.9882L249 81L236.965 87.9882L249 95L236.965 101.988L249 109L236.965 115.988L249 123L236.965 129.988L249 137L236.965 143.988L249 151L236.965 157.988L249 165L236.965 171.988L249 179L236.965 185.988L249 193L187 229L72 162L84.0352 155.012L72 148L84.0352 141.012L72 134L84.0352 127.012L72 120L84.0352 113.012L72 106L84.0352 99.0118L72 92L84.0352 85.0118L72 78L84.0352 71.0118L72 64L84.0352 57.0118L72 50L84.0352 43.0118Z" fill="#1E3C89" fill-opacity="0.7"/>
</g>
<g filter="url(#filter1_b_54_1725)">
<path fill-rule="evenodd" clip-rule="evenodd" d="M72 36L187 103V115L72 48V36ZM187 117L72 50V62L187 129V117ZM72 64L187 131V143L72 76V64ZM187 145L72 78V90L187 157V145ZM72 92L187 159V171L72 104V92ZM187 173L72 106V118L187 185V173ZM72 120L187 187V199L72 132V120ZM187 201L72 134V146L187 213V201ZM72 148L187 215V227L72 160V148ZM72 162L187 229V251L72 184V162ZM176.47 74.3217L112.47 37.0348V43.713L176.47 81V74.3217Z" fill="#1E3D89" fill-opacity="0.8"/>
</g>
<path fill-rule="evenodd" clip-rule="evenodd" d="M85.8387 47.6613L81 45V49.8387L85.8387 52.5V47.6613ZM81 143L85.8387 145.661V150.5L81 147.839V143ZM137 176.231L141.839 178.892V183.731L137 181.069V176.231ZM113.839 162.277L109 159.615V164.454L113.839 167.115V162.277ZM165 192.846L169.839 195.507V200.346L165 197.685V192.846ZM99.8387 153.969L95 151.308V156.146L99.8387 158.808V153.969ZM151 184.538L155.839 187.2V192.038L151 189.377V184.538ZM127.839 170.584L123 167.923V172.762L127.839 175.423V170.584ZM88 147.154L92.8387 149.815V154.654L88 151.993V147.154ZM148.839 183.046L144 180.385V185.223L148.839 187.885V183.046ZM116 163.769L120.839 166.431V171.269L116 168.608V163.769ZM176.839 199.661L172 197V201.839L176.839 204.5V199.661ZM102 155.462L106.839 158.123V162.962L102 160.3V155.462ZM162.839 191.354L158 188.692V193.531L162.839 196.192V191.354ZM130 172.077L134.839 174.738V179.577L130 176.916V172.077ZM85.8387 131.661L81 129V133.839L85.8387 136.5V131.661ZM141.839 164.892L137 162.231V167.069L141.839 169.731V164.892ZM109 145.615L113.839 148.277V153.115L109 150.454V145.615ZM169.839 181.507L165 178.846V183.685L169.839 186.346V181.507ZM95 137.308L99.8387 139.969V144.808L95 142.146V137.308ZM155.839 173.2L151 170.538V175.377L155.839 178.038V173.2ZM123 153.923L127.839 156.584V161.423L123 158.762V153.923ZM92.8387 135.815L88 133.154V137.993L92.8387 140.654V135.815ZM144 166.385L148.839 169.046V173.885L144 171.223V166.385ZM120.839 152.431L116 149.769V154.608L120.839 157.269V152.431ZM172 183L176.839 185.661V190.5L172 187.839V183ZM106.839 144.123L102 141.462V146.3L106.839 148.962V144.123ZM158 174.692L162.839 177.354V182.192L158 179.531V174.692ZM134.839 160.738L130 158.077V162.916L134.839 165.577V160.738ZM141.839 80.8921L137 78.2308V83.0695L141.839 85.7308V80.8921ZM85.8387 117.661L81 115V119.839L85.8387 122.5V117.661ZM141.839 150.892L137 148.231V153.069L141.839 155.731V150.892ZM109 131.615L113.839 134.277V139.115L109 136.454V131.615ZM169.839 167.507L165 164.846V169.685L169.839 172.346V167.507ZM95 123.308L99.8387 125.969V130.808L95 128.146V123.308ZM155.839 159.2L151 156.538V161.377L155.839 164.038V159.2ZM123 139.923L127.839 142.584V147.423L123 144.762V139.923ZM92.8387 121.815L88 119.154V123.993L92.8387 126.654V121.815ZM144 152.385L148.839 155.046V159.885L144 157.223V152.385ZM120.839 138.431L116 135.769V140.608L120.839 143.269V138.431ZM172 169L176.839 171.661V176.5L172 173.839V169ZM106.839 130.123L102 127.462V132.3L106.839 134.962V130.123ZM158 160.692L162.839 163.354V168.192L158 165.531V160.692ZM134.839 146.738L130 144.077V148.916L134.839 151.577V146.738ZM113.839 64.2767L109 61.6154V66.4541L113.839 69.1154V64.2767ZM85.8387 103.661L81 101V105.839L85.8387 108.5V103.661ZM141.839 136.892L137 134.231V139.069L141.839 141.731V136.892ZM109 117.615L113.839 120.277V125.115L109 122.454V117.615ZM169.839 153.507L165 150.846V155.685L169.839 158.346V153.507ZM95 109.308L99.8387 111.969V116.808L95 114.146V109.308ZM155.839 145.2L151 142.538V147.377L155.839 150.038V145.2ZM123 125.923L127.839 128.584V133.423L123 130.762V125.923ZM92.8387 107.815L88 105.154V109.993L92.8387 112.654V107.815ZM144 138.385L148.839 141.046V145.885L144 143.223V138.385ZM120.839 124.431L116 121.769V126.608L120.839 129.269V124.431ZM172 155L176.839 157.661V162.5L172 159.839V155ZM106.839 116.123L102 113.462V118.3L106.839 120.962V116.123ZM158 146.692L162.839 149.354V154.192L158 151.531V146.692ZM134.839 132.738L130 130.077V134.916L134.839 137.577V132.738ZM169.839 97.5074L165 94.8462V99.6849L169.839 102.346V97.5074ZM85.8387 89.6613L81 87V91.8387L85.8387 94.5V89.6613ZM141.839 122.892L137 120.231V125.069L141.839 127.731V122.892ZM109 103.615L113.839 106.277V111.115L109 108.454V103.615ZM169.839 139.507L165 136.846V141.685L169.839 144.346V139.507ZM95 95.3077L99.8387 97.969V102.808L95 100.146V95.3077ZM155.839 131.2L151 128.538V133.377L155.839 136.038V131.2ZM123 111.923L127.839 114.584V119.423L123 116.762V111.923ZM92.8387 93.8151L88 91.1538V95.9926L92.8387 98.6538V93.8151ZM144 124.385L148.839 127.046V131.885L144 129.223V124.385ZM120.839 110.431L116 107.769V112.608L120.839 115.269V110.431ZM172 141L176.839 143.661V148.5L172 145.839V141ZM106.839 102.123L102 99.4615V104.3L106.839 106.962V102.123ZM158 132.692L162.839 135.354V140.192L158 137.531V132.692ZM134.839 118.738L130 116.077V120.916L134.839 123.577V118.738ZM99.8387 55.969L95 53.3077V58.1464L99.8387 60.8077V55.969ZM85.8387 75.6613L81 73V77.8387L85.8387 80.5V75.6613ZM141.839 108.892L137 106.231V111.069L141.839 113.731V108.892ZM109 89.6154L113.839 92.2767V97.1154L109 94.4541V89.6154ZM169.839 125.507L165 122.846V127.685L169.839 130.346V125.507ZM95 81.3077L99.8387 83.969V88.8077L95 86.1464V81.3077ZM155.839 117.2L151 114.538V119.377L155.839 122.038V117.2ZM123 97.9231L127.839 100.584V105.423L123 102.762V97.9231ZM92.8387 79.8151L88 77.1538V81.9926L92.8387 84.6538V79.8151ZM144 110.385L148.839 113.046V117.885L144 115.223V110.385ZM120.839 96.4305L116 93.7692V98.6079L120.839 101.269V96.4305ZM172 127L176.839 129.661V134.5L172 131.839V127ZM106.839 88.1228L102 85.4615V90.3002L106.839 92.9615V88.1228ZM158 118.692L162.839 121.354V126.192L158 123.531V118.692ZM134.839 104.738L130 102.077V106.916L134.839 109.577V104.738ZM155.839 89.1997L151 86.5385V91.3772L155.839 94.0385V89.1997ZM85.8387 61.6613L81 59V63.8387L85.8387 66.5V61.6613ZM141.839 94.8921L137 92.2308V97.0695L141.839 99.7308V94.8921ZM109 75.6154L113.839 78.2767V83.1154L109 80.4541V75.6154ZM169.839 111.507L165 108.846V113.685L169.839 116.346V111.507ZM95 67.3077L99.8387 69.969V74.8077L95 72.1464V67.3077ZM155.839 103.2L151 100.538V105.377L155.839 108.038V103.2ZM123 83.9231L127.839 86.5844V91.4231L123 88.7618V83.9231ZM92.8387 65.8151L88 63.1538V67.9926L92.8387 70.6538V65.8151ZM144 96.3846L148.839 99.0459V103.885L144 101.223V96.3846ZM120.839 82.4305L116 79.7692V84.6079L120.839 87.2692V82.4305ZM172 113L176.839 115.661V120.5L172 117.839V113ZM106.839 74.1228L102 71.4615V76.3002L106.839 78.9615V74.1228ZM158 104.692L162.839 107.354V112.192L158 109.531V104.692ZM134.839 90.7382L130 88.0769V92.9156L134.839 95.5769V90.7382ZM127.839 72.5844L123 69.9231V74.7618L127.839 77.4231V72.5844ZM92.8387 51.8151L88 49.1538V53.9926L92.8387 56.6538V51.8151ZM144 82.3846L148.839 85.0459V89.8846L144 87.2233V82.3846ZM120.839 68.4305L116 65.7692V70.6079L120.839 73.2692V68.4305ZM172 99L176.839 101.661V106.5L172 103.839V99ZM106.839 60.1228L102 57.4615V62.3002L106.839 64.9615V60.1228ZM158 90.6923L162.839 93.3536V98.1923L158 95.531V90.6923ZM134.839 76.7382L130 74.0769V78.9156L134.839 81.5769V76.7382ZM96 181L113.75 191.25V208.25L96 198V181ZM132 202L149.75 212.25V229.25L132 219V202Z" fill="white"/>
<path fill-rule="evenodd" clip-rule="evenodd" d="M176.47 74.3216L210.974 54.2869V60.9651L176.47 80.9999V74.3216ZM249 66.9999L187 103V115L249 78.9999V66.9999ZM187 117L249 80.9999V92.9999L187 129V117ZM249 94.9999L187 131V143L249 107V94.9999ZM187 145L249 109V121L187 157V145ZM249 123L187 159V171L249 135V123ZM187 173L249 137V149L187 185V173ZM249 151L187 187V199L249 163V151ZM187 201L249 165V177L187 213V201ZM249 179L187 215V227L249 191V179ZM249 193L187 229V251L249 215V193Z" fill="#1E3B89"/>
<g filter="url(#filter2_d_54_1725)">
<path d="M186.708 147.716L200.504 139.751L200.503 143.234L195.313 146.231L195.312 162.512L191.898 164.483L191.899 148.202L186.708 151.199L186.708 147.716ZM206.436 141.753C206.904 141.483 207.34 141.312 207.745 141.24C208.151 141.168 208.462 141.195 208.681 141.321L207.418 144.939C207.013 144.849 206.553 144.952 206.038 145.249C205.197 145.735 204.518 146.532 204.004 147.639C203.505 148.737 203.256 149.997 203.256 151.419L203.255 157.926L200.005 159.802L200.006 145.816L202.858 144.169C202.936 145.204 203.006 145.902 203.069 146.262C203.427 145.209 203.895 144.3 204.472 143.535C205.049 142.77 205.703 142.176 206.436 141.753ZM214.214 137.261C215.851 136.316 217.129 136.118 218.049 136.667C218.969 137.198 219.429 138.454 219.429 140.434L219.428 148.588L216.693 150.167C216.677 150.032 216.654 149.812 216.622 149.506C216.607 149.173 216.576 148.894 216.529 148.669C216.17 149.524 215.703 150.28 215.126 150.937C214.565 151.567 213.879 152.116 213.068 152.584C212.227 153.07 211.455 153.344 210.753 153.407C210.068 153.461 209.522 153.281 209.117 152.867C208.711 152.435 208.509 151.769 208.509 150.869C208.509 149.933 208.735 148.993 209.187 148.048C209.655 147.076 210.278 146.176 211.058 145.348C211.837 144.52 212.694 143.836 213.63 143.296C214.472 142.81 215.337 142.472 216.225 142.283C216.178 140.24 215.415 139.646 213.934 140.501C212.749 141.185 211.884 142.297 211.338 143.836L209.024 143.633C209.46 142.337 210.13 141.131 211.034 140.015C211.939 138.881 212.999 137.963 214.214 137.261ZM216.225 144.767C215.446 145.001 214.768 145.285 214.191 145.618C213.427 146.059 212.835 146.563 212.414 147.13C211.993 147.679 211.782 148.241 211.782 148.817C211.782 149.339 211.946 149.65 212.273 149.749C212.616 149.839 213.053 149.731 213.583 149.425C214.284 149.02 214.9 148.439 215.43 147.683C215.96 146.909 216.225 146.117 216.225 145.307L216.225 144.767ZM230.71 121.527L233.96 119.651L233.959 140.198L231.107 141.845C231.029 140.846 230.966 140.18 230.92 139.847C230.499 140.9 229.945 141.831 229.259 142.641C228.589 143.424 227.856 144.045 227.061 144.504C226.064 145.08 225.152 145.319 224.326 145.22C223.5 145.121 222.837 144.666 222.338 143.856C221.84 143.028 221.59 141.858 221.59 140.346C221.59 138.816 221.84 137.358 222.339 135.972C222.837 134.568 223.5 133.34 224.326 132.287C225.152 131.234 226.064 130.419 227.062 129.843C227.795 129.42 228.473 129.2 229.096 129.182C229.735 129.155 230.273 129.366 230.71 129.816L230.71 121.527ZM227.81 140.859C228.62 140.391 229.306 139.653 229.867 138.645C230.429 137.637 230.709 136.449 230.709 135.081C230.709 133.731 230.429 132.894 229.868 132.57C229.307 132.228 228.621 132.291 227.81 132.759C226.953 133.254 226.259 134.006 225.729 135.014C225.215 136.013 224.957 137.142 224.957 138.402C224.957 139.662 225.214 140.513 225.729 140.954C226.259 141.386 226.952 141.354 227.81 140.859ZM242.375 121.002C243.451 120.381 244.402 120.11 245.228 120.191C246.069 120.245 246.716 120.646 247.168 121.393C247.636 122.113 247.87 123.121 247.87 124.417C247.87 124.993 247.823 125.605 247.729 126.253L239.686 130.897C239.826 131.86 240.153 132.463 240.668 132.706C241.182 132.931 241.821 132.823 242.585 132.382C243.131 132.067 243.614 131.653 244.035 131.14C244.471 130.6 244.807 129.983 245.04 129.29L247.425 129.533C247.098 130.748 246.467 131.905 245.531 133.003C244.612 134.092 243.583 134.965 242.445 135.622C241.354 136.252 240.34 136.558 239.405 136.54C238.47 136.522 237.714 136.122 237.137 135.339C236.576 134.547 236.295 133.368 236.296 131.802C236.296 130.254 236.576 128.769 237.137 127.347C237.714 125.916 238.462 124.656 239.382 123.567C240.302 122.478 241.3 121.623 242.375 121.002ZM242.282 124.107C241.642 124.476 241.097 125.025 240.645 125.754C240.193 126.483 239.889 127.315 239.733 128.251L244.549 125.47C244.487 124.642 244.246 124.124 243.825 123.918C243.419 123.684 242.905 123.747 242.282 124.107Z" fill="white"/>
</g>
<defs>
<filter id="filter0_b_54_1725" x="44.8172" y="-27.1828" width="231.366" height="283.366" filterUnits="userSpaceOnUse" color-interpolation-filters="sRGB">
<feFlood flood-opacity="0" result="BackgroundImageFix"/>
<feGaussianBlur in="BackgroundImageFix" stdDeviation="13.5914"/>
<feComposite in2="SourceAlpha" operator="in" result="effect1_backgroundBlur_54_1725"/>
<feBlend mode="normal" in="SourceGraphic" in2="effect1_backgroundBlur_54_1725" result="shape"/>
</filter>
<filter id="filter1_b_54_1725" x="44.8172" y="8.81718" width="169.366" height="269.366" filterUnits="userSpaceOnUse" color-interpolation-filters="sRGB">
<feFlood flood-opacity="0" result="BackgroundImageFix"/>
<feGaussianBlur in="BackgroundImageFix" stdDeviation="13.5914"/>
<feComposite in2="SourceAlpha" operator="in" result="effect1_backgroundBlur_54_1725"/>
<feBlend mode="normal" in="SourceGraphic" in2="effect1_backgroundBlur_54_1725" result="shape"/>
</filter>
<filter id="filter2_d_54_1725" x="182.707" y="111.619" width="65.1628" height="56.1855" filterUnits="userSpaceOnUse" color-interpolation-filters="sRGB">
<feFlood flood-opacity="0" result="BackgroundImageFix"/>
<feColorMatrix in="SourceAlpha" type="matrix" values="0 0 0 0 0 0 0 0 0 0 0 0 0 0 0 0 0 0 127 0" result="hardAlpha"/>
<feOffset dx="-4"/>
<feComposite in2="hardAlpha" operator="out"/>
<feColorMatrix type="matrix" values="0 0 0 0 0.117647 0 0 0 0 0.232922 0 0 0 0 0.537255 0 0 0 1 0"/>
<feBlend mode="normal" in2="BackgroundImageFix" result="effect1_dropShadow_54_1725"/>
<feBlend mode="normal" in="SourceGraphic" in2="effect1_dropShadow_54_1725" result="shape"/>
</filter>
</defs>
</svg>
