<svg width="333" height="277" viewBox="0 0 333 277" fill="none" xmlns="http://www.w3.org/2000/svg">
<path opacity="0.5" fill-rule="evenodd" clip-rule="evenodd" d="M0 168.88L145.402 81L332.348 191.783L188.011 277L0 168.88Z" fill="#1E3C89" fill-opacity="0.7"/>
<g filter="url(#filter0_b_54_1728)">
<path fill-rule="evenodd" clip-rule="evenodd" d="M108 43L116.746 47.8592L106 54L114.746 58.8592L104 65L112.746 69.8592L102 76L110.746 80.8592L100 87L108.746 91.8592L98 98L106.746 102.859L96 109L104.746 113.859L94 120L102.746 124.859L92 131L100.746 135.859L90 142L98.7465 146.859L88 153L124 173L164.915 149.62L165.042 149.69L154 156L166.042 162.69L155 169L167.042 175.69L156 182L168.042 188.69L157 195L193 215L249 183L236.958 176.31L248 170L235.958 163.31L247 157L234.958 150.31L246 144L233.958 137.31L245 131L232.958 124.31L244 118L231.958 111.31L243 105L230.958 98.3099L242 92L229.958 85.3099L241 79L228.958 72.3099L240 66L227.958 59.3099L239 53L203 33L192.549 38.9718L189.254 37.1408L200 31L164 11L108 43Z" fill="white"/>
</g>
<g filter="url(#filter1_b_54_1728)">
<path fill-rule="evenodd" clip-rule="evenodd" d="M110 32L182 72L238 40L166 0L110 32Z" fill="#1E3C89" fill-opacity="0.7"/>
</g>
<path fill-rule="evenodd" clip-rule="evenodd" d="M182 72L238 40V51L182 83V72ZM239 53L183 85V96L239 64V53ZM144 63L148 60.75V70.5714L149 70V79.825L150 79.25V89V90.25V98.6L151 98V108.083L152 107.5V117.5V118.5V127.087L153 126.5V136.577L154 136V146.069L155 145.5V155V156.5V166L124 184V173L126 171.839V162L128 160.862V151L130 149.846V140L132 138.826V129L134 127.85V118L136 116.833V107L138 105.8V96L140 94.8333V85L142 83.85V74L144 72.8571V63ZM249 183L193 215V226L249 194V183ZM192 202L248 170V181L192 213V202ZM247 157L191 189V200L247 168V157ZM190 176L246 144V155L190 187V176ZM245 131L189 163V174L245 142V131ZM188 150L244 118V129L188 161V150ZM243 105L187 137V148L243 116V105ZM186 124L242 92V103L186 135V124ZM241 79L185 111V122L241 90V79ZM184 98L240 66V77L184 109V98Z" fill="#1E3B89"/>
<g filter="url(#filter2_b_54_1728)">
<path fill-rule="evenodd" clip-rule="evenodd" d="M182 72L110 32V43L182 83V72ZM144 63L108 43V54L144 74V63ZM106 54L142 74V85L106 65V54ZM140 85L104 65V76L140 96V85ZM102 76L138 96V107L102 87V76ZM136 107L100 87V98L136 118V107ZM98 98L134 118V129L98 109V98ZM132 129L96 109V120L132 140V129ZM94 120L130 140V151L94 131V120ZM128 162V151L92 131V142L128 162ZM90 153V142L126 162V173L90 153ZM124 173V184L88 164V153L124 173ZM157 195L193 215V226L157 206V195ZM192 202L156 182V193L192 213V202ZM155 169L191 189V200L155 180V169ZM190 176L154 156V167L190 187V176ZM153 143L189 163V174L153 154V143ZM188 150L152 130V141L188 161V150ZM151 117L187 137V148L151 128V117ZM186 124L150 104V115L186 135V124ZM149 91L185 111V122L149 102V91ZM184 98L148 78V89L184 109V98ZM147 65L183 85V96L147 76V65Z" fill="#1E3D89" fill-opacity="0.8"/>
</g>
<defs>
<filter id="filter0_b_54_1728" x="-47.9141" y="-124.914" width="432.828" height="475.828" filterUnits="userSpaceOnUse" color-interpolation-filters="sRGB">
<feFlood flood-opacity="0" result="BackgroundImageFix"/>
<feGaussianBlur in="BackgroundImageFix" stdDeviation="67.957"/>
<feComposite in2="SourceAlpha" operator="in" result="effect1_backgroundBlur_54_1728"/>
<feBlend mode="normal" in="SourceGraphic" in2="effect1_backgroundBlur_54_1728" result="shape"/>
</filter>
<filter id="filter1_b_54_1728" x="-25.9141" y="-135.914" width="399.828" height="343.828" filterUnits="userSpaceOnUse" color-interpolation-filters="sRGB">
<feFlood flood-opacity="0" result="BackgroundImageFix"/>
<feGaussianBlur in="BackgroundImageFix" stdDeviation="67.957"/>
<feComposite in2="SourceAlpha" operator="in" result="effect1_backgroundBlur_54_1728"/>
<feBlend mode="normal" in="SourceGraphic" in2="effect1_backgroundBlur_54_1728" result="shape"/>
</filter>
<filter id="filter2_b_54_1728" x="-47.9141" y="-103.914" width="376.828" height="465.828" filterUnits="userSpaceOnUse" color-interpolation-filters="sRGB">
<feFlood flood-opacity="0" result="BackgroundImageFix"/>
<feGaussianBlur in="BackgroundImageFix" stdDeviation="67.957"/>
<feComposite in2="SourceAlpha" operator="in" result="effect1_backgroundBlur_54_1728"/>
<feBlend mode="normal" in="SourceGraphic" in2="effect1_backgroundBlur_54_1728" result="shape"/>
</filter>
</defs>
</svg>
