<svg width="333" height="337" viewBox="0 0 333 337" fill="none" xmlns="http://www.w3.org/2000/svg">
<path opacity="0.5" fill-rule="evenodd" clip-rule="evenodd" d="M0 228.88L145.402 141L332.348 251.783L188.011 337L0 228.88Z" fill="#1E3C89" fill-opacity="0.7"/>
<g filter="url(#filter0_b_54_1732)">
<path fill-rule="evenodd" clip-rule="evenodd" d="M91.9007 47.0254L73 36L135 0L195 35L176.099 45.9746L195 57L176.099 67.9746L195 79L176.099 89.9746L195 101L176.099 111.975L195 123L176.125 133.96L250 177L231.088 187.981L250 199L231.088 209.981L250 221L231.088 231.981L250 243L188 279L73 212L91.9125 201.019L73 190L91.9125 179.019L73 168L91.9125 157.019L73 146L91.9007 135.025L73 124L91.9007 113.025L73 102L91.9007 91.0254L73 80L91.9007 69.0254L73 58L91.9007 47.0254Z" fill="#1E3C89" fill-opacity="0.7"/>
</g>
<g filter="url(#filter1_b_54_1732)">
<path fill-rule="evenodd" clip-rule="evenodd" d="M133 42.7273L99 23V34.2727L133 54V42.7273ZM73 36L133 71V91L73 56V36ZM133 93L73 58V78L133 113V93ZM73 80L133 115V135L73 100V80ZM133 137L73 102V122L133 157V137ZM73 124L133 159V179L73 144V124ZM188 213L73 146V166L188 233V213ZM73 168L188 235V255L73 188V168ZM188 257L73 190V210L188 277V257ZM188 279L73 212V232L188 299V279Z" fill="#1E3D89" fill-opacity="0.8"/>
</g>
<path fill-rule="evenodd" clip-rule="evenodd" d="M133 42.5714L168 22V33.4286L133 54V42.5714ZM195 35L133 71V91L195 55V35ZM133 93L195 57V77L133 113V93ZM195 79L133 115V135L195 99V79ZM133 137L195 101V121L133 157V137ZM195 123L133 159V179L195 143V123ZM188 213L250 177V197L188 233V213ZM250 199L188 235V255L250 219V199ZM188 257L250 221V241L188 277V257ZM188 279L250 243V263L188 299V279Z" fill="#1E3B89"/>
<path fill-rule="evenodd" clip-rule="evenodd" d="M82 46L86 48.1613V57.75L82 55.5887V46ZM105.767 238.75L121 247.563V259.75L105.767 250.937V238.75ZM155 267.313L140 258.5V270.687L155 279.5V267.313ZM110 62.5556L114 64.7168V74.3056L110 72.1443V62.5556ZM82 200L86 202.161V211.75L82 209.589V200ZM110 216.556L114 218.717V228.306L110 226.144V216.556ZM151 240.272L147 238.111V247.7L151 249.861V240.272ZM96 208.278L100 210.439V220.028L96 217.866V208.278ZM165 248.55L161 246.389V255.978L165 258.139V248.55ZM89 204.139L93 206.3V215.889L89 213.728V204.139ZM121 222.856L117 220.694V230.283L121 232.444V222.856ZM154 242.25L158 244.411V254L154 251.839V242.25ZM107 214.578L103 212.417V222.005L107 224.167V214.578ZM140 233.972L144 236.134V245.722L140 243.561V233.972ZM172 252.689L168 250.528V260.116L172 262.278V252.689ZM175 254.667L179 256.828V266.417L175 264.255V254.667ZM89 182.139L93 184.3V193.889L89 191.728V182.139ZM82 156L86 158.161V167.75L82 165.589V156ZM110 172.556L114 174.717V184.306L110 182.144V172.556ZM151 196.272L147 194.111V203.7L151 205.861V196.272ZM96 164.278L100 166.439V176.028L96 173.866V164.278ZM165 204.55L161 202.389V211.978L165 214.139V204.55ZM89 160.139L93 162.3V171.889L89 169.728V160.139ZM121 178.856L117 176.694V186.283L121 188.444V178.856ZM154 198.25L158 200.411V210L154 207.839V198.25ZM107 170.578L103 168.417V178.005L107 180.167V170.578ZM140 189.972L144 192.134V201.722L140 199.561V189.972ZM172 208.689L168 206.528V216.116L172 218.278V208.689ZM175 210.667L179 212.828V222.417L175 220.255V210.667ZM96 54.2778L100 56.4391V66.0278L96 63.8665V54.2778ZM82 134L86 136.161V145.75L82 143.589V134ZM110 150.556L114 152.717V162.306L110 160.144V150.556ZM100 144.439L96 142.278V151.866L100 154.028V144.439ZM89 138.139L93 140.3V149.889L89 147.728V138.139ZM121 156.856L117 154.694V164.283L121 166.444V156.856ZM103 146.417L107 148.578V158.167L103 156.005V146.417ZM103 190.417L107 192.578V202.167L103 200.005V190.417ZM82 112L86 114.161V123.75L82 121.589V112ZM110 128.556L114 130.717V140.306L110 138.144V128.556ZM100 122.439L96 120.278V129.866L100 132.028V122.439ZM89 116.139L93 118.3V127.889L89 125.728V116.139ZM121 134.856L117 132.694V142.283L121 144.444V134.856ZM103 124.417L107 126.578V136.167L103 134.005V124.417ZM89 50.1389L93 52.3002V61.8889L89 59.7276V50.1389ZM82 90L86 92.1613V101.75L82 99.5887V90ZM110 106.556L114 108.717V118.306L110 116.144V106.556ZM100 100.439L96 98.2778V107.866L100 110.028V100.439ZM89 94.1389L93 96.3002V105.889L89 103.728V94.1389ZM121 112.856L117 110.694V120.283L121 122.444V112.856ZM103 102.417L107 104.578V114.167L103 112.005V102.417ZM117 66.6944L121 68.8557V78.4444L117 76.2832V66.6944ZM82 68L86 70.1613V79.75L82 77.5887V68ZM110 84.5556L114 86.7168V96.3056L110 94.1443V84.5556ZM100 78.4391L96 76.2778V85.8665L100 88.0278V78.4391ZM89 72.1389L93 74.3002V83.8889L89 81.7276V72.1389ZM121 90.8557L117 88.6944V98.2832L121 100.444V90.8557ZM103 80.4167L107 82.578V92.1667L103 90.0054V80.4167ZM96 186.278L100 188.439V198.028L96 195.867V186.278ZM103 58.4167L107 60.578V70.1667L103 68.0054V58.4167ZM86 180.161L82 178V187.589L86 189.75V180.161ZM110 194.556L114 196.717V206.306L110 204.144V194.556ZM121 200.856L117 198.695V208.283L121 210.445V200.856ZM147 215.139L151 217.3V226.889L147 224.727V215.139ZM165 225.578L161 223.417V233.006L165 235.167V225.578ZM154 219.278L158 221.439V231.028L154 228.867V219.278ZM144 213.161L140 211V220.589L144 222.75V213.161ZM168 227.556L172 229.717V239.306L168 237.144V227.556ZM179 233.856L175 231.694V241.283L179 243.444V233.856Z" fill="white"/>
<defs>
<filter id="filter0_b_54_1732" x="-62.9141" y="-135.914" width="448.828" height="550.828" filterUnits="userSpaceOnUse" color-interpolation-filters="sRGB">
<feFlood flood-opacity="0" result="BackgroundImageFix"/>
<feGaussianBlur in="BackgroundImageFix" stdDeviation="67.957"/>
<feComposite in2="SourceAlpha" operator="in" result="effect1_backgroundBlur_54_1732"/>
<feBlend mode="normal" in="SourceGraphic" in2="effect1_backgroundBlur_54_1732" result="shape"/>
</filter>
<filter id="filter1_b_54_1732" x="-62.9141" y="-112.914" width="386.828" height="547.828" filterUnits="userSpaceOnUse" color-interpolation-filters="sRGB">
<feFlood flood-opacity="0" result="BackgroundImageFix"/>
<feGaussianBlur in="BackgroundImageFix" stdDeviation="67.957"/>
<feComposite in2="SourceAlpha" operator="in" result="effect1_backgroundBlur_54_1732"/>
<feBlend mode="normal" in="SourceGraphic" in2="effect1_backgroundBlur_54_1732" result="shape"/>
</filter>
</defs>
</svg>
