<svg width="333" height="283" viewBox="0 0 333 283" fill="none" xmlns="http://www.w3.org/2000/svg">
<path opacity="0.5" fill-rule="evenodd" clip-rule="evenodd" d="M0 174.88L145.402 87L332.348 197.783L188.011 283L0 174.88Z" fill="#1E3C89" fill-opacity="0.7"/>
<path fill-rule="evenodd" clip-rule="evenodd" d="M87 37L93.9219 40.9853L87 45L93.9219 48.9853L87 53L93.9219 56.9853L87 61L93.9219 64.9853L87 69L93.9219 72.9853L87 77L93.9219 80.9853L87 85L93.9219 88.9853L87 93L93.9219 96.9853L87 101L93.9219 104.985L87 109L93.9219 112.985L87 117L93.9219 120.985L87 125L93.9219 128.985L87 133L93.9219 136.985L87 141L93.9219 144.985L87 149L93.9219 152.985L87 157L93.9219 160.985L87 165L186 222L236.25 193L229.302 189.01L236.25 185L229.302 181.01L236.25 177L229.302 173.01L236.25 169L229.302 165.01L236.25 161L229.302 157.01L236.25 153L229.302 149.01L236.25 145L229.302 141.01L236.25 137L229.302 133.01L236.25 129L229.302 125.01L236.25 121L229.302 117.01L236.25 113L229.302 109.01L236.25 105L229.302 101.01L236.25 97L229.302 93.0098L236.25 89L229.302 85.0098L236.25 81L229.302 77.0098L236.25 73L229.302 69.0098L236.25 65L137 8L87 37Z" fill="white"/>
<path fill-rule="evenodd" clip-rule="evenodd" d="M87 29L186 86L236.25 57L137 0L87 29Z" fill="#1E3C89" fill-opacity="0.7"/>
<g filter="url(#filter0_b_54_1729)">
<path fill-rule="evenodd" clip-rule="evenodd" d="M186 86L87 29V36L186 93V86ZM87 37L186 94V101L87 44V37ZM186 102L87 45V52L186 109V102ZM87 53L186 110V117L87 60V53ZM186 118L87 61V68L186 125V118ZM87 69L186 126V133L87 76V69ZM186 134L87 77V84L186 141V134ZM87 85L186 142V149L87 92V85ZM186 150L87 93V100L186 157V150ZM87 101L186 158V165L87 108V101ZM186 166L87 109V116L186 173V166ZM87 117L186 174V181L87 124V117ZM186 182L87 125V132L186 189V182ZM87 133L186 190V197L87 140V133ZM186 198L87 141V148L186 205V198ZM87 149L186 206V213L87 156V149ZM186 214L87 157V164L186 221V214ZM186 222L87 165V172L186 229V222ZM132 31L171 53.2656V56L132 33.7344V31Z" fill="#1E3D89" fill-opacity="0.8"/>
</g>
<path fill-rule="evenodd" clip-rule="evenodd" d="M186 86L236 57V64L186 93V86ZM236 65L186 94V101L236 72V65ZM186 102L236 73V80L186 109V102ZM236 81L186 110V117L236 88V81ZM186 118L236 89V96L186 125V118ZM236 97L186 126V133L236 104V97ZM186 134L236 105V112L186 141V134ZM236 113L186 142V149L236 120V113ZM186 150L236 121V128L186 157V150ZM236 129L186 158V165L236 136V129ZM186 166L236 137V144L186 173V166ZM236 145L186 174V181L236 152V145ZM186 182L236 153V160L186 189V182ZM236 161L186 190V197L236 168V161ZM186 198L236 169V176L186 205V198ZM236 177L186 206V213L236 184V177ZM186 214L236 185V192L186 221V214ZM186 222L236 193V200L186 229V222ZM191 42L171 53.2778V56L191 44.7222V42Z" fill="#1E3B89"/>
<defs>
<filter id="filter0_b_54_1729" x="-48.9141" y="-106.914" width="370.828" height="471.828" filterUnits="userSpaceOnUse" color-interpolation-filters="sRGB">
<feFlood flood-opacity="0" result="BackgroundImageFix"/>
<feGaussianBlur in="BackgroundImageFix" stdDeviation="67.957"/>
<feComposite in2="SourceAlpha" operator="in" result="effect1_backgroundBlur_54_1729"/>
<feBlend mode="normal" in="SourceGraphic" in2="effect1_backgroundBlur_54_1729" result="shape"/>
</filter>
</defs>
</svg>
