<svg width="333" height="331" viewBox="0 0 333 331" fill="none" xmlns="http://www.w3.org/2000/svg">
<path opacity="0.5" fill-rule="evenodd" clip-rule="evenodd" d="M0 222.88L145.402 135L332.348 245.783L188.011 331L0 222.88Z" fill="#1E3C89" fill-opacity="0.7"/>
<g filter="url(#filter0_b_54_1731)">
<path fill-rule="evenodd" clip-rule="evenodd" d="M201.051 17.4599L214 10L178 0L150 16L151.806 18.0574L122 35L151 66L222.932 24.0205L201.051 17.4599ZM151 147L223 109.75L155.25 64L81 107L151 147ZM257 163L183 206L151 186.5L223 143.5L257 163ZM81.25 147L182.75 206L183 286L81 227L81.25 147Z" fill="#1E3C89" fill-opacity="0.7"/>
</g>
<g filter="url(#filter1_b_54_1731)">
<path fill-rule="evenodd" clip-rule="evenodd" d="M151 66L122 35V115L151 146V66ZM151 147L81 106.75V227L183 286L182.75 206L151 186.5V147Z" fill="#1E3D89" fill-opacity="0.8"/>
</g>
<path fill-rule="evenodd" clip-rule="evenodd" d="M214 10L168 36.5L150 16V30L168 51L214 24V10ZM151 66L223 24V143.5L151 186.5V66ZM183 206L257 163V243L183 286V206Z" fill="#1E3B89"/>
<path fill-rule="evenodd" clip-rule="evenodd" d="M222.746 44.5693L223.254 45.4305L150.905 88.1368L121.631 56.0871L122.369 55.4127L151.095 86.8619L222.746 44.5693ZM222.746 64.5693L223.254 65.4305L150.905 108.137L121.631 76.0871L122.369 75.4127L151.095 106.862L222.746 64.5693ZM223.254 85.4305L222.746 84.5693L151.095 126.862L122.369 95.4127L121.631 96.0871L150.905 128.137L223.254 85.4305ZM222.749 104.567L223.251 105.432L150.907 147.382L121.635 116.091L122.365 115.408L151.093 146.117L222.749 104.567ZM223.256 124.429L222.744 123.571L150.993 166.421L110 143.123V123H109V142.554L81.7471 127.065L81.253 127.935L109 143.705V162.528L81.2434 147.063L80.7567 147.937L109 163.672V183.346L81.2472 167.565L80.7529 168.435L109 184.497V204.346L81.2472 188.565L80.7529 189.435L109 205.497V224.346L81.2472 208.565L80.7529 209.435L109 225.497V244H110V226.065L150 248.81V268H151V249.379L183.001 267.576L257.249 224.934L256.751 224.066L182.998 266.423L151 248.228V229.379L183.001 247.576L257.249 204.934L256.751 204.066L182.998 246.423L151 228.228V208.379L183.001 226.576L257.249 183.934L256.751 183.066L182.998 225.423L151 207.228V187.072L151.009 187.077L223.256 143.929L222.744 143.071L150.99 185.922L110 163.085V144.273L151.006 167.579L223.256 124.429ZM110 164.229V183.915L109 183.346V184.497L110 185.065V204.915L109 204.346V205.497L110 206.065V224.915L109 224.346V225.497L110 226.065V224.915L150 247.66V248.81L151 249.379V248.228L150 247.66V228.81L151 229.379V228.228L150 227.66V207.81L151 208.379V207.228L150 206.66V186.515L110 164.229ZM150 206.66V207.81L110 185.065V183.915L150 206.66ZM150 227.66V228.81L110 206.065V204.915L150 227.66ZM110 144.273L109 143.705V142.554L110 143.123V144.273Z" fill="white"/>
<defs>
<filter id="filter0_b_54_1731" x="-54.9141" y="-135.914" width="447.828" height="557.828" filterUnits="userSpaceOnUse" color-interpolation-filters="sRGB">
<feFlood flood-opacity="0" result="BackgroundImageFix"/>
<feGaussianBlur in="BackgroundImageFix" stdDeviation="67.957"/>
<feComposite in2="SourceAlpha" operator="in" result="effect1_backgroundBlur_54_1731"/>
<feBlend mode="normal" in="SourceGraphic" in2="effect1_backgroundBlur_54_1731" result="shape"/>
</filter>
<filter id="filter1_b_54_1731" x="-54.9141" y="-100.914" width="373.828" height="522.828" filterUnits="userSpaceOnUse" color-interpolation-filters="sRGB">
<feFlood flood-opacity="0" result="BackgroundImageFix"/>
<feGaussianBlur in="BackgroundImageFix" stdDeviation="67.957"/>
<feComposite in2="SourceAlpha" operator="in" result="effect1_backgroundBlur_54_1731"/>
<feBlend mode="normal" in="SourceGraphic" in2="effect1_backgroundBlur_54_1731" result="shape"/>
</filter>
</defs>
</svg>
