<svg width="333" height="314" viewBox="0 0 333 314" fill="none" xmlns="http://www.w3.org/2000/svg">
<path opacity="0.5" fill-rule="evenodd" clip-rule="evenodd" d="M0 205.88L145.402 118L332.348 228.783L188.011 314L0 205.88Z" fill="#1E3C89" fill-opacity="0.7"/>
<g filter="url(#filter0_b_54_1719)">
<path fill-rule="evenodd" clip-rule="evenodd" d="M97 43.938L170.23 86.2485V262L97 219.69V43.938Z" fill="#1E3D89" fill-opacity="0.8"/>
</g>
<path fill-rule="evenodd" clip-rule="evenodd" d="M158.839 94.1664L97 58.5837V219.908L158.839 255.491V94.1664ZM105 70.9999L107 72.2856V76.9999L105 75.7142V70.9999ZM131 85.9999L133 87.2856V91.9999L131 90.7142V85.9999ZM120 79.2856L118 77.9999V82.7142L120 83.9999V79.2856ZM144 93.9999L146 95.2856V99.9999L144 98.7142V93.9999ZM107 105.286L105 104V108.714L107 110V105.286ZM131 119L133 120.286V125L131 123.714V119ZM120 112.286L118 111V115.714L120 117V112.286ZM144 127L146 128.286V133L144 131.714V127ZM107 138.286L105 137V141.714L107 143V138.286ZM131 151L133 152.286V157L131 155.714V151ZM120 144.286L118 143V147.714L120 149V144.286ZM144 159L146 160.286V165L144 163.714V159ZM107 170.286L105 169V173.714L107 175V170.286ZM131 184L133 185.286V190L131 188.714V184ZM120 177.286L118 176V180.714L120 182V177.286ZM144 192L146 193.286V198L144 196.714V192ZM107 203.286L105 202V206.714L107 208V203.286ZM131 216L133 217.286V222L131 220.714V216ZM120 209.286L118 208V212.714L120 214V209.286ZM144 224L146 225.286V230L144 228.714V224ZM107 89.2856L105 87.9999V92.7142L107 93.9999V89.2856ZM131 102L133 103.286V108L131 106.714V102ZM120 95.2856L118 93.9999V98.7142L120 99.9999V95.2856ZM144 111L146 112.286V117L144 115.714V111ZM107 121.286L105 120V124.714L107 126V121.286ZM131 135L133 136.286V141L131 139.714V135ZM120 128.286L118 127V131.714L120 133V128.286ZM144 143L146 144.286V149L144 147.714V143ZM107 154.286L105 153V157.714L107 159V154.286ZM131 167L133 168.286V173L131 171.714V167ZM120 160.286L118 159V163.714L120 165V160.286ZM144 176L146 177.286V182L144 180.714V176ZM107 186.286L105 185V189.714L107 191V186.286ZM131 200L133 201.286V206L131 204.714V200ZM120 193.286L118 192V196.714L120 198V193.286ZM144 208L146 209.286V214L144 212.714V208ZM107 81.2856L105 79.9999V84.7142L107 85.9999V81.2856ZM131 93.9999L133 95.2856V99.9999L131 98.7142V93.9999ZM120 87.2856L118 85.9999V90.7142L120 91.9999V87.2856ZM144 102L146 103.286V108L144 106.714V102ZM107 113.286L105 112V116.714L107 118V113.286ZM131 127L133 128.286V133L131 131.714V127ZM120 120.286L118 119V123.714L120 125V120.286ZM144 135L146 136.286V141L144 139.714V135ZM107 146.286L105 145V149.714L107 151V146.286ZM131 159L133 160.286V165L131 163.714V159ZM120 152.286L118 151V155.714L120 157V152.286ZM144 167L146 168.286V173L144 171.714V167ZM107 178.286L105 177V181.714L107 183V178.286ZM131 192L133 193.286V198L131 196.714V192ZM120 185.286L118 184V188.714L120 190V185.286ZM144 200L146 201.286V206L144 204.714V200ZM107 211.286L105 210V214.714L107 216V211.286ZM131 224L133 225.286V230L131 228.714V224ZM120 217.286L118 216V220.714L120 222V217.286ZM144 233L146 234.286V239L144 237.714V233ZM107 97.2856L105 95.9999V100.714L107 102V97.2856ZM131 111L133 112.286V117L131 115.714V111ZM120 103.286L118 102V106.714L120 108V103.286ZM144 119L146 120.286V125L144 123.714V119ZM107 129.286L105 128V132.714L107 134V129.286ZM131 143L133 144.286V149L131 147.714V143ZM120 136.286L118 135V139.714L120 141V136.286ZM144 151L146 152.286V157L144 155.714V151ZM107 162.286L105 161V165.714L107 167V162.286ZM131 176L133 177.286V182L131 180.714V176ZM120 168.286L118 167V171.714L120 173V168.286ZM144 184L146 185.286V190L144 188.714V184ZM107 195.286L105 194V198.714L107 200V195.286ZM131 208L133 209.286V214L131 212.714V208ZM120 201.286L118 200V204.714L120 206V201.286ZM144 216L146 217.286V222L144 220.714V216ZM111 74.2856L109 72.9999V77.7142L111 78.9999V74.2856ZM135 87.9999L137 89.2856V93.9999L135 92.7142V87.9999ZM124 81.2856L122 79.9999V84.7142L124 85.9999V81.2856ZM148 95.9999L150 97.2856V102L148 100.714V95.9999ZM111 107.286L109 106V110.714L111 112V107.286ZM135 121L137 122.286V127L135 125.714V121ZM124 114.286L122 113V117.714L124 119V114.286ZM148 129L150 130.286V135L148 133.714V129ZM111 140.286L109 139V143.714L111 145V140.286ZM135 153L137 154.286V159L135 157.714V153ZM124 146.286L122 145V149.714L124 151V146.286ZM148 161L150 162.286V167L148 165.714V161ZM111 172.286L109 171V175.714L111 177V172.286ZM135 186L137 187.286V192L135 190.714V186ZM124 179.286L122 178V182.714L124 184V179.286ZM148 194L150 195.286V200L148 198.714V194ZM111 205.286L109 204V208.714L111 210V205.286ZM135 218L137 219.286V224L135 222.714V218ZM124 211.286L122 210V214.714L124 216V211.286ZM148 226L150 227.286V232L148 230.714V226ZM111 91.2856L109 89.9999V94.7142L111 95.9999V91.2856ZM135 104L137 105.286V110L135 108.714V104ZM124 97.2856L122 95.9999V100.714L124 102V97.2856ZM148 113L150 114.286V119L148 117.714V113ZM111 123.286L109 122V126.714L111 128V123.286ZM135 137L137 138.286V143L135 141.714V137ZM124 130.286L122 129V133.714L124 135V130.286ZM148 145L150 146.286V151L148 149.714V145ZM111 156.286L109 155V159.714L111 161V156.286ZM135 169L137 170.286V175L135 173.714V169ZM124 162.286L122 161V165.714L124 167V162.286ZM148 178L150 179.286V184L148 182.714V178ZM111 188.286L109 187V191.714L111 193V188.286ZM135 202L137 203.286V208L135 206.714V202ZM124 195.286L122 194V198.714L124 200V195.286ZM148 210L150 211.286V216L148 214.714V210ZM111 83.2856L109 81.9999V86.7142L111 87.9999V83.2856ZM135 95.9999L137 97.2856V102L135 100.714V95.9999ZM124 89.2856L122 87.9999V92.7142L124 93.9999V89.2856ZM148 104L150 105.286V110L148 108.714V104ZM111 115.286L109 114V118.714L111 120V115.286ZM135 129L137 130.286V135L135 133.714V129ZM124 122.286L122 121V125.714L124 127V122.286ZM148 137L150 138.286V143L148 141.714V137ZM111 148.286L109 147V151.714L111 153V148.286ZM135 161L137 162.286V167L135 165.714V161ZM124 154.286L122 153V157.714L124 159V154.286ZM148 169L150 170.286V175L148 173.714V169ZM111 180.286L109 179V183.714L111 185V180.286ZM135 194L137 195.286V200L135 198.714V194ZM124 187.286L122 186V190.714L124 192V187.286ZM148 202L150 203.286V208L148 206.714V202ZM111 213.286L109 212V216.714L111 218V213.286ZM135 226L137 227.286V232L135 230.714V226ZM124 219.286L122 218V222.714L124 224V219.286ZM148 235L150 236.286V241L148 239.714V235ZM111 99.2856L109 97.9999V102.714L111 104V99.2856ZM135 113L137 114.286V119L135 117.714V113ZM124 105.286L122 104V108.714L124 110V105.286ZM148 121L150 122.286V127L148 125.714V121ZM111 131.286L109 130V134.714L111 136V131.286ZM135 145L137 146.286V151L135 149.714V145ZM124 138.286L122 137V141.714L124 143V138.286ZM148 153L150 154.286V159L148 157.714V153ZM111 164.286L109 163V167.714L111 169V164.286ZM135 178L137 179.286V184L135 182.714V178ZM124 170.286L122 169V173.714L124 175V170.286ZM148 186L150 187.286V192L148 190.714V186ZM111 197.286L109 196V200.714L111 202V197.286ZM135 210L137 211.286V216L135 214.714V210ZM124 203.286L122 202V206.714L124 208V203.286ZM148 218L150 219.286V224L148 222.714V218Z" fill="white"/>
<path fill-rule="evenodd" clip-rule="evenodd" d="M245.087 42.3105L170.23 86.2484V262L245.087 218.062V42.3105Z" fill="#1E3B89"/>
<g filter="url(#filter1_b_54_1719)">
<path fill-rule="evenodd" clip-rule="evenodd" d="M245.087 42.3106L170.23 86.2484L97 43.9379L171.857 0L245.087 42.3106Z" fill="#1E3C89" fill-opacity="0.7"/>
</g>
<g filter="url(#filter2_d_54_1719)">
<path d="M181.891 135.098L189.607 130.643L189.607 122.867L193.021 120.896L193.021 140.66L189.607 142.631L189.607 134.126L181.891 138.581L181.891 147.086L178.5 149.044L178.501 129.28L181.891 127.322L181.891 135.098ZM195.649 132.15C195.649 130.692 195.929 129.243 196.491 127.803C197.067 126.354 197.831 125.058 198.782 123.915C199.733 122.753 200.762 121.853 201.869 121.214C202.96 120.584 203.973 120.305 204.908 120.377C205.859 120.422 206.615 120.841 207.176 121.633C207.753 122.416 208.041 123.536 208.041 124.994C208.041 126.452 207.753 127.906 207.176 129.355C206.615 130.795 205.859 132.086 204.908 133.229C203.973 134.363 202.959 135.245 201.868 135.875C200.761 136.514 199.733 136.812 198.782 136.767C197.831 136.722 197.067 136.308 196.49 135.525C195.929 134.733 195.649 133.608 195.649 132.15ZM199.016 130.206C199.016 131.448 199.281 132.285 199.811 132.716C200.356 133.121 201.034 133.09 201.845 132.622C202.655 132.154 203.326 131.407 203.856 130.381C204.386 129.337 204.651 128.194 204.651 126.952C204.651 125.71 204.386 124.873 203.856 124.441C203.326 124.009 202.656 124.027 201.845 124.495C201.035 124.963 200.356 125.723 199.811 126.776C199.281 127.821 199.016 128.964 199.016 130.206ZM218.674 125.038C217.879 126.253 216.772 127.27 215.353 128.089C214.044 128.845 212.984 129.061 212.173 128.737C211.378 128.386 210.981 127.176 210.981 125.106L210.981 119.463L208.83 120.705L208.83 117.546L210.981 116.304L210.981 112.011L214.232 110.134L214.231 114.427L217.879 112.321L217.879 115.48L214.231 117.586L214.231 122.608C214.231 123.544 214.371 124.174 214.652 124.498C214.933 124.822 215.385 124.804 216.008 124.444C216.554 124.129 217.068 123.643 217.551 122.986L218.674 125.038ZM225.316 107.676C226.392 107.055 227.343 106.785 228.169 106.866C229.01 106.92 229.657 107.32 230.109 108.067C230.577 108.787 230.811 109.795 230.811 111.091C230.811 111.667 230.764 112.279 230.67 112.927L222.627 117.572C222.767 118.535 223.094 119.138 223.609 119.381C224.123 119.606 224.762 119.498 225.526 119.057C226.072 118.742 226.555 118.327 226.976 117.814C227.412 117.274 227.748 116.658 227.981 115.965L230.366 116.208C230.039 117.423 229.408 118.579 228.472 119.677C227.553 120.766 226.524 121.639 225.386 122.297C224.295 122.927 223.281 123.233 222.346 123.215C221.411 123.197 220.655 122.796 220.078 122.013C219.517 121.221 219.236 120.042 219.236 118.476C219.237 116.928 219.517 115.443 220.078 114.021C220.655 112.59 221.403 111.33 222.323 110.241C223.243 109.152 224.24 108.297 225.316 107.676ZM225.222 110.781C224.583 111.15 224.038 111.699 223.586 112.428C223.134 113.157 222.83 113.99 222.674 114.926L227.49 112.144C227.428 111.316 227.187 110.799 226.766 110.592C226.36 110.358 225.846 110.421 225.222 110.781ZM236.203 115.727L232.953 117.603L232.954 97.0561L236.204 95.1795L236.203 115.727Z" fill="white"/>
</g>
<defs>
<filter id="filter0_b_54_1719" x="-38.9141" y="-91.9761" width="345.058" height="489.89" filterUnits="userSpaceOnUse" color-interpolation-filters="sRGB">
<feFlood flood-opacity="0" result="BackgroundImageFix"/>
<feGaussianBlur in="BackgroundImageFix" stdDeviation="67.957"/>
<feComposite in2="SourceAlpha" operator="in" result="effect1_backgroundBlur_54_1719"/>
<feBlend mode="normal" in="SourceGraphic" in2="effect1_backgroundBlur_54_1719" result="shape"/>
</filter>
<filter id="filter1_b_54_1719" x="-38.9141" y="-135.914" width="419.915" height="358.077" filterUnits="userSpaceOnUse" color-interpolation-filters="sRGB">
<feFlood flood-opacity="0" result="BackgroundImageFix"/>
<feGaussianBlur in="BackgroundImageFix" stdDeviation="67.957"/>
<feComposite in2="SourceAlpha" operator="in" result="effect1_backgroundBlur_54_1719"/>
<feBlend mode="normal" in="SourceGraphic" in2="effect1_backgroundBlur_54_1719" result="shape"/>
</filter>
<filter id="filter2_d_54_1719" x="174.5" y="95.1796" width="61.7039" height="54.1884" filterUnits="userSpaceOnUse" color-interpolation-filters="sRGB">
<feFlood flood-opacity="0" result="BackgroundImageFix"/>
<feColorMatrix in="SourceAlpha" type="matrix" values="0 0 0 0 0 0 0 0 0 0 0 0 0 0 0 0 0 0 127 0" result="hardAlpha"/>
<feOffset dx="-4"/>
<feComposite in2="hardAlpha" operator="out"/>
<feColorMatrix type="matrix" values="0 0 0 0 0.117647 0 0 0 0 0.232922 0 0 0 0 0.537255 0 0 0 1 0"/>
<feBlend mode="normal" in2="BackgroundImageFix" result="effect1_dropShadow_54_1719"/>
<feBlend mode="normal" in="SourceGraphic" in2="effect1_dropShadow_54_1719" result="shape"/>
</filter>
</defs>
</svg>
