<svg width="88" height="99" viewBox="0 0 88 99" fill="none" xmlns="http://www.w3.org/2000/svg">
<path fill-rule="evenodd" clip-rule="evenodd" d="M88 26L44 51V99L88 73.386V26Z" fill="#03571F"/>
<path fill-rule="evenodd" clip-rule="evenodd" d="M0 26L44 51V99L0 73.386L0 26Z" fill="#03571F" fill-opacity="0.8"/>
<path fill-rule="evenodd" clip-rule="evenodd" d="M43.8191 0L88 26L44 51L0 26L43.8191 0Z" fill="#03571F" fill-opacity="0.7"/>
<g filter="url(#filter0_d_54_1622)">
<path fill-rule="evenodd" clip-rule="evenodd" d="M15 27.75V18.5H26V12H42V15H35.25L47.75 22.5L43.75 24.75L31 17V21.25H24L36.75 28.75L32.75 31L19.75 23.5V27.75H15ZM4 35.25V46.75L12.75 51.75L18.75 60.5L12.75 62.75L4 57.75V69L13.75 74.5V71L29.75 80.25V83.75L39.75 89.5V78.25L30.75 73L25 64L30.75 62L39.75 67V55.75L29.75 50V53.75L13.75 44.25V40.75L4 35.25ZM22 59.5L15.5 50L28.5 57.25L22 59.5ZM21.75 65.25L28.25 74.75L15.25 67.5L21.75 65.25ZM56.5 50L48.75 62.75L56.5 67.25L58.75 63.25L55.25 61.25L59.75 58.75L64.75 64.75L60 76.25L55.5 79L58.75 73.25L56.25 72L48.75 85L56.5 89.5L59 85.5L55.25 83.5L62.25 79.5L67 67.5L72.25 73.75L78.5 70.25L75.25 75.75L77.75 77.25L85.5 64L77.75 59.75L75.25 63.5L78.75 65.5L74 68.25L69.25 62L74.25 50L78.5 47.75L75 53.5L77.75 55L85.25 41.75L77.5 37.25L75.25 41.25L78.5 43.25L72 47L67 59.25L62 52.75L55.5 56.75L58.5 51.25L56.5 50ZM71.75 22.25V31.5H60.75V38H44.75V35H51.5L39 27.5L43 25.25L55.75 33V28.75H62.75L50 21.25L54 19L67 26.5V22.25H71.75Z" fill="white"/>
</g>
<defs>
<filter id="filter0_d_54_1622" x="4" y="12" width="81.5" height="79.5" filterUnits="userSpaceOnUse" color-interpolation-filters="sRGB">
<feFlood flood-opacity="0" result="BackgroundImageFix"/>
<feColorMatrix in="SourceAlpha" type="matrix" values="0 0 0 0 0 0 0 0 0 0 0 0 0 0 0 0 0 0 127 0" result="hardAlpha"/>
<feOffset dy="2"/>
<feComposite in2="hardAlpha" operator="out"/>
<feColorMatrix type="matrix" values="0 0 0 0 0.0117647 0 0 0 0 0.341176 0 0 0 0 0.121569 0 0 0 1 0"/>
<feBlend mode="normal" in2="BackgroundImageFix" result="effect1_dropShadow_54_1622"/>
<feBlend mode="normal" in="SourceGraphic" in2="effect1_dropShadow_54_1622" result="shape"/>
</filter>
</defs>
</svg>
