<svg width="121" height="88" viewBox="0 0 121 88" fill="none" xmlns="http://www.w3.org/2000/svg">
<path fill-rule="evenodd" clip-rule="evenodd" d="M0 35L60.25 70V88L0 53V35Z" fill="#03571F" fill-opacity="0.8"/>
<g filter="url(#filter0_b_54_1633)">
<path fill-rule="evenodd" clip-rule="evenodd" d="M60 0L120.25 35L60.25 70L0 35L60 0Z" fill="#03571F" fill-opacity="0.7"/>
</g>
<path fill-rule="evenodd" clip-rule="evenodd" d="M120.25 35L60 70V88L120.25 53V35Z" fill="#03571F"/>
<g filter="url(#filter1_d_54_1633)">
<path fill-rule="evenodd" clip-rule="evenodd" d="M53.3633 36.2431L62.37 11L69.452 31.8247L83.6104 22.7002L82.8394 21.6863L88.4287 20.6235L85.2564 25.5117L84.6002 24.1635L70.0992 33.7278L70.2161 34.0716L87.267 28.273L86.7636 27.1023L92.4435 27.426L88.1854 31.4L87.8741 29.9328L71.1405 35.8222L90.715 35.567L90.5973 34.2977L95.8993 36.3644L90.6241 38.8253L90.7805 37.3335L71.4806 37.7901L71.5865 38.1014L90.1867 43.1845L90.4227 41.9319L94.9509 45.383L89.2031 46.2915L89.7638 44.9008L72.3475 40.3392L77.5883 55.75H46.4033L53.3533 36.2713L48.3991 39.25V37.75L25.1975 40.75L24.948 38.75L48.1497 36L47.9002 34.75L53.3633 36.2431Z" fill="white"/>
</g>
<defs>
<filter id="filter0_b_54_1633" x="-135.914" y="-135.914" width="392.078" height="341.828" filterUnits="userSpaceOnUse" color-interpolation-filters="sRGB">
<feFlood flood-opacity="0" result="BackgroundImageFix"/>
<feGaussianBlur in="BackgroundImageFix" stdDeviation="67.957"/>
<feComposite in2="SourceAlpha" operator="in" result="effect1_backgroundBlur_54_1633"/>
<feBlend mode="normal" in="SourceGraphic" in2="effect1_backgroundBlur_54_1633" result="shape"/>
</filter>
<filter id="filter1_d_54_1633" x="24.948" y="11" width="70.9513" height="46.75" filterUnits="userSpaceOnUse" color-interpolation-filters="sRGB">
<feFlood flood-opacity="0" result="BackgroundImageFix"/>
<feColorMatrix in="SourceAlpha" type="matrix" values="0 0 0 0 0 0 0 0 0 0 0 0 0 0 0 0 0 0 127 0" result="hardAlpha"/>
<feOffset dy="2"/>
<feComposite in2="hardAlpha" operator="out"/>
<feColorMatrix type="matrix" values="0 0 0 0 0.0117647 0 0 0 0 0.341176 0 0 0 0 0.121569 0 0 0 1 0"/>
<feBlend mode="normal" in2="BackgroundImageFix" result="effect1_dropShadow_54_1633"/>
<feBlend mode="normal" in="SourceGraphic" in2="effect1_dropShadow_54_1633" result="shape"/>
</filter>
</defs>
</svg>
