<svg width="121" height="88" viewBox="0 0 121 88" fill="none" xmlns="http://www.w3.org/2000/svg">
<path fill-rule="evenodd" clip-rule="evenodd" d="M0 35L60.25 70V88L0 53V35Z" fill="#03571F" fill-opacity="0.8"/>
<g filter="url(#filter0_b_54_1628)">
<path fill-rule="evenodd" clip-rule="evenodd" d="M60 0L120.25 35L60.25 70L0 35L60 0Z" fill="#03571F" fill-opacity="0.7"/>
</g>
<path fill-rule="evenodd" clip-rule="evenodd" d="M120.25 35L60 70V88L120.25 53V35Z" fill="#03571F"/>
<g filter="url(#filter1_d_54_1628)">
<path fill-rule="evenodd" clip-rule="evenodd" d="M36.9684 17.5972C28.4253 21.6284 22.9522 27.834 22.9522 34.7946C22.9522 37.4542 23.7512 40.0035 25.2152 42.3635L30.8227 40.9929C29.6046 39.0605 28.9397 36.9727 28.9397 34.7946C28.9397 29.0168 33.6184 23.8747 40.8916 20.5812L36.9684 17.5972ZM64.4162 16.9872L65.3115 13C81.5108 14.3129 94.39 21.7778 96.9752 31.2757L90.3768 31.7728C88.1555 24.1268 77.6484 18.1197 64.4162 16.9872ZM44.2862 23.1632C38.5747 25.9138 34.9272 30.1026 34.9272 34.7946C34.9272 36.4963 35.407 38.1317 36.2909 39.6564L41.9132 38.2823C41.2656 37.1864 40.9148 36.0137 40.9148 34.7946C40.9148 31.3084 43.7837 28.201 48.2599 26.1856L44.2862 23.1632ZM62.8676 23.8841L63.7554 19.9304C74.6872 20.8024 83.4119 25.7826 85.3281 32.1532L79.4451 32.5965C77.805 28.0252 71.1503 24.4829 62.8676 23.8841ZM51.3538 28.539C48.0325 30.0048 45.9044 32.2623 45.9044 34.7946C45.9044 35.6147 46.1276 36.406 46.5422 37.1509L52.3357 35.7349C52.0479 35.2827 51.8919 34.7983 51.8919 34.2946C51.8919 32.9947 52.9308 31.8236 54.5921 31.0021L51.3538 28.539ZM61.5312 29.8361L62.2 26.8577C68.2326 27.2776 73.109 29.7509 74.4667 32.9716L68.6915 33.4067C67.9885 31.5433 65.1163 30.0955 61.5312 29.8361ZM66.0942 37.6175C64.586 38.3487 62.5783 38.7946 60.3742 38.7946C59.7644 38.7946 59.1695 38.7605 58.5962 38.6956L55.9845 42.4199C57.369 42.6633 58.8439 42.7946 60.3742 42.7946C64.7975 42.7946 68.7572 41.6973 71.4114 39.9682L66.0942 37.6175ZM75.4471 41.7524C71.8786 44.2197 66.4518 45.7946 60.3742 45.7946C58.1553 45.7946 56.0231 45.5847 54.0364 45.198L51.4699 48.8579C54.2268 49.4636 57.2099 49.7946 60.3239 49.7946C68.5087 49.7946 75.7892 47.5078 80.4337 43.957L75.4471 41.7524ZM84.4476 45.7315C78.7937 50.0255 69.8903 52.7946 59.8753 52.7946C56.2152 52.7946 52.7036 52.4248 49.4448 51.7458L46.9146 55.3539C51.0413 56.2847 55.5202 56.7946 60.2007 56.7946C72.2933 56.7946 83.0401 53.3911 89.8447 48.1175L84.4476 45.7315ZM63.8669 34.2946C63.8669 35.6753 62.3032 36.7946 60.3742 36.7946C58.4452 36.7946 56.8815 35.6753 56.8815 34.2946C56.8815 32.9139 58.4452 31.7946 60.3742 31.7946C62.3032 31.7946 63.8669 32.9139 63.8669 34.2946Z" fill="white"/>
</g>
<defs>
<filter id="filter0_b_54_1628" x="-135.914" y="-135.914" width="392.078" height="341.828" filterUnits="userSpaceOnUse" color-interpolation-filters="sRGB">
<feFlood flood-opacity="0" result="BackgroundImageFix"/>
<feGaussianBlur in="BackgroundImageFix" stdDeviation="67.957"/>
<feComposite in2="SourceAlpha" operator="in" result="effect1_backgroundBlur_54_1628"/>
<feBlend mode="normal" in="SourceGraphic" in2="effect1_backgroundBlur_54_1628" result="shape"/>
</filter>
<filter id="filter1_d_54_1628" x="22.9522" y="13" width="74.023" height="45.7946" filterUnits="userSpaceOnUse" color-interpolation-filters="sRGB">
<feFlood flood-opacity="0" result="BackgroundImageFix"/>
<feColorMatrix in="SourceAlpha" type="matrix" values="0 0 0 0 0 0 0 0 0 0 0 0 0 0 0 0 0 0 127 0" result="hardAlpha"/>
<feOffset dy="2"/>
<feComposite in2="hardAlpha" operator="out"/>
<feColorMatrix type="matrix" values="0 0 0 0 0.0117647 0 0 0 0 0.341176 0 0 0 0 0.121569 0 0 0 1 0"/>
<feBlend mode="normal" in2="BackgroundImageFix" result="effect1_dropShadow_54_1628"/>
<feBlend mode="normal" in="SourceGraphic" in2="effect1_dropShadow_54_1628" result="shape"/>
</filter>
</defs>
</svg>
