<svg width="121" height="88" viewBox="0 0 121 88" fill="none" xmlns="http://www.w3.org/2000/svg">
<path fill-rule="evenodd" clip-rule="evenodd" d="M0 35L60.25 70V88L0 53V35Z" fill="#03571F" fill-opacity="0.8"/>
<g filter="url(#filter0_b_56_1464)">
<path fill-rule="evenodd" clip-rule="evenodd" d="M60 0L120.25 35L60.25 70L0 35L60 0Z" fill="#03571F" fill-opacity="0.7"/>
</g>
<path fill-rule="evenodd" clip-rule="evenodd" d="M120.25 35L60 70V88L120.25 53V35Z" fill="#03571F"/>
<g filter="url(#filter1_d_56_1464)">
<path fill-rule="evenodd" clip-rule="evenodd" d="M24.948 30.25L30.4366 27.25L42.1621 34.25V30.75H47.4012L35.9251 24L41.1642 20.75L52.8898 27.75V24.5H58.6278L46.9023 17.75L52.3908 14L64.3659 21.5V17.75H69.3555V26.25L80.3326 19.75L104.033 33.5L58.6278 60L35.1767 46.5L45.4054 40.5H30.686V37.25H36.4241L24.948 30.25ZM59.1268 38.5L46.1538 46.25L58.1289 53.5L93.0561 33.5L80.5821 26L78.5863 27.25L86.0707 32L80.5821 35L73.3472 30.5L71.6008 31.5L78.8357 36L73.3472 39.25L66.1122 34.75L64.3659 35.75L71.8503 40.25L66.6112 43L59.1268 38.5ZM58.1289 32.75V27.25H67.6091L58.1289 32.75ZM47.1517 39.25V33.75H56.632L47.1517 39.25Z" fill="white"/>
</g>
<defs>
<filter id="filter0_b_56_1464" x="-135.914" y="-135.914" width="392.078" height="341.828" filterUnits="userSpaceOnUse" color-interpolation-filters="sRGB">
<feFlood flood-opacity="0" result="BackgroundImageFix"/>
<feGaussianBlur in="BackgroundImageFix" stdDeviation="67.957"/>
<feComposite in2="SourceAlpha" operator="in" result="effect1_backgroundBlur_56_1464"/>
<feBlend mode="normal" in="SourceGraphic" in2="effect1_backgroundBlur_56_1464" result="shape"/>
</filter>
<filter id="filter1_d_56_1464" x="24.948" y="14" width="79.0852" height="48" filterUnits="userSpaceOnUse" color-interpolation-filters="sRGB">
<feFlood flood-opacity="0" result="BackgroundImageFix"/>
<feColorMatrix in="SourceAlpha" type="matrix" values="0 0 0 0 0 0 0 0 0 0 0 0 0 0 0 0 0 0 127 0" result="hardAlpha"/>
<feOffset dy="2"/>
<feComposite in2="hardAlpha" operator="out"/>
<feColorMatrix type="matrix" values="0 0 0 0 0.0117647 0 0 0 0 0.341176 0 0 0 0 0.121569 0 0 0 1 0"/>
<feBlend mode="normal" in2="BackgroundImageFix" result="effect1_dropShadow_56_1464"/>
<feBlend mode="normal" in="SourceGraphic" in2="effect1_dropShadow_56_1464" result="shape"/>
</filter>
</defs>
</svg>
