<svg width="121" height="88" viewBox="0 0 121 88" fill="none" xmlns="http://www.w3.org/2000/svg">
<path fill-rule="evenodd" clip-rule="evenodd" d="M0 35L60.25 70V88L0 53V35Z" fill="#03571F" fill-opacity="0.8"/>
<g filter="url(#filter0_b_54_1614)">
<path fill-rule="evenodd" clip-rule="evenodd" d="M60 0L120.25 35L60.25 70L0 35L60 0Z" fill="#03571F" fill-opacity="0.7"/>
</g>
<path fill-rule="evenodd" clip-rule="evenodd" d="M120.25 35L60 70V88L120.25 53V35Z" fill="#03571F"/>
<g filter="url(#filter1_d_54_1614)">
<path fill-rule="evenodd" clip-rule="evenodd" d="M32.6819 25.5L59.1268 10L89.3139 27.75L63.1185 43.25L32.6819 25.5ZM42.1622 25.75L59.1268 15.75L79.8337 28L62.869 37.75L42.1622 25.75ZM14.9688 34L27.9418 26L62.1206 46L49.1476 53.75L14.9688 34ZM24.1996 34L28.1913 31.5L53.3888 45.75L48.8981 48.25L24.1996 34ZM52.3909 55.25L62.1206 49.75L66.6112 52.75L87.8171 40.25L83.0769 37.5L93.5551 31.25L99.7921 35.25V38.75L64.3659 59.5L58.8773 59.25L52.3909 55.25Z" fill="white"/>
</g>
<defs>
<filter id="filter0_b_54_1614" x="-135.914" y="-135.914" width="392.078" height="341.828" filterUnits="userSpaceOnUse" color-interpolation-filters="sRGB">
<feFlood flood-opacity="0" result="BackgroundImageFix"/>
<feGaussianBlur in="BackgroundImageFix" stdDeviation="67.957"/>
<feComposite in2="SourceAlpha" operator="in" result="effect1_backgroundBlur_54_1614"/>
<feBlend mode="normal" in="SourceGraphic" in2="effect1_backgroundBlur_54_1614" result="shape"/>
</filter>
<filter id="filter1_d_54_1614" x="14.9688" y="10" width="84.8233" height="51.5" filterUnits="userSpaceOnUse" color-interpolation-filters="sRGB">
<feFlood flood-opacity="0" result="BackgroundImageFix"/>
<feColorMatrix in="SourceAlpha" type="matrix" values="0 0 0 0 0 0 0 0 0 0 0 0 0 0 0 0 0 0 127 0" result="hardAlpha"/>
<feOffset dy="2"/>
<feComposite in2="hardAlpha" operator="out"/>
<feColorMatrix type="matrix" values="0 0 0 0 0.0117647 0 0 0 0 0.341176 0 0 0 0 0.121569 0 0 0 1 0"/>
<feBlend mode="normal" in2="BackgroundImageFix" result="effect1_dropShadow_54_1614"/>
<feBlend mode="normal" in="SourceGraphic" in2="effect1_dropShadow_54_1614" result="shape"/>
</filter>
</defs>
</svg>
