<svg width="121" height="88" viewBox="0 0 121 88" fill="none" xmlns="http://www.w3.org/2000/svg">
<path fill-rule="evenodd" clip-rule="evenodd" d="M0 35L60.25 70V88L0 53V35Z" fill="#03571F" fill-opacity="0.8"/>
<g filter="url(#filter0_b_54_1618)">
<path fill-rule="evenodd" clip-rule="evenodd" d="M60 0L120.25 35L60.25 70L0 35L60 0Z" fill="#03571F" fill-opacity="0.7"/>
</g>
<path fill-rule="evenodd" clip-rule="evenodd" d="M120.25 35L60 70V88L120.25 53V35Z" fill="#03571F"/>
<g filter="url(#filter1_d_54_1618)">
<path fill-rule="evenodd" clip-rule="evenodd" d="M78.8358 13H39.9169V33.3145L32.6819 27L30.4366 29.25L33.9293 32H22.9522V35.25H33.9293L30.4366 38.25L32.9314 40.5L39.9169 34.2V55H78.8358V35.25H89.8129L86.3202 38.25L88.815 40.5L96.2994 33.75L88.5655 27L86.3202 29.25L89.8129 32H78.8358V13ZM75.842 15H42.9106V53H75.842V15ZM55.8836 17H58.8774V21H55.8836V17ZM55.8836 29H58.8774V33H55.8836V29ZM55.8836 41H58.8774V45H55.8836V41ZM67.3597 20.25V17C67.3597 17 74.8441 19.5 74.8441 26C74.8441 31.5 66.8607 35 66.8607 35C66.8607 35 62.869 37.75 62.869 40.75C62.869 45 67.3597 47 67.3597 47V50.25C65.3639 50 59.8753 47 59.8753 40.75C59.8753 35.5 66.8607 31.75 66.8607 31.75C66.8607 31.75 71.8503 29.5 71.8503 25.75C71.8503 22 67.3597 20.25 67.3597 20.25ZM55.8836 23H58.8774V27H55.8836V23ZM49.1816 17C45.8405 17 44.9065 18.092 44.9065 19.988C44.9065 21.884 45.8405 22.976 49.1816 22.976C52.5106 22.976 53.4567 21.884 53.4567 19.988C53.4567 18.104 52.5106 17 49.1816 17ZM46.2956 19.988C46.2956 18.992 46.8704 18.632 49.1816 18.632C51.4808 18.632 52.0676 19.004 52.0676 19.988C52.0676 20.996 51.4808 21.368 49.1816 21.368C46.8824 21.368 46.2956 20.996 46.2956 19.988ZM45.0262 26.72H51.864L51.4688 24.68H52.834L53.3369 27.164V28.364L45.0262 28.364V26.72ZM44.9065 34.076C44.9065 32.18 45.8405 31.088 49.1816 31.088C52.5106 31.088 53.4567 32.192 53.4567 34.076C53.4567 35.972 52.5106 37.064 49.1816 37.064C45.8405 37.064 44.9065 35.972 44.9065 34.076ZM49.1816 32.72C46.8704 32.72 46.2956 33.08 46.2956 34.076C46.2956 35.084 46.8824 35.456 49.1816 35.456C51.4808 35.456 52.0676 35.084 52.0676 34.076C52.0676 33.092 51.4808 32.72 49.1816 32.72ZM45.0262 40.808H51.864L51.4688 38.768H52.834L53.3369 41.252V42.452H45.0262V40.808ZM51.864 47.852H45.0262V49.496H53.3369V48.296L52.834 45.812H51.4688L51.864 47.852ZM55.8836 35H58.8774V39H55.8836V35ZM58.8774 47H55.8836V51H58.8774V47Z" fill="white"/>
</g>
<path d="M18.2862 50.4867L19.4287 51.1478L19.429 59.9318L17.9956 59.1024L17.9955 53.4384L16.0636 55.6446L15.2742 55.1879L13.3318 50.7161L13.332 56.4041L11.909 55.5807L11.9088 46.7967L13.1032 47.4878L15.7 53.5383L18.2862 50.4867ZM20.5915 57.4964C20.5915 56.8484 20.7161 56.3485 20.9654 55.9968C21.2215 55.649 21.5608 55.4653 21.9832 55.4457C22.4056 55.4181 22.8626 55.5465 23.3542 55.831C23.839 56.1114 24.289 56.5079 24.7045 57.0203C25.1269 57.5287 25.4628 58.103 25.7121 58.7432C25.9683 59.3874 26.0964 60.0336 26.0964 60.6816C26.0965 61.3296 25.9684 61.8274 25.7122 62.1752C25.4629 62.527 25.1271 62.7127 24.7047 62.7323C24.2892 62.7559 23.8392 62.6274 23.3544 62.347C22.8628 62.0625 22.4058 61.6661 21.9834 61.1577C21.561 60.6493 21.2217 60.073 20.9655 59.4288C20.7162 58.7885 20.5915 58.1444 20.5915 57.4964ZM22.0872 58.3618C22.0872 58.9138 22.2049 59.4219 22.4404 59.8861C22.6827 60.3464 22.9839 60.6807 23.344 60.889C23.7041 61.0973 24.0018 61.1096 24.2373 60.9258C24.4727 60.734 24.5904 60.3622 24.5904 59.8102C24.5903 59.2582 24.4726 58.75 24.2372 58.2858C24.0017 57.8216 23.704 57.4853 23.3439 57.277C22.9838 57.0687 22.6826 57.0584 22.4403 57.2461C22.2049 57.4379 22.0872 57.8098 22.0872 58.3618ZM30.8802 57.4255L32.324 58.2609L32.3243 67.3929L31.0571 66.6597C31.0224 66.1757 30.9947 65.8476 30.974 65.6756C30.787 65.9275 30.5412 66.0572 30.2365 66.0649C29.9388 66.0687 29.6133 65.9684 29.2602 65.764C28.817 65.5076 28.4119 65.1452 28.0449 64.6769C27.6779 64.2085 27.3836 63.6663 27.162 63.0501C26.9404 62.4259 26.8296 61.7778 26.8296 61.1058C26.8296 60.4258 26.9403 59.9059 27.1619 59.5461C27.3835 59.1783 27.6778 58.9725 28.0447 58.9289C28.4117 58.8852 28.8168 58.9916 29.26 59.248C29.5854 59.4363 29.8866 59.6866 30.1636 59.9989C30.4475 60.3151 30.6864 60.6854 30.8803 61.1095L30.8802 57.4255ZM29.5925 64.5283C29.9526 64.7367 30.2573 64.761 30.5065 64.6012C30.7558 64.4414 30.8804 64.0575 30.8804 63.4495C30.8804 62.8495 30.7557 62.3334 30.5064 61.9012C30.2571 61.461 29.9525 61.1367 29.5924 60.9283C29.2115 60.708 28.9034 60.6857 28.668 60.8615C28.4395 61.0413 28.3253 61.4112 28.3253 61.9712C28.3253 62.5312 28.4396 63.0413 28.6681 63.5015C28.9035 63.9657 29.2117 64.308 29.5925 64.5283ZM36.0623 63.1838C36.5401 63.4603 36.9625 63.8287 37.3295 64.289C37.7034 64.7453 37.9908 65.2556 38.1916 65.8198C38.3994 66.38 38.5032 66.9481 38.5033 67.5241C38.5033 67.7801 38.4825 68.0281 38.441 68.268L34.8679 66.2007C34.9303 66.7008 35.0757 67.1369 35.3042 67.5091C35.5327 67.8733 35.8166 68.1536 36.1559 68.3499C36.3983 68.4901 36.6129 68.5543 36.7999 68.5425C36.9938 68.5267 37.1427 68.4248 37.2465 68.2369L38.306 69.5699C38.1606 69.9418 37.8801 70.1315 37.4647 70.1391C37.0562 70.1507 36.5991 70.0103 36.0937 69.7178C35.6089 69.4374 35.1589 69.053 34.7434 68.5646C34.3279 68.0762 33.992 67.5099 33.7358 66.8656C33.4865 66.2254 33.3619 65.5573 33.3619 64.8613C33.3618 64.1733 33.4865 63.6574 33.7357 63.3136C33.9919 62.9739 34.3243 62.7982 34.7328 62.7866C35.1413 62.775 35.5845 62.9074 36.0623 63.1838ZM36.0208 64.5158C35.7369 64.3515 35.4945 64.3153 35.2937 64.4071C35.0929 64.4989 34.9579 64.7128 34.8887 65.0487L37.0283 66.2867C37.0006 65.8867 36.8933 65.5326 36.7063 65.2244C36.5263 64.9123 36.2978 64.676 36.0208 64.5158ZM45.5105 68.6505C46.0298 68.951 46.4522 69.4234 46.7777 70.0677C47.1031 70.704 47.2659 71.4461 47.2659 72.2941L47.266 76.0381L45.8534 75.2208L45.8533 72.0408C45.8533 70.9048 45.5797 70.1785 45.0327 69.862C44.735 69.6898 44.4961 69.7075 44.316 69.9154C44.1429 70.1272 44.0564 70.5091 44.0564 71.0611L44.0565 74.1811L42.6543 73.3698L42.6542 70.1898C42.6542 69.0538 42.3806 68.3276 41.8336 68.0111C41.5359 67.8388 41.3004 67.8586 41.1273 68.0704C40.9542 68.2822 40.8677 68.6641 40.8677 69.2161L40.8678 72.3361L39.4552 71.5188L39.455 65.3028L40.691 66.018C40.7257 66.494 40.7534 66.814 40.7742 66.9781C41.1273 66.4704 41.6397 66.4109 42.3114 66.7995C42.6714 67.0078 42.9865 67.2981 43.2566 67.6704C43.5266 68.0426 43.7309 68.4808 43.8694 68.985C44.0425 68.6451 44.271 68.4533 44.5549 68.4096C44.8388 68.3659 45.1573 68.4462 45.5105 68.6505Z" fill="white"/>
<defs>
<filter id="filter0_b_54_1618" x="-135.914" y="-135.914" width="392.078" height="341.828" filterUnits="userSpaceOnUse" color-interpolation-filters="sRGB">
<feFlood flood-opacity="0" result="BackgroundImageFix"/>
<feGaussianBlur in="BackgroundImageFix" stdDeviation="67.957"/>
<feComposite in2="SourceAlpha" operator="in" result="effect1_backgroundBlur_54_1618"/>
<feBlend mode="normal" in="SourceGraphic" in2="effect1_backgroundBlur_54_1618" result="shape"/>
</filter>
<filter id="filter1_d_54_1618" x="22.9522" y="13" width="73.3472" height="44" filterUnits="userSpaceOnUse" color-interpolation-filters="sRGB">
<feFlood flood-opacity="0" result="BackgroundImageFix"/>
<feColorMatrix in="SourceAlpha" type="matrix" values="0 0 0 0 0 0 0 0 0 0 0 0 0 0 0 0 0 0 127 0" result="hardAlpha"/>
<feOffset dy="2"/>
<feComposite in2="hardAlpha" operator="out"/>
<feColorMatrix type="matrix" values="0 0 0 0 0.0117647 0 0 0 0 0.341176 0 0 0 0 0.121569 0 0 0 1 0"/>
<feBlend mode="normal" in2="BackgroundImageFix" result="effect1_dropShadow_54_1618"/>
<feBlend mode="normal" in="SourceGraphic" in2="effect1_dropShadow_54_1618" result="shape"/>
</filter>
</defs>
</svg>
