<svg width="121" height="88" viewBox="0 0 121 88" fill="none" xmlns="http://www.w3.org/2000/svg">
<path fill-rule="evenodd" clip-rule="evenodd" d="M0 35L60.3755 70V88L0 53V35Z" fill="#1E3D89" fill-opacity="0.8"/>
<g filter="url(#filter0_b_53_1582)">
<path fill-rule="evenodd" clip-rule="evenodd" d="M60.125 0L120.501 35L60.3755 70L0 35L60.125 0Z" fill="#1E3C89" fill-opacity="0.7"/>
</g>
<path fill-rule="evenodd" clip-rule="evenodd" d="M120.5 35L60.125 70V88L120.5 53V35Z" fill="#1E3B89"/>
<g filter="url(#filter1_d_53_1582)">
<path fill-rule="evenodd" clip-rule="evenodd" d="M61.75 7L46.75 15.75L51.5 18.75L58.25 14.75V23.1302C51.719 23.755 46.437 26.5689 44.6509 30.25H30.25L36.5 26.75L32.25 23.75L17 32.75L32.25 41.75L36.5 39L30.25 35H44.3401C45.7359 39.0449 51.2821 42.2032 58.25 42.8698V51L51.5 46.5L46.75 49.75L61.75 59.5L78.25 49.75L73.25 46.5L65.25 51V42.685C71.5044 41.738 76.3659 38.75 77.6599 35H91L84.5 39L89 41.75L104.5 32.75L89.5 23.75L85 26.75L91 30.25H77.3491C75.7019 26.8552 71.0814 24.1979 65.25 23.315V14.75L73.25 18.75L78.25 15.75L61.75 7ZM61 38C66.5228 38 71 35.5376 71 32.5C71 29.4624 66.5228 27 61 27C55.4772 27 51 29.4624 51 32.5C51 35.5376 55.4772 38 61 38Z" fill="white"/>
</g>
<path d="M12.5942 46.7142L18.3774 50.0534L18.3775 51.8314L14.3523 49.5072L14.3523 52.1252L17.9532 54.2043L17.9533 55.9683L14.3524 53.8892L14.3525 57.9772L12.5945 56.9622L12.5942 46.7142ZM22.6501 55.3343C22.8926 55.4743 23.1189 55.647 23.3291 55.8524C23.5392 56.0577 23.7009 56.2584 23.8141 56.4544L23.1594 57.5744C22.9492 57.285 22.7108 57.0633 22.4441 56.9093C22.0076 56.6573 21.656 56.6643 21.3893 56.9303C21.1306 57.201 21.0013 57.705 21.0014 58.4423L21.0015 61.8163L19.3162 60.8432L19.316 53.5912L20.7951 54.4453C20.8356 55.0286 20.8719 55.4323 20.9043 55.6563C21.0902 55.325 21.3326 55.1336 21.6317 55.0823C21.9308 55.031 22.2702 55.115 22.6501 55.3343ZM26.6835 57.6632C27.5322 58.1532 28.195 58.8159 28.6719 59.6512C29.1488 60.4773 29.3872 61.4036 29.3873 62.4303L29.3874 66.6583L27.9689 65.8392C27.9608 65.7599 27.9487 65.6315 27.9325 65.4542C27.9244 65.2722 27.9082 65.1089 27.884 64.9642C27.6981 65.1929 27.4556 65.3049 27.1566 65.3002C26.8656 65.2908 26.5099 65.1648 26.0896 64.9222C25.6532 64.6701 25.2531 64.3505 24.8893 63.9631C24.5337 63.5804 24.2508 63.1604 24.0406 62.7031C23.8305 62.2364 23.7254 61.7697 23.7254 61.3031C23.7253 60.8177 23.8425 60.4654 24.0769 60.2461C24.3194 60.0221 24.6427 59.9288 25.0468 59.9661C25.451 60.0035 25.8955 60.1621 26.3805 60.4422C26.8169 60.6942 27.2655 61.0372 27.7263 61.4712C27.702 60.3839 27.3059 59.6185 26.538 59.1752C25.9238 58.8205 25.4752 58.8788 25.1923 59.3501L23.992 57.8591C24.2183 57.4484 24.5658 57.2244 25.0346 57.1871C25.5034 57.1405 26.053 57.2992 26.6835 57.6632ZM27.7263 62.7592C27.3222 62.4139 26.9706 62.1548 26.6715 61.9822C26.2754 61.7535 25.9683 61.6601 25.7501 61.7021C25.5318 61.7348 25.4227 61.9005 25.4227 62.1991C25.4227 62.4698 25.5076 62.7288 25.6774 62.9761C25.8552 63.2281 26.0815 63.4335 26.3563 63.5922C26.72 63.8022 27.0393 63.8699 27.3141 63.7952C27.5889 63.7112 27.7263 63.4592 27.7263 63.0392L27.7263 62.7592ZM37.9402 64.1627C38.5464 64.5127 39.0394 65.0634 39.4193 65.8148C39.7992 66.5568 39.9892 67.4224 39.9892 68.4118L39.9894 72.7798L38.3405 71.8277L38.3404 68.1177C38.3403 66.7924 38.0211 65.9454 37.3825 65.5767C37.035 65.376 36.7561 65.397 36.546 65.6397C36.3439 65.887 36.2429 66.3326 36.2429 66.9766L36.243 70.6166L34.6063 69.6716L34.6061 65.9616C34.6061 64.6363 34.2868 63.7893 33.6483 63.4206C33.3007 63.2199 33.0259 63.2432 32.8239 63.4905C32.6218 63.7379 32.5208 64.1835 32.5208 64.8275L32.5209 68.4675L30.872 67.5155L30.8718 60.2635L32.3146 61.0965C32.355 61.6519 32.3873 62.0252 32.4116 62.2165C32.8238 61.6239 33.4219 61.5539 34.2059 62.0066C34.6262 62.2493 34.994 62.5876 35.3092 63.0216C35.6245 63.4556 35.8629 63.9666 36.0246 64.5546C36.2267 64.158 36.4934 63.934 36.8248 63.8827C37.1561 63.8313 37.5279 63.9247 37.9402 64.1627ZM44.2571 67.8101C44.8148 68.1321 45.3079 68.5614 45.7363 69.0981C46.1728 69.6301 46.5082 70.2251 46.7426 70.8831C46.9851 71.5365 47.1064 72.1992 47.1064 72.8712C47.1064 73.1698 47.0822 73.4592 47.0337 73.7392L42.863 71.331C42.9358 71.9144 43.1055 72.423 43.3722 72.857C43.639 73.2817 43.9704 73.6084 44.3664 73.8371C44.6493 74.0004 44.8999 74.0751 45.1181 74.0611C45.3444 74.0424 45.5182 73.9234 45.6394 73.7041L46.8761 75.2582C46.7064 75.6921 46.3791 75.9138 45.8941 75.9231C45.4172 75.9371 44.8838 75.7738 44.2937 75.4331C43.7279 75.1064 43.2026 74.6584 42.7176 74.089C42.2326 73.5197 41.8406 72.8593 41.5415 72.108C41.2505 71.3613 41.105 70.582 41.105 69.77C41.1049 68.9673 41.2504 68.3653 41.5414 67.964C41.8404 67.5673 42.2284 67.362 42.7053 67.348C43.1821 67.334 43.6994 67.4881 44.2571 67.8101ZM44.2087 69.3641C43.8773 69.1727 43.5944 69.1307 43.36 69.238C43.1256 69.3454 42.968 69.595 42.8872 69.987L45.3848 71.4291C45.3524 70.9624 45.2271 70.5494 45.0089 70.1901C44.7987 69.8261 44.532 69.5507 44.2087 69.3641Z" fill="white"/>
<defs>
<filter id="filter0_b_53_1582" x="-135.914" y="-135.914" width="392.329" height="341.828" filterUnits="userSpaceOnUse" color-interpolation-filters="sRGB">
<feFlood flood-opacity="0" result="BackgroundImageFix"/>
<feGaussianBlur in="BackgroundImageFix" stdDeviation="67.957"/>
<feComposite in2="SourceAlpha" operator="in" result="effect1_backgroundBlur_53_1582"/>
<feBlend mode="normal" in="SourceGraphic" in2="effect1_backgroundBlur_53_1582" result="shape"/>
</filter>
<filter id="filter1_d_53_1582" x="17" y="7" width="87.5" height="54.5" filterUnits="userSpaceOnUse" color-interpolation-filters="sRGB">
<feFlood flood-opacity="0" result="BackgroundImageFix"/>
<feColorMatrix in="SourceAlpha" type="matrix" values="0 0 0 0 0 0 0 0 0 0 0 0 0 0 0 0 0 0 127 0" result="hardAlpha"/>
<feOffset dy="2"/>
<feComposite in2="hardAlpha" operator="out"/>
<feColorMatrix type="matrix" values="0 0 0 0 0.117647 0 0 0 0 0.232922 0 0 0 0 0.537255 0 0 0 1 0"/>
<feBlend mode="normal" in2="BackgroundImageFix" result="effect1_dropShadow_53_1582"/>
<feBlend mode="normal" in="SourceGraphic" in2="effect1_dropShadow_53_1582" result="shape"/>
</filter>
</defs>
</svg>
