<svg width="121" height="88" viewBox="0 0 121 88" fill="none" xmlns="http://www.w3.org/2000/svg">
<path fill-rule="evenodd" clip-rule="evenodd" d="M0 35L60.3755 70V88L0 53V35Z" fill="#1E3D89" fill-opacity="0.8"/>
<g filter="url(#filter0_b_54_1605)">
<path fill-rule="evenodd" clip-rule="evenodd" d="M60.125 0L120.501 35L60.3755 70L0 35L60.125 0Z" fill="#1E3C89" fill-opacity="0.7"/>
</g>
<path fill-rule="evenodd" clip-rule="evenodd" d="M120.501 35L60.125 70V88L120.501 53V35Z" fill="#1E3B89"/>
<g filter="url(#filter1_d_54_1605)">
<path fill-rule="evenodd" clip-rule="evenodd" d="M60.75 9L45.75 17.75L50.5 20.75L57.25 16.75V25.1302C50.719 25.755 45.437 28.5689 43.6509 32.25H29.25L35.5 28.75L31.25 25.75L16 34.75L31.25 43.75L35.5 41L29.25 37H43.3401C44.7359 41.0449 50.2821 44.2032 57.25 44.8698V53L50.5 48.5L45.75 51.75L60.75 61.5L77.25 51.75L72.25 48.5L64.25 53V44.685C70.5044 43.738 75.3659 40.75 76.6599 37H90L83.5 41L88 43.75L103.5 34.75L88.5 25.75L84 28.75L90 32.25H76.3491C74.7019 28.8552 70.0814 26.1979 64.25 25.315V16.75L72.25 20.75L77.25 17.75L60.75 9ZM60 40C65.5228 40 70 37.5376 70 34.5C70 31.4624 65.5228 29 60 29C54.4772 29 50 31.4624 50 34.5C50 37.5376 54.4772 40 60 40Z" fill="white"/>
</g>
<path d="M22.3983 52.375C23.1015 52.781 23.7158 53.2757 24.2411 53.859C24.7665 54.4424 25.1707 55.0724 25.4536 55.7491C25.7446 56.4211 25.8901 57.0978 25.8901 57.7791C25.8901 58.4511 25.7447 58.9597 25.4537 59.3051C25.1708 59.6457 24.7667 59.8044 24.2413 59.781C23.716 59.7483 23.1017 59.529 22.3985 59.123L21.1012 58.3739L21.1013 61.8739L19.3433 60.8589L19.343 50.6109L22.3983 52.375ZM22.2044 57.289C22.7541 57.6063 23.1946 57.7253 23.526 57.646C23.8573 57.5574 24.023 57.2424 24.023 56.701C24.023 56.1597 23.8573 55.6534 23.5259 55.182C23.1945 54.7013 22.754 54.3023 22.2043 53.985L21.101 53.3479L21.1011 56.6519L22.2044 57.289ZM33.0522 65.8063C33.0522 66.5063 32.8946 67.0033 32.5794 67.2973C32.2723 67.5867 31.8682 67.6986 31.367 67.6333C30.874 67.5726 30.3446 67.3789 29.7788 67.0522C28.9543 66.5762 28.2107 65.9275 27.5479 65.1062C26.8851 64.2755 26.4446 63.3911 26.2263 62.4531L27.6569 62.3412C27.851 62.9758 28.1339 63.5452 28.5057 64.0492C28.8775 64.5532 29.3221 64.9546 29.8393 65.2532C30.2596 65.4959 30.591 65.5893 30.8335 65.5333C31.0841 65.4819 31.2093 65.2696 31.2093 64.8963C31.2093 64.5976 31.1245 64.3013 30.9547 64.0073C30.793 63.7179 30.5869 63.4449 30.3364 63.1883C30.0939 62.9362 29.7584 62.6119 29.33 62.2152C28.7562 61.6879 28.2874 61.2259 27.9236 60.8292C27.5599 60.4232 27.2487 59.9542 26.99 59.4222C26.7314 58.8901 26.602 58.3115 26.602 57.6861C26.602 57.0235 26.7515 56.5498 27.0506 56.2652C27.3577 55.9758 27.7578 55.8615 28.2508 55.9222C28.7519 55.9782 29.2894 56.1719 29.8633 56.5032C30.6473 56.9559 31.3182 57.5486 31.8759 58.2813C32.4337 59.014 32.7934 59.777 32.955 60.5703L31.5244 60.6823C31.3789 60.1596 31.1607 59.693 30.8697 59.2823C30.5787 58.8623 30.215 58.5263 29.7785 58.2742C29.3824 58.0456 29.0591 57.9662 28.8086 58.0362C28.5661 58.1015 28.4449 58.3069 28.4449 58.6522C28.4449 58.9135 28.5217 59.1772 28.6753 59.4432C28.8288 59.6999 29.0228 59.9519 29.2572 60.1992C29.4997 60.4419 29.823 60.7499 30.2272 61.1233C30.8091 61.6553 31.2901 62.1336 31.67 62.5583C32.0499 62.9736 32.3732 63.459 32.6399 64.0143C32.9148 64.565 33.0522 65.1623 33.0522 65.8063ZM39.5967 68.2271L35.9959 66.148L35.9959 68.696L40.1545 71.0971L40.1546 72.8751L34.238 69.459L34.2377 59.211L40.0209 62.5501L40.0209 64.3141L35.9957 61.99L35.9958 64.398L39.5967 66.4771L39.5967 68.2271Z" fill="white"/>
<defs>
<filter id="filter0_b_54_1605" x="-135.914" y="-135.914" width="392.329" height="341.828" filterUnits="userSpaceOnUse" color-interpolation-filters="sRGB">
<feFlood flood-opacity="0" result="BackgroundImageFix"/>
<feGaussianBlur in="BackgroundImageFix" stdDeviation="67.957"/>
<feComposite in2="SourceAlpha" operator="in" result="effect1_backgroundBlur_54_1605"/>
<feBlend mode="normal" in="SourceGraphic" in2="effect1_backgroundBlur_54_1605" result="shape"/>
</filter>
<filter id="filter1_d_54_1605" x="16" y="9" width="87.5" height="54.5" filterUnits="userSpaceOnUse" color-interpolation-filters="sRGB">
<feFlood flood-opacity="0" result="BackgroundImageFix"/>
<feColorMatrix in="SourceAlpha" type="matrix" values="0 0 0 0 0 0 0 0 0 0 0 0 0 0 0 0 0 0 127 0" result="hardAlpha"/>
<feOffset dy="2"/>
<feComposite in2="hardAlpha" operator="out"/>
<feColorMatrix type="matrix" values="0 0 0 0 0.117647 0 0 0 0 0.232922 0 0 0 0 0.537255 0 0 0 1 0"/>
<feBlend mode="normal" in2="BackgroundImageFix" result="effect1_dropShadow_54_1605"/>
<feBlend mode="normal" in="SourceGraphic" in2="effect1_dropShadow_54_1605" result="shape"/>
</filter>
</defs>
</svg>
