<svg width="121" height="88" viewBox="0 0 121 88" fill="none" xmlns="http://www.w3.org/2000/svg">
<path fill-rule="evenodd" clip-rule="evenodd" d="M0 35L60.3755 70V88L0 53V35Z" fill="#1E3D89" fill-opacity="0.8"/>
<g filter="url(#filter0_b_53_1585)">
<path fill-rule="evenodd" clip-rule="evenodd" d="M60.125 0L120.501 35L60.3755 70L0 35L60.125 0Z" fill="#1E3C89" fill-opacity="0.7"/>
</g>
<path fill-rule="evenodd" clip-rule="evenodd" d="M120.501 35L60.125 70V88L120.501 53V35Z" fill="#1E3B89"/>
<g filter="url(#filter1_d_53_1585)">
<path fill-rule="evenodd" clip-rule="evenodd" d="M61.75 7L46.75 15.75L51.5 18.75L58.25 14.75V23.1302C51.719 23.755 46.437 26.5689 44.6509 30.25H30.25L36.5 26.75L32.25 23.75L17 32.75L32.25 41.75L36.5 39L30.25 35H44.3401C45.7359 39.0449 51.2821 42.2032 58.25 42.8698V51L51.5 46.5L46.75 49.75L61.75 59.5L78.25 49.75L73.25 46.5L65.25 51V42.685C71.5044 41.738 76.3659 38.75 77.6599 35H91L84.5 39L89 41.75L104.5 32.75L89.5 23.75L85 26.75L91 30.25H77.3491C75.7019 26.8552 71.0814 24.1979 65.25 23.315V14.75L73.25 18.75L78.25 15.75L61.75 7ZM61 38C66.5228 38 71 35.5376 71 32.5C71 29.4624 66.5228 27 61 27C55.4772 27 51 29.4624 51 32.5C51 35.5376 55.4772 38 61 38Z" fill="white"/>
</g>
<path d="M24.7409 53.7276L21.6251 56.9265L24.8867 64.0596L22.7043 62.7995L20.5461 57.9554L18.376 60.3004L16.3392 59.1243L19.5883 55.7924L16.4843 48.9603L18.6303 50.1994L20.6673 54.7634L22.704 52.5515L24.7409 53.7276ZM26.6521 65.2749C26.3773 65.1162 26.1429 64.8642 25.9489 64.5189C25.7549 64.1735 25.6579 63.8375 25.6579 63.5109C25.6579 63.1842 25.7548 62.9602 25.9488 62.8389C26.1428 62.7176 26.3772 62.7362 26.652 62.8949C26.9349 63.0582 27.1734 63.3126 27.3673 63.6579C27.5694 64.0079 27.6705 64.3463 27.6705 64.6729C27.6705 64.9996 27.5695 65.2213 27.3674 65.3379C27.1734 65.4593 26.935 65.4382 26.6521 65.2749ZM31.4131 66.0499L34.9655 68.101L34.9655 69.879L28.8429 66.3438L28.8428 65.0278L31.5221 63.1029C31.9828 62.7716 32.3021 62.4893 32.4799 62.256C32.6658 62.018 32.7587 61.717 32.7587 61.353C32.7587 60.9516 32.6617 60.5736 32.4677 60.219C32.2737 59.8643 32.011 59.5913 31.6796 59.3999C31.3402 59.2039 31.0411 59.1759 30.7825 59.3159C30.5238 59.4466 30.3258 59.7336 30.1884 60.1769L28.8062 58.4548C29.0164 57.7455 29.3962 57.3302 29.9458 57.2089C30.4955 57.0782 31.1299 57.2206 31.8493 57.6359C32.4151 57.9626 32.9041 58.3803 33.3163 58.889C33.7367 59.393 34.0559 59.9413 34.2742 60.534C34.5005 61.1314 34.6137 61.7287 34.6137 62.326C34.6137 62.914 34.4885 63.3924 34.2379 63.761C33.9954 64.125 33.559 64.531 32.9286 64.979L31.4131 66.0499ZM39.422 65.7883C39.9312 66.0823 40.396 66.4906 40.8163 67.0133C41.2366 67.5267 41.568 68.11 41.8105 68.7634C42.053 69.4074 42.1743 70.0607 42.1743 70.7234C42.1743 71.442 42.0369 71.988 41.7621 72.3614C41.4954 72.73 41.1276 72.919 40.6589 72.9283C40.1901 72.9283 39.6728 72.765 39.107 72.4383C38.4361 72.0509 37.8541 71.5376 37.3611 70.8982C36.8761 70.2635 36.5326 69.5285 36.3305 68.6932L37.749 68.5742C37.8541 69.0549 38.0238 69.4702 38.2582 69.8202C38.4926 70.1703 38.7674 70.4363 39.0827 70.6183C39.4787 70.847 39.7818 70.8726 39.992 70.6953C40.2102 70.5133 40.3193 70.189 40.3193 69.7223C40.3193 69.2556 40.2061 68.803 39.9798 68.3643C39.7615 67.921 39.4463 67.5803 39.0341 67.3423C38.5006 67.0343 38.0763 67.0926 37.7611 67.5172L36.5001 66.0752L37.1062 60.8532L41.7618 63.5414L41.7619 65.2774L38.5854 63.4433L38.3429 65.4172C38.6905 65.4499 39.0502 65.5736 39.422 65.7883Z" fill="white"/>
<defs>
<filter id="filter0_b_53_1585" x="-135.914" y="-135.914" width="392.329" height="341.828" filterUnits="userSpaceOnUse" color-interpolation-filters="sRGB">
<feFlood flood-opacity="0" result="BackgroundImageFix"/>
<feGaussianBlur in="BackgroundImageFix" stdDeviation="67.957"/>
<feComposite in2="SourceAlpha" operator="in" result="effect1_backgroundBlur_53_1585"/>
<feBlend mode="normal" in="SourceGraphic" in2="effect1_backgroundBlur_53_1585" result="shape"/>
</filter>
<filter id="filter1_d_53_1585" x="17" y="7" width="87.5" height="54.5" filterUnits="userSpaceOnUse" color-interpolation-filters="sRGB">
<feFlood flood-opacity="0" result="BackgroundImageFix"/>
<feColorMatrix in="SourceAlpha" type="matrix" values="0 0 0 0 0 0 0 0 0 0 0 0 0 0 0 0 0 0 127 0" result="hardAlpha"/>
<feOffset dy="2"/>
<feComposite in2="hardAlpha" operator="out"/>
<feColorMatrix type="matrix" values="0 0 0 0 0.117647 0 0 0 0 0.232922 0 0 0 0 0.537255 0 0 0 1 0"/>
<feBlend mode="normal" in2="BackgroundImageFix" result="effect1_dropShadow_53_1585"/>
<feBlend mode="normal" in="SourceGraphic" in2="effect1_dropShadow_53_1585" result="shape"/>
</filter>
</defs>
</svg>
