<svg width="121" height="88" viewBox="0 0 121 88" fill="none" xmlns="http://www.w3.org/2000/svg">
<path fill-rule="evenodd" clip-rule="evenodd" d="M0 35L60.3755 70V88L0 53V35Z" fill="#1E3D89" fill-opacity="0.8"/>
<g filter="url(#filter0_b_53_1580)">
<path fill-rule="evenodd" clip-rule="evenodd" d="M60.125 0L120.501 35L60.3755 70L0 35L60.125 0Z" fill="#1E3C89" fill-opacity="0.7"/>
</g>
<path fill-rule="evenodd" clip-rule="evenodd" d="M120.5 35L60.125 70V88L120.5 53V35Z" fill="#1E3B89"/>
<g filter="url(#filter1_d_53_1580)">
<path fill-rule="evenodd" clip-rule="evenodd" d="M33 26.5V18H47.75V20.75H41.5L48.118 24.5002C51.3705 23.0884 55.4335 22.25 59.8409 22.25C64.3296 22.25 68.4612 23.1197 71.7431 24.5789L78.5 20.75H72.25V18H87V26.5H82.25V23L75.7175 26.9662C77.9012 28.7476 79.1818 30.9137 79.1818 33.25C79.1818 35.9275 77.4998 38.3816 74.704 40.2891L75.25 40L82.25 44.25V40.75H87V49.25H72.25V46.5H78.5L71 42.25L71.1168 42.1881C67.9425 43.4858 64.0486 44.25 59.8409 44.25C55.7731 44.25 51.9986 43.5358 48.8839 42.3158L41.5 46.5H47.75V49.25H33V40.75H37.75V44.25L44.6511 40.06C42.0515 38.187 40.5 35.8215 40.5 33.25C40.5 30.8654 41.8342 28.658 44.1011 26.856L37.75 23V26.5H33ZM73.5 33.25C73.5 37.6683 67.4558 41.25 60 41.25C52.5442 41.25 46.5 37.6683 46.5 33.25C46.5 28.8317 52.5442 25.25 60 25.25C67.4558 25.25 73.5 28.8317 73.5 33.25ZM58.2902 26.5945L60.0483 27.6094L52.7493 31.8232L56.7868 34.1541L55.2106 35.064L49.415 31.7182L58.2902 26.5945ZM65.275 35.5266C65.5821 35.9185 65.6832 36.2942 65.5781 36.6535C65.4811 37.0082 65.1659 37.3395 64.6324 37.6474C64.0827 37.9648 63.4684 38.1561 62.7895 38.2214C62.1266 38.2867 61.4517 38.2424 60.7646 38.0884C60.0938 37.9344 59.4714 37.6918 58.8975 37.3605C58.1619 36.9358 57.6931 36.4645 57.491 35.9465C57.297 35.4332 57.4183 34.9199 57.8547 34.4066L60.0493 34.7496C59.7583 35.0669 59.6532 35.3749 59.7341 35.6736C59.823 35.9675 60.0533 36.2219 60.4252 36.4365C60.7889 36.6465 61.1971 36.7608 61.6497 36.7795C62.1105 36.8028 62.5268 36.7072 62.8986 36.4925C63.715 36.0212 63.5008 35.4262 62.256 34.7076L61.9286 34.5186L63.3836 33.6787L63.8564 33.9517C64.3172 34.2176 64.7779 34.3576 65.2386 34.3716C65.7155 34.3856 66.1197 34.297 66.4511 34.1056C66.7582 33.9283 66.9037 33.7277 66.8876 33.5037C66.8714 33.2797 66.7016 33.0744 66.3783 32.8877C66.0308 32.6871 65.6145 32.5774 65.1295 32.5587C64.6607 32.5401 64.1514 32.6101 63.6018 32.7687L63.0319 31.5578C63.9211 31.2871 64.8062 31.2008 65.6872 31.2988C66.5764 31.3921 67.3806 31.6464 68.1 32.0618C68.6577 32.3837 69.0417 32.7267 69.2519 33.0907C69.4782 33.4547 69.5226 33.8117 69.3852 34.1616C69.2478 34.5116 68.9366 34.8266 68.4516 35.1066C67.999 35.3679 67.5019 35.5336 66.9603 35.6036C66.4268 35.6782 65.8651 35.6526 65.275 35.5266Z" fill="white"/>
</g>
<defs>
<filter id="filter0_b_53_1580" x="-135.914" y="-135.914" width="392.329" height="341.828" filterUnits="userSpaceOnUse" color-interpolation-filters="sRGB">
<feFlood flood-opacity="0" result="BackgroundImageFix"/>
<feGaussianBlur in="BackgroundImageFix" stdDeviation="67.957"/>
<feComposite in2="SourceAlpha" operator="in" result="effect1_backgroundBlur_53_1580"/>
<feBlend mode="normal" in="SourceGraphic" in2="effect1_backgroundBlur_53_1580" result="shape"/>
</filter>
<filter id="filter1_d_53_1580" x="33" y="18" width="54" height="33.25" filterUnits="userSpaceOnUse" color-interpolation-filters="sRGB">
<feFlood flood-opacity="0" result="BackgroundImageFix"/>
<feColorMatrix in="SourceAlpha" type="matrix" values="0 0 0 0 0 0 0 0 0 0 0 0 0 0 0 0 0 0 127 0" result="hardAlpha"/>
<feOffset dy="2"/>
<feComposite in2="hardAlpha" operator="out"/>
<feColorMatrix type="matrix" values="0 0 0 0 0.117647 0 0 0 0 0.232922 0 0 0 0 0.537255 0 0 0 1 0"/>
<feBlend mode="normal" in2="BackgroundImageFix" result="effect1_dropShadow_53_1580"/>
<feBlend mode="normal" in="SourceGraphic" in2="effect1_dropShadow_53_1580" result="shape"/>
</filter>
</defs>
</svg>
