<svg width="121" height="88" viewBox="0 0 121 88" fill="none" xmlns="http://www.w3.org/2000/svg">
<path fill-rule="evenodd" clip-rule="evenodd" d="M0 35L60.3755 70V88L0 53V35Z" fill="#1E3D89" fill-opacity="0.8"/>
<g filter="url(#filter0_b_53_1583)">
<path fill-rule="evenodd" clip-rule="evenodd" d="M60.125 0L120.501 35L60.3755 70L0 35L60.125 0Z" fill="#1E3C89" fill-opacity="0.7"/>
</g>
<path fill-rule="evenodd" clip-rule="evenodd" d="M120.5 35L60.125 70V88L120.5 53V35Z" fill="#1E3B89"/>
<g filter="url(#filter1_d_53_1583)">
<path fill-rule="evenodd" clip-rule="evenodd" d="M60.75 7L45.75 15.75L50.5 18.75L57.25 14.75V23.1302C50.719 23.755 45.437 26.5689 43.6509 30.25H29.25L35.5 26.75L31.25 23.75L16 32.75L31.25 41.75L35.5 39L29.25 35H43.3401C44.7359 39.0449 50.2821 42.2032 57.25 42.8698V51L50.5 46.5L45.75 49.75L60.75 59.5L77.25 49.75L72.25 46.5L64.25 51V42.685C70.5044 41.738 75.3659 38.75 76.6599 35H90L83.5 39L88 41.75L103.5 32.75L88.5 23.75L84 26.75L90 30.25H76.3491C74.7019 26.8552 70.0814 24.1979 64.25 23.315V14.75L72.25 18.75L77.25 15.75L60.75 7ZM60 38C65.5228 38 70 35.5376 70 32.5C70 29.4624 65.5228 27 60 27C54.4772 27 50 29.4624 50 32.5C50 35.5376 54.4772 38 60 38Z" fill="white"/>
</g>
<path d="M15.3174 48.2865L17.0754 49.3016L17.0757 57.7296L21.113 60.0607L21.1131 61.8807L15.3177 58.5345L15.3174 48.2865ZM21.6637 58.5727C21.6637 57.8167 21.8092 57.2334 22.1001 56.8228C22.3992 56.4168 22.7952 56.2021 23.2883 56.1788C23.7813 56.1461 24.3148 56.2955 24.8886 56.6268C25.4544 56.9535 25.9798 57.4155 26.4648 58.0129C26.9578 58.6056 27.3499 59.2753 27.6409 60.0219C27.9399 60.7733 28.0895 61.5269 28.0895 62.2829C28.0895 63.0389 27.94 63.6199 27.641 64.0259C27.35 64.4366 26.958 64.6536 26.465 64.6769C25.98 64.7049 25.4547 64.5555 24.8889 64.2288C24.315 63.8975 23.7815 63.4355 23.2885 62.8428C22.7954 62.2501 22.3993 61.5781 22.1003 60.8268C21.8093 60.0801 21.6638 59.3287 21.6637 58.5727ZM23.4096 59.5808C23.4096 60.2248 23.5471 60.8175 23.8219 61.3588C24.1048 61.8955 24.4564 62.2852 24.8767 62.5278C25.297 62.7705 25.6446 62.7845 25.9194 62.5699C26.1942 62.3459 26.3315 61.9119 26.3315 61.2679C26.3315 60.6239 26.1941 60.0312 25.9193 59.4899C25.6444 58.9485 25.2969 58.5565 24.8766 58.3138C24.4563 58.0712 24.1047 58.0595 23.8218 58.2788C23.547 58.5028 23.4096 58.9368 23.4096 59.5808ZM32.134 66.7182C32.619 66.9982 33.007 66.9469 33.2979 66.5642L34.5831 68.1743C34.3811 68.5989 34.0618 68.8252 33.6253 68.8532C33.1889 68.8812 32.6918 68.7342 32.1341 68.4122C31.5764 68.0902 31.055 67.6445 30.5701 67.0751C30.0851 66.4964 29.6931 65.8361 29.394 65.0941C29.0949 64.3427 28.9453 63.5704 28.9453 62.7771C28.9453 61.9744 29.0948 61.3747 29.3938 60.9781C29.6929 60.5721 30.0849 60.3644 30.5698 60.3551C31.0548 60.3365 31.5761 60.4882 32.1338 60.8102C32.6916 61.1322 33.1886 61.5592 33.6251 62.0912C34.0616 62.6232 34.3809 63.2182 34.583 63.8763L33.2978 64.0022C33.0149 63.2975 32.6269 62.8029 32.1339 62.5182C31.6974 62.2662 31.3458 62.2545 31.0791 62.4831C30.8205 62.7071 30.6912 63.1411 30.6912 63.7851C30.6912 64.4198 30.8246 65.0055 31.0913 65.5421C31.3581 66.0788 31.7056 66.4708 32.134 66.7182ZM38.0617 64.2329C38.9104 64.7229 39.5732 65.3856 40.0501 66.2209C40.527 67.0469 40.7654 67.9733 40.7655 69L40.7656 73.228L39.3471 72.4089C39.339 72.3296 39.3269 72.2012 39.3107 72.0239C39.3026 71.8419 39.2864 71.6786 39.2622 71.5339C39.0763 71.7626 38.8338 71.8746 38.5348 71.8699C38.2438 71.8605 37.8882 71.7345 37.4679 71.4919C37.0314 71.2398 36.6313 70.9202 36.2676 70.5328C35.9119 70.1501 35.629 69.7301 35.4188 69.2728C35.2087 68.8061 35.1036 68.3394 35.1036 67.8728C35.1036 67.3874 35.2207 67.0351 35.4551 66.8158C35.6976 66.5918 36.0209 66.4985 36.425 66.5358C36.8292 66.5732 37.2737 66.7318 37.7587 67.0119C38.1952 67.2639 38.6437 67.6069 39.1045 68.0409C39.0802 66.9536 38.6841 66.1882 37.9163 65.7449C37.302 65.3902 36.8534 65.4485 36.5705 65.9198L35.3702 64.4288C35.5965 64.0181 35.944 63.7941 36.4128 63.7568C36.8816 63.7102 37.4312 63.8689 38.0617 64.2329ZM39.1045 69.3289C38.7004 68.9836 38.3488 68.7245 38.0497 68.5519C37.6537 68.3232 37.3465 68.2298 37.1283 68.2718C36.9101 68.3045 36.8009 68.4702 36.801 68.7688C36.801 69.0395 36.8858 69.2985 37.0556 69.5458C37.2334 69.7978 37.4597 70.0032 37.7345 70.1619C38.0983 70.3719 38.4175 70.4395 38.6923 70.3649C38.9671 70.2809 39.1045 70.0289 39.1045 69.6089L39.1045 69.3289ZM43.9355 75.0582L42.2502 74.0852L42.2499 63.4312L43.9352 64.4042L43.9355 75.0582Z" fill="white"/>
<defs>
<filter id="filter0_b_53_1583" x="-135.914" y="-135.914" width="392.329" height="341.828" filterUnits="userSpaceOnUse" color-interpolation-filters="sRGB">
<feFlood flood-opacity="0" result="BackgroundImageFix"/>
<feGaussianBlur in="BackgroundImageFix" stdDeviation="67.957"/>
<feComposite in2="SourceAlpha" operator="in" result="effect1_backgroundBlur_53_1583"/>
<feBlend mode="normal" in="SourceGraphic" in2="effect1_backgroundBlur_53_1583" result="shape"/>
</filter>
<filter id="filter1_d_53_1583" x="16" y="7" width="87.5" height="54.5" filterUnits="userSpaceOnUse" color-interpolation-filters="sRGB">
<feFlood flood-opacity="0" result="BackgroundImageFix"/>
<feColorMatrix in="SourceAlpha" type="matrix" values="0 0 0 0 0 0 0 0 0 0 0 0 0 0 0 0 0 0 127 0" result="hardAlpha"/>
<feOffset dy="2"/>
<feComposite in2="hardAlpha" operator="out"/>
<feColorMatrix type="matrix" values="0 0 0 0 0.117647 0 0 0 0 0.232922 0 0 0 0 0.537255 0 0 0 1 0"/>
<feBlend mode="normal" in2="BackgroundImageFix" result="effect1_dropShadow_53_1583"/>
<feBlend mode="normal" in="SourceGraphic" in2="effect1_dropShadow_53_1583" result="shape"/>
</filter>
</defs>
</svg>
