<svg width="121" height="88" viewBox="0 0 121 88" fill="none" xmlns="http://www.w3.org/2000/svg">
<path fill-rule="evenodd" clip-rule="evenodd" d="M0 35L60.3755 70V88L0 53V35Z" fill="#1E3D89" fill-opacity="0.8"/>
<g filter="url(#filter0_b_53_1589)">
<path fill-rule="evenodd" clip-rule="evenodd" d="M60.125 0L120.501 35L60.3755 70L0 35L60.125 0Z" fill="#1E3C89" fill-opacity="0.7"/>
</g>
<path fill-rule="evenodd" clip-rule="evenodd" d="M120.501 35L60.125 70V88L120.501 53V35Z" fill="#1E3B89"/>
<g filter="url(#filter1_d_53_1589)">
<path fill-rule="evenodd" clip-rule="evenodd" d="M42.25 14.5L59.75 4L77.25 14.5L72 17.5L65 13.5V25.1328C63.3039 24.7249 61.4468 24.5 59.5 24.5C57.9291 24.5 56.4166 24.6464 55 24.9173V13.5L47.5 17.5L42.25 14.5ZM74 33C74 32.1299 73.777 31.2904 73.3627 30.5H94L87 26.25L92 23L109.75 33.5L92 43.5L86.5 40.75L94 36.5H72.7176C73.5414 35.4326 74 34.2477 74 33ZM59.5 41.5C61.4468 41.5 63.3039 41.2751 65 40.8672V55.75L72.5 50.75L77.25 53.75L59.25 64.5L41.25 53.75L46.25 50.75L55 55.75V41.0827C56.4166 41.3536 57.9291 41.5 59.5 41.5ZM45 33C45 34.1511 45.3903 35.2488 46.0977 36.25H42V36.5V38.75C42 38.75 42 40.25 40.5 41C39.75 41.5 38 41.5 38 41.5H23V40H12V35.25H23V31.25H12V26.5H23V25.25H38C38 25.25 39.5 25.25 40.75 26C42 26.75 42 27.5 42 27.5V30.5H45.6373C45.223 31.2904 45 32.1299 45 33ZM59.6765 37.5C64.3709 37.5 68.1765 35.4853 68.1765 33C68.1765 30.5147 64.3709 28.5 59.6765 28.5C54.9821 28.5 51.1765 30.5147 51.1765 33C51.1765 35.4853 54.9821 37.5 59.6765 37.5Z" fill="white"/>
</g>
<defs>
<filter id="filter0_b_53_1589" x="-135.914" y="-135.914" width="392.329" height="341.828" filterUnits="userSpaceOnUse" color-interpolation-filters="sRGB">
<feFlood flood-opacity="0" result="BackgroundImageFix"/>
<feGaussianBlur in="BackgroundImageFix" stdDeviation="67.957"/>
<feComposite in2="SourceAlpha" operator="in" result="effect1_backgroundBlur_53_1589"/>
<feBlend mode="normal" in="SourceGraphic" in2="effect1_backgroundBlur_53_1589" result="shape"/>
</filter>
<filter id="filter1_d_53_1589" x="12" y="4" width="97.75" height="62.5" filterUnits="userSpaceOnUse" color-interpolation-filters="sRGB">
<feFlood flood-opacity="0" result="BackgroundImageFix"/>
<feColorMatrix in="SourceAlpha" type="matrix" values="0 0 0 0 0 0 0 0 0 0 0 0 0 0 0 0 0 0 127 0" result="hardAlpha"/>
<feOffset dy="2"/>
<feComposite in2="hardAlpha" operator="out"/>
<feColorMatrix type="matrix" values="0 0 0 0 0.117647 0 0 0 0 0.232922 0 0 0 0 0.537255 0 0 0 1 0"/>
<feBlend mode="normal" in2="BackgroundImageFix" result="effect1_dropShadow_53_1589"/>
<feBlend mode="normal" in="SourceGraphic" in2="effect1_dropShadow_53_1589" result="shape"/>
</filter>
</defs>
</svg>
