<svg width="121" height="88" viewBox="0 0 121 88" fill="none" xmlns="http://www.w3.org/2000/svg">
<path fill-rule="evenodd" clip-rule="evenodd" d="M0 35L60.3755 70V88L0 53V35Z" fill="#1E3D89" fill-opacity="0.8"/>
<g filter="url(#filter0_b_53_1584)">
<path fill-rule="evenodd" clip-rule="evenodd" d="M60.125 0L120.501 35L60.3755 70L0 35L60.125 0Z" fill="#1E3C89" fill-opacity="0.7"/>
</g>
<path fill-rule="evenodd" clip-rule="evenodd" d="M120.5 35L60.125 70V88L120.5 53V35Z" fill="#1E3B89"/>
<g filter="url(#filter1_d_53_1584)">
<path fill-rule="evenodd" clip-rule="evenodd" d="M61.75 7L46.75 15.75L51.5 18.75L58.25 14.75V23.1302C51.719 23.755 46.437 26.5689 44.6509 30.25H30.25L36.5 26.75L32.25 23.75L17 32.75L32.25 41.75L36.5 39L30.25 35H44.3401C45.7359 39.0449 51.2821 42.2032 58.25 42.8698V51L51.5 46.5L46.75 49.75L61.75 59.5L78.25 49.75L73.25 46.5L65.25 51V42.685C71.5044 41.738 76.3659 38.75 77.6599 35H91L84.5 39L89 41.75L104.5 32.75L89.5 23.75L85 26.75L91 30.25H77.3491C75.7019 26.8552 71.0814 24.1979 65.25 23.315V14.75L73.25 18.75L78.25 15.75L61.75 7ZM61 38C66.5228 38 71 35.5376 71 32.5C71 29.4624 66.5228 27 61 27C55.4772 27 51 29.4624 51 32.5C51 35.5376 55.4772 38 61 38Z" fill="white"/>
</g>
<path d="M14.2677 47.6804L21.4209 51.8107L21.421 53.6167L18.7294 52.0626L18.7297 60.5046L16.9596 59.4825L16.9593 51.0405L14.2678 49.4864L14.2677 47.6804ZM24.4972 56.4008C24.7396 56.5408 24.966 56.7135 25.1761 56.9188C25.3863 57.1242 25.5479 57.3248 25.6611 57.5208L25.0064 58.6408C24.7963 58.3515 24.5578 58.1298 24.2911 57.9758C23.8546 57.7238 23.503 57.7308 23.2363 57.9968C22.9777 58.2674 22.8484 58.7714 22.8484 59.5088L22.8485 62.8828L21.1633 61.9097L21.163 54.6577L22.6422 55.5117C22.6826 56.0951 22.719 56.4987 22.7513 56.7228C22.9372 56.3914 23.1797 56.2001 23.4787 56.1488C23.7778 56.0974 24.1173 56.1815 24.4972 56.4008ZM28.5305 58.7296C29.3792 59.2197 30.042 59.8824 30.5189 60.7177C30.9958 61.5437 31.2343 62.4701 31.2343 63.4967L31.2344 67.7247L29.8159 66.9057C29.8078 66.8263 29.7957 66.698 29.7795 66.5207C29.7714 66.3387 29.7553 66.1753 29.731 66.0307C29.5451 66.2593 29.3026 66.3713 29.0036 66.3667C28.7126 66.3573 28.357 66.2313 27.9367 65.9886C27.5002 65.7366 27.1001 65.4169 26.7364 65.0296C26.3807 64.6469 26.0978 64.2269 25.8877 63.7696C25.6775 63.3029 25.5724 62.8362 25.5724 62.3695C25.5724 61.8842 25.6896 61.5319 25.924 61.3126C26.1664 61.0886 26.4897 60.9952 26.8939 61.0326C27.298 61.0699 27.7425 61.2286 28.2275 61.5086C28.664 61.7606 29.1126 62.1037 29.5733 62.5377C29.549 61.4503 29.1529 60.685 28.3851 60.2416C27.7708 59.8869 27.3222 59.9453 27.0393 60.4166L25.839 58.9256C26.0653 58.5149 26.4129 58.2909 26.8816 58.2536C27.3504 58.2069 27.9001 58.3656 28.5305 58.7296ZM29.5733 63.8257C29.1692 63.4803 28.8176 63.2213 28.5185 63.0486C28.1225 62.82 27.8153 62.7266 27.5971 62.7686C27.3789 62.8013 27.2698 62.9669 27.2698 63.2656C27.2698 63.5363 27.3547 63.7953 27.5244 64.0426C27.7022 64.2946 27.9285 64.5 28.2034 64.6586C28.5671 64.8686 28.8863 64.9363 29.1612 64.8617C29.436 64.7777 29.5734 64.5257 29.5733 64.1057L29.5733 63.8257ZM36.3197 63.2271C37.0148 63.6284 37.5645 64.2118 37.9686 64.9771C38.3728 65.7331 38.5749 66.6151 38.5749 67.6231L38.575 71.9631L36.8898 70.9901L36.8897 67.2801C36.8896 65.9547 36.5097 65.0727 35.7499 64.634C35.3458 64.4007 35.0184 64.3937 34.7679 64.613C34.5254 64.8277 34.4042 65.2617 34.4042 65.915L34.4043 69.555L32.7191 68.5819L32.7188 61.3299L34.198 62.184C34.2384 62.7767 34.2748 63.185 34.3071 63.409C34.7112 62.7463 35.3821 62.6857 36.3197 63.2271ZM44.6918 73.3389C44.6918 74.0576 44.4493 74.4869 43.9644 74.6269C43.4875 74.7622 42.8651 74.6082 42.0973 74.1649C41.4345 73.7822 40.8606 73.2875 40.3756 72.6808C39.8987 72.0788 39.5754 71.4394 39.4057 70.7628L40.6302 70.6438C40.7514 71.0591 40.9414 71.4395 41.2 71.7848C41.4587 72.1208 41.7618 72.3892 42.1094 72.5899C42.368 72.7392 42.5741 72.8022 42.7277 72.7789C42.8813 72.7555 42.958 72.6412 42.958 72.4359C42.958 72.2025 42.857 71.9669 42.6549 71.7289C42.4528 71.4815 42.1376 71.1642 41.7092 70.7768C41.2808 70.3802 40.9292 70.0325 40.6544 69.7338C40.3877 69.4398 40.1533 69.1038 39.9512 68.7258C39.7572 68.3431 39.6602 67.9371 39.6602 67.5078C39.6601 67.0224 39.7733 66.6678 39.9996 66.4438C40.234 66.2245 40.5452 66.1335 40.9331 66.1708C41.3211 66.2082 41.7454 66.3598 42.2062 66.6259C42.8366 66.9899 43.3701 67.4566 43.8066 68.0259C44.243 68.5859 44.5179 69.1553 44.631 69.7339L43.4065 69.8249C43.164 69.0782 42.7558 68.5392 42.182 68.2079C41.9395 68.0678 41.7455 68.0118 41.6 68.0398C41.4545 68.0585 41.3818 68.1658 41.3818 68.3618C41.3818 68.5858 41.4788 68.8145 41.6728 69.0478C41.8668 69.2718 42.1699 69.5682 42.5821 69.9369C43.0186 70.3289 43.3783 70.6766 43.6612 70.9799C43.9441 71.2832 44.1866 71.6379 44.3886 72.0439C44.5907 72.4406 44.6918 72.8723 44.6918 73.3389Z" fill="white"/>
<defs>
<filter id="filter0_b_53_1584" x="-135.914" y="-135.914" width="392.329" height="341.828" filterUnits="userSpaceOnUse" color-interpolation-filters="sRGB">
<feFlood flood-opacity="0" result="BackgroundImageFix"/>
<feGaussianBlur in="BackgroundImageFix" stdDeviation="67.957"/>
<feComposite in2="SourceAlpha" operator="in" result="effect1_backgroundBlur_53_1584"/>
<feBlend mode="normal" in="SourceGraphic" in2="effect1_backgroundBlur_53_1584" result="shape"/>
</filter>
<filter id="filter1_d_53_1584" x="17" y="7" width="87.5" height="54.5" filterUnits="userSpaceOnUse" color-interpolation-filters="sRGB">
<feFlood flood-opacity="0" result="BackgroundImageFix"/>
<feColorMatrix in="SourceAlpha" type="matrix" values="0 0 0 0 0 0 0 0 0 0 0 0 0 0 0 0 0 0 127 0" result="hardAlpha"/>
<feOffset dy="2"/>
<feComposite in2="hardAlpha" operator="out"/>
<feColorMatrix type="matrix" values="0 0 0 0 0.117647 0 0 0 0 0.232922 0 0 0 0 0.537255 0 0 0 1 0"/>
<feBlend mode="normal" in2="BackgroundImageFix" result="effect1_dropShadow_53_1584"/>
<feBlend mode="normal" in="SourceGraphic" in2="effect1_dropShadow_53_1584" result="shape"/>
</filter>
</defs>
</svg>
