<svg width="121" height="88" viewBox="0 0 121 88" fill="none" xmlns="http://www.w3.org/2000/svg">
<path fill-rule="evenodd" clip-rule="evenodd" d="M0 35L60.3755 70V88L0 53V35Z" fill="#1E3D89" fill-opacity="0.8"/>
<g filter="url(#filter0_b_53_1592)">
<path fill-rule="evenodd" clip-rule="evenodd" d="M60.125 0L120.501 35L60.3755 70L0 35L60.125 0Z" fill="#1E3C89" fill-opacity="0.7"/>
</g>
<path fill-rule="evenodd" clip-rule="evenodd" d="M120.501 35L60.125 70V88L120.501 53V35Z" fill="#1E3B89"/>
<g filter="url(#filter1_d_53_1592)">
<path fill-rule="evenodd" clip-rule="evenodd" d="M39.5 32.75L29 39L52 52.5L64 45.5V53.75H69V49.75L77 54.5L81 52L73 47.25H80V43.5L87.75 47.75L92.25 45.5L84.5 41H91V37.75H77L88.75 31L65.75 17.5L54.75 24L48.5 20H54.75V17H38.75V23.5H28V32.75H32.75V28.5L39.5 32.75ZM37 39L52 30.25L65.75 22.25L80.5 31C80.5 31 67.9326 38.2758 66.8162 38.9549C67.3304 38.5186 68.1863 35.9363 66.75 34.5C65.25 33 63.5 31.75 61 30.75C58.8785 29.9014 56.5769 29.953 55.012 29.988L55.0119 29.988C54.7327 29.9943 54.4771 30 54.25 30C52.75 30 51.25 30.75 52.75 32C54.25 33.25 56 33.5 56.5 33.25C56.6514 33.1743 56.7569 33.0069 56.8722 32.8242C57.1375 32.4035 57.4542 31.9014 58.5 32.25C60 32.75 64 35 63.75 35.75C63.625 36.125 63.25 36.125 62.9062 36.125C62.5625 36.125 62.25 36.125 62.25 36.5C62.25 37.25 63 38.25 64.5 38.75C65.898 39.216 66.6445 39.0305 66.7396 39.0032C66.7343 39.0072 66.7376 39.0062 66.75 39L52 47.5L37 39ZM66.75 39L66.7472 39.0009L66.7396 39.0032C66.7473 38.9973 66.7733 38.981 66.8162 38.9549C66.7934 38.9743 66.7712 38.9894 66.75 39ZM37 26.25L43.75 30.25L50.75 26.25L44 22.25L43.75 26.25H37ZM75 39L66 44.5H75V39ZM48.25 34.75L59 33.75L60.75 34.75L58.5 41L48.25 34.75Z" fill="white"/>
</g>
<defs>
<filter id="filter0_b_53_1592" x="-135.914" y="-135.914" width="392.329" height="341.828" filterUnits="userSpaceOnUse" color-interpolation-filters="sRGB">
<feFlood flood-opacity="0" result="BackgroundImageFix"/>
<feGaussianBlur in="BackgroundImageFix" stdDeviation="67.957"/>
<feComposite in2="SourceAlpha" operator="in" result="effect1_backgroundBlur_53_1592"/>
<feBlend mode="normal" in="SourceGraphic" in2="effect1_backgroundBlur_53_1592" result="shape"/>
</filter>
<filter id="filter1_d_53_1592" x="28" y="17" width="64.25" height="39.5" filterUnits="userSpaceOnUse" color-interpolation-filters="sRGB">
<feFlood flood-opacity="0" result="BackgroundImageFix"/>
<feColorMatrix in="SourceAlpha" type="matrix" values="0 0 0 0 0 0 0 0 0 0 0 0 0 0 0 0 0 0 127 0" result="hardAlpha"/>
<feOffset dy="2"/>
<feComposite in2="hardAlpha" operator="out"/>
<feColorMatrix type="matrix" values="0 0 0 0 0.117647 0 0 0 0 0.232922 0 0 0 0 0.537255 0 0 0 1 0"/>
<feBlend mode="normal" in2="BackgroundImageFix" result="effect1_dropShadow_53_1592"/>
<feBlend mode="normal" in="SourceGraphic" in2="effect1_dropShadow_53_1592" result="shape"/>
</filter>
</defs>
</svg>
