<svg width="70" height="156" viewBox="0 0 70 156" fill="none" xmlns="http://www.w3.org/2000/svg">
<path fill-rule="evenodd" clip-rule="evenodd" d="M0 119.118L0 3.48882L63 40.3706V156L0 119.118Z" fill="#03571F" fill-opacity="0.8"/>
<path fill-rule="evenodd" clip-rule="evenodd" d="M5 89.2335L58.5 121.61V43.9265L5 12.4601L5 89.2335Z" fill="white"/>
<path fill-rule="evenodd" clip-rule="evenodd" d="M8.6531 91.3576V14.5842L5 12.4601V93.2013L8.6531 91.3576ZM70 152.013V36.3834L63 40.3706V156L70 152.013ZM59 128.11V146.78L56 148.275V129.621L59 128.11Z" fill="#03571F"/>
<path fill-rule="evenodd" clip-rule="evenodd" d="M7.47965 0L70 36.3834L63 40.3706L0 3.48882L7.47965 0ZM8.75 91.4569L58.5 121.154V125.099L5 93.2013L8.75 91.4569ZM59 128.11L5 96.1917L1.88835 97.5396L56.25 129.834L59 128.11Z" fill="#03571F" fill-opacity="0.7"/>
</svg>
