<svg width="155" height="172" viewBox="0 0 155 172" fill="none" xmlns="http://www.w3.org/2000/svg">
<path fill-rule="evenodd" clip-rule="evenodd" d="M154.75 49.6058L69.6123 0L65.105 2.49275L150.242 52.0985L154.75 49.6058ZM0 117.159L65.105 80.2667L151.244 129.872L86.1389 166.765L0 117.159Z" fill="#171717" fill-opacity="0.7"/>
<path fill-rule="evenodd" clip-rule="evenodd" d="M65.105 2.49275V80.5159L150.242 130.122V52.0985L65.105 2.49275ZM86.1389 172L0 122.394V117.159L86.1389 166.765V172Z" fill="#171717" fill-opacity="0.8"/>
<g filter="url(#filter0_d_54_1637)">
<path fill-rule="evenodd" clip-rule="evenodd" d="M63.853 86L52.3344 92.7304L126.955 135.606L138.724 128.875L63.853 86ZM63.853 86.4986L53.5864 92.7304L126.955 134.858L137.472 128.875L63.853 86.4986ZM46.3247 96.7188L40.2217 100.437L46.1778 103.775L52.2419 100.04L46.3247 96.7188ZM31.5477 105.722L37.5121 102.088L43.4565 105.451L37.5604 109.082L31.5477 105.722ZM22.7525 111.08L28.7342 107.436L34.7363 110.822L28.8077 114.473L22.7525 111.08ZM13.9946 116.416L19.9381 112.795L25.9826 116.213L20.0596 119.861L13.9946 116.416ZM29.5609 125.259L23.7467 121.956L29.6691 118.298L35.5045 121.598L29.5609 125.259ZM39.4832 130.896L33.2484 127.354L39.1912 123.683L45.4483 127.222L39.4832 130.896ZM49.2253 136.43L43.1705 132.991L49.1348 129.307L55.2114 132.743L49.2253 136.43ZM59.1673 142.078L52.9115 138.525L58.8968 134.828L65.1749 138.378L59.1673 142.078ZM68.583 147.428L62.8551 144.173L68.8619 140.463L74.6703 143.748L68.583 147.428ZM78.2107 152.897L72.2643 149.519L78.3516 145.83L84.319 149.205L78.2107 152.897ZM88.1422 158.539L81.8926 154.989L88.0009 151.287L94.2538 154.824L88.1422 158.539ZM103.151 149.415L97.4002 152.911L91.1249 149.394L96.9051 145.892L103.151 149.415ZM111.836 144.135L106.298 147.502L100.03 143.998L105.613 140.615L111.836 144.135ZM120.945 138.597L114.889 142.279L108.643 138.779L114.714 135.1L120.945 138.597ZM105.029 129.665L111.054 133.046L104.973 136.722L98.9514 133.348L105.029 129.665ZM95.2402 124.171L101.37 127.611L95.281 131.291L89.2156 127.892L95.2402 124.171ZM85.2385 118.558L91.5783 122.116L85.5423 125.834L79.2068 122.283L85.2385 118.558ZM75.4406 113.059L81.5782 116.504L75.535 120.226L69.4019 116.789L75.4406 113.059ZM65.4606 107.458L71.7791 111.004L65.7289 114.731L59.4148 111.192L65.4606 107.458ZM55.9035 102.095L61.7988 105.403L55.7414 109.134L49.8508 105.833L55.9035 102.095ZM87.4309 147.324L93.2305 143.819L87.244 140.442L81.4329 143.963L87.4309 147.324ZM96.343 141.938L101.955 138.546L95.9657 135.157L90.3257 138.575L96.343 141.938ZM86.3035 129.691L92.3082 133.088L86.6394 136.514L80.6637 133.174L86.3035 129.691ZM77.6548 135.033L83.5699 138.369L77.7393 141.893L71.871 138.605L77.6548 135.033ZM68.1722 136.532L73.9762 132.957L67.6777 129.404L61.8622 132.996L68.1722 136.532ZM76.9733 131.111L82.6426 127.62L76.34 124.054L70.6426 127.573L76.9733 131.111ZM66.5795 118.532L72.6806 121.984L66.9537 125.511L60.8257 122.086L66.5795 118.532ZM57.9037 123.891L64.0006 127.33L58.1649 130.924L52.0573 127.502L57.9037 123.891ZM48.3588 125.429L54.2256 121.816L47.9482 118.275L42.0701 121.905L48.3588 125.429ZM57.1356 120.023L62.919 116.461L56.6375 112.908L50.8263 116.497L57.1356 120.023ZM47.1168 107.522L52.9768 110.837L47.1358 114.434L41.2505 111.145L47.1168 107.522ZM38.4144 112.897L44.2697 116.2L38.3714 119.832L32.5061 116.546L38.4144 112.897Z" fill="white"/>
</g>
<path fill-rule="evenodd" clip-rule="evenodd" d="M73.1179 79.7681L143.732 120.899V53.8435L73.1179 13.4609L73.1179 79.7681Z" fill="white"/>
<path fill-rule="evenodd" clip-rule="evenodd" d="M73.1179 13.4609V76.5275L70.1131 78.2725V11.7159L73.1179 13.4609ZM154.75 49.6058V127.275L155 127.13V132.365L86.1389 172V166.765L150.242 129.869V52.0985L154.75 49.6058Z" fill="#171717"/>
<g filter="url(#filter1_b_54_1637)">
<path fill-rule="evenodd" clip-rule="evenodd" d="M73.1179 76.5275L143.732 117.658V120.899L70.1131 78.2725L73.1179 76.5275Z" fill="#171717" fill-opacity="0.7"/>
</g>
<defs>
<filter id="filter0_d_54_1637" x="13.9946" y="86" width="124.729" height="74.5391" filterUnits="userSpaceOnUse" color-interpolation-filters="sRGB">
<feFlood flood-opacity="0" result="BackgroundImageFix"/>
<feColorMatrix in="SourceAlpha" type="matrix" values="0 0 0 0 0 0 0 0 0 0 0 0 0 0 0 0 0 0 127 0" result="hardAlpha"/>
<feOffset dy="2"/>
<feComposite in2="hardAlpha" operator="out"/>
<feColorMatrix type="matrix" values="0 0 0 0 0.0901961 0 0 0 0 0.0901961 0 0 0 0 0.0901961 0 0 0 1 0"/>
<feBlend mode="normal" in2="BackgroundImageFix" result="effect1_dropShadow_54_1637"/>
<feBlend mode="normal" in="SourceGraphic" in2="effect1_dropShadow_54_1637" result="shape"/>
</filter>
<filter id="filter1_b_54_1637" x="-65.801" y="-59.3866" width="345.447" height="316.199" filterUnits="userSpaceOnUse" color-interpolation-filters="sRGB">
<feFlood flood-opacity="0" result="BackgroundImageFix"/>
<feGaussianBlur in="BackgroundImageFix" stdDeviation="67.957"/>
<feComposite in2="SourceAlpha" operator="in" result="effect1_backgroundBlur_54_1637"/>
<feBlend mode="normal" in="SourceGraphic" in2="effect1_backgroundBlur_54_1637" result="shape"/>
</filter>
</defs>
</svg>
