<svg width="122" height="88" viewBox="0 0 122 88" fill="none" xmlns="http://www.w3.org/2000/svg">
<path fill-rule="evenodd" clip-rule="evenodd" d="M0 35L60.4542 70V88L0 53V35Z" fill="#03571F" fill-opacity="0.8"/>
<g filter="url(#filter0_b_54_1604)">
<path fill-rule="evenodd" clip-rule="evenodd" d="M60.2034 0L120.658 35L60.4542 70L0 35L60.2034 0Z" fill="#03571F" fill-opacity="0.7"/>
</g>
<path fill-rule="evenodd" clip-rule="evenodd" d="M120.658 35L60.2034 70V88L120.658 53V35Z" fill="#03571F"/>
<g filter="url(#filter1_d_54_1604)">
<path fill-rule="evenodd" clip-rule="evenodd" d="M19.0248 27.8205V40.9487H26.0082V34.7949L35.8672 40.9487L55.1744 38.4872L51.0665 49.1538L60.5147 54.8974H51.0665V59H72.8384V45.8718H66.2658V51.6154L59.6931 47.5128L63.801 37.2564L82.2866 34.7949L88.8593 38.4872H79.4111V42.5897H102.005V29.4615H95.0211V34.7949L85.1622 29.4615L65.4442 31.5128L69.9629 20.8462L60.5147 15.5128H69.9629V11H47.7801V23.7179H54.3528V18.3846L61.3363 22.4872L57.2283 32.7436L38.332 35.6154L32.1701 31.9231H41.6183V27.8205H19.0248Z" fill="white"/>
</g>
<path d="M120.785 39.7151L121.039 40.1452L121.039 40.1452L120.785 39.7151ZM121 39.5876L121.255 40.0178L121.685 39.763L121.43 39.3328L121 39.5876ZM61.7077 74.7151L61.9626 75.1452L61.9626 75.1452L61.7077 74.7151ZM61.4926 74.8425L61.0625 75.0974L61.3173 75.5275L61.7475 75.2727L61.4926 74.8425ZM61.2378 74.4123L60.9829 73.9822L60.5528 74.237L60.8076 74.6672L61.2378 74.4123ZM61.4529 74.2849L61.198 73.8547L61.198 73.8547L61.4529 74.2849ZM120.53 39.2849L120.275 38.8547L120.275 38.8547L120.53 39.2849ZM120.745 39.1575L121.175 38.9026L120.92 38.4724L120.49 38.7273L120.745 39.1575ZM120.785 43.7151L121.039 44.1452L121.039 44.1452L120.785 43.7151ZM121 43.5876L121.255 44.0178L121.685 43.763L121.43 43.3328L121 43.5876ZM61.7077 78.7151L61.9626 79.1452L61.9626 79.1452L61.7077 78.7151ZM61.4926 78.8425L61.0625 79.0974L61.3173 79.5275L61.7475 79.2727L61.4926 78.8425ZM61.2378 78.4123L60.9829 77.9822L60.5528 78.237L60.8076 78.6672L61.2378 78.4123ZM61.4529 78.2849L61.198 77.8547L61.198 77.8547L61.4529 78.2849ZM120.53 43.2849L120.275 42.8547L120.275 42.8547L120.53 43.2849ZM120.745 43.1575L121.175 42.9026L120.92 42.4724L120.49 42.7273L120.745 43.1575ZM121 47.5876L121.255 48.0178L121.685 47.763L121.43 47.3328L121 47.5876ZM120.785 47.7151L121.039 48.1452L121.039 48.1452L120.785 47.7151ZM120.745 47.1575L121.175 46.9026L120.92 46.4724L120.49 46.7273L120.745 47.1575ZM120.53 47.2849L120.275 46.8547L120.275 46.8547L120.53 47.2849ZM61.4529 82.2849L61.198 81.8547L61.198 81.8547L61.4529 82.2849ZM61.2378 82.4123L60.9829 81.9822L60.5528 82.237L60.8076 82.6672L61.2378 82.4123ZM61.4926 82.8425L61.0625 83.0974L61.3173 83.5275L61.7475 83.2727L61.4926 82.8425ZM61.7077 82.7151L61.9626 83.1452L61.9626 83.1452L61.7077 82.7151ZM121.039 40.1452L121.255 40.0178L120.745 39.1575L120.53 39.2849L121.039 40.1452ZM61.9626 75.1452L121.039 40.1452L120.53 39.2849L61.4529 74.2849L61.9626 75.1452ZM61.7475 75.2727L61.9626 75.1452L61.4529 74.2849L61.2378 74.4123L61.7475 75.2727ZM60.8076 74.6672L61.0625 75.0974L61.9228 74.5876L61.668 74.1575L60.8076 74.6672ZM61.198 73.8547L60.9829 73.9822L61.4926 74.8425L61.7077 74.7151L61.198 73.8547ZM120.275 38.8547L61.198 73.8547L61.7077 74.7151L120.785 39.7151L120.275 38.8547ZM120.49 38.7273L120.275 38.8547L120.785 39.7151L121 39.5876L120.49 38.7273ZM121.43 39.3328L121.175 38.9026L120.315 39.4123L120.57 39.8425L121.43 39.3328ZM121.039 44.1452L121.255 44.0178L120.745 43.1575L120.53 43.2849L121.039 44.1452ZM61.9626 79.1452L121.039 44.1452L120.53 43.2849L61.4529 78.2849L61.9626 79.1452ZM61.7475 79.2727L61.9626 79.1452L61.4529 78.2849L61.2378 78.4123L61.7475 79.2727ZM60.8076 78.6672L61.0625 79.0974L61.9228 78.5876L61.668 78.1575L60.8076 78.6672ZM61.198 77.8547L60.9829 77.9822L61.4926 78.8425L61.7077 78.7151L61.198 77.8547ZM120.275 42.8547L61.198 77.8547L61.7077 78.7151L120.785 43.7151L120.275 42.8547ZM120.49 42.7273L120.275 42.8547L120.785 43.7151L121 43.5876L120.49 42.7273ZM121.43 43.3328L121.175 42.9026L120.315 43.4123L120.57 43.8425L121.43 43.3328ZM120.745 47.1575L120.53 47.2849L121.039 48.1452L121.255 48.0178L120.745 47.1575ZM120.315 47.4123L120.57 47.8425L121.43 47.3328L121.175 46.9026L120.315 47.4123ZM120.785 47.7151L121 47.5876L120.49 46.7273L120.275 46.8547L120.785 47.7151ZM61.7077 82.7151L120.785 47.7151L120.275 46.8547L61.198 81.8547L61.7077 82.7151ZM61.4926 82.8425L61.7077 82.7151L61.198 81.8547L60.9829 81.9822L61.4926 82.8425ZM61.9228 82.5876L61.668 82.1575L60.8076 82.6672L61.0625 83.0974L61.9228 82.5876ZM61.4529 82.2849L61.2378 82.4123L61.7475 83.2727L61.9626 83.1452L61.4529 82.2849ZM120.53 47.2849L61.4529 82.2849L61.9626 83.1452L121.039 48.1452L120.53 47.2849Z" fill="white" fill-opacity="0.438401"/>
<path d="M22.6146 52.4829L24.4583 60.4339L26.156 54.525L27.854 55.5041L25.0891 64.1576L23.7307 63.3743L21.8628 55.6053L20.0559 61.2553L18.7097 60.479L15.8229 48.5665L17.6421 49.6155L19.4615 57.5526L21.2078 51.6716L22.6146 52.4829ZM32.0361 57.9157L35.6263 70.2338L33.7586 69.1568L32.9823 66.3712L29.5258 64.378L28.7739 66.2824L27.0154 65.2684L30.4958 57.0275L32.0361 57.9157ZM32.4122 64.3065L31.2236 60.0231L30.0715 62.9567L32.4122 64.3065ZM39.6968 62.3332C40.4003 62.7388 41.0148 63.2332 41.5403 63.8162C42.0659 64.3993 42.4702 65.0291 42.7532 65.7056C43.0443 66.3774 43.1898 67.054 43.1898 67.7353C43.1899 68.4073 43.0443 68.9161 42.7533 69.2616C42.4703 69.6024 42.066 69.7613 41.5405 69.7382C41.015 69.7058 40.4005 69.4868 39.6971 69.0812L38.3993 68.3329L38.3995 71.8329L36.6409 70.8188L36.6406 60.5708L39.6968 62.3332ZM39.5029 67.2473C40.0528 67.5643 40.4934 67.6831 40.8249 67.6036C41.1564 67.5148 41.3221 67.1997 41.3221 66.6583C41.3221 66.117 41.1563 65.6108 40.8248 65.1396C40.4933 64.6591 40.0526 64.2603 39.5028 63.9433L38.3992 63.3069L38.3993 66.6109L39.5029 67.2473Z" fill="white"/>
<defs>
<filter id="filter0_b_54_1604" x="-135.914" y="-135.914" width="392.486" height="341.828" filterUnits="userSpaceOnUse" color-interpolation-filters="sRGB">
<feFlood flood-opacity="0" result="BackgroundImageFix"/>
<feGaussianBlur in="BackgroundImageFix" stdDeviation="67.957"/>
<feComposite in2="SourceAlpha" operator="in" result="effect1_backgroundBlur_54_1604"/>
<feBlend mode="normal" in="SourceGraphic" in2="effect1_backgroundBlur_54_1604" result="shape"/>
</filter>
<filter id="filter1_d_54_1604" x="19.0248" y="11" width="82.9798" height="50" filterUnits="userSpaceOnUse" color-interpolation-filters="sRGB">
<feFlood flood-opacity="0" result="BackgroundImageFix"/>
<feColorMatrix in="SourceAlpha" type="matrix" values="0 0 0 0 0 0 0 0 0 0 0 0 0 0 0 0 0 0 127 0" result="hardAlpha"/>
<feOffset dy="2"/>
<feComposite in2="hardAlpha" operator="out"/>
<feColorMatrix type="matrix" values="0 0 0 0 0.0117647 0 0 0 0 0.341176 0 0 0 0 0.121569 0 0 0 1 0"/>
<feBlend mode="normal" in2="BackgroundImageFix" result="effect1_dropShadow_54_1604"/>
<feBlend mode="normal" in="SourceGraphic" in2="effect1_dropShadow_54_1604" result="shape"/>
</filter>
</defs>
</svg>
