<svg width="126" height="181" viewBox="0 0 126 181" fill="none" xmlns="http://www.w3.org/2000/svg">
<path opacity="0.9" fill-rule="evenodd" clip-rule="evenodd" d="M45 176.511V69.8066L5 45.8729L5 152.577L45 176.511Z" fill="#1E3B89"/>
<path fill-rule="evenodd" clip-rule="evenodd" d="M5 70.8039V74.7928L10.3333 71.8011L5 70.8039ZM10 133.63V130.638L14 131.386L10 133.63ZM10 138.616V135.624L14 136.372L10 138.616ZM10 148.588V145.597L14 146.345L10 148.588ZM10 150.583V153.575L14 151.331L10 150.583ZM10 143.602V140.611L14 141.358L10 143.602Z" fill="#1E3B89"/>
<g filter="url(#filter0_b_55_1453)">
<path fill-rule="evenodd" clip-rule="evenodd" d="M45 69.8066L5 45.8729L85 0L125 23.9337L45 69.8066ZM44 83.5186L40 85.7624L0 61.8287L4 59.5849L44 83.5186ZM40 151.58L44 149.336L14 131.386L10 133.63L40 151.58ZM44 159.309L40 161.552L10 143.602L14 141.358L44 159.309ZM40 156.566L44 154.323L14 136.372L10 138.616L40 156.566ZM44 164.295L40 166.539L10 148.588L14 146.345L44 164.295ZM40 171.525L44 169.281L14 151.331L10 153.575L40 171.525ZM39 90.4993L35 92.7431L5 74.7928L9 72.549L39 90.4993ZM40 72.7983L44 70.5546L4 46.6209L0 48.8646L40 72.7983Z" fill="#1E3C89" fill-opacity="0.7"/>
</g>
<g filter="url(#filter1_b_55_1453)">
<path fill-rule="evenodd" clip-rule="evenodd" d="M40 72.7983V84.5159L0 60.5822V48.8646L40 72.7983ZM40 180.001V171.525L10 153.575V150.583L40 168.533V166.539L10 148.588V145.597L40 163.547V161.552L10 143.602V140.61L40 158.81V156.566L10 138.616V135.624L40 153.575V151.58L10 133.63V130.638L40 148.588V85.7624L0 61.8287V156.068L40 180.001ZM5 70.8039L35 88.7541V92.7431L5 74.7928V70.8039Z" fill="#1E3D89" fill-opacity="0.8"/>
</g>
<path fill-rule="evenodd" clip-rule="evenodd" d="M45 69.8066L125 23.9337V130.638L45 176.511V69.8066ZM40 72.7983L44 70.5546V82.2721L40 84.5159V72.7983ZM44 169.281L40 171.525V180.001L44 177.508V169.281ZM40 151.58L44 149.336V151.331L40 153.575V151.58ZM44 154.323L40 156.566V158.561L44 156.317V154.323ZM40 161.552L44 159.309V161.303L40 163.547V161.552ZM44 164.295L40 166.539V168.533L44 166.289V164.295ZM40 85.7624L44 83.5186V146.345L40 148.588V85.7624Z" fill="#1E3B89"/>
<path d="M62.2536 119.45C63.0492 118.99 63.7322 118.353 64.3026 117.539C64.888 116.715 65.3534 115.77 65.6987 114.704L68.4231 114.951C68.0177 116.468 67.2747 117.954 66.1939 119.41C65.1131 120.849 63.8221 122.002 62.321 122.869C60.865 123.709 59.5365 124.069 58.3357 123.948C57.1349 123.826 56.1817 123.224 55.4762 122.141C54.7708 121.04 54.4181 119.519 54.4181 117.578C54.4182 115.637 54.7635 113.721 55.4541 111.832C56.1596 109.934 57.1128 108.231 58.3137 106.723C59.5296 105.206 60.8656 104.027 62.3217 103.187C63.8227 102.32 65.1137 101.991 66.1944 102.198C67.2752 102.389 68.0182 103.009 68.4234 104.057L65.6989 107.45C65.3537 106.783 64.8884 106.376 64.303 106.229C63.7326 106.073 63.0496 106.224 62.254 106.684C61.4134 107.169 60.6628 107.862 60.0024 108.764C59.3419 109.665 58.8165 110.714 58.4261 111.91C58.0508 113.08 57.8632 114.306 57.8631 115.589C57.8631 116.871 58.0507 117.89 58.4259 118.644C58.8162 119.389 59.3415 119.831 60.002 119.97C60.6625 120.108 61.413 119.935 62.2536 119.45ZM78.2556 94.3245L84.9198 109.508L81.4523 111.51L80.0114 108L73.5943 111.706L72.1981 116.854L68.9333 118.739L75.396 95.9755L78.2556 94.3245ZM78.9532 105.387L76.7468 99.9795L74.6076 107.897L78.9532 105.387ZM100.629 81.4062L103.106 79.9761L103.105 99.0081L99.9979 100.802L99.9983 88.5302L95.8101 98.1504L94.0988 99.1384L89.8885 94.3155L89.8881 106.64L86.8034 108.421L86.804 89.3886L89.3934 87.8936L95.0221 94.4974L100.629 81.4062ZM117.694 85.0726C117.694 86.3726 117.402 87.6336 116.816 88.8556C116.246 90.0516 115.495 91.1263 114.564 92.0797C113.649 93.0244 112.665 93.8001 111.615 94.4068C110.084 95.2908 108.703 95.6809 107.472 95.5769C106.241 95.4556 105.423 94.758 105.018 93.484L107.675 90.2079C108.035 90.9706 108.56 91.4212 109.251 91.5598C109.941 91.6985 110.767 91.4905 111.727 90.9358C112.508 90.4851 113.123 89.9477 113.574 89.3237C114.039 88.691 114.272 88.028 114.272 87.3347C114.272 86.78 114.114 86.4117 113.799 86.2297C113.499 86.039 113.116 85.9741 112.651 86.0347C112.2 86.0868 111.577 86.2038 110.782 86.3858C109.716 86.6372 108.846 86.7845 108.17 86.8279C107.495 86.8539 106.917 86.6503 106.436 86.2169C105.956 85.7836 105.716 84.9863 105.716 83.825C105.716 82.5943 105.994 81.394 106.549 80.2239C107.12 79.0279 107.863 77.9576 108.778 77.0129C109.709 76.0422 110.707 75.2491 111.773 74.6338C113.229 73.7931 114.475 73.455 115.511 73.6196C116.546 73.7843 117.214 74.4299 117.514 75.5566L114.858 78.8327C114.587 78.174 114.182 77.7754 113.642 77.6367C113.101 77.4807 112.426 77.6367 111.615 78.1048C110.88 78.5295 110.279 79.0755 109.814 79.7428C109.364 80.3842 109.138 81.0255 109.138 81.6669C109.138 82.1522 109.281 82.4772 109.566 82.6418C109.851 82.7892 110.212 82.8412 110.647 82.7978C111.097 82.7285 111.698 82.6071 112.448 82.4337C113.529 82.1737 114.422 82.0307 115.128 82.0047C115.833 81.9613 116.434 82.1693 116.929 82.6286C117.439 83.0619 117.694 83.8766 117.694 85.0726Z" fill="white"/>
<defs>
<filter id="filter0_b_55_1453" x="-100" y="-100" width="325" height="371.525" filterUnits="userSpaceOnUse" color-interpolation-filters="sRGB">
<feFlood flood-opacity="0" result="BackgroundImageFix"/>
<feGaussianBlur in="BackgroundImageFix" stdDeviation="50"/>
<feComposite in2="SourceAlpha" operator="in" result="effect1_backgroundBlur_55_1453"/>
<feBlend mode="normal" in="SourceGraphic" in2="effect1_backgroundBlur_55_1453" result="shape"/>
</filter>
<filter id="filter1_b_55_1453" x="-100" y="-51.1354" width="240" height="331.137" filterUnits="userSpaceOnUse" color-interpolation-filters="sRGB">
<feFlood flood-opacity="0" result="BackgroundImageFix"/>
<feGaussianBlur in="BackgroundImageFix" stdDeviation="50"/>
<feComposite in2="SourceAlpha" operator="in" result="effect1_backgroundBlur_55_1453"/>
<feBlend mode="normal" in="SourceGraphic" in2="effect1_backgroundBlur_55_1453" result="shape"/>
</filter>
</defs>
</svg>
