<svg width="125" height="181" viewBox="0 0 125 181" fill="none" xmlns="http://www.w3.org/2000/svg">
<path opacity="0.9" fill-rule="evenodd" clip-rule="evenodd" d="M45 176.511V69.8066L5 45.8729L5 152.577L45 176.511Z" fill="#1E3B89"/>
<path fill-rule="evenodd" clip-rule="evenodd" d="M5 70.8039V74.7928L10.3333 71.8011L5 70.8039ZM10 133.63V130.638L14 131.386L10 133.63ZM10 138.616V135.624L14 136.372L10 138.616ZM10 148.588V145.597L14 146.345L10 148.588ZM10 150.583V153.575L14 151.331L10 150.583ZM10 143.602V140.611L14 141.358L10 143.602Z" fill="#1E3B89"/>
<g filter="url(#filter0_b_55_1450)">
<path fill-rule="evenodd" clip-rule="evenodd" d="M45 69.8066L5 45.8729L85 0L125 23.9337L45 69.8066ZM44 83.5186L40 85.7624L0 61.8287L4 59.5849L44 83.5186ZM40 151.58L44 149.336L14 131.386L10 133.63L40 151.58ZM44 159.309L40 161.552L10 143.602L14 141.358L44 159.309ZM40 156.566L44 154.323L14 136.372L10 138.616L40 156.566ZM44 164.295L40 166.539L10 148.588L14 146.345L44 164.295ZM40 171.525L44 169.281L14 151.331L10 153.575L40 171.525ZM39 90.4993L35 92.7431L5 74.7928L9 72.549L39 90.4993ZM40 72.7983L44 70.5546L4 46.6209L0 48.8646L40 72.7983Z" fill="#1E3C89" fill-opacity="0.7"/>
</g>
<g filter="url(#filter1_b_55_1450)">
<path fill-rule="evenodd" clip-rule="evenodd" d="M40 72.7983V84.5159L0 60.5822V48.8646L40 72.7983ZM40 180.001V171.525L10 153.575V150.583L40 168.533V166.539L10 148.588V145.597L40 163.547V161.552L10 143.602V140.61L40 158.81V156.566L10 138.616V135.624L40 153.575V151.58L10 133.63V130.638L40 148.588V85.7624L0 61.8287V156.068L40 180.001ZM5 70.8039L35 88.7541V92.7431L5 74.7928V70.8039Z" fill="#1E3D89" fill-opacity="0.8"/>
</g>
<path fill-rule="evenodd" clip-rule="evenodd" d="M45 69.8066L125 23.9337V130.638L45 176.511V69.8066ZM40 72.7983L44 70.5546V82.2721L40 84.5159V72.7983ZM44 169.281L40 171.525V180.001L44 177.508V169.281ZM40 151.58L44 149.336V151.331L40 153.575V151.58ZM44 154.323L40 156.566V158.561L44 156.317V154.323ZM40 161.552L44 159.309V161.303L40 163.547V161.552ZM44 164.295L40 166.539V168.533L44 166.289V164.295ZM40 85.7624L44 83.5186V146.345L40 148.588V85.7624Z" fill="#1E3B89"/>
<path d="M73.9306 96.5839L67.0308 111.635L74.2521 119.09L69.4197 121.88L64.6413 116.672L59.8356 127.414L55.3254 130.018L62.5206 114.332L55.6483 107.14L60.4001 104.396L64.91 109.294L69.4205 99.188L73.9306 96.5839ZM79.8588 115.853L76.1271 118.007L76.1279 94.4162L79.8595 92.2616L79.8588 115.853ZM82.5055 106.296C82.5055 104.622 82.8277 102.958 83.4721 101.305C84.1343 99.6408 85.0113 98.1528 86.1031 96.8405C87.1949 95.5074 88.3761 94.474 89.6468 93.7403C90.8997 93.017 92.063 92.6966 93.1368 92.7792C94.2286 92.8309 95.0966 93.3113 95.7408 94.2206C96.403 95.1196 96.7341 96.4061 96.734 98.0801C96.7339 99.7541 96.4028 101.423 95.7405 103.087C95.0962 104.74 94.2281 106.223 93.1364 107.535C92.0625 108.837 90.8991 109.85 89.6463 110.573C88.3756 111.307 87.1944 111.648 86.1026 111.596C85.0109 111.545 84.134 111.07 83.4718 110.171C82.8275 109.261 82.5054 107.97 82.5055 106.296ZM86.3713 104.063C86.3713 105.489 86.6755 106.45 87.284 106.946C87.9104 107.411 88.6889 107.375 89.6196 106.838C90.5503 106.3 91.3199 105.443 91.9284 104.265C92.5369 103.066 92.8412 101.754 92.8413 100.328C92.8413 98.9017 92.5371 97.9407 91.9286 97.4448C91.3201 96.9488 90.5506 96.9695 89.6199 97.5068C88.6892 98.0442 87.9107 98.9174 87.2842 100.126C86.6757 101.325 86.3714 102.637 86.3713 104.063ZM112.831 80.757L112.83 95.172C112.83 98.4167 112.123 101.171 110.709 103.434C109.295 105.697 107.541 107.433 105.447 108.642C103.926 109.52 102.584 109.923 101.421 109.851C100.275 109.768 99.4608 109.205 98.9776 108.161L101.85 104.612C102.548 105.759 103.747 105.841 105.448 104.86C106.772 104.095 107.703 103.103 108.24 101.884C108.794 100.675 109.081 99.0626 109.099 97.0476C108.168 99.1143 106.826 100.654 105.072 101.667C103.944 102.318 102.888 102.597 101.904 102.504C100.92 102.39 100.123 101.879 99.5148 100.969C98.9242 100.029 98.6289 98.7013 98.629 96.986C98.629 95.25 98.9244 93.5811 99.515 91.9794C100.124 90.3468 100.92 88.9156 101.904 87.6859C102.889 86.4355 103.945 85.4848 105.072 84.8338C105.985 84.3067 106.808 84.0587 107.542 84.0897C108.276 84.1207 108.876 84.4668 109.341 85.1281C109.466 84.2085 109.538 83.3818 109.556 82.6481L112.831 80.757ZM105.77 97.5747C106.701 97.0374 107.488 96.19 108.132 95.0327C108.777 93.8753 109.099 92.5113 109.099 90.9406C109.099 89.3906 108.777 88.4296 108.133 88.0577C107.488 87.665 106.701 87.7374 105.77 88.2747C104.786 88.8431 103.989 89.706 103.381 90.8633C102.79 92.0103 102.495 93.3072 102.495 94.7538C102.495 96.2005 102.79 97.177 103.381 97.6833C103.989 98.1793 104.786 98.1431 105.77 97.5747Z" fill="white"/>
<defs>
<filter id="filter0_b_55_1450" x="-100" y="-100" width="325" height="371.525" filterUnits="userSpaceOnUse" color-interpolation-filters="sRGB">
<feFlood flood-opacity="0" result="BackgroundImageFix"/>
<feGaussianBlur in="BackgroundImageFix" stdDeviation="50"/>
<feComposite in2="SourceAlpha" operator="in" result="effect1_backgroundBlur_55_1450"/>
<feBlend mode="normal" in="SourceGraphic" in2="effect1_backgroundBlur_55_1450" result="shape"/>
</filter>
<filter id="filter1_b_55_1450" x="-100" y="-51.1354" width="240" height="331.137" filterUnits="userSpaceOnUse" color-interpolation-filters="sRGB">
<feFlood flood-opacity="0" result="BackgroundImageFix"/>
<feGaussianBlur in="BackgroundImageFix" stdDeviation="50"/>
<feComposite in2="SourceAlpha" operator="in" result="effect1_backgroundBlur_55_1450"/>
<feBlend mode="normal" in="SourceGraphic" in2="effect1_backgroundBlur_55_1450" result="shape"/>
</filter>
</defs>
</svg>
