<svg width="120" height="221" viewBox="0 0 120 221" fill="none" xmlns="http://www.w3.org/2000/svg">
<path opacity="0.9" fill-rule="evenodd" clip-rule="evenodd" d="M30.4155 195.304V123.182L3.37952 107.006L3.37952 179.127L30.4155 195.304Z" fill="#1E3B89"/>
<path fill-rule="evenodd" clip-rule="evenodd" d="M3.37952 123.856V126.552L6.98432 124.53L3.37952 123.856ZM6.75902 166.32V164.298L9.46262 164.804L6.75902 166.32ZM6.75902 169.691V167.669L9.46262 168.174L6.75902 169.691ZM6.75902 176.431V174.409L9.46262 174.914L6.75902 176.431ZM6.75902 177.779V179.801L9.46262 178.285L6.75902 177.779ZM6.75902 173.061V171.039L9.46262 171.544L6.75902 173.061Z" fill="#1E3B89"/>
<g filter="url(#filter0_b_54_1644)">
<path fill-rule="evenodd" clip-rule="evenodd" d="M30.4155 123.182L3.3795 107.006L57.4515 76L84.4875 92.1768L30.4155 123.182ZM29.7396 132.45L27.036 133.967L0 117.79L2.7036 116.273L29.7396 132.45ZM27.036 178.453L29.7396 176.936L9.4626 164.804L6.759 166.32L27.036 178.453ZM29.7396 183.677L27.036 185.193L6.759 173.061L9.4626 171.544L29.7396 183.677ZM27.036 181.823L29.7396 180.307L9.4626 168.174L6.759 169.691L27.036 181.823ZM29.7396 187.047L27.036 188.564L6.759 176.431L9.4626 174.914L29.7396 187.047ZM27.036 191.934L29.7396 190.417L9.4626 178.285L6.759 179.801L27.036 191.934ZM26.3601 137.169L23.6565 138.685L3.3795 126.552L6.0831 125.036L26.3601 137.169ZM27.036 125.204L29.7396 123.688L2.7036 107.511L0 109.028L27.036 125.204Z" fill="#1E3C89" fill-opacity="0.7"/>
</g>
<g filter="url(#filter1_b_54_1644)">
<path fill-rule="evenodd" clip-rule="evenodd" d="M27.036 125.204V133.124L0 116.948V109.028L27.036 125.204ZM27.036 197.663V191.934L6.759 179.801V177.779L27.036 189.912V188.564L6.759 176.431V174.409L27.036 186.541V185.193L6.759 173.061V171.039L27.036 183.34V181.823L6.759 169.691V167.669L27.036 179.801V178.453L6.759 166.32V164.298L27.036 176.431V133.967L0 117.79V181.486L27.036 197.663ZM3.3795 123.856L23.6565 135.989V138.685L3.3795 126.552V123.856Z" fill="#1E3D89" fill-opacity="0.8"/>
</g>
<path fill-rule="evenodd" clip-rule="evenodd" d="M30.4155 123.182L84.4875 92.1768V164.298L30.4155 195.304V123.182ZM27.036 125.204L29.7396 123.688V131.608L27.036 133.124V125.204ZM29.7396 190.417L27.036 191.934V197.663L29.7396 195.978V190.417ZM27.036 178.453L29.7396 176.936V178.285L27.036 179.801V178.453ZM29.7396 180.307L27.036 181.823V183.171L29.7396 181.655V180.307ZM27.036 185.193L29.7396 183.677V185.025L27.036 186.541V185.193ZM29.7396 187.047L27.036 188.564V189.912L29.7396 188.395V187.047ZM27.036 133.967L29.7396 132.45V174.914L27.036 176.431V133.967Z" fill="#1E3B89"/>
<path opacity="0.9" fill-rule="evenodd" clip-rule="evenodd" d="M30.4155 119.304V47.1823L3.37952 31.0055L3.37952 103.127L30.4155 119.304Z" fill="#1E3B89"/>
<path fill-rule="evenodd" clip-rule="evenodd" d="M3.37952 47.8564V50.5525L6.98432 48.5304L3.37952 47.8564ZM6.75902 90.3204V88.2983L9.46262 88.8039L6.75902 90.3204ZM6.75902 93.6906V91.6685L9.46262 92.174L6.75902 93.6906ZM6.75902 100.431V98.4088L9.46262 98.9144L6.75902 100.431ZM6.75902 101.779V103.801L9.46262 102.285L6.75902 101.779ZM6.75902 97.0608V95.0387L9.46262 95.5442L6.75902 97.0608Z" fill="#1E3B89"/>
<g filter="url(#filter2_b_54_1644)">
<path fill-rule="evenodd" clip-rule="evenodd" d="M30.4155 47.1823L3.3795 31.0055L57.4515 0L84.4875 16.1768L30.4155 47.1823ZM29.7396 56.4503L27.036 57.9669L0 41.7901L2.7036 40.2735L29.7396 56.4503ZM27.036 102.453L29.7396 100.936L9.4626 88.8039L6.759 90.3204L27.036 102.453ZM29.7396 107.677L27.036 109.193L6.759 97.0608L9.4626 95.5442L29.7396 107.677ZM27.036 105.823L29.7396 104.307L9.4626 92.174L6.759 93.6906L27.036 105.823ZM29.7396 111.047L27.036 112.564L6.759 100.431L9.4626 98.9144L29.7396 111.047ZM27.036 115.934L29.7396 114.417L9.4626 102.285L6.759 103.801L27.036 115.934ZM26.3601 61.1685L23.6565 62.6851L3.3795 50.5525L6.0831 49.0359L26.3601 61.1685ZM27.036 49.2044L29.7396 47.6878L2.7036 31.511L0 33.0276L27.036 49.2044Z" fill="#1E3C89" fill-opacity="0.7"/>
</g>
<g filter="url(#filter3_b_54_1644)">
<path fill-rule="evenodd" clip-rule="evenodd" d="M27.036 49.2044V57.1243L0 40.9475V33.0276L27.036 49.2044ZM27.036 121.663V115.934L6.759 103.801V101.779L27.036 113.912V112.564L6.759 100.431V98.4088L27.036 110.541V109.193L6.759 97.0608V95.0387L27.036 107.34V105.823L6.759 93.6906V91.6685L27.036 103.801V102.453L6.759 90.3204V88.2983L27.036 100.431V57.9668L0 41.79V105.486L27.036 121.663ZM3.3795 47.8563L23.6565 59.9889V62.6851L3.3795 50.5525V47.8563Z" fill="#1E3D89" fill-opacity="0.8"/>
</g>
<path fill-rule="evenodd" clip-rule="evenodd" d="M30.4155 47.1823L84.4875 16.1768V88.2983L30.4155 119.304V47.1823ZM27.036 49.2044L29.7396 47.6878V55.6077L27.036 57.1243V49.2044ZM29.7396 114.417L27.036 115.934V121.663L29.7396 119.978V114.417ZM27.036 102.453L29.7396 100.936V102.285L27.036 103.801V102.453ZM29.7396 104.307L27.036 105.823V107.171L29.7396 105.655V104.307ZM27.036 109.193L29.7396 107.677V109.025L27.036 110.541V109.193ZM29.7396 111.047L27.036 112.564V113.912L29.7396 112.395V111.047ZM27.036 57.9668L29.7396 56.4503V98.9144L27.036 100.431V57.9668Z" fill="#1E3B89"/>
<path opacity="0.9" fill-rule="evenodd" clip-rule="evenodd" d="M65.4155 218.304V146.182L38.3795 130.006L38.3795 202.127L65.4155 218.304Z" fill="#1E3B89"/>
<path fill-rule="evenodd" clip-rule="evenodd" d="M38.3795 146.856V149.552L41.9843 147.53L38.3795 146.856ZM41.759 189.32V187.298L44.4626 187.804L41.759 189.32ZM41.759 192.691V190.669L44.4626 191.174L41.759 192.691ZM41.759 199.431V197.409L44.4626 197.914L41.759 199.431ZM41.759 200.779V202.801L44.4626 201.285L41.759 200.779ZM41.759 196.061V194.039L44.4626 194.544L41.759 196.061Z" fill="#1E3B89"/>
<g filter="url(#filter4_b_54_1644)">
<path fill-rule="evenodd" clip-rule="evenodd" d="M65.4155 146.182L38.3795 130.006L92.4515 99L119.488 115.177L65.4155 146.182ZM64.7396 155.45L62.036 156.967L35 140.79L37.7036 139.273L64.7396 155.45ZM62.036 201.453L64.7396 199.936L44.4626 187.804L41.759 189.32L62.036 201.453ZM64.7396 206.677L62.036 208.193L41.759 196.061L44.4626 194.544L64.7396 206.677ZM62.036 204.823L64.7396 203.307L44.4626 191.174L41.759 192.691L62.036 204.823ZM64.7396 210.047L62.036 211.564L41.759 199.431L44.4626 197.914L64.7396 210.047ZM62.036 214.934L64.7396 213.417L44.4626 201.285L41.759 202.801L62.036 214.934ZM61.3601 160.169L58.6565 161.685L38.3795 149.552L41.0831 148.036L61.3601 160.169ZM62.036 148.204L64.7396 146.688L37.7036 130.511L35 132.028L62.036 148.204Z" fill="#1E3C89" fill-opacity="0.7"/>
</g>
<g filter="url(#filter5_b_54_1644)">
<path fill-rule="evenodd" clip-rule="evenodd" d="M62.036 148.204V156.124L35 139.948V132.028L62.036 148.204ZM62.036 220.663V214.934L41.759 202.801V200.779L62.036 212.912V211.564L41.759 199.431V197.409L62.036 209.541V208.193L41.759 196.061V194.039L62.036 206.34V204.823L41.759 192.691V190.669L62.036 202.801V201.453L41.759 189.32V187.298L62.036 199.431V156.967L35 140.79V204.486L62.036 220.663ZM38.3795 146.856L58.6565 158.989V161.685L38.3795 149.552V146.856Z" fill="#1E3D89" fill-opacity="0.8"/>
</g>
<path fill-rule="evenodd" clip-rule="evenodd" d="M65.4155 146.182L119.488 115.177V187.298L65.4155 218.304V146.182ZM62.036 148.204L64.7396 146.688V154.608L62.036 156.124V148.204ZM64.7396 213.417L62.036 214.934V220.663L64.7396 218.978V213.417ZM62.036 201.453L64.7396 199.936V201.285L62.036 202.801V201.453ZM64.7396 203.307L62.036 204.823V206.171L64.7396 204.655V203.307ZM62.036 208.193L64.7396 206.677V208.025L62.036 209.541V208.193ZM64.7396 210.047L62.036 211.564V212.912L64.7396 211.395V210.047ZM62.036 156.967L64.7396 155.45V197.914L62.036 199.431V156.967Z" fill="#1E3B89"/>
<path opacity="0.9" fill-rule="evenodd" clip-rule="evenodd" d="M65.4155 142.304V70.1823L38.3795 54.0055L38.3795 126.127L65.4155 142.304Z" fill="#1E3B89"/>
<path fill-rule="evenodd" clip-rule="evenodd" d="M38.3795 70.8564V73.5525L41.9843 71.5304L38.3795 70.8564ZM41.759 113.32V111.298L44.4626 111.804L41.759 113.32ZM41.759 116.691V114.669L44.4626 115.174L41.759 116.691ZM41.759 123.431V121.409L44.4626 121.914L41.759 123.431ZM41.759 124.779V126.801L44.4626 125.285L41.759 124.779ZM41.759 120.061V118.039L44.4626 118.544L41.759 120.061Z" fill="#1E3B89"/>
<g filter="url(#filter6_b_54_1644)">
<path fill-rule="evenodd" clip-rule="evenodd" d="M65.4155 70.1823L38.3795 54.0055L92.4515 23L119.488 39.1768L65.4155 70.1823ZM64.7396 79.4503L62.036 80.9669L35 64.7901L37.7036 63.2735L64.7396 79.4503ZM62.036 125.453L64.7396 123.936L44.4626 111.804L41.759 113.32L62.036 125.453ZM64.7396 130.677L62.036 132.193L41.759 120.061L44.4626 118.544L64.7396 130.677ZM62.036 128.823L64.7396 127.307L44.4626 115.174L41.759 116.691L62.036 128.823ZM64.7396 134.047L62.036 135.564L41.759 123.431L44.4626 121.914L64.7396 134.047ZM62.036 138.934L64.7396 137.417L44.4626 125.285L41.759 126.801L62.036 138.934ZM61.3601 84.1685L58.6565 85.6851L38.3795 73.5525L41.0831 72.0359L61.3601 84.1685ZM62.036 72.2044L64.7396 70.6878L37.7036 54.511L35 56.0276L62.036 72.2044Z" fill="#1E3C89" fill-opacity="0.7"/>
</g>
<g filter="url(#filter7_b_54_1644)">
<path fill-rule="evenodd" clip-rule="evenodd" d="M62.036 72.2044V80.1243L35 63.9475V56.0276L62.036 72.2044ZM62.036 144.663V138.934L41.759 126.801V124.779L62.036 136.912V135.564L41.759 123.431V121.409L62.036 133.541V132.193L41.759 120.061V118.039L62.036 130.34V128.823L41.759 116.691V114.669L62.036 126.801V125.453L41.759 113.32V111.298L62.036 123.431V80.9668L35 64.79V128.486L62.036 144.663ZM38.3795 70.8563L58.6565 82.9889V85.6851L38.3795 73.5525V70.8563Z" fill="#1E3D89" fill-opacity="0.8"/>
</g>
<path fill-rule="evenodd" clip-rule="evenodd" d="M65.4155 70.1823L119.488 39.1768V111.298L65.4155 142.304V70.1823ZM62.036 72.2044L64.7396 70.6878V78.6077L62.036 80.1243V72.2044ZM64.7396 137.417L62.036 138.934V144.663L64.7396 142.978V137.417ZM62.036 125.453L64.7396 123.936V125.285L62.036 126.801V125.453ZM64.7396 127.307L62.036 128.823V130.171L64.7396 128.655V127.307ZM62.036 132.193L64.7396 130.677V132.025L62.036 133.541V132.193ZM64.7396 134.047L62.036 135.564V136.912L64.7396 135.395V134.047ZM62.036 80.9668L64.7396 79.4503V121.914L62.036 123.431V80.9668Z" fill="#1E3B89"/>
<defs>
<filter id="filter0_b_54_1644" x="-100" y="-24" width="284.488" height="315.934" filterUnits="userSpaceOnUse" color-interpolation-filters="sRGB">
<feFlood flood-opacity="0" result="BackgroundImageFix"/>
<feGaussianBlur in="BackgroundImageFix" stdDeviation="50"/>
<feComposite in2="SourceAlpha" operator="in" result="effect1_backgroundBlur_54_1644"/>
<feBlend mode="normal" in="SourceGraphic" in2="effect1_backgroundBlur_54_1644" result="shape"/>
</filter>
<filter id="filter1_b_54_1644" x="-100" y="9.02762" width="227.036" height="288.635" filterUnits="userSpaceOnUse" color-interpolation-filters="sRGB">
<feFlood flood-opacity="0" result="BackgroundImageFix"/>
<feGaussianBlur in="BackgroundImageFix" stdDeviation="50"/>
<feComposite in2="SourceAlpha" operator="in" result="effect1_backgroundBlur_54_1644"/>
<feBlend mode="normal" in="SourceGraphic" in2="effect1_backgroundBlur_54_1644" result="shape"/>
</filter>
<filter id="filter2_b_54_1644" x="-100" y="-100" width="284.488" height="315.934" filterUnits="userSpaceOnUse" color-interpolation-filters="sRGB">
<feFlood flood-opacity="0" result="BackgroundImageFix"/>
<feGaussianBlur in="BackgroundImageFix" stdDeviation="50"/>
<feComposite in2="SourceAlpha" operator="in" result="effect1_backgroundBlur_54_1644"/>
<feBlend mode="normal" in="SourceGraphic" in2="effect1_backgroundBlur_54_1644" result="shape"/>
</filter>
<filter id="filter3_b_54_1644" x="-100" y="-66.9724" width="227.036" height="288.635" filterUnits="userSpaceOnUse" color-interpolation-filters="sRGB">
<feFlood flood-opacity="0" result="BackgroundImageFix"/>
<feGaussianBlur in="BackgroundImageFix" stdDeviation="50"/>
<feComposite in2="SourceAlpha" operator="in" result="effect1_backgroundBlur_54_1644"/>
<feBlend mode="normal" in="SourceGraphic" in2="effect1_backgroundBlur_54_1644" result="shape"/>
</filter>
<filter id="filter4_b_54_1644" x="-65" y="-1" width="284.488" height="315.934" filterUnits="userSpaceOnUse" color-interpolation-filters="sRGB">
<feFlood flood-opacity="0" result="BackgroundImageFix"/>
<feGaussianBlur in="BackgroundImageFix" stdDeviation="50"/>
<feComposite in2="SourceAlpha" operator="in" result="effect1_backgroundBlur_54_1644"/>
<feBlend mode="normal" in="SourceGraphic" in2="effect1_backgroundBlur_54_1644" result="shape"/>
</filter>
<filter id="filter5_b_54_1644" x="-65" y="32.0276" width="227.036" height="288.635" filterUnits="userSpaceOnUse" color-interpolation-filters="sRGB">
<feFlood flood-opacity="0" result="BackgroundImageFix"/>
<feGaussianBlur in="BackgroundImageFix" stdDeviation="50"/>
<feComposite in2="SourceAlpha" operator="in" result="effect1_backgroundBlur_54_1644"/>
<feBlend mode="normal" in="SourceGraphic" in2="effect1_backgroundBlur_54_1644" result="shape"/>
</filter>
<filter id="filter6_b_54_1644" x="-65" y="-77" width="284.488" height="315.934" filterUnits="userSpaceOnUse" color-interpolation-filters="sRGB">
<feFlood flood-opacity="0" result="BackgroundImageFix"/>
<feGaussianBlur in="BackgroundImageFix" stdDeviation="50"/>
<feComposite in2="SourceAlpha" operator="in" result="effect1_backgroundBlur_54_1644"/>
<feBlend mode="normal" in="SourceGraphic" in2="effect1_backgroundBlur_54_1644" result="shape"/>
</filter>
<filter id="filter7_b_54_1644" x="-65" y="-43.9724" width="227.036" height="288.635" filterUnits="userSpaceOnUse" color-interpolation-filters="sRGB">
<feFlood flood-opacity="0" result="BackgroundImageFix"/>
<feGaussianBlur in="BackgroundImageFix" stdDeviation="50"/>
<feComposite in2="SourceAlpha" operator="in" result="effect1_backgroundBlur_54_1644"/>
<feBlend mode="normal" in="SourceGraphic" in2="effect1_backgroundBlur_54_1644" result="shape"/>
</filter>
</defs>
</svg>
