<svg width="199" height="211" viewBox="0 0 199 211" fill="none" xmlns="http://www.w3.org/2000/svg">
<path opacity="0.9" fill-rule="evenodd" clip-rule="evenodd" d="M45 176.511V69.8066L5 45.8729L5 152.577L45 176.511Z" fill="#1E3B89"/>
<path fill-rule="evenodd" clip-rule="evenodd" d="M5 70.8039V74.7928L10.3333 71.8011L5 70.8039ZM10 133.63V130.638L14 131.386L10 133.63ZM10 138.616V135.624L14 136.372L10 138.616ZM10 148.588V145.597L14 146.345L10 148.588ZM10 150.583V153.575L14 151.331L10 150.583ZM10 143.602V140.61L14 141.358L10 143.602Z" fill="#1E3B89"/>
<g filter="url(#filter0_b_54_1645)">
<path fill-rule="evenodd" clip-rule="evenodd" d="M45 69.8066L5 45.8729L85 0L125 23.9337L45 69.8066ZM44 83.5186L40 85.7624L0 61.8287L4 59.5849L44 83.5186ZM40 151.58L44 149.336L14 131.386L10 133.63L40 151.58ZM44 159.309L40 161.552L10 143.602L14 141.358L44 159.309ZM40 156.566L44 154.323L14 136.372L10 138.616L40 156.566ZM44 164.295L40 166.539L10 148.588L14 146.345L44 164.295ZM40 171.525L44 169.281L14 151.331L10 153.575L40 171.525ZM39 90.4993L35 92.7431L5 74.7928L9 72.549L39 90.4993ZM40 72.7983L44 70.5546L4 46.6209L0 48.8646L40 72.7983Z" fill="#1E3C89" fill-opacity="0.7"/>
</g>
<g filter="url(#filter1_b_54_1645)">
<path fill-rule="evenodd" clip-rule="evenodd" d="M40 72.7983V84.5159L0 60.5822V48.8646L40 72.7983ZM40 180.001V171.525L10 153.575V150.583L40 168.533V166.539L10 148.588V145.597L40 163.547V161.552L10 143.602V140.61L40 158.81V156.566L10 138.616V135.624L40 153.575V151.58L10 133.63V130.638L40 148.588V85.7624L0 61.8287V156.068L40 180.001ZM5 70.8039L35 88.7541V92.7431L5 74.7928V70.8039Z" fill="#1E3D89" fill-opacity="0.8"/>
</g>
<path fill-rule="evenodd" clip-rule="evenodd" d="M45 69.8066L125 23.9337V130.638L45 176.511V69.8066ZM40 72.7984L44 70.5546V82.2721L40 84.5159V72.7984ZM44 169.281L40 171.525V180.001L44 177.508V169.281ZM40 151.58L44 149.336V151.331L40 153.575V151.58ZM44 154.323L40 156.566V158.561L44 156.317V154.323ZM40 161.553L44 159.309V161.303L40 163.547V161.553ZM44 164.295L40 166.539V168.533L44 166.289V164.295ZM40 85.7624L44 83.5187V146.345L40 148.588V85.7624Z" fill="#1E3B89"/>
<path fill-rule="evenodd" clip-rule="evenodd" d="M171.794 164.782V170.257L168.194 172.254V164.084C161.256 162.822 156.888 163.048 154.317 164.526C152.522 165.559 151.756 166.813 150.911 169.705L157.386 165.893L158.794 166.662V169.658L148.673 175.616C148.496 175.857 148.303 176.089 148.089 176.32L147.652 176.786C142.194 182.553 139.168 183.327 132.168 179.693L131.371 179.269C129.999 178.523 127.227 176.941 126.683 176.631L126.59 176.578C125.085 175.746 124.103 175.313 123.145 175.095C121.118 174.633 119.059 175.169 115.183 177.201L114.811 176.494L115.449 176.165C119.081 174.322 121.189 173.829 123.323 174.316C124.24 174.525 125.152 174.902 126.414 175.573L127.005 175.895L127.1 175.949L127.101 175.949L127.104 175.951L127.108 175.953C127.457 176.153 128.455 176.722 129.499 177.311L131.135 178.228C131.397 178.373 131.637 178.505 131.84 178.614L131.985 178.693C138.719 182.301 141.456 181.953 146.354 176.981L139.795 180.842V176.249L149.917 170.29L150.017 169.921C150.969 166.524 151.8 165.053 153.918 163.834C156.67 162.252 161.167 162.008 168.194 163.272V109.742L171.794 107.744V163.968L171.991 164.007C193.007 168.165 196.269 169.822 198.572 176.721C200.277 181.83 192.17 188.105 174.352 195.788L174.035 195.055C191.415 187.56 199.307 181.452 197.813 176.974L197.675 176.573C195.5 170.389 192.107 168.798 171.794 164.782ZM145.395 198.817L124.796 210.601V206.406L145.395 192.226V198.817ZM170.594 198.418C167.994 200.015 164.994 203.011 162.794 206.007C160.594 209.003 162.994 209.402 164.194 208.603C165.394 207.804 177.193 201.014 177.193 201.014C177.193 201.014 179.393 200.015 179.593 198.418C179.793 196.82 177.793 195.222 175.593 196.021C175.378 196.099 175.182 196.17 175.001 196.235C173.331 196.835 172.939 196.976 170.594 198.418Z" fill="#1E3B89"/>
<g filter="url(#filter2_b_54_1645)">
<path fill-rule="evenodd" clip-rule="evenodd" d="M171.794 107.744L103.798 68L100.198 69.9972L168.194 109.742L171.794 107.744ZM158.794 165.064L123.596 144.693L104.598 155.877L139.795 176.249L158.794 165.064ZM145.395 192.226L83.5988 156.077L63 170.257L124.796 206.406L145.395 192.226ZM157.297 205.829C155.826 204.947 155.401 203.022 156.455 201.67C158.413 199.159 161.643 195.46 164.794 193.824C169.794 191.228 172.194 192.626 172.194 192.626L178.593 196.42C178.593 196.42 175.793 194.823 169.994 198.817C164.194 202.811 162.594 209.003 162.594 209.003L157.297 205.829Z" fill="#1E3C89" fill-opacity="0.7"/>
</g>
<g filter="url(#filter3_b_54_1645)">
<path fill-rule="evenodd" clip-rule="evenodd" d="M100.198 69.9972V132.51L168.194 172.254V109.742L100.198 69.9972ZM104.598 160.471L139.795 180.842V176.249L104.598 155.877V160.471ZM63 174.451L124.796 210.601V206.406L63 170.257V174.451Z" fill="#1E3D89" fill-opacity="0.8"/>
</g>
<path opacity="0.9" fill-rule="evenodd" clip-rule="evenodd" d="M124.196 160.007L135.396 166.662V153.081L124.196 146.426V160.007Z" fill="#1E3C89" fill-opacity="0.7"/>
<path fill-rule="evenodd" clip-rule="evenodd" d="M141.795 159.203L135.396 166.662V153.081L141.795 156.876V159.203Z" fill="#1E3B89"/>
<path fill-rule="evenodd" clip-rule="evenodd" d="M106.597 131.711L162.994 164.665V111.14L106.597 78.7849L106.597 131.711Z" fill="white"/>
<path fill-rule="evenodd" clip-rule="evenodd" d="M106.997 129.514V78.9846L104.598 77.5866V130.912L106.997 129.514Z" fill="#1E3B89"/>
<g filter="url(#filter4_b_54_1645)">
<path fill-rule="evenodd" clip-rule="evenodd" d="M106.997 129.514L162.994 162.268V164.865L104.598 130.912L106.997 129.514Z" fill="#1E3C89" fill-opacity="0.7"/>
</g>
<defs>
<filter id="filter0_b_54_1645" x="-100" y="-100" width="325" height="371.525" filterUnits="userSpaceOnUse" color-interpolation-filters="sRGB">
<feFlood flood-opacity="0" result="BackgroundImageFix"/>
<feGaussianBlur in="BackgroundImageFix" stdDeviation="50"/>
<feComposite in2="SourceAlpha" operator="in" result="effect1_backgroundBlur_54_1645"/>
<feBlend mode="normal" in="SourceGraphic" in2="effect1_backgroundBlur_54_1645" result="shape"/>
</filter>
<filter id="filter1_b_54_1645" x="-100" y="-51.1354" width="240" height="331.137" filterUnits="userSpaceOnUse" color-interpolation-filters="sRGB">
<feFlood flood-opacity="0" result="BackgroundImageFix"/>
<feGaussianBlur in="BackgroundImageFix" stdDeviation="50"/>
<feComposite in2="SourceAlpha" operator="in" result="effect1_backgroundBlur_54_1645"/>
<feBlend mode="normal" in="SourceGraphic" in2="effect1_backgroundBlur_54_1645" result="shape"/>
</filter>
<filter id="filter2_b_54_1645" x="-72.9141" y="-67.9141" width="387.421" height="412.831" filterUnits="userSpaceOnUse" color-interpolation-filters="sRGB">
<feFlood flood-opacity="0" result="BackgroundImageFix"/>
<feGaussianBlur in="BackgroundImageFix" stdDeviation="67.957"/>
<feComposite in2="SourceAlpha" operator="in" result="effect1_backgroundBlur_54_1645"/>
<feBlend mode="normal" in="SourceGraphic" in2="effect1_backgroundBlur_54_1645" result="shape"/>
</filter>
<filter id="filter3_b_54_1645" x="-72.9141" y="-65.9169" width="377.022" height="412.432" filterUnits="userSpaceOnUse" color-interpolation-filters="sRGB">
<feFlood flood-opacity="0" result="BackgroundImageFix"/>
<feGaussianBlur in="BackgroundImageFix" stdDeviation="67.957"/>
<feComposite in2="SourceAlpha" operator="in" result="effect1_backgroundBlur_54_1645"/>
<feBlend mode="normal" in="SourceGraphic" in2="effect1_backgroundBlur_54_1645" result="shape"/>
</filter>
<filter id="filter4_b_54_1645" x="-31.3166" y="-6.40012" width="330.225" height="307.179" filterUnits="userSpaceOnUse" color-interpolation-filters="sRGB">
<feFlood flood-opacity="0" result="BackgroundImageFix"/>
<feGaussianBlur in="BackgroundImageFix" stdDeviation="67.957"/>
<feComposite in2="SourceAlpha" operator="in" result="effect1_backgroundBlur_54_1645"/>
<feBlend mode="normal" in="SourceGraphic" in2="effect1_backgroundBlur_54_1645" result="shape"/>
</filter>
</defs>
</svg>
