<svg width="120" height="89" viewBox="0 0 120 89" fill="none" xmlns="http://www.w3.org/2000/svg">
<g filter="url(#filter0_b_53_1573)">
<ellipse cx="60" cy="35" rx="60" ry="35" fill="#265B6E" fill-opacity="0.7"/>
</g>
<path fill-rule="evenodd" clip-rule="evenodd" d="M0 35C0 53.75 26.1905 70 60 70C88.75 70.1428 119.25 57 120 35C120 41.8959 120 50.9072 120 55.8956C120 58.352 119.451 60.7712 118.053 62.7912C112.802 70.3809 96.2264 89 60 89C23.7736 89 7.19837 70.3809 1.9467 62.7912C0.548938 60.7712 0 58.3578 0 55.9013C0 49.8141 0 38.1044 0 35Z" fill="#265B6E"/>
<g filter="url(#filter1_d_53_1573)">
<path fill-rule="evenodd" clip-rule="evenodd" d="M99 11V26.75H91V20L77.25 27.75C77.25 27.75 73.75 29.25 70.25 29.25C66.75 29.25 62.75 27.75 62.75 27.75L52 21.5L58.25 17.5L66.75 22.25C66.75 22.25 68 23 70 23C72 23 74.25 21.5 74.25 21.5L84 16H72.25V11H99ZM20 57.25V41.5H28V48.25L41.75 40.5C41.75 40.5 45.25 39 48.75 39C52.25 39 56.25 40.5 56.25 40.5L67 46.75L60.75 50.75L52.25 46C52.25 46 51 45.25 49 45.25C47 45.25 44.75 46.75 44.75 46.75L35 52.25H46.75V57.25H20ZM20 11V26.5H28.25V19.5L40.25 26.5C40.25 26.5 41.25 27 41.25 27.75C41.25 28.5 39.75 29.25 39.75 29.25L31.5 34.25L38 38.25L49 31.5C49 31.5 50.5 30.25 50.5 28C50.5 25.75 48.5 24 48.5 24L35.25 15.75H46.75V11H20ZM98.5 41.75V57.25H71.75V52.5H83.25L70 44.25C70 44.25 68 42.5 68 40.25C68 38 69.5 36.75 69.5 36.75L80.5 30L87 34L78.75 39C78.75 39 77.25 39.75 77.25 40.5C77.25 41.25 78.25 41.75 78.25 41.75L90.25 48.75V41.75H98.5Z" fill="white"/>
</g>
<path d="M47.3287 85H45.2987V74.752H47.3287V85ZM52.9966 74.752C53.8086 74.752 54.518 74.892 55.1246 75.172C55.7313 75.452 56.198 75.8487 56.5246 76.362C56.8606 76.866 57.0286 77.4587 57.0286 78.14C57.0286 78.812 56.8606 79.4047 56.5246 79.918C56.198 80.422 55.7313 80.814 55.1246 81.094C54.518 81.3647 53.8086 81.5 52.9966 81.5H51.4986V85H49.4686V74.752H52.9966ZM52.7726 79.778C53.4073 79.778 53.916 79.6427 54.2986 79.372C54.6813 79.092 54.8726 78.6813 54.8726 78.14C54.8726 77.5987 54.6813 77.188 54.2986 76.908C53.916 76.6187 53.4073 76.474 52.7726 76.474H51.4986V79.778H52.7726ZM59.6534 77.748L61.5294 82.536L63.2794 77.748H65.3094L62.2434 84.986H60.6614L57.4974 77.748H59.6534ZM70.0191 78.476C70.6538 78.476 71.2184 78.616 71.7131 78.896C72.2078 79.1667 72.5904 79.5493 72.8611 80.044C73.1318 80.5387 73.2671 81.1033 73.2671 81.738C73.2671 82.4007 73.1038 82.9933 72.7771 83.516C72.4598 84.0387 72.0211 84.4447 71.4611 84.734C70.9104 85.0233 70.3084 85.168 69.6551 85.168C68.9831 85.168 68.3718 85.0233 67.8211 84.734C67.2704 84.4353 66.8364 84.02 66.5191 83.488C66.2018 82.956 66.0431 82.34 66.0431 81.64C66.0431 81.1173 66.1411 80.618 66.3371 80.142C66.5331 79.6567 66.8784 79.022 67.3731 78.238L69.5851 74.738H71.7831L69.7811 77.818C69.6224 78.07 69.4498 78.322 69.2631 78.574C69.4871 78.5087 69.7391 78.476 70.0191 78.476ZM69.6411 83.348C70.0798 83.348 70.4344 83.2033 70.7051 82.914C70.9758 82.6153 71.1111 82.2327 71.1111 81.766C71.1111 81.2993 70.9758 80.9213 70.7051 80.632C70.4344 80.3333 70.0798 80.184 69.6411 80.184C69.1931 80.184 68.8338 80.3333 68.5631 80.632C68.2924 80.9213 68.1571 81.2993 68.1571 81.766C68.1571 82.242 68.2924 82.6247 68.5631 82.914C68.8431 83.2033 69.2024 83.348 69.6411 83.348Z" fill="white"/>
<defs>
<filter id="filter0_b_53_1573" x="-100" y="-100" width="320" height="270" filterUnits="userSpaceOnUse" color-interpolation-filters="sRGB">
<feFlood flood-opacity="0" result="BackgroundImageFix"/>
<feGaussianBlur in="BackgroundImageFix" stdDeviation="50"/>
<feComposite in2="SourceAlpha" operator="in" result="effect1_backgroundBlur_53_1573"/>
<feBlend mode="normal" in="SourceGraphic" in2="effect1_backgroundBlur_53_1573" result="shape"/>
</filter>
<filter id="filter1_d_53_1573" x="20" y="11" width="79" height="48.25" filterUnits="userSpaceOnUse" color-interpolation-filters="sRGB">
<feFlood flood-opacity="0" result="BackgroundImageFix"/>
<feColorMatrix in="SourceAlpha" type="matrix" values="0 0 0 0 0 0 0 0 0 0 0 0 0 0 0 0 0 0 127 0" result="hardAlpha"/>
<feOffset dy="2"/>
<feComposite in2="hardAlpha" operator="out"/>
<feColorMatrix type="matrix" values="0 0 0 0 0.14902 0 0 0 0 0.356863 0 0 0 0 0.431373 0 0 0 1 0"/>
<feBlend mode="normal" in2="BackgroundImageFix" result="effect1_dropShadow_53_1573"/>
<feBlend mode="normal" in="SourceGraphic" in2="effect1_dropShadow_53_1573" result="shape"/>
</filter>
</defs>
</svg>
