<svg width="153" height="180" viewBox="0 0 153 180" fill="none" xmlns="http://www.w3.org/2000/svg">
<path opacity="0.9" fill-rule="evenodd" clip-rule="evenodd" d="M85 178V86L4 40L4 132L85 178Z" fill="#171717"/>
<g filter="url(#filter0_b_56_1459)">
<path fill-rule="evenodd" clip-rule="evenodd" d="M153 47L85 86L4 40L72 0L153 47ZM35 59L32 61L0 42L3.25 40.5L35 59ZM35 71L32 73L0 54L3.25 52.5L35 71ZM32 85L35 83L3.25 64.5L0 66L32 85ZM79 133L81 132L49 114L47 115L79 133ZM84 111L81 113L45 92L48.25 90.5L84 111ZM79 149L81 148L49 130L47 131L79 149ZM79 141L81 140L49 122L47 123L79 141ZM84 99L81 101L45 80L48.25 78.5L84 99ZM79 157L81 156L49 138L47 139L79 157ZM79 169L81 168L49 150L47 151L79 169ZM84 87L81 89L45 68L48.25 66.5L84 87ZM79 137L81 136L49 118L47 119L79 137ZM79 153L81 152L49 134L47 135L79 153ZM81 164L79 165L47 147L49 146L81 164ZM79 145L81 144L49 126L47 127L79 145ZM81 160L79 161L47 143L49 142L81 160ZM79 129L81 128L49 110L47 111L79 129Z" fill="#171717" fill-opacity="0.7"/>
</g>
<g filter="url(#filter1_b_56_1459)">
<path fill-rule="evenodd" clip-rule="evenodd" d="M32 72V61L0 42V53L32 72ZM32 84V73L0 54V65L32 84ZM32 85V151.75L0 132.75V66L32 85ZM81 180V113L45 92V158.75L81 180ZM47 109L79 127V129L47 111V109ZM47 125L79 143V145L47 127V125ZM79 159L47 141V143L79 161V159ZM47 117L79 135V137L47 119V117ZM79 151L47 133V135L79 153V151ZM47 149L79 167V169L47 151V149ZM79 131L47 113V115L79 133V131ZM47 129L79 147V149L47 131V129ZM79 163L47 145V147L79 165V163ZM47 121L79 139V141L47 123V121ZM79 155L47 137V139L79 157V155ZM81 101V112L45 91V80L81 101ZM81 89V100L45 79V68L81 89Z" fill="#171717" fill-opacity="0.8"/>
</g>
<path fill-rule="evenodd" clip-rule="evenodd" d="M153 47L85 86V178L153 138.614V47ZM35 59L32 61V72L35 70V59ZM35 71L32 73V84L35 82V71ZM32 85L35 83V150L32 151.75V85ZM81 113L84 111V178.25L81 180V113ZM81 101L84 99V110L81 112V101ZM81 89L84 87V98L81 100V89ZM49 110L47 109V111L49 110ZM49 126L47 125V127L49 126ZM47 117L49 118L47 119V117ZM49 134L47 133V135L49 134ZM47 145L49 146L47 147V145ZM49 114L47 113V115L49 114ZM47 129L49 130L47 131V129ZM49 142L47 141V143L49 142ZM47 121L49 122L47 123V121ZM49 138L47 137V139L49 138ZM47 149L49 150L47 151V149Z" fill="#171717"/>
<g filter="url(#filter2_b_56_1459)">
<path fill-rule="evenodd" clip-rule="evenodd" d="M99 101L105 97.25L107 101L106 102L105 102.25L132 118.25V122.25L131 123.25L105.75 106.75L107.5 110L106.5 111L105.113 111.462L107 115L106 116L105 116.25L132 132.25V136.25L131 137.25L105.75 120.75L107.5 124L106.5 125L105 125.5L98 116L99 115L104.874 111.329L98 102L99 101ZM99 130L105 126.25L107 130L106 131L105 131.25L132 147.25V151.25L131 152.25L105.75 135.75L107.5 139L106.5 140L105.113 140.462L107 144L106 145L105 145.25L132 161.25V165.25L131 166.25L105.75 149.75L107.5 153L106.5 154L105 154.5L98 145L99 144L104.874 140.329L98 131L99 130Z" fill="white" fill-opacity="0.5"/>
</g>
<path fill-rule="evenodd" clip-rule="evenodd" d="M132 118.25L131 119.25V123.25L132 122.25V118.25ZM131 133.25L132 132.25V136.25L131 137.25V133.25ZM132 147.25L131 148.25V152.25L132 151.25V147.25ZM132 161.25L131 162.25V166.25L132 165.25V161.25Z" fill="#171717"/>
<g filter="url(#filter3_b_56_1459)">
<path fill-rule="evenodd" clip-rule="evenodd" d="M98 102L104 98.25L106 102L104 103.25L131 119.25V123.25L104.75 107.75L106.5 111L104.101 112.439L106 116L104 117.25L131 133.25V137.25L104.75 121.75L106.5 125L104 126.5L98 116L103.895 112.316L98 102ZM98 131L104 127.25L106 131L104 132.25L131 148.25V152.25L104.75 136.75L106.5 140L104.101 141.439L106 145L104 146.25L131 162.25V166.25L104.75 150.75L106.5 154L104 155.5L98 145L103.895 141.316L98 131Z" fill="#171717" fill-opacity="0.7"/>
</g>
<defs>
<filter id="filter0_b_56_1459" x="-100" y="-100" width="353" height="369" filterUnits="userSpaceOnUse" color-interpolation-filters="sRGB">
<feFlood flood-opacity="0" result="BackgroundImageFix"/>
<feGaussianBlur in="BackgroundImageFix" stdDeviation="50"/>
<feComposite in2="SourceAlpha" operator="in" result="effect1_backgroundBlur_56_1459"/>
<feBlend mode="normal" in="SourceGraphic" in2="effect1_backgroundBlur_56_1459" result="shape"/>
</filter>
<filter id="filter1_b_56_1459" x="-135.914" y="-93.9141" width="352.828" height="409.828" filterUnits="userSpaceOnUse" color-interpolation-filters="sRGB">
<feFlood flood-opacity="0" result="BackgroundImageFix"/>
<feGaussianBlur in="BackgroundImageFix" stdDeviation="67.957"/>
<feComposite in2="SourceAlpha" operator="in" result="effect1_backgroundBlur_56_1459"/>
<feBlend mode="normal" in="SourceGraphic" in2="effect1_backgroundBlur_56_1459" result="shape"/>
</filter>
<filter id="filter2_b_56_1459" x="48" y="47.25" width="134" height="169" filterUnits="userSpaceOnUse" color-interpolation-filters="sRGB">
<feFlood flood-opacity="0" result="BackgroundImageFix"/>
<feGaussianBlur in="BackgroundImageFix" stdDeviation="25"/>
<feComposite in2="SourceAlpha" operator="in" result="effect1_backgroundBlur_56_1459"/>
<feBlend mode="normal" in="SourceGraphic" in2="effect1_backgroundBlur_56_1459" result="shape"/>
</filter>
<filter id="filter3_b_56_1459" x="-37.9141" y="-37.6641" width="304.828" height="339.828" filterUnits="userSpaceOnUse" color-interpolation-filters="sRGB">
<feFlood flood-opacity="0" result="BackgroundImageFix"/>
<feGaussianBlur in="BackgroundImageFix" stdDeviation="67.957"/>
<feComposite in2="SourceAlpha" operator="in" result="effect1_backgroundBlur_56_1459"/>
<feBlend mode="normal" in="SourceGraphic" in2="effect1_backgroundBlur_56_1459" result="shape"/>
</filter>
</defs>
</svg>
