<svg width="121" height="88" viewBox="0 0 121 88" fill="none" xmlns="http://www.w3.org/2000/svg">
<path fill-rule="evenodd" clip-rule="evenodd" d="M0 35L60.25 70V88L0 53V35Z" fill="#171717" fill-opacity="0.8"/>
<g filter="url(#filter0_b_53_1582)">
<path fill-rule="evenodd" clip-rule="evenodd" d="M60 0L120.25 35L60.25 70L0 35L60 0Z" fill="#171717" fill-opacity="0.7"/>
</g>
<path fill-rule="evenodd" clip-rule="evenodd" d="M120.25 35L60 70V88L120.25 53V35Z" fill="#171717"/>
<g filter="url(#filter1_d_53_1582)">
<path fill-rule="evenodd" clip-rule="evenodd" d="M61.6216 7L46.6528 15.75L51.3929 18.75L58.1289 14.75V23.1302C51.6114 23.755 46.3404 26.5689 44.5581 30.25H30.1871L36.4241 26.75L32.183 23.75L16.9647 32.75L32.183 41.75L36.4241 39L30.1871 35H44.2479C45.6408 39.0449 51.1755 42.2032 58.1289 42.8698V51L51.3929 46.5L46.6528 49.75L61.6216 59.5L78.0873 49.75L73.0977 46.5L65.1143 51V42.685C71.3558 41.738 76.2071 38.75 77.4985 35H90.8108L84.3243 39L88.815 41.75L104.283 32.75L89.3139 23.75L84.8233 26.75L90.8108 30.25H77.1883C75.5446 26.8552 70.9337 24.1979 65.1143 23.315V14.75L73.0977 18.75L78.0873 15.75L61.6216 7ZM60.8732 38C66.3845 38 70.8524 35.5376 70.8524 32.5C70.8524 29.4624 66.3845 27 60.8732 27C55.3618 27 50.894 29.4624 50.894 32.5C50.894 35.5376 55.3618 38 60.8732 38Z" fill="white"/>
</g>
<path d="M12.5416 46.6989L18.3218 50.0433L18.3219 51.8213L14.2988 49.4935L14.2988 52.1115L17.8978 54.1939L17.8979 55.9579L14.2989 53.8755L14.299 57.9635L12.5419 56.9469L12.5416 46.6989ZM22.5923 55.3281C22.8347 55.4684 23.0609 55.6412 23.2709 55.8468C23.4809 56.0523 23.6425 56.2531 23.7556 56.4492L23.1013 57.5686C22.8913 57.2791 22.6529 57.0572 22.3864 56.9029C21.9501 56.6505 21.5987 56.6572 21.3321 56.9229C21.0736 57.1934 20.9444 57.6973 20.9444 58.4346L20.9445 61.8086L19.2601 60.834L19.2599 53.582L20.7383 54.4374C20.7787 55.0208 20.8151 55.4245 20.8474 55.6485C21.0332 55.3173 21.2755 55.1262 21.5744 55.0752C21.8733 55.0241 22.2126 55.1084 22.5923 55.3281ZM26.6236 57.6606C27.4718 58.1514 28.1343 58.8147 28.6109 59.6504C29.0876 60.4769 29.3259 61.4034 29.3259 62.4301L29.3261 66.6581L27.9083 65.8378C27.9002 65.7585 27.8881 65.6301 27.8719 65.4528C27.8638 65.2708 27.8477 65.1074 27.8234 64.9627C27.6376 65.1912 27.3953 65.303 27.0964 65.298C26.8056 65.2884 26.4501 65.1621 26.03 64.919C25.5938 64.6666 25.1939 64.3466 24.8304 63.9589C24.4749 63.5759 24.1921 63.1557 23.9821 62.6981C23.772 62.2313 23.667 61.7645 23.667 61.2978C23.667 60.8125 23.7841 60.4603 24.0184 60.2412C24.2607 60.0174 24.5838 59.9244 24.9878 59.9621C25.3917 59.9998 25.836 60.1589 26.3207 60.4393C26.7569 60.6917 27.2053 61.0351 27.6658 61.4696C27.6415 60.3822 27.2457 59.6165 26.4782 59.1725C25.8642 58.8172 25.4159 58.8751 25.1331 59.3462L23.9335 57.8541C24.1596 57.4436 24.507 57.2199 24.9756 57.1831C25.4441 57.1368 25.9934 57.296 26.6236 57.6606ZM27.6658 62.7576C27.2619 62.4119 26.9105 62.1525 26.6116 61.9796C26.2157 61.7505 25.9087 61.6569 25.6906 61.6987C25.4725 61.7312 25.3635 61.8967 25.3635 62.1954C25.3635 62.4661 25.4483 62.7252 25.618 62.9727C25.7957 63.2248 26.0219 63.4304 26.2966 63.5893C26.6601 63.7996 26.9792 63.8676 27.2539 63.7932C27.5285 63.7094 27.6659 63.4576 27.6658 63.0376L27.6658 62.7576ZM37.8744 64.1703C38.4803 64.5208 38.9731 65.072 39.3528 65.8237C39.7325 66.566 39.9224 67.4318 39.9224 68.4212L39.9225 72.7892L38.2745 71.8356L38.2744 68.1256C38.2743 66.8003 37.9552 65.953 37.317 65.5838C36.9696 65.3828 36.6909 65.4035 36.4809 65.646C36.279 65.8931 36.178 66.3387 36.178 66.9827L36.1781 70.6227L34.5422 69.6762L34.5421 65.9662C34.5421 64.6408 34.2229 63.7935 33.5847 63.4243C33.2374 63.2233 32.9627 63.2464 32.7607 63.4935C32.5588 63.7406 32.4578 64.1862 32.4578 64.8302L32.458 68.4702L30.8099 67.5167L30.8097 60.2647L32.2517 61.099C32.2921 61.6544 32.3245 62.0278 32.3487 62.2191C32.7607 61.6268 33.3585 61.5574 34.1421 62.0108C34.5622 62.2538 34.9298 62.5925 35.2448 63.0268C35.5599 63.4611 35.7982 63.9723 35.9598 64.5605C36.1618 64.164 36.4283 63.9403 36.7596 63.8892C37.0908 63.8382 37.4624 63.9319 37.8744 64.1703ZM44.1881 67.8233C44.7455 68.1459 45.2383 68.5756 45.6664 69.1127C46.1027 69.6451 46.438 70.2404 46.6723 70.8987C46.9146 71.5522 47.0358 72.215 47.0358 72.887C47.0359 73.1857 47.0116 73.475 46.9632 73.7549L42.7946 71.343C42.8674 71.9264 43.037 72.4353 43.3036 72.8695C43.5702 73.2944 43.9015 73.6214 44.2973 73.8504C44.5801 74.014 44.8305 74.0889 45.0486 74.0751C45.2748 74.0567 45.4485 73.9378 45.5696 73.7186L46.8057 75.2738C46.6361 75.7076 46.3089 75.929 45.8242 75.9379C45.3476 75.9514 44.8144 75.7876 44.2246 75.4464C43.6591 75.1192 43.134 74.6707 42.6493 74.1009C42.1646 73.5311 41.7728 72.8704 41.4738 72.1188C41.183 71.3719 41.0376 70.5924 41.0375 69.7804C41.0375 68.9777 41.1829 68.3759 41.4737 67.9748C41.7726 67.5784 42.1604 67.3734 42.637 67.3599C43.1136 67.3463 43.6306 67.5008 44.1881 67.8233ZM44.1396 69.3773C43.8084 69.1856 43.5257 69.1434 43.2914 69.2505C43.0571 69.3576 42.8996 69.6071 42.8188 69.9991L45.3151 71.4434C45.2828 70.9767 45.1575 70.5636 44.9394 70.204C44.7294 69.8398 44.4628 69.5643 44.1396 69.3773Z" fill="white"/>
<defs>
<filter id="filter0_b_53_1582" x="-135.914" y="-135.914" width="392.078" height="341.828" filterUnits="userSpaceOnUse" color-interpolation-filters="sRGB">
<feFlood flood-opacity="0" result="BackgroundImageFix"/>
<feGaussianBlur in="BackgroundImageFix" stdDeviation="67.957"/>
<feComposite in2="SourceAlpha" operator="in" result="effect1_backgroundBlur_53_1582"/>
<feBlend mode="normal" in="SourceGraphic" in2="effect1_backgroundBlur_53_1582" result="shape"/>
</filter>
<filter id="filter1_d_53_1582" x="16.9647" y="7" width="87.3181" height="54.5" filterUnits="userSpaceOnUse" color-interpolation-filters="sRGB">
<feFlood flood-opacity="0" result="BackgroundImageFix"/>
<feColorMatrix in="SourceAlpha" type="matrix" values="0 0 0 0 0 0 0 0 0 0 0 0 0 0 0 0 0 0 127 0" result="hardAlpha"/>
<feOffset dy="2"/>
<feComposite in2="hardAlpha" operator="out"/>
<feColorMatrix type="matrix" values="0 0 0 0 0.0901961 0 0 0 0 0.0901961 0 0 0 0 0.0901961 0 0 0 1 0"/>
<feBlend mode="normal" in2="BackgroundImageFix" result="effect1_dropShadow_53_1582"/>
<feBlend mode="normal" in="SourceGraphic" in2="effect1_dropShadow_53_1582" result="shape"/>
</filter>
</defs>
</svg>
