<svg width="121" height="88" viewBox="0 0 121 88" fill="none" xmlns="http://www.w3.org/2000/svg">
<path fill-rule="evenodd" clip-rule="evenodd" d="M0 35L60.501 70V88L0 53V35Z" fill="#171717" fill-opacity="0.8"/>
<g filter="url(#filter0_b_53_1590)">
<path fill-rule="evenodd" clip-rule="evenodd" d="M60.25 0L120.751 35L60.501 70L0 35L60.25 0Z" fill="#171717" fill-opacity="0.7"/>
</g>
<path fill-rule="evenodd" clip-rule="evenodd" d="M120.751 35L60.25 70V88L120.751 53V35Z" fill="#171717"/>
<g filter="url(#filter1_d_53_1590)">
<path fill-rule="evenodd" clip-rule="evenodd" d="M57.369 8L51.106 11.75L90.1871 34.75H79.1642V39.25H104.216V24.75H96.7006V31.25L57.369 8ZM23.2983 28L17.0353 31.75L56.1164 54.75H45.0935V59.25H70.1455V44.75H62.6299V51.25L23.2983 28ZM90.1871 47.5L83.9241 51.25L44.5925 28V34.5H37.0769V20H62.1289V24.5H51.106L90.1871 47.5Z" fill="white"/>
</g>
<path d="M120.496 41L121 41.864L60.125 77.259L0 43.1166L0.4956 42.2475L60.118 76.104L120.496 41Z" fill="white"/>
<path d="M120.496 47L121 47.864L60.125 83.259L0 49.1166L0.4956 48.2475L60.118 82.104L120.496 47Z" fill="white"/>
<defs>
<filter id="filter0_b_53_1590" x="-135.914" y="-135.914" width="392.579" height="341.828" filterUnits="userSpaceOnUse" color-interpolation-filters="sRGB">
<feFlood flood-opacity="0" result="BackgroundImageFix"/>
<feGaussianBlur in="BackgroundImageFix" stdDeviation="67.957"/>
<feComposite in2="SourceAlpha" operator="in" result="effect1_backgroundBlur_53_1590"/>
<feBlend mode="normal" in="SourceGraphic" in2="effect1_backgroundBlur_53_1590" result="shape"/>
</filter>
<filter id="filter1_d_53_1590" x="17.0353" y="8" width="87.1808" height="53.25" filterUnits="userSpaceOnUse" color-interpolation-filters="sRGB">
<feFlood flood-opacity="0" result="BackgroundImageFix"/>
<feColorMatrix in="SourceAlpha" type="matrix" values="0 0 0 0 0 0 0 0 0 0 0 0 0 0 0 0 0 0 127 0" result="hardAlpha"/>
<feOffset dy="2"/>
<feComposite in2="hardAlpha" operator="out"/>
<feColorMatrix type="matrix" values="0 0 0 0 0.0901961 0 0 0 0 0.0901961 0 0 0 0 0.0901961 0 0 0 1 0"/>
<feBlend mode="normal" in2="BackgroundImageFix" result="effect1_dropShadow_53_1590"/>
<feBlend mode="normal" in="SourceGraphic" in2="effect1_dropShadow_53_1590" result="shape"/>
</filter>
</defs>
</svg>
