<svg width="121" height="88" viewBox="0 0 121 88" fill="none" xmlns="http://www.w3.org/2000/svg">
<path fill-rule="evenodd" clip-rule="evenodd" d="M0 35L60.25 70V88L0 53V35Z" fill="#171717" fill-opacity="0.8"/>
<g filter="url(#filter0_b_53_1584)">
<path fill-rule="evenodd" clip-rule="evenodd" d="M60 0L120.25 35L60.25 70L0 35L60 0Z" fill="#171717" fill-opacity="0.7"/>
</g>
<path fill-rule="evenodd" clip-rule="evenodd" d="M120.25 35L60 70V88L120.25 53V35Z" fill="#171717"/>
<g filter="url(#filter1_d_53_1584)">
<path fill-rule="evenodd" clip-rule="evenodd" d="M61.6216 7L46.6528 15.75L51.3929 18.75L58.1289 14.75V23.1302C51.6114 23.755 46.3404 26.5689 44.5581 30.25H30.1871L36.4241 26.75L32.183 23.75L16.9647 32.75L32.183 41.75L36.4241 39L30.1871 35H44.2479C45.6408 39.0449 51.1755 42.2032 58.1289 42.8698V51L51.3929 46.5L46.6528 49.75L61.6216 59.5L78.0873 49.75L73.0977 46.5L65.1143 51V42.685C71.3558 41.738 76.2071 38.75 77.4985 35H90.8108L84.3243 39L88.815 41.75L104.283 32.75L89.3139 23.75L84.8233 26.75L90.8108 30.25H77.1883C75.5446 26.8552 70.9337 24.1979 65.1143 23.315V14.75L73.0977 18.75L78.0873 15.75L61.6216 7ZM60.8732 38C66.3845 38 70.8524 35.5376 70.8524 32.5C70.8524 29.4624 66.3845 27 60.8732 27C55.3618 27 50.894 29.4624 50.894 32.5C50.894 35.5376 55.3618 38 60.8732 38Z" fill="white"/>
</g>
<path d="M14.2143 47.6667L21.3638 51.8034L21.3638 53.6094L18.6737 52.0528L18.6739 60.4948L16.9047 59.4712L16.9045 51.0292L14.2143 49.4727L14.2143 47.6667ZM24.4384 56.3963C24.6807 56.5365 24.9069 56.7094 25.117 56.9149C25.327 57.1204 25.4886 57.3212 25.6017 57.5173L24.9474 58.6367C24.7373 58.3472 24.499 58.1253 24.2324 57.9711C23.7962 57.7187 23.4448 57.7253 23.1782 57.9911C22.9197 58.2615 22.7905 58.7654 22.7905 59.5027L22.7906 62.8767L21.1062 61.9021L21.106 54.6501L22.5844 55.5055C22.6248 56.0889 22.6611 56.4926 22.6935 56.7166C22.8792 56.3855 23.1216 56.1944 23.4205 56.1433C23.7194 56.0923 24.0587 56.1766 24.4384 56.3963ZM28.4696 58.7287C29.3179 59.2195 29.9803 59.8828 30.457 60.7186C30.9336 61.545 31.172 62.4716 31.172 63.4982L31.1721 67.7262L29.7544 66.9059C29.7463 66.8266 29.7342 66.6982 29.718 66.5209C29.7099 66.3389 29.6937 66.1755 29.6695 66.0308C29.4837 66.2593 29.2414 66.3711 28.9425 66.3662C28.6516 66.3566 28.2962 66.2302 27.8761 65.9872C27.4399 65.7348 27.04 65.4147 26.6764 65.027C26.321 64.644 26.0382 64.2238 25.8282 63.7663C25.6181 63.2994 25.5131 62.8326 25.5131 62.366C25.513 61.8806 25.6302 61.5284 25.8644 61.3093C26.1068 61.0855 26.4299 60.9925 26.8338 61.0302C27.2378 61.0679 27.6821 61.227 28.1668 61.5074C28.603 61.7598 29.0514 62.1033 29.5119 62.5377C29.4876 61.4503 29.0917 60.6846 28.3243 60.2406C27.7103 59.8853 27.262 59.9433 26.9792 60.4143L25.7795 58.9222C26.0057 58.5118 26.3531 58.2881 26.8216 58.2512C27.2902 58.205 27.8395 58.3641 28.4696 58.7287ZM29.5119 63.8257C29.108 63.48 28.7566 63.2207 28.4577 63.0477C28.0618 62.8187 27.7548 62.7251 27.5367 62.7669C27.3186 62.7993 27.2095 62.9649 27.2095 63.2635C27.2096 63.5342 27.2944 63.7933 27.464 64.0408C27.6418 64.2929 27.868 64.4985 28.1426 64.6574C28.5062 64.8678 28.8253 64.9357 29.0999 64.8613C29.3746 64.7776 29.5119 64.5257 29.5119 64.1057L29.5119 63.8257ZM36.2548 63.2332C36.9495 63.6351 37.4989 64.219 37.9028 64.9847C38.3068 65.7411 38.5087 66.6233 38.5088 67.6313L38.5089 71.9713L36.8245 70.9967L36.8244 67.2867C36.8244 65.9614 36.4447 65.079 35.6853 64.6396C35.2814 64.4059 34.9542 64.3986 34.7038 64.6177C34.4614 64.8322 34.3402 65.266 34.3403 65.9194L34.3404 69.5594L32.656 68.5848L32.6558 61.3328L34.1342 62.1882C34.1746 62.7809 34.2109 63.1893 34.2432 63.4133C34.6471 62.751 35.3177 62.691 36.2548 63.2332ZM44.6225 73.3526C44.6225 74.0713 44.3802 74.5004 43.8955 74.6399C43.4188 74.7748 42.7968 74.6202 42.0293 74.1762C41.3669 73.7929 40.7933 73.2977 40.3086 72.6906C39.8319 72.0881 39.5088 71.4485 39.3391 70.7717L40.563 70.6538C40.6842 71.0692 40.874 71.4498 41.1326 71.7953C41.3911 72.1316 41.694 72.4002 42.0414 72.6012C42.2999 72.7508 42.5059 72.8139 42.6594 72.7908C42.8129 72.7676 42.8896 72.6533 42.8896 72.448C42.8896 72.2146 42.7886 71.9789 42.5867 71.7407C42.3847 71.4932 42.0696 71.1755 41.6415 70.7878C41.2133 70.3907 40.8619 70.0427 40.5872 69.7438C40.3206 69.4496 40.0863 69.1134 39.8843 68.7352C39.6905 68.3523 39.5935 67.9462 39.5935 67.5169C39.5935 67.0316 39.7066 66.677 39.9327 66.4532C40.167 66.2341 40.478 66.1434 40.8658 66.1811C41.2536 66.2188 41.6777 66.3708 42.1382 66.6373C42.7683 67.0019 43.3015 67.469 43.7377 68.0388C44.174 68.5992 44.4487 69.1688 44.5618 69.7475L43.3379 69.8374C43.0955 69.0905 42.6875 68.5511 42.114 68.2192C41.8716 68.079 41.6777 68.0228 41.5323 68.0507C41.3869 68.0692 41.3142 68.1765 41.3142 68.3725C41.3142 68.5965 41.4112 68.8253 41.6051 69.0588C41.7989 69.283 42.1019 69.5796 42.5139 69.9486C42.9502 70.341 43.3096 70.689 43.5924 70.9926C43.8752 71.2962 44.1175 71.6511 44.3195 72.0573C44.5215 72.4542 44.6225 72.8859 44.6225 73.3526Z" fill="white"/>
<defs>
<filter id="filter0_b_53_1584" x="-135.914" y="-135.914" width="392.078" height="341.828" filterUnits="userSpaceOnUse" color-interpolation-filters="sRGB">
<feFlood flood-opacity="0" result="BackgroundImageFix"/>
<feGaussianBlur in="BackgroundImageFix" stdDeviation="67.957"/>
<feComposite in2="SourceAlpha" operator="in" result="effect1_backgroundBlur_53_1584"/>
<feBlend mode="normal" in="SourceGraphic" in2="effect1_backgroundBlur_53_1584" result="shape"/>
</filter>
<filter id="filter1_d_53_1584" x="16.9647" y="7" width="87.3181" height="54.5" filterUnits="userSpaceOnUse" color-interpolation-filters="sRGB">
<feFlood flood-opacity="0" result="BackgroundImageFix"/>
<feColorMatrix in="SourceAlpha" type="matrix" values="0 0 0 0 0 0 0 0 0 0 0 0 0 0 0 0 0 0 127 0" result="hardAlpha"/>
<feOffset dy="2"/>
<feComposite in2="hardAlpha" operator="out"/>
<feColorMatrix type="matrix" values="0 0 0 0 0.0901961 0 0 0 0 0.0901961 0 0 0 0 0.0901961 0 0 0 1 0"/>
<feBlend mode="normal" in2="BackgroundImageFix" result="effect1_dropShadow_53_1584"/>
<feBlend mode="normal" in="SourceGraphic" in2="effect1_dropShadow_53_1584" result="shape"/>
</filter>
</defs>
</svg>
