<svg width="121" height="88" viewBox="0 0 121 88" fill="none" xmlns="http://www.w3.org/2000/svg">
<path fill-rule="evenodd" clip-rule="evenodd" d="M0 35L60.25 70V88L0 53V35Z" fill="#171717" fill-opacity="0.8"/>
<g filter="url(#filter0_b_54_1610)">
<path fill-rule="evenodd" clip-rule="evenodd" d="M60 0L120.25 35L60.25 70L0 35L60 0Z" fill="#171717" fill-opacity="0.7"/>
</g>
<path fill-rule="evenodd" clip-rule="evenodd" d="M120.25 35L60 70V88L120.25 53V35Z" fill="#171717"/>
<g filter="url(#filter1_d_54_1610)">
<path fill-rule="evenodd" clip-rule="evenodd" d="M49.6135 18.3465L60.6237 12L99.2931 34.5L96.7983 36L104.283 40.5L100.79 42.75L93.104 38.1357L90.3118 39.75L98.2952 44.25L94.8025 46.5L86.5696 41.75L84.0748 43.25L91.8087 47.75L88.5655 50.25L80.3326 45.5L67.8586 52.75L75.5925 57.5L71.8503 59.75L64.1164 55L60.6237 57L21.9542 34.5L32.4324 28.25L24.948 23.5L28.4407 21.25L36.5692 25.8655L45.6692 20.6201L37.921 16L41.4137 13.5L49.6135 18.3465ZM29.1892 34.5L60.6237 16.25L91.8087 34.5L60.6237 52.75L29.1892 34.5ZM47.4012 29.4248L61.3809 21.5L77.3388 30.5752L63.491 38.5L47.4012 29.4248ZM52.4128 29.5526L61.3809 24.4398L72.3273 30.703L63.3592 35.688L52.4128 29.5526ZM37.422 33.6975L44.5606 29.5L63.3679 39.9937L56.2294 44.06L37.422 33.6975ZM42.6112 33.8618L44.7401 32.62L58.1788 39.6982L55.7837 40.94L42.6112 33.8618ZM58.3783 45.2434L63.4993 42.323L65.8627 43.9159L77.0237 37.2788L74.5289 35.8186L80.0437 32.5L83.3264 34.6239V36.4823L64.681 47.5L61.7923 47.3673L58.3783 45.2434ZM81.8295 50C82.9318 50 83.8253 49.5523 83.8253 49C83.8253 48.4477 82.9318 48 81.8295 48C80.7272 48 79.8336 48.4477 79.8336 49C79.8336 49.5523 80.7272 50 81.8295 50ZM79.8336 51.25C79.8336 51.8023 78.9401 52.25 77.8378 52.25C76.7355 52.25 75.842 51.8023 75.842 51.25C75.842 50.6977 76.7355 50.25 77.8378 50.25C78.9401 50.25 79.8336 50.6977 79.8336 51.25ZM74.0956 54.5C75.1979 54.5 76.0914 54.0523 76.0914 53.5C76.0914 52.9477 75.1979 52.5 74.0956 52.5C72.9933 52.5 72.0998 52.9477 72.0998 53.5C72.0998 54.0523 72.9933 54.5 74.0956 54.5Z" fill="white"/>
</g>
<path d="M22.161 52.6873C22.8639 53.0939 23.4778 53.5892 24.003 54.173C24.5281 54.7568 24.932 55.3872 25.2148 56.0641C25.5056 56.7364 25.6511 57.4132 25.6511 58.0945C25.6511 58.7665 25.5057 59.275 25.2149 59.6201C24.9322 59.9605 24.5282 60.1188 24.0032 60.095C23.4781 60.0618 22.8641 59.8419 22.1613 59.4353L20.8646 58.685L20.8648 62.185L19.1077 61.1684L19.1074 50.9204L22.161 52.6873ZM21.9673 57.6011C22.5167 57.9189 22.9569 58.0383 23.2881 57.9593C23.6194 57.871 23.785 57.5561 23.7849 57.0148C23.7849 56.4734 23.6193 55.967 23.2881 55.4953C22.9568 55.0143 22.5166 54.6149 21.9672 54.2971L20.8645 53.659L20.8646 56.963L21.9673 57.6011ZM32.2398 63.4467C33.2173 64.4136 33.7061 65.4851 33.7061 66.6611C33.7062 67.5851 33.4113 68.1378 32.8216 68.3192C32.24 68.5054 31.42 68.2923 30.3617 67.6799L26.8233 65.6326L26.823 55.3846L30.0342 57.2426C30.9794 57.7895 31.7469 58.4856 32.3366 59.3308C32.9345 60.1713 33.2334 61.0443 33.2334 61.9496C33.2334 62.8923 32.9022 63.3913 32.2398 63.4467ZM28.5438 58.1442L28.5439 60.5662L29.8647 61.3305C30.3413 61.6063 30.717 61.7116 30.9916 61.6465C31.2744 61.5768 31.4158 61.3506 31.4157 60.9679C31.4157 60.5946 31.2784 60.2305 31.0037 59.8755C30.729 59.5113 30.3493 59.1889 29.8646 58.9085L28.5438 58.1442ZM30.2163 65.8318C30.7494 66.1403 31.1574 66.2644 31.4401 66.204C31.731 66.1482 31.8764 65.915 31.8764 65.5044C31.8763 65.0937 31.7309 64.6876 31.4401 64.286C31.1573 63.889 30.7453 63.534 30.204 63.2208L28.5439 62.2602L28.544 64.8642L30.2163 65.8318ZM42.5845 64.5042L39.4704 67.7003L42.7302 74.8363L40.549 73.5743L38.3919 68.7283L36.223 71.0712L34.1872 69.8933L37.4346 66.5644L34.3323 59.7295L36.4771 60.9705L38.513 65.5364L40.5487 63.3263L42.5845 64.5042Z" fill="white"/>
<defs>
<filter id="filter0_b_54_1610" x="-135.914" y="-135.914" width="392.078" height="341.828" filterUnits="userSpaceOnUse" color-interpolation-filters="sRGB">
<feFlood flood-opacity="0" result="BackgroundImageFix"/>
<feGaussianBlur in="BackgroundImageFix" stdDeviation="67.957"/>
<feComposite in2="SourceAlpha" operator="in" result="effect1_backgroundBlur_54_1610"/>
<feBlend mode="normal" in="SourceGraphic" in2="effect1_backgroundBlur_54_1610" result="shape"/>
</filter>
<filter id="filter1_d_54_1610" x="21.9542" y="12" width="82.3285" height="49.75" filterUnits="userSpaceOnUse" color-interpolation-filters="sRGB">
<feFlood flood-opacity="0" result="BackgroundImageFix"/>
<feColorMatrix in="SourceAlpha" type="matrix" values="0 0 0 0 0 0 0 0 0 0 0 0 0 0 0 0 0 0 127 0" result="hardAlpha"/>
<feOffset dy="2"/>
<feComposite in2="hardAlpha" operator="out"/>
<feColorMatrix type="matrix" values="0 0 0 0 0.0901961 0 0 0 0 0.0901961 0 0 0 0 0.0901961 0 0 0 1 0"/>
<feBlend mode="normal" in2="BackgroundImageFix" result="effect1_dropShadow_54_1610"/>
<feBlend mode="normal" in="SourceGraphic" in2="effect1_dropShadow_54_1610" result="shape"/>
</filter>
</defs>
</svg>
