<svg width="121" height="88" viewBox="0 0 121 88" fill="none" xmlns="http://www.w3.org/2000/svg">
<path fill-rule="evenodd" clip-rule="evenodd" d="M0 35L60.25 70V88L0 53V35Z" fill="#171717" fill-opacity="0.8"/>
<g filter="url(#filter0_b_54_1625)">
<path fill-rule="evenodd" clip-rule="evenodd" d="M60 0L120.25 35L60.25 70L0 35L60 0Z" fill="#171717" fill-opacity="0.7"/>
</g>
<path fill-rule="evenodd" clip-rule="evenodd" d="M120.25 35L60 70V88L120.25 53V35Z" fill="#171717"/>
<g filter="url(#filter1_d_54_1625)">
<path fill-rule="evenodd" clip-rule="evenodd" d="M42.9898 17.9994L37.5039 21.1887C43.4166 24.8474 47.0379 29.7696 47.0379 35.183C47.0379 40.5549 43.4719 45.4432 37.6395 49.093L43.1557 52.2628C50.252 47.7936 54.5964 41.7874 54.5964 35.183C54.5964 28.5274 50.1842 22.4792 42.9898 17.9994ZM33.452 23.5443L28.3444 26.5137C32.1804 28.7611 34.5392 31.8166 34.5392 35.183C34.5392 38.5241 32.2158 41.559 28.4308 43.8015L33.5637 46.751C38.3298 43.712 41.2422 39.648 41.2422 35.183C41.2422 30.6833 38.2843 26.5908 33.452 23.5443ZM24.328 41.444C27.1353 39.8137 28.858 37.6094 28.858 35.183C28.858 32.7385 27.1093 30.5193 24.2646 28.8855L19.9151 31.4141C21.2448 32.2903 22.0405 33.4034 22.0405 34.6149C22.0405 36.0936 20.8551 37.4257 18.9599 38.3594L24.328 41.444ZM78.4674 17.9994L83.9533 21.1887C78.0406 24.8474 74.4192 29.7696 74.4192 35.183C74.4192 40.5549 77.9853 45.4432 83.8177 49.093L78.3015 52.2628C71.2052 47.7936 66.8607 41.7874 66.8607 35.183C66.8607 28.5274 71.273 22.4792 78.4674 17.9994ZM88.0051 23.5443L93.1128 26.5137C89.2768 28.7611 86.918 31.8166 86.918 35.183C86.918 38.5241 89.2414 41.559 93.0264 43.8015L87.8935 46.751C83.1274 43.712 80.215 39.648 80.215 35.183C80.215 30.6833 83.1729 26.5908 88.0051 23.5443ZM97.1292 41.444C94.3219 39.8137 92.5992 37.6094 92.5992 35.183C92.5992 32.7385 94.3478 30.5193 97.1926 28.8855L101.542 31.4141C100.212 32.2903 99.4167 33.4034 99.4167 34.6149C99.4167 36.0936 100.602 37.4257 102.497 38.3594L97.1292 41.444ZM63.5777 33.183H57.5902V37.183H63.5777V33.183Z" fill="white"/>
</g>
<defs>
<filter id="filter0_b_54_1625" x="-135.914" y="-135.914" width="392.078" height="341.828" filterUnits="userSpaceOnUse" color-interpolation-filters="sRGB">
<feFlood flood-opacity="0" result="BackgroundImageFix"/>
<feGaussianBlur in="BackgroundImageFix" stdDeviation="67.957"/>
<feComposite in2="SourceAlpha" operator="in" result="effect1_backgroundBlur_54_1625"/>
<feBlend mode="normal" in="SourceGraphic" in2="effect1_backgroundBlur_54_1625" result="shape"/>
</filter>
<filter id="filter1_d_54_1625" x="18.9599" y="17.9994" width="83.5374" height="36.2634" filterUnits="userSpaceOnUse" color-interpolation-filters="sRGB">
<feFlood flood-opacity="0" result="BackgroundImageFix"/>
<feColorMatrix in="SourceAlpha" type="matrix" values="0 0 0 0 0 0 0 0 0 0 0 0 0 0 0 0 0 0 127 0" result="hardAlpha"/>
<feOffset dy="2"/>
<feComposite in2="hardAlpha" operator="out"/>
<feColorMatrix type="matrix" values="0 0 0 0 0.0901961 0 0 0 0 0.0901961 0 0 0 0 0.0901961 0 0 0 1 0"/>
<feBlend mode="normal" in2="BackgroundImageFix" result="effect1_dropShadow_54_1625"/>
<feBlend mode="normal" in="SourceGraphic" in2="effect1_dropShadow_54_1625" result="shape"/>
</filter>
</defs>
</svg>
