<svg width="332" height="260" viewBox="0 0 332 260" fill="none" xmlns="http://www.w3.org/2000/svg">
<path opacity="0.5" fill-rule="evenodd" clip-rule="evenodd" d="M0 152.03L145.25 64.2708L332 174.9L187.814 260L0 152.03Z" fill="#03571F" fill-opacity="0.7"/>
<g filter="url(#filter0_b_54_1687)">
<path fill-rule="evenodd" clip-rule="evenodd" d="M175.816 31.3162L123.374 0L45.9518 44.2983L87.9697 69.1894L45.9518 93.2306L99.8953 125.186L115.879 115.2L173.935 150.186L159.833 160.138L211.778 190.097L287.699 146.157L246.9 120.837L287.699 97.2251L235.557 64.8653L219.757 74.3578L159.833 41.3024L175.816 31.3162Z" fill="#03571F" fill-opacity="0.7"/>
</g>
<g filter="url(#filter1_b_54_1687)">
<path fill-rule="evenodd" clip-rule="evenodd" d="M99.8953 76.2541L45.9518 44.2983V90.3978L99.8953 122.191V76.2541ZM99.8953 125.186L45.9518 93.2307V139.33L99.8953 171.123V125.186ZM159.833 141.222L115.879 115.2V161.195L159.833 187.217V205.991L211.778 236.033V190.097L160.16 160.327L160.082 160.138L162.411 158.55L211.778 187.101V141.164L159.833 111.206L174.817 101.161L115.879 66.268V112.263L159.833 138.285V141.222Z" fill="#03571F" fill-opacity="0.8"/>
</g>
<path fill-rule="evenodd" clip-rule="evenodd" d="M50.9466 59.2776L58.2871 63.6346V73.7243L50.9466 69.3674V59.2776ZM50.9466 108.21L58.2871 112.567V122.657L50.9466 118.3V108.21ZM67.4626 69.1381L60.1222 64.7811V74.8709L67.4626 79.2278V69.1381ZM69.3292 70.1496L76.6696 74.5066V84.5963L69.3292 80.2394V70.1496ZM85.91 79.999L78.5695 75.6421V85.7318L85.91 90.0887V79.999ZM87.8098 81.1345L95.1503 85.4914V95.5811L87.8098 91.2242V81.1345ZM58.2871 75.618L50.9466 71.2611V81.3508L58.2871 85.7078V75.618ZM60.1222 76.7646L67.4626 81.1215V91.2113L60.1222 86.8543V76.7646ZM76.6696 86.49L69.3292 82.1331V92.2228L76.6696 96.5798V86.49ZM78.5695 87.6255L85.91 91.9824V102.072L78.5695 97.7152V87.6255ZM95.1503 97.4748L87.8098 93.1179V103.208L95.1503 107.565V97.4748ZM121.872 132.177L129.213 136.534V146.624L121.872 142.267V132.177ZM138.388 142.037L131.048 137.68V147.77L138.388 152.127V142.037ZM140.255 143.049L147.595 147.406V157.496L140.255 153.139V143.049ZM156.836 152.898L149.495 148.541V158.631L156.836 162.988V152.898ZM149.495 160.525L156.836 164.882V174.971L149.495 170.614V160.525ZM171.169 129.543L163.828 125.186V135.276L171.169 139.633V129.543ZM173.004 130.69L180.344 135.047V145.137L173.004 140.78V130.69ZM189.551 140.415L182.211 136.058V146.148L189.551 150.505V140.415ZM191.451 141.551L198.792 145.908V155.998L191.451 151.641V141.551ZM208.032 151.4L200.692 147.043V157.133L208.032 161.49V151.4ZM163.828 137.17L171.169 141.527V151.617L163.828 147.26V137.17ZM180.344 147.03L173.004 142.673V152.763L180.344 157.12V147.03ZM182.211 148.042L189.551 152.399V162.489L182.211 158.132V148.042ZM198.792 157.891L191.451 153.534V163.624L198.792 167.981V157.891ZM200.692 159.027L208.032 163.384V173.473L200.692 169.116V159.027ZM67.4626 118.07L60.1222 113.713V123.803L67.4626 128.16V118.07ZM69.3292 119.082L76.6696 123.439V133.529L69.3292 129.172V119.082ZM85.91 128.931L78.5695 124.574V134.664L85.91 139.021V128.931ZM87.8098 130.067L95.1503 134.424V144.513L87.8098 140.157V130.067ZM58.2871 124.55L50.9466 120.193V130.283L58.2871 134.64V124.55ZM60.1222 125.697L67.4626 130.054V140.144L60.1222 135.787V125.697ZM76.6696 135.422L69.3292 131.065V141.155L76.6696 145.512V135.422ZM78.5695 136.558L85.91 140.915V151.004L78.5695 146.648V136.558ZM95.1503 146.407L87.8098 142.05V152.14L95.1503 156.497V146.407ZM163.828 174.119L171.169 178.476V188.565L163.828 184.209V174.119ZM180.344 183.979L173.004 179.622V189.712L180.344 194.069V183.979ZM182.211 184.991L189.551 189.348V199.437L182.211 195.081V184.991ZM198.792 194.84L191.451 190.483V200.573L198.792 204.93V194.84ZM200.692 195.976L208.032 200.333V210.422L200.692 206.065V195.976ZM171.169 190.459L163.828 186.102V196.192L171.169 200.549V190.459ZM173.004 191.606L180.344 195.963V206.052L173.004 201.695V191.606ZM189.551 201.331L182.211 196.974V207.064L189.551 211.421V201.331ZM191.451 202.467L198.792 206.824V216.913L191.451 212.556V202.467ZM208.032 212.316L200.692 207.959V218.049L208.032 222.406V212.316Z" fill="white"/>
<path fill-rule="evenodd" clip-rule="evenodd" d="M175.816 31.3163L159.833 41.3025L175.816 50.29V31.3163ZM115.879 66.2679L99.8953 76.2541V122.343L115.879 112.204V66.2679ZM211.778 141.164L287.699 97.2251V142.876L211.778 187.101V141.164ZM115.879 115.2L99.8953 125.186V171.276L115.879 161.137V115.2ZM211.778 190.097L287.699 146.157V191.809L211.778 236.033V190.097Z" fill="#03571F"/>
<path d="M111.999 37.5389L102.996 32.343L97.4786 35.527L107.876 41.5277L104.026 43.7495L89.2332 35.2121L111.423 22.4061L125.883 30.751L122.063 32.9553L111.999 27.1471L106.785 30.1562L115.788 35.3521L111.999 37.5389ZM132.412 41.5522C134.15 42.5552 134.949 43.6807 134.807 44.9286C134.686 46.1649 133.534 47.4129 131.351 48.6725L121.954 54.0958L117.74 51.6641L125.774 47.028C128.643 45.3718 129.128 43.9956 127.229 42.8992C126.218 42.3161 125.006 42.0712 123.591 42.1645C122.217 42.2578 120.822 42.7126 119.408 43.5291L111.526 48.0777L107.312 45.6459L123.015 36.5837L126.713 38.718C125.582 39.4878 124.834 40.0243 124.47 40.3275C127.421 39.791 130.068 40.1992 132.412 41.5522ZM137.341 61.9262C135.462 61.8212 133.602 61.238 131.763 60.1767C130.066 59.197 129.136 58.1473 128.974 57.0277C128.853 55.908 129.955 54.6776 132.279 53.3363L138.614 49.6799L135.825 48.0704L139.372 46.0235L142.161 47.6331L146.981 44.8514L151.195 47.2832L146.375 50.0648L151.104 52.794L147.557 54.8408L142.828 52.1117L137.189 55.3657C136.139 55.9722 135.522 56.5378 135.34 57.0627C135.158 57.5875 135.472 58.0832 136.28 58.5497C136.987 58.9579 137.867 59.2203 138.917 59.337L137.341 61.9262ZM161.139 58.1309C162.534 58.9357 163.453 59.8279 163.898 60.8076C164.383 61.7873 164.353 62.7728 163.807 63.7642C163.302 64.7556 162.322 65.6711 160.867 66.5109C160.22 66.8841 159.502 67.2281 158.714 67.543L148.286 61.5249C147.296 62.3063 146.831 63.0644 146.892 63.7992C146.973 64.5223 147.508 65.1696 148.499 65.7411C149.206 66.1493 149.984 66.4234 150.833 66.5633C151.722 66.7033 152.631 66.68 153.561 66.4934L154.834 69.3275C153.258 69.7474 151.55 69.7882 149.711 69.45C147.892 69.1234 146.245 68.5344 144.77 67.683C143.355 66.8666 142.355 65.9277 141.769 64.8664C141.183 63.805 141.142 62.697 141.648 61.5424C142.173 60.3994 143.315 59.3206 145.073 58.3059C146.811 57.3028 148.66 56.6555 150.62 56.364C152.601 56.0841 154.501 56.1074 156.32 56.4339C158.138 56.7605 159.745 57.3262 161.139 58.1309ZM157.593 60.0378C156.764 59.5597 155.794 59.3031 154.683 59.2681C153.571 59.2331 152.439 59.4314 151.287 59.8629L157.532 63.4668C158.421 62.8603 158.846 62.2538 158.805 61.6474C158.805 61.0409 158.401 60.5044 157.593 60.0378ZM179.378 68.6564C179.984 69.0063 180.459 69.3854 180.802 69.7936C181.146 70.2018 181.318 70.5692 181.318 70.8957L176.437 71.8229C176.275 71.3098 175.861 70.8607 175.194 70.4759C174.103 69.846 172.769 69.6011 171.193 69.7411C169.637 69.8927 168.06 70.4292 166.464 71.3506L159.158 75.5668L154.944 73.135L170.647 64.0728L174.345 66.2072C173.234 66.9653 172.496 67.4959 172.133 67.7992C173.547 67.5193 174.871 67.4551 176.104 67.6067C177.336 67.7584 178.428 68.1082 179.378 68.6564ZM193.04 76.541C194.313 77.2758 195.162 78.1389 195.586 79.1302C196.031 80.1333 195.94 81.1771 195.313 82.2618C194.707 83.3581 193.555 84.3961 191.857 85.3758C190.16 86.3555 188.361 87.0203 186.462 87.3702C184.602 87.7201 182.804 87.7668 181.066 87.5102C179.348 87.2652 177.852 86.7754 176.579 86.0406C175.609 85.4808 174.902 84.851 174.457 84.1512C174.013 83.4514 173.912 82.7166 174.154 81.9469L165.151 87.1428L160.937 84.711L183.673 71.59L187.371 73.7244L186.431 74.3717C186.249 74.5 186.057 74.6341 185.855 74.7741C185.653 74.914 185.451 75.0656 185.249 75.2289C186.724 75.0073 188.119 75.019 189.432 75.2639C190.786 75.5088 191.989 75.9345 193.04 76.541ZM179.338 83.3289C180.429 83.9588 181.702 84.2387 183.157 84.1687C184.653 84.0987 186.098 83.6613 187.492 82.8566C188.927 82.0285 189.725 81.1829 189.887 80.3199C190.049 79.4568 189.574 78.7045 188.462 78.0631C187.411 77.4566 186.118 77.165 184.582 77.1883C183.087 77.2117 181.571 77.6665 180.035 78.5529C178.519 79.4276 177.751 80.2907 177.731 81.1421C177.731 81.9819 178.267 82.7108 179.338 83.3289ZM211.497 87.1932C212.104 87.5431 212.579 87.9222 212.922 88.3304C213.266 88.7386 213.437 89.106 213.437 89.4325L208.557 90.3597C208.395 89.8466 207.981 89.3975 207.314 89.0127C206.223 88.3828 204.889 88.1379 203.313 88.2779C201.756 88.4295 200.18 88.966 198.584 89.8874L191.278 94.1036L187.064 91.6718L202.767 82.6096L206.465 84.744C205.354 85.5021 204.616 86.0327 204.252 86.336C205.667 86.0561 206.991 85.9919 208.223 86.1435C209.456 86.2952 210.548 86.645 211.497 87.1932ZM219.855 90.1618C219.188 89.777 218.854 89.2929 218.854 88.7098C218.895 88.1266 219.258 87.6368 219.946 87.2402C220.653 86.832 221.502 86.6221 222.492 86.6104C223.482 86.5988 224.321 86.7912 225.008 87.1877C225.695 87.5843 226.029 88.08 226.008 88.6748C226.008 89.2579 225.665 89.7478 224.978 90.1443C224.291 90.5409 223.432 90.745 222.401 90.7567C221.39 90.7567 220.542 90.5584 219.855 90.1618ZM204.303 101.621L200.09 99.1891L215.792 90.1268L220.006 92.5586L204.303 101.621ZM224.51 107.894C222.954 108.792 221.115 109.154 218.993 108.979C216.911 108.804 214.911 108.162 212.991 107.054C211.334 106.098 210.252 105.066 209.747 103.958C209.262 102.861 209.434 101.829 210.263 100.861L215.113 101.596C214.668 102.202 214.557 102.815 214.779 103.433C215.022 104.039 215.578 104.593 216.447 105.095C217.093 105.468 217.73 105.696 218.356 105.777C218.983 105.859 219.518 105.771 219.963 105.515C220.468 105.223 220.6 104.856 220.357 104.413C220.135 103.958 219.64 103.334 218.872 102.541C218.124 101.736 217.558 101.048 217.174 100.476C216.81 99.9165 216.659 99.3275 216.719 98.7093C216.82 98.0912 217.336 97.5139 218.265 96.9774C219.316 96.3709 220.509 96.0093 221.842 95.8927C223.197 95.7877 224.561 95.8985 225.935 96.2251C227.309 96.5517 228.572 97.0473 229.724 97.7121C231.3 98.6219 232.291 99.5899 232.695 100.616C233.119 101.631 232.917 102.541 232.089 103.345L227.299 102.576C228.006 101.468 227.643 100.5 226.208 99.6715C225.601 99.3216 224.995 99.1117 224.389 99.0417C223.803 98.9601 223.298 99.0417 222.873 99.2867C222.388 99.5666 222.257 99.9223 222.479 100.354C222.722 100.774 223.217 101.363 223.964 102.121C224.753 102.926 225.349 103.619 225.753 104.203C226.157 104.786 226.299 105.404 226.177 106.057C226.076 106.699 225.521 107.311 224.51 107.894ZM245.45 106.788C246.845 107.593 247.764 108.485 248.209 109.465C248.694 110.444 248.664 111.43 248.118 112.421C247.613 113.413 246.632 114.328 245.177 115.168C244.531 115.541 243.813 115.885 243.025 116.2L232.597 110.182C231.607 110.963 231.142 111.721 231.203 112.456C231.283 113.179 231.819 113.827 232.809 114.398C233.517 114.806 234.295 115.08 235.143 115.22C236.033 115.36 236.942 115.337 237.872 115.15L239.145 117.984C237.569 118.404 235.861 118.445 234.022 118.107C232.203 117.78 230.556 117.191 229.081 116.34C227.666 115.524 226.666 114.585 226.08 113.523C225.494 112.462 225.453 111.354 225.958 110.199C226.484 109.056 227.626 107.978 229.384 106.963C231.122 105.96 232.971 105.313 234.931 105.021C236.912 104.741 238.811 104.764 240.63 105.091C242.449 105.417 244.056 105.983 245.45 106.788ZM241.903 108.695C241.075 108.217 240.105 107.96 238.993 107.925C237.882 107.89 236.75 108.088 235.598 108.52L241.843 112.124C242.732 111.517 243.156 110.911 243.116 110.304C243.116 109.698 242.712 109.161 241.903 108.695Z" fill="white"/>
<defs>
<filter id="filter0_b_54_1687" x="-89.9622" y="-135.914" width="513.575" height="461.925" filterUnits="userSpaceOnUse" color-interpolation-filters="sRGB">
<feFlood flood-opacity="0" result="BackgroundImageFix"/>
<feGaussianBlur in="BackgroundImageFix" stdDeviation="67.957"/>
<feComposite in2="SourceAlpha" operator="in" result="effect1_backgroundBlur_54_1687"/>
<feBlend mode="normal" in="SourceGraphic" in2="effect1_backgroundBlur_54_1687" result="shape"/>
</filter>
<filter id="filter1_b_54_1687" x="-89.9622" y="-91.6158" width="437.654" height="463.563" filterUnits="userSpaceOnUse" color-interpolation-filters="sRGB">
<feFlood flood-opacity="0" result="BackgroundImageFix"/>
<feGaussianBlur in="BackgroundImageFix" stdDeviation="67.957"/>
<feComposite in2="SourceAlpha" operator="in" result="effect1_backgroundBlur_54_1687"/>
<feBlend mode="normal" in="SourceGraphic" in2="effect1_backgroundBlur_54_1687" result="shape"/>
</filter>
</defs>
</svg>
