<svg width="332" height="313" viewBox="0 0 332 313" fill="none" xmlns="http://www.w3.org/2000/svg">
<path opacity="0.5" fill-rule="evenodd" clip-rule="evenodd" d="M0 204.88L145.25 117L332 227.783L187.814 313L0 204.88Z" fill="#03571F" fill-opacity="0.7"/>
<g filter="url(#filter0_b_54_1727)">
<path fill-rule="evenodd" clip-rule="evenodd" d="M112.794 47.0186L93.9016 36L155.837 0L186.641 17.9658L203.786 8L250.181 51.2022L246.9 53.1097L270.716 67L251.824 77.9814L270.716 89L251.824 99.9814L270.716 111L251.824 121.981L270.716 133L251.824 143.981L270.716 155L250.965 166.481L270.716 178L208.781 214L93.9016 147L113.653 135.519L93.9016 124L112.794 113.019L93.9016 102L112.794 91.0186L93.9016 80L112.794 69.0186L93.9016 58L112.794 47.0186Z" fill="#03571F" fill-opacity="0.7"/>
</g>
<path fill-rule="evenodd" clip-rule="evenodd" d="M202.788 78.8174L250.181 51.2695V60.4521L202.788 88V78.8174ZM270.716 67L208.781 103V123L270.716 87V67ZM208.781 125L270.716 89V109L208.781 145V125ZM270.716 111L208.781 147V167L270.716 131V111ZM208.781 169L270.716 133V153L208.781 189V169ZM270.716 155L208.781 191V211L270.716 175V155ZM270.716 178L208.781 214V250L270.716 214V178Z" fill="#03571F"/>
<g filter="url(#filter1_b_54_1727)">
<path fill-rule="evenodd" clip-rule="evenodd" d="M156.336 35.5L114.88 27.5479V36.7305L202.788 88V78.8174L156.336 35.5ZM93.9016 36L208.781 103V123L93.9016 56V36ZM208.781 125L93.9016 58V78L208.781 145V125ZM93.9016 80L208.781 147V167L93.9016 100V80ZM208.781 169L93.9016 102V122L208.781 189V169ZM93.9016 124L208.781 191V211L93.9016 144V124ZM93.9016 147L208.781 214V250L93.9016 183V147Z" fill="#03571F" fill-opacity="0.8"/>
</g>
<path fill-rule="evenodd" clip-rule="evenodd" d="M107.887 49.6613L103.891 47.5V57.0887L107.887 59.25V49.6613ZM135.858 66.2168L131.862 64.0556V73.6443L135.858 75.8056V66.2168ZM159.833 80.6111L163.828 82.7724V92.3611L159.833 90.1998V80.6111ZM121.872 57.9391L117.876 55.7778V65.3665L121.872 67.5278V57.9391ZM145.847 72.3333L149.843 74.4946V84.0833L145.847 81.922V72.3333ZM177.814 91.0502L173.818 88.8889V98.4776L177.814 100.639V91.0502ZM110.884 51.6389L114.88 53.8002V63.3889L110.884 61.2276V51.6389ZM142.85 70.3557L138.855 68.1944V77.7832L142.85 79.9444V70.3557ZM166.825 84.75L170.821 86.9113V96.5L166.825 94.3387V84.75ZM128.865 62.078L124.869 59.9167V69.5054L128.865 71.6667V62.078ZM152.84 76.4722L156.836 78.6335V88.2222L152.84 86.0609V76.4722ZM184.806 95.1891L180.811 93.0278V102.616L184.806 104.778V95.1891ZM187.803 97.1667L191.799 99.328V108.917L187.803 106.755V97.1667ZM103.891 69.5L107.887 71.6613V81.25L103.891 79.0887V69.5ZM131.862 86.0556L135.858 88.2168V97.8056L131.862 95.6443V86.0556ZM163.828 104.772L159.833 102.611V112.2L163.828 114.361V104.772ZM117.876 77.7778L121.872 79.9391V89.5278L117.876 87.3665V77.7778ZM149.843 96.4946L145.847 94.3333V103.922L149.843 106.083V96.4946ZM173.818 110.889L177.814 113.05V122.639L173.818 120.478V110.889ZM114.88 75.8002L110.884 73.6389V83.2276L114.88 85.3889V75.8002ZM138.855 90.1944L142.85 92.3557V101.944L138.855 99.7832V90.1944ZM170.821 108.911L166.825 106.75V116.339L170.821 118.5V108.911ZM124.869 81.9167L128.865 84.078V93.6667L124.869 91.5054V81.9167ZM156.836 100.634L152.84 98.4722V108.061L156.836 110.222V100.634ZM180.811 115.028L184.806 117.189V126.778L180.811 124.616V115.028ZM191.799 121.328L187.803 119.167V128.755L191.799 130.917V121.328ZM107.887 93.6613L103.891 91.5V101.089L107.887 103.25V93.6613ZM135.858 110.217L131.862 108.056V117.644L135.858 119.806V110.217ZM159.833 124.611L163.828 126.772V136.361L159.833 134.2V124.611ZM121.872 101.939L117.876 99.7778V109.366L121.872 111.528V101.939ZM145.847 116.333L149.843 118.495V128.083L145.847 125.922V116.333ZM177.814 135.05L173.818 132.889V142.478L177.814 144.639V135.05ZM110.884 95.6389L114.88 97.8002V107.389L110.884 105.228V95.6389ZM142.85 114.356L138.855 112.194V121.783L142.85 123.944V114.356ZM166.825 128.75L170.821 130.911V140.5L166.825 138.339V128.75ZM128.865 106.078L124.869 103.917V113.505L128.865 115.667V106.078ZM152.84 120.472L156.836 122.634V132.222L152.84 130.061V120.472ZM184.806 139.189L180.811 137.028V146.616L184.806 148.778V139.189ZM187.803 141.167L191.799 143.328V152.917L187.803 150.755V141.167ZM103.891 113.5L107.887 115.661V125.25L103.891 123.089V113.5ZM131.862 130.056L135.858 132.217V141.806L131.862 139.644V130.056ZM163.828 148.772L159.833 146.611V156.2L163.828 158.361V148.772ZM117.876 121.778L121.872 123.939V133.528L117.876 131.366V121.778ZM149.843 140.495L145.847 138.333V147.922L149.843 150.083V140.495ZM173.818 154.889L177.814 157.05V166.639L173.818 164.478V154.889ZM114.88 119.8L110.884 117.639V127.228L114.88 129.389V119.8ZM138.855 134.194L142.85 136.356V145.944L138.855 143.783V134.194ZM170.821 152.911L166.825 150.75V160.339L170.821 162.5V152.911ZM124.869 125.917L128.865 128.078V137.667L124.869 135.505V125.917ZM156.836 144.634L152.84 142.472V152.061L156.836 154.222V144.634ZM180.811 159.028L184.806 161.189V170.778L180.811 168.616V159.028ZM191.799 165.328L187.803 163.167V172.755L191.799 174.917V165.328ZM107.887 137.661L103.891 135.5V145.089L107.887 147.25V137.661ZM135.858 154.217L131.862 152.056V161.644L135.858 163.806V154.217ZM159.833 168.611L163.828 170.772V180.361L159.833 178.2V168.611ZM121.872 145.939L117.876 143.778V153.366L121.872 155.528V145.939ZM145.847 160.333L149.843 162.495V172.083L145.847 169.922V160.333ZM177.814 179.05L173.818 176.889V186.478L177.814 188.639V179.05ZM110.884 139.639L114.88 141.8V151.389L110.884 149.228V139.639ZM142.85 158.356L138.855 156.194V165.783L142.85 167.944V158.356ZM166.825 172.75L170.821 174.911V184.5L166.825 182.339V172.75ZM128.865 150.078L124.869 147.917V157.505L128.865 159.667V150.078ZM152.84 164.472L156.836 166.634V176.222L152.84 174.061V164.472ZM184.806 183.189L180.811 181.028V190.616L184.806 192.778V183.189ZM187.803 185.167L191.799 187.328V196.917L187.803 194.755V185.167ZM163.828 196.25L128.865 176V204L163.828 224.25V196.25Z" fill="white"/>
<g filter="url(#filter2_b_54_1727)">
<path fill-rule="evenodd" clip-rule="evenodd" d="M114.88 27.5478L156.393 35.5478L203.786 8L162.273 0L114.88 27.5478Z" fill="#03571F" fill-opacity="0.8"/>
</g>
<path fill-rule="evenodd" clip-rule="evenodd" d="M96.8985 98.5L98.8964 98.5L100.894 98.5V244.417L98.8964 244.5L96.8985 244.417V98.5Z" fill="#03571F"/>
<g filter="url(#filter3_b_54_1727)">
<path fill-rule="evenodd" clip-rule="evenodd" d="M96.8985 100.5L115.379 100.5L133.86 100.5V122.487L115.379 122.5L96.8985 122.487V100.5Z" fill="#03571F" fill-opacity="0.7"/>
</g>
<g filter="url(#filter4_d_54_1727)">
<path d="M220.673 249.218C222.782 247.999 224.624 247.354 226.2 247.283C227.776 247.212 228.988 247.702 229.836 248.751C230.709 249.759 231.145 251.285 231.145 253.329C231.145 255.345 230.709 257.375 229.836 259.419C228.987 261.422 227.775 263.298 226.199 265.049C224.624 266.772 222.781 268.243 220.672 269.462L216.781 271.711L216.781 282.211L211.508 285.258L211.509 254.514L220.673 249.218ZM220.091 264.632C221.739 263.679 223.06 262.51 224.054 261.123C225.048 259.709 225.545 258.189 225.545 256.565C225.545 254.941 225.048 253.997 224.054 253.731C223.06 253.438 221.739 253.767 220.091 254.72L216.782 256.633L216.781 266.545L220.091 264.632ZM246.407 243.331L251.462 240.41L251.461 262.166L246.988 264.751C246.891 263.127 246.794 262.049 246.698 261.517C246.067 263.197 245.243 264.654 244.225 265.886C243.207 267.119 242.043 268.113 240.734 268.87C238.625 270.089 236.964 270.265 235.752 269.397C234.54 268.53 233.934 266.584 233.934 263.56L233.935 250.54L238.989 247.619L238.989 258.707C238.989 262.711 240.104 264.068 242.334 262.779C243.546 262.079 244.528 260.965 245.279 259.439C246.031 257.912 246.407 256.169 246.407 254.209L246.407 243.331ZM266.935 230.92C268.462 230.038 269.868 229.673 271.153 229.826C272.462 229.966 273.492 230.686 274.243 231.988C275.019 233.275 275.407 235.095 275.407 237.447C275.407 239.799 275.019 242.067 274.243 244.252C273.491 246.394 272.461 248.292 271.152 249.944C269.867 251.583 268.461 252.844 266.934 253.726C265.673 254.455 264.51 254.819 263.443 254.82C262.401 254.807 261.552 254.345 260.898 253.435C260.728 255.129 260.631 256.277 260.607 256.879L256.171 259.444L256.172 227.482L261.226 224.56L261.226 237.496C261.904 236.012 262.729 234.723 263.698 233.631C264.692 232.496 265.771 231.593 266.935 230.92ZM265.77 249.401C267.08 248.644 268.134 247.461 268.934 245.85C269.758 244.226 270.17 242.434 270.171 240.474C270.171 238.514 269.771 237.219 268.971 236.589C268.171 235.96 267.104 236.03 265.771 236.801C264.486 237.544 263.407 238.685 262.535 240.225C261.662 241.738 261.225 243.544 261.225 245.644C261.225 247.744 261.662 249.088 262.534 249.675C263.431 250.221 264.51 250.129 265.77 249.401ZM284.129 243.283L279.075 246.205L279.076 214.243L284.13 211.321L284.129 243.283ZM291.278 214.624C290.478 215.086 289.775 215.143 289.169 214.793C288.587 214.401 288.297 213.729 288.297 212.777C288.297 211.797 288.588 210.789 289.169 209.753C289.751 208.717 290.454 207.96 291.278 207.484C292.103 207.007 292.818 206.958 293.424 207.336C294.03 207.685 294.333 208.336 294.333 209.288C294.333 210.24 294.03 211.255 293.424 212.334C292.818 213.384 292.102 214.147 291.278 214.624ZM293.859 237.66L288.805 240.581L288.805 218.825L293.86 215.904L293.859 237.66ZM307.007 225.482C308.462 224.641 309.626 223.143 310.498 220.986L314.353 221.362C313.747 223.337 312.789 225.122 311.48 226.719C310.171 228.316 308.68 229.597 307.007 230.564C305.335 231.531 303.771 232.001 302.316 231.973C300.862 231.918 299.686 231.296 298.789 230.106C297.892 228.888 297.444 227.09 297.444 224.71C297.444 222.302 297.893 219.984 298.79 217.758C299.687 215.504 300.863 213.522 302.317 211.813C303.772 210.077 305.335 208.725 307.008 207.758C308.681 206.791 310.171 206.35 311.481 206.433C312.79 206.516 313.747 207.195 314.353 208.468L310.499 213.3C309.65 212.167 308.487 212.027 307.008 212.882C305.699 213.639 304.644 214.822 303.844 216.433C303.068 218.001 302.68 219.751 302.68 221.683C302.68 223.587 303.08 224.882 303.88 225.568C304.68 226.253 305.723 226.225 307.007 225.482Z" fill="white"/>
</g>
<defs>
<filter id="filter0_b_54_1727" x="-42.0125" y="-135.914" width="448.643" height="485.828" filterUnits="userSpaceOnUse" color-interpolation-filters="sRGB">
<feFlood flood-opacity="0" result="BackgroundImageFix"/>
<feGaussianBlur in="BackgroundImageFix" stdDeviation="67.957"/>
<feComposite in2="SourceAlpha" operator="in" result="effect1_backgroundBlur_54_1727"/>
<feBlend mode="normal" in="SourceGraphic" in2="effect1_backgroundBlur_54_1727" result="shape"/>
</filter>
<filter id="filter1_b_54_1727" x="-42.0125" y="-108.366" width="386.708" height="494.28" filterUnits="userSpaceOnUse" color-interpolation-filters="sRGB">
<feFlood flood-opacity="0" result="BackgroundImageFix"/>
<feGaussianBlur in="BackgroundImageFix" stdDeviation="67.957"/>
<feComposite in2="SourceAlpha" operator="in" result="effect1_backgroundBlur_54_1727"/>
<feBlend mode="normal" in="SourceGraphic" in2="effect1_backgroundBlur_54_1727" result="shape"/>
</filter>
<filter id="filter2_b_54_1727" x="-21.0345" y="-135.914" width="360.735" height="307.376" filterUnits="userSpaceOnUse" color-interpolation-filters="sRGB">
<feFlood flood-opacity="0" result="BackgroundImageFix"/>
<feGaussianBlur in="BackgroundImageFix" stdDeviation="67.957"/>
<feComposite in2="SourceAlpha" operator="in" result="effect1_backgroundBlur_54_1727"/>
<feBlend mode="normal" in="SourceGraphic" in2="effect1_backgroundBlur_54_1727" result="shape"/>
</filter>
<filter id="filter3_b_54_1727" x="-39.0156" y="-35.4141" width="308.789" height="293.828" filterUnits="userSpaceOnUse" color-interpolation-filters="sRGB">
<feFlood flood-opacity="0" result="BackgroundImageFix"/>
<feGaussianBlur in="BackgroundImageFix" stdDeviation="67.957"/>
<feComposite in2="SourceAlpha" operator="in" result="effect1_backgroundBlur_54_1727"/>
<feBlend mode="normal" in="SourceGraphic" in2="effect1_backgroundBlur_54_1727" result="shape"/>
</filter>
<filter id="filter4_d_54_1727" x="207.508" y="193.852" width="106.845" height="91.9098" filterUnits="userSpaceOnUse" color-interpolation-filters="sRGB">
<feFlood flood-opacity="0" result="BackgroundImageFix"/>
<feColorMatrix in="SourceAlpha" type="matrix" values="0 0 0 0 0 0 0 0 0 0 0 0 0 0 0 0 0 0 127 0" result="hardAlpha"/>
<feOffset dx="-4"/>
<feComposite in2="hardAlpha" operator="out"/>
<feColorMatrix type="matrix" values="0 0 0 0 0.0117647 0 0 0 0 0.341176 0 0 0 0 0.121569 0 0 0 1 0"/>
<feBlend mode="normal" in2="BackgroundImageFix" result="effect1_dropShadow_54_1727"/>
<feBlend mode="normal" in="SourceGraphic" in2="effect1_dropShadow_54_1727" result="shape"/>
</filter>
</defs>
</svg>
