<svg width="332" height="310" viewBox="0 0 332 310" fill="none" xmlns="http://www.w3.org/2000/svg">
<path opacity="0.5" fill-rule="evenodd" clip-rule="evenodd" d="M0 201.88L145.25 114L332 224.783L187.814 310L0 201.88Z" fill="#03571F" fill-opacity="0.7"/>
<g filter="url(#filter0_b_54_1688)">
<path fill-rule="evenodd" clip-rule="evenodd" d="M60.9362 23.9826L102.462 0L156.766 31.9767L115.24 56.359L60.9362 23.9826ZM115.24 156.686L156.766 132.703L217.458 167.478L175.932 191.86L115.24 156.686ZM217.458 67.1512L175.932 91.1337L230.236 123.51L271.762 99.1279L217.458 67.1512Z" fill="#03571F" fill-opacity="0.7"/>
</g>
<g filter="url(#filter1_b_54_1688)">
<path fill-rule="evenodd" clip-rule="evenodd" d="M60.9362 23.9827L115.201 56.211L115.24 156.686L175.932 191.861V91.1338L230.236 123.111V275L60.9362 175.872V23.9827Z" fill="#03571F" fill-opacity="0.8"/>
</g>
<path fill-rule="evenodd" clip-rule="evenodd" d="M188.151 105.363L180.811 101V111.104L188.151 115.467V105.363ZM197.327 110.874L189.986 106.511V116.615L197.327 120.978V110.874ZM199.193 111.887L206.534 116.25V126.354L199.193 121.991V111.887ZM215.774 121.75L208.433 117.387V127.491L215.774 131.854V121.75ZM217.674 122.887L225.014 127.25V137.354L217.674 132.991V122.887ZM188.151 117.363L180.811 113V123.104L188.151 127.467V117.363ZM189.986 118.511L197.327 122.874V132.978L189.986 128.615V118.511ZM206.534 128.25L199.193 123.887V133.991L206.534 138.354V128.25ZM208.433 129.387L215.774 133.75V143.854L208.433 139.491V129.387ZM225.014 139.25L217.674 134.887V144.991L225.014 149.354V139.25ZM180.811 125L188.151 129.363V139.467L180.811 135.104V125ZM197.327 134.874L189.986 130.511V140.615L197.327 144.978V134.874ZM199.193 135.887L206.534 140.25V150.354L199.193 145.991V135.887ZM215.774 145.75L208.433 141.387V151.491L215.774 155.854V145.75ZM217.674 146.887L225.014 151.25V161.354L217.674 156.991V146.887ZM188.151 141.363L180.811 137V147.104L188.151 151.467V141.363ZM189.986 142.511L197.327 146.874V156.978L189.986 152.615V142.511ZM206.534 152.25L199.193 147.887V157.991L206.534 162.354V152.25ZM208.433 153.387L215.774 157.75V167.854L208.433 163.491V153.387ZM225.014 163.25L217.674 158.887V168.991L225.014 173.354V163.25ZM180.811 149L188.151 153.363V163.467L180.811 159.104V149ZM197.327 158.874L189.986 154.511V164.615L197.327 168.978V158.874ZM199.193 159.887L206.534 164.25V174.354L199.193 169.991V159.887ZM215.774 169.75L208.433 165.387V175.491L215.774 179.854V169.75ZM217.674 170.887L225.014 175.25V185.354L217.674 180.991V170.887ZM188.151 165.363L180.811 161V171.104L188.151 175.467V165.363ZM189.986 166.511L197.327 170.874V180.978L189.986 176.615V166.511ZM206.534 176.25L199.193 171.887V181.991L206.534 186.354V176.25ZM208.433 177.387L215.774 181.75V191.854L208.433 187.491V177.387ZM225.014 187.25L217.674 182.887V192.991L225.014 197.354V187.25ZM180.811 173L188.151 177.363V187.467L180.811 183.104V173ZM197.327 182.874L189.986 178.511V188.615L197.327 192.978V182.874ZM199.193 183.887L206.534 188.25V198.354L199.193 193.991V183.887ZM215.774 193.75L208.433 189.387V199.491L215.774 203.854V193.75ZM217.674 194.887L225.014 199.25V209.354L217.674 204.991V194.887ZM188.151 189.363L180.811 185V195.104L188.151 199.467V189.363ZM189.986 190.511L197.327 194.874V204.978L189.986 200.615V190.511ZM206.534 200.25L199.193 195.887V205.991L206.534 210.354V200.25ZM208.433 201.387L215.774 205.75V215.854L208.433 211.491V201.387ZM225.014 211.25L217.674 206.887V216.991L225.014 221.354V211.25ZM65.9309 105L73.2714 109.363V119.467L65.9309 115.104V105ZM82.4469 114.874L75.1065 110.511V120.615L82.4469 124.978V114.874ZM84.3135 115.887L91.654 120.25V130.354L84.3135 125.991V115.887ZM100.894 125.75L93.5538 121.387V131.491L100.894 135.854V125.75ZM102.794 126.887L110.135 131.25V141.354L102.794 136.991V126.887ZM73.2714 121.363L65.9309 117V127.104L73.2714 131.467V121.363ZM75.1065 122.511L82.4469 126.874V136.978L75.1065 132.615V122.511ZM91.654 132.25L84.3135 127.887V137.991L91.654 142.354V132.25ZM93.5538 133.387L100.894 137.75V147.854L93.5538 143.491V133.387ZM110.135 143.25L102.794 138.887V148.991L110.135 153.354V143.25Z" fill="white"/>
<path fill-rule="evenodd" clip-rule="evenodd" d="M156.766 132.704L115.24 156.686V56.3591L156.766 31.9768V132.704ZM271.762 251.018L230.235 275V123.51L271.762 99.128V251.018Z" fill="#03571F"/>
<path d="M68.8571 155.671C68.8571 153.754 69.1889 152.271 69.8526 151.221C70.5163 150.172 71.4182 149.601 72.5581 149.51C73.7124 149.411 74.9967 149.77 76.4108 150.587C77.8249 151.404 79.1019 152.526 80.2419 153.951C81.3963 155.369 82.3054 156.986 82.9692 158.803C83.6475 160.628 83.9866 162.499 83.9867 164.416C83.9868 166.349 83.6477 167.836 82.9696 168.878C82.3058 169.927 81.3968 170.502 80.2424 170.601C79.1025 170.693 77.8255 170.329 76.4114 169.512C74.9973 168.695 73.713 167.577 72.5586 166.16C71.4187 164.735 70.5168 163.113 69.8529 161.296C69.1891 159.479 68.8572 157.604 68.8571 155.671ZM72.1688 157.585C72.1688 158.802 72.342 159.977 72.6883 161.11C73.0491 162.252 73.5469 163.265 74.1819 164.148C74.8312 165.024 75.5744 165.703 76.4113 166.187C77.2482 166.671 77.9841 166.846 78.619 166.713C79.2683 166.572 79.7661 166.135 80.1124 165.401C80.4731 164.677 80.6535 163.706 80.6534 162.489C80.6534 161.272 80.473 160.102 80.1122 158.976C79.7659 157.843 79.268 156.838 78.6187 155.963C77.9837 155.079 77.2478 154.396 76.4109 153.912C75.574 153.428 74.8308 153.257 74.1815 153.398C73.5466 153.532 73.0488 153.96 72.6881 154.685C72.3418 155.402 72.1687 156.368 72.1688 157.585ZM94.6834 166.198C94.6833 164.232 95.0656 163.003 95.8304 162.512C96.5951 162.004 97.6413 162.133 98.9688 162.901C99.647 163.293 100.26 163.772 100.809 164.339L100.809 167.364C100.405 166.88 99.979 166.509 99.5317 166.251C98.9256 165.901 98.4639 165.867 98.1464 166.15C97.8434 166.425 97.6919 167.129 97.692 168.262L97.692 168.562L100.484 170.176L100.484 173.076L97.6921 171.462L97.6924 181.512L94.6838 179.773L94.6835 169.723L90.0299 167.034L90.0302 177.084L87.0216 175.345L87.0213 165.295L85.0949 164.181L85.0948 161.281L87.0212 162.395L87.0212 161.77C87.0211 159.82 87.4251 158.603 88.2331 158.12C89.0412 157.637 90.0945 157.771 91.3932 158.522C92.0281 158.889 92.5764 159.314 93.0382 159.798C93.5144 160.29 93.8824 160.786 94.1421 161.286L92.995 163.123C92.591 162.456 92.1436 161.981 91.653 161.697C91.1191 161.388 90.7151 161.388 90.441 161.696C90.1668 162.005 90.0298 162.709 90.0298 163.809L90.0298 164.134L94.6834 166.823L94.6834 166.198ZM103.558 170.303C103.067 170.019 102.649 169.569 102.302 168.952C101.956 168.319 101.783 167.719 101.783 167.152C101.783 166.569 101.956 166.169 102.302 165.952C102.648 165.736 103.067 165.769 103.557 166.053C104.048 166.336 104.467 166.787 104.813 167.403C105.174 168.029 105.354 168.633 105.354 169.216C105.354 169.783 105.174 170.179 104.813 170.403C104.467 170.62 104.048 170.586 103.558 170.303ZM105.073 185.779L102.065 184.04L102.064 171.09L105.073 172.829L105.073 185.779ZM112.932 187.596C113.797 188.096 114.49 188.005 115.009 187.322L117.304 190.198C116.943 190.956 116.373 191.36 115.594 191.41C114.815 191.459 113.927 191.196 112.932 190.621C111.936 190.045 111.005 189.249 110.14 188.232C109.274 187.198 108.574 186.019 108.04 184.693C107.506 183.351 107.239 181.972 107.239 180.555C107.239 179.122 107.506 178.051 108.04 177.343C108.574 176.619 109.273 176.248 110.139 176.232C111.005 176.199 111.936 176.47 112.931 177.046C113.927 177.621 114.814 178.384 115.594 179.335C116.373 180.285 116.943 181.348 117.304 182.523L115.009 182.747C114.504 181.488 113.812 180.604 112.931 180.096C112.152 179.645 111.524 179.624 111.048 180.032C110.587 180.432 110.356 181.207 110.356 182.357C110.356 183.49 110.594 184.536 111.07 185.495C111.546 186.453 112.167 187.154 112.932 187.596ZM123.667 183.251C124.663 183.827 125.543 184.594 126.308 185.552C127.087 186.503 127.686 187.566 128.105 188.741C128.538 189.908 128.754 191.091 128.754 192.291C128.754 192.825 128.711 193.341 128.624 193.841L121.179 189.538C121.308 190.579 121.612 191.488 122.088 192.263C122.564 193.022 123.156 193.605 123.863 194.014C124.368 194.306 124.815 194.439 125.205 194.414C125.609 194.381 125.919 194.169 126.135 193.777L128.343 196.553C128.04 197.328 127.456 197.724 126.59 197.74C125.739 197.765 124.786 197.473 123.733 196.864C122.723 196.28 121.785 195.479 120.919 194.462C120.053 193.445 119.353 192.266 118.819 190.924C118.3 189.59 118.04 188.198 118.04 186.748C118.04 185.315 118.3 184.24 118.819 183.524C119.353 182.816 120.046 182.449 120.897 182.425C121.748 182.4 122.672 182.676 123.667 183.251ZM123.581 186.026C122.989 185.684 122.484 185.609 122.066 185.8C121.647 185.992 121.366 186.438 121.222 187.138L125.681 189.715C125.623 188.881 125.399 188.144 125.01 187.502C124.634 186.852 124.158 186.36 123.581 186.026ZM146.506 200.227C148.252 201.953 149.125 203.866 149.125 205.966C149.126 207.616 148.599 208.603 147.546 208.927C146.507 209.26 145.042 208.88 143.152 207.788L136.832 204.135L136.831 185.835L142.567 189.15C144.255 190.126 145.626 191.368 146.679 192.877C147.747 194.378 148.281 195.936 148.281 197.553C148.281 199.236 147.69 200.128 146.506 200.227ZM139.905 190.761L139.905 195.086L142.264 196.45C143.115 196.942 143.786 197.13 144.277 197.013C144.782 196.889 145.034 196.485 145.034 195.801C145.034 195.135 144.789 194.484 144.298 193.851C143.808 193.201 143.13 192.625 142.264 192.125L139.905 190.761ZM142.892 204.488C143.844 205.038 144.573 205.259 145.078 205.151C145.597 205.052 145.857 204.635 145.857 203.902C145.857 203.168 145.597 202.443 145.078 201.726C144.573 201.018 143.837 200.384 142.87 199.825L139.905 198.111L139.905 202.761L142.892 204.488ZM158.534 203.729L161.542 205.468L161.543 218.418L158.881 216.879C158.823 215.846 158.765 215.137 158.707 214.754C158.332 215.32 157.842 215.62 157.236 215.653C156.63 215.686 155.937 215.478 155.158 215.027C153.902 214.302 152.914 213.264 152.192 211.913C151.471 210.563 151.11 208.988 151.11 207.188L151.11 199.438L154.118 201.177L154.119 207.777C154.119 210.16 154.782 211.735 156.11 212.503C156.831 212.92 157.416 212.933 157.863 212.541C158.31 212.15 158.534 211.371 158.534 210.204L158.534 203.729ZM165.818 206.289C165.341 206.014 164.923 205.563 164.562 204.938C164.216 204.305 164.043 203.705 164.043 203.138C164.043 202.555 164.216 202.155 164.562 201.938C164.908 201.722 165.327 201.755 165.817 202.039C166.308 202.322 166.734 202.785 167.094 203.427C167.455 204.052 167.636 204.648 167.636 205.215C167.636 205.781 167.455 206.177 167.095 206.402C166.734 206.61 166.308 206.572 165.818 206.289ZM167.355 221.777L164.346 220.038L164.346 207.088L167.354 208.827L167.355 221.777ZM173.146 225.125L170.138 223.386L170.137 204.361L173.146 206.1L173.146 225.125ZM183.721 212.212L186.729 213.951L186.73 232.976L184.089 231.45C184.017 230.441 183.959 229.758 183.916 229.4C183.527 229.924 183.014 230.195 182.379 230.211C181.759 230.219 181.081 230.011 180.345 229.585C179.421 229.052 178.577 228.297 177.812 227.322C177.048 226.346 176.434 225.217 175.973 223.933C175.511 222.633 175.28 221.283 175.28 219.883C175.28 218.466 175.511 217.383 175.972 216.633C176.434 215.867 177.047 215.438 177.812 215.347C178.577 215.255 179.421 215.477 180.344 216.01C181.023 216.402 181.65 216.924 182.228 217.574C182.819 218.232 183.317 219.003 183.721 219.887L183.721 212.212ZM181.037 227.011C181.788 227.444 182.423 227.495 182.942 227.162C183.462 226.829 183.721 226.029 183.721 224.762C183.721 223.512 183.461 222.437 182.942 221.537C182.422 220.62 181.788 219.944 181.037 219.511C180.244 219.052 179.601 219.006 179.111 219.372C178.635 219.747 178.397 220.518 178.397 221.684C178.397 222.851 178.635 223.914 179.111 224.872C179.602 225.839 180.244 226.552 181.037 227.011ZM191.013 220.852C190.537 220.577 190.118 220.126 189.758 219.501C189.411 218.868 189.238 218.268 189.238 217.701C189.238 217.118 189.411 216.718 189.758 216.501C190.104 216.285 190.522 216.318 191.013 216.602C191.504 216.885 191.929 217.348 192.29 217.99C192.651 218.615 192.831 219.211 192.831 219.778C192.831 220.344 192.651 220.74 192.29 220.965C191.929 221.173 191.504 221.135 191.013 220.852ZM192.55 236.34L189.542 234.601L189.541 221.651L192.55 223.39L192.55 236.34ZM201.761 228.389C203.002 229.107 203.984 230.149 204.705 231.516C205.427 232.866 205.787 234.441 205.787 236.241L205.788 243.991L202.779 242.252L202.779 235.627C202.779 233.261 202.101 231.685 200.744 230.901C200.023 230.484 199.438 230.472 198.991 230.863C198.558 231.246 198.342 232.021 198.342 233.188L198.342 239.688L195.333 237.949L195.333 224.999L197.974 226.525C198.046 227.583 198.111 228.313 198.168 228.713C198.89 227.53 200.088 227.422 201.761 228.389ZM219.196 238.792L219.197 250.417C219.197 253.033 218.627 254.596 217.487 255.103C216.347 255.611 214.933 255.377 213.245 254.401C212.018 253.692 210.936 252.767 209.998 251.625C209.075 250.491 208.418 249.278 208.028 247.986L210.344 247.8C210.907 249.375 211.874 250.559 213.245 251.351C214.312 251.969 215.063 252.036 215.496 251.552C215.943 251.094 216.174 250.061 216.188 248.453C215.438 249.252 214.356 249.244 212.942 248.426C212.033 247.901 211.181 247.142 210.387 246.15C209.594 245.141 208.952 243.987 208.461 242.687C207.985 241.378 207.747 240.032 207.747 238.649C207.747 237.249 207.985 236.178 208.461 235.437C208.951 234.687 209.593 234.275 210.387 234.2C211.181 234.109 212.032 234.326 212.941 234.851C213.677 235.277 214.341 235.844 214.932 236.552C215.524 237.261 216.008 238.099 216.383 239.065C216.484 238.44 216.541 237.84 216.556 237.265L219.196 238.792ZM213.504 245.776C214.255 246.21 214.889 246.26 215.409 245.927C215.928 245.594 216.188 244.794 216.188 243.528C216.188 242.278 215.928 241.203 215.409 240.302C214.889 239.385 214.254 238.71 213.504 238.276C212.71 237.818 212.068 237.772 211.578 238.138C211.102 238.513 210.863 239.284 210.863 240.45C210.864 241.617 211.102 242.679 211.578 243.638C212.068 244.605 212.711 245.318 213.504 245.776Z" fill="white"/>
<defs>
<filter id="filter0_b_54_1688" x="-74.9779" y="-135.914" width="482.654" height="463.689" filterUnits="userSpaceOnUse" color-interpolation-filters="sRGB">
<feFlood flood-opacity="0" result="BackgroundImageFix"/>
<feGaussianBlur in="BackgroundImageFix" stdDeviation="67.957"/>
<feComposite in2="SourceAlpha" operator="in" result="effect1_backgroundBlur_54_1688"/>
<feBlend mode="normal" in="SourceGraphic" in2="effect1_backgroundBlur_54_1688" result="shape"/>
</filter>
<filter id="filter1_b_54_1688" x="-74.9779" y="-111.931" width="441.128" height="522.846" filterUnits="userSpaceOnUse" color-interpolation-filters="sRGB">
<feFlood flood-opacity="0" result="BackgroundImageFix"/>
<feGaussianBlur in="BackgroundImageFix" stdDeviation="67.957"/>
<feComposite in2="SourceAlpha" operator="in" result="effect1_backgroundBlur_54_1688"/>
<feBlend mode="normal" in="SourceGraphic" in2="effect1_backgroundBlur_54_1688" result="shape"/>
</filter>
</defs>
</svg>
