<svg width="333" height="268" viewBox="0 0 333 268" fill="none" xmlns="http://www.w3.org/2000/svg">
<path opacity="0.5" fill-rule="evenodd" clip-rule="evenodd" d="M0 159.88L145.357 72L332.244 182.783L187.952 268L0 159.88Z" fill="#03571F" fill-opacity="0.7"/>
<g filter="url(#filter0_b_54_1722)">
<path fill-rule="evenodd" clip-rule="evenodd" d="M86.9215 30.7847L168.996 30.7847C168.996 30.7847 166.639 58.0085 168.353 79.6589C170.068 101.309 178.425 125.747 180.139 133.678C181.854 141.609 169.21 164.546 127.423 164.546C85.6358 164.546 73.2067 141.824 74.7068 133.678C76.2069 125.532 84.35 98.3083 86.9215 79.6589C89.4931 61.0095 86.9215 30.7847 86.9215 30.7847Z" fill="#03571F"/>
</g>
<ellipse cx="133.651" cy="109.154" rx="32.9897" ry="59" fill="url(#paint0_radial_54_1722)"/>
<g filter="url(#filter1_b_54_1722)">
<ellipse cx="127.928" cy="30.3561" rx="41.0066" ry="24.4371" fill="#03571F" fill-opacity="0.7"/>
</g>
<ellipse cx="127.46" cy="30" rx="36.4886" ry="22" fill="white"/>
<g filter="url(#filter2_b_54_1722)">
<path fill-rule="evenodd" clip-rule="evenodd" d="M134.219 34.3298L247.53 34.3298C247.53 34.3298 244.276 71.915 246.643 101.806C249.01 131.696 260.548 165.434 262.915 176.384C265.282 187.334 247.826 219 190.135 219C132.443 219 115.284 187.63 117.355 176.384C119.426 165.138 130.668 127.553 134.219 101.806C137.769 76.0582 134.219 34.3298 134.219 34.3298Z" fill="#03571F"/>
</g>
<ellipse cx="32.9901" cy="82.4989" rx="32.9901" ry="82.4989" transform="matrix(0.978134 -0.207974 0.207849 0.978161 182.356 61.3533)" fill="url(#paint1_radial_54_1722)"/>
<g filter="url(#filter3_b_54_1722)">
<ellipse cx="190.832" cy="33.7378" rx="56.6136" ry="33.7378" fill="#03571F" fill-opacity="0.7"/>
</g>
<ellipse cx="190.832" cy="34.0513" rx="50.6543" ry="29.5" fill="white"/>
<g filter="url(#filter4_d_54_1722)">
<path d="M206.755 233.027L198.526 237.781L198.525 243.605L208.03 238.115L208.03 242.179L194.507 249.989L194.508 226.565L207.726 218.931L207.726 222.963L198.526 228.277L198.526 233.781L206.756 229.027L206.755 233.027ZM214.885 238.219L211.034 240.444L211.034 216.092L214.886 213.867L214.885 238.219ZM224.822 215.489C226.097 214.752 227.224 214.432 228.203 214.528C229.2 214.592 229.967 215.066 230.503 215.952C231.057 216.805 231.334 217.999 231.334 219.535C231.334 220.218 231.278 220.943 231.167 221.711L221.635 227.217C221.801 228.358 222.189 229.073 222.799 229.361C223.408 229.627 224.166 229.499 225.071 228.976C225.718 228.603 226.29 228.112 226.789 227.504C227.306 226.864 227.704 226.133 227.981 225.312L230.807 225.6C230.419 227.04 229.671 228.41 228.562 229.712C227.472 231.003 226.253 232.038 224.905 232.817C223.611 233.563 222.411 233.926 221.302 233.905C220.194 233.884 219.298 233.409 218.615 232.482C217.95 231.543 217.617 230.146 217.617 228.29C217.617 226.455 217.95 224.695 218.615 223.01C219.298 221.313 220.185 219.82 221.275 218.529C222.365 217.238 223.547 216.225 224.822 215.489ZM224.711 219.169C223.954 219.606 223.307 220.257 222.771 221.121C222.236 221.985 221.875 222.972 221.691 224.081L227.399 220.784C227.325 219.803 227.039 219.189 226.54 218.944C226.06 218.667 225.45 218.742 224.711 219.169ZM240.329 220.036C241.438 219.395 242.324 218.254 242.99 216.611L245.927 216.899C245.465 218.403 244.735 219.763 243.738 220.979C242.74 222.195 241.604 223.171 240.329 223.908C239.055 224.644 237.863 225.001 236.755 224.98C235.646 224.938 234.75 224.463 234.067 223.557C233.383 222.629 233.042 221.258 233.042 219.445C233.042 217.61 233.384 215.845 234.067 214.149C234.751 212.431 235.647 210.922 236.755 209.62C237.864 208.297 239.055 207.268 240.33 206.532C241.604 205.795 242.741 205.459 243.738 205.523C244.736 205.587 245.465 206.104 245.927 207.075L242.99 210.755C242.343 209.891 241.457 209.785 240.33 210.436C239.332 211.012 238.528 211.913 237.919 213.14C237.328 214.335 237.032 215.668 237.032 217.14C237.032 218.591 237.337 219.578 237.946 220.1C238.556 220.623 239.35 220.601 240.329 220.036ZM258.488 212.076C257.546 213.516 256.234 214.721 254.553 215.692C253.002 216.588 251.745 216.845 250.785 216.461C249.843 216.045 249.372 214.61 249.372 212.157L249.372 205.469L246.823 206.941L246.823 203.197L249.372 201.725L249.372 196.637L253.224 194.412L253.224 199.5L257.547 197.004L257.547 200.748L253.224 203.244L253.224 209.196C253.224 210.306 253.39 211.052 253.722 211.436C254.055 211.82 254.59 211.799 255.329 211.372C255.976 210.999 256.586 210.422 257.158 209.644L258.488 212.076ZM267.851 190.636C268.405 190.316 268.922 190.113 269.402 190.028C269.883 189.943 270.252 189.975 270.511 190.124L269.014 194.412C268.534 194.306 267.989 194.428 267.38 194.78C266.382 195.357 265.578 196.301 264.969 197.613C264.377 198.914 264.082 200.408 264.082 202.093L264.082 209.805L260.23 212.03L260.23 195.454L263.611 193.501C263.703 194.728 263.786 195.554 263.86 195.981C264.285 194.733 264.839 193.655 265.523 192.749C266.207 191.842 266.982 191.138 267.851 190.636ZM274.021 185.376C273.412 185.728 272.876 185.771 272.414 185.505C271.971 185.206 271.749 184.694 271.749 183.969C271.749 183.222 271.971 182.454 272.414 181.665C272.858 180.875 273.394 180.299 274.022 179.936C274.65 179.574 275.195 179.536 275.657 179.824C276.118 180.091 276.349 180.587 276.349 181.312C276.349 182.037 276.118 182.811 275.656 183.632C275.195 184.432 274.65 185.014 274.021 185.376ZM275.988 202.928L272.137 205.153L272.137 188.577L275.989 186.352L275.988 202.928ZM286.008 193.653C287.116 193.013 288.003 191.871 288.668 190.229L291.605 190.516C291.143 192.02 290.414 193.38 289.416 194.596C288.418 195.813 287.282 196.789 286.008 197.525C284.733 198.261 283.541 198.619 282.433 198.598C281.325 198.555 280.429 198.081 279.745 197.174C279.062 196.246 278.72 194.876 278.72 193.062C278.72 191.228 279.062 189.462 279.746 187.766C280.429 186.049 281.325 184.539 282.434 183.238C283.542 181.915 284.734 180.885 286.008 180.149C287.283 179.413 288.419 179.077 289.417 179.14C290.414 179.204 291.144 179.721 291.606 180.692L288.668 184.373C288.022 183.509 287.135 183.402 286.008 184.053C285.011 184.629 284.207 185.531 283.597 186.757C283.006 187.952 282.71 189.286 282.71 190.758C282.71 192.208 283.015 193.195 283.625 193.717C284.234 194.24 285.029 194.219 286.008 193.653ZM295.345 173.06C294.736 173.412 294.2 173.455 293.738 173.188C293.295 172.89 293.073 172.378 293.073 171.653C293.073 170.906 293.295 170.138 293.738 169.348C294.182 168.559 294.717 167.983 295.345 167.62C295.974 167.257 296.518 167.22 296.98 167.508C297.442 167.775 297.673 168.27 297.673 168.996C297.673 169.721 297.442 170.495 296.98 171.316C296.518 172.116 295.973 172.697 295.345 173.06ZM297.312 190.612L293.46 192.837L293.461 176.261L297.313 174.036L297.312 190.612ZM310.851 181.832C309.909 183.273 308.597 184.478 306.916 185.449C305.364 186.345 304.108 186.601 303.147 186.218C302.205 185.802 301.734 184.367 301.734 181.914L301.734 175.226L299.185 176.698L299.185 172.954L301.735 171.482L301.735 166.394L305.586 164.169L305.586 169.257L309.909 166.761L309.909 170.505L305.586 173.001L305.586 178.953C305.586 180.063 305.752 180.809 306.085 181.193C306.417 181.577 306.953 181.556 307.692 181.129C308.338 180.755 308.948 180.179 309.521 179.401L310.851 181.832ZM322.43 159.529L326.448 157.208L319.991 179.689C319.307 182.068 318.504 183.961 317.58 185.37C316.675 186.788 315.539 187.893 314.172 188.682C313.506 189.066 312.878 189.312 312.287 189.418C311.715 189.536 311.216 189.525 310.791 189.387L312.315 185.114C312.869 185.264 313.479 185.146 314.144 184.762C314.569 184.517 314.929 184.202 315.225 183.818C315.539 183.445 315.834 182.922 316.111 182.25C316.389 181.599 316.712 180.676 317.081 179.482L310.847 166.219L315.17 163.722L318.966 172.953L322.43 159.529Z" fill="white"/>
</g>
<defs>
<filter id="filter0_b_54_1722" x="-61.3261" y="-105.129" width="377.53" height="405.589" filterUnits="userSpaceOnUse" color-interpolation-filters="sRGB">
<feFlood flood-opacity="0" result="BackgroundImageFix"/>
<feGaussianBlur in="BackgroundImageFix" stdDeviation="67.957"/>
<feComposite in2="SourceAlpha" operator="in" result="effect1_backgroundBlur_54_1722"/>
<feBlend mode="normal" in="SourceGraphic" in2="effect1_backgroundBlur_54_1722" result="shape"/>
</filter>
<filter id="filter1_b_54_1722" x="-48.9925" y="-129.995" width="353.841" height="320.702" filterUnits="userSpaceOnUse" color-interpolation-filters="sRGB">
<feFlood flood-opacity="0" result="BackgroundImageFix"/>
<feGaussianBlur in="BackgroundImageFix" stdDeviation="67.957"/>
<feComposite in2="SourceAlpha" operator="in" result="effect1_backgroundBlur_54_1722"/>
<feBlend mode="normal" in="SourceGraphic" in2="effect1_backgroundBlur_54_1722" result="shape"/>
</filter>
<filter id="filter2_b_54_1722" x="-18.7233" y="-101.584" width="417.76" height="456.498" filterUnits="userSpaceOnUse" color-interpolation-filters="sRGB">
<feFlood flood-opacity="0" result="BackgroundImageFix"/>
<feGaussianBlur in="BackgroundImageFix" stdDeviation="67.957"/>
<feComposite in2="SourceAlpha" operator="in" result="effect1_backgroundBlur_54_1722"/>
<feBlend mode="normal" in="SourceGraphic" in2="effect1_backgroundBlur_54_1722" result="shape"/>
</filter>
<filter id="filter3_b_54_1722" x="-1.69553" y="-135.914" width="385.055" height="339.304" filterUnits="userSpaceOnUse" color-interpolation-filters="sRGB">
<feFlood flood-opacity="0" result="BackgroundImageFix"/>
<feGaussianBlur in="BackgroundImageFix" stdDeviation="67.957"/>
<feComposite in2="SourceAlpha" operator="in" result="effect1_backgroundBlur_54_1722"/>
<feBlend mode="normal" in="SourceGraphic" in2="effect1_backgroundBlur_54_1722" result="shape"/>
</filter>
<filter id="filter4_d_54_1722" x="190.507" y="149.432" width="135.941" height="108.365" filterUnits="userSpaceOnUse" color-interpolation-filters="sRGB">
<feFlood flood-opacity="0" result="BackgroundImageFix"/>
<feColorMatrix in="SourceAlpha" type="matrix" values="0 0 0 0 0 0 0 0 0 0 0 0 0 0 0 0 0 0 127 0" result="hardAlpha"/>
<feOffset dx="-4"/>
<feComposite in2="hardAlpha" operator="out"/>
<feColorMatrix type="matrix" values="0 0 0 0 0.0117647 0 0 0 0 0.341176 0 0 0 0 0.121569 0 0 0 1 0"/>
<feBlend mode="normal" in2="BackgroundImageFix" result="effect1_dropShadow_54_1722"/>
<feBlend mode="normal" in="SourceGraphic" in2="effect1_dropShadow_54_1722" result="shape"/>
</filter>
<radialGradient id="paint0_radial_54_1722" cx="0" cy="0" r="1" gradientUnits="userSpaceOnUse" gradientTransform="translate(133.651 106.161) rotate(90) scale(53.5796 13.8698)">
<stop stop-color="white" stop-opacity="0.377814"/>
<stop offset="1" stop-color="white" stop-opacity="0.01"/>
</radialGradient>
<radialGradient id="paint1_radial_54_1722" cx="0" cy="0" r="1" gradientUnits="userSpaceOnUse" gradientTransform="translate(32.9901 78.3138) rotate(90) scale(74.9196 13.87)">
<stop stop-color="white" stop-opacity="0.377814"/>
<stop offset="1" stop-color="white" stop-opacity="0.01"/>
</radialGradient>
</defs>
</svg>
