<svg width="332" height="338" viewBox="0 0 332 338" fill="none" xmlns="http://www.w3.org/2000/svg">
<path opacity="0.5" fill-rule="evenodd" clip-rule="evenodd" d="M0 229.88L145.25 142L332 252.783L187.814 338L0 229.88Z" fill="#03571F" fill-opacity="0.7"/>
<g filter="url(#filter0_b_54_1733)">
<path fill-rule="evenodd" clip-rule="evenodd" d="M106.838 57.446L93.9016 50L153.839 15L193.797 38L180.861 45.554L193.797 53L180.788 60.5964L217.772 82L204.871 89.5336L217.772 97L204.871 104.534L217.772 112L204.886 119.525L243.745 142L230.839 149.536L243.745 157L230.839 164.536L243.745 172L230.839 179.536L243.745 187L230.839 194.536L243.745 202L230.839 209.536L243.745 217L230.839 224.536L243.745 232L230.839 239.536L243.745 247L183.807 282L93.9016 230L106.807 222.464L93.9016 215L106.807 207.464L93.9016 200L106.807 192.464L93.9016 185L106.807 177.464L93.9016 170L106.807 162.464L93.9016 155L106.807 147.464L93.9016 140L106.807 132.464L93.9016 125L106.803 117.466L93.9016 110L106.803 102.466L93.9016 95L106.803 87.4664L93.9016 80L106.838 72.446L93.9016 65L106.838 57.446Z" fill="white"/>
</g>
<g filter="url(#filter1_b_54_1733)">
<path fill-rule="evenodd" clip-rule="evenodd" d="M93.9016 35L133.86 58L193.797 23L153.839 0L93.9016 35ZM133.86 103.25L157.835 117L217.772 82L193.797 68.25L133.86 103.25ZM183.807 177L157.835 162.25L217.772 127.25L243.745 142L183.807 177Z" fill="#03571F" fill-opacity="0.7"/>
</g>
<g filter="url(#filter2_b_54_1733)">
<path fill-rule="evenodd" clip-rule="evenodd" d="M133.86 58L93.9016 35V48L133.86 71V58ZM93.9016 50L133.86 73V86L93.9016 63V50ZM133.86 88L93.9016 65V78L133.86 101V88ZM93.9016 80L157.835 117V130L93.9016 93V80ZM157.835 132L93.9016 95V108L157.835 145V132ZM93.9016 110L157.835 147V160L93.9016 123V110ZM183.807 177L93.9016 125V138L183.807 190V177ZM93.9016 140L183.807 192V205L93.9016 153V140ZM183.807 207L93.9016 155V168L183.807 220V207ZM93.9016 170L183.807 222V235L93.9016 183V170ZM183.807 237L93.9016 185V198L183.807 250V237ZM93.9016 200L183.807 252V265L93.9016 213V200ZM183.807 267L93.9016 215V228L183.807 280V267ZM183.807 282L93.9016 230V243L183.807 295V282ZM120.873 26L137.856 36.2222V42L120.873 31.7778L120.873 26Z" fill="#03571F" fill-opacity="0.8"/>
</g>
<path fill-rule="evenodd" clip-rule="evenodd" d="M133.86 58L193.797 23V36L133.86 71V58ZM193.797 38L133.86 73V86L193.797 51V38ZM133.86 88L193.797 53V66L133.86 101V88ZM217.772 82L157.835 117V130L217.772 95V82ZM157.835 132L217.772 97V110L157.835 145V132ZM217.772 112L157.835 147V160L217.772 125V112ZM183.807 177L243.745 142V155L183.807 190V177ZM243.745 157L183.807 192V205L243.745 170V157ZM183.807 207L243.745 172V185L183.807 220V207ZM243.745 187L183.807 222V235L243.745 200V187ZM183.807 237L243.745 202V215L183.807 250V237ZM243.745 217L183.807 252V265L243.745 230V217ZM183.807 267L243.745 232V245L183.807 280V267ZM183.807 282L243.745 247V260L183.807 295V282ZM163.828 21L137.856 36.3125L137.856 42L163.828 26.6875V21Z" fill="#03571F"/>
<defs>
<filter id="filter0_b_54_1733" x="-42.0125" y="-120.914" width="421.671" height="538.828" filterUnits="userSpaceOnUse" color-interpolation-filters="sRGB">
<feFlood flood-opacity="0" result="BackgroundImageFix"/>
<feGaussianBlur in="BackgroundImageFix" stdDeviation="67.957"/>
<feComposite in2="SourceAlpha" operator="in" result="effect1_backgroundBlur_54_1733"/>
<feBlend mode="normal" in="SourceGraphic" in2="effect1_backgroundBlur_54_1733" result="shape"/>
</filter>
<filter id="filter1_b_54_1733" x="-42.0125" y="-135.914" width="421.671" height="448.828" filterUnits="userSpaceOnUse" color-interpolation-filters="sRGB">
<feFlood flood-opacity="0" result="BackgroundImageFix"/>
<feGaussianBlur in="BackgroundImageFix" stdDeviation="67.957"/>
<feComposite in2="SourceAlpha" operator="in" result="effect1_backgroundBlur_54_1733"/>
<feBlend mode="normal" in="SourceGraphic" in2="effect1_backgroundBlur_54_1733" result="shape"/>
</filter>
<filter id="filter2_b_54_1733" x="-42.0125" y="-109.914" width="361.734" height="540.828" filterUnits="userSpaceOnUse" color-interpolation-filters="sRGB">
<feFlood flood-opacity="0" result="BackgroundImageFix"/>
<feGaussianBlur in="BackgroundImageFix" stdDeviation="67.957"/>
<feComposite in2="SourceAlpha" operator="in" result="effect1_backgroundBlur_54_1733"/>
<feBlend mode="normal" in="SourceGraphic" in2="effect1_backgroundBlur_54_1733" result="shape"/>
</filter>
</defs>
</svg>
