<svg width="332" height="283" viewBox="0 0 332 283" fill="none" xmlns="http://www.w3.org/2000/svg">
<path opacity="0.5" fill-rule="evenodd" clip-rule="evenodd" d="M0 174.88L145.25 87L332 197.783L187.814 283L0 174.88Z" fill="#03571F" fill-opacity="0.7"/>
<path fill-rule="evenodd" clip-rule="evenodd" d="M86.9089 37L93.8236 40.9853L86.9089 45L93.8236 48.9853L86.9089 53L93.8236 56.9853L86.9089 61L93.8236 64.9853L86.9089 69L93.8236 72.9853L86.9089 77L93.8236 80.9853L86.9089 85L93.8236 88.9853L86.9089 93L93.8236 96.9853L86.9089 101L93.8236 104.985L86.9089 109L93.8236 112.985L86.9089 117L93.8236 120.985L86.9089 125L93.8236 128.985L86.9089 133L93.8236 136.985L86.9089 141L93.8236 144.985L86.9089 149L93.8236 152.985L86.9089 157L93.8236 160.985L86.9089 165L185.805 222L236.003 193L229.062 189.01L236.003 185L229.062 181.01L236.003 177L229.062 173.01L236.003 169L229.062 165.01L236.003 161L229.062 157.01L236.003 153L229.062 149.01L236.003 145L229.062 141.01L236.003 137L229.062 133.01L236.003 129L229.062 125.01L236.003 121L229.062 117.01L236.003 113L229.062 109.01L236.003 105L229.062 101.01L236.003 97L229.062 93.0098L236.003 89L229.062 85.0098L236.003 81L229.062 77.0098L236.003 73L229.062 69.0098L236.003 65L136.857 8L86.9089 37Z" fill="white"/>
<path fill-rule="evenodd" clip-rule="evenodd" d="M86.9089 29L185.805 86L236.003 57L136.857 0L86.9089 29Z" fill="#03571F" fill-opacity="0.7"/>
<g filter="url(#filter0_b_54_1729)">
<path fill-rule="evenodd" clip-rule="evenodd" d="M185.805 86L86.9089 29V36L185.805 93V86ZM86.9089 37L185.805 94V101L86.9089 44V37ZM185.805 102L86.9089 45V52L185.805 109V102ZM86.9089 53L185.805 110V117L86.9089 60V53ZM185.805 118L86.9089 61V68L185.805 125V118ZM86.9089 69L185.805 126V133L86.9089 76V69ZM185.805 134L86.9089 77V84L185.805 141V134ZM86.9089 85L185.805 142V149L86.9089 92V85ZM185.805 150L86.9089 93V100L185.805 157V150ZM86.9089 101L185.805 158V165L86.9089 108V101ZM185.805 166L86.9089 109V116L185.805 173V166ZM86.9089 117L185.805 174V181L86.9089 124V117ZM185.805 182L86.9089 125V132L185.805 189V182ZM86.9089 133L185.805 190V197L86.9089 140V133ZM185.805 198L86.9089 141V148L185.805 205V198ZM86.9089 149L185.805 206V213L86.9089 156V149ZM185.805 214L86.9089 157V164L185.805 221V214ZM185.805 222L86.9089 165V172L185.805 229V222ZM131.862 31L170.821 53.2656V56L131.862 33.7344V31Z" fill="#03571F" fill-opacity="0.8"/>
</g>
<path fill-rule="evenodd" clip-rule="evenodd" d="M185.805 86L235.753 57V64L185.805 93V86ZM235.753 65L185.805 94V101L235.753 72V65ZM185.805 102L235.753 73V80L185.805 109V102ZM235.753 81L185.805 110V117L235.753 88V81ZM185.805 118L235.753 89V96L185.805 125V118ZM235.753 97L185.805 126V133L235.753 104V97ZM185.805 134L235.753 105V112L185.805 141V134ZM235.753 113L185.805 142V149L235.753 120V113ZM185.805 150L235.753 121V128L185.805 157V150ZM235.753 129L185.805 158V165L235.753 136V129ZM185.805 166L235.753 137V144L185.805 173V166ZM235.753 145L185.805 174V181L235.753 152V145ZM185.805 182L235.753 153V160L185.805 189V182ZM235.753 161L185.805 190V197L235.753 168V161ZM185.805 198L235.753 169V176L185.805 205V198ZM235.753 177L185.805 206V213L235.753 184V177ZM185.805 214L235.753 185V192L185.805 221V214ZM185.805 222L235.753 193V200L185.805 229V222ZM190.8 42L170.821 53.2778V56L190.8 44.7222V42Z" fill="#03571F"/>
<defs>
<filter id="filter0_b_54_1729" x="-49.0052" y="-106.914" width="370.725" height="471.828" filterUnits="userSpaceOnUse" color-interpolation-filters="sRGB">
<feFlood flood-opacity="0" result="BackgroundImageFix"/>
<feGaussianBlur in="BackgroundImageFix" stdDeviation="67.957"/>
<feComposite in2="SourceAlpha" operator="in" result="effect1_backgroundBlur_54_1729"/>
<feBlend mode="normal" in="SourceGraphic" in2="effect1_backgroundBlur_54_1729" result="shape"/>
</filter>
</defs>
</svg>
