<svg width="332" height="331" viewBox="0 0 332 331" fill="none" xmlns="http://www.w3.org/2000/svg">
<path opacity="0.5" fill-rule="evenodd" clip-rule="evenodd" d="M0 222.88L145.25 135L332 245.783L187.814 331L0 222.88Z" fill="#03571F" fill-opacity="0.7"/>
<g filter="url(#filter0_b_54_1731)">
<path fill-rule="evenodd" clip-rule="evenodd" d="M200.84 17.4599L213.776 10L177.814 0L149.843 16L151.648 18.0574L121.872 35L150.842 66L222.698 24.0205L200.84 17.4599ZM150.842 147L222.767 109.75L155.088 64L80.9152 107L150.842 147ZM256.731 163L182.808 206L150.842 186.5L222.767 143.5L256.731 163ZM81.165 147L182.559 206L182.808 286L80.9152 227L81.165 147Z" fill="#03571F" fill-opacity="0.7"/>
</g>
<g filter="url(#filter1_b_54_1731)">
<path fill-rule="evenodd" clip-rule="evenodd" d="M150.842 66L121.872 35V115L150.842 146V66ZM150.842 147L80.9152 106.75V227L182.808 286L182.559 206L150.842 186.5V147Z" fill="#03571F" fill-opacity="0.8"/>
</g>
<path fill-rule="evenodd" clip-rule="evenodd" d="M213.776 10L167.824 36.5V51L213.776 24V10ZM150.842 66L222.767 24V143.5L150.842 186.5V66ZM182.808 206L256.731 163V243L182.808 286V206ZM167.824 36.5L149.843 16V30L167.824 51V36.5Z" fill="#03571F"/>
<path fill-rule="evenodd" clip-rule="evenodd" d="M222.513 44.5693L223.021 45.4305L150.747 88.1368L121.504 56.0871L122.241 55.4127L150.937 86.8619L222.513 44.5693ZM222.513 64.5693L223.021 65.4305L150.747 108.137L121.504 76.0871L122.241 75.4127L150.937 106.862L222.513 64.5693ZM223.021 85.4305L222.513 84.5693L150.937 126.862L122.241 95.4127L121.504 96.0871L150.747 128.137L223.021 85.4305ZM222.516 104.567L223.017 105.432L150.749 147.382L121.508 116.091L122.237 115.408L150.935 146.117L222.516 104.567ZM223.023 124.429L222.511 123.571L150.835 166.421L109.885 143.123V123H108.886V142.554L81.6615 127.065L81.1679 127.935L108.886 143.705V162.528L81.1583 147.063L80.6721 147.937L108.886 163.672V183.346L81.1621 167.565L80.6683 168.435L108.886 184.497V204.346L81.1621 188.565L80.6683 189.435L108.886 205.497V224.346L81.1621 208.565L80.6683 209.435L108.886 225.497V244H109.885V226.065L149.843 248.81V268H150.842V249.379L182.81 267.576L256.98 224.934L256.482 224.066L182.806 266.423L150.842 248.228V229.379L182.81 247.576L256.98 204.934L256.482 204.066L182.806 246.423L150.842 228.228V208.379L182.81 226.576L256.98 183.934L256.482 183.066L182.806 225.423L150.842 207.228V187.072L150.851 187.077L223.023 143.929L222.511 143.071L150.832 185.922L109.885 163.085V144.273L150.848 167.579L223.023 124.429ZM109.885 164.229V183.915L108.886 183.346V184.497L109.885 185.065V204.915L108.886 204.346V205.497L109.885 206.065V224.915L108.886 224.346V225.497L109.885 226.065V224.915L149.843 247.66V248.81L150.842 249.379V248.228L149.843 247.66V228.81L150.842 229.379V228.228L149.843 227.66V207.81L150.842 208.379V207.228L149.843 206.66V186.515L109.885 164.229ZM149.843 206.66V207.81L109.885 185.065V183.915L149.843 206.66ZM149.843 227.66V228.81L109.885 206.065V204.915L149.843 227.66ZM109.885 144.273L108.886 143.705V142.554L109.885 143.123V144.273Z" fill="white"/>
<defs>
<filter id="filter0_b_54_1731" x="-54.9989" y="-135.914" width="447.644" height="557.828" filterUnits="userSpaceOnUse" color-interpolation-filters="sRGB">
<feFlood flood-opacity="0" result="BackgroundImageFix"/>
<feGaussianBlur in="BackgroundImageFix" stdDeviation="67.957"/>
<feComposite in2="SourceAlpha" operator="in" result="effect1_backgroundBlur_54_1731"/>
<feBlend mode="normal" in="SourceGraphic" in2="effect1_backgroundBlur_54_1731" result="shape"/>
</filter>
<filter id="filter1_b_54_1731" x="-54.9989" y="-100.914" width="373.721" height="522.828" filterUnits="userSpaceOnUse" color-interpolation-filters="sRGB">
<feFlood flood-opacity="0" result="BackgroundImageFix"/>
<feGaussianBlur in="BackgroundImageFix" stdDeviation="67.957"/>
<feComposite in2="SourceAlpha" operator="in" result="effect1_backgroundBlur_54_1731"/>
<feBlend mode="normal" in="SourceGraphic" in2="effect1_backgroundBlur_54_1731" result="shape"/>
</filter>
</defs>
</svg>
