<svg width="332" height="314" viewBox="0 0 332 314" fill="none" xmlns="http://www.w3.org/2000/svg">
<path opacity="0.5" fill-rule="evenodd" clip-rule="evenodd" d="M0 205.88L145.25 118L332 228.783L187.814 314L0 205.88Z" fill="#03571F" fill-opacity="0.7"/>
<g filter="url(#filter0_b_54_1719)">
<path fill-rule="evenodd" clip-rule="evenodd" d="M96.8985 43.938L170.052 86.2485V262L96.8985 219.69V43.938Z" fill="#03571F" fill-opacity="0.8"/>
</g>
<path fill-rule="evenodd" clip-rule="evenodd" d="M158.672 94.1664L96.8985 58.5837V219.908L158.672 255.491V94.1664ZM104.89 70.9999L106.888 72.2856V76.9999L104.89 75.7142V70.9999ZM130.863 85.9999L132.861 87.2856V91.9999L130.863 90.7142V85.9999ZM119.874 79.2856L117.877 77.9999V82.7142L119.874 83.9999V79.2856ZM143.849 93.9999L145.847 95.2856V99.9999L143.849 98.7142V93.9999ZM106.888 105.286L104.89 104V108.714L106.888 110V105.286ZM130.863 119L132.861 120.286V125L130.863 123.714V119ZM119.874 112.286L117.877 111V115.714L119.874 117V112.286ZM143.849 127L145.847 128.286V133L143.849 131.714V127ZM106.888 138.286L104.89 137V141.714L106.888 143V138.286ZM130.863 151L132.861 152.286V157L130.863 155.714V151ZM119.874 144.286L117.877 143V147.714L119.874 149V144.286ZM143.849 159L145.847 160.286V165L143.849 163.714V159ZM106.888 170.286L104.89 169V173.714L106.888 175V170.286ZM130.863 184L132.861 185.286V190L130.863 188.714V184ZM119.874 177.286L117.877 176V180.714L119.874 182V177.286ZM143.849 192L145.847 193.286V198L143.849 196.714V192ZM106.888 203.286L104.89 202V206.714L106.888 208V203.286ZM130.863 216L132.861 217.286V222L130.863 220.714V216ZM119.874 209.286L117.877 208V212.714L119.874 214V209.286ZM143.849 224L145.847 225.286V230L143.849 228.714V224ZM106.888 89.2856L104.89 87.9999V92.7142L106.888 93.9999V89.2856ZM130.863 102L132.861 103.286V108L130.863 106.714V102ZM119.874 95.2856L117.877 93.9999V98.7142L119.874 99.9999V95.2856ZM143.849 111L145.847 112.286V117L143.849 115.714V111ZM106.888 121.286L104.89 120V124.714L106.888 126V121.286ZM130.863 135L132.861 136.286V141L130.863 139.714V135ZM119.874 128.286L117.877 127V131.714L119.874 133V128.286ZM143.849 143L145.847 144.286V149L143.849 147.714V143ZM106.888 154.286L104.89 153V157.714L106.888 159V154.286ZM130.863 167L132.861 168.286V173L130.863 171.714V167ZM119.874 160.286L117.877 159V163.714L119.874 165V160.286ZM143.849 176L145.847 177.286V182L143.849 180.714V176ZM106.888 186.286L104.89 185V189.714L106.888 191V186.286ZM130.863 200L132.861 201.286V206L130.863 204.714V200ZM119.874 193.286L117.877 192V196.714L119.874 198V193.286ZM143.849 208L145.847 209.286V214L143.849 212.714V208ZM106.888 81.2856L104.89 79.9999V84.7142L106.888 85.9999V81.2856ZM130.863 93.9999L132.861 95.2856V99.9999L130.863 98.7142V93.9999ZM119.874 87.2856L117.877 85.9999V90.7142L119.874 91.9999V87.2856ZM143.849 102L145.847 103.286V108L143.849 106.714V102ZM106.888 113.286L104.89 112V116.714L106.888 118V113.286ZM130.863 127L132.861 128.286V133L130.863 131.714V127ZM119.874 120.286L117.877 119V123.714L119.874 125V120.286ZM143.849 135L145.847 136.286V141L143.849 139.714V135ZM106.888 146.286L104.89 145V149.714L106.888 151V146.286ZM130.863 159L132.861 160.286V165L130.863 163.714V159ZM119.874 152.286L117.877 151V155.714L119.874 157V152.286ZM143.849 167L145.847 168.286V173L143.849 171.714V167ZM106.888 178.286L104.89 177V181.714L106.888 183V178.286ZM130.863 192L132.861 193.286V198L130.863 196.714V192ZM119.874 185.286L117.877 184V188.714L119.874 190V185.286ZM143.849 200L145.847 201.286V206L143.849 204.714V200ZM106.888 211.286L104.89 210V214.714L106.888 216V211.286ZM130.863 224L132.861 225.286V230L130.863 228.714V224ZM119.874 217.286L117.877 216V220.714L119.874 222V217.286ZM143.849 233L145.847 234.286V239L143.849 237.714V233ZM106.888 97.2856L104.89 95.9999V100.714L106.888 102V97.2856ZM130.863 111L132.861 112.286V117L130.863 115.714V111ZM119.874 103.286L117.877 102V106.714L119.874 108V103.286ZM143.849 119L145.847 120.286V125L143.849 123.714V119ZM106.888 129.286L104.89 128V132.714L106.888 134V129.286ZM130.863 143L132.861 144.286V149L130.863 147.714V143ZM119.874 136.286L117.877 135V139.714L119.874 141V136.286ZM143.849 151L145.847 152.286V157L143.849 155.714V151ZM106.888 162.286L104.89 161V165.714L106.888 167V162.286ZM130.863 176L132.861 177.286V182L130.863 180.714V176ZM119.874 168.286L117.877 167V171.714L119.874 173V168.286ZM143.849 184L145.847 185.286V190L143.849 188.714V184ZM106.888 195.286L104.89 194V198.714L106.888 200V195.286ZM130.863 208L132.861 209.286V214L130.863 212.714V208ZM119.874 201.286L117.877 200V204.714L119.874 206V201.286ZM143.849 216L145.847 217.286V222L143.849 220.714V216ZM110.884 74.2856L108.886 72.9999V77.7142L110.884 78.9999V74.2856ZM134.859 87.9999L136.857 89.2856V93.9999L134.859 92.7142V87.9999ZM123.87 81.2856L121.872 79.9999V84.7142L123.87 85.9999V81.2856ZM147.845 95.9999L149.843 97.2856V102L147.845 100.714V95.9999ZM110.884 107.286L108.886 106V110.714L110.884 112V107.286ZM134.859 121L136.857 122.286V127L134.859 125.714V121ZM123.87 114.286L121.872 113V117.714L123.87 119V114.286ZM147.845 129L149.843 130.286V135L147.845 133.714V129ZM110.884 140.286L108.886 139V143.714L110.884 145V140.286ZM134.859 153L136.857 154.286V159L134.859 157.714V153ZM123.87 146.286L121.872 145V149.714L123.87 151V146.286ZM147.845 161L149.843 162.286V167L147.845 165.714V161ZM110.884 172.286L108.886 171V175.714L110.884 177V172.286ZM134.859 186L136.857 187.286V192L134.859 190.714V186ZM123.87 179.286L121.872 178V182.714L123.87 184V179.286ZM147.845 194L149.843 195.286V200L147.845 198.714V194ZM110.884 205.286L108.886 204V208.714L110.884 210V205.286ZM134.859 218L136.857 219.286V224L134.859 222.714V218ZM123.87 211.286L121.872 210V214.714L123.87 216V211.286ZM147.845 226L149.843 227.286V232L147.845 230.714V226ZM110.884 91.2856L108.886 89.9999V94.7142L110.884 95.9999V91.2856ZM134.859 104L136.857 105.286V110L134.859 108.714V104ZM123.87 97.2856L121.872 95.9999V100.714L123.87 102V97.2856ZM147.845 113L149.843 114.286V119L147.845 117.714V113ZM110.884 123.286L108.886 122V126.714L110.884 128V123.286ZM134.859 137L136.857 138.286V143L134.859 141.714V137ZM123.87 130.286L121.872 129V133.714L123.87 135V130.286ZM147.845 145L149.843 146.286V151L147.845 149.714V145ZM110.884 156.286L108.886 155V159.714L110.884 161V156.286ZM134.859 169L136.857 170.286V175L134.859 173.714V169ZM123.87 162.286L121.872 161V165.714L123.87 167V162.286ZM147.845 178L149.843 179.286V184L147.845 182.714V178ZM110.884 188.286L108.886 187V191.714L110.884 193V188.286ZM134.859 202L136.857 203.286V208L134.859 206.714V202ZM123.87 195.286L121.872 194V198.714L123.87 200V195.286ZM147.845 210L149.843 211.286V216L147.845 214.714V210ZM110.884 83.2856L108.886 81.9999V86.7142L110.884 87.9999V83.2856ZM134.859 95.9999L136.857 97.2856V102L134.859 100.714V95.9999ZM123.87 89.2856L121.872 87.9999V92.7142L123.87 93.9999V89.2856ZM147.845 104L149.843 105.286V110L147.845 108.714V104ZM110.884 115.286L108.886 114V118.714L110.884 120V115.286ZM134.859 129L136.857 130.286V135L134.859 133.714V129ZM123.87 122.286L121.872 121V125.714L123.87 127V122.286ZM147.845 137L149.843 138.286V143L147.845 141.714V137ZM110.884 148.286L108.886 147V151.714L110.884 153V148.286ZM134.859 161L136.857 162.286V167L134.859 165.714V161ZM123.87 154.286L121.872 153V157.714L123.87 159V154.286ZM147.845 169L149.843 170.286V175L147.845 173.714V169ZM110.884 180.286L108.886 179V183.714L110.884 185V180.286ZM134.859 194L136.857 195.286V200L134.859 198.714V194ZM123.87 187.286L121.872 186V190.714L123.87 192V187.286ZM147.845 202L149.843 203.286V208L147.845 206.714V202ZM110.884 213.286L108.886 212V216.714L110.884 218V213.286ZM134.859 226L136.857 227.286V232L134.859 230.714V226ZM123.87 219.286L121.872 218V222.714L123.87 224V219.286ZM147.845 235L149.843 236.286V241L147.845 239.714V235ZM110.884 99.2856L108.886 97.9999V102.714L110.884 104V99.2856ZM134.859 113L136.857 114.286V119L134.859 117.714V113ZM123.87 105.286L121.872 104V108.714L123.87 110V105.286ZM147.845 121L149.843 122.286V127L147.845 125.714V121ZM110.884 131.286L108.886 130V134.714L110.884 136V131.286ZM134.859 145L136.857 146.286V151L134.859 149.714V145ZM123.87 138.286L121.872 137V141.714L123.87 143V138.286ZM147.845 153L149.843 154.286V159L147.845 157.714V153ZM110.884 164.286L108.886 163V167.714L110.884 169V164.286ZM134.859 178L136.857 179.286V184L134.859 182.714V178ZM123.87 170.286L121.872 169V173.714L123.87 175V170.286ZM147.845 186L149.843 187.286V192L147.845 190.714V186ZM110.884 197.286L108.886 196V200.714L110.884 202V197.286ZM134.859 210L136.857 211.286V216L134.859 214.714V210ZM123.87 203.286L121.872 202V206.714L123.87 208V203.286ZM147.845 218L149.843 219.286V224L147.845 222.714V218Z" fill="white"/>
<path fill-rule="evenodd" clip-rule="evenodd" d="M244.83 42.3105L170.052 86.2484V262L244.83 218.062V42.3105Z" fill="#03571F"/>
<g filter="url(#filter1_b_54_1719)">
<path fill-rule="evenodd" clip-rule="evenodd" d="M244.83 42.3106L170.052 86.2484L96.8985 43.9379L171.677 0L244.83 42.3106Z" fill="#03571F" fill-opacity="0.7"/>
</g>
<g filter="url(#filter2_d_54_1719)">
<path d="M181.681 135.11L189.395 130.651L189.395 122.875L192.808 120.902L192.807 140.666L189.394 142.639L189.395 134.134L181.681 138.593L181.68 147.098L178.291 149.057L178.291 129.293L181.681 127.334L181.681 135.11ZM195.435 132.155C195.435 130.697 195.715 129.248 196.277 127.807C196.853 126.358 197.617 125.062 198.567 123.918C199.518 122.757 200.547 121.856 201.653 121.217C202.744 120.586 203.757 120.307 204.692 120.378C205.643 120.423 206.398 120.841 206.959 121.633C207.536 122.415 207.824 123.536 207.824 124.994C207.824 126.452 207.536 127.905 206.959 129.355C206.398 130.795 205.642 132.087 204.692 133.23C203.757 134.365 202.744 135.247 201.653 135.878C200.546 136.517 199.518 136.815 198.567 136.77C197.616 136.726 196.853 136.312 196.276 135.529C195.715 134.738 195.435 133.613 195.435 132.155ZM198.801 130.209C198.801 131.451 199.066 132.288 199.596 132.72C200.141 133.125 200.819 133.093 201.629 132.624C202.44 132.156 203.11 131.409 203.64 130.382C204.17 129.338 204.435 128.195 204.435 126.953C204.435 125.711 204.17 124.874 203.64 124.442C203.11 124.011 202.44 124.029 201.63 124.497C200.819 124.966 200.141 125.727 199.596 126.78C199.066 127.824 198.801 128.967 198.801 130.209ZM218.454 125.033C217.659 126.248 216.552 127.266 215.134 128.085C213.825 128.842 212.766 129.059 211.955 128.735C211.16 128.384 210.763 127.174 210.763 125.104L210.763 119.461L208.613 120.704L208.613 117.545L210.763 116.302L210.764 112.009L214.013 110.131L214.013 114.424L217.659 112.316L217.659 115.475L214.013 117.583L214.012 122.605C214.012 123.541 214.153 124.171 214.433 124.495C214.714 124.819 215.166 124.8 215.789 124.44C216.334 124.125 216.849 123.639 217.332 122.981L218.454 125.033ZM225.094 107.668C226.17 107.046 227.12 106.776 227.946 106.856C228.788 106.91 229.435 107.31 229.886 108.057C230.354 108.777 230.588 109.785 230.588 111.081C230.588 111.657 230.541 112.269 230.447 112.917L222.406 117.565C222.546 118.528 222.873 119.13 223.388 119.373C223.902 119.598 224.541 119.49 225.305 119.048C225.85 118.733 226.333 118.319 226.754 117.806C227.19 117.265 227.525 116.649 227.759 115.956L230.143 116.197C229.816 117.413 229.185 118.569 228.25 119.668C227.33 120.757 226.302 121.631 225.164 122.288C224.073 122.919 223.06 123.225 222.125 123.208C221.19 123.19 220.434 122.79 219.858 122.007C219.297 121.216 219.016 120.037 219.016 118.471C219.017 116.923 219.297 115.438 219.858 114.015C220.435 112.584 221.183 111.324 222.102 110.234C223.022 109.145 224.019 108.289 225.094 107.668ZM225.001 110.773C224.362 111.142 223.816 111.691 223.365 112.421C222.913 113.15 222.609 113.983 222.453 114.919L227.268 112.135C227.206 111.307 226.964 110.79 226.544 110.583C226.139 110.349 225.624 110.413 225.001 110.773ZM235.979 115.713L232.73 117.591L232.73 97.0445L235.98 95.1664L235.979 115.713Z" fill="white"/>
</g>
<defs>
<filter id="filter0_b_54_1719" x="-39.0156" y="-91.9761" width="344.981" height="489.89" filterUnits="userSpaceOnUse" color-interpolation-filters="sRGB">
<feFlood flood-opacity="0" result="BackgroundImageFix"/>
<feGaussianBlur in="BackgroundImageFix" stdDeviation="67.957"/>
<feComposite in2="SourceAlpha" operator="in" result="effect1_backgroundBlur_54_1719"/>
<feBlend mode="normal" in="SourceGraphic" in2="effect1_backgroundBlur_54_1719" result="shape"/>
</filter>
<filter id="filter1_b_54_1719" x="-39.0156" y="-135.914" width="419.76" height="358.077" filterUnits="userSpaceOnUse" color-interpolation-filters="sRGB">
<feFlood flood-opacity="0" result="BackgroundImageFix"/>
<feGaussianBlur in="BackgroundImageFix" stdDeviation="67.957"/>
<feComposite in2="SourceAlpha" operator="in" result="effect1_backgroundBlur_54_1719"/>
<feBlend mode="normal" in="SourceGraphic" in2="effect1_backgroundBlur_54_1719" result="shape"/>
</filter>
<filter id="filter2_d_54_1719" x="174.291" y="95.1664" width="61.6887" height="54.2146" filterUnits="userSpaceOnUse" color-interpolation-filters="sRGB">
<feFlood flood-opacity="0" result="BackgroundImageFix"/>
<feColorMatrix in="SourceAlpha" type="matrix" values="0 0 0 0 0 0 0 0 0 0 0 0 0 0 0 0 0 0 127 0" result="hardAlpha"/>
<feOffset dx="-4"/>
<feComposite in2="hardAlpha" operator="out"/>
<feColorMatrix type="matrix" values="0 0 0 0 0.0117647 0 0 0 0 0.341176 0 0 0 0 0.121569 0 0 0 1 0"/>
<feBlend mode="normal" in2="BackgroundImageFix" result="effect1_dropShadow_54_1719"/>
<feBlend mode="normal" in="SourceGraphic" in2="effect1_dropShadow_54_1719" result="shape"/>
</filter>
</defs>
</svg>
