<svg width="121" height="88" viewBox="0 0 121 88" fill="none" xmlns="http://www.w3.org/2000/svg">
<path fill-rule="evenodd" clip-rule="evenodd" d="M0 35L60.25 70V88L0 53V35Z" fill="#03571F" fill-opacity="0.8"/>
<g filter="url(#filter0_b_54_1607)">
<path fill-rule="evenodd" clip-rule="evenodd" d="M60 0L120.25 35L60.25 70L0 35L60 0Z" fill="#03571F" fill-opacity="0.7"/>
</g>
<path fill-rule="evenodd" clip-rule="evenodd" d="M120.25 35L60 70V88L120.25 53V35Z" fill="#03571F"/>
<g filter="url(#filter1_d_54_1607)">
<path fill-rule="evenodd" clip-rule="evenodd" d="M60.6237 9L45.6549 17.75L50.395 20.75L57.131 16.75V25.1302C50.6135 25.755 45.3425 28.5689 43.5601 32.25H29.1892L35.4262 28.75L31.185 25.75L15.9667 34.75L31.185 43.75L35.4262 41L29.1892 37H43.25C44.6429 41.0449 50.1775 44.2032 57.131 44.8698V53L50.395 48.5L45.6549 51.75L60.6237 61.5L77.0894 51.75L72.0998 48.5L64.1164 53V44.685C70.3578 43.738 75.2092 40.75 76.5006 37H89.8129L83.3264 41L87.817 43.75L103.285 34.75L88.316 25.75L83.8254 28.75L89.8129 32.25H76.1904C74.5466 28.8552 69.9357 26.1979 64.1164 25.315V16.75L72.0998 20.75L77.0894 17.75L60.6237 9ZM59.8753 40C65.3866 40 69.8545 37.5376 69.8545 34.5C69.8545 31.4624 65.3866 29 59.8753 29C54.3639 29 49.896 31.4624 49.896 34.5C49.896 37.5376 54.3639 40 59.8753 40Z" fill="white"/>
</g>
<path d="M8.37324 52.962C8.77082 53.192 9.11214 53.2681 9.39719 53.1904C9.68974 53.117 9.92228 52.9136 10.0948 52.5801L11.4563 54.2778C11.2538 54.802 10.8825 55.1158 10.3424 55.2193C9.80233 55.3141 9.15721 55.1445 8.40706 54.7105C7.67941 54.2895 7.01552 53.7017 6.41539 52.9471C5.81525 52.1926 5.33889 51.3406 4.9863 50.3913C4.6337 49.4333 4.45739 48.469 4.45736 47.4983C4.45733 46.5276 4.62983 45.7695 4.97488 45.2238C5.32743 44.6824 5.80375 44.3817 6.40386 44.3216C7.01147 44.2658 7.6791 44.4485 8.40674 44.8695C9.15689 45.3035 9.80203 45.8848 10.3422 46.6133C10.8823 47.3331 11.2536 48.0723 11.4562 48.8308L10.0947 48.9531C9.92213 48.4199 9.68958 47.9473 9.39701 47.5354C9.11194 47.1278 8.77062 46.809 8.37304 46.579C7.95296 46.3359 7.57789 46.2489 7.24783 46.3179C6.91777 46.3869 6.65523 46.6077 6.46021 46.9802C6.27268 47.3483 6.17893 47.8531 6.17895 48.4944C6.17897 49.1357 6.27276 49.7533 6.46031 50.3472C6.65537 50.9453 6.91793 51.4699 7.24801 51.9209C7.57808 52.3719 7.95316 52.7189 8.37324 52.962ZM18.0689 57.3888C18.0689 58.0388 17.9226 58.5002 17.6301 58.7729C17.345 59.0413 16.97 59.145 16.5049 59.0839C16.0473 59.0271 15.556 58.8468 15.0309 58.543C14.2657 58.1003 13.5756 57.4973 12.9604 56.7341C12.3453 55.9621 11.9364 55.1406 11.7339 54.2694L13.0616 54.1666C13.2417 54.7561 13.5042 55.2851 13.8493 55.7534C14.1944 56.2217 14.607 56.5948 15.0871 56.8725C15.4771 57.0982 15.7847 57.1852 16.0097 57.1334C16.2423 57.0859 16.3585 56.8889 16.3585 56.5422C16.3585 56.2649 16.2798 55.9897 16.1222 55.7165C15.9722 55.4477 15.7809 55.194 15.5483 54.9555C15.3233 54.7213 15.012 54.4198 14.6144 54.0511C14.0818 53.5609 13.6467 53.1315 13.3091 52.7629C12.9715 52.3856 12.6827 51.9498 12.4427 51.4556C12.2026 50.9613 12.0826 50.4239 12.0825 49.8432C12.0825 49.2279 12.2213 48.7882 12.4988 48.5241C12.7839 48.2557 13.1552 48.1499 13.6128 48.2067C14.0779 48.2591 14.5767 48.4394 15.1093 48.7476C15.837 49.1686 16.4596 49.7195 16.9772 50.4003C17.4948 51.0811 17.8287 51.7899 17.9787 52.5267L16.651 52.6295C16.5159 52.144 16.3134 51.7105 16.0433 51.3289C15.7733 50.9387 15.4357 50.6264 15.0306 50.392C14.663 50.1793 14.363 50.1054 14.1304 50.1701C13.9054 50.2306 13.7929 50.4212 13.7929 50.7418C13.7929 50.9845 13.8642 51.2294 14.0067 51.4765C14.1492 51.715 14.3293 51.9492 14.5468 52.179C14.7719 52.4046 15.0719 52.6909 15.447 53.0379C15.9871 53.5324 16.4335 53.977 16.786 54.3716C17.1386 54.7576 17.4387 55.2086 17.6863 55.7245C17.9413 56.236 18.0689 56.7908 18.0689 57.3888ZM24.4352 54.3124L26.0667 55.2565L26.0669 60.9245C26.0669 61.7391 25.9282 62.3695 25.6506 62.8156C25.3731 63.253 24.9718 63.4844 24.4467 63.51C23.9216 63.5268 23.299 63.3269 22.5788 62.9102C21.8512 62.4892 21.2248 61.9664 20.6997 61.342C20.1746 60.7088 19.7732 60.0129 19.4957 59.2543C19.2181 58.4871 19.0793 57.6961 19.0793 56.8814L19.0791 51.2134L20.7107 52.1575L20.7108 57.3705C20.7108 58.2891 20.8722 59.0671 21.1947 59.7044C21.5248 60.3461 21.9862 60.8383 22.5788 61.1812C23.1639 61.5198 23.6177 61.557 23.9403 61.293C24.2703 61.0333 24.4353 60.4441 24.4353 59.5254L24.4352 54.3124ZM26.7121 65.1457L29.7949 57.4136L31.3027 58.286L28.2199 66.0181L26.7121 65.1457ZM35.035 60.4454C35.8376 60.9099 36.5615 61.515 37.2067 62.261C37.8593 63.0112 38.3732 63.8546 38.7483 64.7909C39.1234 65.7186 39.3109 66.6764 39.311 67.6644C39.311 68.6524 39.1235 69.3976 38.7484 69.8999C38.3734 70.4022 37.8633 70.6574 37.2182 70.6655C36.5731 70.6649 35.8454 70.4302 35.0353 69.9614L32.2897 68.3729L32.2894 58.8569L35.035 60.4454ZM34.8439 68.2388C35.7291 68.7509 36.408 68.8707 36.8805 68.5982C37.3531 68.3256 37.5894 67.6823 37.5894 66.6683C37.5893 65.6717 37.3493 64.7614 36.8692 63.9377C36.3965 63.1095 35.7214 62.4416 34.8437 61.9338L33.921 61.3999L33.9212 67.7049L34.8439 68.2388ZM46.2105 73.6714C46.2105 74.3214 46.0643 74.7828 45.7717 75.0555C45.4867 75.3239 45.1116 75.4276 44.6465 75.3665C44.1889 75.3097 43.6976 75.1294 43.1725 74.8256C42.4073 74.3829 41.7172 73.7799 41.1021 73.0167C40.4869 72.2448 40.0781 71.4232 39.8755 70.552L41.2032 70.4493C41.3833 71.0388 41.6459 71.5677 41.9909 72.036C42.336 72.5043 42.7486 72.8774 43.2287 73.1552C43.6188 73.3809 43.9263 73.4678 44.1514 73.416C44.3839 73.3686 44.5002 73.1715 44.5002 72.8249C44.5002 72.5475 44.4214 72.2723 44.2639 71.9991C44.1138 71.7303 43.9225 71.4766 43.69 71.2381C43.4649 71.0039 43.1536 70.7024 42.756 70.3337C42.2234 69.8436 41.7883 69.4142 41.4507 69.0455C41.1132 68.6682 40.8244 68.2324 40.5843 67.7382C40.3442 67.244 40.2242 66.7065 40.2242 66.1259C40.2242 65.5105 40.3629 65.0708 40.6405 64.8067C40.9255 64.5383 41.2968 64.4325 41.7544 64.4893C42.2195 64.5417 42.7183 64.722 43.2509 65.0302C43.9786 65.4512 44.6012 66.0021 45.1188 66.6829C45.6365 67.3637 45.9703 68.0726 46.1203 68.8094L44.7926 68.9121C44.6576 68.4267 44.455 67.9931 44.1849 67.6116C43.9149 67.2213 43.5773 66.909 43.1722 66.6746C42.8047 66.4619 42.5046 66.388 42.2721 66.4528C42.047 66.5132 41.9345 66.7038 41.9345 67.0245C41.9345 67.2671 42.0058 67.512 42.1483 67.7592C42.2909 67.9976 42.4709 68.2318 42.6885 68.4617C42.9135 68.6872 43.2136 68.9735 43.5886 69.3205C44.1288 69.815 44.5751 70.2596 44.9277 70.6542C45.2803 71.0402 45.5803 71.4912 45.8279 72.0071C46.0829 72.5187 46.2105 73.0734 46.2105 73.6714ZM52.5768 70.5951L54.2084 71.5391L54.2085 77.2071C54.2086 78.0218 54.0698 78.6521 53.7923 79.0982C53.5147 79.5356 53.1134 79.7671 52.5883 79.7926C52.0632 79.8094 51.4406 79.6095 50.7205 79.1928C49.9928 78.7718 49.3664 78.2491 48.8413 77.6246C48.3162 76.9914 47.9149 76.2956 47.6373 75.537C47.3597 74.7697 47.2209 73.9787 47.2209 73.1641L47.2207 67.4961L48.8523 68.4401L48.8525 73.6531C48.8525 74.5718 49.0138 75.3497 49.3364 75.987C49.6664 76.6287 50.1278 77.121 50.7204 77.4638C51.3055 77.8024 51.7594 77.8396 52.0819 77.5756C52.412 77.3159 52.577 76.7267 52.577 75.8081L52.5768 70.5951Z" fill="white"/>
<defs>
<filter id="filter0_b_54_1607" x="-135.914" y="-135.914" width="392.078" height="341.828" filterUnits="userSpaceOnUse" color-interpolation-filters="sRGB">
<feFlood flood-opacity="0" result="BackgroundImageFix"/>
<feGaussianBlur in="BackgroundImageFix" stdDeviation="67.957"/>
<feComposite in2="SourceAlpha" operator="in" result="effect1_backgroundBlur_54_1607"/>
<feBlend mode="normal" in="SourceGraphic" in2="effect1_backgroundBlur_54_1607" result="shape"/>
</filter>
<filter id="filter1_d_54_1607" x="15.9667" y="9" width="87.3181" height="54.5" filterUnits="userSpaceOnUse" color-interpolation-filters="sRGB">
<feFlood flood-opacity="0" result="BackgroundImageFix"/>
<feColorMatrix in="SourceAlpha" type="matrix" values="0 0 0 0 0 0 0 0 0 0 0 0 0 0 0 0 0 0 127 0" result="hardAlpha"/>
<feOffset dy="2"/>
<feComposite in2="hardAlpha" operator="out"/>
<feColorMatrix type="matrix" values="0 0 0 0 0.0117647 0 0 0 0 0.341176 0 0 0 0 0.121569 0 0 0 1 0"/>
<feBlend mode="normal" in2="BackgroundImageFix" result="effect1_dropShadow_54_1607"/>
<feBlend mode="normal" in="SourceGraphic" in2="effect1_dropShadow_54_1607" result="shape"/>
</filter>
</defs>
</svg>
