<svg width="121" height="88" viewBox="0 0 121 88" fill="none" xmlns="http://www.w3.org/2000/svg">
<path fill-rule="evenodd" clip-rule="evenodd" d="M0 35L60.25 70V88L0 53V35Z" fill="#03571F" fill-opacity="0.8"/>
<g filter="url(#filter0_b_54_1608)">
<path fill-rule="evenodd" clip-rule="evenodd" d="M60 0L120.25 35L60.25 70L0 35L60 0Z" fill="#03571F" fill-opacity="0.7"/>
</g>
<path fill-rule="evenodd" clip-rule="evenodd" d="M120.25 35L60 70V88L120.25 53V35Z" fill="#03571F"/>
<g filter="url(#filter1_d_54_1608)">
<path fill-rule="evenodd" clip-rule="evenodd" d="M60.6237 9L45.6549 17.75L50.395 20.75L57.131 16.75V25.1302C50.6135 25.755 45.3425 28.5689 43.5601 32.25H29.1892L35.4262 28.75L31.185 25.75L15.9667 34.75L31.185 43.75L35.4262 41L29.1892 37H43.25C44.6429 41.0449 50.1775 44.2032 57.131 44.8698V53L50.395 48.5L45.6549 51.75L60.6237 61.5L77.0894 51.75L72.0998 48.5L64.1164 53V44.685C70.3578 43.738 75.2092 40.75 76.5006 37H89.8129L83.3264 41L87.817 43.75L103.285 34.75L88.316 25.75L83.8254 28.75L89.8129 32.25H76.1904C74.5466 28.8552 69.9357 26.1979 64.1164 25.315V16.75L72.0998 20.75L77.0894 17.75L60.6237 9ZM59.8753 40C65.3866 40 69.8545 37.5376 69.8545 34.5C69.8545 31.4624 65.3866 29 59.8753 29C54.3639 29 49.896 31.4624 49.896 34.5C49.896 37.5376 54.3639 40 59.8753 40Z" fill="white"/>
</g>
<path d="M22.0582 52.6277C22.9226 53.1279 23.7022 53.7796 24.3969 54.5829C25.0998 55.3909 25.6532 56.2991 26.0571 57.3075C26.4611 58.3065 26.6631 59.338 26.6631 60.402C26.6631 61.466 26.4612 62.2685 26.0573 62.8095C25.6534 63.3504 25.1041 63.6253 24.4093 63.6339C23.7146 63.6333 22.931 63.3806 22.0585 62.8757L19.1018 61.165L19.1014 50.917L22.0582 52.6277ZM21.8524 61.0205C22.8057 61.5721 23.5368 61.7011 24.0457 61.4076C24.5547 61.1141 24.8091 60.4213 24.8091 59.3293C24.8091 58.256 24.5505 57.2757 24.0335 56.3886C23.5245 55.4968 22.7974 54.7774 21.8522 54.2305L20.8586 53.6556L20.8588 60.4456L21.8524 61.0205ZM31.9001 66.8761C32.3283 67.1238 32.6958 67.2058 33.0028 67.1221C33.3179 67.0431 33.5683 66.824 33.7541 66.4648L35.2204 68.2932C35.0023 68.8576 34.6024 69.1956 34.0208 69.3071C33.4391 69.4092 32.7444 69.2265 31.9365 68.7591C31.1529 68.3057 30.4379 67.6727 29.7916 66.8601C29.1453 66.0475 28.6323 65.13 28.2526 64.1077C27.8729 63.076 27.683 62.0375 27.683 60.9921C27.683 59.9468 27.8687 59.1303 28.2403 58.5427C28.62 57.9597 29.133 57.6358 29.7792 57.5711C30.4336 57.511 31.1526 57.7077 31.9362 58.1611C32.744 58.6285 33.4388 59.2545 34.0205 60.0391C34.6021 60.8143 35.002 61.6103 35.2202 62.4272L33.754 62.5588C33.5681 61.9846 33.3177 61.4757 33.0026 61.0321C32.6956 60.5932 32.3281 60.2498 31.8999 60.0021C31.4475 59.7403 31.0436 59.6466 30.6881 59.7209C30.3327 59.7953 30.0499 60.033 29.8399 60.4342C29.638 60.8306 29.537 61.3742 29.537 62.0649C29.537 62.7555 29.638 63.4206 29.84 64.0602C30.0501 64.7044 30.3328 65.2693 30.6883 65.7549C31.0438 66.2406 31.4477 66.6143 31.9001 66.8761ZM41.7114 69.9209L38.1124 67.8385L38.1125 70.3865L42.2689 72.7914L42.2689 74.5694L36.3554 71.1479L36.3551 60.8999L42.1353 64.2443L42.1354 66.0083L38.1123 63.6805L38.1123 66.0885L41.7113 68.1709L41.7114 69.9209Z" fill="white"/>
<defs>
<filter id="filter0_b_54_1608" x="-135.914" y="-135.914" width="392.078" height="341.828" filterUnits="userSpaceOnUse" color-interpolation-filters="sRGB">
<feFlood flood-opacity="0" result="BackgroundImageFix"/>
<feGaussianBlur in="BackgroundImageFix" stdDeviation="67.957"/>
<feComposite in2="SourceAlpha" operator="in" result="effect1_backgroundBlur_54_1608"/>
<feBlend mode="normal" in="SourceGraphic" in2="effect1_backgroundBlur_54_1608" result="shape"/>
</filter>
<filter id="filter1_d_54_1608" x="15.9667" y="9" width="87.3181" height="54.5" filterUnits="userSpaceOnUse" color-interpolation-filters="sRGB">
<feFlood flood-opacity="0" result="BackgroundImageFix"/>
<feColorMatrix in="SourceAlpha" type="matrix" values="0 0 0 0 0 0 0 0 0 0 0 0 0 0 0 0 0 0 127 0" result="hardAlpha"/>
<feOffset dy="2"/>
<feComposite in2="hardAlpha" operator="out"/>
<feColorMatrix type="matrix" values="0 0 0 0 0.0117647 0 0 0 0 0.341176 0 0 0 0 0.121569 0 0 0 1 0"/>
<feBlend mode="normal" in2="BackgroundImageFix" result="effect1_dropShadow_54_1608"/>
<feBlend mode="normal" in="SourceGraphic" in2="effect1_dropShadow_54_1608" result="shape"/>
</filter>
</defs>
</svg>
