<svg width="121" height="88" viewBox="0 0 121 88" fill="none" xmlns="http://www.w3.org/2000/svg">
<path fill-rule="evenodd" clip-rule="evenodd" d="M0 35L60.25 70V88L0 53V35Z" fill="#03571F" fill-opacity="0.8"/>
<g filter="url(#filter0_b_54_1606)">
<path fill-rule="evenodd" clip-rule="evenodd" d="M60 0L120.25 35L60.25 70L0 35L60 0Z" fill="#03571F" fill-opacity="0.7"/>
</g>
<path fill-rule="evenodd" clip-rule="evenodd" d="M120.25 35L60 70V88L120.25 53V35Z" fill="#03571F"/>
<g filter="url(#filter1_d_54_1606)">
<path fill-rule="evenodd" clip-rule="evenodd" d="M60.6237 9L45.6549 17.75L50.395 20.75L57.131 16.75V25.1302C50.6135 25.755 45.3425 28.5689 43.5601 32.25H29.1892L35.4262 28.75L31.185 25.75L15.9667 34.75L31.185 43.75L35.4262 41L29.1892 37H43.25C44.6429 41.0449 50.1775 44.2032 57.131 44.8698V53L50.395 48.5L45.6549 51.75L60.6237 61.5L77.0894 51.75L72.0998 48.5L64.1164 53V44.685C70.3578 43.738 75.2092 40.75 76.5006 37H89.8129L83.3264 41L87.817 43.75L103.285 34.75L88.316 25.75L83.8254 28.75L89.8129 32.25H76.1904C74.5466 28.8552 69.9357 26.1979 64.1164 25.315V16.75L72.0998 20.75L77.0894 17.75L60.6237 9ZM59.8753 40C65.3866 40 69.8545 37.5376 69.8545 34.5C69.8545 31.4625 65.3866 29 59.8753 29C54.3639 29 49.8961 31.4625 49.8961 34.5C49.8961 37.5376 54.3639 40 59.8753 40Z" fill="white"/>
</g>
<path d="M20.7703 51.46C21.6347 51.9601 22.4143 52.6119 23.1091 53.4152C23.8119 54.2232 24.3653 55.1313 24.7693 56.1397C25.1732 57.1388 25.3752 58.1703 25.3752 59.2343C25.3753 60.2983 25.1733 61.1008 24.7694 61.6417C24.3655 62.1827 23.8162 62.4575 23.1215 62.4662C22.4267 62.4655 21.6431 62.2128 20.7706 61.708L17.8139 59.9972L17.8136 49.7492L20.7703 51.46ZM20.5646 59.8528C21.5178 60.4044 22.2489 60.5334 22.7579 60.2398C23.2668 59.9463 23.5213 59.2536 23.5212 58.1616C23.5212 57.0882 23.2626 56.108 22.7456 55.2208C22.2366 54.329 21.5096 53.6097 20.5644 53.0628L19.5707 52.4879L19.5709 59.2779L20.5646 59.8528ZM25.6279 54.2706L32.7775 58.4073L32.7775 60.2133L30.0874 58.6568L30.0876 67.0988L28.3184 66.0751L28.3182 57.6331L25.628 56.0766L25.6279 54.2706ZM39.4958 62.2945L41.2529 63.3111L41.2531 69.4151C41.2532 70.2925 41.1037 70.9713 40.8048 71.4517C40.506 71.9228 40.0738 72.172 39.5083 72.1995C38.9428 72.2177 38.2723 72.0024 37.4967 71.5536C36.7131 71.1002 36.0386 70.5373 35.473 69.8647C34.9075 69.1829 34.4753 68.4335 34.1764 67.6165C33.8775 66.7903 33.728 65.9384 33.728 65.0611L33.7278 58.9571L35.4848 59.9738L35.485 65.5878C35.4851 66.5771 35.6588 67.4149 36.0062 68.1012C36.3616 68.7922 36.8585 69.3224 37.4967 69.6916C38.1268 70.0562 38.6155 70.0963 38.9629 69.812C39.3183 69.5323 39.4961 68.8978 39.496 67.9085L39.4958 62.2945Z" fill="white"/>
<defs>
<filter id="filter0_b_54_1606" x="-135.914" y="-135.914" width="392.078" height="341.828" filterUnits="userSpaceOnUse" color-interpolation-filters="sRGB">
<feFlood flood-opacity="0" result="BackgroundImageFix"/>
<feGaussianBlur in="BackgroundImageFix" stdDeviation="67.957"/>
<feComposite in2="SourceAlpha" operator="in" result="effect1_backgroundBlur_54_1606"/>
<feBlend mode="normal" in="SourceGraphic" in2="effect1_backgroundBlur_54_1606" result="shape"/>
</filter>
<filter id="filter1_d_54_1606" x="15.9667" y="9" width="87.3181" height="54.5" filterUnits="userSpaceOnUse" color-interpolation-filters="sRGB">
<feFlood flood-opacity="0" result="BackgroundImageFix"/>
<feColorMatrix in="SourceAlpha" type="matrix" values="0 0 0 0 0 0 0 0 0 0 0 0 0 0 0 0 0 0 127 0" result="hardAlpha"/>
<feOffset dy="2"/>
<feComposite in2="hardAlpha" operator="out"/>
<feColorMatrix type="matrix" values="0 0 0 0 0.0117647 0 0 0 0 0.341176 0 0 0 0 0.121569 0 0 0 1 0"/>
<feBlend mode="normal" in2="BackgroundImageFix" result="effect1_dropShadow_54_1606"/>
<feBlend mode="normal" in="SourceGraphic" in2="effect1_dropShadow_54_1606" result="shape"/>
</filter>
</defs>
</svg>
