<svg width="121" height="88" viewBox="0 0 121 88" fill="none" xmlns="http://www.w3.org/2000/svg">
<path fill-rule="evenodd" clip-rule="evenodd" d="M0 35L60.25 70V88L0 53V35Z" fill="#03571F" fill-opacity="0.8"/>
<g filter="url(#filter0_b_54_1605)">
<path fill-rule="evenodd" clip-rule="evenodd" d="M60 0L120.25 35L60.25 70L0 35L60 0Z" fill="#03571F" fill-opacity="0.7"/>
</g>
<path fill-rule="evenodd" clip-rule="evenodd" d="M120.25 35L60 70V88L120.25 53V35Z" fill="#03571F"/>
<g filter="url(#filter1_d_54_1605)">
<path fill-rule="evenodd" clip-rule="evenodd" d="M60.6237 9L45.6549 17.75L50.395 20.75L57.131 16.75V25.1302C50.6135 25.755 45.3425 28.5689 43.5601 32.25H29.1892L35.4262 28.75L31.185 25.75L15.9667 34.75L31.185 43.75L35.4262 41L29.1892 37H43.25C44.6429 41.0449 50.1775 44.2032 57.131 44.8698V53L50.395 48.5L45.6549 51.75L60.6237 61.5L77.0894 51.75L72.0998 48.5L64.1164 53V44.685C70.3578 43.738 75.2092 40.75 76.5006 37H89.8129L83.3264 41L87.817 43.75L103.285 34.75L88.316 25.75L83.8254 28.75L89.8129 32.25H76.1904C74.5466 28.8552 69.9357 26.1979 64.1164 25.315V16.75L72.0998 20.75L77.0894 17.75L60.6237 9ZM59.8753 40C65.3866 40 69.8545 37.5376 69.8545 34.5C69.8545 31.4624 65.3866 29 59.8753 29C54.3639 29 49.896 31.4624 49.896 34.5C49.896 37.5376 54.3639 40 59.8753 40Z" fill="white"/>
</g>
<path d="M22.3406 52.3685C23.0434 52.7752 23.6574 53.2704 24.1825 53.8543C24.7076 54.4381 25.1115 55.0685 25.3943 55.7454C25.6851 56.4177 25.8306 57.0945 25.8306 57.7758C25.8306 58.4478 25.6852 58.9563 25.3944 59.3014C25.1117 59.6418 24.7078 59.8001 24.1827 59.7763C23.6576 59.7431 23.0436 59.5232 22.3408 59.1165L21.0442 58.3663L21.0443 61.8663L19.2872 60.8497L19.2869 50.6017L22.3406 52.3685ZM22.1468 57.2823C22.6962 57.6002 23.1365 57.7196 23.4677 57.6406C23.7989 57.5522 23.9645 57.2374 23.9645 56.696C23.9644 56.1547 23.7988 55.6482 23.4676 55.1766C23.1364 54.6956 22.6961 54.2962 22.1467 53.9783L21.044 53.3403L21.0441 56.6443L22.1468 57.2823ZM32.9889 65.8095C32.989 66.5095 32.8315 67.0064 32.5164 67.3001C32.2094 67.5891 31.8055 67.7007 31.3047 67.6349C30.8119 67.5738 30.2827 67.3796 29.7172 67.0525C28.8932 66.5757 28.15 65.9263 27.4875 65.1044C26.8251 64.2731 26.3848 63.3883 26.1666 62.4501L27.5965 62.3395C27.7904 62.9743 28.0732 63.5439 28.4448 64.0483C28.8164 64.5526 29.2607 64.9544 29.7778 65.2535C30.1979 65.4966 30.5291 65.5902 30.7714 65.5344C31.0218 65.4833 31.1471 65.2711 31.147 64.8978C31.147 64.5991 31.0622 64.3027 30.8925 64.0085C30.731 63.7191 30.525 63.4459 30.2745 63.189C30.0322 62.9367 29.6969 62.6121 29.2687 62.215C28.6951 61.6872 28.2266 61.2247 27.863 60.8277C27.4995 60.4214 27.1885 59.9521 26.9299 59.4198C26.6714 58.8876 26.5422 58.3088 26.5421 57.6835C26.5421 57.0208 26.6915 56.5473 26.9904 56.2629C27.2974 55.9739 27.6973 55.8599 28.1901 55.921C28.6909 55.9775 29.2281 56.1717 29.8017 56.5035C30.5853 56.9569 31.2559 57.5502 31.8133 58.2834C32.3707 59.0166 32.7302 59.7799 32.8918 60.5734L31.462 60.6841C31.3165 60.1613 31.0984 59.6944 30.8076 59.2835C30.5167 58.8632 30.1532 58.5269 29.717 58.2745C29.3211 58.0454 28.998 57.9658 28.7475 58.0355C28.5052 58.1007 28.384 58.3059 28.384 58.6512C28.384 58.9125 28.4608 59.1763 28.6143 59.4424C28.7678 59.6992 28.9617 59.9514 29.196 60.199C29.4383 60.4419 29.7615 60.7502 30.1654 61.1239C30.7471 61.6564 31.2277 62.1352 31.6074 62.5602C31.9871 62.9759 32.3103 63.4615 32.5769 64.0171C32.8516 64.568 32.9889 65.1655 32.9889 65.8095ZM39.5301 68.2362L35.9311 66.1538L35.9312 68.7018L40.0876 71.1067L40.0876 72.8847L34.1741 69.4632L34.1738 59.2152L39.954 62.5596L39.9541 64.3236L35.9309 61.9958L35.931 64.4038L39.53 66.4862L39.5301 68.2362Z" fill="white"/>
<defs>
<filter id="filter0_b_54_1605" x="-135.914" y="-135.914" width="392.078" height="341.828" filterUnits="userSpaceOnUse" color-interpolation-filters="sRGB">
<feFlood flood-opacity="0" result="BackgroundImageFix"/>
<feGaussianBlur in="BackgroundImageFix" stdDeviation="67.957"/>
<feComposite in2="SourceAlpha" operator="in" result="effect1_backgroundBlur_54_1605"/>
<feBlend mode="normal" in="SourceGraphic" in2="effect1_backgroundBlur_54_1605" result="shape"/>
</filter>
<filter id="filter1_d_54_1605" x="15.9667" y="9" width="87.3181" height="54.5" filterUnits="userSpaceOnUse" color-interpolation-filters="sRGB">
<feFlood flood-opacity="0" result="BackgroundImageFix"/>
<feColorMatrix in="SourceAlpha" type="matrix" values="0 0 0 0 0 0 0 0 0 0 0 0 0 0 0 0 0 0 127 0" result="hardAlpha"/>
<feOffset dy="2"/>
<feComposite in2="hardAlpha" operator="out"/>
<feColorMatrix type="matrix" values="0 0 0 0 0.0117647 0 0 0 0 0.341176 0 0 0 0 0.121569 0 0 0 1 0"/>
<feBlend mode="normal" in2="BackgroundImageFix" result="effect1_dropShadow_54_1605"/>
<feBlend mode="normal" in="SourceGraphic" in2="effect1_dropShadow_54_1605" result="shape"/>
</filter>
</defs>
</svg>
