<svg width="121" height="88" viewBox="0 0 121 88" fill="none" xmlns="http://www.w3.org/2000/svg">
<path fill-rule="evenodd" clip-rule="evenodd" d="M0 35L60.25 70V88L0 53V35Z" fill="#03571F" fill-opacity="0.8"/>
<g filter="url(#filter0_b_53_1585)">
<path fill-rule="evenodd" clip-rule="evenodd" d="M60 0L120.25 35L60.25 70L0 35L60 0Z" fill="#03571F" fill-opacity="0.7"/>
</g>
<path fill-rule="evenodd" clip-rule="evenodd" d="M120.25 35L60 70V88L120.25 53V35Z" fill="#03571F"/>
<g filter="url(#filter1_d_53_1585)">
<path fill-rule="evenodd" clip-rule="evenodd" d="M61.6216 7L46.6528 15.75L51.3929 18.75L58.1289 14.75V23.1302C51.6114 23.755 46.3404 26.5689 44.5581 30.25H30.1871L36.4241 26.75L32.183 23.75L16.9647 32.75L32.183 41.75L36.4241 39L30.1871 35H44.2479C45.6408 39.0449 51.1755 42.2032 58.1289 42.8698V51L51.3929 46.5L46.6528 49.75L61.6216 59.5L78.0873 49.75L73.0977 46.5L65.1143 51V42.685C71.3558 41.738 76.2071 38.75 77.4985 35H90.8108L84.3243 39L88.815 41.75L104.283 32.75L89.3139 23.75L84.8233 26.75L90.8108 30.25H77.1883C75.5446 26.8552 70.9337 24.1979 65.1143 23.315V14.75L73.0977 18.75L78.0873 15.75L61.6216 7ZM60.8732 38C66.3845 38 70.8524 35.5376 70.8524 32.5C70.8524 29.4624 66.3845 27 60.8732 27C55.3618 27 50.894 29.4624 50.894 32.5C50.894 35.5376 55.3618 38 60.8732 38Z" fill="white"/>
</g>
<path d="M24.682 53.7232L21.5678 56.9193L24.8277 64.0554L22.6465 62.7933L20.4894 57.9473L18.3204 60.2903L16.2846 59.1124L19.532 55.7834L16.4297 48.9485L18.5746 50.1895L20.6105 54.7554L22.6462 52.5453L24.682 53.7232ZM26.5922 65.2723C26.3175 65.1134 26.0832 64.8612 25.8893 64.5156C25.6954 64.1701 25.5985 63.834 25.5985 63.5074C25.5985 63.1807 25.6954 62.9568 25.8893 62.8356C26.0831 62.7145 26.3174 62.7334 26.5921 62.8923C26.8748 63.0559 27.1132 63.3105 27.3071 63.656C27.509 64.0062 27.61 64.3446 27.61 64.6712C27.61 64.9979 27.5091 65.2195 27.3071 65.336C27.1132 65.4571 26.8749 65.4359 26.5922 65.2723ZM31.3507 66.0516L34.9012 68.1059L34.9013 69.8839L28.7818 66.3432L28.7818 65.0272L31.4597 63.1047C31.9201 62.7738 32.2392 62.4918 32.4169 62.2586C32.6027 62.0208 32.6956 61.7199 32.6956 61.3559C32.6956 60.9545 32.5987 60.5764 32.4048 60.2216C32.2109 59.8667 31.9483 59.5935 31.6171 59.4019C31.2778 59.2055 30.9789 59.1773 30.7204 59.317C30.4619 59.4474 30.264 59.7343 30.1267 60.1775L28.7452 58.4542C28.9552 57.745 29.3349 57.3301 29.8842 57.2092C30.4335 57.0791 31.0677 57.222 31.7867 57.638C32.3522 57.9652 32.8409 58.3833 33.2529 58.8924C33.673 59.3968 33.9922 59.9454 34.2103 60.5383C34.4365 61.1358 34.5496 61.7333 34.5496 62.3306C34.5497 62.9186 34.4245 63.3968 34.174 63.7652C33.9317 64.129 33.4955 64.5346 32.8654 64.982L31.3507 66.0516ZM39.3554 65.7972C39.8644 66.0917 40.3289 66.5004 40.749 67.0235C41.1691 67.5372 41.5003 68.1209 41.7427 68.7744C41.9851 69.4186 42.1062 70.0721 42.1063 70.7348C42.1063 71.4534 41.969 71.9993 41.6943 72.3724C41.4277 72.7408 41.0602 72.9294 40.5916 72.9383C40.1231 72.9379 39.6061 72.7741 39.0406 72.4469C38.3701 72.0589 37.7884 71.5451 37.2956 70.9053C36.8109 70.2701 36.4675 69.5348 36.2655 68.6993L37.6833 68.5816C37.7883 69.0624 37.958 69.4779 38.1923 69.8281C38.4265 70.1783 38.7012 70.4446 39.0163 70.6269C39.4121 70.8559 39.7151 70.8819 39.9251 70.7047C40.1432 70.5229 40.2523 70.1987 40.2522 69.732C40.2522 69.2654 40.1391 68.8126 39.9129 68.3737C39.6948 67.9302 39.3797 67.5892 38.9677 67.3508C38.4345 67.0423 38.0104 67.1003 37.6954 67.5246L36.4351 66.0815L37.0408 60.86L41.694 63.5524L41.6941 65.2884L38.5192 63.4514L38.2769 65.4252C38.6243 65.4582 38.9838 65.5822 39.3554 65.7972Z" fill="white"/>
<defs>
<filter id="filter0_b_53_1585" x="-135.914" y="-135.914" width="392.078" height="341.828" filterUnits="userSpaceOnUse" color-interpolation-filters="sRGB">
<feFlood flood-opacity="0" result="BackgroundImageFix"/>
<feGaussianBlur in="BackgroundImageFix" stdDeviation="67.957"/>
<feComposite in2="SourceAlpha" operator="in" result="effect1_backgroundBlur_53_1585"/>
<feBlend mode="normal" in="SourceGraphic" in2="effect1_backgroundBlur_53_1585" result="shape"/>
</filter>
<filter id="filter1_d_53_1585" x="16.9647" y="7" width="87.3181" height="54.5" filterUnits="userSpaceOnUse" color-interpolation-filters="sRGB">
<feFlood flood-opacity="0" result="BackgroundImageFix"/>
<feColorMatrix in="SourceAlpha" type="matrix" values="0 0 0 0 0 0 0 0 0 0 0 0 0 0 0 0 0 0 127 0" result="hardAlpha"/>
<feOffset dy="2"/>
<feComposite in2="hardAlpha" operator="out"/>
<feColorMatrix type="matrix" values="0 0 0 0 0.0117647 0 0 0 0 0.341176 0 0 0 0 0.121569 0 0 0 1 0"/>
<feBlend mode="normal" in2="BackgroundImageFix" result="effect1_dropShadow_53_1585"/>
<feBlend mode="normal" in="SourceGraphic" in2="effect1_dropShadow_53_1585" result="shape"/>
</filter>
</defs>
</svg>
