<svg width="121" height="88" viewBox="0 0 121 88" fill="none" xmlns="http://www.w3.org/2000/svg">
<path fill-rule="evenodd" clip-rule="evenodd" d="M0 35L60.25 70V88L0 53V35Z" fill="#03571F" fill-opacity="0.8"/>
<g filter="url(#filter0_b_53_1580)">
<path fill-rule="evenodd" clip-rule="evenodd" d="M60 0L120.25 35L60.25 70L0 35L60 0Z" fill="#03571F" fill-opacity="0.7"/>
</g>
<path fill-rule="evenodd" clip-rule="evenodd" d="M120.25 35L60 70V88L120.25 53V35Z" fill="#03571F"/>
<g filter="url(#filter1_d_53_1580)">
<path fill-rule="evenodd" clip-rule="evenodd" d="M32.9314 26.5V18H47.6507V20.75H41.4137L48.0179 24.5002C51.2637 23.0884 55.3183 22.25 59.7165 22.25C64.1959 22.25 68.3188 23.1197 71.5939 24.5789L78.3368 20.75H72.0998V18H86.8191V26.5H82.079V23L75.56 26.9662C77.7393 28.7476 79.0172 30.9137 79.0172 33.25C79.0172 35.9275 77.3387 38.3816 74.5486 40.2891L75.0936 40L82.079 44.25V40.75H86.8191V49.25H72.0998V46.5H78.3368L70.8524 42.25L70.969 42.1881C67.8012 43.4858 63.9155 44.25 59.7165 44.25C55.6571 44.25 51.8905 43.5358 48.7823 42.3158L41.4137 46.5H47.6507V49.25H32.9314V40.75H37.6715V44.25L44.5583 40.06C41.9641 38.187 40.4158 35.8215 40.4158 33.25C40.4158 30.8654 41.7472 28.658 44.0095 26.856L37.6715 23V26.5H32.9314ZM73.3472 33.25C73.3472 37.6683 67.3156 41.25 59.8753 41.25C52.4349 41.25 46.4033 37.6683 46.4033 33.25C46.4033 28.8317 52.4349 25.25 59.8753 25.25C67.3156 25.25 73.3472 28.8317 73.3472 33.25ZM58.1691 26.5945L59.9235 27.6094L52.6396 31.8232L56.6687 34.1541L55.0958 35.064L49.3123 31.7182L58.1691 26.5945ZM65.1393 35.5266C65.4458 35.9185 65.5466 36.2942 65.4418 36.6535C65.345 37.0082 65.0304 37.3395 64.498 37.6474C63.9495 37.9648 63.3365 38.1561 62.6589 38.2214C61.9975 38.2867 61.324 38.2424 60.6383 38.0884C59.9688 37.9344 59.3477 37.6918 58.775 37.3605C58.041 36.9358 57.5731 36.4645 57.3715 35.9465C57.1779 35.4332 57.2989 34.9199 57.7345 34.4066L59.9245 34.7496C59.6341 35.0669 59.5292 35.3749 59.6099 35.6736C59.6986 35.9675 59.9285 36.2219 60.2995 36.4365C60.6625 36.6465 61.0699 36.7608 61.5216 36.7795C61.9813 36.8028 62.3968 36.7072 62.7678 36.4925C63.5825 36.0212 63.3687 35.4262 62.1265 34.7076L61.7999 34.5186L63.2518 33.6787L63.7237 33.9517C64.1834 34.2176 64.6432 34.3576 65.103 34.3716C65.5789 34.3856 65.9822 34.297 66.3129 34.1056C66.6194 33.9283 66.7646 33.7277 66.7485 33.5037C66.7324 33.2797 66.563 33.0744 66.2403 32.8877C65.8935 32.6871 65.4781 32.5774 64.9941 32.5587C64.5263 32.5401 64.0181 32.6101 63.4696 32.7687L62.9009 31.5578C63.7882 31.2871 64.6714 31.2008 65.5507 31.2988C66.438 31.3921 67.2405 31.6464 67.9584 32.0618C68.515 32.3837 68.8982 32.7267 69.1079 33.0907C69.3337 33.4547 69.3781 33.8117 69.241 34.1616C69.1039 34.5116 68.7933 34.8266 68.3093 35.1066C67.8576 35.3679 67.3615 35.5336 66.8211 35.6036C66.2887 35.6782 65.7281 35.6526 65.1393 35.5266Z" fill="white"/>
</g>
<defs>
<filter id="filter0_b_53_1580" x="-135.914" y="-135.914" width="392.078" height="341.828" filterUnits="userSpaceOnUse" color-interpolation-filters="sRGB">
<feFlood flood-opacity="0" result="BackgroundImageFix"/>
<feGaussianBlur in="BackgroundImageFix" stdDeviation="67.957"/>
<feComposite in2="SourceAlpha" operator="in" result="effect1_backgroundBlur_53_1580"/>
<feBlend mode="normal" in="SourceGraphic" in2="effect1_backgroundBlur_53_1580" result="shape"/>
</filter>
<filter id="filter1_d_53_1580" x="32.9314" y="18" width="53.8877" height="33.25" filterUnits="userSpaceOnUse" color-interpolation-filters="sRGB">
<feFlood flood-opacity="0" result="BackgroundImageFix"/>
<feColorMatrix in="SourceAlpha" type="matrix" values="0 0 0 0 0 0 0 0 0 0 0 0 0 0 0 0 0 0 127 0" result="hardAlpha"/>
<feOffset dy="2"/>
<feComposite in2="hardAlpha" operator="out"/>
<feColorMatrix type="matrix" values="0 0 0 0 0.0117647 0 0 0 0 0.341176 0 0 0 0 0.121569 0 0 0 1 0"/>
<feBlend mode="normal" in2="BackgroundImageFix" result="effect1_dropShadow_53_1580"/>
<feBlend mode="normal" in="SourceGraphic" in2="effect1_dropShadow_53_1580" result="shape"/>
</filter>
</defs>
</svg>
