<svg width="121" height="88" viewBox="0 0 121 88" fill="none" xmlns="http://www.w3.org/2000/svg">
<path fill-rule="evenodd" clip-rule="evenodd" d="M0 35L60.25 70V88L0 53V35Z" fill="#03571F" fill-opacity="0.8"/>
<g filter="url(#filter0_b_53_1583)">
<path fill-rule="evenodd" clip-rule="evenodd" d="M60 0L120.25 35L60.25 70L0 35L60 0Z" fill="#03571F" fill-opacity="0.7"/>
</g>
<path fill-rule="evenodd" clip-rule="evenodd" d="M120.25 35L60 70V88L120.25 53V35Z" fill="#03571F"/>
<g filter="url(#filter1_d_53_1583)">
<path fill-rule="evenodd" clip-rule="evenodd" d="M60.6237 7L45.6549 15.75L50.395 18.75L57.131 14.75V23.1302C50.6135 23.755 45.3425 26.5689 43.5601 30.25H29.1892L35.4262 26.75L31.185 23.75L15.9667 32.75L31.185 41.75L35.4262 39L29.1892 35H43.25C44.6429 39.0449 50.1775 42.2032 57.131 42.8698V51L50.395 46.5L45.6549 49.75L60.6237 59.5L77.0894 49.75L72.0998 46.5L64.1164 51V42.685C70.3578 41.738 75.2092 38.75 76.5006 35H89.8129L83.3264 39L87.817 41.75L103.285 32.75L88.316 23.75L83.8254 26.75L89.8129 30.25H76.1904C74.5466 26.8552 69.9357 24.1979 64.1164 23.315V14.75L72.0998 18.75L77.0894 15.75L60.6237 7ZM59.8753 38C65.3866 38 69.8545 35.5376 69.8545 32.5C69.8545 29.4624 65.3866 27 59.8753 27C54.3639 27 49.896 29.4624 49.896 32.5C49.896 35.5376 54.3639 38 59.8753 38Z" fill="white"/>
</g>
<path d="M15.2634 48.2737L17.0205 49.2903L17.0207 57.7183L21.056 60.0531L21.056 61.8731L15.2637 58.5217L15.2634 48.2737ZM21.6064 58.5656C21.6064 57.8096 21.7518 57.2264 22.0426 56.816C22.3415 56.4103 22.7373 56.196 23.2301 56.1732C23.7229 56.1409 24.2561 56.2908 24.8296 56.6226C25.3951 56.9498 25.9203 57.4123 26.405 58.0101C26.8978 58.6032 27.2896 59.2733 27.5805 60.0202C27.8794 60.7718 28.0289 61.5256 28.0289 62.2816C28.0289 63.0376 27.8795 63.6185 27.5806 64.0242C27.2898 64.4346 26.898 64.6512 26.4052 64.6741C25.9205 64.7017 25.3954 64.5518 24.8299 64.2246C24.2563 63.8928 23.7231 63.4303 23.2303 62.8372C22.7375 62.244 22.3417 61.5717 22.0427 60.82C21.7519 60.0731 21.6065 59.3216 21.6064 58.5656ZM23.3514 59.5753C23.3514 60.2193 23.4888 60.8121 23.7635 61.3536C24.0462 61.8906 24.3976 62.2806 24.8177 62.5236C25.2378 62.7667 25.5852 62.781 25.8598 62.5666C26.1345 62.3429 26.2718 61.909 26.2718 61.265C26.2718 60.621 26.1344 60.0282 25.8597 59.4866C25.5851 58.945 25.2377 58.5527 24.8176 58.3096C24.3975 58.0666 24.0461 58.0546 23.7634 58.2736C23.4887 58.4974 23.3514 58.9313 23.3514 59.5753ZM32.0713 66.7205C32.556 67.001 32.9437 66.95 33.2346 66.5676L34.5191 68.1788C34.3171 68.6033 33.998 68.8293 33.5618 68.8569C33.1256 68.8845 32.6287 68.737 32.0713 68.4145C31.5139 68.092 30.9928 67.6458 30.5081 67.076C30.0234 66.4969 29.6316 65.8362 29.3326 65.094C29.0337 64.3423 28.8842 63.5699 28.8842 62.7765C28.8842 61.9739 29.0336 61.3743 29.3325 60.978C29.6314 60.5722 30.0232 60.3649 30.5079 60.356C30.9926 60.3378 31.5137 60.49 32.0711 60.8125C32.6285 61.135 33.1253 61.5625 33.5616 62.0949C33.9978 62.6273 34.317 63.2226 34.5189 63.8808L33.2345 64.0056C32.9517 63.3007 32.5639 62.8056 32.0711 62.5205C31.6349 62.2681 31.2835 62.2561 31.0169 62.4845C30.7584 62.7083 30.6292 63.1422 30.6292 63.7862C30.6292 64.4208 30.7625 65.0066 31.0291 65.5435C31.2957 66.0805 31.6431 66.4728 32.0713 66.7205ZM37.9958 64.2405C38.8441 64.7313 39.5065 65.3946 39.9832 66.2304C40.4598 67.0568 40.6982 67.9834 40.6982 69.0101L40.6984 73.2381L39.2806 72.4177C39.2725 72.3384 39.2604 72.2101 39.2442 72.0327C39.2361 71.8507 39.22 71.6874 39.1957 71.5427C39.0099 71.7712 38.7676 71.8829 38.4687 71.878C38.1779 71.8684 37.8224 71.7421 37.4023 71.499C36.9661 71.2466 36.5662 70.9265 36.2026 70.5389C35.8472 70.1559 35.5644 69.7356 35.3544 69.2781C35.1443 68.8112 35.0393 68.3445 35.0393 67.8778C35.0393 67.3925 35.1564 67.0402 35.3906 66.8211C35.633 66.5973 35.9561 66.5043 36.36 66.542C36.764 66.5797 37.2083 66.7388 37.693 67.0193C38.1292 67.2717 38.5776 67.6151 39.0381 68.0495C39.0138 66.9622 38.6179 66.1965 37.8505 65.7524C37.2365 65.3972 36.7882 65.4551 36.5054 65.9262L35.3057 64.434C35.5319 64.0236 35.8793 63.7999 36.3478 63.763C36.8164 63.7168 37.3657 63.876 37.9958 64.2405ZM39.0381 69.3375C38.6342 68.9918 38.2828 68.7325 37.9839 68.5595C37.588 68.3305 37.281 68.2369 37.0629 68.2787C36.8448 68.3111 36.7358 68.4767 36.7358 68.7754C36.7358 69.046 36.8206 69.3051 36.9903 69.5526C37.168 69.8048 37.3942 70.0103 37.6689 70.1692C38.0324 70.3796 38.3515 70.4475 38.6262 70.3731C38.9008 70.2894 39.0381 70.0375 39.0381 69.6175L39.0381 69.3375ZM43.8666 75.0712L42.1822 74.0966L42.1819 63.4426L43.8663 64.4172L43.8666 75.0712Z" fill="white"/>
<defs>
<filter id="filter0_b_53_1583" x="-135.914" y="-135.914" width="392.078" height="341.828" filterUnits="userSpaceOnUse" color-interpolation-filters="sRGB">
<feFlood flood-opacity="0" result="BackgroundImageFix"/>
<feGaussianBlur in="BackgroundImageFix" stdDeviation="67.957"/>
<feComposite in2="SourceAlpha" operator="in" result="effect1_backgroundBlur_53_1583"/>
<feBlend mode="normal" in="SourceGraphic" in2="effect1_backgroundBlur_53_1583" result="shape"/>
</filter>
<filter id="filter1_d_53_1583" x="15.9667" y="7" width="87.3181" height="54.5" filterUnits="userSpaceOnUse" color-interpolation-filters="sRGB">
<feFlood flood-opacity="0" result="BackgroundImageFix"/>
<feColorMatrix in="SourceAlpha" type="matrix" values="0 0 0 0 0 0 0 0 0 0 0 0 0 0 0 0 0 0 127 0" result="hardAlpha"/>
<feOffset dy="2"/>
<feComposite in2="hardAlpha" operator="out"/>
<feColorMatrix type="matrix" values="0 0 0 0 0.0117647 0 0 0 0 0.341176 0 0 0 0 0.121569 0 0 0 1 0"/>
<feBlend mode="normal" in2="BackgroundImageFix" result="effect1_dropShadow_53_1583"/>
<feBlend mode="normal" in="SourceGraphic" in2="effect1_dropShadow_53_1583" result="shape"/>
</filter>
</defs>
</svg>
