<svg width="121" height="88" viewBox="0 0 121 88" fill="none" xmlns="http://www.w3.org/2000/svg">
<path fill-rule="evenodd" clip-rule="evenodd" d="M0 35L60.25 70V88L0 53V35Z" fill="#03571F" fill-opacity="0.8"/>
<g filter="url(#filter0_b_53_1586)">
<path fill-rule="evenodd" clip-rule="evenodd" d="M60 0L120.25 35L60.25 70L0 35L60 0Z" fill="#03571F" fill-opacity="0.7"/>
</g>
<path fill-rule="evenodd" clip-rule="evenodd" d="M120.25 35L60 70V88L120.25 53V35Z" fill="#03571F"/>
<g filter="url(#filter1_d_53_1586)">
<path fill-rule="evenodd" clip-rule="evenodd" d="M61.6216 7L46.6528 15.75L51.3929 18.75L58.1289 14.75V23.1302C51.6114 23.755 46.3404 26.5689 44.5581 30.25H30.1871L36.4241 26.75L32.183 23.75L16.9647 32.75L32.183 41.75L36.4241 39L30.1871 35H44.2479C45.6408 39.0449 51.1755 42.2032 58.1289 42.8698V51L51.3929 46.5L46.6528 49.75L61.6216 59.5L78.0873 49.75L73.0977 46.5L65.1143 51V42.685C71.3558 41.738 76.2071 38.75 77.4985 35H90.8108L84.3243 39L88.815 41.75L104.283 32.75L89.3139 23.75L84.8233 26.75L90.8108 30.25H77.1883C75.5445 26.8552 70.9337 24.1979 65.1143 23.315V14.75L73.0977 18.75L78.0873 15.75L61.6216 7ZM60.8732 38C66.3845 38 70.8524 35.5376 70.8524 32.5C70.8524 29.4624 66.3845 27 60.8732 27C55.3618 27 50.894 29.4624 50.894 32.5C50.894 35.5376 55.3618 38 60.8732 38Z" fill="white"/>
</g>
<path d="M15.0062 54.8288C15.0063 55.4288 14.8712 55.8547 14.6012 56.1064C14.3381 56.3542 13.9919 56.4499 13.5626 56.3935C13.1402 56.3411 12.6866 56.1747 12.2019 55.8942C11.4956 55.4855 10.8586 54.9289 10.2907 54.2244C9.72293 53.5119 9.34553 52.7535 9.15854 51.9494L10.3842 51.8545C10.5504 52.3987 10.7927 52.8869 11.1113 53.3192C11.4298 53.7515 11.8106 54.0958 12.2538 54.3522C12.6139 54.5606 12.8978 54.6408 13.1055 54.593C13.3202 54.5492 13.4275 54.3673 13.4275 54.0473C13.4275 53.7913 13.3547 53.5373 13.2093 53.2851C13.0708 53.037 12.8943 52.8028 12.6796 52.5826C12.4719 52.3665 12.1845 52.0882 11.8175 51.7478C11.3258 51.2954 10.9242 50.899 10.6126 50.5587C10.301 50.2104 10.0344 49.8082 9.81281 49.352C9.59122 48.8958 9.48041 48.3997 9.4804 47.8637C9.48038 47.2957 9.60847 46.8898 9.86466 46.646C10.1278 46.3983 10.4705 46.3006 10.8929 46.353C11.3222 46.4014 11.7827 46.5678 12.2743 46.8523C12.946 47.2409 13.5207 47.7494 13.9985 48.3779C14.4763 49.0063 14.7845 49.6606 14.923 50.3407L13.6974 50.4356C13.5727 49.9875 13.3858 49.5873 13.1365 49.2351C12.8872 48.8748 12.5756 48.5865 12.2017 48.3702C11.8624 48.1739 11.5854 48.1056 11.3708 48.1654C11.163 48.2212 11.0592 48.3971 11.0592 48.6931C11.0592 48.9171 11.125 49.1432 11.2565 49.3713C11.3881 49.5914 11.5543 49.8076 11.7551 50.0198C11.9628 50.228 12.2398 50.4922 12.5861 50.8126C13.0846 51.269 13.4966 51.6794 13.8221 52.0437C14.1475 52.4 14.4245 52.8163 14.6531 53.2925C14.8885 53.7647 15.0062 54.2768 15.0062 54.8288ZM21.1113 52.1213L22.6903 58.9388L24.1442 53.8761L25.5984 54.7175L23.2305 62.1313L22.0672 61.4582L20.4674 54.7967L18.92 59.6373L17.7671 58.9702L15.2948 48.7559L16.8528 49.6573L18.411 56.4628L19.9065 51.4242L21.1113 52.1213ZM27.9757 64.8769L26.4697 64.0055L26.4694 55.2215L27.9755 56.0929L27.9757 64.8769ZM28.8464 56.5968L34.9746 60.1425L34.9746 61.6905L32.6688 60.3564L32.669 67.5924L31.1525 66.7149L31.1523 59.4789L28.8465 58.1448L28.8464 56.5968ZM38.8192 69.6989C39.1862 69.9112 39.5012 69.9815 39.7643 69.9097C40.0344 69.842 40.249 69.6542 40.4083 69.3463L41.6651 70.9135C41.4782 71.3973 41.1354 71.687 40.6369 71.7825C40.1383 71.8701 39.5428 71.7135 38.8504 71.3129C38.1787 70.9243 37.5659 70.3817 37.0119 69.6852C36.4579 68.9886 36.0182 68.2022 35.6928 67.3259C35.3673 66.4416 35.2045 65.5515 35.2045 64.6555C35.2045 63.7595 35.3637 63.0596 35.6822 62.5559C36.0076 62.0562 36.4473 61.7786 37.0013 61.7232C37.5621 61.6717 38.1784 61.8403 38.8501 62.2289C39.5425 62.6295 40.138 63.1661 40.6366 63.8385C41.1352 64.503 41.478 65.1853 41.6649 65.8855L40.4082 65.9983C40.2489 65.5062 40.0342 65.07 39.7642 64.6897C39.501 64.3135 39.186 64.0192 38.819 63.8069C38.4312 63.5825 38.085 63.5022 37.7803 63.5659C37.4757 63.6296 37.2333 63.8334 37.0533 64.1772C36.8802 64.517 36.7936 64.983 36.7937 65.575C36.7937 66.167 36.8803 66.737 37.0534 67.2852C37.2334 67.8374 37.4758 68.3216 37.7805 68.7379C38.0852 69.1542 38.4314 69.4745 38.8192 69.6989ZM44.1439 68.9038L47.5715 70.887L47.5714 67.431L49.0879 68.3084L49.0882 77.0924L47.5717 76.215L47.5716 72.435L44.144 70.4518L44.1441 74.2318L42.638 73.3604L42.6377 64.5764L44.1438 65.4478L44.1439 68.9038Z" fill="white"/>
<defs>
<filter id="filter0_b_53_1586" x="-135.914" y="-135.914" width="392.078" height="341.828" filterUnits="userSpaceOnUse" color-interpolation-filters="sRGB">
<feFlood flood-opacity="0" result="BackgroundImageFix"/>
<feGaussianBlur in="BackgroundImageFix" stdDeviation="67.957"/>
<feComposite in2="SourceAlpha" operator="in" result="effect1_backgroundBlur_53_1586"/>
<feBlend mode="normal" in="SourceGraphic" in2="effect1_backgroundBlur_53_1586" result="shape"/>
</filter>
<filter id="filter1_d_53_1586" x="16.9647" y="7" width="87.3181" height="54.5" filterUnits="userSpaceOnUse" color-interpolation-filters="sRGB">
<feFlood flood-opacity="0" result="BackgroundImageFix"/>
<feColorMatrix in="SourceAlpha" type="matrix" values="0 0 0 0 0 0 0 0 0 0 0 0 0 0 0 0 0 0 127 0" result="hardAlpha"/>
<feOffset dy="2"/>
<feComposite in2="hardAlpha" operator="out"/>
<feColorMatrix type="matrix" values="0 0 0 0 0.0117647 0 0 0 0 0.341176 0 0 0 0 0.121569 0 0 0 1 0"/>
<feBlend mode="normal" in2="BackgroundImageFix" result="effect1_dropShadow_53_1586"/>
<feBlend mode="normal" in="SourceGraphic" in2="effect1_dropShadow_53_1586" result="shape"/>
</filter>
</defs>
</svg>
