<svg width="120" height="89" viewBox="0 0 120 89" fill="none" xmlns="http://www.w3.org/2000/svg">
<g filter="url(#filter0_b_54_1632)">
<ellipse cx="60" cy="35" rx="60" ry="35" fill="#171717" fill-opacity="0.7"/>
</g>
<path fill-rule="evenodd" clip-rule="evenodd" d="M0 35C0 53.75 26.1905 70 60 70C88.75 70.1428 119.25 57 120 35C120 41.8959 120 50.9072 120 55.8956C120 58.352 119.451 60.7712 118.053 62.7912C112.802 70.3809 96.2264 89 60 89C23.7736 89 7.19837 70.3809 1.9467 62.7912C0.548938 60.7712 0 58.3578 0 55.9013C0 49.8141 0 38.1044 0 35Z" fill="#171717"/>
<g opacity="0.711728" filter="url(#filter1_i_54_1632)">
<ellipse cx="59.087" cy="34.5" rx="46.087" ry="26.5" fill="#171717"/>
</g>
<g filter="url(#filter2_d_54_1632)">
<path fill-rule="evenodd" clip-rule="evenodd" d="M24 21.5L50.5 14L56.5 18L45.25 32.5L70.5 25.75L76 29.25L64.75 43.75L89.75 37L95.5 40.5L83.5 56.25L77.25 52.5L78.75 50.25L72.75 47L69.5 48L57.5 41L59.25 39L53.75 35.5L50 36.5L38 30L39.75 27.75L33.75 24.25L30.5 25.25L24 21.5ZM43 24.5L39.5 22.25L46.5 20.25L43 24.5ZM62.5 35.75L59 33.5L66 31.5L62.5 35.75ZM78.75 45L82.25 47.25L85.75 43L78.75 45Z" fill="white"/>
</g>
<defs>
<filter id="filter0_b_54_1632" x="-100" y="-100" width="320" height="270" filterUnits="userSpaceOnUse" color-interpolation-filters="sRGB">
<feFlood flood-opacity="0" result="BackgroundImageFix"/>
<feGaussianBlur in="BackgroundImageFix" stdDeviation="50"/>
<feComposite in2="SourceAlpha" operator="in" result="effect1_backgroundBlur_54_1632"/>
<feBlend mode="normal" in="SourceGraphic" in2="effect1_backgroundBlur_54_1632" result="shape"/>
</filter>
<filter id="filter1_i_54_1632" x="13" y="8" width="92.174" height="53" filterUnits="userSpaceOnUse" color-interpolation-filters="sRGB">
<feFlood flood-opacity="0" result="BackgroundImageFix"/>
<feBlend mode="normal" in="SourceGraphic" in2="BackgroundImageFix" result="shape"/>
<feColorMatrix in="SourceAlpha" type="matrix" values="0 0 0 0 0 0 0 0 0 0 0 0 0 0 0 0 0 0 127 0" result="hardAlpha"/>
<feOffset dy="2"/>
<feComposite in2="hardAlpha" operator="arithmetic" k2="-1" k3="1"/>
<feColorMatrix type="matrix" values="0 0 0 0 0.185872 0 0 0 0 0.185872 0 0 0 0 0.185872 0 0 0 1 0"/>
<feBlend mode="normal" in2="shape" result="effect1_innerShadow_54_1632"/>
</filter>
<filter id="filter2_d_54_1632" x="24" y="14" width="71.5" height="44.25" filterUnits="userSpaceOnUse" color-interpolation-filters="sRGB">
<feFlood flood-opacity="0" result="BackgroundImageFix"/>
<feColorMatrix in="SourceAlpha" type="matrix" values="0 0 0 0 0 0 0 0 0 0 0 0 0 0 0 0 0 0 127 0" result="hardAlpha"/>
<feOffset dy="2"/>
<feComposite in2="hardAlpha" operator="out"/>
<feColorMatrix type="matrix" values="0 0 0 0 0.0901961 0 0 0 0 0.0901961 0 0 0 0 0.0901961 0 0 0 1 0"/>
<feBlend mode="normal" in2="BackgroundImageFix" result="effect1_dropShadow_54_1632"/>
<feBlend mode="normal" in="SourceGraphic" in2="effect1_dropShadow_54_1632" result="shape"/>
</filter>
</defs>
</svg>
