<svg width="118" height="87" viewBox="0 0 118 87" fill="none" xmlns="http://www.w3.org/2000/svg">
<path fill-rule="evenodd" clip-rule="evenodd" d="M74.817 0L15.3149 9.25L0 44L43 69L102 60L118 25L74.817 0Z" fill="#171717" fill-opacity="0.7"/>
<path fill-rule="evenodd" clip-rule="evenodd" d="M0 44L43 68.8914V87L0 62.1086V44Z" fill="#171717" fill-opacity="0.8"/>
<path fill-rule="evenodd" clip-rule="evenodd" d="M102 60L43 68.8914V87L102 78.1086V60Z" fill="#171717"/>
<path fill-rule="evenodd" clip-rule="evenodd" d="M102 60L118 25V43.1086L102 78.1086V60Z" fill="#171717"/>
<g filter="url(#filter0_d_54_1635)">
<path fill-rule="evenodd" clip-rule="evenodd" d="M6.35347 35.4978C5.6386 35.0867 5.20813 34.6585 5.06204 34.2134C4.91596 33.7683 5.02785 33.3339 5.39772 32.9102C5.7738 32.4865 6.38456 32.1013 7.22997 31.7545C8.07538 31.4041 8.96119 31.1752 9.88745 31.068C10.8199 30.9607 11.7244 30.9804 12.6008 31.127C13.4804 31.2718 14.2699 31.5453 14.9693 31.9475C15.5505 32.2818 15.939 32.6286 16.1348 32.988C16.3368 33.3473 16.3446 33.6968 16.1581 34.0364C15.9778 34.3761 15.6064 34.6809 15.0438 34.9509L13.426 34.0203C13.7648 33.8183 13.9451 33.5913 13.9668 33.3392C13.9917 33.0854 13.8037 32.8432 13.4027 32.6125C13.0546 32.4123 12.6412 32.2818 12.1626 32.221C11.687 32.1585 11.1757 32.1683 10.6287 32.2505C10.0817 32.3328 9.52846 32.4901 8.969 32.7225C8.40018 32.9567 7.98214 33.1989 7.71484 33.4492C7.45376 33.6995 7.34186 33.9444 7.37916 34.1839C7.42267 34.4235 7.62004 34.6442 7.97126 34.8463C8.21991 34.9892 8.49809 35.0957 8.8058 35.1654C9.11664 35.2333 9.44298 35.2619 9.78483 35.2512C10.1298 35.2422 10.478 35.1904 10.8292 35.0957L12.4423 36.0235C11.8083 36.2415 11.1322 36.3694 10.4143 36.4069C9.7025 36.4444 8.99693 36.389 8.29761 36.2406C7.60139 36.0905 6.95335 35.8429 6.35347 35.4978ZM13.4631 39.587C12.7576 39.1812 12.3255 38.754 12.167 38.3053C12.0116 37.8583 12.1204 37.4186 12.4933 36.986C12.8663 36.5533 13.4848 36.1582 14.3489 35.8007C15.2037 35.4485 16.0879 35.2188 17.0017 35.1116C17.9186 35.0061 18.806 35.0267 19.6638 35.1733C20.5279 35.3198 21.3065 35.5925 21.9996 35.9911C22.7051 36.3969 23.134 36.8242 23.2863 37.2729C23.4418 37.7198 23.333 38.1596 22.96 38.5922C22.5902 39.0266 21.9701 39.4243 21.0998 39.7855C20.2512 40.1376 19.3685 40.3647 18.4516 40.4666C17.5379 40.5703 16.6505 40.5497 15.7895 40.4049C14.9316 40.2583 14.1562 39.9857 13.4631 39.587ZM16.3024 39.3001C15.7958 39.2518 15.3466 39.1151 14.955 38.8898C14.5789 38.6735 14.3862 38.4447 14.3769 38.2034C14.3675 37.962 14.5043 37.7225 14.7872 37.4847C15.07 37.2469 15.4616 37.0253 15.962 36.8197C16.478 36.6052 17.011 36.4488 17.5612 36.3504C18.1144 36.2503 18.6474 36.2244 19.1603 36.2727C19.6794 36.3209 20.1347 36.4577 20.5263 36.6829C20.9024 36.8992 21.092 37.1281 21.0951 37.3694C21.1044 37.6107 20.9661 37.8512 20.6802 38.0907C20.3973 38.3285 20.0073 38.5511 19.51 38.7584C18.9909 38.9712 18.4532 39.1267 17.8969 39.225C17.3467 39.3233 16.8152 39.3484 16.3024 39.3001ZM17.9479 42.0056L26.3026 38.5733L27.9203 39.5037L26.4984 40.0856L26.5869 40.1366C27.2148 40.0258 27.8349 40.0141 28.4471 40.1017C29.0626 40.1875 29.6096 40.3681 30.0883 40.6434C30.57 40.9205 30.8404 41.2119 30.8995 41.5176C30.9647 41.8233 30.8295 42.112 30.4938 42.3837L30.5685 42.4266C31.1932 42.3247 31.8319 42.3256 32.4846 42.4293C33.1405 42.5348 33.7294 42.7377 34.2516 43.038C34.9043 43.4134 35.1965 43.821 35.1281 44.2607C35.0597 44.7005 34.5593 45.1117 33.6268 45.4943L28.0182 47.7977L26.3305 46.827L31.6407 44.6522C32.1536 44.4359 32.41 44.2098 32.41 43.9739C32.4162 43.7379 32.2484 43.5215 31.9065 43.3249C31.4993 43.0907 31.0347 42.9683 30.5125 42.9575C29.9934 42.9486 29.4992 43.0434 29.0299 43.2418L23.8129 45.379L22.1578 44.427L27.5474 42.2175C27.9732 42.0369 28.2032 41.8295 28.2374 41.5954C28.2747 41.363 28.1146 41.144 27.7571 40.9383C27.5147 40.7989 27.221 40.7015 26.876 40.6461C26.531 40.5906 26.1689 40.5826 25.7897 40.622C25.4167 40.6613 25.0609 40.7515 24.722 40.8928L19.6402 42.979L17.9479 42.0056ZM37.03 44.7433L30.6987 49.3394L32.4611 50.353L39.445 48.8031L39.543 48.8594L35.2444 51.9539L37.0021 52.9649L47.3848 50.6989L45.6598 49.7068L38.5732 51.3908L38.5033 51.3505L43.0629 48.2132L41.3612 47.2344L34.2001 48.9077L34.1348 48.8702L38.7503 45.7328L37.03 44.7433ZM41.601 55.7763C41.1472 55.5152 40.8334 55.2418 40.6593 54.9557C40.4884 54.6679 40.4837 54.3863 40.6453 54.111C40.81 53.8376 41.1659 53.5881 41.7129 53.3629C42.1854 53.1699 42.65 53.0528 43.1069 53.0116C43.567 52.9723 44.0176 52.9884 44.459 53.0599C44.9066 53.1314 45.3386 53.2404 45.7551 53.387C46.1747 53.5354 46.5788 53.6999 46.9673 53.8804C47.4397 54.1021 47.8266 54.2782 48.1281 54.4087C48.4327 54.541 48.6892 54.6241 48.8974 54.6581C49.1088 54.6903 49.3077 54.6688 49.4942 54.5937L49.5221 54.5776C49.9293 54.4078 50.1453 54.2192 50.1702 54.0118C50.1951 53.8044 50.0117 53.5881 49.62 53.3629C49.2098 53.1269 48.7747 52.9803 48.3146 52.9231C47.8546 52.8659 47.4381 52.8713 47.0652 52.9392L45.7597 51.9309C46.3876 51.7915 47.0154 51.7343 47.6433 51.7594C48.2742 51.7826 48.8819 51.8782 49.4662 52.0462C50.0568 52.2143 50.6022 52.4422 51.1026 52.73C51.4445 52.9267 51.7382 53.1421 51.9838 53.3763C52.2324 53.6123 52.3894 53.8563 52.4547 54.1083C52.5262 54.3604 52.4625 54.6116 52.2635 54.8618C52.0677 55.1139 51.6916 55.3535 51.1353 55.5805L45.5453 57.8786L43.9228 56.9454L45.0744 56.4762L45.0185 56.444C44.6859 56.4815 44.3253 56.4887 43.9368 56.4654C43.5514 56.4404 43.1582 56.3734 42.7573 56.2643C42.3594 56.1535 41.974 55.9908 41.601 55.7763ZM44.5942 55.8406C44.1901 55.7619 43.8187 55.6252 43.4799 55.4303C43.1256 55.2266 42.9298 55.0227 42.8925 54.819C42.8583 54.6134 43.0199 54.4364 43.3773 54.288C43.6291 54.1825 43.8917 54.1298 44.1653 54.1298C44.445 54.1298 44.7294 54.1682 45.0185 54.2451C45.3106 54.3238 45.6028 54.4275 45.8949 54.5562L46.3518 54.7546C46.529 54.8315 46.7108 54.9074 46.8973 54.9825C47.0869 55.0594 47.2656 55.1247 47.4335 55.1783C47.6013 55.2319 47.7381 55.2641 47.8437 55.2748L46.86 55.6797C46.5523 55.8067 46.1995 55.8844 45.8017 55.913C45.4039 55.9417 45.0014 55.9175 44.5942 55.8406ZM46.7373 58.5642L55.092 55.1319L56.7285 56.0731L55.3345 56.6443L55.409 56.6871C56.0182 56.562 56.6135 56.5379 57.1947 56.6148C57.7821 56.6916 58.281 56.848 58.6913 57.084C58.7877 57.1394 58.8871 57.202 58.9896 57.2717C59.0953 57.3397 59.1808 57.4014 59.2461 57.4568L57.4325 58.1995C57.3858 58.1441 57.2957 58.0673 57.1621 57.9689C57.0346 57.8706 56.8979 57.7794 56.7518 57.6954C56.4441 57.5185 56.0913 57.3924 55.6935 57.3173C55.3018 57.2423 54.8993 57.2199 54.4859 57.2503C54.0726 57.2807 53.6872 57.3682 53.3297 57.5131L48.4251 59.5349L46.7373 58.5642ZM52.8341 61.7169C53.0051 62.1584 53.4495 62.5857 54.1675 62.9986C54.727 63.3204 55.3191 63.5644 55.9438 63.7307C56.5747 63.8969 57.2088 63.9863 57.846 63.9989C58.4863 64.0096 59.1001 63.9443 59.6876 63.8031L58.3215 62.8136C58.0076 62.8654 57.6968 62.8833 57.3891 62.8672C57.0876 62.8512 56.797 62.802 56.5172 62.7198C56.2375 62.6375 55.9733 62.5249 55.7247 62.3819C55.3455 62.1638 55.0984 61.9448 54.9834 61.7249C54.8684 61.505 54.9025 61.2852 55.086 61.0652C55.2693 60.8454 55.619 60.6264 56.1349 60.4083L56.1623 60.3972L61.1561 63.2695L61.7526 63.0174C62.4867 62.7171 63.0319 62.4087 63.3893 62.0923C63.7496 61.7741 63.9502 61.4567 63.991 61.1403C64.0313 60.824 63.9362 60.5191 63.7065 60.226C63.4797 59.931 63.1456 59.6565 62.7042 59.4027C62.0232 59.0112 61.2448 58.744 60.3682 58.6009C59.4979 58.4579 58.5966 58.44 57.6641 58.5473C56.7348 58.6528 55.8412 58.8825 54.9834 59.2365C54.11 59.5958 53.4899 59.9882 53.1231 60.4136C52.7626 60.8391 52.6662 61.2735 52.8341 61.7169ZM57.5009 59.8585L60.8531 61.7866C61.2325 61.6329 61.5013 61.4567 61.6599 61.2583C61.8214 61.0581 61.8663 60.8534 61.7946 60.6442C61.7235 60.4351 61.5246 60.2366 61.1981 60.049C60.8655 59.8577 60.4692 59.7281 60.0092 59.6601C59.5554 59.5922 59.097 59.5788 58.6339 59.6199C58.2075 59.6578 57.8298 59.7373 57.5009 59.8585Z" fill="white"/>
</g>
<g filter="url(#filter1_d_54_1635)">
<path fill-rule="evenodd" clip-rule="evenodd" d="M110.802 38.7439L107.552 36.7439C107.552 36.7439 70.5515 47.7439 67.0515 45.9939C63.5515 44.2439 88.0515 25.2439 82.5515 20.2439C76.5515 14.4939 39.0515 29.9939 36.5515 28.4939C33.5515 26.7439 54.0515 5.7439 54.0515 5.7439L50.3015 3.7439C50.3015 3.7439 28.5515 26.2439 32.3015 30.2439C37.5515 35.7439 76.8015 17.7439 79.3015 22.4939C80.5515 25.9939 59.0515 42.2439 63.0515 47.2439C67.8015 53.2439 110.802 38.7439 110.802 38.7439Z" fill="white"/>
</g>
<g filter="url(#filter2_d_54_1635)">
<path fill-rule="evenodd" clip-rule="evenodd" d="M20.75 21L24 23C24 23 61 12 64.5 13.75C68 15.5 43.5 34.5 49 39.5C55 45.25 92.5 29.75 95 31.25C98 33 77.5 54 77.5 54L81.25 56C81.25 56 103 33.5 99.25 29.5C94 24 54.75 42 52.25 37.25C51 33.75 72.5 17.5 68.5 12.5C63.75 6.49999 20.75 21 20.75 21Z" fill="#C31B21"/>
</g>
<defs>
<filter id="filter0_d_54_1635" x="5" y="31" width="59" height="35" filterUnits="userSpaceOnUse" color-interpolation-filters="sRGB">
<feFlood flood-opacity="0" result="BackgroundImageFix"/>
<feColorMatrix in="SourceAlpha" type="matrix" values="0 0 0 0 0 0 0 0 0 0 0 0 0 0 0 0 0 0 127 0" result="hardAlpha"/>
<feOffset dy="2"/>
<feComposite in2="hardAlpha" operator="out"/>
<feColorMatrix type="matrix" values="0 0 0 0 0.0901961 0 0 0 0 0.0901961 0 0 0 0 0.0901961 0 0 0 1 0"/>
<feBlend mode="normal" in2="BackgroundImageFix" result="effect1_dropShadow_54_1635"/>
<feBlend mode="normal" in="SourceGraphic" in2="effect1_dropShadow_54_1635" result="shape"/>
</filter>
<filter id="filter1_d_54_1635" x="31.8669" y="3.7439" width="78.9346" height="46.9547" filterUnits="userSpaceOnUse" color-interpolation-filters="sRGB">
<feFlood flood-opacity="0" result="BackgroundImageFix"/>
<feColorMatrix in="SourceAlpha" type="matrix" values="0 0 0 0 0 0 0 0 0 0 0 0 0 0 0 0 0 0 127 0" result="hardAlpha"/>
<feOffset dy="2"/>
<feComposite in2="hardAlpha" operator="out"/>
<feColorMatrix type="matrix" values="0 0 0 0 0.0901961 0 0 0 0 0.0901961 0 0 0 0 0.0901961 0 0 0 1 0"/>
<feBlend mode="normal" in2="BackgroundImageFix" result="effect1_dropShadow_54_1635"/>
<feBlend mode="normal" in="SourceGraphic" in2="effect1_dropShadow_54_1635" result="shape"/>
</filter>
<filter id="filter2_d_54_1635" x="20.75" y="11.0453" width="78.9346" height="46.9547" filterUnits="userSpaceOnUse" color-interpolation-filters="sRGB">
<feFlood flood-opacity="0" result="BackgroundImageFix"/>
<feColorMatrix in="SourceAlpha" type="matrix" values="0 0 0 0 0 0 0 0 0 0 0 0 0 0 0 0 0 0 127 0" result="hardAlpha"/>
<feOffset dy="2"/>
<feColorMatrix type="matrix" values="0 0 0 0 0.44769 0 0 0 0 0 0 0 0 0 0.0159889 0 0 0 1 0"/>
<feBlend mode="normal" in2="BackgroundImageFix" result="effect1_dropShadow_54_1635"/>
<feBlend mode="normal" in="SourceGraphic" in2="effect1_dropShadow_54_1635" result="shape"/>
</filter>
</defs>
</svg>
