<svg width="121" height="88" viewBox="0 0 121 88" fill="none" xmlns="http://www.w3.org/2000/svg">
<path fill-rule="evenodd" clip-rule="evenodd" d="M0 34.9999L60.25 69.9999V87.9999L0 52.9999V34.9999Z" fill="#171717" fill-opacity="0.8"/>
<g filter="url(#filter0_b_54_1620)">
<path fill-rule="evenodd" clip-rule="evenodd" d="M60 -0.00012207L120.25 34.9999L60.25 69.9999L0 34.9999L60 -0.00012207Z" fill="#171717" fill-opacity="0.7"/>
</g>
<path fill-rule="evenodd" clip-rule="evenodd" d="M120.25 34.9999L60 69.9999V87.9999L120.25 52.9999V34.9999Z" fill="#171717"/>
<g filter="url(#filter1_d_54_1620)">
<path fill-rule="evenodd" clip-rule="evenodd" d="M22.9521 36.25V33H33.9293L30.4366 30.25L32.6819 28L39.9168 34.3145V14H78.8357V33.0001H89.8129L86.3201 30.2501L88.5655 28.0001L96.2993 34.7501L88.8149 41.5001L86.3201 39.2501L89.8129 36.2501H78.8357V53H39.9168V35.2L32.9314 41.5L30.4366 39.25L33.9293 36.25H22.9521ZM41.9126 17V50H76.8399V17H41.9126ZM44.9064 32V30H50.8939V32H44.9064ZM60.8731 32V30H66.8606V32H60.8731ZM52.8897 32V30H58.8773V32H52.8897ZM42.9105 23C42.9105 26.126 44.0046 27 45.9043 27C47.804 27 48.8981 26.126 48.8981 23C48.8981 19.8852 47.804 19 45.9043 19C44.0167 19 42.9105 19.8852 42.9105 23ZM45.9043 25.7003C44.9064 25.7003 44.5457 25.1625 44.5457 23C44.5457 20.8487 44.9184 20.2997 45.9043 20.2997C46.9142 20.2997 47.287 20.8487 47.287 23C47.287 25.1513 46.9142 25.7003 45.9043 25.7003ZM52.1064 27L52.1064 20.4179L49.896 20.7983V19.4841L52.5874 19H53.8877V27H52.1064ZM59.8752 27C57.9755 27 56.8814 26.126 56.8814 23C56.8814 19.8852 57.9876 19 59.8752 19C61.7749 19 62.869 19.8852 62.869 23C62.869 26.126 61.7749 27 59.8752 27ZM58.5166 23C58.5166 25.1625 58.8773 25.7003 59.8752 25.7003C60.8851 25.7003 61.2579 25.1513 61.2579 23C61.2579 20.8487 60.8851 20.2997 59.8752 20.2997C58.8893 20.2997 58.5166 20.8487 58.5166 23ZM66.0773 27V20.4179L63.8669 20.7983V19.4841L66.5583 19H67.8586V27H66.0773ZM72.0648 20.4179V27H73.8461V19H72.5459L69.8544 19.4841V20.7983L72.0648 20.4179ZM43.9085 44V42H54.8856L63.8669 37H74.844V39H63.8669L54.8856 44H43.9085ZM68.8565 30V32H74.844V30H68.8565Z" fill="white"/>
</g>
<rect opacity="0.407715" x="53.8877" y="35" width="11.9751" height="12" fill="white"/>
<path fill-rule="evenodd" clip-rule="evenodd" d="M102.786 48.9999L100.92 50.079V56.5236C100.92 56.9124 100.846 57.3012 100.696 57.6899C100.55 58.0771 100.342 58.4351 100.072 58.7641C99.8047 59.0914 99.4902 59.3597 99.1283 59.569C98.7693 59.7767 98.4548 59.8722 98.1848 59.8556C97.9148 59.839 97.7052 59.7227 97.5558 59.5067C97.4093 59.289 97.3361 58.9859 97.3361 58.5971V52.1524L95.4707 53.2315V59.8606C95.4707 60.6049 95.6229 61.1682 95.9273 61.5503C96.2317 61.9324 96.6583 62.121 97.2069 62.116C97.7554 62.1077 98.3959 61.8917 99.1283 61.468C99.8578 61.046 100.497 60.5219 101.045 59.8955C101.594 59.2658 102.021 58.5838 102.325 57.8495C102.632 57.1135 102.786 56.3733 102.786 55.629V48.9999ZM94.396 53.8532V64.061L92.7848 64.993L88.9462 60.7888L88.8816 60.8262V67.2509L87.0162 68.33V58.1222L88.6533 57.1752L92.4617 61.3919L92.5392 61.347V54.9273L94.396 53.8532ZM85.5538 66.9131C85.9185 65.9212 86.1009 64.8687 86.1009 63.7555C86.1009 62.6424 85.9185 61.8008 85.5538 61.231C85.1919 60.6595 84.6979 60.3504 84.0718 60.3039C83.4486 60.2524 82.7477 60.4518 81.9694 60.902C81.1853 61.3556 80.4817 61.9687 79.8584 62.7412C79.2352 63.5104 78.7426 64.3902 78.3807 65.3804C78.0188 66.3706 77.8379 67.4223 77.8379 68.5354C77.8379 69.6453 78.0188 70.4859 78.3807 71.0575C78.7426 71.629 79.2352 71.9405 79.8584 71.992C80.4817 72.0435 81.1853 71.8425 81.9694 71.3889C82.7477 70.9387 83.4486 70.3289 84.0718 69.5597C84.6979 68.7855 85.1919 67.9032 85.5538 66.9131ZM83.9296 63.1873C84.1163 63.5744 84.2097 64.1285 84.2097 64.8496C84.2097 65.5706 84.1163 66.2327 83.9296 66.8358C83.7458 67.4373 83.4859 67.9631 83.1498 68.4133C82.8138 68.8636 82.4203 69.2191 81.9694 69.4799C81.5185 69.7408 81.125 69.8405 80.789 69.779C80.4529 69.7175 80.1916 69.4932 80.0049 69.1062C79.8211 68.7174 79.7292 68.1625 79.7292 67.4414C79.7292 66.7203 79.8211 66.0591 80.0049 65.4576C80.1916 64.8545 80.4529 64.3279 80.789 63.8776C81.125 63.4274 81.5185 63.0718 81.9694 62.811C82.4203 62.5501 82.8138 62.4505 83.1498 62.512C83.4859 62.5734 83.7458 62.7986 83.9296 63.1873Z" fill="white"/>
<defs>
<filter id="filter0_b_54_1620" x="-135.914" y="-135.914" width="392.078" height="341.828" filterUnits="userSpaceOnUse" color-interpolation-filters="sRGB">
<feFlood flood-opacity="0" result="BackgroundImageFix"/>
<feGaussianBlur in="BackgroundImageFix" stdDeviation="67.957"/>
<feComposite in2="SourceAlpha" operator="in" result="effect1_backgroundBlur_54_1620"/>
<feBlend mode="normal" in="SourceGraphic" in2="effect1_backgroundBlur_54_1620" result="shape"/>
</filter>
<filter id="filter1_d_54_1620" x="22.9521" y="14" width="73.3472" height="41" filterUnits="userSpaceOnUse" color-interpolation-filters="sRGB">
<feFlood flood-opacity="0" result="BackgroundImageFix"/>
<feColorMatrix in="SourceAlpha" type="matrix" values="0 0 0 0 0 0 0 0 0 0 0 0 0 0 0 0 0 0 127 0" result="hardAlpha"/>
<feOffset dy="2"/>
<feComposite in2="hardAlpha" operator="out"/>
<feColorMatrix type="matrix" values="0 0 0 0 0.0901961 0 0 0 0 0.0901961 0 0 0 0 0.0901961 0 0 0 1 0"/>
<feBlend mode="normal" in2="BackgroundImageFix" result="effect1_dropShadow_54_1620"/>
<feBlend mode="normal" in="SourceGraphic" in2="effect1_dropShadow_54_1620" result="shape"/>
</filter>
</defs>
</svg>
