<svg width="120" height="89" viewBox="0 0 120 89" fill="none" xmlns="http://www.w3.org/2000/svg">
<g filter="url(#filter0_b_54_1630)">
<ellipse cx="60" cy="35" rx="60" ry="35" fill="#171717" fill-opacity="0.7"/>
</g>
<path fill-rule="evenodd" clip-rule="evenodd" d="M0 35C0 53.75 26.1905 70 60 70C88.75 70.1428 119.25 57 120 35C120 41.8959 120 50.9072 120 55.8956C120 58.352 119.451 60.7712 118.053 62.7912C112.802 70.3809 96.2264 89 60 89C23.7736 89 7.19837 70.3809 1.9467 62.7912C0.548938 60.7712 0 58.3578 0 55.9013C0 49.8141 0 38.1044 0 35Z" fill="#171717"/>
<g filter="url(#filter1_d_54_1630)">
<path fill-rule="evenodd" clip-rule="evenodd" d="M61 17.893C63.8667 17.4762 66 15.8914 66 14C66 11.7909 63.0899 10 59.5 10C55.9101 10 53 11.7909 53 14C53 15.8914 55.1333 17.4762 58 17.893V26.0449C55.0483 26.2228 52.359 26.9196 50.2022 27.9772L40.0293 22.1039C40.6447 21.4927 41 20.7719 41 20C41 17.7909 38.0899 16 34.5 16C30.9101 16 28 17.7909 28 20C28 22.2091 30.9101 24 34.5 24C35.8452 24 37.0949 23.7485 38.1319 23.3178L48.2326 29.1495C46.5485 30.3667 45.4267 31.8622 45.0993 33.5H30.9497C30.5499 31.5268 27.8147 30 24.5 30C20.9101 30 18 31.7909 18 34C18 36.2091 20.9101 38 24.5 38C27.2279 38 29.5633 36.9659 30.5275 35.5H45.0993C45.4267 37.1378 46.5485 38.6333 48.2326 39.8505L38.1319 45.6822C37.0949 45.2515 35.8452 45 34.5 45C30.9101 45 28 46.7909 28 49C28 51.2091 30.9101 53 34.5 53C38.0899 53 41 51.2091 41 49C41 48.2281 40.6447 47.5073 40.0293 46.8961L50.2022 41.0228C52.359 42.0804 55.0483 42.7772 58 42.9551V51.107C55.1333 51.5238 53 53.1086 53 55C53 57.2091 55.9101 59 59.5 59C63.0899 59 66 57.2091 66 55C66 53.1086 63.8667 51.5238 61 51.107V42.9551C63.9517 42.7772 66.641 42.0804 68.7978 41.0228L78.9707 46.8961C78.3553 47.5073 78 48.2281 78 49C78 51.2091 80.9101 53 84.5 53C88.0899 53 91 51.2091 91 49C91 46.7909 88.0899 45 84.5 45C83.1548 45 81.905 45.2515 80.8681 45.6822L70.7674 39.8505C72.4515 38.6333 73.5733 37.1378 73.9007 35.5H88.4725C89.4367 36.9659 91.7721 38 94.5 38C98.0899 38 101 36.2091 101 34C101 31.7909 98.0899 30 94.5 30C91.1853 30 88.4501 31.5268 88.0503 33.5H73.9007C73.5733 31.8622 72.4515 30.3667 70.7674 29.1495L80.8681 23.3178C81.905 23.7485 83.1548 24 84.5 24C88.0899 24 91 22.2091 91 20C91 17.7909 88.0899 16 84.5 16C80.9101 16 78 17.7909 78 20C78 20.7719 78.3553 21.4927 78.9707 22.1039L68.7978 27.9772C66.6409 26.9196 63.9517 26.2228 61 26.0449V17.893Z" fill="white"/>
</g>
<path d="M49.9898 74.752C50.8018 74.752 51.5111 74.892 52.1178 75.172C52.7245 75.452 53.1911 75.8487 53.5178 76.362C53.8538 76.866 54.0218 77.4587 54.0218 78.14C54.0218 78.812 53.8538 79.4047 53.5178 79.918C53.1911 80.422 52.7245 80.814 52.1178 81.094C51.5111 81.3647 50.8018 81.5 49.9898 81.5H48.4918V85H46.4618V74.752H49.9898ZM49.7658 79.778C50.4005 79.778 50.9091 79.6427 51.2918 79.372C51.6745 79.092 51.8658 78.6813 51.8658 78.14C51.8658 77.5987 51.6745 77.188 51.2918 76.908C50.9091 76.6187 50.4005 76.474 49.7658 76.474H48.4918V79.778H49.7658ZM58.9747 74.752L63.1187 85H60.9627L60.0667 82.662H56.0767L55.2087 85H53.1787L57.1967 74.752H58.9747ZM59.4087 80.926L58.0367 77.328L56.7067 80.926H59.4087ZM67.7059 74.752C68.7046 74.752 69.6052 74.9527 70.4079 75.354C71.2199 75.7553 71.8592 76.3433 72.3259 77.118C72.7926 77.8833 73.0259 78.798 73.0259 79.862C73.0259 80.926 72.7926 81.8453 72.3259 82.62C71.8592 83.3947 71.2246 83.9873 70.4219 84.398C69.6192 84.7993 68.7139 85 67.7059 85H64.2899V74.752H67.7059ZM67.4679 83.264C68.5692 83.264 69.4139 82.97 70.0019 82.382C70.5899 81.794 70.8839 80.954 70.8839 79.862C70.8839 78.7887 70.5852 77.958 69.9879 77.37C69.3999 76.7727 68.5599 76.474 67.4679 76.474H66.3199V83.264H67.4679Z" fill="white"/>
<defs>
<filter id="filter0_b_54_1630" x="-100" y="-100" width="320" height="270" filterUnits="userSpaceOnUse" color-interpolation-filters="sRGB">
<feFlood flood-opacity="0" result="BackgroundImageFix"/>
<feGaussianBlur in="BackgroundImageFix" stdDeviation="50"/>
<feComposite in2="SourceAlpha" operator="in" result="effect1_backgroundBlur_54_1630"/>
<feBlend mode="normal" in="SourceGraphic" in2="effect1_backgroundBlur_54_1630" result="shape"/>
</filter>
<filter id="filter1_d_54_1630" x="18" y="10" width="83" height="51" filterUnits="userSpaceOnUse" color-interpolation-filters="sRGB">
<feFlood flood-opacity="0" result="BackgroundImageFix"/>
<feColorMatrix in="SourceAlpha" type="matrix" values="0 0 0 0 0 0 0 0 0 0 0 0 0 0 0 0 0 0 127 0" result="hardAlpha"/>
<feOffset dy="2"/>
<feComposite in2="hardAlpha" operator="out"/>
<feColorMatrix type="matrix" values="0 0 0 0 0.0901961 0 0 0 0 0.0901961 0 0 0 0 0.0901961 0 0 0 1 0"/>
<feBlend mode="normal" in2="BackgroundImageFix" result="effect1_dropShadow_54_1630"/>
<feBlend mode="normal" in="SourceGraphic" in2="effect1_dropShadow_54_1630" result="shape"/>
</filter>
</defs>
</svg>
