<svg width="121" height="88" viewBox="0 0 121 88" fill="none" xmlns="http://www.w3.org/2000/svg">
<path fill-rule="evenodd" clip-rule="evenodd" d="M0 35L60.25 70V88L0 53V35Z" fill="#171717" fill-opacity="0.8"/>
<g filter="url(#filter0_b_54_1624)">
<path fill-rule="evenodd" clip-rule="evenodd" d="M60 0L120.25 35L60.25 70L0 35L60 0Z" fill="#171717" fill-opacity="0.7"/>
</g>
<path fill-rule="evenodd" clip-rule="evenodd" d="M120.25 35L60 70V88L120.25 53V35Z" fill="#171717"/>
<g filter="url(#filter1_d_54_1624)">
<path fill-rule="evenodd" clip-rule="evenodd" d="M79.8337 19H40.9148V28.5L30.4366 23.75V26H27.9418V31H30.6861V33.25L40.9148 28.5V38H36.9231V43H40.9148V49H79.8337V40.5L90.0624 45.25V43H92.8067V38H90.3119V35.75L79.8337 40.5V31H83.8254V26H79.8337V19ZM76.8399 21H43.9085V47H76.8399V21ZM17.9626 26H21.9543V31H17.9626V26ZM22.9522 26H26.9439V31H22.9522V26ZM30.9356 38H28.4408V35.75L17.9626 40.5L28.1913 45.25V43H30.9356V38ZM31.9335 38H35.9252V43H31.9335V38ZM92.3077 26H89.8129V31H92.5572V33.25L102.786 28.5L92.3077 23.75V26ZM84.8233 26H88.815V31H84.8233V26ZM98.7942 38H102.786V43H98.7942V38ZM93.8046 38H97.7963V43H93.8046V38ZM75.1111 57.7617C71.48 59.774 66.6604 61 61.3722 61C55.7614 61 50.6782 59.6199 46.9823 57.3849L49.3459 55.8306C52.4065 57.6232 56.5858 58.7273 61.1934 58.7273C65.5818 58.7273 69.5816 57.7258 72.5965 56.0818L75.1111 57.7617ZM51.4492 54.4474C53.9828 56.0361 57.5227 57.0227 61.4398 57.0227C65.017 57.0227 68.2796 56.1999 70.7484 54.8472L68.3816 53.266C66.5178 54.1916 64.1042 54.75 61.4675 54.75C58.4791 54.75 55.7773 54.0328 53.8378 52.8766L51.4492 54.4474ZM66.508 52.0143L64.0228 50.3541C63.2891 50.6188 62.411 50.7727 61.4675 50.7727C60.1817 50.7727 59.0176 50.4868 58.1747 50.0246L55.7197 51.639C57.1668 52.5056 59.2069 53.0455 61.4675 53.0455C63.3809 53.0455 65.1364 52.6587 66.508 52.0143ZM66.8674 25.6472C66.8674 26.5064 66.6079 27.1613 66.0888 27.6118C65.5698 28.0576 64.83 28.2806 63.8694 28.2806C62.9088 28.2806 62.1652 28.0576 61.6384 27.6118C61.1194 27.1613 60.8599 26.5064 60.8599 25.6472C60.8599 24.7834 61.1194 24.1262 61.6384 23.6757C62.1652 23.2252 62.9088 23 63.8694 23C64.83 23 65.5698 23.2252 66.0888 23.6757C66.6079 24.1262 66.8674 24.7834 66.8674 25.6472ZM62.6493 25.6472C62.6493 26.2231 62.7462 26.6527 62.9398 26.936C63.1412 27.2147 63.4511 27.354 63.8694 27.354C64.2878 27.354 64.5937 27.2147 64.7874 26.936C64.9811 26.6527 65.0779 26.2231 65.0779 25.6472C65.0779 25.0667 64.9811 24.6348 64.7874 24.3515C64.5937 24.0682 64.2878 23.9265 63.8694 23.9265C63.4511 23.9265 63.1412 24.0682 62.9398 24.3515C62.7462 24.6301 62.6493 25.0621 62.6493 25.6472ZM68.3731 23.9753V24.9436L70.5809 24.2052V28.1969H72.2891V23.0905H70.976L68.3731 23.9753ZM52.9098 34.007C52.9098 34.8662 52.6503 35.521 52.1313 35.9715C51.6123 36.4174 50.8724 36.6403 49.9119 36.6403C48.9513 36.6403 48.2076 36.4174 47.6808 35.9715C47.1618 35.521 46.9023 34.8662 46.9023 34.007C46.9023 33.1431 47.1618 32.486 47.6808 32.0355C48.2076 31.585 48.9513 31.3597 49.9119 31.3597C50.8724 31.3597 51.6123 31.585 52.1313 32.0355C52.6503 32.486 52.9098 33.1431 52.9098 34.007ZM48.6918 34.007C48.6918 34.5829 48.7886 35.0125 48.9823 35.2958C49.1837 35.5744 49.4935 35.7137 49.9119 35.7137C50.3302 35.7137 50.6362 35.5744 50.8298 35.2958C51.0235 35.0125 51.1203 34.5829 51.1203 34.007C51.1203 33.4264 51.0235 32.9945 50.8298 32.7112C50.6362 32.4279 50.3302 32.2863 49.9119 32.2863C49.4935 32.2863 49.1837 32.4279 48.9823 32.7112C48.7886 32.9899 48.6918 33.4218 48.6918 34.007ZM73.0676 35.9715C73.5867 35.521 73.8462 34.8662 73.8462 34.007C73.8462 33.1431 73.5867 32.486 73.0676 32.0355C72.5486 31.585 71.8088 31.3597 70.8482 31.3597C69.8876 31.3597 69.144 31.585 68.6172 32.0355C68.0982 32.486 67.8387 33.1431 67.8387 34.007C67.8387 34.8662 68.0982 35.521 68.6172 35.9715C69.144 36.4174 69.8876 36.6403 70.8482 36.6403C71.8088 36.6403 72.5486 36.4174 73.0676 35.9715ZM69.9186 35.2958C69.725 35.0125 69.6281 34.5829 69.6281 34.007C69.6281 33.4218 69.725 32.9899 69.9186 32.7112C70.12 32.4279 70.4299 32.2863 70.8482 32.2863C71.2665 32.2863 71.5725 32.4279 71.7662 32.7112C71.9599 32.9945 72.0567 33.4264 72.0567 34.007C72.0567 34.5829 71.9599 35.0125 71.7662 35.2958C71.5725 35.5744 71.2665 35.7137 70.8482 35.7137C70.4299 35.7137 70.12 35.5744 69.9186 35.2958ZM59.1101 44.3312C59.6291 43.8807 59.8886 43.2259 59.8886 42.3667C59.8886 41.5029 59.6291 40.8457 59.1101 40.3952C58.591 39.9447 57.8512 39.7194 56.8906 39.7194C55.9301 39.7194 55.1864 39.9447 54.6596 40.3952C54.1406 40.8457 53.8811 41.5029 53.8811 42.3667C53.8811 43.2259 54.1406 43.8807 54.6596 44.3312C55.1864 44.7771 55.9301 45 56.8906 45C57.8512 45 58.591 44.7771 59.1101 44.3312ZM55.961 43.6555C55.7674 43.3722 55.6705 42.9426 55.6705 42.3667C55.6705 41.7815 55.7674 41.3496 55.961 41.0709C56.1625 40.7876 56.4723 40.646 56.8906 40.646C57.309 40.646 57.615 40.7876 57.8086 41.0709C58.0023 41.3542 58.0991 41.7862 58.0991 42.3667C58.0991 42.9426 58.0023 43.3722 57.8086 43.6555C57.615 43.9341 57.309 44.0735 56.8906 44.0735C56.4723 44.0735 56.1625 43.9341 55.961 43.6555ZM61.3943 41.6631V40.6947L63.9972 39.81H65.3102V44.9164H63.6021V40.9246L61.3943 41.6631ZM68.3731 41.6631V40.6947L70.976 39.81H72.2891V44.9164H70.5809V40.9246L68.3731 41.6631ZM47.4368 41.6631V40.6947L50.0396 39.81H51.3527V44.9164H49.6446V40.9246L47.4368 41.6631ZM61.3943 33.3033V32.335L63.9972 31.4503H65.3102V36.5567H63.6021V32.5649L61.3943 33.3033ZM59.1101 35.9715C59.6291 35.521 59.8886 34.8662 59.8886 34.007C59.8886 33.1431 59.6291 32.486 59.1101 32.0355C58.591 31.585 57.8512 31.3597 56.8906 31.3597C55.9301 31.3597 55.1864 31.585 54.6596 32.0355C54.1406 32.486 53.8811 33.1431 53.8811 34.007C53.8811 34.8662 54.1406 35.521 54.6596 35.9715C55.1864 36.4174 55.9301 36.6403 56.8906 36.6403C57.8512 36.6403 58.591 36.4174 59.1101 35.9715ZM55.961 35.2958C55.7674 35.0125 55.6705 34.5829 55.6705 34.007C55.6705 33.4218 55.7674 32.9899 55.961 32.7112C56.1625 32.4279 56.4723 32.2863 56.8906 32.2863C57.309 32.2863 57.615 32.4279 57.8086 32.7112C58.0023 32.9945 58.0991 33.4264 58.0991 34.007C58.0991 34.5829 58.0023 35.0125 57.8086 35.2958C57.615 35.5744 57.309 35.7137 56.8906 35.7137C56.4723 35.7137 56.1625 35.5744 55.961 35.2958ZM54.4155 23.9753V24.9436L56.6233 24.2052V28.1969H58.3315V23.0905H57.0184L54.4155 23.9753ZM52.9098 25.6472C52.9098 26.5064 52.6503 27.1613 52.1313 27.6118C51.6123 28.0576 50.8724 28.2806 49.9119 28.2806C48.9513 28.2806 48.2076 28.0576 47.6808 27.6118C47.1618 27.1613 46.9023 26.5064 46.9023 25.6472C46.9023 24.7834 47.1618 24.1262 47.6808 23.6757C48.2076 23.2252 48.9513 23 49.9119 23C50.8724 23 51.6123 23.2252 52.1313 23.6757C52.6503 24.1262 52.9098 24.7834 52.9098 25.6472ZM48.6918 25.6472C48.6918 26.2231 48.7886 26.6527 48.9823 26.936C49.1837 27.2147 49.4935 27.354 49.9119 27.354C50.3302 27.354 50.6362 27.2147 50.8298 26.936C51.0235 26.6527 51.1203 26.2231 51.1203 25.6472C51.1203 25.0667 51.0235 24.6348 50.8298 24.3515C50.6362 24.0682 50.3302 23.9265 49.9119 23.9265C49.4935 23.9265 49.1837 24.0682 48.9823 24.3515C48.7886 24.6301 48.6918 25.0621 48.6918 25.6472Z" fill="white"/>
</g>
<defs>
<filter id="filter0_b_54_1624" x="-135.914" y="-135.914" width="392.078" height="341.828" filterUnits="userSpaceOnUse" color-interpolation-filters="sRGB">
<feFlood flood-opacity="0" result="BackgroundImageFix"/>
<feGaussianBlur in="BackgroundImageFix" stdDeviation="67.957"/>
<feComposite in2="SourceAlpha" operator="in" result="effect1_backgroundBlur_54_1624"/>
<feBlend mode="normal" in="SourceGraphic" in2="effect1_backgroundBlur_54_1624" result="shape"/>
</filter>
<filter id="filter1_d_54_1624" x="17.9626" y="19" width="84.8233" height="44" filterUnits="userSpaceOnUse" color-interpolation-filters="sRGB">
<feFlood flood-opacity="0" result="BackgroundImageFix"/>
<feColorMatrix in="SourceAlpha" type="matrix" values="0 0 0 0 0 0 0 0 0 0 0 0 0 0 0 0 0 0 127 0" result="hardAlpha"/>
<feOffset dy="2"/>
<feComposite in2="hardAlpha" operator="out"/>
<feColorMatrix type="matrix" values="0 0 0 0 0.0901961 0 0 0 0 0.0901961 0 0 0 0 0.0901961 0 0 0 1 0"/>
<feBlend mode="normal" in2="BackgroundImageFix" result="effect1_dropShadow_54_1624"/>
<feBlend mode="normal" in="SourceGraphic" in2="effect1_dropShadow_54_1624" result="shape"/>
</filter>
</defs>
</svg>
