<svg width="121" height="88" viewBox="0 0 121 88" fill="none" xmlns="http://www.w3.org/2000/svg">
<path fill-rule="evenodd" clip-rule="evenodd" d="M0 35L60.25 70V88L0 53V35Z" fill="#171717" fill-opacity="0.8"/>
<g filter="url(#filter0_b_54_1621)">
<path fill-rule="evenodd" clip-rule="evenodd" d="M60 0L120.25 35L60.25 70L0 35L60 0Z" fill="#171717" fill-opacity="0.7"/>
</g>
<path fill-rule="evenodd" clip-rule="evenodd" d="M120.25 35L60 70V88L120.25 53V35Z" fill="#171717"/>
<path fill-rule="evenodd" clip-rule="evenodd" d="M51.9269 21.2325C42.488 21.2325 35.1761 16.5699 35.1761 11.6407V18.022C35.1761 18.7301 35.3602 19.4229 35.7984 19.9791C37.4089 22.0232 42.278 26.9301 51.9269 26.961C61.5957 26.992 66.465 22.0285 68.0654 19.9744C68.497 19.4204 68.6777 18.7333 68.6777 18.0311V11.6407C68.6777 17.6356 60.0364 21.3658 51.9269 21.2325ZM51.9269 28.2325C42.488 28.2325 35.1761 23.5699 35.1761 18.6407V25.022C35.1761 25.7301 35.3602 26.4229 35.7984 26.9791C36.9762 28.474 39.8969 31.5 45.1554 33.0303V34.022C45.1554 34.1443 45.1608 34.2661 45.1722 34.3867C39.2186 32.8235 35.1761 29.3058 35.1761 25.6407V31.875C35.1761 32.6742 35.4126 33.4562 35.9214 34.0724C37.3285 35.7765 40.6449 39.2178 45.1554 40.2082V41.022C45.1554 41.7301 45.3394 42.4229 45.7776 42.9791C47.3882 45.0232 52.2572 49.9301 61.9061 49.961C71.5749 49.992 76.4442 45.0285 78.0446 42.9744C78.4762 42.4204 78.6569 41.7333 78.6569 41.0311V34.6407C78.6569 40.6356 70.0156 44.3658 61.9061 44.2325C53.7056 44.2325 47.1106 40.7131 45.5212 36.5572C45.5409 36.237 45.5576 35.9441 45.5681 35.671C45.6302 35.7775 45.6999 35.8804 45.7776 35.9791C47.3882 38.0232 52.2572 42.9301 61.9061 42.961C71.5749 42.992 76.4442 38.0285 78.0446 35.9744C78.4762 35.4204 78.6569 34.7333 78.6569 34.0311V27.6407C78.6569 33.6356 70.0156 37.3658 61.9061 37.2325C56.7889 37.2325 52.2969 35.8621 49.2562 33.8218C50.1025 33.9092 50.9923 33.958 51.9269 33.961C61.5957 33.992 66.465 29.0285 68.0654 26.9744C68.497 26.4204 68.6777 25.7333 68.6777 25.0311V18.6407C68.6777 24.6356 60.0364 28.3658 51.9269 28.2325ZM61.9061 51.2325C52.4672 51.2325 45.1554 46.5699 45.1554 41.6407V48.022C45.1554 48.7301 45.3394 49.4229 45.7776 49.9791C47.3882 52.0232 52.2572 56.9301 61.9061 56.961C71.5749 56.992 76.4442 52.0285 78.0446 49.9744C78.4762 49.4204 78.6569 48.7333 78.6569 48.0311V41.6407C78.6569 47.6356 70.0156 51.3658 61.9061 51.2325Z" fill="#171717"/>
<g filter="url(#filter1_b_54_1621)">
<path fill-rule="evenodd" clip-rule="evenodd" d="M64.2731 18.2304C67.0257 16.5212 68.7071 14.2378 68.7071 11.7295C68.7071 6.43209 61.2075 2.1377 51.9563 2.1377C42.7051 2.1377 35.2056 6.43209 35.2056 11.7295C35.2056 16.5727 41.4741 20.5774 49.6187 21.2286C46.8662 22.9378 45.1848 25.2212 45.1848 27.7295C45.1848 33.0269 52.6843 37.3213 61.9355 37.3213C71.1867 37.3213 78.6863 33.0269 78.6863 27.7295C78.6863 22.8863 72.4177 18.8816 64.2731 18.2304Z" fill="#171717" fill-opacity="0.7"/>
</g>
<path d="M19.9718 58.2778C19.9718 58.9778 19.8143 59.4747 19.4992 59.7684C19.1923 60.0574 18.7884 60.169 18.2875 60.1032C17.7947 60.0421 17.2656 59.848 16.7001 59.5208C15.8761 59.044 15.1328 58.3946 14.4704 57.5727C13.8079 56.7414 13.3676 55.8567 13.1495 54.9184L14.5793 54.8078C14.7732 55.4426 15.056 56.0122 15.4276 56.5166C15.7992 57.0209 16.2436 57.4227 16.7606 57.7218C17.1807 57.9649 17.5119 58.0585 17.7542 58.0027C18.0047 57.9516 18.1299 57.7394 18.1299 57.3661C18.1299 57.0674 18.045 56.771 17.8754 56.4769C17.7138 56.1874 17.5078 55.9142 17.2574 55.6573C17.015 55.4051 16.6797 55.0804 16.2516 54.6833C15.678 54.1555 15.2094 53.693 14.8459 53.296C14.4823 52.8897 14.1713 52.4204 13.9128 51.8882C13.6543 51.3559 13.525 50.7771 13.525 50.1518C13.5249 49.4891 13.6744 49.0156 13.9733 48.7312C14.2802 48.4422 14.6801 48.3282 15.1729 48.3893C15.6738 48.4458 16.211 48.64 16.7846 48.9718C17.5682 49.4252 18.2387 50.0185 18.7961 50.7517C19.3536 51.4849 19.7131 52.2482 19.8747 53.0417L18.4448 53.1524C18.2994 52.6296 18.0812 52.1627 17.7904 51.7518C17.4996 51.3315 17.136 50.9952 16.6998 50.7428C16.3039 50.5137 15.9808 50.4341 15.7304 50.5039C15.488 50.569 15.3669 50.7742 15.3669 51.1195C15.3669 51.3809 15.4436 51.6446 15.5971 51.9107C15.7506 52.1675 15.9445 52.4197 16.1788 52.6673C16.4212 52.9102 16.7443 53.2185 17.1482 53.5922C17.7299 54.1247 18.2106 54.6035 18.5903 55.0285C18.97 55.4442 19.2931 55.9299 19.5597 56.4854C19.8344 57.0364 19.9718 57.6338 19.9718 58.2778ZM24.6103 56.4957C25.297 56.893 25.8423 57.4745 26.2462 58.2403C26.6583 59.0013 26.8643 59.8858 26.8643 60.8938L26.8644 65.2338L25.1801 64.2593L25.18 60.5493C25.1799 59.2239 24.8002 58.3416 24.0408 57.9022C23.6369 57.6685 23.3097 57.6612 23.0593 57.8803C22.8169 58.0947 22.6958 58.5286 22.6958 59.1819L22.6959 62.8219L21.0115 61.8474L21.0112 51.1934L22.6956 52.1679L22.6957 56.5359C23.0996 56.0043 23.7378 55.9909 24.6103 56.4957ZM30.9784 60.1803C31.8266 60.6711 32.4891 61.3344 32.9657 62.1701C33.4424 62.9966 33.6807 63.9231 33.6808 64.9498L33.6809 69.1778L32.2631 68.3575C32.255 68.2781 32.2429 68.1498 32.2268 67.9724C32.2187 67.7904 32.2025 67.6271 32.1783 67.4824C31.9925 67.7109 31.7501 67.8227 31.4512 67.8177C31.1604 67.8081 30.805 67.6818 30.3849 67.4387C29.9486 67.1863 29.5487 66.8663 29.1852 66.4786C28.8297 66.0956 28.547 65.6753 28.3369 65.2178C28.1269 64.751 28.0218 64.2842 28.0218 63.8175C28.0218 63.3322 28.1389 62.98 28.3732 62.7609C28.6155 62.5371 28.9387 62.444 29.3426 62.4818C29.7465 62.5195 30.1908 62.6785 30.6755 62.959C31.1118 63.2114 31.5602 63.5548 32.0206 63.9893C31.9964 62.9019 31.6005 62.1362 30.833 61.6921C30.2191 61.3369 29.7707 61.3948 29.488 61.8659L28.2883 60.3738C28.5145 59.9633 28.8618 59.7396 29.3304 59.7027C29.7989 59.6565 30.3483 59.8157 30.9784 60.1803ZM32.0207 65.2773C31.6167 64.9315 31.2653 64.6722 30.9664 64.4993C30.5706 64.2702 30.2636 64.1766 30.0455 64.2184C29.8274 64.2509 29.7183 64.4164 29.7183 64.7151C29.7183 64.9858 29.8032 65.2449 29.9728 65.4923C30.1505 65.7445 30.3767 65.9501 30.6514 66.109C31.0149 66.3193 31.334 66.3873 31.6087 66.3129C31.8834 66.2291 32.0207 65.9773 32.0207 65.5573L32.0207 65.2773ZM38.4969 64.5305C38.7393 64.6707 38.9655 64.8436 39.1755 65.0491C39.3856 65.2546 39.5472 65.4555 39.6603 65.6516L39.0059 66.771C38.7959 66.4814 38.5576 66.2595 38.291 66.1053C37.8547 65.8529 37.5033 65.8595 37.2368 66.1253C36.9783 66.3957 36.849 66.8996 36.849 67.6369L36.8492 71.0109L35.1648 70.0364L35.1645 62.7844L36.6429 63.6397C36.6833 64.2231 36.7197 64.6268 36.752 64.8508C36.9378 64.5197 37.1802 64.3286 37.4791 64.2775C37.778 64.2265 38.1172 64.3108 38.4969 64.5305ZM42.7443 66.988C43.3017 67.3105 43.7945 67.7403 44.2227 68.2774C44.659 68.8098 44.9942 69.4051 45.2285 70.0633C45.4709 70.7169 45.5921 71.3797 45.5921 72.0517C45.5921 72.3503 45.5679 72.6396 45.5194 72.9196L41.3509 70.5077C41.4236 71.0911 41.5933 71.5999 41.8599 72.0342C42.1265 72.4591 42.4577 72.7861 42.8536 73.0151C43.1363 73.1787 43.3868 73.2536 43.6049 73.2398C43.8311 73.2213 44.0048 73.1025 44.1259 72.8833L45.362 74.4384C45.1923 74.8723 44.8652 75.0936 44.3805 75.1025C43.9038 75.1161 43.3707 74.9522 42.7809 74.611C42.2154 74.2838 41.6903 73.8353 41.2056 73.2656C40.7209 72.6958 40.329 72.0351 40.0301 71.2835C39.7393 70.5365 39.5938 69.7571 39.5938 68.9451C39.5938 68.1424 39.7392 67.5405 40.03 67.1395C40.3289 66.7431 40.7166 66.5381 41.1933 66.5246C41.6699 66.511 42.1869 66.6655 42.7443 66.988ZM42.6959 68.542C42.3647 68.3503 42.0819 68.308 41.8477 68.4152C41.6134 68.5223 41.4559 68.7718 41.3751 69.1637L43.8714 70.6081C43.8391 70.1414 43.7138 69.7282 43.4957 69.3687C43.2856 69.0045 43.019 68.7289 42.6959 68.542Z" fill="white"/>
<defs>
<filter id="filter0_b_54_1621" x="-135.914" y="-135.914" width="392.078" height="341.828" filterUnits="userSpaceOnUse" color-interpolation-filters="sRGB">
<feFlood flood-opacity="0" result="BackgroundImageFix"/>
<feGaussianBlur in="BackgroundImageFix" stdDeviation="67.957"/>
<feComposite in2="SourceAlpha" operator="in" result="effect1_backgroundBlur_54_1621"/>
<feBlend mode="normal" in="SourceGraphic" in2="effect1_backgroundBlur_54_1621" result="shape"/>
</filter>
<filter id="filter1_b_54_1621" x="-100.709" y="-133.776" width="315.309" height="307.012" filterUnits="userSpaceOnUse" color-interpolation-filters="sRGB">
<feFlood flood-opacity="0" result="BackgroundImageFix"/>
<feGaussianBlur in="BackgroundImageFix" stdDeviation="67.957"/>
<feComposite in2="SourceAlpha" operator="in" result="effect1_backgroundBlur_54_1621"/>
<feBlend mode="normal" in="SourceGraphic" in2="effect1_backgroundBlur_54_1621" result="shape"/>
</filter>
</defs>
</svg>
