<svg width="93" height="102" viewBox="0 0 93 102" fill="none" xmlns="http://www.w3.org/2000/svg">
<path fill-rule="evenodd" clip-rule="evenodd" d="M30.0247 17.9065C30.0247 27.1944 43.7572 35.9803 61.4846 35.9803C76.7152 36.2314 92.9445 29.2026 92.9445 17.9065V29.5014C92.9445 31.125 92.5966 32.731 91.642 34.0444C88.678 38.1228 80.1861 46.7744 61.4846 46.7744C42.7831 46.7744 34.2913 38.1228 31.3272 34.0444C30.3726 32.731 30.0247 31.1252 30.0247 29.5015V17.9065ZM61.4846 48.0295C43.7572 48.0295 30.0247 39.2437 30.0247 29.9557V41.5507C30.0247 43.1744 30.3726 44.7802 31.3272 46.0936C34.1162 49.9311 41.7992 57.8175 58.2765 58.7358C52.3523 64.1841 41.714 67.2754 31.5228 67.1075C13.7954 67.1075 0.0629578 58.3216 0.0629578 49.0336V60.6287C0.0629578 62.2524 0.410837 63.8581 1.36542 65.1716C4.3295 69.2499 12.8213 77.9016 31.5228 77.9016C49.8286 77.9016 58.3522 69.6122 61.4846 65.4365V66.7888C57.13 74.6886 43.9917 79.3622 31.5228 79.1567C13.7954 79.1567 0.0629578 70.3708 0.0629578 61.0829V72.6779C0.0629578 74.3016 0.410837 75.9073 1.36542 77.2208C4.3295 81.2991 12.8213 89.9508 31.5228 89.9508C50.2244 89.9508 58.7162 81.2992 61.6803 77.2208C62.6348 75.9073 62.9827 74.3014 62.9827 72.6777V70.8541C80.6424 70.4073 88.7583 62.1107 91.642 58.1429C92.5966 56.8294 92.9445 55.2235 92.9445 53.5998V42.0049C92.9445 52.9314 77.7602 59.8651 62.9827 60.0801V58.8048C80.6424 58.3581 88.7583 50.0615 91.642 46.0936C92.5966 44.7802 92.9445 43.1743 92.9445 41.5506V29.9557C92.9445 41.2519 76.7152 48.2806 61.4846 48.0295ZM31.5228 91.2059C13.7954 91.2059 0.0629578 82.42 0.0629578 73.1321V84.7271C0.0629578 86.3508 0.410837 87.9566 1.36542 89.27C4.3295 93.3484 12.8213 102 31.5228 102C50.2244 102 58.7162 93.3484 61.6803 89.27C62.6348 87.9566 62.9827 86.3506 62.9827 84.727V73.1321C62.9827 84.4282 46.7534 91.4569 31.5228 91.2059Z" fill="#171717"/>
<g filter="url(#filter0_b_54_1623)">
<path fill-rule="evenodd" clip-rule="evenodd" d="M61.5403 36.1477C78.9151 36.1477 93.0002 28.0557 93.0002 18.0738C93.0002 8.09193 78.9151 0 61.5403 0C44.1655 0 30.0804 8.09193 30.0804 18.0738C30.0804 23.7167 34.5817 28.7556 41.6339 32.0701C38.4765 31.4586 35.0949 31.1272 31.5785 31.1272C14.2037 31.1272 0.118622 39.2191 0.118622 49.201C0.118622 59.1829 14.2037 67.2748 31.5785 67.2748C48.9533 67.2748 63.0384 59.1829 63.0384 49.201C63.0384 43.5581 58.5371 38.5192 51.4849 35.2048C54.6423 35.8162 58.0239 36.1477 61.5403 36.1477Z" fill="#171717" fill-opacity="0.7"/>
</g>
<defs>
<filter id="filter0_b_54_1623" x="-99.8814" y="-100" width="292.882" height="267.275" filterUnits="userSpaceOnUse" color-interpolation-filters="sRGB">
<feFlood flood-opacity="0" result="BackgroundImageFix"/>
<feGaussianBlur in="BackgroundImageFix" stdDeviation="50"/>
<feComposite in2="SourceAlpha" operator="in" result="effect1_backgroundBlur_54_1623"/>
<feBlend mode="normal" in="SourceGraphic" in2="effect1_backgroundBlur_54_1623" result="shape"/>
</filter>
</defs>
</svg>
