<svg width="121" height="88" viewBox="0 0 121 88" fill="none" xmlns="http://www.w3.org/2000/svg">
<path fill-rule="evenodd" clip-rule="evenodd" d="M0 35L60.25 70V88L0 53V35Z" fill="#171717" fill-opacity="0.8"/>
<g filter="url(#filter0_b_54_1619)">
<path fill-rule="evenodd" clip-rule="evenodd" d="M60 0L120.25 35L60.25 70L0 35L60 0Z" fill="#171717" fill-opacity="0.7"/>
</g>
<path fill-rule="evenodd" clip-rule="evenodd" d="M120.25 35L60 70V88L120.25 53V35Z" fill="#171717"/>
<g filter="url(#filter1_d_54_1619)">
<path fill-rule="evenodd" clip-rule="evenodd" d="M78.8357 14H39.9168V34.3145L32.6819 28L30.4366 30.25L33.9293 33H22.9521V36.25H33.9293L30.4366 39.25L32.9314 41.5L39.9168 35.2V56H78.8357V36.25H89.8129L86.3201 39.25L88.8149 41.5L96.2993 34.75L88.5655 28L86.3201 30.25L89.8129 33H78.8357V14ZM75.842 16H42.9106V54H75.842V16ZM55.8835 18H58.8773V22H55.8835V18ZM55.8835 30H58.8773V34H55.8835V30ZM55.8835 42H58.8773V46H55.8835V42ZM67.3596 21.25V18C67.3596 18 74.844 20.5 74.844 27C74.844 32.5 66.8607 36 66.8607 36C66.8607 36 62.869 38.75 62.869 41.75C62.869 46 67.3596 48 67.3596 48V51.25C65.3638 51 59.8752 48 59.8752 41.75C59.8752 36.5 66.8607 32.75 66.8607 32.75C66.8607 32.75 71.8503 30.5 71.8503 26.75C71.8503 23 67.3596 21.25 67.3596 21.25ZM55.8835 24H58.8773V28H55.8835V24ZM49.1815 18C45.8405 18 44.9064 19.092 44.9064 20.988C44.9064 22.884 45.8405 23.976 49.1815 23.976C52.5106 23.976 53.4566 22.884 53.4566 20.988C53.4566 19.104 52.5106 18 49.1815 18ZM46.2955 20.988C46.2955 19.992 46.8703 19.632 49.1815 19.632C51.4807 19.632 52.0675 20.004 52.0675 20.988C52.0675 21.996 51.4807 22.368 49.1815 22.368C46.8823 22.368 46.2955 21.996 46.2955 20.988ZM45.0262 27.72H51.8639L51.4687 25.68H52.8339L53.3368 28.164V29.364L45.0262 29.364V27.72ZM44.9064 35.076C44.9064 33.18 45.8405 32.088 49.1815 32.088C52.5106 32.088 53.4566 33.192 53.4566 35.076C53.4566 36.972 52.5106 38.064 49.1815 38.064C45.8405 38.064 44.9064 36.972 44.9064 35.076ZM49.1815 33.72C46.8703 33.72 46.2955 34.08 46.2955 35.076C46.2955 36.084 46.8823 36.456 49.1815 36.456C51.4807 36.456 52.0675 36.084 52.0675 35.076C52.0675 34.092 51.4807 33.72 49.1815 33.72ZM45.0262 41.808H51.8639L51.4687 39.768H52.8339L53.3368 42.252V43.452H45.0262V41.808ZM51.8639 48.852H45.0262V50.496H53.3368V49.296L52.8339 46.812H51.4687L51.8639 48.852ZM55.8835 36H58.8773V40H55.8835V36ZM58.8773 48H55.8835V52H58.8773V48Z" fill="white"/>
</g>
<path d="M17.6776 59.9184L15.9205 58.9017L15.9202 48.6537L17.6773 49.6704L17.6776 59.9184ZM25.5159 61.4856C25.5159 62.1856 25.3584 62.6825 25.0434 62.9762C24.7364 63.2652 24.3325 63.3769 23.8316 63.3111C23.3388 63.2499 22.8097 63.0558 22.2442 62.7286C21.4202 62.2518 20.677 61.6024 20.0145 60.7805C19.3521 59.9492 18.9118 59.0645 18.6936 58.1263L20.1235 58.0156C20.3174 58.6504 20.6001 59.22 20.9718 59.7244C21.3434 60.2287 21.7877 60.6305 22.3047 60.9296C22.7248 61.1727 23.056 61.2663 23.2984 61.2106C23.5488 61.1595 23.674 60.9472 23.674 60.5739C23.674 60.2752 23.5892 59.9788 23.4195 59.6847C23.2579 59.3952 23.0519 59.122 22.8015 58.8651C22.5591 58.6129 22.2239 58.2882 21.7957 57.8912C21.2221 57.3633 20.7536 56.9009 20.39 56.5038C20.0265 56.0975 19.7154 55.6282 19.4569 55.096C19.1984 54.5637 19.0691 53.9849 19.0691 53.3596C19.0691 52.6969 19.2185 52.2234 19.5174 51.939C19.8244 51.65 20.2243 51.536 20.717 51.5972C21.2179 51.6536 21.7551 51.8478 22.3287 52.1797C23.1123 52.6331 23.7828 53.2263 24.3403 53.9595C24.8977 54.6927 25.2572 55.4561 25.4188 56.2495L23.9889 56.3602C23.8435 55.8374 23.6254 55.3705 23.3345 54.9596C23.0437 54.5393 22.6802 54.203 22.2439 53.9506C21.8481 53.7215 21.5249 53.6419 21.2745 53.7117C21.0322 53.7768 20.911 53.982 20.911 54.3273C20.911 54.5887 20.9878 54.8524 21.1413 55.1185C21.2948 55.3754 21.4886 55.6275 21.7229 55.8751C21.9653 56.118 22.2884 56.4263 22.6924 56.8C23.274 57.3325 23.7547 57.8113 24.1344 58.2363C24.5141 58.652 24.8373 59.1377 25.1039 59.6932C25.3785 60.2442 25.5159 60.8416 25.5159 61.4856ZM29.6575 56.6021C30.5219 57.1022 31.3015 57.7539 31.9963 58.5573C32.6991 59.3653 33.2525 60.2734 33.6565 61.2818C34.0604 62.2809 34.2624 63.3124 34.2624 64.3764C34.2625 65.4404 34.0605 66.2429 33.6566 66.7838C33.2527 67.3248 32.7034 67.5996 32.0087 67.6083C31.3139 67.6076 30.5303 67.3549 29.6578 66.8501L26.7011 65.1393L26.7008 54.8913L29.6575 56.6021ZM29.4518 64.9949C30.4051 65.5464 31.1362 65.6755 31.6451 65.3819C32.154 65.0884 32.4085 64.3956 32.4084 63.3036C32.4084 62.2303 32.1498 61.2501 31.6328 60.3629C31.1238 59.4711 30.3968 58.7518 29.4516 58.2049L28.4579 57.63L28.4581 64.42L29.4518 64.9949ZM37.1241 60.9222L41.4261 70.1872L41.4259 63.4112L43.0618 64.3577L43.0621 74.6057L41.6322 73.7784L37.3181 64.4924L37.3183 71.2824L35.7066 70.3499L35.7063 60.1019L37.1241 60.9222Z" fill="white"/>
<defs>
<filter id="filter0_b_54_1619" x="-135.914" y="-135.914" width="392.078" height="341.828" filterUnits="userSpaceOnUse" color-interpolation-filters="sRGB">
<feFlood flood-opacity="0" result="BackgroundImageFix"/>
<feGaussianBlur in="BackgroundImageFix" stdDeviation="67.957"/>
<feComposite in2="SourceAlpha" operator="in" result="effect1_backgroundBlur_54_1619"/>
<feBlend mode="normal" in="SourceGraphic" in2="effect1_backgroundBlur_54_1619" result="shape"/>
</filter>
<filter id="filter1_d_54_1619" x="22.9521" y="14" width="73.3472" height="44" filterUnits="userSpaceOnUse" color-interpolation-filters="sRGB">
<feFlood flood-opacity="0" result="BackgroundImageFix"/>
<feColorMatrix in="SourceAlpha" type="matrix" values="0 0 0 0 0 0 0 0 0 0 0 0 0 0 0 0 0 0 127 0" result="hardAlpha"/>
<feOffset dy="2"/>
<feComposite in2="hardAlpha" operator="out"/>
<feColorMatrix type="matrix" values="0 0 0 0 0.0901961 0 0 0 0 0.0901961 0 0 0 0 0.0901961 0 0 0 1 0"/>
<feBlend mode="normal" in2="BackgroundImageFix" result="effect1_dropShadow_54_1619"/>
<feBlend mode="normal" in="SourceGraphic" in2="effect1_dropShadow_54_1619" result="shape"/>
</filter>
</defs>
</svg>
