<svg width="126" height="181" viewBox="0 0 126 181" fill="none" xmlns="http://www.w3.org/2000/svg">
<path opacity="0.9" fill-rule="evenodd" clip-rule="evenodd" d="M45.1308 177V70L5.01453 46L5.01453 153L45.1308 177Z" fill="#171717"/>
<path fill-rule="evenodd" clip-rule="evenodd" d="M5.01453 71V75L10.3634 72L5.01453 71ZM10.0291 134V131L14.0407 131.75L10.0291 134ZM10.0291 139V136L14.0407 136.75L10.0291 139ZM10.0291 149V146L14.0407 146.75L10.0291 149ZM10.0291 151V154L14.0407 151.75L10.0291 151ZM10.0291 144V141L14.0407 141.75L10.0291 144Z" fill="#171717"/>
<g filter="url(#filter0_b_55_1453)">
<path fill-rule="evenodd" clip-rule="evenodd" d="M45.1308 70L5.01453 46L85.247 0L125.363 24L45.1308 70ZM44.1279 83.75L40.1163 86L0 62L4.01163 59.75L44.1279 83.75ZM40.1163 152L44.1279 149.75L14.0407 131.75L10.0291 134L40.1163 152ZM44.1279 159.75L40.1163 162L10.0291 144L14.0407 141.75L44.1279 159.75ZM40.1163 157L44.1279 154.75L14.0407 136.75L10.0291 139L40.1163 157ZM44.1279 164.75L40.1163 167L10.0291 149L14.0407 146.75L44.1279 164.75ZM40.1163 172L44.1279 169.75L14.0407 151.75L10.0291 154L40.1163 172ZM39.1133 90.75L35.1017 93L5.01453 75L9.02616 72.75L39.1133 90.75ZM40.1163 73L44.1279 70.75L4.01163 46.75L0 49L40.1163 73Z" fill="#171717" fill-opacity="0.7"/>
</g>
<g filter="url(#filter1_b_55_1453)">
<path fill-rule="evenodd" clip-rule="evenodd" d="M40.1163 73V84.75L0 60.75V49L40.1163 73ZM40.1163 180.5V172L10.0291 154V151L40.1163 169V167L10.0291 149V146L40.1163 164V162L10.0291 144V141L40.1163 159.25V157L10.0291 139V136L40.1163 154V152L10.0291 134V131L40.1163 149V86L0 62V156.5L40.1163 180.5ZM5.01453 71L35.1017 89V93L5.01453 75V71Z" fill="#171717" fill-opacity="0.8"/>
</g>
<path fill-rule="evenodd" clip-rule="evenodd" d="M45.1308 70L125.363 24V131L45.1308 177V70ZM40.1163 73L44.1279 70.75V82.5L40.1163 84.75V73ZM44.1279 169.75L40.1163 172V180.5L44.1279 178V169.75ZM40.1163 152L44.1279 149.75V151.75L40.1163 154V152ZM44.1279 154.75L40.1163 157V159L44.1279 156.75V154.75ZM40.1163 162L44.1279 159.75V161.75L40.1163 164V162ZM44.1279 164.75L40.1163 167V169L44.1279 166.75V164.75ZM40.1163 86L44.1279 83.75V146.75L40.1163 149V86Z" fill="#171717"/>
<path d="M62.5022 119.684C63.2978 119.224 63.9808 118.587 64.5513 117.773C65.1367 116.949 65.6021 116.005 65.9474 114.939L68.6719 115.186C68.2666 116.702 67.5235 118.189 66.4426 119.645C65.3618 121.083 64.0708 122.236 62.5697 123.103C61.1136 123.943 59.7851 124.303 58.5842 124.182C57.3833 124.06 56.4301 123.458 55.7246 122.374C55.0191 121.274 54.6664 119.753 54.6665 117.811C54.6666 115.87 55.0119 113.955 55.7024 112.065C56.408 110.167 57.3613 108.464 58.5622 106.957C59.7782 105.44 61.1142 104.261 62.5703 103.421C64.0714 102.554 65.3624 102.225 66.4432 102.433C67.524 102.623 68.267 103.243 68.6723 104.292L65.9476 107.685C65.6024 107.017 65.1371 106.61 64.5516 106.463C63.9812 106.307 63.2982 106.458 62.5026 106.918C61.662 107.403 60.9114 108.096 60.2509 108.998C59.5904 109.899 59.065 110.948 58.6746 112.144C58.2993 113.314 58.1116 114.54 58.1116 115.823C58.1116 117.105 58.2992 118.124 58.6744 118.878C59.0647 119.623 59.5901 120.065 60.2505 120.204C60.911 120.342 61.6616 120.169 62.5022 119.684ZM78.5048 94.5594L85.1692 109.744L81.7016 111.746L80.2606 108.235L73.8433 111.94L72.4471 117.088L69.1821 118.973L75.6451 96.2103L78.5048 94.5594ZM79.2024 105.622L76.996 100.214L74.8566 108.131L79.2024 105.622ZM100.879 81.6425L103.356 80.2126L103.355 99.2446L100.248 101.038L100.248 88.7665L96.0598 98.3864L94.3485 99.3743L90.1381 94.5512L90.1377 106.875L87.0529 108.656L87.0535 89.6241L89.6429 88.1292L95.2719 94.7333L100.879 81.6425ZM117.945 85.3099C117.945 86.6099 117.652 87.8709 117.067 89.0928C116.496 90.2888 115.745 91.3635 114.815 92.3168C113.899 93.2614 112.916 94.0371 111.865 94.6437C110.334 95.5277 108.953 95.9176 107.722 95.8136C106.491 95.6922 105.673 94.9945 105.268 93.7205L107.925 90.4446C108.285 91.2073 108.81 91.658 109.501 91.7966C110.191 91.9353 111.017 91.7274 111.978 91.1727C112.758 90.7221 113.374 90.1847 113.824 89.5608C114.289 88.9281 114.522 88.2651 114.522 87.5718C114.522 87.0171 114.365 86.6488 114.049 86.4668C113.749 86.2761 113.366 86.2111 112.901 86.2717C112.451 86.3237 111.828 86.4407 111.032 86.6227C109.966 86.874 109.096 87.0213 108.42 87.0646C107.745 87.0906 107.167 86.8869 106.686 86.4536C106.206 86.0202 105.966 85.2229 105.966 84.0615C105.966 82.8309 106.244 81.6306 106.799 80.4606C107.37 79.2646 108.113 78.1943 109.028 77.2496C109.959 76.279 110.957 75.486 112.023 74.8707C113.479 74.0301 114.725 73.6921 115.761 73.8568C116.797 74.0215 117.465 74.6672 117.765 75.7939L115.108 79.0698C114.838 78.4111 114.432 78.0124 113.892 77.8738C113.352 77.7177 112.676 77.8737 111.866 78.3417C111.13 78.7664 110.53 79.3123 110.064 79.9797C109.614 80.621 109.389 81.2623 109.389 81.9036C109.389 82.389 109.531 82.714 109.816 82.8787C110.102 83.026 110.462 83.078 110.897 83.0347C111.348 82.9654 111.948 82.844 112.699 82.6707C113.779 82.4108 114.672 82.2678 115.378 82.2418C116.084 82.1985 116.684 82.4065 117.179 82.8659C117.69 83.2992 117.945 84.1139 117.945 85.3099Z" fill="white"/>
<defs>
<filter id="filter0_b_55_1453" x="-100" y="-100" width="325.363" height="372" filterUnits="userSpaceOnUse" color-interpolation-filters="sRGB">
<feFlood flood-opacity="0" result="BackgroundImageFix"/>
<feGaussianBlur in="BackgroundImageFix" stdDeviation="50"/>
<feComposite in2="SourceAlpha" operator="in" result="effect1_backgroundBlur_55_1453"/>
<feBlend mode="normal" in="SourceGraphic" in2="effect1_backgroundBlur_55_1453" result="shape"/>
</filter>
<filter id="filter1_b_55_1453" x="-100" y="-51" width="240.116" height="331.5" filterUnits="userSpaceOnUse" color-interpolation-filters="sRGB">
<feFlood flood-opacity="0" result="BackgroundImageFix"/>
<feGaussianBlur in="BackgroundImageFix" stdDeviation="50"/>
<feComposite in2="SourceAlpha" operator="in" result="effect1_backgroundBlur_55_1453"/>
<feBlend mode="normal" in="SourceGraphic" in2="effect1_backgroundBlur_55_1453" result="shape"/>
</filter>
</defs>
</svg>
