<svg width="125" height="181" viewBox="0 0 125 181" fill="none" xmlns="http://www.w3.org/2000/svg">
<path opacity="0.9" fill-rule="evenodd" clip-rule="evenodd" d="M45 177V70L5 46L5 153L45 177Z" fill="#171717"/>
<path fill-rule="evenodd" clip-rule="evenodd" d="M5 71V75L10.3333 72L5 71ZM10 134V131L14 131.75L10 134ZM10 139V136L14 136.75L10 139ZM10 149V146L14 146.75L10 149ZM10 151V154L14 151.75L10 151ZM10 144V141L14 141.75L10 144Z" fill="#171717"/>
<g filter="url(#filter0_b_55_1450)">
<path fill-rule="evenodd" clip-rule="evenodd" d="M45 70L5 46L85 0L125 24L45 70ZM44 83.75L40 86L0 62L4 59.75L44 83.75ZM40 152L44 149.75L14 131.75L10 134L40 152ZM44 159.75L40 162L10 144L14 141.75L44 159.75ZM40 157L44 154.75L14 136.75L10 139L40 157ZM44 164.75L40 167L10 149L14 146.75L44 164.75ZM40 172L44 169.75L14 151.75L10 154L40 172ZM39 90.75L35 93L5 75L9 72.75L39 90.75ZM40 73L44 70.75L4 46.75L0 49L40 73Z" fill="#171717" fill-opacity="0.7"/>
</g>
<g filter="url(#filter1_b_55_1450)">
<path fill-rule="evenodd" clip-rule="evenodd" d="M40 73V84.75L0 60.75V49L40 73ZM40 180.5V172L10 154V151L40 169V167L10 149V146L40 164V162L10 144V141L40 159.25V157L10 139V136L40 154V152L10 134V131L40 149V86L0 62V156.5L40 180.5ZM5 71L35 89V93L5 75V71Z" fill="#171717" fill-opacity="0.8"/>
</g>
<path fill-rule="evenodd" clip-rule="evenodd" d="M45 70L125 24V131L45 177V70ZM40 73L44 70.75V82.5L40 84.75V73ZM44 169.75L40 172V180.5L44 178V169.75ZM40 152L44 149.75V151.75L40 154V152ZM44 154.75L40 157V159L44 156.75V154.75ZM40 162L44 159.75V161.75L40 164V162ZM44 164.75L40 167V169L44 166.75V164.75ZM40 86L44 83.75V146.75L40 149V86Z" fill="#171717"/>
<path d="M73.9382 96.8296L67.0431 111.889L74.2594 119.335L69.4304 122.131L64.6553 116.929L59.8529 127.676L55.3459 130.286L62.5361 114.591L55.6685 107.408L60.417 104.658L64.9238 109.551L69.4311 99.4391L73.9382 96.8296ZM79.8622 116.091L76.1331 118.25L76.1339 94.6593L79.8629 92.5002L79.8622 116.091ZM82.5071 106.531C82.5071 104.857 82.8291 103.193 83.473 101.539C84.1348 99.8743 85.0112 98.3852 86.1022 97.0716C87.1932 95.7372 88.3737 94.7024 89.6435 93.9672C90.8955 93.2423 92.058 92.9206 93.1311 93.0019C94.222 93.0522 95.0894 93.5317 95.7333 94.4402C96.395 95.3384 96.7258 96.6245 96.7257 98.2985C96.7257 99.9725 96.3948 101.642 95.733 103.306C95.0891 104.96 94.2216 106.444 93.1306 107.758C92.0575 109.061 90.8949 110.075 89.643 110.8C88.3731 111.535 87.1927 111.878 86.1017 111.828C85.0108 111.777 84.1344 111.303 83.4727 110.405C82.8289 109.496 82.507 108.205 82.5071 106.531ZM86.3703 104.294C86.3702 105.72 86.6742 106.681 87.2823 107.176C87.9082 107.64 88.6862 107.603 89.6163 107.065C90.5463 106.526 91.3154 105.668 91.9235 104.489C92.5316 103.289 92.8357 101.977 92.8357 100.551C92.8358 99.1248 92.5318 98.1642 91.9237 97.6689C91.3156 97.1736 90.5466 97.1953 89.6166 97.7337C88.6865 98.2722 87.9085 99.1463 87.2825 100.356C86.6744 101.556 86.3703 102.868 86.3703 104.294ZM112.812 80.9561L112.811 95.3711C112.811 98.6158 112.104 101.37 110.691 103.635C109.278 105.9 107.526 107.638 105.433 108.85C103.913 109.73 102.572 110.135 101.409 110.064C100.264 109.982 99.4507 109.42 98.9678 108.377L101.838 104.824C102.536 105.97 103.734 106.051 105.433 105.068C106.757 104.301 107.687 103.308 108.223 102.088C108.778 100.879 109.064 99.2662 109.082 97.2512C108.152 99.319 106.811 100.86 105.058 101.875C103.931 102.528 102.876 102.808 101.892 102.716C100.908 102.604 100.113 102.093 99.5046 101.184C98.9144 100.245 98.6193 98.9174 98.6194 97.2021C98.6195 95.4661 98.9146 93.7969 99.5049 92.1945C100.113 90.5611 100.909 89.1289 101.893 87.898C102.876 86.6465 103.932 85.6945 105.058 85.0422C105.97 84.514 106.793 84.265 107.526 84.2951C108.26 84.3252 108.859 84.6706 109.324 85.3314C109.449 84.4116 109.521 83.5848 109.539 82.8511L112.812 80.9561ZM105.755 97.7823C106.685 97.2438 107.472 96.3955 108.116 95.2374C108.76 94.0793 109.082 92.7149 109.082 91.1442C109.082 89.5942 108.76 88.6336 108.117 88.2624C107.473 87.8705 106.686 87.9438 105.756 88.4823C104.772 89.0518 103.976 89.9156 103.368 91.0737C102.778 92.2215 102.483 93.5187 102.483 94.9653C102.483 96.412 102.778 97.3881 103.368 97.8937C103.976 98.389 104.772 98.3518 105.755 97.7823Z" fill="white"/>
<defs>
<filter id="filter0_b_55_1450" x="-100" y="-100" width="325" height="372" filterUnits="userSpaceOnUse" color-interpolation-filters="sRGB">
<feFlood flood-opacity="0" result="BackgroundImageFix"/>
<feGaussianBlur in="BackgroundImageFix" stdDeviation="50"/>
<feComposite in2="SourceAlpha" operator="in" result="effect1_backgroundBlur_55_1450"/>
<feBlend mode="normal" in="SourceGraphic" in2="effect1_backgroundBlur_55_1450" result="shape"/>
</filter>
<filter id="filter1_b_55_1450" x="-100" y="-51" width="240" height="331.5" filterUnits="userSpaceOnUse" color-interpolation-filters="sRGB">
<feFlood flood-opacity="0" result="BackgroundImageFix"/>
<feGaussianBlur in="BackgroundImageFix" stdDeviation="50"/>
<feComposite in2="SourceAlpha" operator="in" result="effect1_backgroundBlur_55_1450"/>
<feBlend mode="normal" in="SourceGraphic" in2="effect1_backgroundBlur_55_1450" result="shape"/>
</filter>
</defs>
</svg>
