<svg width="141" height="189" viewBox="0 0 141 189" fill="none" xmlns="http://www.w3.org/2000/svg">
<path opacity="0.9" fill-rule="evenodd" clip-rule="evenodd" d="M44.9287 176.511V69.8066L4.99207 45.8729L4.99207 152.577L44.9287 176.511Z" fill="#171717"/>
<path fill-rule="evenodd" clip-rule="evenodd" d="M4.99207 70.8039V74.7928L10.3169 71.8011L4.99207 70.8039ZM9.98414 133.63V130.638L13.9778 131.386L9.98414 133.63ZM9.98414 138.616V135.624L13.9778 136.372L9.98414 138.616ZM9.98414 148.588V145.597L13.9778 146.345L9.98414 148.588ZM9.98414 150.583V153.575L13.9778 151.331L9.98414 150.583ZM9.98414 143.602V140.61L13.9778 141.358L9.98414 143.602Z" fill="#171717"/>
<g filter="url(#filter0_b_55_1458)">
<path fill-rule="evenodd" clip-rule="evenodd" d="M44.9287 69.8066L4.99208 45.8729L84.8653 0L124.802 23.9337L44.9287 69.8066ZM43.9303 83.5186L39.9366 85.7624L0 61.8287L3.99366 59.5849L43.9303 83.5186ZM39.9366 151.58L43.9303 149.336L13.9778 131.386L9.98415 133.63L39.9366 151.58ZM43.9303 159.309L39.9366 161.552L9.98415 143.602L13.9778 141.358L43.9303 159.309ZM39.9366 156.566L43.9303 154.323L13.9778 136.372L9.98415 138.616L39.9366 156.566ZM43.9303 164.295L39.9366 166.539L9.98415 148.588L13.9778 146.345L43.9303 164.295ZM39.9366 171.525L43.9303 169.281L13.9778 151.331L9.98415 153.575L39.9366 171.525ZM38.9382 90.4993L34.9445 92.7431L4.99208 74.7928L8.98574 72.549L38.9382 90.4993ZM39.9366 72.7983L43.9303 70.5546L3.99366 46.6209L0 48.8646L39.9366 72.7983Z" fill="#171717" fill-opacity="0.7"/>
</g>
<g filter="url(#filter1_b_55_1458)">
<path fill-rule="evenodd" clip-rule="evenodd" d="M39.9366 72.7983V84.5159L0 60.5822V48.8646L39.9366 72.7983ZM39.9366 180.001V171.525L9.98415 153.575V150.583L39.9366 168.533V166.539L9.98415 148.588V145.597L39.9366 163.547V161.552L9.98415 143.602V140.61L39.9366 158.81V156.566L9.98415 138.616V135.624L39.9366 153.575V151.58L9.98415 133.63V130.638L39.9366 148.588V85.7624L0 61.8287V156.068L39.9366 180.001ZM4.99208 70.8039L34.9445 88.7541V92.7431L4.99208 74.7928V70.8039Z" fill="#171717" fill-opacity="0.8"/>
</g>
<path fill-rule="evenodd" clip-rule="evenodd" d="M44.9287 69.8066L124.802 23.9337V130.638L44.9287 176.511V69.8066ZM39.9366 72.7984L43.9303 70.5546V82.2721L39.9366 84.5159V72.7984ZM43.9303 169.281L39.9366 171.525V180.001L43.9303 177.508V169.281ZM39.9366 151.58L43.9303 149.336V151.331L39.9366 153.575V151.58ZM43.9303 154.323L39.9366 156.566V158.561L43.9303 156.317V154.323ZM39.9366 161.553L43.9303 159.309V161.303L39.9366 163.547V161.553ZM43.9303 164.295L39.9366 166.539V168.533L43.9303 166.289V164.295ZM39.9366 85.7624L43.9303 83.5187V146.345L39.9366 148.588V85.7624Z" fill="#171717"/>
<g filter="url(#filter2_b_55_1458)">
<path fill-rule="evenodd" clip-rule="evenodd" d="M92.6753 118.778L129.113 140.333L125.741 142.338L129.113 144.333L104.108 159.199L125.558 171.889L101.785 186.111L65.347 164.556L82.375 154.369L60.9033 141.667L64.2758 139.662L60.9033 137.667L92.6753 118.778Z" fill="#171717" fill-opacity="0.7"/>
</g>
<path fill-rule="evenodd" clip-rule="evenodd" d="M92.6753 122.222L123.336 140.778L97.2874 155.667L66.7911 137.667L92.6753 122.222Z" fill="white"/>
<g filter="url(#filter3_b_55_1458)">
<path fill-rule="evenodd" clip-rule="evenodd" d="M77.7891 127.709L102.037 113.898C102.037 113.898 109.222 120.298 112.141 126.923C115.06 133.547 122.132 141.519 122.132 141.519L98.1082 155.667C98.1082 155.667 91.1481 147.47 88.0048 140.733C84.8615 133.996 77.7891 127.709 77.7891 127.709Z" fill="#171717" fill-opacity="0.7"/>
</g>
<g filter="url(#filter4_b_55_1458)">
<path fill-rule="evenodd" clip-rule="evenodd" d="M79.5853 126.811L103.833 113C103.833 113 111.018 119.4 113.937 126.025C116.856 132.649 123.928 140.621 123.928 140.621L99.9044 154.768C99.9044 154.768 92.9443 146.572 89.801 139.835C86.6577 133.098 79.5853 126.811 79.5853 126.811Z" fill="#171717" fill-opacity="0.7"/>
</g>
<path fill-rule="evenodd" clip-rule="evenodd" d="M97.3411 162.111L129.113 143.222V140.333L97.3411 159.222V162.111ZM129.113 169.111L97.3411 188V163.222L129.113 144.333V169.111ZM125.558 174.778L101.785 189V186.111L125.558 171.889V174.778Z" fill="#171717"/>
<g filter="url(#filter5_b_55_1458)">
<path fill-rule="evenodd" clip-rule="evenodd" d="M124.702 159.667L139.889 159.889L116.227 173.667L100.785 173.885L124.702 159.667Z" fill="white" fill-opacity="0.5"/>
</g>
<g filter="url(#filter6_b_55_1458)">
<path fill-rule="evenodd" clip-rule="evenodd" d="M97.3411 162.111L60.9033 140.556V137.667L97.3411 159.222V162.111ZM60.9033 167L97.3411 187.889V163.222L60.9033 141.667V167ZM98.6742 187.111L101.785 189V186.111L101.118 185.667L98.6742 187.111ZM116.227 174.333L101.007 174.556L100.785 173.885L116.227 173.667L139.889 159.889L140.111 160.556L116.227 174.333Z" fill="#171717" fill-opacity="0.8"/>
</g>
<path opacity="0.34568" fill-rule="evenodd" clip-rule="evenodd" d="M61.9031 166.111L96.008 185.667V182.778L61.9031 163.222L61.9031 166.111Z" fill="white"/>
<defs>
<filter id="filter0_b_55_1458" x="-100" y="-100" width="324.802" height="371.525" filterUnits="userSpaceOnUse" color-interpolation-filters="sRGB">
<feFlood flood-opacity="0" result="BackgroundImageFix"/>
<feGaussianBlur in="BackgroundImageFix" stdDeviation="50"/>
<feComposite in2="SourceAlpha" operator="in" result="effect1_backgroundBlur_55_1458"/>
<feBlend mode="normal" in="SourceGraphic" in2="effect1_backgroundBlur_55_1458" result="shape"/>
</filter>
<filter id="filter1_b_55_1458" x="-100" y="-51.1354" width="239.937" height="331.137" filterUnits="userSpaceOnUse" color-interpolation-filters="sRGB">
<feFlood flood-opacity="0" result="BackgroundImageFix"/>
<feGaussianBlur in="BackgroundImageFix" stdDeviation="50"/>
<feComposite in2="SourceAlpha" operator="in" result="effect1_backgroundBlur_55_1458"/>
<feBlend mode="normal" in="SourceGraphic" in2="effect1_backgroundBlur_55_1458" result="shape"/>
</filter>
<filter id="filter2_b_55_1458" x="-75.0108" y="-17.1363" width="340.038" height="339.162" filterUnits="userSpaceOnUse" color-interpolation-filters="sRGB">
<feFlood flood-opacity="0" result="BackgroundImageFix"/>
<feGaussianBlur in="BackgroundImageFix" stdDeviation="67.957"/>
<feComposite in2="SourceAlpha" operator="in" result="effect1_backgroundBlur_55_1458"/>
<feBlend mode="normal" in="SourceGraphic" in2="effect1_backgroundBlur_55_1458" result="shape"/>
</filter>
<filter id="filter3_b_55_1458" x="27.7891" y="63.8983" width="144.343" height="141.768" filterUnits="userSpaceOnUse" color-interpolation-filters="sRGB">
<feFlood flood-opacity="0" result="BackgroundImageFix"/>
<feGaussianBlur in="BackgroundImageFix" stdDeviation="25"/>
<feComposite in2="SourceAlpha" operator="in" result="effect1_backgroundBlur_55_1458"/>
<feBlend mode="normal" in="SourceGraphic" in2="effect1_backgroundBlur_55_1458" result="shape"/>
</filter>
<filter id="filter4_b_55_1458" x="29.5853" y="63" width="144.343" height="141.768" filterUnits="userSpaceOnUse" color-interpolation-filters="sRGB">
<feFlood flood-opacity="0" result="BackgroundImageFix"/>
<feGaussianBlur in="BackgroundImageFix" stdDeviation="25"/>
<feComposite in2="SourceAlpha" operator="in" result="effect1_backgroundBlur_55_1458"/>
<feBlend mode="normal" in="SourceGraphic" in2="effect1_backgroundBlur_55_1458" result="shape"/>
</filter>
<filter id="filter5_b_55_1458" x="50.7849" y="109.667" width="139.104" height="114.219" filterUnits="userSpaceOnUse" color-interpolation-filters="sRGB">
<feFlood flood-opacity="0" result="BackgroundImageFix"/>
<feGaussianBlur in="BackgroundImageFix" stdDeviation="25"/>
<feComposite in2="SourceAlpha" operator="in" result="effect1_backgroundBlur_55_1458"/>
<feBlend mode="normal" in="SourceGraphic" in2="effect1_backgroundBlur_55_1458" result="shape"/>
</filter>
<filter id="filter6_b_55_1458" x="-75.0108" y="1.75256" width="351.036" height="323.162" filterUnits="userSpaceOnUse" color-interpolation-filters="sRGB">
<feFlood flood-opacity="0" result="BackgroundImageFix"/>
<feGaussianBlur in="BackgroundImageFix" stdDeviation="67.957"/>
<feComposite in2="SourceAlpha" operator="in" result="effect1_backgroundBlur_55_1458"/>
<feBlend mode="normal" in="SourceGraphic" in2="effect1_backgroundBlur_55_1458" result="shape"/>
</filter>
</defs>
</svg>
