<svg width="333" height="261" viewBox="0 0 333 261" fill="none" xmlns="http://www.w3.org/2000/svg">
<path opacity="0.5" fill-rule="evenodd" clip-rule="evenodd" d="M0 152.88L145.402 65L332.348 175.783L188.011 261L0 152.88Z" fill="#265B6E" fill-opacity="0.7"/>
<g filter="url(#filter0_b_54_1687)">
<path fill-rule="evenodd" clip-rule="evenodd" d="M176 31.9999L123.503 0.640381L46 44.9999L88.0619 69.9255L46 93.9999L100 126L116 116L174.118 151.034L160 161L212 191L288 147L247.159 121.645L288 97.9999L235.804 65.5954L219.987 75.1011L160 41.9999L176 31.9999Z" fill="#265B6E" fill-opacity="0.7"/>
</g>
<g filter="url(#filter1_b_54_1687)">
<path fill-rule="evenodd" clip-rule="evenodd" d="M100 77L46 45V91.1633L100 123V77ZM100 126L46 94V140.163L100 172V126ZM160 142.058L116 116V162.059L160 188.117V206.917L212 237V191L160.327 161.189L160.25 161L162.581 159.41L212 188V142L160 112L175 101.941L116 67V113.059L160 139.117V142.058Z" fill="#265B6E" fill-opacity="0.8"/>
</g>
<path fill-rule="evenodd" clip-rule="evenodd" d="M51 60L58.3481 64.363V74.4667L51 70.1037V60ZM51 109L58.3481 113.363V123.467L51 119.104V109ZM67.5333 69.8741L60.1852 65.5111V75.6148L67.5333 79.9778V69.8741ZM69.4019 70.887L76.75 75.25V85.3537L69.4019 80.9907V70.887ZM86 80.75L78.6519 76.387V86.4907L86 90.8537V80.75ZM87.9019 81.887L95.25 86.25V96.3537L87.9019 91.9907V81.887ZM58.3481 76.363L51 72V82.1037L58.3481 86.4667V76.363ZM60.1852 77.5111L67.5333 81.8741V91.9778L60.1852 87.6148V77.5111ZM76.75 87.25L69.4019 82.887V92.9907L76.75 97.3537V87.25ZM78.6519 88.387L86 92.75V102.854L78.6519 98.4907V88.387ZM95.25 98.25L87.9019 93.887V103.991L95.25 108.354V98.25ZM122 133L129.348 137.363V147.467L122 143.104V133ZM138.533 142.874L131.185 138.511V148.615L138.533 152.978V142.874ZM140.402 143.887L147.75 148.25V158.354L140.402 153.991V143.887ZM157 153.75L149.652 149.387V159.491L157 163.854V153.75ZM149.652 161.387L157 165.75V175.854L149.652 171.491V161.387ZM171.348 130.363L164 126V136.104L171.348 140.467V130.363ZM173.185 131.511L180.533 135.874V145.978L173.185 141.615V131.511ZM189.75 141.25L182.402 136.887V146.991L189.75 151.354V141.25ZM191.652 142.387L199 146.75V156.854L191.652 152.491V142.387ZM208.25 152.25L200.902 147.887V157.991L208.25 162.354V152.25ZM164 138L171.348 142.363V152.467L164 148.104V138ZM180.533 147.874L173.185 143.511V153.615L180.533 157.978V147.874ZM182.402 148.887L189.75 153.25V163.354L182.402 158.991V148.887ZM199 158.75L191.652 154.387V164.491L199 168.854V158.75ZM200.902 159.887L208.25 164.25V174.354L200.902 169.991V159.887ZM67.5333 118.874L60.1852 114.511V124.615L67.5333 128.978V118.874ZM69.4019 119.887L76.75 124.25V134.354L69.4019 129.991V119.887ZM86 129.75L78.6519 125.387V135.491L86 139.854V129.75ZM87.9019 130.887L95.25 135.25V145.354L87.9019 140.991V130.887ZM58.3481 125.363L51 121V131.104L58.3481 135.467V125.363ZM60.1852 126.511L67.5333 130.874V140.978L60.1852 136.615V126.511ZM76.75 136.25L69.4019 131.887V141.991L76.75 146.354V136.25ZM78.6519 137.387L86 141.75V151.854L78.6519 147.491V137.387ZM95.25 147.25L87.9019 142.887V152.991L95.25 157.354V147.25ZM164 175L171.348 179.363V189.467L164 185.104V175ZM180.533 184.874L173.185 180.511V190.615L180.533 194.978V184.874ZM182.402 185.887L189.75 190.25V200.354L182.402 195.991V185.887ZM199 195.75L191.652 191.387V201.491L199 205.854V195.75ZM200.902 196.887L208.25 201.25V211.354L200.902 206.991V196.887ZM171.348 191.363L164 187V197.104L171.348 201.467V191.363ZM173.185 192.511L180.533 196.874V206.978L173.185 202.615V192.511ZM189.75 202.25L182.402 197.887V207.991L189.75 212.354V202.25ZM191.652 203.387L199 207.75V217.854L191.652 213.491V203.387ZM208.25 213.25L200.902 208.887V218.991L208.25 223.354V213.25Z" fill="white"/>
<path fill-rule="evenodd" clip-rule="evenodd" d="M176 32L160 42L176 51V32ZM116 67L100 77V123.153L116 113V67ZM212 142L288 98V143.714L212 188V142ZM116 116L100 126V172.153L116 162V116ZM212 191L288 147V192.714L212 237V191Z" fill="#265B6E"/>
<path d="M112.204 38.2581L103.202 33.0609L97.6852 36.2457L108.082 42.2479L104.233 44.4702L89.4405 35.9307L111.629 23.1214L126.087 31.4684L122.268 33.6733L112.204 27.8636L106.991 30.8735L115.993 36.0707L112.204 38.2581ZM132.616 42.2723C134.354 43.2756 135.152 44.4014 135.011 45.6496C134.889 46.8862 133.738 48.1345 131.555 49.3944L122.159 54.8191L117.945 52.3868L125.978 47.7495C128.847 46.0929 129.332 44.7164 127.433 43.6197C126.422 43.0364 125.21 42.7915 123.795 42.8848C122.421 42.9781 121.027 43.4331 119.613 44.2497L111.732 48.7995L107.518 46.3671L123.22 37.3026L126.918 39.4375C125.786 40.2074 125.038 40.7441 124.675 41.0474C127.625 40.5108 130.272 40.9191 132.616 42.2723ZM137.544 62.6515C135.665 62.5465 133.806 61.9632 131.967 60.9016C130.27 59.9216 129.34 58.8717 129.178 57.7517C129.057 56.6318 130.158 55.401 132.482 54.0594L138.817 50.4021L136.029 48.7922L139.575 46.7448L142.364 48.3547L147.183 45.5724L151.397 48.0048L146.577 50.7871L151.306 53.517L147.759 55.5643L143.031 52.8345L137.393 56.0893C136.342 56.6959 135.726 57.2618 135.544 57.7867C135.362 58.3117 135.675 58.8075 136.483 59.2741C137.191 59.6825 138.07 59.9449 139.121 60.0616L137.544 62.6515ZM161.341 58.8553C162.735 59.6602 163.654 60.5527 164.099 61.5326C164.584 62.5126 164.554 63.4983 164.008 64.4899C163.503 65.4816 162.523 66.3973 161.068 67.2373C160.421 67.6106 159.704 67.9548 158.916 68.2697L148.489 62.2501C147.498 63.0317 147.034 63.79 147.094 64.5249C147.175 65.2482 147.711 65.8957 148.701 66.4673C149.408 66.8756 150.186 67.1498 151.035 67.2898C151.924 67.4298 152.833 67.4065 153.763 67.2198L155.036 70.0546C153.46 70.4746 151.752 70.5154 149.913 70.1771C148.095 69.8505 146.448 69.2614 144.973 68.4097C143.558 67.5931 142.558 66.654 141.972 65.5924C141.386 64.5308 141.345 63.4225 141.85 62.2676C142.376 61.1243 143.518 60.0452 145.276 59.0302C147.013 58.027 148.862 57.3795 150.823 57.0879C152.803 56.8079 154.703 56.8312 156.521 57.1579C158.34 57.4845 159.946 58.0503 161.341 58.8553ZM157.794 60.7627C156.966 60.2843 155.996 60.0277 154.884 59.9927C153.773 59.9577 152.641 60.156 151.489 60.5877L157.734 64.1925C158.623 63.5858 159.047 62.9792 159.007 62.3726C159.007 61.7659 158.603 61.2293 157.794 60.7627ZM179.577 69.3834C180.184 69.7334 180.658 70.1125 181.002 70.5208C181.345 70.9291 181.517 71.2966 181.517 71.6233L176.637 72.5507C176.475 72.0374 176.061 71.5883 175.394 71.2033C174.303 70.5733 172.969 70.3283 171.393 70.4683C169.837 70.62 168.261 71.1566 166.665 72.0782L159.36 76.2955L155.146 73.8631L170.848 64.7986L174.546 66.9335C173.434 67.6918 172.697 68.2226 172.333 68.5259C173.747 68.2459 175.071 68.1818 176.304 68.3334C177.536 68.4851 178.628 68.8351 179.577 69.3834ZM193.238 77.27C194.511 78.0049 195.36 78.8682 195.784 79.8598C196.229 80.8631 196.138 81.9072 195.512 82.9922C194.905 84.0888 193.754 85.1271 192.056 86.107C190.359 87.0869 188.56 87.7519 186.661 88.1019C184.802 88.4519 183.003 88.4985 181.265 88.2419C179.548 87.9969 178.052 87.5069 176.779 86.772C175.809 86.212 175.102 85.582 174.657 84.8821C174.213 84.1821 174.112 83.4471 174.354 82.6772L165.352 87.8744L161.138 85.442L183.872 72.3178L187.57 74.4526L186.63 75.1001C186.449 75.2284 186.257 75.3626 186.054 75.5026C185.852 75.6426 185.65 75.7942 185.448 75.9576C186.923 75.7359 188.318 75.7476 189.631 75.9926C190.985 76.2375 192.188 76.6634 193.238 77.27ZM179.538 84.0596C180.629 84.6896 181.902 84.9696 183.357 84.8996C184.852 84.8296 186.297 84.3921 187.691 83.5871C189.126 82.7588 189.924 81.9131 190.086 81.0498C190.248 80.1865 189.773 79.434 188.661 78.7924C187.61 78.1858 186.317 77.8941 184.781 77.9174C183.286 77.9408 181.77 78.3958 180.235 79.2824C178.719 80.1573 177.951 81.0206 177.931 81.8722C177.931 82.7122 178.467 83.4413 179.538 84.0596ZM211.694 87.9248C212.301 88.2748 212.776 88.654 213.119 89.0623C213.463 89.4706 213.634 89.8381 213.634 90.1647L208.754 91.0922C208.593 90.5789 208.178 90.1297 207.511 89.7447C206.42 89.1148 205.087 88.8698 203.51 89.0098C201.954 89.1614 200.378 89.6981 198.782 90.6197L191.477 94.837L187.263 92.4046L202.965 83.3401L206.663 85.475C205.551 86.2333 204.814 86.7641 204.45 87.0674C205.865 86.7874 207.188 86.7232 208.421 86.8749C209.653 87.0266 210.745 87.3765 211.694 87.9248ZM220.051 90.8942C219.384 90.5092 219.051 90.0251 219.051 89.4418C219.091 88.8585 219.455 88.3685 220.142 87.9719C220.849 87.5636 221.698 87.3536 222.688 87.3419C223.678 87.3302 224.517 87.5227 225.204 87.9194C225.891 88.316 226.224 88.8118 226.204 89.4068C226.204 89.9901 225.861 90.4801 225.174 90.8767C224.486 91.2734 223.628 91.4775 222.597 91.4892C221.587 91.4892 220.738 91.2909 220.051 90.8942ZM204.501 102.356L200.288 99.9237L215.989 90.8592L220.202 93.2916L204.501 102.356ZM224.706 108.631C223.15 109.529 221.311 109.891 219.189 109.716C217.108 109.541 215.107 108.899 213.188 107.791C211.531 106.834 210.45 105.802 209.944 104.694C209.459 103.597 209.631 102.565 210.46 101.596L215.31 102.331C214.865 102.938 214.754 103.55 214.976 104.169C215.219 104.775 215.774 105.329 216.643 105.831C217.29 106.204 217.926 106.432 218.553 106.513C219.179 106.595 219.715 106.508 220.159 106.251C220.665 105.959 220.796 105.592 220.553 105.149C220.331 104.694 219.836 104.069 219.068 103.276C218.32 102.471 217.755 101.783 217.371 101.211C217.007 100.651 216.855 100.062 216.916 99.4439C217.017 98.8256 217.532 98.2481 218.462 97.7115C219.513 97.1048 220.705 96.7432 222.039 96.6265C223.393 96.5215 224.757 96.6323 226.131 96.959C227.505 97.2856 228.768 97.7815 229.92 98.4464C231.496 99.3564 232.486 100.325 232.89 101.351C233.315 102.366 233.112 103.276 232.284 104.081L227.495 103.311C228.202 102.203 227.838 101.235 226.404 100.406C225.797 100.056 225.191 99.8463 224.585 99.7763C223.999 99.6947 223.494 99.7763 223.069 100.021C222.584 100.301 222.453 100.657 222.675 101.089C222.918 101.509 223.413 102.098 224.16 102.856C224.949 103.661 225.545 104.355 225.949 104.939C226.353 105.522 226.494 106.14 226.373 106.793C226.272 107.435 225.716 108.048 224.706 108.631ZM245.644 107.524C247.039 108.329 247.958 109.222 248.403 110.202C248.888 111.182 248.857 112.168 248.312 113.159C247.807 114.151 246.827 115.067 245.372 115.906C244.725 116.28 244.008 116.624 243.22 116.939L232.792 110.919C231.802 111.701 231.337 112.459 231.398 113.194C231.479 113.917 232.014 114.565 233.005 115.137C233.712 115.545 234.49 115.819 235.339 115.959C236.228 116.099 237.137 116.076 238.067 115.889L239.34 118.724C237.763 119.144 236.056 119.185 234.217 118.846C232.398 118.52 230.751 117.931 229.276 117.079C227.862 116.262 226.861 115.323 226.275 114.262C225.689 113.2 225.649 112.092 226.154 110.937C226.68 109.793 227.821 108.714 229.579 107.699C231.317 106.696 233.166 106.049 235.126 105.757C237.107 105.477 239.006 105.5 240.825 105.827C242.644 106.154 244.25 106.719 245.644 107.524ZM242.098 109.432C241.269 108.954 240.3 108.697 239.188 108.662C238.077 108.627 236.945 108.825 235.793 109.257L242.037 112.862C242.927 112.255 243.351 111.648 243.31 111.042C243.31 110.435 242.906 109.898 242.098 109.432Z" fill="white"/>
<defs>
<filter id="filter0_b_54_1687" x="-89.9141" y="-135.274" width="513.828" height="462.188" filterUnits="userSpaceOnUse" color-interpolation-filters="sRGB">
<feFlood flood-opacity="0" result="BackgroundImageFix"/>
<feGaussianBlur in="BackgroundImageFix" stdDeviation="67.957"/>
<feComposite in2="SourceAlpha" operator="in" result="effect1_backgroundBlur_54_1687"/>
<feBlend mode="normal" in="SourceGraphic" in2="effect1_backgroundBlur_54_1687" result="shape"/>
</filter>
<filter id="filter1_b_54_1687" x="-89.9141" y="-90.9141" width="437.828" height="463.828" filterUnits="userSpaceOnUse" color-interpolation-filters="sRGB">
<feFlood flood-opacity="0" result="BackgroundImageFix"/>
<feGaussianBlur in="BackgroundImageFix" stdDeviation="67.957"/>
<feComposite in2="SourceAlpha" operator="in" result="effect1_backgroundBlur_54_1687"/>
<feBlend mode="normal" in="SourceGraphic" in2="effect1_backgroundBlur_54_1687" result="shape"/>
</filter>
</defs>
</svg>
