<svg width="333" height="226" viewBox="0 0 333 226" fill="none" xmlns="http://www.w3.org/2000/svg">
<path opacity="0.5" fill-rule="evenodd" clip-rule="evenodd" d="M0 117.88L145.402 30L332.348 140.783L188.011 226L0 117.88Z" fill="#265B6E" fill-opacity="0.7"/>
<g filter="url(#filter0_b_54_1683)">
<path fill-rule="evenodd" clip-rule="evenodd" d="M61.1071 61.0715L55 58.018L86.5536 39.6965L118.107 93.643L114.036 91.6072V148.607L61.1071 118.072V61.0715ZM145.08 73.2858L215.821 114V171L145.08 130.286V73.2858Z" fill="#265B6E" fill-opacity="0.8"/>
</g>
<path fill-rule="evenodd" clip-rule="evenodd" d="M238.214 69.2143L172.562 29.5178L204.116 44.2768L270.786 83.4643L264.288 87.5357V142.5L215.821 171V116.036L207.239 120.616L238.214 69.2143ZM114.036 91.6071L145.08 73.2857V130.286L114.036 148.607V91.6071Z" fill="#265B6E"/>
<g filter="url(#filter1_b_54_1683)">
<path fill-rule="evenodd" clip-rule="evenodd" d="M172.562 29.5178L238.214 69.2143L207.17 120.616L140.5 81.4285L172.562 29.5178Z" fill="#265B6E" fill-opacity="0.7"/>
</g>
<g filter="url(#filter2_b_54_1683)">
<path fill-rule="evenodd" clip-rule="evenodd" d="M172.563 29.5179L155.768 0L86.5536 39.6964L118.107 93.6429L140.5 81.4286L172.563 29.5179Z" fill="#265B6E" fill-opacity="0.7"/>
</g>
<path fill-rule="evenodd" clip-rule="evenodd" d="M250.429 99.75L232.107 110.438V132.321L250.429 121.634V99.75ZM183.25 120.107L169 111.964V144.536L183.25 152.679V120.107Z" fill="white"/>
<defs>
<filter id="filter0_b_54_1683" x="-80.9141" y="-96.2176" width="432.65" height="403.132" filterUnits="userSpaceOnUse" color-interpolation-filters="sRGB">
<feFlood flood-opacity="0" result="BackgroundImageFix"/>
<feGaussianBlur in="BackgroundImageFix" stdDeviation="67.957"/>
<feComposite in2="SourceAlpha" operator="in" result="effect1_backgroundBlur_54_1683"/>
<feBlend mode="normal" in="SourceGraphic" in2="effect1_backgroundBlur_54_1683" result="shape"/>
</filter>
<filter id="filter1_b_54_1683" x="4.58591" y="-106.396" width="369.542" height="362.926" filterUnits="userSpaceOnUse" color-interpolation-filters="sRGB">
<feFlood flood-opacity="0" result="BackgroundImageFix"/>
<feGaussianBlur in="BackgroundImageFix" stdDeviation="67.957"/>
<feComposite in2="SourceAlpha" operator="in" result="effect1_backgroundBlur_54_1683"/>
<feBlend mode="normal" in="SourceGraphic" in2="effect1_backgroundBlur_54_1683" result="shape"/>
</filter>
<filter id="filter2_b_54_1683" x="-49.3605" y="-135.914" width="357.837" height="365.471" filterUnits="userSpaceOnUse" color-interpolation-filters="sRGB">
<feFlood flood-opacity="0" result="BackgroundImageFix"/>
<feGaussianBlur in="BackgroundImageFix" stdDeviation="67.957"/>
<feComposite in2="SourceAlpha" operator="in" result="effect1_backgroundBlur_54_1683"/>
<feBlend mode="normal" in="SourceGraphic" in2="effect1_backgroundBlur_54_1683" result="shape"/>
</filter>
</defs>
</svg>
