<svg width="333" height="310" viewBox="0 0 333 310" fill="none" xmlns="http://www.w3.org/2000/svg">
<path opacity="0.5" fill-rule="evenodd" clip-rule="evenodd" d="M0 201.88L145.402 114L332.348 224.783L188.011 310L0 201.88Z" fill="#265B6E" fill-opacity="0.7"/>
<g filter="url(#filter0_b_54_1688)">
<path fill-rule="evenodd" clip-rule="evenodd" d="M61 23.9826L102.57 0L156.93 31.9767L115.36 56.359L61 23.9826ZM115.36 156.686L156.93 132.703L217.686 167.478L176.116 191.86L115.36 156.686ZM217.686 67.1512L176.116 91.1337L230.477 123.51L272.047 99.1279L217.686 67.1512Z" fill="#265B6E" fill-opacity="0.7"/>
</g>
<g filter="url(#filter1_b_54_1688)">
<path fill-rule="evenodd" clip-rule="evenodd" d="M61 23.9827L115.322 56.211L115.36 156.686L176.116 191.861V91.1338L230.477 123.111V275L61 175.872V23.9827Z" fill="#265B6E" fill-opacity="0.8"/>
</g>
<path fill-rule="evenodd" clip-rule="evenodd" d="M188.348 105.363L181 101V111.104L188.348 115.467V105.363ZM197.533 110.874L190.185 106.511V116.615L197.533 120.978V110.874ZM199.402 111.887L206.75 116.25V126.354L199.402 121.991V111.887ZM216 121.75L208.652 117.387V127.491L216 131.854V121.75ZM217.902 122.887L225.25 127.25V137.354L217.902 132.991V122.887ZM188.348 117.363L181 113V123.104L188.348 127.467V117.363ZM190.185 118.511L197.533 122.874V132.978L190.185 128.615V118.511ZM206.75 128.25L199.402 123.887V133.991L206.75 138.354V128.25ZM208.652 129.387L216 133.75V143.854L208.652 139.491V129.387ZM225.25 139.25L217.902 134.887V144.991L225.25 149.354V139.25ZM181 125L188.348 129.363V139.467L181 135.104V125ZM197.533 134.874L190.185 130.511V140.615L197.533 144.978V134.874ZM199.402 135.887L206.75 140.25V150.354L199.402 145.991V135.887ZM216 145.75L208.652 141.387V151.491L216 155.854V145.75ZM217.902 146.887L225.25 151.25V161.354L217.902 156.991V146.887ZM188.348 141.363L181 137V147.104L188.348 151.467V141.363ZM190.185 142.511L197.533 146.874V156.978L190.185 152.615V142.511ZM206.75 152.25L199.402 147.887V157.991L206.75 162.354V152.25ZM208.652 153.387L216 157.75V167.854L208.652 163.491V153.387ZM225.25 163.25L217.902 158.887V168.991L225.25 173.354V163.25ZM181 149L188.348 153.363V163.467L181 159.104V149ZM197.533 158.874L190.185 154.511V164.615L197.533 168.978V158.874ZM199.402 159.887L206.75 164.25V174.354L199.402 169.991V159.887ZM216 169.75L208.652 165.387V175.491L216 179.854V169.75ZM217.902 170.887L225.25 175.25V185.354L217.902 180.991V170.887ZM188.348 165.363L181 161V171.104L188.348 175.467V165.363ZM190.185 166.511L197.533 170.874V180.978L190.185 176.615V166.511ZM206.75 176.25L199.402 171.887V181.991L206.75 186.354V176.25ZM208.652 177.387L216 181.75V191.854L208.652 187.491V177.387ZM225.25 187.25L217.902 182.887V192.991L225.25 197.354V187.25ZM181 173L188.348 177.363V187.467L181 183.104V173ZM197.533 182.874L190.185 178.511V188.615L197.533 192.978V182.874ZM199.402 183.887L206.75 188.25V198.354L199.402 193.991V183.887ZM216 193.75L208.652 189.387V199.491L216 203.854V193.75ZM217.902 194.887L225.25 199.25V209.354L217.902 204.991V194.887ZM188.348 189.363L181 185V195.104L188.348 199.467V189.363ZM190.185 190.511L197.533 194.874V204.978L190.185 200.615V190.511ZM206.75 200.25L199.402 195.887V205.991L206.75 210.354V200.25ZM208.652 201.387L216 205.75V215.854L208.652 211.491V201.387ZM225.25 211.25L217.902 206.887V216.991L225.25 221.354V211.25ZM66 105L73.3481 109.363V119.467L66 115.104V105ZM82.5333 114.874L75.1852 110.511V120.615L82.5333 124.978V114.874ZM84.4019 115.887L91.75 120.25V130.354L84.4019 125.991V115.887ZM101 125.75L93.6519 121.387V131.491L101 135.854V125.75ZM102.902 126.887L110.25 131.25V141.354L102.902 136.991V126.887ZM73.3481 121.363L66 117V127.104L73.3481 131.467V121.363ZM75.1852 122.511L82.5333 126.874V136.978L75.1852 132.615V122.511ZM91.75 132.25L84.4019 127.887V137.991L91.75 142.354V132.25ZM93.6519 133.387L101 137.75V147.854L93.6519 143.491V133.387ZM110.25 143.25L102.902 138.887V148.991L110.25 153.354V143.25Z" fill="white"/>
<path fill-rule="evenodd" clip-rule="evenodd" d="M156.93 132.704L115.36 156.686V56.3591L156.93 31.9768V132.704ZM272.046 251.018L230.477 275V123.51L272.046 99.128V251.018Z" fill="#265B6E"/>
<path d="M68.9885 155.705C68.9885 153.788 69.3204 152.305 69.9843 151.255C70.6482 150.205 71.5502 149.634 72.6904 149.543C73.8451 149.443 75.1297 149.801 76.5442 150.618C77.9586 151.435 79.236 152.555 80.3763 153.98C81.531 155.397 82.4403 157.014 83.1043 158.831C83.7827 160.656 84.122 162.526 84.122 164.443C84.1221 166.376 83.783 167.864 83.1046 168.906C82.4407 169.956 81.5315 170.53 80.3768 170.63C79.2366 170.722 77.9592 170.36 76.5448 169.543C75.1303 168.726 73.8457 167.609 72.691 166.193C71.5507 164.768 70.6486 163.147 69.9846 161.33C69.3206 159.513 68.9886 157.638 68.9885 155.705ZM72.301 157.618C72.301 158.834 72.4743 160.009 72.8207 161.143C73.1816 162.284 73.6796 163.297 74.3147 164.18C74.9642 165.055 75.7075 165.734 76.5447 166.218C77.3818 166.701 78.1179 166.876 78.753 166.743C79.4024 166.601 79.9004 166.164 80.2467 165.43C80.6076 164.705 80.7879 163.735 80.7879 162.518C80.7879 161.301 80.6074 160.13 80.2465 159.005C79.9001 157.872 79.4021 156.868 78.7526 155.993C78.1175 155.11 77.3814 154.426 76.5443 153.943C75.7071 153.459 74.9638 153.289 74.3143 153.43C73.6793 153.564 73.1813 153.993 72.8205 154.718C72.4741 155.434 72.301 156.401 72.301 157.618ZM94.8215 166.221C94.8215 164.254 95.2039 163.025 95.9688 162.533C96.7338 162.025 97.7802 162.154 99.1081 162.921C99.7865 163.313 100.4 163.792 100.948 164.359L100.948 167.384C100.544 166.9 100.119 166.529 99.6711 166.271C99.0649 165.921 98.603 165.888 98.2855 166.171C97.9824 166.446 97.8309 167.15 97.8309 168.284L97.8309 168.584L100.624 170.196L100.624 173.096L97.831 171.484L97.8313 181.534L94.8219 179.796L94.8216 169.746L90.1668 167.058L90.1671 177.108L87.1578 175.371L87.1574 165.321L85.2306 164.208L85.2305 161.308L87.1573 162.421L87.1573 161.796C87.1573 159.846 87.5614 158.629 88.3696 158.146C89.1779 157.662 90.2315 157.796 91.5305 158.546C92.1656 158.913 92.714 159.338 93.1759 159.821C93.6522 160.313 94.0203 160.808 94.2801 161.308L93.1327 163.146C92.7286 162.479 92.2811 162.004 91.7904 161.721C91.2564 161.412 90.8522 161.412 90.578 161.721C90.3038 162.029 90.1667 162.733 90.1667 163.833L90.1667 164.158L94.8215 166.846L94.8215 166.221ZM103.698 170.321C103.207 170.038 102.789 169.588 102.442 168.971C102.096 168.338 101.923 167.738 101.923 167.171C101.923 166.588 102.096 166.188 102.442 165.971C102.789 165.755 103.207 165.788 103.698 166.071C104.189 166.355 104.607 166.805 104.954 167.421C105.315 168.046 105.495 168.65 105.495 169.234C105.495 169.8 105.315 170.196 104.954 170.421C104.607 170.638 104.189 170.605 103.698 170.321ZM105.214 185.796L102.205 184.059L102.204 171.109L105.214 172.846L105.214 185.796ZM113.075 187.61C113.941 188.11 114.633 188.018 115.153 187.335L117.448 190.21C117.087 190.968 116.517 191.373 115.738 191.422C114.958 191.472 114.071 191.21 113.075 190.635C112.079 190.06 111.148 189.264 110.282 188.247C109.416 187.214 108.716 186.035 108.182 184.71C107.648 183.368 107.38 181.989 107.38 180.572C107.38 179.139 107.647 178.068 108.181 177.36C108.715 176.635 109.415 176.264 110.281 176.247C111.147 176.214 112.078 176.485 113.074 177.06C114.07 177.635 114.958 178.397 115.737 179.347C116.517 180.298 117.087 181.36 117.448 182.535L115.153 182.76C114.648 181.502 113.955 180.618 113.074 180.11C112.295 179.66 111.667 179.639 111.191 180.047C110.729 180.447 110.498 181.222 110.498 182.372C110.498 183.506 110.736 184.551 111.213 185.51C111.689 186.468 112.31 187.168 113.075 187.61ZM123.813 183.261C124.809 183.836 125.69 184.602 126.455 185.561C127.234 186.511 127.833 187.573 128.252 188.748C128.685 189.915 128.901 191.098 128.901 192.298C128.901 192.832 128.858 193.348 128.771 193.848L121.324 189.548C121.454 190.59 121.757 191.498 122.233 192.273C122.709 193.031 123.301 193.615 124.008 194.023C124.514 194.315 124.961 194.448 125.351 194.423C125.755 194.39 126.065 194.177 126.282 193.786L128.49 196.561C128.187 197.336 127.602 197.731 126.736 197.748C125.885 197.773 124.932 197.481 123.879 196.873C122.868 196.29 121.93 195.49 121.064 194.473C120.198 193.456 119.498 192.277 118.964 190.935C118.444 189.602 118.184 188.21 118.184 186.76C118.184 185.327 118.444 184.252 118.964 183.535C119.498 182.827 120.19 182.46 121.042 182.435C121.894 182.41 122.817 182.686 123.813 183.261ZM123.727 186.036C123.135 185.694 122.63 185.619 122.211 185.81C121.793 186.002 121.511 186.448 121.367 187.148L125.827 189.723C125.769 188.89 125.545 188.152 125.156 187.511C124.78 186.861 124.304 186.369 123.727 186.036ZM146.658 200.226C148.405 201.951 149.278 203.864 149.278 205.964C149.278 207.614 148.751 208.601 147.698 208.926C146.658 209.259 145.193 208.88 143.303 207.788L136.981 204.138L136.98 185.838L142.717 189.151C144.406 190.126 145.777 191.368 146.831 192.876C147.899 194.376 148.433 195.934 148.433 197.551C148.433 199.234 147.842 200.126 146.658 200.226ZM140.055 190.763L140.055 195.088L142.415 196.451C143.266 196.942 143.937 197.13 144.428 197.013C144.933 196.888 145.186 196.484 145.186 195.801C145.186 195.134 144.94 194.484 144.45 193.851C143.959 193.201 143.28 192.626 142.414 192.126L140.055 190.763ZM143.043 204.488C143.995 205.038 144.724 205.259 145.229 205.151C145.749 205.051 146.009 204.634 146.009 203.901C146.009 203.168 145.749 202.443 145.229 201.726C144.724 201.018 143.988 200.384 143.021 199.826L140.055 198.113L140.055 202.763L143.043 204.488ZM158.689 203.722L161.698 205.46L161.699 218.41L159.036 216.872C158.978 215.839 158.92 215.131 158.862 214.747C158.487 215.314 157.996 215.614 157.39 215.647C156.784 215.681 156.091 215.472 155.312 215.022C154.056 214.297 153.067 213.26 152.346 211.91C151.624 210.56 151.263 208.985 151.263 207.185L151.263 199.435L154.272 201.172L154.272 207.772C154.272 210.156 154.936 211.731 156.264 212.497C156.986 212.914 157.57 212.927 158.018 212.535C158.465 212.143 158.689 211.364 158.689 210.197L158.689 203.722ZM165.974 206.279C165.498 206.004 165.079 205.554 164.719 204.929C164.372 204.296 164.199 203.696 164.199 203.129C164.199 202.546 164.372 202.146 164.718 201.929C165.065 201.712 165.483 201.746 165.974 202.029C166.465 202.312 166.891 202.775 167.252 203.417C167.612 204.042 167.793 204.637 167.793 205.204C167.793 205.771 167.612 206.167 167.252 206.392C166.891 206.6 166.465 206.562 165.974 206.279ZM167.512 221.767L164.503 220.029L164.502 207.079L167.512 208.817L167.512 221.767ZM173.305 225.112L170.296 223.374L170.295 204.349L173.304 206.087L173.305 225.112ZM183.882 212.194L186.892 213.932L186.892 232.957L184.251 231.432C184.179 230.423 184.121 229.74 184.078 229.382C183.688 229.907 183.176 230.177 182.541 230.194C181.92 230.202 181.242 229.994 180.505 229.569C179.582 229.036 178.737 228.281 177.972 227.306C177.207 226.331 176.594 225.202 176.132 223.919C175.67 222.619 175.439 221.269 175.439 219.869C175.439 218.452 175.67 217.369 176.132 216.619C176.594 215.852 177.207 215.423 177.972 215.331C178.737 215.24 179.581 215.461 180.505 215.994C181.183 216.386 181.811 216.907 182.389 217.557C182.98 218.215 183.478 218.986 183.883 219.869L183.882 212.194ZM181.198 226.994C181.949 227.427 182.584 227.477 183.103 227.144C183.623 226.811 183.883 226.011 183.883 224.744C183.883 223.494 183.623 222.419 183.103 221.519C182.584 220.602 181.948 219.927 181.198 219.494C180.404 219.036 179.762 218.99 179.271 219.356C178.795 219.731 178.557 220.502 178.557 221.669C178.557 222.836 178.795 223.898 179.271 224.856C179.762 225.823 180.404 226.536 181.198 226.994ZM191.177 220.831C190.7 220.556 190.282 220.106 189.921 219.481C189.574 218.847 189.401 218.247 189.401 217.681C189.401 217.097 189.574 216.697 189.921 216.481C190.267 216.264 190.686 216.297 191.176 216.581C191.667 216.864 192.093 217.327 192.454 217.968C192.815 218.593 192.995 219.189 192.995 219.756C192.995 220.322 192.815 220.718 192.454 220.943C192.093 221.152 191.667 221.114 191.177 220.831ZM192.714 236.318L189.705 234.581L189.704 221.631L192.714 223.368L192.714 236.318ZM201.928 228.363C203.169 229.08 204.15 230.122 204.872 231.488C205.594 232.838 205.955 234.413 205.955 236.213L205.955 243.963L202.946 242.226L202.945 235.601C202.945 233.234 202.267 231.659 200.91 230.876C200.188 230.459 199.604 230.446 199.157 230.838C198.724 231.221 198.507 231.996 198.507 233.163L198.507 239.663L195.498 237.926L195.498 224.976L198.139 226.501C198.211 227.559 198.276 228.288 198.334 228.688C199.055 227.505 200.253 227.397 201.928 228.363ZM219.367 238.758L219.368 250.383C219.368 252.999 218.798 254.562 217.657 255.07C216.517 255.578 215.103 255.345 213.414 254.37C212.187 253.662 211.105 252.737 210.166 251.595C209.243 250.462 208.586 249.249 208.196 247.957L210.513 247.77C211.076 249.345 212.043 250.528 213.414 251.32C214.482 251.937 215.233 252.003 215.666 251.52C216.113 251.062 216.344 250.028 216.358 248.42C215.608 249.22 214.525 249.212 213.111 248.395C212.201 247.87 211.35 247.112 210.556 246.12C209.762 245.112 209.12 243.957 208.629 242.657C208.153 241.349 207.915 240.003 207.914 238.62C207.914 237.22 208.153 236.149 208.629 235.407C209.12 234.657 209.762 234.245 210.556 234.17C211.349 234.078 212.201 234.295 213.11 234.82C213.846 235.245 214.51 235.812 215.102 236.52C215.694 237.228 216.177 238.066 216.553 239.033C216.654 238.408 216.711 237.808 216.726 237.233L219.367 238.758ZM213.674 245.745C214.424 246.178 215.059 246.228 215.579 245.895C216.098 245.562 216.358 244.762 216.358 243.495C216.358 242.245 216.098 241.17 215.579 240.27C215.059 239.353 214.424 238.678 213.673 238.245C212.879 237.787 212.237 237.741 211.746 238.107C211.27 238.482 211.032 239.253 211.032 240.42C211.032 241.587 211.27 242.649 211.747 243.607C212.237 244.574 212.88 245.287 213.674 245.745Z" fill="white"/>
<defs>
<filter id="filter0_b_54_1688" x="-74.9141" y="-135.914" width="482.875" height="463.689" filterUnits="userSpaceOnUse" color-interpolation-filters="sRGB">
<feFlood flood-opacity="0" result="BackgroundImageFix"/>
<feGaussianBlur in="BackgroundImageFix" stdDeviation="67.957"/>
<feComposite in2="SourceAlpha" operator="in" result="effect1_backgroundBlur_54_1688"/>
<feBlend mode="normal" in="SourceGraphic" in2="effect1_backgroundBlur_54_1688" result="shape"/>
</filter>
<filter id="filter1_b_54_1688" x="-74.9141" y="-111.931" width="441.305" height="522.846" filterUnits="userSpaceOnUse" color-interpolation-filters="sRGB">
<feFlood flood-opacity="0" result="BackgroundImageFix"/>
<feGaussianBlur in="BackgroundImageFix" stdDeviation="67.957"/>
<feComposite in2="SourceAlpha" operator="in" result="effect1_backgroundBlur_54_1688"/>
<feBlend mode="normal" in="SourceGraphic" in2="effect1_backgroundBlur_54_1688" result="shape"/>
</filter>
</defs>
</svg>
