<svg width="333" height="336" viewBox="0 0 333 336" fill="none" xmlns="http://www.w3.org/2000/svg">
<path opacity="0.5" fill-rule="evenodd" clip-rule="evenodd" d="M0 219.88L145.402 132L332.348 242.783L188.011 328L0 219.88Z" fill="#265B6E" fill-opacity="0.7"/>
<g filter="url(#filter0_b_54_1724)">
<path fill-rule="evenodd" clip-rule="evenodd" d="M133.32 15.7368L187.088 48.5219V213.759L133.32 180.974V15.7368Z" fill="white"/>
</g>
<g filter="url(#filter1_b_54_1724)">
<path fill-rule="evenodd" clip-rule="evenodd" d="M133.32 15.7368L187.088 48.5219L213.316 32.7851L159.548 0L133.32 15.7368Z" fill="#265B6E" fill-opacity="0.7"/>
</g>
<path fill-rule="evenodd" clip-rule="evenodd" d="M140 27.2857L138 26V30.7143L140 32V27.2857ZM166 42.2857L164 41V45.7143L166 47V42.2857ZM151 33L153 34.2857V39L151 37.7143V33ZM179 50.2857L177 49V53.7143L179 55V50.2857ZM138 59L140 60.2857V65L138 63.7143V59ZM166 75.2857L164 74V78.7143L166 80V75.2857ZM151 66L153 67.2857V72L151 70.7143V66ZM179 83.2857L177 82V86.7143L179 88V83.2857ZM138 92L140 93.2857V98L138 96.7143V92ZM166 107.286L164 106V110.714L166 112V107.286ZM151 98L153 99.2857V104L151 102.714V98ZM179 115.286L177 114V118.714L179 120V115.286ZM138 124L140 125.286V130L138 128.714V124ZM166 140.286L164 139V143.714L166 145V140.286ZM151 131L153 132.286V137L151 135.714V131ZM179 148.286L177 147V151.714L179 153V148.286ZM138 157L140 158.286V163L138 161.714V157ZM166 172.286L164 171V175.714L166 177V172.286ZM151 163L153 164.286V169L151 167.714V163ZM179 180.286L177 179V183.714L179 185V180.286ZM138 43L140 44.2857V49L138 47.7143V43ZM166 58.2857L164 57V61.7143L166 63V58.2857ZM151 49L153 50.2857V55L151 53.7143V49ZM179 67.2857L177 66V70.7143L179 72V67.2857ZM138 75L140 76.2857V81L138 79.7143V75ZM166 91.2857L164 90V94.7143L166 96V91.2857ZM151 82L153 83.2857V88L151 86.7143V82ZM179 99.2857L177 98V102.714L179 104V99.2857ZM138 108L140 109.286V114L138 112.714V108ZM166 123.286L164 122V126.714L166 128V123.286ZM151 114L153 115.286V120L151 118.714V114ZM179 132.286L177 131V135.714L179 137V132.286ZM138 140L140 141.286V146L138 144.714V140ZM166 156.286L164 155V159.714L166 161V156.286ZM151 147L153 148.286V153L151 151.714V147ZM179 164.286L177 163V167.714L179 169V164.286ZM138 35L140 36.2857V41L138 39.7143V35ZM166 50.2857L164 49V53.7143L166 55V50.2857ZM151 41L153 42.2857V47L151 45.7143V41ZM179 58.2857L177 57V61.7143L179 63V58.2857ZM138 67L140 68.2857V73L138 71.7143V67ZM166 83.2857L164 82V86.7143L166 88V83.2857ZM151 74L153 75.2857V80L151 78.7143V74ZM179 91.2857L177 90V94.7143L179 96V91.2857ZM138 100L140 101.286V106L138 104.714V100ZM166 115.286L164 114V118.714L166 120V115.286ZM151 106L153 107.286V112L151 110.714V106ZM179 123.286L177 122V126.714L179 128V123.286ZM138 132L140 133.286V138L138 136.714V132ZM166 148.286L164 147V151.714L166 153V148.286ZM151 139L153 140.286V145L151 143.714V139ZM179 156.286L177 155V159.714L179 161V156.286ZM138 165L140 166.286V171L138 169.714V165ZM166 180.286L164 179V183.714L166 185V180.286ZM151 171L153 172.286V177L151 175.714V171ZM179 189.286L177 188V192.714L179 194V189.286ZM138 51L140 52.2857V57L138 55.7143V51ZM166 67.2857L164 66V70.7143L166 72V67.2857ZM151 57L153 58.2857V63L151 61.7143V57ZM179 75.2857L177 74V78.7143L179 80V75.2857ZM138 83L140 84.2857V89L138 87.7143V83ZM166 99.2857L164 98V102.714L166 104V99.2857ZM151 90L153 91.2857V96L151 94.7143V90ZM179 107.286L177 106V110.714L179 112V107.286ZM138 116L140 117.286V122L138 120.714V116ZM166 132.286L164 131V135.714L166 137V132.286ZM151 122L153 123.286V128L151 126.714V122ZM179 140.286L177 139V143.714L179 145V140.286ZM138 149L140 150.286V155L138 153.714V149ZM166 164.286L164 163V167.714L166 169V164.286ZM151 155L153 156.286V161L151 159.714V155ZM179 172.286L177 171V175.714L179 177V172.286ZM142 28L144 29.2857V34L142 32.7143V28ZM170 44.2857L168 43V47.7143L170 49V44.2857ZM155 35L157 36.2857V41L155 39.7143V35ZM183 52.2857L181 51V55.7143L183 57V52.2857ZM142 61L144 62.2857V67L142 65.7143V61ZM170 77.2857L168 76V80.7143L170 82V77.2857ZM155 68L157 69.2857V74L155 72.7143V68ZM183 85.2857L181 84V88.7143L183 90V85.2857ZM142 94L144 95.2857V100L142 98.7143V94ZM170 109.286L168 108V112.714L170 114V109.286ZM155 100L157 101.286V106L155 104.714V100ZM183 117.286L181 116V120.714L183 122V117.286ZM142 126L144 127.286V132L142 130.714V126ZM170 142.286L168 141V145.714L170 147V142.286ZM155 133L157 134.286V139L155 137.714V133ZM183 150.286L181 149V153.714L183 155V150.286ZM142 159L144 160.286V165L142 163.714V159ZM170 174.286L168 173V177.714L170 179V174.286ZM155 165L157 166.286V171L155 169.714V165ZM183 182.286L181 181V185.714L183 187V182.286ZM142 45L144 46.2857V51L142 49.7143V45ZM170 60.2857L168 59V63.7143L170 65V60.2857ZM155 51L157 52.2857V57L155 55.7143V51ZM183 69.2857L181 68V72.7143L183 74V69.2857ZM142 77L144 78.2857V83L142 81.7143V77ZM170 93.2857L168 92V96.7143L170 98V93.2857ZM155 84L157 85.2857V90L155 88.7143V84ZM183 101.286L181 100V104.714L183 106V101.286ZM142 110L144 111.286V116L142 114.714V110ZM170 125.286L168 124V128.714L170 130V125.286ZM155 116L157 117.286V122L155 120.714V116ZM183 134.286L181 133V137.714L183 139V134.286ZM142 142L144 143.286V148L142 146.714V142ZM170 158.286L168 157V161.714L170 163V158.286ZM155 149L157 150.286V155L155 153.714V149ZM183 166.286L181 165V169.714L183 171V166.286ZM142 37L144 38.2857V43L142 41.7143V37ZM170 52.2857L168 51V55.7143L170 57V52.2857ZM155 43L157 44.2857V49L155 47.7143V43ZM183 60.2857L181 59V63.7143L183 65V60.2857ZM142 69L144 70.2857V75L142 73.7143V69ZM170 85.2857L168 84V88.7143L170 90V85.2857ZM155 76L157 77.2857V82L155 80.7143V76ZM183 93.2857L181 92V96.7143L183 98V93.2857ZM142 102L144 103.286V108L142 106.714V102ZM170 117.286L168 116V120.714L170 122V117.286ZM155 108L157 109.286V114L155 112.714V108ZM183 125.286L181 124V128.714L183 130V125.286ZM142 134L144 135.286V140L142 138.714V134ZM170 150.286L168 149V153.714L170 155V150.286ZM155 141L157 142.286V147L155 145.714V141ZM183 158.286L181 157V161.714L183 163V158.286ZM142 167L144 168.286V173L142 171.714V167ZM170 182.286L168 181V185.714L170 187V182.286ZM155 173L157 174.286V179L155 177.714V173ZM183 191.286L181 190V194.714L183 196V191.286ZM142 53L144 54.2857V59L142 57.7143V53ZM170 69.2857L168 68V72.7143L170 74V69.2857ZM155 59L157 60.2857V65L155 63.7143V59ZM183 77.2857L181 76V80.7143L183 82V77.2857ZM142 85L144 86.2857V91L142 89.7143V85ZM170 101.286L168 100V104.714L170 106V101.286ZM155 92L157 93.2857V98L155 96.7143V92ZM183 109.286L181 108V112.714L183 114V109.286ZM142 118L144 119.286V124L142 122.714V118ZM170 134.286L168 133V137.714L170 139V134.286ZM155 124L157 125.286V130L155 128.714V124ZM183 142.286L181 141V145.714L183 147V142.286ZM142 151L144 152.286V157L142 155.714V151ZM170 166.286L168 165V169.714L170 171V166.286ZM155 157L157 158.286V163L155 161.714V157ZM183 174.286L181 173V177.714L183 179V174.286Z" fill="#265B6E"/>
<path fill-rule="evenodd" clip-rule="evenodd" d="M213.316 32.7852L187.088 48.522V213.759L213.316 198.022V32.7852Z" fill="#265B6E"/>
<g filter="url(#filter2_b_54_1724)">
<path fill-rule="evenodd" clip-rule="evenodd" d="M204.136 90.487L223.807 78.6843L259.215 98.3554L239.544 110.158L204.136 90.487ZM139.877 79.9957L104.469 99.9946L124.14 111.469L158.237 91.7984L139.877 79.9957ZM69.0687 161.42L50.7018 171.794L70.3728 183.269L85.6661 174.446L104.469 163.598V114.092L95.2895 119.338V137.697L69.0614 152.123L69.0687 161.42ZM253.969 125.567L220.201 170.81L278.886 205.89L301 193.5L278.75 178.25L278.886 141.632L253.969 125.567ZM196.268 119.338L204.136 114.092L239.544 133.763L231.675 139.009L196.268 119.338ZM196.268 166.548L177.908 178.023L213.316 197.694L231.675 186.219L196.268 166.548ZM143.811 241.626L177.908 221.627L213.316 243.921L180.531 263.592L143.811 241.626ZM158.237 146.549L124.14 166.548L143.811 178.351L177.908 158.68L158.237 146.549Z" fill="#265B6E" fill-opacity="0.7"/>
</g>
<g filter="url(#filter3_b_54_1724)">
<path fill-rule="evenodd" clip-rule="evenodd" d="M204.136 114.092V90.4868L239.544 110.158V133.763L204.136 114.092ZM69.1408 182.51L50.7018 171.794V223.546L180.531 299V263.592L143.811 241.626V178.351L124.14 166.548V111.469L104.469 99.9945V124.583L95.2895 119.338V167.86L69.0614 152.123L69.1408 182.51ZM196.268 119.338V166.548L231.675 186.219V139.009L196.268 119.338ZM177.908 221.627V178.023L213.316 197.694V243.921L177.908 221.627Z" fill="#265B6E" fill-opacity="0.8"/>
</g>
<path fill-rule="evenodd" clip-rule="evenodd" d="M124.14 166.548L158.237 146.549V91.7983L124.14 111.469V166.548ZM143.811 241.626L177.908 221.627V158.68L143.811 178.351V241.626ZM278.886 205.89L301 193.5V228.908L180.531 299V263.592L213.316 243.921V197.694L231.675 186.219V139.009L239.544 133.763V110.158L259.215 98.3554V153.434L278.886 141.632V205.89Z" fill="#265B6E"/>
<path fill-rule="evenodd" clip-rule="evenodd" d="M104 131.24L99 128V133.76L104 137V131.24ZM257 133L252 136.24V142L257 138.76V133ZM257 177L252 180.24V186L257 182.76V177ZM252 156.24L257 153V158.76L252 162V156.24ZM257 197L252 200.24V206L257 202.76V197ZM252 146.24L257 143V148.76L252 152V146.24ZM257 187L252 190.24V196L257 192.76V187ZM252 167.24L257 164V169.76L252 173V167.24ZM275 153L270 156.24V162L275 158.76V153ZM252 211.24L257 208V213.76L252 217V211.24ZM257 219L252 222.24V228L257 224.76V219ZM236 242.243L283 215V235.757L263.795 246.889L236 263V242.243ZM232 244L219 251.909V273L232 265.091V244ZM199 263.909L212 256V277.091L199 285V263.909ZM249 137L244 140.24V146L249 142.76V137ZM244 184.24L249 181V186.76L244 190V184.24ZM275 167L270 170.24V176L275 172.76V167ZM227 195.24L232 192V197.76L227 201V195.24ZM249 157L244 160.24V166L249 162.76V157ZM244 206.24L249 203V208.76L244 212V206.24ZM275 187L270 190.24V196L275 192.76V187ZM227 216.24L232 213V218.76L227 222V216.24ZM249 146L244 149.24V155L249 151.76V146ZM244 195.24L249 192V197.76L244 201V195.24ZM275 177L270 180.24V186L275 182.76V177ZM227 206.24L232 203V208.76L227 212V206.24ZM249 168L244 171.24V177L249 173.76V168ZM262 160.24L267 157V162.76L262 166V160.24ZM249 213L244 216.24V222L249 218.76V213ZM270 201.24L275 198V203.76L270 207V201.24ZM232 224L227 227.24V233L232 229.76V224ZM244 227.24L249 224V229.76L244 233V227.24ZM275 209L270 212.24V218L275 214.76V209ZM227 237.24L232 234V239.76L227 243V237.24ZM241 141L236 144.24V150L241 146.76V141ZM236 188.24L241 185V190.76L236 194V188.24ZM266 172L261 175.24V181L266 177.76V172ZM218 199.24L223 196V201.76L218 205V199.24ZM241 162L236 165.24V171L241 167.76V162ZM236 210.24L241 207V212.76L236 216V210.24ZM266 192L261 195.24V201L266 197.76V192ZM218 219.24L223 216V221.76L218 225V219.24ZM241 152L236 155.24V161L241 157.76V152ZM236 199.24L241 196V201.76L236 205V199.24ZM266 182L261 185.24V191L266 187.76V182ZM218 210.24L223 207V212.76L218 216V210.24ZM241 173L236 176.24V182L241 178.76V173ZM236 219.24L241 216V221.76L236 225V219.24ZM266 203L261 206.24V212L266 208.76V203ZM218 230.24L223 227V232.76L218 236V230.24ZM241 227L236 230.24V236L241 232.76V227ZM261 217.24L266 214V219.76L261 223V217.24ZM223 238L218 241.24V247L223 243.76V238ZM99 173L104 176.24V182L99 178.76V173ZM79 161.24L74 158V163.76L79 167V161.24ZM99 149L104 152.24V158L99 154.76V149ZM104 198.24L99 195V200.76L104 204V198.24ZM74 179L79 182.24V188L74 184.76V179ZM104 142.24L99 139V144.76L104 148V142.24ZM99 184L104 187.24V193L99 189.76V184ZM79 172.24L74 169V174.76L79 178V172.24ZM99 160L104 163.24V169L99 165.76V160ZM104 207.24L99 204V209.76L104 213V207.24ZM74 190L79 193.24V199L74 195.76V190ZM62 183.24L57 180V185.76L62 189V183.24ZM99 215L104 218.24V224L99 220.76V215ZM79 204.24L74 201V206.76L79 210V204.24ZM74 212L121 239.243V260L93.2051 243.889L74 232.757V212ZM137 247.909L124 240V261.091L137 269V247.909ZM144 252L157 259.909V281L144 273.091V252ZM62 194.24L57 191V196.76L62 200V194.24ZM107 133L112 136.24V142L107 138.76V133ZM112 180.24L107 177V182.76L112 186V180.24ZM81 163L86 166.24V172L81 168.76V163ZM129 190.24L124 187V192.76L129 196V190.24ZM107 155L112 158.24V164L107 160.76V155ZM112 201.24L107 198V203.76L112 207V201.24ZM81 184L86 187.24V193L81 189.76V184ZM129 212.24L124 209V214.76L129 218V212.24ZM107 144L112 147.24V153L107 149.76V144ZM112 190.24L107 187V192.76L112 196V190.24ZM81 174L86 177.24V183L81 179.76V174ZM129 201.24L124 198V203.76L129 207V201.24ZM107 164L112 167.24V173L107 169.76V164ZM129 178.24L124 175V180.76L129 184V178.24ZM107 209L112 212.24V218L107 214.76V209ZM86 198.24L81 195V200.76L86 204V198.24ZM64 185L69 188.24V194L64 190.76V185ZM129 222.24L124 219V224.76L129 228V222.24ZM107 219L112 222.24V228L107 224.76V219ZM86 208.24L81 205V210.76L86 214V208.24ZM64 195L69 198.24V204L64 200.76V195ZM129 233.24L124 230V235.76L129 239V233.24ZM115 137L120 140.24V146L115 142.76V137ZM120 185.24L115 182V187.76L120 191V185.24ZM88 167L93 170.24V176L88 172.76V167ZM137 195.24L132 192V197.76L137 201V195.24ZM115 158L120 161.24V167L115 163.76V158ZM120 206.24L115 203V208.76L120 212V206.24ZM88 189L93 192.24V198L88 194.76V189ZM137 217.24L132 214V219.76L137 223V217.24ZM115 147L120 150.24V156L115 152.76V147ZM120 195.24L115 192V197.76L120 201V195.24ZM88 178L93 181.24V187L88 183.76V178ZM137 206.24L132 203V208.76L137 212V206.24ZM115 169L120 172.24V178L115 174.76V169ZM137 182.24L132 179V184.76L137 188V182.24ZM115 214L120 217.24V223L115 219.76V214ZM93 201.24L88 198V203.76L93 207V201.24ZM132 225L137 228.24V234L132 230.76V225ZM120 228.24L115 225V230.76L120 234V228.24ZM88 209L93 212.24V218L88 214.76V209ZM137 237.24L132 234V239.76L137 243V237.24Z" fill="white"/>
<g filter="url(#filter4_d_54_1724)">
<path d="M184.743 303.166L198.539 295.201L198.539 298.684L193.348 301.681L193.347 317.962L189.933 319.933L189.934 303.652L184.743 306.649L184.743 303.166ZM204.471 297.202C204.939 296.932 205.375 296.761 205.781 296.689C206.186 296.617 206.498 296.644 206.716 296.77L205.453 300.388C205.048 300.298 204.588 300.402 204.074 300.699C203.232 301.185 202.554 301.981 202.039 303.088C201.54 304.186 201.291 305.446 201.291 306.868L201.291 313.375L198.041 315.252L198.041 301.266L200.894 299.619C200.972 300.654 201.042 301.351 201.104 301.711C201.463 300.658 201.93 299.749 202.507 298.984C203.084 298.219 203.738 297.625 204.471 297.202ZM212.25 292.711C213.887 291.766 215.165 291.568 216.084 292.117C217.004 292.648 217.464 293.903 217.464 295.883L217.464 304.037L214.728 305.617C214.712 305.482 214.689 305.261 214.658 304.955C214.642 304.622 214.611 304.343 214.564 304.118C214.206 304.973 213.738 305.729 213.161 306.386C212.6 307.016 211.914 307.565 211.104 308.033C210.262 308.519 209.49 308.794 208.789 308.857C208.103 308.911 207.557 308.731 207.152 308.317C206.747 307.885 206.544 307.219 206.544 306.319C206.544 305.383 206.77 304.443 207.222 303.498C207.69 302.526 208.314 301.626 209.093 300.798C209.872 299.969 210.73 299.285 211.665 298.745C212.507 298.259 213.372 297.922 214.26 297.733C214.214 295.69 213.45 295.096 211.969 295.951C210.784 296.635 209.919 297.746 209.374 299.286L207.059 299.083C207.495 297.787 208.166 296.581 209.07 295.465C209.974 294.331 211.034 293.413 212.25 292.711ZM214.26 300.217C213.481 300.451 212.803 300.734 212.226 301.067C211.462 301.508 210.87 302.012 210.449 302.579C210.028 303.128 209.818 303.691 209.818 304.267C209.818 304.789 209.981 305.099 210.309 305.198C210.652 305.288 211.088 305.18 211.618 304.874C212.32 304.469 212.935 303.889 213.465 303.133C213.995 302.359 214.26 301.567 214.26 300.757L214.26 300.217ZM228.745 276.977L231.995 275.1L231.995 295.647L229.142 297.294C229.064 296.295 229.002 295.629 228.955 295.296C228.534 296.349 227.981 297.281 227.295 298.091C226.624 298.874 225.892 299.495 225.097 299.954C224.099 300.53 223.187 300.768 222.361 300.669C221.535 300.571 220.872 300.116 220.374 299.306C219.875 298.478 219.625 297.308 219.626 295.796C219.626 294.266 219.875 292.808 220.374 291.422C220.873 290.018 221.535 288.79 222.361 287.736C223.188 286.683 224.1 285.869 225.097 285.293C225.83 284.87 226.508 284.649 227.131 284.631C227.771 284.604 228.308 284.816 228.745 285.266L228.745 276.977ZM225.845 296.309C226.656 295.841 227.342 295.103 227.903 294.095C228.464 293.087 228.745 291.899 228.745 290.531C228.745 289.181 228.464 288.344 227.903 288.02C227.342 287.678 226.656 287.741 225.845 288.209C224.988 288.704 224.294 289.455 223.764 290.463C223.25 291.462 222.993 292.592 222.993 293.852C222.993 295.112 223.25 295.962 223.764 296.403C224.294 296.835 224.988 296.804 225.845 296.309ZM240.41 276.451C241.486 275.83 242.437 275.56 243.263 275.641C244.105 275.695 244.752 276.096 245.204 276.843C245.671 277.563 245.905 278.57 245.905 279.866C245.905 280.442 245.858 281.054 245.765 281.702L237.721 286.347C237.861 287.31 238.189 287.913 238.703 288.156C239.218 288.381 239.857 288.273 240.62 287.832C241.166 287.517 241.649 287.103 242.07 286.59C242.507 286.05 242.842 285.433 243.076 284.74L245.461 284.983C245.133 286.198 244.502 287.355 243.567 288.453C242.647 289.542 241.618 290.415 240.48 291.072C239.389 291.702 238.376 292.008 237.44 291.99C236.505 291.972 235.749 291.571 235.172 290.788C234.611 289.996 234.331 288.817 234.331 287.251C234.331 285.703 234.611 284.218 235.173 282.796C235.749 281.365 236.498 280.105 237.417 279.016C238.337 277.927 239.335 277.072 240.41 276.451ZM240.317 279.556C239.678 279.925 239.132 280.474 238.68 281.203C238.228 281.932 237.924 282.765 237.768 283.701L242.585 280.92C242.522 280.092 242.281 279.574 241.86 279.367C241.455 279.133 240.94 279.196 240.317 279.556ZM261.949 275.085C262.775 274.608 263.485 273.946 264.077 273.1C264.685 272.245 265.168 271.264 265.527 270.157L268.356 270.413C267.935 271.988 267.163 273.532 266.041 275.044C264.919 276.538 263.578 277.735 262.019 278.635C260.507 279.508 259.128 279.882 257.881 279.756C256.633 279.63 255.644 279.004 254.911 277.879C254.178 276.736 253.812 275.157 253.812 273.141C253.812 271.125 254.171 269.136 254.888 267.174C255.621 265.203 256.611 263.434 257.858 261.868C259.12 260.293 260.508 259.069 262.02 258.196C263.579 257.296 264.919 256.954 266.042 257.17C267.164 257.368 267.935 258.011 268.356 259.1L265.527 262.624C265.168 261.931 264.685 261.508 264.077 261.355C263.485 261.193 262.776 261.351 261.95 261.828C261.077 262.332 260.297 263.052 259.611 263.988C258.925 264.924 258.38 266.013 257.974 267.255C257.585 268.47 257.39 269.743 257.39 271.075C257.39 272.407 257.585 273.465 257.974 274.248C258.379 275.022 258.925 275.481 259.611 275.625C260.297 275.769 261.076 275.589 261.949 275.085ZM275.644 256.108C276.719 255.487 277.67 255.217 278.496 255.298C279.338 255.352 279.985 255.752 280.437 256.499C280.904 257.219 281.138 258.227 281.138 259.523C281.138 260.099 281.091 260.711 280.998 261.359L272.954 266.003C273.095 266.966 273.422 267.569 273.936 267.812C274.451 268.037 275.09 267.929 275.854 267.488C276.399 267.173 276.883 266.759 277.303 266.246C277.74 265.706 278.075 265.09 278.309 264.397L280.694 264.64C280.366 265.855 279.735 267.011 278.8 268.109C277.88 269.198 276.851 270.071 275.713 270.728C274.622 271.358 273.609 271.664 272.674 271.646C271.738 271.628 270.982 271.228 270.406 270.445C269.844 269.653 269.564 268.474 269.564 266.908C269.564 265.36 269.845 263.875 270.406 262.453C270.983 261.022 271.731 259.762 272.651 258.673C273.57 257.584 274.568 256.729 275.644 256.108ZM275.55 259.213C274.911 259.582 274.365 260.131 273.913 260.86C273.461 261.589 273.157 262.421 273.001 263.357L277.818 260.576C277.756 259.748 277.514 259.231 277.093 259.024C276.688 258.79 276.174 258.853 275.55 259.213ZM290.226 247.688C291.566 246.914 292.626 246.815 293.406 247.391C294.185 247.949 294.575 249.2 294.575 251.144L294.574 259.514L291.324 261.391L291.324 254.236C291.325 251.68 290.592 250.825 289.127 251.671C288.347 252.121 287.716 252.836 287.233 253.817C286.765 254.771 286.531 255.878 286.531 257.138L286.531 264.158L283.281 266.035L283.281 252.049L286.134 250.402C286.212 251.455 286.282 252.161 286.344 252.521C287.124 250.343 288.418 248.732 290.226 247.688ZM305.741 252.256C304.946 253.471 303.84 254.488 302.421 255.307C301.112 256.063 300.052 256.279 299.241 255.955C298.446 255.604 298.049 254.394 298.049 252.324L298.049 246.681L295.898 247.923L295.898 244.764L298.049 243.522L298.049 239.229L301.299 237.352L301.299 241.645L304.947 239.539L304.947 242.698L301.299 244.804L301.299 249.826C301.299 250.762 301.439 251.392 301.72 251.716C302 252.04 302.452 252.022 303.076 251.662C303.622 251.347 304.136 250.861 304.619 250.204L305.741 252.256ZM312.384 234.894C313.459 234.273 314.41 234.003 315.237 234.084C316.078 234.138 316.725 234.539 317.177 235.286C317.645 236.006 317.879 237.014 317.879 238.31C317.879 238.886 317.832 239.498 317.738 240.146L309.695 244.79C309.835 245.753 310.162 246.356 310.677 246.599C311.191 246.824 311.83 246.716 312.594 246.275C313.14 245.96 313.623 245.546 314.044 245.033C314.48 244.493 314.815 243.876 315.049 243.183L317.434 243.426C317.107 244.641 316.475 245.798 315.54 246.896C314.62 247.985 313.592 248.858 312.454 249.515C311.362 250.145 310.349 250.451 309.414 250.433C308.479 250.415 307.723 250.014 307.146 249.231C306.585 248.439 306.304 247.26 306.304 245.694C306.304 244.146 306.585 242.661 307.146 241.239C307.723 239.808 308.471 238.548 309.391 237.459C310.311 236.37 311.308 235.515 312.384 234.894ZM312.29 237.999C311.651 238.368 311.106 238.917 310.653 239.646C310.201 240.375 309.897 241.208 309.742 242.144L314.558 239.363C314.496 238.535 314.254 238.017 313.833 237.81C313.428 237.576 312.914 237.639 312.29 237.999ZM326.452 226.772C326.919 226.502 327.356 226.331 327.761 226.259C328.166 226.187 328.478 226.214 328.696 226.34L327.434 229.958C327.028 229.868 326.568 229.971 326.054 230.268C325.212 230.754 324.534 231.551 324.02 232.658C323.521 233.756 323.271 235.016 323.271 236.438L323.271 242.945L320.021 244.821L320.021 230.835L322.874 229.188C322.952 230.223 323.022 230.921 323.084 231.281C323.443 230.228 323.911 229.319 324.487 228.554C325.064 227.789 325.719 227.195 326.452 226.772Z" fill="white"/>
</g>
<defs>
<filter id="filter0_b_54_1724" x="-2.5939" y="-120.177" width="325.596" height="469.85" filterUnits="userSpaceOnUse" color-interpolation-filters="sRGB">
<feFlood flood-opacity="0" result="BackgroundImageFix"/>
<feGaussianBlur in="BackgroundImageFix" stdDeviation="67.957"/>
<feComposite in2="SourceAlpha" operator="in" result="effect1_backgroundBlur_54_1724"/>
<feBlend mode="normal" in="SourceGraphic" in2="effect1_backgroundBlur_54_1724" result="shape"/>
</filter>
<filter id="filter1_b_54_1724" x="-2.5939" y="-135.914" width="351.824" height="320.35" filterUnits="userSpaceOnUse" color-interpolation-filters="sRGB">
<feFlood flood-opacity="0" result="BackgroundImageFix"/>
<feGaussianBlur in="BackgroundImageFix" stdDeviation="67.957"/>
<feComposite in2="SourceAlpha" operator="in" result="effect1_backgroundBlur_54_1724"/>
<feBlend mode="normal" in="SourceGraphic" in2="effect1_backgroundBlur_54_1724" result="shape"/>
</filter>
<filter id="filter2_b_54_1724" x="-85.2123" y="-57.2298" width="522.126" height="456.736" filterUnits="userSpaceOnUse" color-interpolation-filters="sRGB">
<feFlood flood-opacity="0" result="BackgroundImageFix"/>
<feGaussianBlur in="BackgroundImageFix" stdDeviation="67.957"/>
<feComposite in2="SourceAlpha" operator="in" result="effect1_backgroundBlur_54_1724"/>
<feBlend mode="normal" in="SourceGraphic" in2="effect1_backgroundBlur_54_1724" result="shape"/>
</filter>
<filter id="filter3_b_54_1724" x="-85.2123" y="-45.4273" width="460.67" height="480.341" filterUnits="userSpaceOnUse" color-interpolation-filters="sRGB">
<feFlood flood-opacity="0" result="BackgroundImageFix"/>
<feGaussianBlur in="BackgroundImageFix" stdDeviation="67.957"/>
<feComposite in2="SourceAlpha" operator="in" result="effect1_backgroundBlur_54_1724"/>
<feBlend mode="normal" in="SourceGraphic" in2="effect1_backgroundBlur_54_1724" result="shape"/>
</filter>
<filter id="filter4_d_54_1724" x="180.743" y="219.266" width="147.954" height="103.989" filterUnits="userSpaceOnUse" color-interpolation-filters="sRGB">
<feFlood flood-opacity="0" result="BackgroundImageFix"/>
<feColorMatrix in="SourceAlpha" type="matrix" values="0 0 0 0 0 0 0 0 0 0 0 0 0 0 0 0 0 0 127 0" result="hardAlpha"/>
<feOffset dx="-4"/>
<feComposite in2="hardAlpha" operator="out"/>
<feColorMatrix type="matrix" values="0 0 0 0 0.14902 0 0 0 0 0.356863 0 0 0 0 0.431373 0 0 0 1 0"/>
<feBlend mode="normal" in2="BackgroundImageFix" result="effect1_dropShadow_54_1724"/>
<feBlend mode="normal" in="SourceGraphic" in2="effect1_dropShadow_54_1724" result="shape"/>
</filter>
</defs>
</svg>
