<svg width="333" height="273" viewBox="0 0 333 273" fill="none" xmlns="http://www.w3.org/2000/svg">
<path opacity="0.5" fill-rule="evenodd" clip-rule="evenodd" d="M0 164.88L145.402 77L332.348 187.783L188.011 273L0 164.88Z" fill="#265B6E" fill-opacity="0.7"/>
<g filter="url(#filter0_b_54_1684)">
<path fill-rule="evenodd" clip-rule="evenodd" d="M192.49 45.7165L211 35L166 10L128 32L146.51 42.2835L128 53L146.51 63.2835L128 74L146.51 84.2835L128 95L146.51 105.284L128 116L173 141L211 119L192.49 108.716L211 98L192.49 87.7165L211 77L192.49 66.7165L211 56L192.49 45.7165Z" fill="#265B6E" fill-opacity="0.7"/>
</g>
<path fill-rule="evenodd" clip-rule="evenodd" d="M189 0L151 22L128 32L166 10L189 0ZM211 35L173 57V76L211 53.9895V35ZM173 78L211 56V74.9895L173 97V78ZM211 77L173 99V118L211 95.9895V77ZM173 120L211 98V116.989L173 139V120ZM173 141L211 119V137.989L173 160V141Z" fill="#265B6E"/>
<path fill-rule="evenodd" clip-rule="evenodd" d="M173 57L128 32V51L173 76V57ZM128 53L173 78V97L128 72V53ZM173 99L128 74V93L173 118V99ZM128 95L173 120V139L128 114V95ZM128 116L173 141V160L128 135V116Z" fill="white"/>
<g filter="url(#filter1_i_54_1684)">
<path fill-rule="evenodd" clip-rule="evenodd" d="M173 57L128 32L151 22L173 57ZM132 42.5968C132 42.5968 133.235 40.4419 135.706 41.7348C138.176 43.0278 139 46.9066 139 46.9066V57.5L132 53.6212V42.5968ZM135.706 62.7348C133.235 61.4419 132 63.5968 132 63.5968V74.6212L139 78.5V67.9066C139 67.9066 138.176 64.0278 135.706 62.7348ZM132 84.5968C132 84.5968 133.235 82.4419 135.706 83.7348C138.176 85.0278 139 88.9066 139 88.9066V99.5L132 95.6212V84.5968ZM135.706 104.735C133.235 103.442 132 105.597 132 105.597V116.621L139 120.5V109.907C139 109.907 138.176 106.028 135.706 104.735ZM135.706 125.735C133.235 124.442 132 126.597 132 126.597V137.621L139 141.5V130.907C139 130.907 138.176 127.028 135.706 125.735ZM149.706 134.235C147.235 132.942 146 135.097 146 135.097V145.44L153 149.25V139.407C153 139.407 152.176 135.528 149.706 134.235ZM161 142.847C161 142.847 162.235 140.692 164.706 141.985C167.176 143.278 168 147.157 168 147.157V157.25L161 153.19V142.847ZM146 114.097C146 114.097 147.235 111.942 149.706 113.235C152.176 114.528 153 118.407 153 118.407V128.25L146 124.44V114.097ZM164.706 120.985C162.235 119.692 161 121.847 161 121.847V132.19L168 136.25V126.157C168 126.157 167.176 122.278 164.706 120.985ZM149.706 92.2348C147.235 90.9419 146 93.0968 146 93.0968V103.44L153 107.25V97.4066C153 97.4066 152.176 93.5278 149.706 92.2348ZM161 100.847C161 100.847 162.235 98.6919 164.706 99.9848C167.176 101.278 168 105.157 168 105.157V115.25L161 111.19V100.847ZM146 72.0968C146 72.0968 147.235 69.9419 149.706 71.2348C152.176 72.5278 153 76.4066 153 76.4066V86.25L146 82.4402V72.0968ZM164.706 78.9848C162.235 77.6919 161 79.8468 161 79.8468V90.1902L168 94.25V84.1566C168 84.1566 167.176 80.2778 164.706 78.9848ZM149.706 50.2348C147.235 48.9419 146 51.0968 146 51.0968V61.4402L153 65.25V55.4066C153 55.4066 152.176 51.5278 149.706 50.2348ZM161 58.8468C161 58.8468 162.235 56.6919 164.706 57.9848C167.176 59.2778 168 63.1566 168 63.1566V73.25L161 69.1902V58.8468Z" fill="#265B6E" fill-opacity="0.8"/>
</g>
<g filter="url(#filter2_b_54_1684)">
<path fill-rule="evenodd" clip-rule="evenodd" d="M151 22L189 0L211 35L173 57L151 22Z" fill="#265B6E" fill-opacity="0.7"/>
</g>
<g filter="url(#filter3_b_54_1684)">
<path fill-rule="evenodd" clip-rule="evenodd" d="M132.49 82.7165L151 72L106 47L68 69L86.5103 79.2835L68 90L86.5103 100.284L68 111L86.5103 121.284L68 132L86.5103 142.284L68 153L113 178L151 156L132.49 145.716L151 135L132.49 124.716L151 114L132.49 103.716L151 93L132.49 82.7165Z" fill="#265B6E" fill-opacity="0.7"/>
</g>
<path fill-rule="evenodd" clip-rule="evenodd" d="M129 37L91 59L68 69L106 47L129 37ZM151 72L113 94V113L151 90.9895V72ZM113 115L151 93V111.989L113 134V115ZM151 114L113 136V155L151 132.989V114ZM113 157L151 135V153.989L113 176V157ZM113 178L151 156V174.989L113 197V178Z" fill="#265B6E"/>
<path fill-rule="evenodd" clip-rule="evenodd" d="M113 94L68 69V88L113 113V94ZM68 90L113 115V134L68 109V90ZM113 136L68 111V130L113 155V136ZM68 132L113 157V176L68 151V132ZM68 153L113 178V197L68 172V153Z" fill="white"/>
<g filter="url(#filter4_i_54_1684)">
<path fill-rule="evenodd" clip-rule="evenodd" d="M113 94L68 69L91 59L113 94ZM72 79.5968C72 79.5968 73.2353 77.4419 75.7059 78.7348C78.1765 80.0278 79 83.9066 79 83.9066V94.5L72 90.6212V79.5968ZM75.7059 99.7348C73.2353 98.4419 72 100.597 72 100.597V111.621L79 115.5V104.907C79 104.907 78.1765 101.028 75.7059 99.7348ZM72 121.597C72 121.597 73.2353 119.442 75.7059 120.735C78.1765 122.028 79 125.907 79 125.907V136.5L72 132.621V121.597ZM75.7059 141.735C73.2353 140.442 72 142.597 72 142.597V153.621L79 157.5V146.907C79 146.907 78.1765 143.028 75.7059 141.735ZM75.7059 162.735C73.2353 161.442 72 163.597 72 163.597V174.621L79 178.5V167.907C79 167.907 78.1765 164.028 75.7059 162.735ZM89.7059 171.235C87.2353 169.942 86 172.097 86 172.097V182.44L93 186.25V176.407C93 176.407 92.1765 172.528 89.7059 171.235ZM101 179.847C101 179.847 102.235 177.692 104.706 178.985C107.176 180.278 108 184.157 108 184.157V194.25L101 190.19V179.847ZM86 151.097C86 151.097 87.2353 148.942 89.7059 150.235C92.1765 151.528 93 155.407 93 155.407V165.25L86 161.44V151.097ZM104.706 157.985C102.235 156.692 101 158.847 101 158.847V169.19L108 173.25V163.157C108 163.157 107.176 159.278 104.706 157.985ZM89.7059 129.235C87.2353 127.942 86 130.097 86 130.097V140.44L93 144.25V134.407C93 134.407 92.1765 130.528 89.7059 129.235ZM101 137.847C101 137.847 102.235 135.692 104.706 136.985C107.176 138.278 108 142.157 108 142.157V152.25L101 148.19V137.847ZM86 109.097C86 109.097 87.2353 106.942 89.7059 108.235C92.1765 109.528 93 113.407 93 113.407V123.25L86 119.44V109.097ZM104.706 115.985C102.235 114.692 101 116.847 101 116.847V127.19L108 131.25V121.157C108 121.157 107.176 117.278 104.706 115.985ZM89.7059 87.2348C87.2353 85.9419 86 88.0968 86 88.0968V98.4402L93 102.25V92.4066C93 92.4066 92.1765 88.5278 89.7059 87.2348ZM101 95.8468C101 95.8468 102.235 93.6919 104.706 94.9848C107.176 96.2778 108 100.157 108 100.157V110.25L101 106.19V95.8468Z" fill="#265B6E" fill-opacity="0.8"/>
</g>
<g filter="url(#filter5_b_54_1684)">
<path fill-rule="evenodd" clip-rule="evenodd" d="M91 59L129 37L151 72L113 94L91 59Z" fill="#265B6E" fill-opacity="0.7"/>
</g>
<g filter="url(#filter6_b_54_1684)">
<path fill-rule="evenodd" clip-rule="evenodd" d="M264.49 83.7165L283 73L238 48L200 70L218.51 80.2835L200 91L218.51 101.284L200 112L218.51 122.284L200 133L218.51 143.284L200 154L245 179L283 157L264.49 146.716L283 136L264.49 125.716L283 115L264.49 104.716L283 94L264.49 83.7165Z" fill="#265B6E" fill-opacity="0.7"/>
</g>
<path fill-rule="evenodd" clip-rule="evenodd" d="M261 38L223 60L200 70L238 48L261 38ZM283 73L245 95V114L283 91.9895V73ZM245 116L283 94V112.989L245 135V116ZM283 115L245 137V156L283 133.989V115ZM245 158L283 136V154.989L245 177V158ZM245 179L283 157V175.989L245 198V179Z" fill="#265B6E"/>
<path fill-rule="evenodd" clip-rule="evenodd" d="M245 95L200 70V89L245 114V95ZM200 91L245 116V135L200 110V91ZM245 137L200 112V131L245 156V137ZM200 133L245 158V177L200 152V133ZM200 154L245 179V198L200 173V154Z" fill="white"/>
<g filter="url(#filter7_i_54_1684)">
<path fill-rule="evenodd" clip-rule="evenodd" d="M245 95L200 70L223 60L245 95ZM204 80.5968C204 80.5968 205.235 78.4419 207.706 79.7348C210.176 81.0278 211 84.9066 211 84.9066V95.5L204 91.6212V80.5968ZM207.706 100.735C205.235 99.4419 204 101.597 204 101.597V112.621L211 116.5V105.907C211 105.907 210.176 102.028 207.706 100.735ZM204 122.597C204 122.597 205.235 120.442 207.706 121.735C210.176 123.028 211 126.907 211 126.907V137.5L204 133.621V122.597ZM207.706 142.735C205.235 141.442 204 143.597 204 143.597V154.621L211 158.5V147.907C211 147.907 210.176 144.028 207.706 142.735ZM207.706 163.735C205.235 162.442 204 164.597 204 164.597V175.621L211 179.5V168.907C211 168.907 210.176 165.028 207.706 163.735ZM221.706 172.235C219.235 170.942 218 173.097 218 173.097V183.44L225 187.25V177.407C225 177.407 224.176 173.528 221.706 172.235ZM233 180.847C233 180.847 234.235 178.692 236.706 179.985C239.176 181.278 240 185.157 240 185.157V195.25L233 191.19V180.847ZM218 152.097C218 152.097 219.235 149.942 221.706 151.235C224.176 152.528 225 156.407 225 156.407V166.25L218 162.44V152.097ZM236.706 158.985C234.235 157.692 233 159.847 233 159.847V170.19L240 174.25V164.157C240 164.157 239.176 160.278 236.706 158.985ZM221.706 130.235C219.235 128.942 218 131.097 218 131.097V141.44L225 145.25V135.407C225 135.407 224.176 131.528 221.706 130.235ZM233 138.847C233 138.847 234.235 136.692 236.706 137.985C239.176 139.278 240 143.157 240 143.157V153.25L233 149.19V138.847ZM218 110.097C218 110.097 219.235 107.942 221.706 109.235C224.176 110.528 225 114.407 225 114.407V124.25L218 120.44V110.097ZM236.706 116.985C234.235 115.692 233 117.847 233 117.847V128.19L240 132.25V122.157C240 122.157 239.176 118.278 236.706 116.985ZM221.706 88.2348C219.235 86.9419 218 89.0968 218 89.0968V99.4402L225 103.25V93.4066C225 93.4066 224.176 89.5278 221.706 88.2348ZM233 96.8468C233 96.8468 234.235 94.6919 236.706 95.9848C239.176 97.2778 240 101.157 240 101.157V111.25L233 107.19V96.8468Z" fill="#265B6E" fill-opacity="0.8"/>
</g>
<g filter="url(#filter8_b_54_1684)">
<path fill-rule="evenodd" clip-rule="evenodd" d="M223 60L261 38L283 73L245 95L223 60Z" fill="#265B6E" fill-opacity="0.7"/>
</g>
<g filter="url(#filter9_b_54_1684)">
<path fill-rule="evenodd" clip-rule="evenodd" d="M204.49 120.716L223 110L178 85L140 107L158.51 117.284L140 128L158.51 138.284L140 149L158.51 159.284L140 170L158.51 180.284L140 191L185 216L223 194L204.49 183.716L223 173L204.49 162.716L223 152L204.49 141.716L223 131L204.49 120.716Z" fill="#265B6E" fill-opacity="0.7"/>
</g>
<path fill-rule="evenodd" clip-rule="evenodd" d="M201 75L163 97L140 107L178 85L201 75ZM223 110L185 132V151L223 128.989V110ZM185 153L223 131V149.989L185 172V153ZM223 152L185 174V193L223 170.989V152ZM185 195L223 173V191.989L185 214V195ZM185 216L223 194V212.989L185 235V216Z" fill="#265B6E"/>
<path fill-rule="evenodd" clip-rule="evenodd" d="M185 132L140 107V126L185 151V132ZM140 128L185 153V172L140 147V128ZM185 174L140 149V168L185 193V174ZM140 170L185 195V214L140 189V170ZM140 191L185 216V235L140 210V191Z" fill="white"/>
<g filter="url(#filter10_i_54_1684)">
<path fill-rule="evenodd" clip-rule="evenodd" d="M185 132L140 107L163 97L185 132ZM144 117.597C144 117.597 145.235 115.442 147.706 116.735C150.176 118.028 151 121.907 151 121.907V132.5L144 128.621V117.597ZM147.706 137.735C145.235 136.442 144 138.597 144 138.597V149.621L151 153.5V142.907C151 142.907 150.176 139.028 147.706 137.735ZM144 159.597C144 159.597 145.235 157.442 147.706 158.735C150.176 160.028 151 163.907 151 163.907V174.5L144 170.621V159.597ZM147.706 179.735C145.235 178.442 144 180.597 144 180.597V191.621L151 195.5V184.907C151 184.907 150.176 181.028 147.706 179.735ZM147.706 200.735C145.235 199.442 144 201.597 144 201.597V212.621L151 216.5V205.907C151 205.907 150.176 202.028 147.706 200.735ZM161.706 209.235C159.235 207.942 158 210.097 158 210.097V220.44L165 224.25V214.407C165 214.407 164.176 210.528 161.706 209.235ZM173 217.847C173 217.847 174.235 215.692 176.706 216.985C179.176 218.278 180 222.157 180 222.157V232.25L173 228.19V217.847ZM158 189.097C158 189.097 159.235 186.942 161.706 188.235C164.176 189.528 165 193.407 165 193.407V203.25L158 199.44V189.097ZM176.706 195.985C174.235 194.692 173 196.847 173 196.847V207.19L180 211.25V201.157C180 201.157 179.176 197.278 176.706 195.985ZM161.706 167.235C159.235 165.942 158 168.097 158 168.097V178.44L165 182.25V172.407C165 172.407 164.176 168.528 161.706 167.235ZM173 175.847C173 175.847 174.235 173.692 176.706 174.985C179.176 176.278 180 180.157 180 180.157V190.25L173 186.19V175.847ZM158 147.097C158 147.097 159.235 144.942 161.706 146.235C164.176 147.528 165 151.407 165 151.407V161.25L158 157.44V147.097ZM176.706 153.985C174.235 152.692 173 154.847 173 154.847V165.19L180 169.25V159.157C180 159.157 179.176 155.278 176.706 153.985ZM161.706 125.235C159.235 123.942 158 126.097 158 126.097V136.44L165 140.25V130.407C165 130.407 164.176 126.528 161.706 125.235ZM173 133.847C173 133.847 174.235 131.692 176.706 132.985C179.176 134.278 180 138.157 180 138.157V148.25L173 144.19V133.847Z" fill="#265B6E" fill-opacity="0.8"/>
</g>
<g filter="url(#filter11_b_54_1684)">
<path fill-rule="evenodd" clip-rule="evenodd" d="M163 97L201 75L223 110L185 132L163 97Z" fill="#265B6E" fill-opacity="0.7"/>
</g>
<defs>
<filter id="filter0_b_54_1684" x="-7.91409" y="-125.914" width="354.828" height="402.828" filterUnits="userSpaceOnUse" color-interpolation-filters="sRGB">
<feFlood flood-opacity="0" result="BackgroundImageFix"/>
<feGaussianBlur in="BackgroundImageFix" stdDeviation="67.957"/>
<feComposite in2="SourceAlpha" operator="in" result="effect1_backgroundBlur_54_1684"/>
<feBlend mode="normal" in="SourceGraphic" in2="effect1_backgroundBlur_54_1684" result="shape"/>
</filter>
<filter id="filter1_i_54_1684" x="128" y="22" width="45" height="135.25" filterUnits="userSpaceOnUse" color-interpolation-filters="sRGB">
<feFlood flood-opacity="0" result="BackgroundImageFix"/>
<feBlend mode="normal" in="SourceGraphic" in2="BackgroundImageFix" result="shape"/>
<feColorMatrix in="SourceAlpha" type="matrix" values="0 0 0 0 0 0 0 0 0 0 0 0 0 0 0 0 0 0 127 0" result="hardAlpha"/>
<feOffset dx="1"/>
<feComposite in2="hardAlpha" operator="arithmetic" k2="-1" k3="1"/>
<feColorMatrix type="matrix" values="0 0 0 0 0.321569 0 0 0 0 0.34902 0 0 0 0 0.552941 0 0 0 1 0"/>
<feBlend mode="normal" in2="shape" result="effect1_innerShadow_54_1684"/>
</filter>
<filter id="filter2_b_54_1684" x="15.0859" y="-135.914" width="331.828" height="328.828" filterUnits="userSpaceOnUse" color-interpolation-filters="sRGB">
<feFlood flood-opacity="0" result="BackgroundImageFix"/>
<feGaussianBlur in="BackgroundImageFix" stdDeviation="67.957"/>
<feComposite in2="SourceAlpha" operator="in" result="effect1_backgroundBlur_54_1684"/>
<feBlend mode="normal" in="SourceGraphic" in2="effect1_backgroundBlur_54_1684" result="shape"/>
</filter>
<filter id="filter3_b_54_1684" x="-67.9141" y="-88.9141" width="354.828" height="402.828" filterUnits="userSpaceOnUse" color-interpolation-filters="sRGB">
<feFlood flood-opacity="0" result="BackgroundImageFix"/>
<feGaussianBlur in="BackgroundImageFix" stdDeviation="67.957"/>
<feComposite in2="SourceAlpha" operator="in" result="effect1_backgroundBlur_54_1684"/>
<feBlend mode="normal" in="SourceGraphic" in2="effect1_backgroundBlur_54_1684" result="shape"/>
</filter>
<filter id="filter4_i_54_1684" x="68" y="59" width="45" height="135.25" filterUnits="userSpaceOnUse" color-interpolation-filters="sRGB">
<feFlood flood-opacity="0" result="BackgroundImageFix"/>
<feBlend mode="normal" in="SourceGraphic" in2="BackgroundImageFix" result="shape"/>
<feColorMatrix in="SourceAlpha" type="matrix" values="0 0 0 0 0 0 0 0 0 0 0 0 0 0 0 0 0 0 127 0" result="hardAlpha"/>
<feOffset dx="1"/>
<feComposite in2="hardAlpha" operator="arithmetic" k2="-1" k3="1"/>
<feColorMatrix type="matrix" values="0 0 0 0 0.321569 0 0 0 0 0.34902 0 0 0 0 0.552941 0 0 0 1 0"/>
<feBlend mode="normal" in2="shape" result="effect1_innerShadow_54_1684"/>
</filter>
<filter id="filter5_b_54_1684" x="-44.9141" y="-98.9141" width="331.828" height="328.828" filterUnits="userSpaceOnUse" color-interpolation-filters="sRGB">
<feFlood flood-opacity="0" result="BackgroundImageFix"/>
<feGaussianBlur in="BackgroundImageFix" stdDeviation="67.957"/>
<feComposite in2="SourceAlpha" operator="in" result="effect1_backgroundBlur_54_1684"/>
<feBlend mode="normal" in="SourceGraphic" in2="effect1_backgroundBlur_54_1684" result="shape"/>
</filter>
<filter id="filter6_b_54_1684" x="64.0859" y="-87.9141" width="354.828" height="402.828" filterUnits="userSpaceOnUse" color-interpolation-filters="sRGB">
<feFlood flood-opacity="0" result="BackgroundImageFix"/>
<feGaussianBlur in="BackgroundImageFix" stdDeviation="67.957"/>
<feComposite in2="SourceAlpha" operator="in" result="effect1_backgroundBlur_54_1684"/>
<feBlend mode="normal" in="SourceGraphic" in2="effect1_backgroundBlur_54_1684" result="shape"/>
</filter>
<filter id="filter7_i_54_1684" x="200" y="60" width="45" height="135.25" filterUnits="userSpaceOnUse" color-interpolation-filters="sRGB">
<feFlood flood-opacity="0" result="BackgroundImageFix"/>
<feBlend mode="normal" in="SourceGraphic" in2="BackgroundImageFix" result="shape"/>
<feColorMatrix in="SourceAlpha" type="matrix" values="0 0 0 0 0 0 0 0 0 0 0 0 0 0 0 0 0 0 127 0" result="hardAlpha"/>
<feOffset dx="1"/>
<feComposite in2="hardAlpha" operator="arithmetic" k2="-1" k3="1"/>
<feColorMatrix type="matrix" values="0 0 0 0 0.321569 0 0 0 0 0.34902 0 0 0 0 0.552941 0 0 0 1 0"/>
<feBlend mode="normal" in2="shape" result="effect1_innerShadow_54_1684"/>
</filter>
<filter id="filter8_b_54_1684" x="87.0859" y="-97.9141" width="331.828" height="328.828" filterUnits="userSpaceOnUse" color-interpolation-filters="sRGB">
<feFlood flood-opacity="0" result="BackgroundImageFix"/>
<feGaussianBlur in="BackgroundImageFix" stdDeviation="67.957"/>
<feComposite in2="SourceAlpha" operator="in" result="effect1_backgroundBlur_54_1684"/>
<feBlend mode="normal" in="SourceGraphic" in2="effect1_backgroundBlur_54_1684" result="shape"/>
</filter>
<filter id="filter9_b_54_1684" x="4.08591" y="-50.9141" width="354.828" height="402.828" filterUnits="userSpaceOnUse" color-interpolation-filters="sRGB">
<feFlood flood-opacity="0" result="BackgroundImageFix"/>
<feGaussianBlur in="BackgroundImageFix" stdDeviation="67.957"/>
<feComposite in2="SourceAlpha" operator="in" result="effect1_backgroundBlur_54_1684"/>
<feBlend mode="normal" in="SourceGraphic" in2="effect1_backgroundBlur_54_1684" result="shape"/>
</filter>
<filter id="filter10_i_54_1684" x="140" y="97" width="45" height="135.25" filterUnits="userSpaceOnUse" color-interpolation-filters="sRGB">
<feFlood flood-opacity="0" result="BackgroundImageFix"/>
<feBlend mode="normal" in="SourceGraphic" in2="BackgroundImageFix" result="shape"/>
<feColorMatrix in="SourceAlpha" type="matrix" values="0 0 0 0 0 0 0 0 0 0 0 0 0 0 0 0 0 0 127 0" result="hardAlpha"/>
<feOffset dx="1"/>
<feComposite in2="hardAlpha" operator="arithmetic" k2="-1" k3="1"/>
<feColorMatrix type="matrix" values="0 0 0 0 0.321569 0 0 0 0 0.34902 0 0 0 0 0.552941 0 0 0 1 0"/>
<feBlend mode="normal" in2="shape" result="effect1_innerShadow_54_1684"/>
</filter>
<filter id="filter11_b_54_1684" x="27.0859" y="-60.9141" width="331.828" height="328.828" filterUnits="userSpaceOnUse" color-interpolation-filters="sRGB">
<feFlood flood-opacity="0" result="BackgroundImageFix"/>
<feGaussianBlur in="BackgroundImageFix" stdDeviation="67.957"/>
<feComposite in2="SourceAlpha" operator="in" result="effect1_backgroundBlur_54_1684"/>
<feBlend mode="normal" in="SourceGraphic" in2="effect1_backgroundBlur_54_1684" result="shape"/>
</filter>
</defs>
</svg>
