<svg width="333" height="321" viewBox="0 0 333 321" fill="none" xmlns="http://www.w3.org/2000/svg">
<path opacity="0.5" fill-rule="evenodd" clip-rule="evenodd" d="M0 212.88L145.402 125L332.348 235.783L188.011 321L0 212.88Z" fill="#265B6E" fill-opacity="0.7"/>
<g filter="url(#filter0_b_54_1730)">
<path fill-rule="evenodd" clip-rule="evenodd" d="M110.622 41.9951L95 33L152.25 0L243 52L227.28 60.9924L243 70L227.28 78.9924L243 88L227.28 96.9924L243 106L227.28 114.992L243 124L227.28 132.992L243 142L227.28 150.992L243 160L227.28 168.992L243 178L227.28 186.992L243 196L225.944 205.756L243 214L185.311 247L95 194.311L109.959 185.613L95 177L110.622 167.995L95 159L110.622 149.995L95 141L110.622 131.995L95 123L110.622 113.995L95 105L110.622 95.9951L95 87L110.622 77.9951L95 69L110.622 59.9951L95 51L110.622 41.9951Z" fill="#265B6E" fill-opacity="0.7"/>
</g>
<g filter="url(#filter1_b_54_1730)">
<path fill-rule="evenodd" clip-rule="evenodd" d="M185 85L95 33V48.6322L185 101V85ZM95 51L185 103V119L95 66.6322V51ZM185 121L95 69V84.6322L185 137V121ZM95 87L185 139V155L95 102.632V87ZM185 157L95 105V120.632L185 173V157ZM95 123L185 175V191L95 138.632V123ZM185 193L95 141V156.632L185 209V193ZM95 159L185 211V227L95 174.632V159ZM185 229L95 177V192.632L185 245V229ZM185 246.689L95 194V222.311L185 275V246.689Z" fill="#265B6E" fill-opacity="0.8"/>
</g>
<path fill-rule="evenodd" clip-rule="evenodd" d="M185 85L243 52V68L185 101V85ZM243 70L185 103V119L243 86V70ZM185 121L243 88V104L185 137V121ZM243 106L185 139V155L243 122V106ZM185 157L243 124V140L185 173V157ZM243 142L185 175V191L243 158V142ZM185 193L243 160V176L185 209V193ZM243 178L185 211V227L243 194V178ZM185 229L243 196V212L185 245V229ZM185 247L243 214V242L185 275V247Z" fill="#265B6E"/>
<path fill-rule="evenodd" clip-rule="evenodd" d="M101.136 40.6615L98 39V46.3712L101.136 48.0326V40.6615ZM128.091 56.3389L124.955 54.6775V62.0487L128.091 63.7101V56.3389ZM151.909 70.355L155.045 72.0164V79.3876L151.909 77.7261V70.355ZM114.614 48.5006L111.477 46.8391V54.2103L114.614 55.8717V48.5006ZM138.432 62.5166L141.568 64.1781V71.5492L138.432 69.8878V62.5166ZM168.523 79.8553L165.386 78.1938V85.565L168.523 87.2265V79.8553ZM104.739 42.9194L107.875 44.5809V51.952L104.739 50.2906V42.9194ZM134.83 60.2584L131.693 58.5969V65.9681L134.83 67.6295V60.2584ZM158.648 74.2744L161.784 75.9359V83.307L158.648 81.6456V74.2744ZM121.352 52.4193L118.216 50.7578V58.129L121.352 59.7904V52.4193ZM145.17 66.4358L148.307 68.0972V75.4684L145.17 73.8069V66.4358ZM175.261 83.775L172.125 82.1135V89.4847L175.261 91.1461V83.775ZM178.864 86.033L182 87.6944V95.0656L178.864 93.4041V86.033ZM189.864 86.6944L193 85.033V92.4041L189.864 94.0656V86.6944ZM211 74.8035L207.864 76.4649V83.8361L211 82.1746V74.8035ZM225.864 66.2354L229 64.574V71.9451L225.864 73.6066V66.2354ZM202 79.918L198.864 81.5794V88.9506L202 87.2891V79.918ZM216.864 71.3502L220 69.6887V77.0599L216.864 78.7213V71.3502ZM238 59.4592L234.864 61.1207V68.4918L238 66.8304V59.4592ZM98 57L101.136 58.6615V66.0326L98 64.3712V57ZM124.955 72.6775L128.091 74.3389V81.7101L124.955 80.0487V72.6775ZM155.045 90.0164L151.909 88.355V95.7261L155.045 97.3876V90.0164ZM111.477 64.8391L114.614 66.5006V73.8717L111.477 72.2103V64.8391ZM141.568 82.1781L138.432 80.5166V87.8878L141.568 89.5492V82.1781ZM165.386 96.1938L168.523 97.8553V105.226L165.386 103.565V96.1938ZM107.875 62.5809L104.739 60.9194V68.2906L107.875 69.952V62.5809ZM131.693 76.5969L134.83 78.2584V85.6295L131.693 83.9681V76.5969ZM161.784 93.9359L158.648 92.2744V99.6456L161.784 101.307V93.9359ZM118.216 68.7578L121.352 70.4193V77.7904L118.216 76.129V68.7578ZM148.307 86.0972L145.17 84.4358V91.8069L148.307 93.4684V86.0972ZM172.125 100.114L175.261 101.775V109.146L172.125 107.485V100.114ZM182 105.694L178.864 104.033V111.404L182 113.066V105.694ZM193 103.033L189.864 104.694V112.066L193 110.404V103.033ZM207.864 94.4649L211 92.8035V100.175L207.864 101.836V94.4649ZM229 82.574L225.864 84.2354V91.6066L229 89.9451V82.574ZM198.864 99.5794L202 97.918V105.289L198.864 106.951V99.5794ZM220 87.6887L216.864 89.3502V96.7213L220 95.0599V87.6887ZM234.864 79.1207L238 77.4592V84.8304L234.864 86.4918V79.1207ZM98 75L101.136 76.6615V84.0326L98 82.3712V75ZM124.955 90.6775L128.091 92.3389V99.7101L124.955 98.0487V90.6775ZM155.045 108.016L151.909 106.355V113.726L155.045 115.388V108.016ZM111.477 82.8391L114.614 84.5006V91.8717L111.477 90.2103V82.8391ZM141.568 100.178L138.432 98.5166V105.888L141.568 107.549V100.178ZM165.386 114.194L168.523 115.855V123.226L165.386 121.565V114.194ZM107.875 80.5809L104.739 78.9194V86.2906L107.875 87.952V80.5809ZM131.693 94.5969L134.83 96.2584V103.63L131.693 101.968V94.5969ZM161.784 111.936L158.648 110.274V117.646L161.784 119.307V111.936ZM118.216 86.7578L121.352 88.4193V95.7904L118.216 94.129V86.7578ZM148.307 104.097L145.17 102.436V109.807L148.307 111.468V104.097ZM172.125 118.114L175.261 119.775V127.146L172.125 125.485V118.114ZM182 123.694L178.864 122.033V129.404L182 131.066V123.694ZM193 121.033L189.864 122.694V130.066L193 128.404V121.033ZM207.864 112.465L211 110.803V118.175L207.864 119.836V112.465ZM229 100.574L225.864 102.235V109.607L229 107.945V100.574ZM198.864 117.579L202 115.918V123.289L198.864 124.951V117.579ZM220 105.689L216.864 107.35V114.721L220 113.06V105.689ZM234.864 97.1207L238 95.4592V102.83L234.864 104.492V97.1207ZM98 93L101.136 94.6615V102.033L98 100.371V93ZM124.955 108.677L128.091 110.339V117.71L124.955 116.049V108.677ZM155.045 126.016L151.909 124.355V131.726L155.045 133.388V126.016ZM111.477 100.839L114.614 102.501V109.872L111.477 108.21V100.839ZM141.568 118.178L138.432 116.517V123.888L141.568 125.549V118.178ZM165.386 132.194L168.523 133.855V141.226L165.386 139.565V132.194ZM107.875 98.5809L104.739 96.9194V104.291L107.875 105.952V98.5809ZM131.693 112.597L134.83 114.258V121.63L131.693 119.968V112.597ZM161.784 129.936L158.648 128.274V135.646L161.784 137.307V129.936ZM118.216 104.758L121.352 106.419V113.79L118.216 112.129V104.758ZM148.307 122.097L145.17 120.436V127.807L148.307 129.468V122.097ZM172.125 136.114L175.261 137.775V145.146L172.125 143.485V136.114ZM182 141.694L178.864 140.033V147.404L182 149.066V141.694ZM193 139.033L189.864 140.694V148.066L193 146.404V139.033ZM207.864 130.465L211 128.803V136.175L207.864 137.836V130.465ZM229 118.574L225.864 120.235V127.607L229 125.945V118.574ZM198.864 135.579L202 133.918V141.289L198.864 142.951V135.579ZM220 123.689L216.864 125.35V132.721L220 131.06V123.689ZM234.864 115.121L238 113.459V120.83L234.864 122.492V115.121ZM101.136 112.661L98 111V118.371L101.136 120.033V112.661ZM128.091 128.339L124.955 126.677V134.049L128.091 135.71V128.339ZM151.909 142.355L155.045 144.016V151.388L151.909 149.726V142.355ZM114.614 120.501L111.477 118.839V126.21L114.614 127.872V120.501ZM138.432 134.517L141.568 136.178V143.549L138.432 141.888V134.517ZM168.523 151.855L165.386 150.194V157.565L168.523 159.226V151.855ZM104.739 114.919L107.875 116.581V123.952L104.739 122.291V114.919ZM134.83 132.258L131.693 130.597V137.968L134.83 139.63V132.258ZM158.648 146.274L161.784 147.936V155.307L158.648 153.646V146.274ZM121.352 124.419L118.216 122.758V130.129L121.352 131.79V124.419ZM145.17 138.436L148.307 140.097V147.468L145.17 145.807V138.436ZM175.261 155.775L172.125 154.114V161.485L175.261 163.146V155.775ZM178.864 158.033L182 159.694V167.066L178.864 165.404V158.033ZM189.864 158.694L193 157.033V164.404L189.864 166.066V158.694ZM211 146.803L207.864 148.465V155.836L211 154.175V146.803ZM225.864 138.235L229 136.574V143.945L225.864 145.607V138.235ZM202 151.918L198.864 153.579V160.951L202 159.289V151.918ZM216.864 143.35L220 141.689V149.06L216.864 150.721V143.35ZM238 131.459L234.864 133.121V140.492L238 138.83V131.459ZM98 147L101.136 148.661V156.033L98 154.371V147ZM124.955 162.677L128.091 164.339V171.71L124.955 170.049V162.677ZM155.045 180.016L151.909 178.355V185.726L155.045 187.388V180.016ZM111.477 154.839L114.614 156.501V163.872L111.477 162.21V154.839ZM141.568 172.178L138.432 170.517V177.888L141.568 179.549V172.178ZM165.386 186.194L168.523 187.855V195.226L165.386 193.565V186.194ZM107.875 152.581L104.739 150.919V158.291L107.875 159.952V152.581ZM131.693 166.597L134.83 168.258V175.63L131.693 173.968V166.597ZM161.784 183.936L158.648 182.274V189.646L161.784 191.307V183.936ZM118.216 158.758L121.352 160.419V167.79L118.216 166.129V158.758ZM148.307 176.097L145.17 174.436V181.807L148.307 183.468V176.097ZM172.125 190.114L175.261 191.775V199.146L172.125 197.485V190.114ZM182 195.694L178.864 194.033V201.404L182 203.066V195.694ZM193 193.033L189.864 194.694V202.066L193 200.404V193.033ZM207.864 184.465L211 182.803V190.175L207.864 191.836V184.465ZM229 172.574L225.864 174.235V181.607L229 179.945V172.574ZM198.864 189.579L202 187.918V195.289L198.864 196.951V189.579ZM220 177.689L216.864 179.35V186.721L220 185.06V177.689ZM234.864 169.121L238 167.459V174.83L234.864 176.492V169.121ZM101.136 166.661L98 165V172.371L101.136 174.033V166.661ZM128.091 182.339L124.955 180.677V188.049L128.091 189.71V182.339ZM151.909 196.355L155.045 198.016V205.388L151.909 203.726V196.355ZM114.614 174.501L111.477 172.839V180.21L114.614 181.872V174.501ZM138.432 188.517L141.568 190.178V197.549L138.432 195.888V188.517ZM168.523 205.855L165.386 204.194V211.565L168.523 213.226V205.855ZM104.739 168.919L107.875 170.581V177.952L104.739 176.291V168.919ZM134.83 186.258L131.693 184.597V191.968L134.83 193.63V186.258ZM158.648 200.274L161.784 201.936V209.307L158.648 207.646V200.274ZM121.352 178.419L118.216 176.758V184.129L121.352 185.79V178.419ZM145.17 192.436L148.307 194.097V201.468L145.17 199.807V192.436ZM175.261 209.775L172.125 208.114V215.485L175.261 217.146V209.775ZM178.864 212.033L182 213.694V221.066L178.864 219.404V212.033ZM189.864 212.694L193 211.033V218.404L189.864 220.066V212.694ZM211 200.803L207.864 202.465V209.836L211 208.175V200.803ZM225.864 192.235L229 190.574V197.945L225.864 199.607V192.235ZM202 205.918L198.864 207.579V214.951L202 213.289V205.918ZM216.864 197.35L220 195.689V203.06L216.864 204.721V197.35ZM238 185.459L234.864 187.121V194.492L238 192.83V185.459ZM98 183L101.136 184.661V192.033L98 190.371V183ZM124.955 198.677L128.091 200.339V207.71L124.955 206.049V198.677ZM155.045 216.016L151.909 214.355V221.726L155.045 223.388V216.016ZM111.477 190.839L114.614 192.501V199.872L111.477 198.21V190.839ZM141.568 208.178L138.432 206.517V213.888L141.568 215.549V208.178ZM165.386 222.194L168.523 223.855V231.226L165.386 229.565V222.194ZM107.875 188.581L104.739 186.919V194.291L107.875 195.952V188.581ZM131.693 202.597L134.83 204.258V211.63L131.693 209.968V202.597ZM161.784 219.936L158.648 218.274V225.646L161.784 227.307V219.936ZM118.216 194.758L121.352 196.419V203.79L118.216 202.129V194.758ZM148.307 212.097L145.17 210.436V217.807L148.307 219.468V212.097ZM172.125 226.114L175.261 227.775V235.146L172.125 233.485V226.114ZM182 231.694L178.864 230.033V237.404L182 239.066V231.694ZM193 229.033L189.864 230.694V238.066L193 236.404V229.033ZM207.864 220.465L211 218.803V226.175L207.864 227.836V220.465ZM229 208.574L225.864 210.235V217.607L229 215.945V208.574ZM198.864 225.579L202 223.918V231.289L198.864 232.951V225.579ZM220 213.689L216.864 215.35V222.721L220 221.06V213.689ZM234.864 205.121L238 203.459V210.83L234.864 212.492V205.121ZM101.136 130.661L98 129V136.371L101.136 138.033V130.661ZM128.091 146.339L124.955 144.677V152.049L128.091 153.71V146.339ZM151.909 160.355L155.045 162.016V169.388L151.909 167.726V160.355ZM114.614 138.501L111.477 136.839V144.21L114.614 145.872V138.501ZM138.432 152.517L141.568 154.178V161.549L138.432 159.888V152.517ZM168.523 169.855L165.386 168.194V175.565L168.523 177.226V169.855ZM104.739 132.919L107.875 134.581V141.952L104.739 140.291V132.919ZM134.83 150.258L131.693 148.597V155.968L134.83 157.63V150.258ZM158.648 164.274L161.784 165.936V173.307L158.648 171.646V164.274ZM121.352 142.419L118.216 140.758V148.129L121.352 149.79V142.419ZM145.17 156.436L148.307 158.097V165.468L145.17 163.807V156.436ZM175.261 173.775L172.125 172.114V179.485L175.261 181.146V173.775ZM178.864 176.033L182 177.694V185.066L178.864 183.404V176.033ZM189.864 176.694L193 175.033V182.404L189.864 184.066V176.694ZM211 164.803L207.864 166.465V173.836L211 172.175V164.803ZM225.864 156.235L229 154.574V161.945L225.864 163.607V156.235ZM202 169.918L198.864 171.579V178.951L202 177.289V169.918ZM216.864 161.35L220 159.689V167.06L216.864 168.721V161.35ZM238 149.459L234.864 151.121V158.492L238 156.83V149.459Z" fill="white"/>
<defs>
<filter id="filter0_b_54_1730" x="-40.9141" y="-135.914" width="419.828" height="518.828" filterUnits="userSpaceOnUse" color-interpolation-filters="sRGB">
<feFlood flood-opacity="0" result="BackgroundImageFix"/>
<feGaussianBlur in="BackgroundImageFix" stdDeviation="67.957"/>
<feComposite in2="SourceAlpha" operator="in" result="effect1_backgroundBlur_54_1730"/>
<feBlend mode="normal" in="SourceGraphic" in2="effect1_backgroundBlur_54_1730" result="shape"/>
</filter>
<filter id="filter1_b_54_1730" x="-40.9141" y="-102.914" width="361.828" height="513.828" filterUnits="userSpaceOnUse" color-interpolation-filters="sRGB">
<feFlood flood-opacity="0" result="BackgroundImageFix"/>
<feGaussianBlur in="BackgroundImageFix" stdDeviation="67.957"/>
<feComposite in2="SourceAlpha" operator="in" result="effect1_backgroundBlur_54_1730"/>
<feBlend mode="normal" in="SourceGraphic" in2="effect1_backgroundBlur_54_1730" result="shape"/>
</filter>
</defs>
</svg>
