<svg width="333" height="347" viewBox="0 0 333 347" fill="none" xmlns="http://www.w3.org/2000/svg">
<path opacity="0.5" fill-rule="evenodd" clip-rule="evenodd" d="M0 238.88L145.402 151L332.348 261.783L188.011 347L0 238.88Z" fill="#265B6E" fill-opacity="0.7"/>
<g filter="url(#filter0_b_54_1726)">
<path fill-rule="evenodd" clip-rule="evenodd" d="M80.9125 47.0186L62 36L124 0L239 67L220.088 77.9814L239 89L220.088 99.9814L239 111L220.088 121.981L239 133L220.088 143.981L239 155L220.088 165.981L239 177L220.088 187.981L239 199L219.228 210.481L239 222L177 258L62 191L81.7721 179.519L62 168L80.9125 157.019L62 146L80.9125 135.019L62 124L80.9125 113.019L62 102L80.9125 91.0186L62 80L80.9125 69.0186L62 58L80.9125 47.0186Z" fill="#265B6E" fill-opacity="0.7"/>
</g>
<g filter="url(#filter1_b_54_1726)">
<path fill-rule="evenodd" clip-rule="evenodd" d="M170 81.8174L82 30.5479V39.7305L170 91V81.8174ZM62 36L177 103V123L62 56V36ZM177 125L62 58V78L177 145V125ZM62 80L177 147V167L62 100V80ZM177 169L62 102V122L177 189V169ZM62 124L177 191V211L62 144V124ZM177 213L62 146V166L177 233V213ZM62 168L177 235V255L62 188V168ZM62 191L177 258V294L62 227V191Z" fill="#265B6E" fill-opacity="0.8"/>
</g>
<path fill-rule="evenodd" clip-rule="evenodd" d="M76 49.6613L72 47.5V57.0887L76 59.25V49.6613ZM104 66.2168L100 64.0556V73.6443L104 75.8056V66.2168ZM128 80.6111L132 82.7724V92.3611L128 90.1998V80.6111ZM90 57.9391L86 55.7778V65.3665L90 67.5278V57.9391ZM114 72.3333L118 74.4946V84.0833L114 81.922V72.3333ZM146 91.0502L142 88.8889V98.4776L146 100.639V91.0502ZM79 51.6389L83 53.8002V63.3889L79 61.2276V51.6389ZM111 70.3557L107 68.1944V77.7832L111 79.9444V70.3557ZM135 84.75L139 86.9113V96.5L135 94.3387V84.75ZM97 62.078L93 59.9167V69.5054L97 71.6667V62.078ZM121 76.4722L125 78.6335V88.2222L121 86.0609V76.4722ZM153 95.1891L149 93.0278V102.616L153 104.778V95.1891ZM156 97.1667L160 99.328V108.917L156 106.755V97.1667ZM72 69.5L76 71.6613V81.25L72 79.0887V69.5ZM100 86.0556L104 88.2168V97.8056L100 95.6443V86.0556ZM132 104.772L128 102.611V112.2L132 114.361V104.772ZM86 77.7778L90 79.9391V89.5278L86 87.3665V77.7778ZM118 96.4946L114 94.3333V103.922L118 106.083V96.4946ZM142 110.889L146 113.05V122.639L142 120.478V110.889ZM83 75.8002L79 73.6389V83.2276L83 85.3889V75.8002ZM107 90.1944L111 92.3557V101.944L107 99.7832V90.1944ZM139 108.911L135 106.75V116.339L139 118.5V108.911ZM93 81.9167L97 84.078V93.6667L93 91.5054V81.9167ZM125 100.634L121 98.4722V108.061L125 110.222V100.634ZM149 115.028L153 117.189V126.778L149 124.616V115.028ZM160 121.328L156 119.167V128.755L160 130.917V121.328ZM76 93.6613L72 91.5V101.089L76 103.25V93.6613ZM104 110.217L100 108.056V117.644L104 119.806V110.217ZM128 124.611L132 126.772V136.361L128 134.2V124.611ZM90 101.939L86 99.7778V109.366L90 111.528V101.939ZM114 116.333L118 118.495V128.083L114 125.922V116.333ZM146 135.05L142 132.889V142.478L146 144.639V135.05ZM79 95.6389L83 97.8002V107.389L79 105.228V95.6389ZM111 114.356L107 112.194V121.783L111 123.944V114.356ZM135 128.75L139 130.911V140.5L135 138.339V128.75ZM97 106.078L93 103.917V113.505L97 115.667V106.078ZM121 120.472L125 122.634V132.222L121 130.061V120.472ZM153 139.189L149 137.028V146.616L153 148.778V139.189ZM156 141.167L160 143.328V152.917L156 150.755V141.167ZM72 113.5L76 115.661V125.25L72 123.089V113.5ZM100 130.056L104 132.217V141.806L100 139.644V130.056ZM132 148.772L128 146.611V156.2L132 158.361V148.772ZM86 121.778L90 123.939V133.528L86 131.366V121.778ZM118 140.495L114 138.333V147.922L118 150.083V140.495ZM142 154.889L146 157.05V166.639L142 164.478V154.889ZM83 119.8L79 117.639V127.228L83 129.389V119.8ZM107 134.194L111 136.356V145.944L107 143.783V134.194ZM139 152.911L135 150.75V160.339L139 162.5V152.911ZM93 125.917L97 128.078V137.667L93 135.505V125.917ZM125 144.634L121 142.472V152.061L125 154.222V144.634ZM149 159.028L153 161.189V170.778L149 168.616V159.028ZM160 165.328L156 163.167V172.755L160 174.917V165.328ZM76 137.661L72 135.5V145.089L76 147.25V137.661ZM104 154.217L100 152.056V161.644L104 163.806V154.217ZM128 168.611L132 170.772V180.361L128 178.2V168.611ZM90 145.939L86 143.778V153.366L90 155.528V145.939ZM114 160.333L118 162.495V172.083L114 169.922V160.333ZM146 179.05L142 176.889V186.478L146 188.639V179.05ZM79 139.639L83 141.8V151.389L79 149.228V139.639ZM111 158.356L107 156.194V165.783L111 167.944V158.356ZM135 172.75L139 174.911V184.5L135 182.339V172.75ZM97 150.078L93 147.917V157.505L97 159.667V150.078ZM121 164.472L125 166.634V176.222L121 174.061V164.472ZM153 183.189L149 181.028V190.616L153 192.778V183.189ZM156 185.167L160 187.328V196.917L156 194.755V185.167ZM72 157.5L76 159.661V169.25L72 167.089V157.5ZM100 174.056L104 176.217V185.806L100 183.644V174.056ZM132 192.772L128 190.611V200.2L132 202.361V192.772ZM86 165.778L90 167.939V177.528L86 175.366V165.778ZM118 184.495L114 182.333V191.922L118 194.083V184.495ZM142 198.889L146 201.05V210.639L142 208.478V198.889ZM83 163.8L79 161.639V171.228L83 173.389V163.8ZM107 178.194L111 180.356V189.944L107 187.783V178.194ZM139 196.911L135 194.75V204.339L139 206.5V196.911ZM93 169.917L97 172.078V181.667L93 179.505V169.917ZM125 188.634L121 186.472V196.061L125 198.222V188.634ZM149 203.028L153 205.189V214.778L149 212.616V203.028ZM160 209.328L156 207.167V216.755L160 218.917V209.328ZM76 181.661L72 179.5V189.089L76 191.25V181.661ZM104 198.217L100 196.056V205.644L104 207.806V198.217ZM128 212.611L132 214.772V224.361L128 222.2V212.611ZM90 189.939L86 187.778V197.366L90 199.528V189.939ZM114 204.333L118 206.495V216.083L114 213.922V204.333ZM146 223.05L142 220.889V230.478L146 232.639V223.05ZM79 183.639L83 185.8V195.389L79 193.228V183.639ZM111 202.356L107 200.194V209.783L111 211.944V202.356ZM135 216.75L139 218.911V228.5L135 226.339V216.75ZM97 194.078L93 191.917V201.505L97 203.667V194.078ZM121 208.472L125 210.634V220.222L121 218.061V208.472ZM153 227.189L149 225.028V234.616L153 236.778V227.189ZM156 229.167L160 231.328V240.917L156 238.755V229.167ZM88 214L105.75 224.25V252.25L88 242V214ZM127 237L145 247.183V275L127 264.817V237Z" fill="white"/>
<path fill-rule="evenodd" clip-rule="evenodd" d="M170 81.8174L217.443 54.2695V63.4521L170 91V81.8174ZM239 67L177 103V123L239 87V67ZM177 125L239 89V109L177 145V125ZM239 111L177 147V167L239 131V111ZM177 169L239 133V153L177 189V169ZM239 155L177 191V211L239 175V155ZM177 213L239 177V197L177 233V213ZM239 199L177 235V255L239 219V199ZM239 222L177 258V294L239 258V222Z" fill="#265B6E"/>
<path fill-rule="evenodd" clip-rule="evenodd" d="M225.672 141.605C216.145 158.106 200.667 167.006 191.101 161.483C181.535 155.96 181.504 138.106 191.031 121.605C200.558 105.104 216.035 96.2046 225.601 101.727C235.167 107.25 235.199 125.104 225.672 141.605ZM195 124.593V153.908C188.241 149.579 188.236 136.675 195 124.593ZM221.404 139.142C214.273 151.494 202.717 158.194 195.497 154.205L221.5 138.75V109.177C228.56 113.437 228.534 126.792 221.404 139.142ZM220.44 108.63L195.749 123.305C202.656 111.862 213.347 105.556 220.44 108.63ZM201.411 127.379L215.089 119.25V135.121L201.411 143.25V127.379Z" fill="white"/>
<g filter="url(#filter2_d_54_1726)">
<path d="M198.804 294.204L216.154 284.186L216.154 289.52L204.078 296.493L204.078 304.347L214.881 298.109L214.88 303.401L204.078 309.639L204.077 321.903L198.803 324.948L198.804 294.204ZM221.904 287.082C221.104 287.544 220.401 287.6 219.795 287.25C219.213 286.858 218.922 286.186 218.922 285.234C218.922 284.254 219.213 283.246 219.795 282.21C220.377 281.174 221.08 280.418 221.905 279.942C222.729 279.466 223.444 279.417 224.051 279.795C224.657 280.145 224.96 280.796 224.96 281.748C224.96 282.7 224.657 283.715 224.05 284.793C223.444 285.843 222.729 286.606 221.904 287.082ZM224.486 310.119L219.43 313.038L219.431 291.282L224.487 288.363L224.486 310.119ZM239.966 278.879C242.051 277.675 243.7 277.521 244.913 278.417C246.125 279.285 246.731 281.231 246.731 284.255L246.731 297.275L241.675 300.194L241.675 289.064C241.675 285.088 240.536 283.758 238.256 285.074C237.044 285.774 236.062 286.887 235.31 288.414C234.583 289.898 234.219 291.62 234.219 293.58L234.218 304.5L229.163 307.419L229.163 285.663L233.601 283.101C233.722 284.739 233.831 285.838 233.928 286.398C235.141 283.01 237.153 280.503 239.966 278.879ZM259.08 267.843C261.626 266.373 263.615 266.065 265.045 266.919C266.476 267.745 267.191 269.698 267.191 272.778L267.191 285.462L262.935 287.919C262.911 287.709 262.874 287.366 262.826 286.89C262.802 286.372 262.753 285.938 262.681 285.588C262.123 286.918 261.395 288.094 260.498 289.116C259.625 290.096 258.558 290.95 257.297 291.678C255.988 292.434 254.788 292.861 253.696 292.959C252.63 293.043 251.781 292.763 251.15 292.119C250.52 291.447 250.205 290.411 250.205 289.011C250.205 287.555 250.557 286.092 251.26 284.622C251.987 283.11 252.957 281.71 254.17 280.422C255.382 279.134 256.716 278.07 258.171 277.23C259.48 276.474 260.826 275.949 262.208 275.655C262.135 272.477 260.947 271.553 258.644 272.883C256.801 273.947 255.455 275.676 254.606 278.07L251.005 277.755C251.684 275.739 252.727 273.863 254.134 272.127C255.54 270.363 257.189 268.935 259.08 267.843ZM262.208 279.519C260.995 279.883 259.941 280.324 259.043 280.842C257.855 281.528 256.934 282.312 256.279 283.194C255.624 284.048 255.297 284.923 255.297 285.819C255.297 286.631 255.552 287.114 256.061 287.268C256.594 287.408 257.273 287.24 258.098 286.764C259.189 286.134 260.147 285.231 260.971 284.055C261.796 282.851 262.208 281.619 262.208 280.359L262.208 279.519ZM280.119 273.419C281.574 272.579 282.738 271.081 283.611 268.925L287.467 269.302C286.86 271.277 285.903 273.062 284.593 274.658C283.284 276.254 281.792 277.535 280.119 278.501C278.446 279.467 276.882 279.936 275.427 279.908C273.972 279.852 272.796 279.229 271.899 278.039C271.002 276.821 270.554 275.022 270.554 272.642C270.554 270.234 271.002 267.917 271.9 265.691C272.797 263.437 273.973 261.456 275.428 259.748C276.883 258.012 278.447 256.661 280.12 255.695C281.793 254.729 283.284 254.288 284.594 254.372C285.903 254.456 286.861 255.135 287.467 256.408L283.612 261.239C282.763 260.105 281.599 259.965 280.12 260.819C278.81 261.575 277.756 262.758 276.955 264.368C276.179 265.936 275.791 267.686 275.791 269.618C275.791 271.522 276.191 272.817 276.991 273.503C277.792 274.189 278.834 274.161 280.119 273.419ZM298.162 245.278C299.835 244.312 301.314 243.892 302.599 244.018C303.908 244.101 304.915 244.724 305.618 245.886C306.345 247.006 306.709 248.574 306.709 250.59C306.709 251.486 306.636 252.438 306.49 253.446L293.978 260.671C294.197 262.169 294.706 263.107 295.506 263.485C296.306 263.835 297.3 263.667 298.488 262.981C299.337 262.491 300.089 261.847 300.743 261.049C301.422 260.209 301.944 259.25 302.308 258.172L306.017 258.549C305.508 260.439 304.526 262.238 303.071 263.947C301.64 265.641 300.04 266.999 298.27 268.021C296.573 269.001 294.996 269.477 293.542 269.449C292.087 269.421 290.911 268.798 290.014 267.58C289.141 266.348 288.704 264.514 288.704 262.078C288.704 259.67 289.141 257.36 290.014 255.148C290.911 252.922 292.075 250.962 293.506 249.268C294.937 247.574 296.488 246.244 298.162 245.278ZM298.016 250.108C297.022 250.682 296.173 251.536 295.47 252.67C294.767 253.804 294.294 255.099 294.051 256.555L301.544 252.229C301.447 250.941 301.071 250.136 300.416 249.814C299.786 249.45 298.986 249.548 298.016 250.108Z" fill="white"/>
</g>
<defs>
<filter id="filter0_b_54_1726" x="-73.9141" y="-135.914" width="448.828" height="529.828" filterUnits="userSpaceOnUse" color-interpolation-filters="sRGB">
<feFlood flood-opacity="0" result="BackgroundImageFix"/>
<feGaussianBlur in="BackgroundImageFix" stdDeviation="67.957"/>
<feComposite in2="SourceAlpha" operator="in" result="effect1_backgroundBlur_54_1726"/>
<feBlend mode="normal" in="SourceGraphic" in2="effect1_backgroundBlur_54_1726" result="shape"/>
</filter>
<filter id="filter1_b_54_1726" x="-73.9141" y="-105.366" width="386.828" height="535.28" filterUnits="userSpaceOnUse" color-interpolation-filters="sRGB">
<feFlood flood-opacity="0" result="BackgroundImageFix"/>
<feGaussianBlur in="BackgroundImageFix" stdDeviation="67.957"/>
<feComposite in2="SourceAlpha" operator="in" result="effect1_backgroundBlur_54_1726"/>
<feBlend mode="normal" in="SourceGraphic" in2="effect1_backgroundBlur_54_1726" result="shape"/>
</filter>
<filter id="filter2_d_54_1726" x="194.803" y="230.976" width="111.906" height="94.4755" filterUnits="userSpaceOnUse" color-interpolation-filters="sRGB">
<feFlood flood-opacity="0" result="BackgroundImageFix"/>
<feColorMatrix in="SourceAlpha" type="matrix" values="0 0 0 0 0 0 0 0 0 0 0 0 0 0 0 0 0 0 127 0" result="hardAlpha"/>
<feOffset dx="-4"/>
<feComposite in2="hardAlpha" operator="out"/>
<feColorMatrix type="matrix" values="0 0 0 0 0.14902 0 0 0 0 0.356863 0 0 0 0 0.431373 0 0 0 1 0"/>
<feBlend mode="normal" in2="BackgroundImageFix" result="effect1_dropShadow_54_1726"/>
<feBlend mode="normal" in="SourceGraphic" in2="effect1_dropShadow_54_1726" result="shape"/>
</filter>
</defs>
</svg>
