<svg width="341" height="259" viewBox="0 0 341 259" fill="none" xmlns="http://www.w3.org/2000/svg">
<path opacity="0.5" fill-rule="evenodd" clip-rule="evenodd" d="M0 150.88L145.402 63L332.348 173.783L188.011 259L0 150.88Z" fill="#265B6E" fill-opacity="0.7"/>
<path fill-rule="evenodd" clip-rule="evenodd" d="M166 23L80 73.1573V167L110 149.503V155L159 124.463V120.925L166 116.843V23ZM251 72L165 122V216L251 165.843V72Z" fill="#265B6E"/>
<g filter="url(#filter0_b_54_1689)">
<path fill-rule="evenodd" clip-rule="evenodd" d="M173.992 122L62 56L160.602 0L273 65.0667L173.992 122ZM165 122L166.25 121.25L76.75 69.5L75 70L165 122Z" fill="#265B6E" fill-opacity="0.7"/>
</g>
<g filter="url(#filter1_b_54_1689)">
<path fill-rule="evenodd" clip-rule="evenodd" d="M174 121.116L62 56V60.8837L174 126V121.116ZM75 70L165 122V216L81.9234 168.082L106.091 181.933V107.311L79.9091 92.3056V166.92L75 164.089V70ZM160.091 138.133L111 110.15V154.356L160.091 182.339V138.133Z" fill="#265B6E" fill-opacity="0.8"/>
</g>
<path fill-rule="evenodd" clip-rule="evenodd" d="M273 65L174 121.184L174 126L273 69.8158V65Z" fill="#265B6E"/>
<g filter="url(#filter2_d_54_1689)">
<path d="M220.902 225.074L216.107 227.81L211.175 222.243L211.009 222.339L208.071 224.035L208.071 232.483L204.052 234.803L204.053 211.379L211.064 207.331C212.653 206.413 214.048 205.917 215.249 205.842C216.45 205.768 217.374 206.12 218.02 206.898C218.667 207.656 218.99 208.77 218.99 210.242C218.99 211.736 218.657 213.24 217.992 214.754C217.327 216.269 216.394 217.672 215.193 218.962L220.902 225.074ZM208.071 212.995L208.071 220.099L210.593 218.643C211.775 217.96 212.755 217.107 213.531 216.083C214.325 215.027 214.722 213.901 214.722 212.707C214.722 211.491 214.334 210.819 213.558 210.691C212.782 210.563 211.794 210.845 210.593 211.539L208.071 212.995ZM228.741 203.556C230.015 202.82 231.142 202.5 232.121 202.596C233.119 202.66 233.886 203.135 234.421 204.02C234.976 204.874 235.253 206.068 235.253 207.604C235.253 208.287 235.197 209.012 235.086 209.78L225.553 215.285C225.72 216.426 226.108 217.141 226.717 217.429C227.327 217.695 228.084 217.567 228.99 217.044C229.636 216.671 230.209 216.18 230.708 215.572C231.225 214.932 231.622 214.202 231.899 213.38L234.726 213.668C234.338 215.108 233.59 216.479 232.481 217.78C231.391 219.071 230.172 220.106 228.823 220.884C227.53 221.631 226.329 221.994 225.221 221.973C224.112 221.951 223.216 221.477 222.533 220.549C221.868 219.61 221.535 218.213 221.535 216.357C221.535 214.522 221.868 212.762 222.533 211.077C223.217 209.381 224.103 207.887 225.193 206.597C226.283 205.306 227.466 204.292 228.741 203.556ZM228.63 207.236C227.872 207.674 227.226 208.324 226.69 209.189C226.154 210.053 225.794 211.039 225.609 212.149L231.318 208.852C231.244 207.871 230.957 207.258 230.459 207.012C229.978 206.735 229.369 206.81 228.63 207.236ZM247.768 208.602C246.826 210.042 245.514 211.247 243.833 212.218C242.281 213.114 241.025 213.37 240.064 212.986C239.122 212.57 238.651 211.135 238.651 208.682L238.651 201.994L236.102 203.466L236.102 199.722L238.652 198.25L238.652 193.162L242.504 190.938L242.504 196.026L246.827 193.53L246.827 197.274L242.504 199.77L242.503 205.722C242.503 206.831 242.67 207.578 243.002 207.962C243.335 208.346 243.87 208.324 244.609 207.898C245.256 207.524 245.866 206.948 246.438 206.17L247.768 208.602ZM255.58 188.06C257.52 186.94 259.035 186.705 260.124 187.356C261.214 187.985 261.759 189.473 261.759 191.82L261.759 201.484L258.517 203.356C258.498 203.196 258.471 202.934 258.434 202.572C258.415 202.177 258.378 201.846 258.323 201.58C257.898 202.593 257.344 203.489 256.66 204.268C255.995 205.014 255.182 205.665 254.221 206.22C253.224 206.796 252.309 207.121 251.478 207.196C250.665 207.26 250.018 207.047 249.538 206.556C249.058 206.044 248.818 205.255 248.818 204.188C248.818 203.079 249.085 201.964 249.621 200.844C250.176 199.692 250.915 198.625 251.838 197.644C252.762 196.662 253.778 195.852 254.887 195.212C255.884 194.636 256.91 194.236 257.963 194.012C257.907 191.59 257.002 190.886 255.247 191.9C253.843 192.71 252.818 194.028 252.171 195.852L249.427 195.612C249.945 194.076 250.739 192.647 251.811 191.324C252.882 189.98 254.139 188.892 255.58 188.06ZM257.963 196.956C257.039 197.233 256.235 197.569 255.552 197.964C254.646 198.486 253.944 199.084 253.446 199.756C252.947 200.406 252.697 201.073 252.697 201.756C252.697 202.374 252.891 202.742 253.279 202.86C253.686 202.966 254.203 202.838 254.831 202.476C255.662 201.996 256.392 201.308 257.02 200.412C257.649 199.494 257.963 198.556 257.963 197.596L257.963 196.956ZM267.038 179.748C266.428 180.1 265.892 180.143 265.43 179.876C264.987 179.577 264.765 179.065 264.765 178.34C264.765 177.593 264.987 176.825 265.43 176.036C265.874 175.247 266.41 174.671 267.038 174.308C267.666 173.945 268.211 173.908 268.673 174.196C269.135 174.463 269.365 174.959 269.365 175.684C269.365 176.409 269.134 177.183 268.673 178.004C268.211 178.804 267.666 179.385 267.038 179.748ZM269.005 197.3L265.152 199.524L265.153 182.948L269.005 180.724L269.005 197.3ZM276.42 193.019L272.568 195.243L272.568 170.891L276.42 168.667L276.42 193.019ZM281.868 171.185C281.258 171.537 280.723 171.58 280.261 171.313C279.817 171.015 279.596 170.503 279.596 169.777C279.596 169.031 279.817 168.263 280.261 167.473C280.704 166.684 281.24 166.108 281.868 165.745C282.496 165.382 283.041 165.345 283.503 165.633C283.965 165.9 284.196 166.396 284.196 167.121C284.196 167.846 283.965 168.62 283.503 169.441C283.041 170.241 282.496 170.822 281.868 171.185ZM283.835 188.737L279.983 190.961L279.983 174.385L283.835 172.161L283.835 188.737ZM295.629 164.935C297.218 164.018 298.474 163.901 299.398 164.583C300.322 165.245 300.784 166.727 300.783 169.031L300.783 178.951L296.931 181.175L296.931 172.695C296.932 169.666 296.063 168.653 294.327 169.655C293.403 170.189 292.655 171.037 292.082 172.2C291.528 173.33 291.25 174.642 291.25 176.136L291.25 184.456L287.398 186.68L287.399 170.104L290.78 168.152C290.872 169.4 290.955 170.237 291.029 170.664C291.953 168.082 293.486 166.173 295.629 164.935ZM317.952 152.462L317.951 167.342C317.951 170.692 317.221 173.534 315.762 175.871C314.302 178.207 312.492 179.999 310.33 181.247C308.76 182.153 307.374 182.569 306.173 182.495C304.991 182.41 304.15 181.828 303.652 180.751L306.617 177.087C307.337 178.271 308.575 178.356 310.33 177.343C311.697 176.553 312.658 175.529 313.212 174.271C313.785 173.023 314.081 171.359 314.099 169.279C313.139 171.412 311.753 173.001 309.942 174.047C308.779 174.719 307.689 175.007 306.672 174.911C305.656 174.794 304.834 174.266 304.206 173.327C303.597 172.356 303.292 170.986 303.292 169.215C303.292 167.423 303.597 165.7 304.206 164.047C304.835 162.362 305.657 160.884 306.673 159.615C307.689 158.324 308.779 157.343 309.943 156.671C310.885 156.127 311.735 155.871 312.493 155.903C313.25 155.935 313.869 156.292 314.349 156.975C314.479 156.025 314.552 155.172 314.571 154.415L317.952 152.462ZM310.663 169.823C311.624 169.268 312.437 168.393 313.102 167.199C313.767 166.004 314.1 164.596 314.1 162.975C314.1 161.375 313.767 160.383 313.102 159.999C312.437 159.593 311.624 159.668 310.663 160.223C309.647 160.809 308.825 161.7 308.197 162.895C307.587 164.079 307.282 165.417 307.282 166.911C307.282 168.404 307.587 169.412 308.197 169.935C308.825 170.447 309.647 170.409 310.663 169.823Z" fill="white"/>
</g>
<defs>
<filter id="filter0_b_54_1689" x="-73.9141" y="-135.914" width="482.828" height="393.828" filterUnits="userSpaceOnUse" color-interpolation-filters="sRGB">
<feFlood flood-opacity="0" result="BackgroundImageFix"/>
<feGaussianBlur in="BackgroundImageFix" stdDeviation="67.957"/>
<feComposite in2="SourceAlpha" operator="in" result="effect1_backgroundBlur_54_1689"/>
<feBlend mode="normal" in="SourceGraphic" in2="effect1_backgroundBlur_54_1689" result="shape"/>
</filter>
<filter id="filter1_b_54_1689" x="-73.9141" y="-79.9141" width="383.828" height="431.828" filterUnits="userSpaceOnUse" color-interpolation-filters="sRGB">
<feFlood flood-opacity="0" result="BackgroundImageFix"/>
<feGaussianBlur in="BackgroundImageFix" stdDeviation="67.957"/>
<feComposite in2="SourceAlpha" operator="in" result="effect1_backgroundBlur_54_1689"/>
<feBlend mode="normal" in="SourceGraphic" in2="effect1_backgroundBlur_54_1689" result="shape"/>
</filter>
<filter id="filter2_d_54_1689" x="200.052" y="144.687" width="117.9" height="97.9243" filterUnits="userSpaceOnUse" color-interpolation-filters="sRGB">
<feFlood flood-opacity="0" result="BackgroundImageFix"/>
<feColorMatrix in="SourceAlpha" type="matrix" values="0 0 0 0 0 0 0 0 0 0 0 0 0 0 0 0 0 0 127 0" result="hardAlpha"/>
<feOffset dx="-4"/>
<feComposite in2="hardAlpha" operator="out"/>
<feColorMatrix type="matrix" values="0 0 0 0 0.14902 0 0 0 0 0.356863 0 0 0 0 0.431373 0 0 0 1 0"/>
<feBlend mode="normal" in2="BackgroundImageFix" result="effect1_dropShadow_54_1689"/>
<feBlend mode="normal" in="SourceGraphic" in2="effect1_dropShadow_54_1689" result="shape"/>
</filter>
</defs>
</svg>
