<svg width="132" height="87" viewBox="0 0 132 87" fill="none" xmlns="http://www.w3.org/2000/svg">
<path fill-rule="evenodd" clip-rule="evenodd" d="M33.36 12C33.36 12 4.61 14.5 0.36 34C-2.64 53.25 19.36 57.75 19.36 57.75C19.36 57.75 21.11 71 34.61 72.25C34.61 76 26.36 87 26.36 87C26.36 87 42.11 81.5 54.61 72.25C59.86 73.5 66.11 76.75 82.11 76C100.61 73.5 104.61 64 104.61 64C104.61 64 131.36 61.75 131.36 37.75C131.36 13.75 98.61 13.5 98.61 13.5C98.61 13.5 92.36 0 65.86 0C40.36 0 33.36 12 33.36 12Z" fill="#1E3C89" fill-opacity="0.7"/>
<path d="M35.0595 47H32.4495V33.824H35.0595V47ZM42.9408 37.442C43.9728 37.442 44.7888 37.784 45.3888 38.468C45.9888 39.14 46.2888 40.124 46.2888 41.42V47H43.7868V42.23C43.7868 40.526 43.2228 39.674 42.0948 39.674C41.4948 39.674 41.0088 39.908 40.6368 40.376C40.2768 40.832 40.0968 41.48 40.0968 42.32V47H37.5948V37.676H39.7908C39.8508 38.408 39.9048 38.906 39.9528 39.17C40.5528 38.018 41.5488 37.442 42.9408 37.442ZM54.8854 46.46C54.2734 46.964 53.4214 47.216 52.3294 47.216C51.3214 47.216 50.5054 46.952 49.8814 46.424C49.2694 45.884 48.9634 44.924 48.9634 43.544V39.782H47.3074V37.676H48.9634V34.814H51.4654V37.676H54.2734V39.782H51.4654V43.13C51.4654 43.754 51.5734 44.228 51.7894 44.552C52.0054 44.876 52.3534 45.038 52.8334 45.038C53.2534 45.038 53.6494 44.912 54.0214 44.66L54.8854 46.46ZM59.9985 37.442C60.8265 37.442 61.5585 37.628 62.1945 38C62.8425 38.36 63.3405 38.876 63.6885 39.548C64.0485 40.208 64.2285 40.97 64.2285 41.834C64.2285 42.218 64.1925 42.608 64.1205 43.004H57.9285C58.0365 43.7 58.2885 44.228 58.6845 44.588C59.0805 44.936 59.5725 45.11 60.1605 45.11C60.5805 45.11 60.9525 45.02 61.2765 44.84C61.6125 44.648 61.8705 44.366 62.0505 43.994L63.8865 45.074C63.6345 45.758 63.1485 46.286 62.4285 46.658C61.7205 47.03 60.9285 47.216 60.0525 47.216C59.2125 47.216 58.4325 47.03 57.7125 46.658C56.9925 46.286 56.4105 45.728 55.9665 44.984C55.5345 44.24 55.3185 43.346 55.3185 42.302C55.3185 41.27 55.5345 40.388 55.9665 39.656C56.4105 38.924 56.9865 38.372 57.6945 38C58.4025 37.628 59.1705 37.442 59.9985 37.442ZM59.9265 39.476C59.4345 39.476 59.0145 39.632 58.6665 39.944C58.3185 40.256 58.0845 40.694 57.9645 41.258H61.6725C61.6245 40.682 61.4385 40.244 61.1145 39.944C60.8025 39.632 60.4065 39.476 59.9265 39.476ZM70.828 37.442C71.188 37.442 71.524 37.496 71.836 37.604C72.148 37.712 72.388 37.85 72.556 38.018L71.584 39.944C71.272 39.728 70.918 39.62 70.522 39.62C69.874 39.62 69.352 39.89 68.956 40.43C68.572 40.97 68.38 41.714 68.38 42.662V47H65.878V37.676H68.074C68.134 38.396 68.188 38.888 68.236 39.152C68.512 38.588 68.872 38.162 69.316 37.874C69.76 37.586 70.264 37.442 70.828 37.442ZM78.9584 37.442C79.9904 37.442 80.8064 37.784 81.4064 38.468C82.0064 39.14 82.3064 40.124 82.3064 41.42V47H79.8044V42.23C79.8044 40.526 79.2404 39.674 78.1124 39.674C77.5124 39.674 77.0264 39.908 76.6544 40.376C76.2944 40.832 76.1144 41.48 76.1144 42.32V47H73.6124V37.676H75.8084C75.8684 38.408 75.9224 38.906 75.9704 39.17C76.5704 38.018 77.5664 37.442 78.9584 37.442ZM88.6157 37.442C89.4437 37.442 90.1757 37.628 90.8117 38C91.4597 38.36 91.9577 38.876 92.3057 39.548C92.6657 40.208 92.8457 40.97 92.8457 41.834C92.8457 42.218 92.8097 42.608 92.7377 43.004H86.5457C86.6537 43.7 86.9057 44.228 87.3017 44.588C87.6977 44.936 88.1897 45.11 88.7777 45.11C89.1977 45.11 89.5697 45.02 89.8937 44.84C90.2297 44.648 90.4877 44.366 90.6677 43.994L92.5037 45.074C92.2517 45.758 91.7657 46.286 91.0457 46.658C90.3377 47.03 89.5457 47.216 88.6697 47.216C87.8297 47.216 87.0497 47.03 86.3297 46.658C85.6097 46.286 85.0277 45.728 84.5837 44.984C84.1517 44.24 83.9357 43.346 83.9357 42.302C83.9357 41.27 84.1517 40.388 84.5837 39.656C85.0277 38.924 85.6037 38.372 86.3117 38C87.0197 37.628 87.7877 37.442 88.6157 37.442ZM88.5437 39.476C88.0517 39.476 87.6317 39.632 87.2837 39.944C86.9357 40.256 86.7017 40.694 86.5817 41.258H90.2897C90.2417 40.682 90.0557 40.244 89.7317 39.944C89.4197 39.632 89.0237 39.476 88.5437 39.476ZM100.975 46.46C100.363 46.964 99.5112 47.216 98.4192 47.216C97.4112 47.216 96.5952 46.952 95.9712 46.424C95.3592 45.884 95.0532 44.924 95.0532 43.544V39.782H93.3972V37.676H95.0532V34.814H97.5552V37.676H100.363V39.782H97.5552V43.13C97.5552 43.754 97.6632 44.228 97.8792 44.552C98.0952 44.876 98.4432 45.038 98.9232 45.038C99.3432 45.038 99.7392 44.912 100.111 44.66L100.975 46.46Z" fill="white"/>
</svg>
