<svg width="132" height="87" viewBox="0 0 132 87" fill="none" xmlns="http://www.w3.org/2000/svg">
<path fill-rule="evenodd" clip-rule="evenodd" d="M33.36 12C33.36 12 4.61 14.5 0.36 34C-2.64 53.25 19.36 57.75 19.36 57.75C19.36 57.75 21.11 71 34.61 72.25C34.61 76 26.36 87 26.36 87C26.36 87 42.11 81.5 54.61 72.25C59.86 73.5 66.11 76.75 82.11 76C100.61 73.5 104.61 64 104.61 64C104.61 64 131.36 61.75 131.36 37.75C131.36 13.75 98.61 13.5 98.61 13.5C98.61 13.5 92.36 0 65.86 0C40.36 0 33.36 12 33.36 12Z" fill="#1E3C89" fill-opacity="0.7"/>
<path d="M52.0849 47H49.4749V33.824H52.0849V47ZM59.3722 33.824C60.4162 33.824 61.3282 34.004 62.1082 34.364C62.8882 34.724 63.4882 35.234 63.9082 35.894C64.3402 36.542 64.5562 37.304 64.5562 38.18C64.5562 39.044 64.3402 39.806 63.9082 40.466C63.4882 41.114 62.8882 41.618 62.1082 41.978C61.3282 42.326 60.4162 42.5 59.3722 42.5H57.4462V47H54.8362V33.824H59.3722ZM59.0842 40.286C59.9002 40.286 60.5542 40.112 61.0462 39.764C61.5382 39.404 61.7842 38.876 61.7842 38.18C61.7842 37.484 61.5382 36.956 61.0462 36.596C60.5542 36.224 59.9002 36.038 59.0842 36.038H57.4462V40.286H59.0842ZM71.0311 34.472L72.9571 34.526C72.7951 39.98 72.2371 44.21 70.0051 46.964C69.6991 46.64 68.8171 45.974 68.3671 45.704C70.5271 43.364 70.9771 39.368 71.0311 34.472ZM75.6211 34.472L77.5651 34.526C77.4211 40.07 76.8631 44.3 74.5411 47.036C74.2531 46.712 73.3711 46.028 72.9031 45.758C75.1351 43.436 75.5671 39.44 75.6211 34.472ZM68.4031 38.63L69.4471 37.262C71.3191 38.594 73.2811 40.484 74.2351 41.834L73.0651 43.454C72.1651 42.05 70.1851 40.016 68.4031 38.63ZM73.1011 38.414L74.1811 37.028C76.1611 38.468 78.2491 40.466 79.2571 41.906L78.0691 43.544C77.0971 42.068 74.9911 39.89 73.1011 38.414ZM66.2791 32.708H80.6431V34.76H68.3491V48.584H66.2791V32.708ZM79.5271 32.708H81.6331V46.136C81.6331 47.234 81.3991 47.846 80.7331 48.188C80.0311 48.53 79.0411 48.584 77.5471 48.584C77.4571 48.008 77.1331 47.036 76.8451 46.478C77.7631 46.532 78.8071 46.514 79.1131 46.514C79.4191 46.514 79.5271 46.406 79.5271 46.118V32.708Z" fill="white"/>
</svg>
