<svg width="131" height="87" viewBox="0 0 131 87" fill="none" xmlns="http://www.w3.org/2000/svg">
<path fill-rule="evenodd" clip-rule="evenodd" d="M33.2686 12C33.2686 12 4.59737 14.5 0.359013 34C-2.63276 53.25 19.3069 57.75 19.3069 57.75C19.3069 57.75 21.0521 71 34.5151 72.25C34.5151 76 26.2878 87 26.2878 87C26.2878 87 41.9946 81.5 54.4603 72.25C59.696 73.5 65.9288 76.75 81.885 76C100.334 73.5 104.323 64 104.323 64C104.323 64 131 61.75 131 37.75C131 13.75 98.3398 13.5 98.3398 13.5C98.3398 13.5 92.1069 0 65.6795 0C40.2494 0 33.2686 12 33.2686 12Z" fill="#171717" fill-opacity="0.7"/>
<path d="M42.8809 33.824C44.1649 33.824 45.3229 34.082 46.3549 34.598C47.3989 35.114 48.2209 35.87 48.8209 36.866C49.4209 37.85 49.7209 39.026 49.7209 40.394C49.7209 41.762 49.4209 42.944 48.8209 43.94C48.2209 44.936 47.4049 45.698 46.3729 46.226C45.3409 46.742 44.1769 47 42.8809 47H38.4889V33.824H42.8809ZM42.5749 44.768C43.9909 44.768 45.0769 44.39 45.8329 43.634C46.5889 42.878 46.9669 41.798 46.9669 40.394C46.9669 39.014 46.5829 37.946 45.8149 37.19C45.0589 36.422 43.9789 36.038 42.5749 36.038H41.0989V44.768H42.5749ZM56.2579 33.824C57.5419 33.824 58.6999 34.082 59.7319 34.598C60.7759 35.114 61.5979 35.87 62.1979 36.866C62.7979 37.85 63.0979 39.026 63.0979 40.394C63.0979 41.762 62.7979 42.944 62.1979 43.94C61.5979 44.936 60.7819 45.698 59.7499 46.226C58.7179 46.742 57.5539 47 56.2579 47H51.8659V33.824H56.2579ZM55.9519 44.768C57.3679 44.768 58.4539 44.39 59.2099 43.634C59.9659 42.878 60.3439 41.798 60.3439 40.394C60.3439 39.014 59.9599 37.946 59.1919 37.19C58.4359 36.422 57.3559 36.038 55.9519 36.038H54.4759V44.768H55.9519ZM67.3488 33.824L73.7388 42.536V33.824H76.1688V47H74.0448L67.6368 38.27V47H65.2428V33.824H67.3488ZM83.6526 34.472L85.5786 34.526C85.4166 39.98 84.8586 44.21 82.6266 46.964C82.3206 46.64 81.4386 45.974 80.9886 45.704C83.1486 43.364 83.5986 39.368 83.6526 34.472ZM88.2426 34.472L90.1866 34.526C90.0426 40.07 89.4846 44.3 87.1626 47.036C86.8746 46.712 85.9926 46.028 85.5246 45.758C87.7566 43.436 88.1886 39.44 88.2426 34.472ZM81.0246 38.63L82.0686 37.262C83.9406 38.594 85.9026 40.484 86.8566 41.834L85.6866 43.454C84.7866 42.05 82.8066 40.016 81.0246 38.63ZM85.7226 38.414L86.8026 37.028C88.7826 38.468 90.8706 40.466 91.8786 41.906L90.6906 43.544C89.7186 42.068 87.6126 39.89 85.7226 38.414ZM78.9006 32.708H93.2646V34.76H80.9706V48.584H78.9006V32.708ZM92.1486 32.708H94.2546V46.136C94.2546 47.234 94.0206 47.846 93.3546 48.188C92.6526 48.53 91.6626 48.584 90.1686 48.584C90.0786 48.008 89.7546 47.036 89.4666 46.478C90.3846 46.532 91.4286 46.514 91.7346 46.514C92.0406 46.514 92.1486 46.406 92.1486 46.118V32.708Z" fill="white"/>
</svg>
