<svg width="131" height="87" viewBox="0 0 131 87" fill="none" xmlns="http://www.w3.org/2000/svg">
<path fill-rule="evenodd" clip-rule="evenodd" d="M33.2686 12C33.2686 12 4.59737 14.5 0.359013 34C-2.63276 53.25 19.3069 57.75 19.3069 57.75C19.3069 57.75 21.0521 71 34.5151 72.25C34.5151 76 26.2878 87 26.2878 87C26.2878 87 41.9946 81.5 54.4603 72.25C59.696 73.5 65.9288 76.75 81.885 76C100.334 73.5 104.323 64 104.323 64C104.323 64 131 61.75 131 37.75C131 13.75 98.3398 13.5 98.3398 13.5C98.3398 13.5 92.1069 0 65.6795 0C40.2494 0 33.2686 12 33.2686 12Z" fill="#171717" fill-opacity="0.7"/>
<path d="M34.8786 47H32.2686V33.824H34.8786V47ZM42.7599 37.442C43.7919 37.442 44.6079 37.784 45.2079 38.468C45.8079 39.14 46.1079 40.124 46.1079 41.42V47H43.6059V42.23C43.6059 40.526 43.0419 39.674 41.9139 39.674C41.3139 39.674 40.8279 39.908 40.4559 40.376C40.0959 40.832 39.9159 41.48 39.9159 42.32V47H37.4139V37.676H39.6099C39.6699 38.408 39.7239 38.906 39.7719 39.17C40.3719 38.018 41.3679 37.442 42.7599 37.442ZM54.7045 46.46C54.0925 46.964 53.2405 47.216 52.1485 47.216C51.1405 47.216 50.3245 46.952 49.7005 46.424C49.0885 45.884 48.7825 44.924 48.7825 43.544V39.782H47.1265V37.676H48.7825V34.814H51.2845V37.676H54.0925V39.782H51.2845V43.13C51.2845 43.754 51.3925 44.228 51.6085 44.552C51.8245 44.876 52.1725 45.038 52.6525 45.038C53.0725 45.038 53.4685 44.912 53.8405 44.66L54.7045 46.46ZM59.8176 37.442C60.6456 37.442 61.3776 37.628 62.0136 38C62.6616 38.36 63.1596 38.876 63.5076 39.548C63.8676 40.208 64.0476 40.97 64.0476 41.834C64.0476 42.218 64.0116 42.608 63.9396 43.004H57.7476C57.8556 43.7 58.1076 44.228 58.5036 44.588C58.8996 44.936 59.3916 45.11 59.9796 45.11C60.3996 45.11 60.7716 45.02 61.0956 44.84C61.4316 44.648 61.6896 44.366 61.8696 43.994L63.7056 45.074C63.4536 45.758 62.9676 46.286 62.2476 46.658C61.5396 47.03 60.7476 47.216 59.8716 47.216C59.0316 47.216 58.2516 47.03 57.5316 46.658C56.8116 46.286 56.2296 45.728 55.7856 44.984C55.3536 44.24 55.1376 43.346 55.1376 42.302C55.1376 41.27 55.3536 40.388 55.7856 39.656C56.2296 38.924 56.8056 38.372 57.5136 38C58.2216 37.628 58.9896 37.442 59.8176 37.442ZM59.7456 39.476C59.2536 39.476 58.8336 39.632 58.4856 39.944C58.1376 40.256 57.9036 40.694 57.7836 41.258H61.4916C61.4436 40.682 61.2576 40.244 60.9336 39.944C60.6216 39.632 60.2256 39.476 59.7456 39.476ZM70.6471 37.442C71.0071 37.442 71.3431 37.496 71.6551 37.604C71.9671 37.712 72.2071 37.85 72.3751 38.018L71.4031 39.944C71.0911 39.728 70.7371 39.62 70.3411 39.62C69.6931 39.62 69.1711 39.89 68.7751 40.43C68.3911 40.97 68.1991 41.714 68.1991 42.662V47H65.6971V37.676H67.8931C67.9531 38.396 68.0071 38.888 68.0551 39.152C68.3311 38.588 68.6911 38.162 69.1351 37.874C69.5791 37.586 70.0831 37.442 70.6471 37.442ZM78.7775 37.442C79.8095 37.442 80.6255 37.784 81.2255 38.468C81.8255 39.14 82.1255 40.124 82.1255 41.42V47H79.6235V42.23C79.6235 40.526 79.0595 39.674 77.9315 39.674C77.3315 39.674 76.8455 39.908 76.4735 40.376C76.1135 40.832 75.9335 41.48 75.9335 42.32V47H73.4315V37.676H75.6275C75.6875 38.408 75.7415 38.906 75.7895 39.17C76.3895 38.018 77.3855 37.442 78.7775 37.442ZM88.4348 37.442C89.2628 37.442 89.9948 37.628 90.6308 38C91.2788 38.36 91.7768 38.876 92.1248 39.548C92.4848 40.208 92.6648 40.97 92.6648 41.834C92.6648 42.218 92.6288 42.608 92.5568 43.004H86.3648C86.4728 43.7 86.7248 44.228 87.1208 44.588C87.5168 44.936 88.0088 45.11 88.5968 45.11C89.0168 45.11 89.3888 45.02 89.7128 44.84C90.0488 44.648 90.3068 44.366 90.4868 43.994L92.3228 45.074C92.0708 45.758 91.5848 46.286 90.8648 46.658C90.1568 47.03 89.3648 47.216 88.4888 47.216C87.6488 47.216 86.8688 47.03 86.1488 46.658C85.4288 46.286 84.8468 45.728 84.4028 44.984C83.9708 44.24 83.7548 43.346 83.7548 42.302C83.7548 41.27 83.9708 40.388 84.4028 39.656C84.8468 38.924 85.4228 38.372 86.1308 38C86.8388 37.628 87.6068 37.442 88.4348 37.442ZM88.3628 39.476C87.8708 39.476 87.4508 39.632 87.1028 39.944C86.7548 40.256 86.5208 40.694 86.4008 41.258H90.1088C90.0608 40.682 89.8748 40.244 89.5508 39.944C89.2388 39.632 88.8428 39.476 88.3628 39.476ZM100.794 46.46C100.182 46.964 99.3303 47.216 98.2383 47.216C97.2303 47.216 96.4143 46.952 95.7903 46.424C95.1783 45.884 94.8723 44.924 94.8723 43.544V39.782H93.2163V37.676H94.8723V34.814H97.3743V37.676H100.182V39.782H97.3743V43.13C97.3743 43.754 97.4823 44.228 97.6983 44.552C97.9143 44.876 98.2623 45.038 98.7423 45.038C99.1623 45.038 99.5583 44.912 99.9303 44.66L100.794 46.46Z" fill="white"/>
</svg>
