<svg width="131" height="87" viewBox="0 0 131 87" fill="none" xmlns="http://www.w3.org/2000/svg">
<path fill-rule="evenodd" clip-rule="evenodd" d="M33.2686 12C33.2686 12 4.59737 14.5 0.359013 34C-2.63276 53.25 19.3069 57.75 19.3069 57.75C19.3069 57.75 21.0521 71 34.5151 72.25C34.5151 76 26.2878 87 26.2878 87C26.2878 87 41.9946 81.5 54.4603 72.25C59.696 73.5 65.9288 76.75 81.885 76C100.334 73.5 104.323 64 104.323 64C104.323 64 131 61.75 131 37.75C131 13.75 98.3398 13.5 98.3398 13.5C98.3398 13.5 92.1069 0 65.6795 0C40.2494 0 33.2686 12 33.2686 12Z" fill="#171717" fill-opacity="0.7"/>
<path d="M40.8757 33.824C41.9197 33.824 42.8317 34.004 43.6117 34.364C44.3917 34.724 44.9917 35.234 45.4117 35.894C45.8437 36.542 46.0597 37.304 46.0597 38.18C46.0597 39.044 45.8437 39.806 45.4117 40.466C44.9917 41.114 44.3917 41.618 43.6117 41.978C42.8317 42.326 41.9197 42.5 40.8757 42.5H38.9497V47H36.3397V33.824H40.8757ZM40.5877 40.286C41.4037 40.286 42.0577 40.112 42.5497 39.764C43.0417 39.404 43.2877 38.876 43.2877 38.18C43.2877 37.484 43.0417 36.956 42.5497 36.596C42.0577 36.224 41.4037 36.038 40.5877 36.038H38.9497V40.286H40.5877ZM56.6926 43.184C56.6926 44.084 56.4586 44.84 55.9906 45.452C55.5346 46.052 54.9346 46.496 54.1906 46.784C53.4586 47.072 52.6726 47.216 51.8326 47.216C50.6086 47.216 49.5046 46.934 48.5206 46.37C47.5366 45.794 46.8826 44.984 46.5586 43.94L48.6826 42.734C48.9706 43.406 49.3906 43.928 49.9426 44.3C50.4946 44.672 51.1546 44.858 51.9226 44.858C52.5466 44.858 53.0386 44.732 53.3986 44.48C53.7706 44.228 53.9566 43.862 53.9566 43.382C53.9566 42.998 53.8306 42.68 53.5786 42.428C53.3386 42.176 53.0326 41.978 52.6606 41.834C52.3006 41.69 51.8026 41.522 51.1666 41.33C50.3146 41.078 49.6186 40.832 49.0786 40.592C48.5386 40.34 48.0766 39.968 47.6926 39.476C47.3086 38.984 47.1166 38.336 47.1166 37.532C47.1166 36.68 47.3386 35.96 47.7826 35.372C48.2386 34.772 48.8326 34.328 49.5646 34.04C50.3086 33.74 51.1066 33.59 51.9586 33.59C53.1226 33.59 54.1186 33.854 54.9466 34.382C55.7746 34.91 56.3086 35.624 56.5486 36.524L54.4246 37.73C54.2086 37.166 53.8846 36.728 53.4526 36.416C53.0206 36.092 52.4806 35.93 51.8326 35.93C51.2446 35.93 50.7646 36.068 50.3926 36.344C50.0326 36.608 49.8526 36.962 49.8526 37.406C49.8526 37.742 49.9666 38.024 50.1946 38.252C50.4226 38.468 50.7106 38.648 51.0586 38.792C51.4186 38.924 51.8986 39.08 52.4986 39.26C53.3626 39.512 54.0766 39.77 54.6406 40.034C55.2046 40.286 55.6846 40.67 56.0806 41.186C56.4886 41.69 56.6926 42.356 56.6926 43.184ZM57.211 33.824H67.831V36.146H63.835V47H61.207V36.146H57.211V33.824ZM71.4925 33.824L77.8825 42.536V33.824H80.3125V47H78.1886L71.7805 38.27V47H69.3865V33.824H71.4925ZM87.7963 34.472L89.7223 34.526C89.5603 39.98 89.0023 44.21 86.7703 46.964C86.4643 46.64 85.5823 45.974 85.1323 45.704C87.2923 43.364 87.7423 39.368 87.7963 34.472ZM92.3863 34.472L94.3303 34.526C94.1863 40.07 93.6283 44.3 91.3063 47.036C91.0183 46.712 90.1363 46.028 89.6683 45.758C91.9003 43.436 92.3323 39.44 92.3863 34.472ZM85.1683 38.63L86.2123 37.262C88.0843 38.594 90.0463 40.484 91.0003 41.834L89.8303 43.454C88.9303 42.05 86.9503 40.016 85.1683 38.63ZM89.8663 38.414L90.9463 37.028C92.9263 38.468 95.0143 40.466 96.0223 41.906L94.8343 43.544C93.8623 42.068 91.7563 39.89 89.8663 38.414ZM83.0443 32.708H97.4083V34.76H85.1143V48.584H83.0443V32.708ZM96.2923 32.708H98.3983V46.136C98.3983 47.234 98.1643 47.846 97.4983 48.188C96.7963 48.53 95.8063 48.584 94.3123 48.584C94.2223 48.008 93.8983 47.036 93.6103 46.478C94.5283 46.532 95.5723 46.514 95.8783 46.514C96.1843 46.514 96.2923 46.406 96.2923 46.118V32.708Z" fill="white"/>
</svg>
