<svg width="131" height="87" viewBox="0 0 131 87" fill="none" xmlns="http://www.w3.org/2000/svg">
<path fill-rule="evenodd" clip-rule="evenodd" d="M33.2686 12C33.2686 12 4.59737 14.5 0.359013 34C-2.63276 53.25 19.3069 57.75 19.3069 57.75C19.3069 57.75 21.0521 71 34.5151 72.25C34.5151 76 26.2878 87 26.2878 87C26.2878 87 41.9946 81.5 54.4603 72.25C59.696 73.5 65.9288 76.75 81.885 76C100.334 73.5 104.323 64 104.323 64C104.323 64 131 61.75 131 37.75C131 13.75 98.3398 13.5 98.3398 13.5C98.3398 13.5 92.1069 0 65.6795 0C40.2494 0 33.2686 12 33.2686 12Z" fill="#171717" fill-opacity="0.7"/>
<path d="M43.6144 32.546H55.2064V37.73H43.6144V35.912H53.0284V34.364H43.6144V32.546ZM42.3364 32.546H44.4604V36.974C44.4604 40.142 44.1004 45.074 41.9044 48.152C41.5624 47.756 40.6444 47.018 40.1764 46.784C42.1564 43.976 42.3364 39.836 42.3364 36.974V32.546ZM43.6684 38.882H55.0444V40.772H43.6684V38.882ZM46.3864 41.816H52.3804V46.838H46.3864V45.128H50.3644V43.526H46.3864V41.816ZM45.2524 41.816H47.2324V47.918H45.2524V41.816ZM54.3424 38.882H56.5204C56.5204 38.882 56.5204 39.494 56.5024 39.764C56.3044 45.002 56.1244 47.054 55.5844 47.738C55.1884 48.26 54.7744 48.44 54.1984 48.53C53.6764 48.602 52.8484 48.62 51.9484 48.584C51.9124 47.972 51.6784 47.108 51.3544 46.568C52.0924 46.622 52.7404 46.64 53.0644 46.64C53.3524 46.64 53.5144 46.586 53.6764 46.37C54.0184 45.956 54.2164 44.156 54.3424 39.26V38.882ZM58.4464 36.02H63.4504V38.054H58.4464V36.02ZM60.0664 31.97H62.0644V44.03H60.0664V31.97ZM58.2844 44.3C59.5444 43.742 61.4704 42.77 63.3064 41.798L63.9364 43.706C62.3344 44.66 60.5704 45.668 59.0944 46.46L58.2844 44.3ZM63.7204 34.202H75.0784V36.146H63.7204V34.202ZM63.1624 44.66C64.7464 44.372 67.1224 43.832 69.4084 43.31L69.6064 45.11C67.5544 45.668 65.3764 46.244 63.6664 46.676L63.1624 44.66ZM69.4624 31.736H71.5144C71.3884 38.972 72.3784 46.586 73.5664 46.586C73.8004 46.586 73.9624 45.938 73.9984 44.336C74.4124 44.822 75.0244 45.272 75.4564 45.506C75.1684 47.918 74.6464 48.62 73.2784 48.62C70.1464 48.62 69.4984 39.8 69.4624 31.736ZM71.8564 32.762L73.0624 31.718C73.7644 32.222 74.6464 32.96 75.0604 33.482L73.7824 34.652C73.3864 34.112 72.5584 33.32 71.8564 32.762ZM72.9004 37.334L74.8264 37.694C73.6924 42.5 71.6044 46.226 68.4184 48.512C68.1124 48.152 67.3024 47.45 66.8704 47.144C70.0384 45.146 71.9644 41.726 72.9004 37.334ZM65.8264 39.008V41.204H67.2124V39.008H65.8264ZM64.2424 37.352H68.8864V42.878H64.2424V37.352ZM81.9364 34.472L83.8624 34.526C83.7004 39.98 83.1424 44.21 80.9104 46.964C80.6044 46.64 79.7224 45.974 79.2724 45.704C81.4324 43.364 81.8824 39.368 81.9364 34.472ZM86.5264 34.472L88.4704 34.526C88.3264 40.07 87.7684 44.3 85.4464 47.036C85.1584 46.712 84.2764 46.028 83.8084 45.758C86.0404 43.436 86.4724 39.44 86.5264 34.472ZM79.3084 38.63L80.3524 37.262C82.2244 38.594 84.1864 40.484 85.1404 41.834L83.9704 43.454C83.0704 42.05 81.0904 40.016 79.3084 38.63ZM84.0064 38.414L85.0864 37.028C87.0664 38.468 89.1544 40.466 90.1624 41.906L88.9744 43.544C88.0024 42.068 85.8964 39.89 84.0064 38.414ZM77.1844 32.708H91.5484V34.76H79.2544V48.584H77.1844V32.708ZM90.4324 32.708H92.5384V46.136C92.5384 47.234 92.3044 47.846 91.6384 48.188C90.9364 48.53 89.9464 48.584 88.4524 48.584C88.3624 48.008 88.0384 47.036 87.7504 46.478C88.6684 46.532 89.7124 46.514 90.0184 46.514C90.3244 46.514 90.4324 46.406 90.4324 46.118V32.708Z" fill="white"/>
</svg>
