<svg width="124" height="91" viewBox="0 0 124 91" fill="none" xmlns="http://www.w3.org/2000/svg">
<path fill-rule="evenodd" clip-rule="evenodd" d="M3 35.5C3 35.5 3 37 4.25 38C6.42585 39.5776 36.6401 57.2264 52.4722 66.4528C58.373 69.8916 65.6289 69.8899 71.5314 66.4542C87.7489 57.0143 119.055 38.7735 119.924 38.1289C121.098 37.2577 121 35.5707 121 35.5707V53.388C121 55.161 120.061 56.8015 118.532 57.6994L100.155 68.4925L71.489 85.3283C65.53 88.8281 58.1407 88.8163 52.1929 85.2977L5.94505 57.9383C4.11967 56.8585 3 54.8952 3 52.7743L3 35.5Z" fill="#1E3B89"/>
<path fill-rule="evenodd" clip-rule="evenodd" d="M53.3392 4.9643C58.6147 1.89474 65.1309 1.88885 70.4119 4.94888L119.53 33.4097C121.522 34.5642 121.525 37.4403 119.534 38.5984L70.6608 67.0357C65.3853 70.1053 58.8691 70.1112 53.5881 67.0511L4.47041 38.5903C2.47791 37.4358 2.47531 34.5597 4.46571 33.4016L53.3392 4.9643Z" fill="#1E3C89" fill-opacity="0.7"/>
</svg>
