<svg width="120" height="89" viewBox="0 0 120 89" fill="none" xmlns="http://www.w3.org/2000/svg">
<g filter="url(#filter0_b_54_1631)">
<ellipse cx="60" cy="35" rx="60" ry="35" fill="#265B6E" fill-opacity="0.7"/>
</g>
<path fill-rule="evenodd" clip-rule="evenodd" d="M0 35C0 53.75 26.1905 70 60 70C88.75 70.1428 119.25 57 120 35C120 41.8959 120 50.9072 120 55.8956C120 58.352 119.451 60.7712 118.053 62.7912C112.802 70.3809 96.2264 89 60 89C23.7736 89 7.19837 70.3809 1.9467 62.7912C0.548938 60.7712 0 58.3578 0 55.9013C0 49.8141 0 38.1044 0 35Z" fill="#265B6E"/>
<g filter="url(#filter1_d_54_1631)">
<path fill-rule="evenodd" clip-rule="evenodd" d="M24 24.4286V12H46.0339V15.8571H36.7119L44.8124 20.66C49.4815 18.3737 55.47 17 62 17C69.0398 17 75.4502 18.5966 80.2566 21.212L89.2881 15.8571H79.9661V12H102V24.4286H95.2203V19.2857L85.4251 25.0383C87.6994 27.383 89 30.1015 89 33C89 36.6768 86.9071 40.0639 83.3889 42.7659L95.2203 49.7143V44.5714H102V57H79.9661V53.1429H89.2881L77.4493 46.1236C73.072 47.9365 67.7456 49 62 49C56.7718 49 51.8906 48.1194 47.7558 46.5948L36.7119 53.1429H46.0339V57H24V44.5714H30.7797V49.7143L41.5042 43.416C37.4498 40.617 35 36.978 35 33C35 29.7948 36.5905 26.8097 39.3292 24.3067L30.7797 19.2857V24.4286H24ZM80.8182 33C80.8182 39.0461 72.393 43.9474 62 43.9474C52.0875 43.9474 43.965 39.4888 43.2352 33.8308L58.6471 43L64 40.0526L44.791 28.5638C45.1295 28.12 45.5173 27.6918 45.9502 27.2815L65.6471 39L71 36.0526L51.0256 24.106C51.68 23.8322 52.3659 23.5823 53.0794 23.3584L72.6471 35L78 32.0526L61.293 22.0602C61.5276 22.0552 61.7633 22.0526 62 22.0526C72.393 22.0526 80.8182 26.9539 80.8182 33Z" fill="white"/>
</g>
<path d="M42.1535 73.752H43.6935V84H41.7615V77.392L39.1575 81.27H38.0935L35.4755 77.364V84H33.5575V73.752H35.1675L38.6675 79.058L42.1535 73.752ZM50.6505 73.752L54.7945 84H52.6385L51.7425 81.662H47.7525L46.8845 84H44.8545L48.8725 73.752H50.6505ZM51.0845 79.926L49.7125 76.328L48.3825 79.926H51.0845ZM59.3817 77.336C59.9697 77.336 60.5064 77.476 60.9917 77.756C61.477 78.0267 61.8597 78.4187 62.1397 78.932C62.4197 79.436 62.5597 80.0193 62.5597 80.682C62.5597 81.4007 62.401 82.026 62.0837 82.558C61.7757 83.0807 61.351 83.482 60.8097 83.762C60.2684 84.0327 59.671 84.168 59.0177 84.168C58.243 84.168 57.571 83.9907 57.0017 83.636C56.4417 83.2813 56.045 82.7447 55.8117 82.026L57.4497 81.088C57.571 81.508 57.767 81.8253 58.0377 82.04C58.3084 82.2547 58.6257 82.362 58.9897 82.362C59.447 82.362 59.797 82.2127 60.0397 81.914C60.2917 81.606 60.4177 81.2187 60.4177 80.752C60.4177 80.2853 60.287 79.898 60.0257 79.59C59.7737 79.2727 59.4097 79.114 58.9337 79.114C58.3177 79.114 57.8277 79.4173 57.4637 80.024L56.0077 79.31L56.7077 73.738H62.0837V75.474H58.4157L58.1357 77.588C58.537 77.42 58.9524 77.336 59.3817 77.336ZM66.9499 82.222H71.0519V84H63.9819V82.684L67.0759 79.212C67.6079 78.6147 67.9766 78.148 68.1819 77.812C68.3966 77.4667 68.5039 77.112 68.5039 76.748C68.5039 76.3467 68.3919 76.0247 68.1679 75.782C67.9439 75.5393 67.6406 75.418 67.2579 75.418C66.8659 75.418 66.5206 75.5627 66.2219 75.852C65.9232 76.132 65.6946 76.5333 65.5359 77.056L63.9399 76.132C64.1826 75.3013 64.6212 74.6667 65.2559 74.228C65.8906 73.78 66.6232 73.556 67.4539 73.556C68.1072 73.556 68.6719 73.6913 69.1479 73.962C69.6332 74.2233 70.0019 74.5873 70.2539 75.054C70.5152 75.5207 70.6459 76.0527 70.6459 76.65C70.6459 77.238 70.5012 77.7887 70.2119 78.302C69.9319 78.806 69.4279 79.464 68.6999 80.276L66.9499 82.222ZM79.5301 78.876C79.5301 80.6027 79.2174 81.9187 78.5921 82.824C77.9668 83.72 77.0754 84.168 75.9181 84.168C74.7608 84.168 73.8648 83.72 73.2301 82.824C72.6048 81.9187 72.2921 80.6027 72.2921 78.876C72.2921 77.14 72.6048 75.8193 73.2301 74.914C73.8648 74.0087 74.7608 73.556 75.9181 73.556C77.0754 73.556 77.9668 74.0087 78.5921 74.914C79.2174 75.8193 79.5301 77.14 79.5301 78.876ZM74.4481 78.876C74.4481 80.0333 74.5648 80.8967 74.7981 81.466C75.0408 82.026 75.4141 82.306 75.9181 82.306C76.4221 82.306 76.7908 82.026 77.0241 81.466C77.2574 80.8967 77.3741 80.0333 77.3741 78.876C77.3741 77.7093 77.2574 76.8413 77.0241 76.272C76.7908 75.7027 76.4221 75.418 75.9181 75.418C75.4141 75.418 75.0408 75.7027 74.7981 76.272C74.5648 76.832 74.4481 77.7 74.4481 78.876ZM87.9383 78.876C87.9383 80.6027 87.6256 81.9187 87.0003 82.824C86.375 83.72 85.4836 84.168 84.3263 84.168C83.169 84.168 82.273 83.72 81.6383 82.824C81.013 81.9187 80.7003 80.6027 80.7003 78.876C80.7003 77.14 81.013 75.8193 81.6383 74.914C82.273 74.0087 83.169 73.556 84.3263 73.556C85.4836 73.556 86.375 74.0087 87.0003 74.914C87.6256 75.8193 87.9383 77.14 87.9383 78.876ZM82.8563 78.876C82.8563 80.0333 82.973 80.8967 83.2063 81.466C83.449 82.026 83.8223 82.306 84.3263 82.306C84.8303 82.306 85.199 82.026 85.4323 81.466C85.6656 80.8967 85.7823 80.0333 85.7823 78.876C85.7823 77.7093 85.6656 76.8413 85.4323 76.272C85.199 75.7027 84.8303 75.418 84.3263 75.418C83.8223 75.418 83.449 75.7027 83.2063 76.272C82.973 76.832 82.8563 77.7 82.8563 78.876Z" fill="white"/>
<defs>
<filter id="filter0_b_54_1631" x="-100" y="-100" width="320" height="270" filterUnits="userSpaceOnUse" color-interpolation-filters="sRGB">
<feFlood flood-opacity="0" result="BackgroundImageFix"/>
<feGaussianBlur in="BackgroundImageFix" stdDeviation="50"/>
<feComposite in2="SourceAlpha" operator="in" result="effect1_backgroundBlur_54_1631"/>
<feBlend mode="normal" in="SourceGraphic" in2="effect1_backgroundBlur_54_1631" result="shape"/>
</filter>
<filter id="filter1_d_54_1631" x="24" y="12" width="78" height="47" filterUnits="userSpaceOnUse" color-interpolation-filters="sRGB">
<feFlood flood-opacity="0" result="BackgroundImageFix"/>
<feColorMatrix in="SourceAlpha" type="matrix" values="0 0 0 0 0 0 0 0 0 0 0 0 0 0 0 0 0 0 127 0" result="hardAlpha"/>
<feOffset dy="2"/>
<feComposite in2="hardAlpha" operator="out"/>
<feColorMatrix type="matrix" values="0 0 0 0 0.14902 0 0 0 0 0.356863 0 0 0 0 0.431373 0 0 0 1 0"/>
<feBlend mode="normal" in2="BackgroundImageFix" result="effect1_dropShadow_54_1631"/>
<feBlend mode="normal" in="SourceGraphic" in2="effect1_dropShadow_54_1631" result="shape"/>
</filter>
</defs>
</svg>
