<svg width="120" height="89" viewBox="0 0 120 89" fill="none" xmlns="http://www.w3.org/2000/svg">
<g filter="url(#filter0_b_54_1629)">
<ellipse cx="60" cy="35" rx="60" ry="35" fill="#265B6E" fill-opacity="0.7"/>
</g>
<path fill-rule="evenodd" clip-rule="evenodd" d="M0 35C0 53.75 26.1905 70 60 70C88.75 70.1428 119.25 57 120 35C120 41.8959 120 50.9072 120 55.8956C120 58.352 119.451 60.7712 118.053 62.7912C112.802 70.3809 96.2264 89 60 89C23.7736 89 7.19837 70.3809 1.9467 62.7912C0.548938 60.7712 0 58.3578 0 55.9013C0 49.8141 0 38.1044 0 35Z" fill="#265B6E"/>
<g filter="url(#filter1_d_54_1629)">
<path fill-rule="evenodd" clip-rule="evenodd" d="M62 17.893C64.8667 17.4762 67 15.8914 67 14C67 11.7909 64.0899 10 60.5 10C56.9101 10 54 11.7909 54 14C54 15.8914 56.1333 17.4762 59 17.893V26.0449C56.0483 26.2228 53.359 26.9196 51.2022 27.9772L41.0293 22.1039C41.6447 21.4927 42 20.7719 42 20C42 17.7909 39.0899 16 35.5 16C31.9101 16 29 17.7909 29 20C29 22.2091 31.9101 24 35.5 24C36.8452 24 38.0949 23.7485 39.1319 23.3178L49.2326 29.1495C47.5485 30.3667 46.4267 31.8622 46.0993 33.5H31.9497C31.5499 31.5268 28.8147 30 25.5 30C21.9101 30 19 31.7909 19 34C19 36.2091 21.9101 38 25.5 38C28.2279 38 30.5633 36.9659 31.5275 35.5H46.0993C46.4267 37.1378 47.5485 38.6333 49.2326 39.8505L39.1319 45.6822C38.0949 45.2515 36.8452 45 35.5 45C31.9101 45 29 46.7909 29 49C29 51.2091 31.9101 53 35.5 53C39.0899 53 42 51.2091 42 49C42 48.2281 41.6447 47.5073 41.0293 46.8961L51.2022 41.0228C53.359 42.0804 56.0483 42.7772 59 42.9551V51.107C56.1333 51.5238 54 53.1086 54 55C54 57.2091 56.9101 59 60.5 59C64.0899 59 67 57.2091 67 55C67 53.1086 64.8667 51.5238 62 51.107V42.9551C64.9517 42.7772 67.641 42.0804 69.7978 41.0228L79.9707 46.8961C79.3553 47.5073 79 48.2281 79 49C79 51.2091 81.9101 53 85.5 53C89.0899 53 92 51.2091 92 49C92 46.7909 89.0899 45 85.5 45C84.1548 45 82.905 45.2515 81.8681 45.6822L71.7674 39.8505C73.4515 38.6333 74.5733 37.1378 74.9007 35.5H89.4725C90.4367 36.9659 92.7721 38 95.5 38C99.0899 38 102 36.2091 102 34C102 31.7909 99.0899 30 95.5 30C92.1853 30 89.4501 31.5268 89.0503 33.5H74.9007C74.5733 31.8622 73.4515 30.3667 71.7674 29.1495L81.8681 23.3178C82.905 23.7485 84.1548 24 85.5 24C89.0899 24 92 22.2091 92 20C92 17.7909 89.0899 16 85.5 16C81.9101 16 79 17.7909 79 20C79 20.7719 79.3553 21.4927 79.9707 22.1039L69.7978 27.9772C67.6409 26.9196 64.9517 26.2228 62 26.0449V17.893Z" fill="white"/>
</g>
<path d="M52.9523 73.752H54.4923V84H52.5603V77.392L49.9563 81.27H48.8923L46.2743 77.364V84H44.3563V73.752H45.9663L49.4663 79.058L52.9523 73.752ZM61.0293 82.306C61.524 82.306 61.9487 82.1753 62.3033 81.914C62.6673 81.6527 62.9567 81.2887 63.1713 80.822L64.8653 81.802C64.6133 82.4927 64.1513 83.062 63.4793 83.51C62.8073 83.9487 62.0047 84.168 61.0713 84.168C60.166 84.168 59.34 83.9487 58.5933 83.51C57.8467 83.0713 57.254 82.4507 56.8153 81.648C56.3767 80.836 56.1573 79.9073 56.1573 78.862C56.1573 77.8167 56.372 76.8927 56.8013 76.09C57.24 75.2873 57.8327 74.6667 58.5793 74.228C59.3353 73.7893 60.166 73.57 61.0713 73.57C62.0047 73.57 62.8073 73.794 63.4793 74.242C64.1513 74.6807 64.6133 75.2453 64.8653 75.936L63.1713 76.916C62.9567 76.4493 62.6673 76.0853 62.3033 75.824C61.9487 75.5627 61.524 75.432 61.0293 75.432C60.5067 75.432 60.04 75.572 59.6293 75.852C59.2187 76.132 58.892 76.5333 58.6493 77.056C58.416 77.5693 58.2993 78.1713 58.2993 78.862C58.2993 79.5527 58.416 80.1593 58.6493 80.682C58.892 81.2047 59.2187 81.606 59.6293 81.886C60.04 82.166 60.5067 82.306 61.0293 82.306ZM72.7286 73.752H74.7586V79.856C74.7586 80.7333 74.586 81.4987 74.2406 82.152C73.8953 82.796 73.396 83.2953 72.7426 83.65C72.0893 83.9953 71.3146 84.168 70.4186 84.168C69.5133 84.168 68.734 83.9953 68.0806 83.65C67.4273 83.2953 66.928 82.796 66.5826 82.152C66.2373 81.4987 66.0646 80.7333 66.0646 79.856V73.752H68.0946V79.366C68.0946 80.3553 68.2953 81.0927 68.6966 81.578C69.1073 82.0633 69.6813 82.306 70.4186 82.306C71.1466 82.306 71.7113 82.0633 72.1126 81.578C72.5233 81.0927 72.7286 80.3553 72.7286 79.366V73.752Z" fill="white"/>
<defs>
<filter id="filter0_b_54_1629" x="-100" y="-100" width="320" height="270" filterUnits="userSpaceOnUse" color-interpolation-filters="sRGB">
<feFlood flood-opacity="0" result="BackgroundImageFix"/>
<feGaussianBlur in="BackgroundImageFix" stdDeviation="50"/>
<feComposite in2="SourceAlpha" operator="in" result="effect1_backgroundBlur_54_1629"/>
<feBlend mode="normal" in="SourceGraphic" in2="effect1_backgroundBlur_54_1629" result="shape"/>
</filter>
<filter id="filter1_d_54_1629" x="19" y="10" width="83" height="51" filterUnits="userSpaceOnUse" color-interpolation-filters="sRGB">
<feFlood flood-opacity="0" result="BackgroundImageFix"/>
<feColorMatrix in="SourceAlpha" type="matrix" values="0 0 0 0 0 0 0 0 0 0 0 0 0 0 0 0 0 0 127 0" result="hardAlpha"/>
<feOffset dy="2"/>
<feComposite in2="hardAlpha" operator="out"/>
<feColorMatrix type="matrix" values="0 0 0 0 0.14902 0 0 0 0 0.356863 0 0 0 0 0.431373 0 0 0 1 0"/>
<feBlend mode="normal" in2="BackgroundImageFix" result="effect1_dropShadow_54_1629"/>
<feBlend mode="normal" in="SourceGraphic" in2="effect1_dropShadow_54_1629" result="shape"/>
</filter>
</defs>
</svg>
