<svg width="121" height="88" viewBox="0 0 121 88" fill="none" xmlns="http://www.w3.org/2000/svg">
<path fill-rule="evenodd" clip-rule="evenodd" d="M0 35L60.3755 70V88L0 53V35Z" fill="#265B6E" fill-opacity="0.8"/>
<g filter="url(#filter0_b_54_1621)">
<path fill-rule="evenodd" clip-rule="evenodd" d="M60.125 0L120.501 35L60.3755 70L0 35L60.125 0Z" fill="#265B6E" fill-opacity="0.7"/>
</g>
<path fill-rule="evenodd" clip-rule="evenodd" d="M120.5 35L60.125 70V88L120.5 53V35Z" fill="#265B6E"/>
<path fill-rule="evenodd" clip-rule="evenodd" d="M52.035 21.2325C42.5765 21.2325 35.2494 16.5699 35.2494 11.6407V18.0201C35.2494 18.7294 35.4341 19.4233 35.8737 19.98C37.4884 22.0247 42.3676 26.9301 52.035 26.961C61.7225 26.992 66.6019 22.0301 68.2064 19.9753C68.6393 19.4209 68.8207 18.7326 68.8207 18.0291V11.6407C68.8207 17.6356 60.1614 21.3658 52.035 21.2325ZM52.035 28.2325C42.5765 28.2325 35.2494 23.5699 35.2494 18.6407V25.0201C35.2494 25.7294 35.4341 26.4233 35.8737 26.98C37.0545 28.4753 39.9811 31.5004 45.2494 33.0303V34.0201C45.2494 34.143 45.2549 34.2654 45.2664 34.3868C39.3003 32.8236 35.2494 29.3058 35.2494 25.6407V31.8728C35.2494 32.6733 35.4866 33.4566 35.9969 34.0733C37.4074 35.7777 40.7303 39.218 45.2494 40.2082V41.0201C45.2494 41.7294 45.4341 42.4233 45.8737 42.98C47.4884 45.0247 52.3676 49.9301 62.035 49.961C71.7225 49.992 76.6019 45.0301 78.2064 42.9753C78.6393 42.4209 78.8207 41.7326 78.8207 41.0291V34.6407C78.8207 40.6356 70.1614 44.3658 62.035 44.2325C53.8175 44.2325 47.2087 40.7131 45.616 36.5572C45.6358 36.2369 45.6525 35.944 45.663 35.6707C45.7254 35.7777 45.7955 35.881 45.8737 35.98C47.4884 38.0247 52.3676 42.9301 62.035 42.961C71.7225 42.992 76.6019 38.0301 78.2064 35.9753C78.6393 35.4209 78.8207 34.7326 78.8207 34.0291V27.6407C78.8207 33.6356 70.1614 37.3658 62.035 37.2325C56.9072 37.2325 52.4058 35.8621 49.3588 33.8218C50.2069 33.9092 51.0985 33.958 52.035 33.961C61.7225 33.992 66.6019 29.0301 68.2064 26.9753C68.6393 26.4209 68.8207 25.7326 68.8207 25.0291V18.6407C68.8207 24.6356 60.1614 28.3658 52.035 28.2325ZM62.035 51.2325C52.5765 51.2325 45.2494 46.5699 45.2494 41.6407V48.0201C45.2494 48.7294 45.4341 49.4233 45.8737 49.98C47.4884 52.0247 52.3676 56.9301 62.035 56.961C71.7225 56.992 76.6019 52.0301 78.2064 49.9753C78.6393 49.4209 78.8207 48.7326 78.8207 48.0291V41.6407C78.8207 47.6356 70.1614 51.3658 62.035 51.2325Z" fill="#265B6E"/>
<g filter="url(#filter1_b_54_1621)">
<path fill-rule="evenodd" clip-rule="evenodd" d="M64.407 18.2304C67.1654 16.5212 68.8502 14.2378 68.8502 11.7295C68.8502 6.43209 61.335 2.1377 52.0646 2.1377C42.7941 2.1377 35.2789 6.43209 35.2789 11.7295C35.2789 16.5727 41.5605 20.5774 49.7221 21.2286C46.9638 22.9378 45.2789 25.2212 45.2789 27.7295C45.2789 33.0269 52.7941 37.3213 62.0646 37.3213C71.335 37.3213 78.8502 33.0269 78.8502 27.7295C78.8502 22.8863 72.5686 18.8816 64.407 18.2304Z" fill="#265B6E" fill-opacity="0.7"/>
</g>
<path d="M20.0282 58.2864C20.0283 58.9864 19.8707 59.4834 19.5554 59.7774C19.2483 60.0667 18.8442 60.1787 18.3431 60.1133C17.85 60.0527 17.3206 59.859 16.7548 59.5323C15.9304 59.0563 15.1868 58.4076 14.524 57.5862C13.8612 56.7555 13.4206 55.8712 13.2024 54.9332L14.633 54.8212C14.827 55.4559 15.1099 56.0252 15.4817 56.5293C15.8535 57.0333 16.2981 57.4346 16.8154 57.7333C17.2357 57.976 17.5671 58.0693 17.8095 58.0133C18.0601 57.962 18.1854 57.7497 18.1854 57.3763C18.1854 57.0777 18.1005 56.7813 17.9307 56.4873C17.7691 56.198 17.563 55.925 17.3124 55.6683C17.0699 55.4163 16.7345 55.092 16.3061 54.6953C15.7322 54.1679 15.2634 53.7059 14.8997 53.3092C14.5359 52.9032 14.2247 52.4342 13.9661 51.9022C13.7074 51.3702 13.5781 50.7915 13.578 50.1662C13.578 49.5035 13.7275 49.0299 14.0266 48.7452C14.3337 48.4559 14.7338 48.3416 15.2268 48.4022C15.728 48.4583 16.2655 48.6519 16.8393 48.9833C17.6234 49.436 18.2942 50.0287 18.852 50.7614C19.4097 51.494 19.7694 52.2571 19.9311 53.0504L18.5005 53.1623C18.3549 52.6397 18.1367 52.173 17.8457 51.7623C17.5547 51.3423 17.191 51.0063 16.7545 50.7543C16.3585 50.5256 16.0352 50.4463 15.7846 50.5163C15.5421 50.5816 15.4209 50.7869 15.4209 51.1323C15.4209 51.3936 15.4977 51.6573 15.6513 51.9233C15.8049 52.1799 15.9989 52.4319 16.2333 52.6793C16.4758 52.922 16.7991 53.23 17.2032 53.6033C17.7852 54.1353 18.2661 54.6137 18.646 55.0384C19.0259 55.4537 19.3492 55.939 19.616 56.4944C19.8908 57.0451 20.0282 57.6424 20.0282 58.2864ZM24.6692 56.5001C25.3562 56.8968 25.9018 57.4778 26.306 58.2432C26.7182 59.0039 26.9243 59.8882 26.9244 60.8962L26.9245 65.2362L25.2392 64.2631L25.2391 60.5531C25.2391 59.2278 24.8592 58.3458 24.0994 57.9071C23.6953 57.6738 23.3679 57.6667 23.1174 57.8861C22.8749 58.1007 22.7537 58.5347 22.7537 59.1881L22.7538 62.8281L21.0685 61.855L21.0682 51.201L22.7535 52.1741L22.7536 56.5421C23.1577 56.0101 23.7962 55.9961 24.6692 56.5001ZM31.0406 60.1789C31.8893 60.669 32.5521 61.3317 33.029 62.167C33.5059 62.993 33.7443 63.9194 33.7444 64.946L33.7445 69.174L32.326 68.355C32.3179 68.2756 32.3058 68.1473 32.2896 67.97C32.2815 67.788 32.2653 67.6246 32.2411 67.48C32.0552 67.7086 31.8127 67.8206 31.5137 67.816C31.2227 67.8066 30.8671 67.6806 30.4467 67.4379C30.0103 67.1859 29.6102 66.8662 29.2465 66.4789C28.8908 66.0962 28.6079 65.6762 28.3977 65.2189C28.1876 64.7522 28.0825 64.2855 28.0825 63.8188C28.0825 63.3335 28.1996 62.9812 28.434 62.7619C28.6765 62.5379 28.9998 62.4445 29.4039 62.4819C29.8081 62.5192 30.2526 62.6779 30.7376 62.9579C31.174 63.2099 31.6226 63.553 32.0834 63.987C32.0591 62.8996 31.663 62.1343 30.8952 61.6909C30.2809 61.3362 29.8323 61.3946 29.5494 61.8659L28.3491 60.3749C28.5754 59.9642 28.9229 59.7402 29.3917 59.7029C29.8605 59.6562 30.4101 59.8149 31.0406 60.1789ZM32.0834 65.275C31.6793 64.9296 31.3277 64.6706 31.0286 64.4979C30.6325 64.2693 30.3254 64.1759 30.1072 64.2179C29.8889 64.2506 29.7798 64.4162 29.7798 64.7149C29.7799 64.9856 29.8647 65.2446 30.0345 65.4919C30.2123 65.7439 30.4386 65.9493 30.7134 66.1079C31.0772 66.3179 31.3964 66.3856 31.6712 66.311C31.946 66.227 32.0834 65.975 32.0834 65.555L32.0834 65.275ZM38.563 64.5223C38.8055 64.6624 39.0318 64.835 39.242 65.0404C39.4522 65.2457 39.6138 65.4464 39.727 65.6424L39.0723 66.7624C38.8622 66.473 38.6237 66.2513 38.357 66.0973C37.9205 65.8453 37.5689 65.8523 37.3022 66.1183C37.0436 66.389 36.9143 66.893 36.9143 67.6303L36.9144 71.0043L35.2291 70.0312L35.2289 62.7792L36.7081 63.6333C36.7485 64.2166 36.7849 64.6203 36.8172 64.8443C37.0031 64.513 37.2456 64.3216 37.5446 64.2703C37.8437 64.219 38.1832 64.303 38.563 64.5223ZM42.8126 66.976C43.3704 67.2981 43.8634 67.7274 44.2918 68.2641C44.7283 68.7961 45.0637 69.3911 45.2981 70.0491C45.5406 70.7025 45.6619 71.3651 45.6619 72.0371C45.6619 72.3358 45.6377 72.6251 45.5892 72.9051L41.4185 70.497C41.4913 71.0803 41.661 71.589 41.9278 72.023C42.1945 72.4477 42.5259 72.7744 42.922 73.003C43.2049 73.1664 43.4554 73.2411 43.6736 73.2271C43.9 73.2084 44.0737 73.0894 44.195 72.8701L45.4317 74.4241C45.2619 74.8581 44.9346 75.0798 44.4496 75.0891C43.9728 75.1031 43.4393 74.9397 42.8493 74.599C42.2835 74.2724 41.7581 73.8243 41.2731 73.255C40.7881 72.6856 40.3961 72.0253 40.097 71.274C39.806 70.5273 39.6605 69.7479 39.6605 68.9359C39.6605 68.1333 39.8059 67.5313 40.0969 67.13C40.3959 66.7333 40.7839 66.528 41.2608 66.514C41.7376 66.5 42.2549 66.654 42.8126 66.976ZM42.7642 68.53C42.4328 68.3387 42.1499 68.2967 41.9155 68.404C41.6811 68.5113 41.5235 68.761 41.4427 69.153L43.9403 70.5951C43.9079 70.1284 43.7826 69.7154 43.5644 69.3561C43.3542 68.9921 43.0875 68.7167 42.7642 68.53Z" fill="white"/>
<defs>
<filter id="filter0_b_54_1621" x="-135.914" y="-135.914" width="392.329" height="341.828" filterUnits="userSpaceOnUse" color-interpolation-filters="sRGB">
<feFlood flood-opacity="0" result="BackgroundImageFix"/>
<feGaussianBlur in="BackgroundImageFix" stdDeviation="67.957"/>
<feComposite in2="SourceAlpha" operator="in" result="effect1_backgroundBlur_54_1621"/>
<feBlend mode="normal" in="SourceGraphic" in2="effect1_backgroundBlur_54_1621" result="shape"/>
</filter>
<filter id="filter1_b_54_1621" x="-100.635" y="-133.776" width="315.399" height="307.012" filterUnits="userSpaceOnUse" color-interpolation-filters="sRGB">
<feFlood flood-opacity="0" result="BackgroundImageFix"/>
<feGaussianBlur in="BackgroundImageFix" stdDeviation="67.957"/>
<feComposite in2="SourceAlpha" operator="in" result="effect1_backgroundBlur_54_1621"/>
<feBlend mode="normal" in="SourceGraphic" in2="effect1_backgroundBlur_54_1621" result="shape"/>
</filter>
</defs>
</svg>
