<svg width="121" height="88" viewBox="0 0 121 88" fill="none" xmlns="http://www.w3.org/2000/svg">
<path fill-rule="evenodd" clip-rule="evenodd" d="M0 35L60.3755 70V88L0 53V35Z" fill="#265B6E" fill-opacity="0.8"/>
<g filter="url(#filter0_b_54_1614)">
<path fill-rule="evenodd" clip-rule="evenodd" d="M60.125 0L120.501 35L60.3755 70L0 35L60.125 0Z" fill="#265B6E" fill-opacity="0.7"/>
</g>
<path fill-rule="evenodd" clip-rule="evenodd" d="M120.501 35L60.125 70V88L120.501 53V35Z" fill="#265B6E"/>
<g filter="url(#filter1_d_54_1614)">
<path fill-rule="evenodd" clip-rule="evenodd" d="M32.75 25.5L59.25 10L89.5 27.75L63.25 43.25L32.75 25.5ZM42.25 25.75L59.25 15.75L80 28L63 37.75L42.25 25.75ZM15 34L28 26L62.25 46L49.25 53.75L15 34ZM24.25 34L28.25 31.5L53.5 45.75L49 48.25L24.25 34ZM52.5 55.25L62.25 49.75L66.75 52.75L88 40.25L83.25 37.5L93.75 31.25L100 35.25V38.75L64.5 59.5L59 59.25L52.5 55.25Z" fill="white"/>
</g>
<defs>
<filter id="filter0_b_54_1614" x="-135.914" y="-135.914" width="392.329" height="341.828" filterUnits="userSpaceOnUse" color-interpolation-filters="sRGB">
<feFlood flood-opacity="0" result="BackgroundImageFix"/>
<feGaussianBlur in="BackgroundImageFix" stdDeviation="67.957"/>
<feComposite in2="SourceAlpha" operator="in" result="effect1_backgroundBlur_54_1614"/>
<feBlend mode="normal" in="SourceGraphic" in2="effect1_backgroundBlur_54_1614" result="shape"/>
</filter>
<filter id="filter1_d_54_1614" x="15" y="10" width="85" height="51.5" filterUnits="userSpaceOnUse" color-interpolation-filters="sRGB">
<feFlood flood-opacity="0" result="BackgroundImageFix"/>
<feColorMatrix in="SourceAlpha" type="matrix" values="0 0 0 0 0 0 0 0 0 0 0 0 0 0 0 0 0 0 127 0" result="hardAlpha"/>
<feOffset dy="2"/>
<feComposite in2="hardAlpha" operator="out"/>
<feColorMatrix type="matrix" values="0 0 0 0 0.14902 0 0 0 0 0.356863 0 0 0 0 0.431373 0 0 0 1 0"/>
<feBlend mode="normal" in2="BackgroundImageFix" result="effect1_dropShadow_54_1614"/>
<feBlend mode="normal" in="SourceGraphic" in2="effect1_dropShadow_54_1614" result="shape"/>
</filter>
</defs>
</svg>
