<svg width="121" height="88" viewBox="0 0 121 88" fill="none" xmlns="http://www.w3.org/2000/svg">
<path fill-rule="evenodd" clip-rule="evenodd" d="M0 34.9999L60.3755 69.9999V87.9999L0 52.9999V34.9999Z" fill="#1E3D89" fill-opacity="0.8"/>
<g filter="url(#filter0_b_54_1620)">
<path fill-rule="evenodd" clip-rule="evenodd" d="M60.125 -0.00012207L120.501 34.9999L60.3755 69.9999L0 34.9999L60.125 -0.00012207Z" fill="#1E3C89" fill-opacity="0.7"/>
</g>
<path fill-rule="evenodd" clip-rule="evenodd" d="M120.5 34.9999L60.125 69.9999V87.9999L120.5 52.9999V34.9999Z" fill="#1E3B89"/>
<g filter="url(#filter1_d_54_1620)">
<path fill-rule="evenodd" clip-rule="evenodd" d="M23 36.25V33H34L30.5 30.25L32.75 28L40 34.3145V14H79V33.0001H90L86.5 30.2501L88.75 28.0001L96.5 34.7501L89 41.5001L86.5 39.2501L90 36.2501H79V53H40V35.2L33 41.5L30.5 39.25L34 36.25H23ZM42 17V50H77V17H42ZM45 32V30H51V32H45ZM61 32V30H67V32H61ZM53 32V30H59V32H53ZM43 23C43 26.126 44.0964 27 46 27C47.9036 27 49 26.126 49 23C49 19.8852 47.9036 19 46 19C44.1084 19 43 19.8852 43 23ZM46 25.7003C45 25.7003 44.6385 25.1625 44.6385 23C44.6385 20.8487 45.012 20.2997 46 20.2997C47.012 20.2997 47.3855 20.8487 47.3855 23C47.3855 25.1513 47.012 25.7003 46 25.7003ZM52.215 27L52.215 20.4179L50 20.7983V19.4841L52.697 19H54V27H52.215ZM60 27C58.0964 27 57 26.126 57 23C57 19.8852 58.1084 19 60 19C61.9036 19 63 19.8852 63 23C63 26.126 61.9036 27 60 27ZM58.6385 23C58.6385 25.1625 59 25.7003 60 25.7003C61.012 25.7003 61.3855 25.1513 61.3855 23C61.3855 20.8487 61.012 20.2997 60 20.2997C59.012 20.2997 58.6385 20.8487 58.6385 23ZM66.215 27V20.4179L64 20.7983V19.4841L66.697 19H68V27H66.215ZM72.215 20.4179V27H74V19H72.697L70 19.4841V20.7983L72.215 20.4179ZM44 44V42H55L64 37H75V39H64L55 44H44ZM69 30V32H75V30H69Z" fill="white"/>
</g>
<rect opacity="0.407715" x="54" y="35" width="12" height="12" fill="white"/>
<path fill-rule="evenodd" clip-rule="evenodd" d="M103 48.9999L101.131 50.079V56.5236C101.131 56.9124 101.056 57.3012 100.906 57.6899C100.759 58.0771 100.551 58.4351 100.28 58.7641C100.013 59.0914 99.6974 59.3597 99.3347 59.569C98.975 59.7767 98.6599 59.8722 98.3893 59.8556C98.1188 59.839 97.9087 59.7227 97.759 59.5067C97.6122 59.289 97.5388 58.9859 97.5388 58.5971V52.1524L95.6695 53.2315V59.8606C95.6695 60.6049 95.822 61.1682 96.1271 61.5503C96.4322 61.9324 96.8596 62.121 97.4093 62.116C97.9591 62.1077 98.6008 61.8917 99.3347 61.468C100.066 61.046 100.706 60.5219 101.256 59.8955C101.806 59.2658 102.233 58.5838 102.538 57.8495C102.846 57.1135 103 56.3733 103 55.629V48.9999ZM94.5926 53.8532V64.061L92.978 64.993L89.1315 60.7888L89.0667 60.8262V67.2509L87.1974 68.33V58.1222L88.8379 57.1752L92.6542 61.3919L92.7319 61.347V54.9273L94.5926 53.8532ZM85.732 66.9131C86.0975 65.9212 86.2802 64.8687 86.2802 63.7555C86.2802 62.6424 86.0975 61.8008 85.732 61.231C85.3694 60.6595 84.8743 60.3504 84.2469 60.3039C83.6224 60.2524 82.9201 60.4518 82.1401 60.902C81.3544 61.3556 80.6493 61.9687 80.0247 62.7412C79.4002 63.5104 78.9066 64.3902 78.544 65.3804C78.1813 66.3706 78 67.4223 78 68.5354C78 69.6453 78.1813 70.4859 78.544 71.0575C78.9066 71.629 79.4002 71.9405 80.0247 71.992C80.6493 72.0435 81.3544 71.8425 82.1401 71.3889C82.9201 70.9387 83.6224 70.3289 84.2469 69.5597C84.8743 68.7855 85.3694 67.9032 85.732 66.9131ZM84.1044 63.1873C84.2915 63.5744 84.385 64.1285 84.385 64.8496C84.385 65.5706 84.2915 66.2327 84.1044 66.8358C83.9202 67.4373 83.6597 67.9631 83.323 68.4133C82.9863 68.8636 82.592 69.2191 82.1401 69.4799C81.6883 69.7408 81.294 69.8405 80.9572 69.779C80.6205 69.7175 80.3586 69.4932 80.1715 69.1062C79.9873 68.7174 79.8952 68.1625 79.8952 67.4414C79.8952 66.7203 79.9873 66.0591 80.1715 65.4576C80.3586 64.8545 80.6205 64.3279 80.9572 63.8776C81.294 63.4274 81.6883 63.0718 82.1401 62.811C82.592 62.5501 82.9863 62.4505 83.323 62.512C83.6597 62.5734 83.9202 62.7986 84.1044 63.1873Z" fill="white"/>
<defs>
<filter id="filter0_b_54_1620" x="-135.914" y="-135.914" width="392.329" height="341.828" filterUnits="userSpaceOnUse" color-interpolation-filters="sRGB">
<feFlood flood-opacity="0" result="BackgroundImageFix"/>
<feGaussianBlur in="BackgroundImageFix" stdDeviation="67.957"/>
<feComposite in2="SourceAlpha" operator="in" result="effect1_backgroundBlur_54_1620"/>
<feBlend mode="normal" in="SourceGraphic" in2="effect1_backgroundBlur_54_1620" result="shape"/>
</filter>
<filter id="filter1_d_54_1620" x="23" y="14" width="73.5" height="41" filterUnits="userSpaceOnUse" color-interpolation-filters="sRGB">
<feFlood flood-opacity="0" result="BackgroundImageFix"/>
<feColorMatrix in="SourceAlpha" type="matrix" values="0 0 0 0 0 0 0 0 0 0 0 0 0 0 0 0 0 0 127 0" result="hardAlpha"/>
<feOffset dy="2"/>
<feComposite in2="hardAlpha" operator="out"/>
<feColorMatrix type="matrix" values="0 0 0 0 0.117647 0 0 0 0 0.232922 0 0 0 0 0.537255 0 0 0 1 0"/>
<feBlend mode="normal" in2="BackgroundImageFix" result="effect1_dropShadow_54_1620"/>
<feBlend mode="normal" in="SourceGraphic" in2="effect1_dropShadow_54_1620" result="shape"/>
</filter>
</defs>
</svg>
