<svg width="121" height="88" viewBox="0 0 121 88" fill="none" xmlns="http://www.w3.org/2000/svg">
<path fill-rule="evenodd" clip-rule="evenodd" d="M0 35L60.3755 70V88L0 53V35Z" fill="#1E3D89" fill-opacity="0.8"/>
<g filter="url(#filter0_b_54_1624)">
<path fill-rule="evenodd" clip-rule="evenodd" d="M60.125 0L120.501 35L60.3755 70L0 35L60.125 0Z" fill="#1E3C89" fill-opacity="0.7"/>
</g>
<path fill-rule="evenodd" clip-rule="evenodd" d="M120.501 35L60.125 70V88L120.501 53V35Z" fill="#1E3B89"/>
<g filter="url(#filter1_d_54_1624)">
<path fill-rule="evenodd" clip-rule="evenodd" d="M80 19H41V28.5L30.5 23.75V26H28V31H30.75V33.25L41 28.5V38H37V43H41V49H80V40.5L90.25 45.25V43H93V38H90.5V35.75L80 40.5V31H84V26H80V19ZM77 21H44V47H77V21ZM18 26H22V31H18V26ZM23 26H27V31H23V26ZM31 38H28.5V35.75L18 40.5L28.25 45.25V43H31V38ZM32 38H36V43H32V38ZM92.5 26H90V31H92.75V33.25L103 28.5L92.5 23.75V26ZM85 26H89V31H85V26ZM99 38H103V43H99V38ZM94 38H98V43H94V38ZM75.2675 57.7617C71.6289 59.774 66.7992 61 61.5 61C55.8776 61 50.7838 59.6199 47.0802 57.3849L49.4487 55.8306C52.5156 57.6232 56.7036 58.7273 61.3209 58.7273C65.7184 58.7273 69.7266 57.7258 72.7477 56.0818L75.2675 57.7617ZM51.5564 54.4474C54.0952 56.0361 57.6426 57.0227 61.5678 57.0227C65.1524 57.0227 68.4218 56.1999 70.8958 54.8472L68.5241 53.266C66.6564 54.1916 64.2377 54.75 61.5955 54.75C58.601 54.75 55.8935 54.0328 53.95 52.8766L51.5564 54.4474ZM66.6465 52.0143L64.1562 50.3541C63.421 50.6188 62.5411 50.7727 61.5955 50.7727C60.3071 50.7727 59.1406 50.4869 58.2959 50.0246L55.8358 51.639C57.2859 52.5056 59.3302 53.0455 61.5955 53.0455C63.5129 53.0455 65.2721 52.6587 66.6465 52.0143ZM67.0067 25.6472C67.0067 26.5064 66.7466 27.1613 66.2265 27.6118C65.7064 28.0576 64.9651 28.2806 64.0025 28.2806C63.0399 28.2806 62.2947 28.0576 61.7668 27.6118C61.2467 27.1613 60.9866 26.5064 60.9866 25.6472C60.9866 24.7834 61.2467 24.1262 61.7668 23.6757C62.2947 23.2252 63.0399 23 64.0025 23C64.9651 23 65.7064 23.2252 66.2265 23.6757C66.7466 24.1262 67.0067 24.7834 67.0067 25.6472ZM62.7798 25.6472C62.7798 26.2231 62.8769 26.6527 63.0709 26.936C63.2728 27.2147 63.5833 27.354 64.0025 27.354C64.4217 27.354 64.7283 27.2147 64.9224 26.936C65.1164 26.6527 65.2135 26.2231 65.2135 25.6472C65.2135 25.0667 65.1164 24.6348 64.9224 24.3515C64.7283 24.0682 64.4217 23.9265 64.0025 23.9265C63.5833 23.9265 63.2728 24.0682 63.0709 24.3515C62.8769 24.6301 62.7798 25.0621 62.7798 25.6472ZM68.5156 23.9753V24.9436L70.728 24.2052V28.1969H72.4396V23.0905H71.1239L68.5156 23.9753ZM53.02 34.007C53.02 34.8662 52.76 35.521 52.2399 35.9715C51.7198 36.4174 50.9784 36.6403 50.0158 36.6403C49.0533 36.6403 48.308 36.4174 47.7802 35.9715C47.2601 35.521 47 34.8662 47 34.007C47 33.1431 47.2601 32.486 47.7802 32.0355C48.308 31.585 49.0533 31.3597 50.0158 31.3597C50.9784 31.3597 51.7198 31.585 52.2399 32.0355C52.76 32.486 53.02 33.1431 53.02 34.007ZM48.7932 34.007C48.7932 34.5829 48.8902 35.0125 49.0843 35.2958C49.2861 35.5744 49.5966 35.7137 50.0158 35.7137C50.435 35.7137 50.7417 35.5744 50.9357 35.2958C51.1298 35.0125 51.2268 34.5829 51.2268 34.007C51.2268 33.4264 51.1298 32.9945 50.9357 32.7112C50.7417 32.4279 50.435 32.2863 50.0158 32.2863C49.5966 32.2863 49.2861 32.4279 49.0843 32.7112C48.8902 32.9899 48.7932 33.4218 48.7932 34.007ZM73.2199 35.9715C73.74 35.521 74 34.8662 74 34.007C74 33.1431 73.74 32.486 73.2199 32.0355C72.6997 31.585 71.9584 31.3597 70.9958 31.3597C70.0332 31.3597 69.288 31.585 68.7601 32.0355C68.24 32.486 67.98 33.1431 67.98 34.007C67.98 34.8662 68.24 35.521 68.7601 35.9715C69.288 36.4174 70.0332 36.6403 70.9958 36.6403C71.9584 36.6403 72.6997 36.4174 73.2199 35.9715ZM70.0643 35.2958C69.8702 35.0125 69.7732 34.5829 69.7732 34.007C69.7732 33.4218 69.8702 32.9899 70.0643 32.7112C70.2661 32.4279 70.5766 32.2863 70.9958 32.2863C71.415 32.2863 71.7216 32.4279 71.9157 32.7112C72.1098 32.9945 72.2068 33.4264 72.2068 34.007C72.2068 34.5829 72.1098 35.0125 71.9157 35.2958C71.7216 35.5744 71.415 35.7137 70.9958 35.7137C70.5766 35.7137 70.2661 35.5744 70.0643 35.2958ZM59.2332 44.3312C59.7533 43.8807 60.0134 43.2259 60.0134 42.3667C60.0134 41.5029 59.7533 40.8457 59.2332 40.3952C58.7131 39.9447 57.9717 39.7194 57.0092 39.7194C56.0466 39.7194 55.3013 39.9447 54.7735 40.3952C54.2534 40.8457 53.9933 41.5029 53.9933 42.3667C53.9933 43.2259 54.2534 43.8807 54.7735 44.3312C55.3013 44.7771 56.0466 45 57.0092 45C57.9717 45 58.7131 44.7771 59.2332 44.3312ZM56.0776 43.6555C55.8836 43.3722 55.7865 42.9426 55.7865 42.3667C55.7865 41.7815 55.8836 41.3496 56.0776 41.0709C56.2795 40.7876 56.59 40.646 57.0092 40.646C57.4283 40.646 57.735 40.7876 57.929 41.0709C58.1231 41.3542 58.2201 41.7862 58.2201 42.3667C58.2201 42.9426 58.1231 43.3722 57.929 43.6555C57.735 43.9341 57.4283 44.0735 57.0092 44.0735C56.59 44.0735 56.2795 43.9341 56.0776 43.6555ZM61.5222 41.6631V40.6947L64.1305 39.81H65.4463V44.9164H63.7346V40.9246L61.5222 41.6631ZM68.5156 41.6631V40.6947L71.1239 39.81H72.4396V44.9164H70.728V40.9246L68.5156 41.6631ZM47.5356 41.6631V40.6947L50.1439 39.81H51.4597V44.9164H49.748V40.9246L47.5356 41.6631ZM61.5222 33.3033V32.335L64.1305 31.4503H65.4463V36.5567H63.7346V32.5649L61.5222 33.3033ZM59.2332 35.9715C59.7533 35.521 60.0134 34.8662 60.0134 34.007C60.0134 33.1431 59.7533 32.486 59.2332 32.0355C58.7131 31.585 57.9717 31.3597 57.0092 31.3597C56.0466 31.3597 55.3013 31.585 54.7735 32.0355C54.2534 32.486 53.9933 33.1431 53.9933 34.007C53.9933 34.8662 54.2534 35.521 54.7735 35.9715C55.3013 36.4174 56.0466 36.6403 57.0092 36.6403C57.9717 36.6403 58.7131 36.4174 59.2332 35.9715ZM56.0776 35.2958C55.8836 35.0125 55.7865 34.5829 55.7865 34.007C55.7865 33.4218 55.8836 32.9899 56.0776 32.7112C56.2795 32.4279 56.59 32.2863 57.0092 32.2863C57.4283 32.2863 57.735 32.4279 57.929 32.7112C58.1231 32.9945 58.2201 33.4264 58.2201 34.007C58.2201 34.5829 58.1231 35.0125 57.929 35.2958C57.735 35.5744 57.4283 35.7137 57.0092 35.7137C56.59 35.7137 56.2795 35.5744 56.0776 35.2958ZM54.5289 23.9753V24.9436L56.7413 24.2052V28.1969H58.453V23.0905H57.1372L54.5289 23.9753ZM53.02 25.6472C53.02 26.5064 52.76 27.1613 52.2399 27.6118C51.7198 28.0576 50.9784 28.2806 50.0158 28.2806C49.0533 28.2806 48.308 28.0576 47.7802 27.6118C47.2601 27.1613 47 26.5064 47 25.6472C47 24.7834 47.2601 24.1262 47.7802 23.6757C48.308 23.2252 49.0533 23 50.0158 23C50.9784 23 51.7198 23.2252 52.2399 23.6757C52.76 24.1262 53.02 24.7834 53.02 25.6472ZM48.7932 25.6472C48.7932 26.2231 48.8902 26.6527 49.0843 26.936C49.2861 27.2147 49.5966 27.354 50.0158 27.354C50.435 27.354 50.7417 27.2147 50.9357 26.936C51.1298 26.6527 51.2268 26.2231 51.2268 25.6472C51.2268 25.0667 51.1298 24.6348 50.9357 24.3515C50.7417 24.0682 50.435 23.9265 50.0158 23.9265C49.5966 23.9265 49.2861 24.0682 49.0843 24.3515C48.8902 24.6301 48.7932 25.0621 48.7932 25.6472Z" fill="white"/>
</g>
<defs>
<filter id="filter0_b_54_1624" x="-135.914" y="-135.914" width="392.329" height="341.828" filterUnits="userSpaceOnUse" color-interpolation-filters="sRGB">
<feFlood flood-opacity="0" result="BackgroundImageFix"/>
<feGaussianBlur in="BackgroundImageFix" stdDeviation="67.957"/>
<feComposite in2="SourceAlpha" operator="in" result="effect1_backgroundBlur_54_1624"/>
<feBlend mode="normal" in="SourceGraphic" in2="effect1_backgroundBlur_54_1624" result="shape"/>
</filter>
<filter id="filter1_d_54_1624" x="18" y="19" width="85" height="44" filterUnits="userSpaceOnUse" color-interpolation-filters="sRGB">
<feFlood flood-opacity="0" result="BackgroundImageFix"/>
<feColorMatrix in="SourceAlpha" type="matrix" values="0 0 0 0 0 0 0 0 0 0 0 0 0 0 0 0 0 0 127 0" result="hardAlpha"/>
<feOffset dy="2"/>
<feComposite in2="hardAlpha" operator="out"/>
<feColorMatrix type="matrix" values="0 0 0 0 0.117647 0 0 0 0 0.232922 0 0 0 0 0.537255 0 0 0 1 0"/>
<feBlend mode="normal" in2="BackgroundImageFix" result="effect1_dropShadow_54_1624"/>
<feBlend mode="normal" in="SourceGraphic" in2="effect1_dropShadow_54_1624" result="shape"/>
</filter>
</defs>
</svg>
