<svg width="121" height="88" viewBox="0 0 121 88" fill="none" xmlns="http://www.w3.org/2000/svg">
<path fill-rule="evenodd" clip-rule="evenodd" d="M0 35L60.3755 70V88L0 53V35Z" fill="#1E3D89" fill-opacity="0.8"/>
<g filter="url(#filter0_b_54_1633)">
<path fill-rule="evenodd" clip-rule="evenodd" d="M60.125 0L120.501 35L60.3755 70L0 35L60.125 0Z" fill="#1E3C89" fill-opacity="0.7"/>
</g>
<path fill-rule="evenodd" clip-rule="evenodd" d="M120.5 35L60.125 70V88L120.5 53V35Z" fill="#1E3B89"/>
<g filter="url(#filter1_d_54_1633)">
<path fill-rule="evenodd" clip-rule="evenodd" d="M53.4745 36.2431L62.5 11L69.5967 31.8247L83.7847 22.7002L83.012 21.6863L88.6129 20.6235L85.4341 25.5117L84.7765 24.1635L70.2452 33.7278L70.3624 34.0716L87.4489 28.273L86.9444 27.1023L92.6361 27.426L88.3691 31.4L88.0572 29.9328L71.2888 35.8222L90.904 35.567L90.786 34.2977L96.0991 36.3644L90.8129 38.8253L90.9697 37.3335L71.6296 37.7901L71.7357 38.1014L90.3746 43.1845L90.6111 41.9319L95.1487 45.383L89.389 46.2915L89.9509 44.9008L72.4983 40.3392L77.75 55.75H46.5L53.4644 36.2713L48.5 39.25V37.75L25.25 40.75L25 38.75L48.25 36L48 34.75L53.4745 36.2431Z" fill="white"/>
</g>
<defs>
<filter id="filter0_b_54_1633" x="-135.914" y="-135.914" width="392.329" height="341.828" filterUnits="userSpaceOnUse" color-interpolation-filters="sRGB">
<feFlood flood-opacity="0" result="BackgroundImageFix"/>
<feGaussianBlur in="BackgroundImageFix" stdDeviation="67.957"/>
<feComposite in2="SourceAlpha" operator="in" result="effect1_backgroundBlur_54_1633"/>
<feBlend mode="normal" in="SourceGraphic" in2="effect1_backgroundBlur_54_1633" result="shape"/>
</filter>
<filter id="filter1_d_54_1633" x="25" y="11" width="71.0991" height="46.75" filterUnits="userSpaceOnUse" color-interpolation-filters="sRGB">
<feFlood flood-opacity="0" result="BackgroundImageFix"/>
<feColorMatrix in="SourceAlpha" type="matrix" values="0 0 0 0 0 0 0 0 0 0 0 0 0 0 0 0 0 0 127 0" result="hardAlpha"/>
<feOffset dy="2"/>
<feComposite in2="hardAlpha" operator="out"/>
<feColorMatrix type="matrix" values="0 0 0 0 0.117647 0 0 0 0 0.232922 0 0 0 0 0.537255 0 0 0 1 0"/>
<feBlend mode="normal" in2="BackgroundImageFix" result="effect1_dropShadow_54_1633"/>
<feBlend mode="normal" in="SourceGraphic" in2="effect1_dropShadow_54_1633" result="shape"/>
</filter>
</defs>
</svg>
