<svg width="121" height="88" viewBox="0 0 121 88" fill="none" xmlns="http://www.w3.org/2000/svg">
<path fill-rule="evenodd" clip-rule="evenodd" d="M0 35L60.3755 70V88L0 53V35Z" fill="#1E3D89" fill-opacity="0.8"/>
<g filter="url(#filter0_b_54_1628)">
<path fill-rule="evenodd" clip-rule="evenodd" d="M60.125 0L120.501 35L60.3755 70L0 35L60.125 0Z" fill="#1E3C89" fill-opacity="0.7"/>
</g>
<path fill-rule="evenodd" clip-rule="evenodd" d="M120.501 35L60.125 70V88L120.501 53V35Z" fill="#1E3B89"/>
<g filter="url(#filter1_d_54_1628)">
<path fill-rule="evenodd" clip-rule="evenodd" d="M37.0454 17.5971C28.4845 21.6284 23 27.834 23 34.7946C23 37.4542 23.8007 40.0035 25.2677 42.3634L30.8869 40.9929C29.6663 39.0605 29 36.9727 29 34.7946C29 29.0167 33.6884 23.8747 40.9768 20.5812L37.0454 17.5971ZM64.5504 16.9872L65.4475 13C81.6806 14.3129 94.5867 21.7777 97.1773 31.2756L90.5651 31.7728C88.3392 24.1268 77.8101 18.1197 64.5504 16.9872ZM44.3785 23.1632C38.655 25.9137 35 30.1026 35 34.7946C35 36.4963 35.4807 38.1317 36.3666 39.6564L42.0005 38.2823C41.3515 37.1864 41 36.0136 41 34.7946C41 31.3084 43.875 28.201 48.3604 26.1856L44.3785 23.1632ZM62.9986 23.8841L63.8882 19.9304C74.8428 20.8024 83.5857 25.7826 85.5059 32.1532L79.6106 32.5964C77.9671 28.0252 71.2985 24.4829 62.9986 23.8841ZM51.4608 28.5389C48.1325 30.0048 46 32.2623 46 34.7946C46 35.6147 46.2237 36.406 46.6392 37.1509L52.4447 35.7349C52.1563 35.2827 52 34.7983 52 34.2946C52 32.9947 53.0411 31.8236 54.7059 31.0021L51.4608 28.5389ZM61.6594 29.8361L62.3296 26.8577C68.3748 27.2776 73.2613 29.7509 74.6218 32.9715L68.8346 33.4067C68.1302 31.5433 65.2519 30.0955 61.6594 29.8361ZM66.2319 37.6175C64.7205 38.3486 62.7086 38.7946 60.5 38.7946C59.8889 38.7946 59.2928 38.7605 58.7182 38.6956L56.1012 42.4198C57.4886 42.6633 58.9665 42.7946 60.5 42.7946C64.9325 42.7946 68.9004 41.6973 71.5602 39.9682L66.2319 37.6175ZM75.6043 41.7524C72.0284 44.2197 66.5902 45.7946 60.5 45.7946C58.2764 45.7946 56.1398 45.5847 54.149 45.198L51.5772 48.8579C54.3398 49.4636 57.3291 49.7946 60.4496 49.7946C68.6515 49.7946 75.9471 47.5078 80.6013 43.9569L75.6043 41.7524ZM84.6235 45.7314C78.9579 50.0255 70.0359 52.7946 60 52.7946C56.3323 52.7946 52.8134 52.4248 49.5478 51.7458L47.0124 55.3539C51.1477 56.2847 55.6359 56.7946 60.3261 56.7946C72.4439 56.7946 83.2131 53.3911 90.0319 48.1175L84.6235 45.7314ZM64 34.2946C64 35.6753 62.433 36.7946 60.5 36.7946C58.567 36.7946 57 35.6753 57 34.2946C57 32.9139 58.567 31.7946 60.5 31.7946C62.433 31.7946 64 32.9139 64 34.2946Z" fill="white"/>
</g>
<defs>
<filter id="filter0_b_54_1628" x="-135.914" y="-135.914" width="392.329" height="341.828" filterUnits="userSpaceOnUse" color-interpolation-filters="sRGB">
<feFlood flood-opacity="0" result="BackgroundImageFix"/>
<feGaussianBlur in="BackgroundImageFix" stdDeviation="67.957"/>
<feComposite in2="SourceAlpha" operator="in" result="effect1_backgroundBlur_54_1628"/>
<feBlend mode="normal" in="SourceGraphic" in2="effect1_backgroundBlur_54_1628" result="shape"/>
</filter>
<filter id="filter1_d_54_1628" x="23" y="13" width="74.1772" height="45.7946" filterUnits="userSpaceOnUse" color-interpolation-filters="sRGB">
<feFlood flood-opacity="0" result="BackgroundImageFix"/>
<feColorMatrix in="SourceAlpha" type="matrix" values="0 0 0 0 0 0 0 0 0 0 0 0 0 0 0 0 0 0 127 0" result="hardAlpha"/>
<feOffset dy="2"/>
<feComposite in2="hardAlpha" operator="out"/>
<feColorMatrix type="matrix" values="0 0 0 0 0.117647 0 0 0 0 0.232922 0 0 0 0 0.537255 0 0 0 1 0"/>
<feBlend mode="normal" in2="BackgroundImageFix" result="effect1_dropShadow_54_1628"/>
<feBlend mode="normal" in="SourceGraphic" in2="effect1_dropShadow_54_1628" result="shape"/>
</filter>
</defs>
</svg>
