<svg width="121" height="88" viewBox="0 0 121 88" fill="none" xmlns="http://www.w3.org/2000/svg">
<path fill-rule="evenodd" clip-rule="evenodd" d="M0 35L60.3755 70V88L0 53V35Z" fill="#1E3D89" fill-opacity="0.8"/>
<g filter="url(#filter0_b_54_1612)">
<path fill-rule="evenodd" clip-rule="evenodd" d="M60.125 0L120.501 35L60.3755 70L0 35L60.125 0Z" fill="#1E3C89" fill-opacity="0.7"/>
</g>
<path fill-rule="evenodd" clip-rule="evenodd" d="M120.501 35L60.125 70V88L120.501 53V35Z" fill="#1E3B89"/>
<g filter="url(#filter1_d_54_1612)">
<path fill-rule="evenodd" clip-rule="evenodd" d="M29 28.5L47.25 18L53 25L58 28.25L63.25 25.25L71.75 30.25C71.75 30.25 69 33.75 73.75 37C78.5 40.25 85.75 38.25 85.75 38.25L90.25 41L69.75 53L42.5 37.75L47.75 34.25L42.5 31.5L29 28.5ZM81 37.75C85.4183 37.75 89 35.5114 89 32.75C89 29.9886 85.4183 27.75 81 27.75C76.5817 27.75 73 29.9886 73 32.75C73 35.5114 76.5817 37.75 81 37.75Z" fill="white"/>
</g>
<defs>
<filter id="filter0_b_54_1612" x="-135.914" y="-135.914" width="392.329" height="341.828" filterUnits="userSpaceOnUse" color-interpolation-filters="sRGB">
<feFlood flood-opacity="0" result="BackgroundImageFix"/>
<feGaussianBlur in="BackgroundImageFix" stdDeviation="67.957"/>
<feComposite in2="SourceAlpha" operator="in" result="effect1_backgroundBlur_54_1612"/>
<feBlend mode="normal" in="SourceGraphic" in2="effect1_backgroundBlur_54_1612" result="shape"/>
</filter>
<filter id="filter1_d_54_1612" x="29" y="18" width="61.25" height="37" filterUnits="userSpaceOnUse" color-interpolation-filters="sRGB">
<feFlood flood-opacity="0" result="BackgroundImageFix"/>
<feColorMatrix in="SourceAlpha" type="matrix" values="0 0 0 0 0 0 0 0 0 0 0 0 0 0 0 0 0 0 127 0" result="hardAlpha"/>
<feOffset dy="2"/>
<feComposite in2="hardAlpha" operator="out"/>
<feColorMatrix type="matrix" values="0 0 0 0 0.117647 0 0 0 0 0.232922 0 0 0 0 0.537255 0 0 0 1 0"/>
<feBlend mode="normal" in2="BackgroundImageFix" result="effect1_dropShadow_54_1612"/>
<feBlend mode="normal" in="SourceGraphic" in2="effect1_dropShadow_54_1612" result="shape"/>
</filter>
</defs>
</svg>
