<svg width="95" height="102" viewBox="0 0 95 102" fill="none" xmlns="http://www.w3.org/2000/svg">
<path fill-rule="evenodd" clip-rule="evenodd" d="M31 17.9999C31 27.2499 44.75 35.9999 62.5 35.9999C77.75 36.2499 94 29.2499 94 17.9999V29.5251C94 31.1565 93.6486 32.7704 92.685 34.0868C89.7073 38.1546 81.2025 46.7499 62.5 46.7499C43.7975 46.7499 35.2927 38.1546 32.315 34.0868C31.3514 32.7704 31 31.1572 31 29.5258V17.9999ZM62.5 47.9999C44.75 47.9999 31 39.2499 31 29.9999V41.5258C31 43.1572 31.3514 44.7704 32.315 46.0868C35.1166 49.9141 42.8108 57.7491 59.2878 58.6625C53.356 64.0885 42.7041 67.1672 32.5 66.9999C14.75 66.9999 1 58.2499 1 48.9999V60.5258C1 62.1572 1.35139 63.7704 2.315 65.0868C5.29274 69.1546 13.7975 77.7499 32.5 77.7499C50.8291 77.7499 59.3636 69.4944 62.5 65.3358V66.6826C58.1398 74.5501 44.9848 79.2046 32.5 78.9999C14.75 78.9999 1 70.2499 1 60.9999V72.5258C1 74.1572 1.35139 75.7704 2.315 77.0868C5.29274 81.1546 13.7975 89.7499 32.5 89.7499C51.2025 89.7499 59.7073 81.1546 62.685 77.0868C63.6486 75.7704 64 74.1565 64 72.5251V70.7312C81.66 70.2868 89.7881 62.0443 92.685 58.0868C93.6486 56.7704 94 55.1565 94 53.5251V41.9999C94 52.8817 78.7963 59.7872 64 60.0013V58.7312C81.66 58.2868 89.7881 50.0443 92.685 46.0868C93.6486 44.7704 94 43.1565 94 41.5251V29.9999C94 41.2499 77.75 48.2499 62.5 47.9999ZM32.5 90.9999C14.75 90.9999 1 82.2499 1 72.9999V84.5258C1 86.1572 1.35139 87.7704 2.315 89.0868C5.29274 93.1546 13.7975 101.75 32.5 101.75C51.2025 101.75 59.7073 93.1546 62.685 89.0868C63.6486 87.7704 64 86.1565 64 84.5251V72.9999C64 84.2499 47.75 91.2499 32.5 90.9999Z" fill="#1E3B89"/>
<g filter="url(#filter0_b_54_1623)">
<path fill-rule="evenodd" clip-rule="evenodd" d="M62.5556 36.1666C79.9525 36.1666 94.0556 28.1078 94.0556 18.1666C94.0556 8.2255 79.9525 0.166626 62.5556 0.166626C45.1586 0.166626 31.0556 8.2255 31.0556 18.1666C31.0556 23.7865 35.5626 28.8048 42.6238 32.1057C39.4624 31.4967 36.0764 31.1666 32.5556 31.1666C15.1586 31.1666 1.05557 39.2255 1.05557 49.1666C1.05557 59.1077 15.1586 67.1666 32.5556 67.1666C49.9525 67.1666 64.0556 59.1077 64.0556 49.1666C64.0556 43.5468 59.5486 38.5285 52.4873 35.2276C55.6488 35.8365 59.0347 36.1666 62.5556 36.1666Z" fill="#1E3C89" fill-opacity="0.7"/>
</g>
<defs>
<filter id="filter0_b_54_1623" x="-98.9444" y="-99.8334" width="293" height="267" filterUnits="userSpaceOnUse" color-interpolation-filters="sRGB">
<feFlood flood-opacity="0" result="BackgroundImageFix"/>
<feGaussianBlur in="BackgroundImageFix" stdDeviation="50"/>
<feComposite in2="SourceAlpha" operator="in" result="effect1_backgroundBlur_54_1623"/>
<feBlend mode="normal" in="SourceGraphic" in2="effect1_backgroundBlur_54_1623" result="shape"/>
</filter>
</defs>
</svg>
