<svg width="121" height="88" viewBox="0 0 121 88" fill="none" xmlns="http://www.w3.org/2000/svg">
<path fill-rule="evenodd" clip-rule="evenodd" d="M0 35L60.3755 70V88L0 53V35Z" fill="#1E3D89" fill-opacity="0.8"/>
<g filter="url(#filter0_b_54_1619)">
<path fill-rule="evenodd" clip-rule="evenodd" d="M60.125 0L120.501 35L60.3755 70L0 35L60.125 0Z" fill="#1E3C89" fill-opacity="0.7"/>
</g>
<path fill-rule="evenodd" clip-rule="evenodd" d="M120.5 35L60.125 70V88L120.5 53V35Z" fill="#1E3B89"/>
<g filter="url(#filter1_d_54_1619)">
<path fill-rule="evenodd" clip-rule="evenodd" d="M79 14H40V34.3145L32.75 28L30.5 30.25L34 33H23V36.25H34L30.5 39.25L33 41.5L40 35.2V56H79V36.25H90L86.5 39.25L89 41.5L96.5 34.75L88.75 28L86.5 30.25L90 33H79V14ZM76 16H43V54H76V16ZM56 18H59V22H56V18ZM56 30H59V34H56V30ZM56 42H59V46H56V42ZM67.5 21.25V18C67.5 18 75 20.5 75 27C75 32.5 67 36 67 36C67 36 63 38.75 63 41.75C63 46 67.5 48 67.5 48V51.25C65.5 51 60 48 60 41.75C60 36.5 67 32.75 67 32.75C67 32.75 72 30.5 72 26.75C72 23 67.5 21.25 67.5 21.25ZM56 24H59V28H56V24ZM49.284 18C45.936 18 45 19.092 45 20.988C45 22.884 45.936 23.976 49.284 23.976C52.62 23.976 53.568 22.884 53.568 20.988C53.568 19.104 52.62 18 49.284 18ZM46.392 20.988C46.392 19.992 46.968 19.632 49.284 19.632C51.588 19.632 52.176 20.004 52.176 20.988C52.176 21.996 51.588 22.368 49.284 22.368C46.98 22.368 46.392 21.996 46.392 20.988ZM45.12 27.72H51.972L51.576 25.68H52.944L53.448 28.164V29.364L45.12 29.364V27.72ZM45 35.076C45 33.18 45.936 32.088 49.284 32.088C52.62 32.088 53.568 33.192 53.568 35.076C53.568 36.972 52.62 38.064 49.284 38.064C45.936 38.064 45 36.972 45 35.076ZM49.284 33.72C46.968 33.72 46.392 34.08 46.392 35.076C46.392 36.084 46.98 36.456 49.284 36.456C51.588 36.456 52.176 36.084 52.176 35.076C52.176 34.092 51.588 33.72 49.284 33.72ZM45.12 41.808H51.972L51.576 39.768H52.944L53.448 42.252V43.452H45.12V41.808ZM51.972 48.852H45.12V50.496H53.448V49.296L52.944 46.812H51.576L51.972 48.852ZM56 36H59V40H56V36ZM59 48H56V52H59V48Z" fill="white"/>
</g>
<path d="M17.7328 59.929L15.9748 58.9139L15.9745 48.6659L17.7325 49.681L17.7328 59.929ZM25.5753 61.4892C25.5753 62.1892 25.4177 62.6862 25.1025 62.9802C24.7953 63.2695 24.3912 63.3815 23.8901 63.3162C23.3971 63.2555 22.8676 63.0618 22.3018 62.7351C21.4774 62.2591 20.7338 61.6104 20.071 60.789C19.4082 59.9583 18.9676 59.074 18.7494 58.136L20.18 58.024C20.374 58.6587 20.6569 59.2281 21.0287 59.7321C21.4006 60.2361 21.8451 60.6374 22.3624 60.9361C22.7827 61.1788 23.1141 61.2721 23.3566 61.2161C23.6071 61.1648 23.7324 60.9525 23.7324 60.5792C23.7324 60.2805 23.6475 59.9842 23.4778 59.6901C23.3161 59.4008 23.11 59.1278 22.8594 58.8711C22.6169 58.6191 22.2815 58.2948 21.8531 57.8981C21.2792 57.3707 20.8104 56.9087 20.4467 56.512C20.083 56.106 19.7718 55.637 19.5131 55.105C19.2544 54.573 19.1251 53.9943 19.1251 53.369C19.1251 52.7063 19.2746 52.2327 19.5736 51.948C19.8807 51.6587 20.2808 51.5444 20.7739 51.6051C21.275 51.6611 21.8125 51.8548 22.3864 52.1861C23.1704 52.6388 23.8413 53.2315 24.399 53.9642C24.9567 54.6969 25.3164 55.4599 25.4781 56.2532L24.0475 56.3652C23.902 55.8425 23.6837 55.3758 23.3927 54.9651C23.1018 54.5451 22.738 54.2091 22.3016 53.9571C21.9055 53.7284 21.5822 53.6491 21.3316 53.7191C21.0892 53.7844 20.9679 53.9897 20.9679 54.3351C20.968 54.5964 21.0447 54.8601 21.1983 55.1261C21.3519 55.3827 21.5459 55.6347 21.7803 55.8821C22.0228 56.1248 22.3461 56.4328 22.7502 56.8061C23.3322 57.3381 23.8131 57.8165 24.193 58.2412C24.5729 58.6565 24.8962 59.1419 25.163 59.6972C25.4378 60.2479 25.5752 60.8452 25.5753 61.4892ZM29.719 56.6019C30.5839 57.1013 31.3639 57.7523 32.059 58.555C32.7622 59.3624 33.3159 60.27 33.7201 61.278C34.1242 62.2767 34.3263 63.3081 34.3263 64.3721C34.3264 65.4361 34.1243 66.2387 33.7202 66.78C33.3161 67.3214 32.7665 67.5967 32.0714 67.606C31.3763 67.606 30.5923 67.3539 29.7193 66.8499L26.7611 65.1418L26.7607 54.8938L29.719 56.6019ZM29.5132 64.9949C30.4669 65.5456 31.1984 65.674 31.7076 65.38C32.2168 65.086 32.4714 64.393 32.4714 63.301C32.4713 62.2277 32.2126 61.2477 31.6953 60.361C31.1861 59.4696 30.4586 58.7509 29.513 58.2049L28.5188 57.6309L28.519 64.4209L29.5132 64.9949ZM37.1895 60.9153L41.4938 70.1764L41.4935 63.4004L43.1303 64.3455L43.1306 74.5935L41.7 73.7675L37.3836 64.4853L37.3838 71.2753L35.7713 70.3443L35.7709 60.0963L37.1895 60.9153Z" fill="white"/>
<defs>
<filter id="filter0_b_54_1619" x="-135.914" y="-135.914" width="392.329" height="341.828" filterUnits="userSpaceOnUse" color-interpolation-filters="sRGB">
<feFlood flood-opacity="0" result="BackgroundImageFix"/>
<feGaussianBlur in="BackgroundImageFix" stdDeviation="67.957"/>
<feComposite in2="SourceAlpha" operator="in" result="effect1_backgroundBlur_54_1619"/>
<feBlend mode="normal" in="SourceGraphic" in2="effect1_backgroundBlur_54_1619" result="shape"/>
</filter>
<filter id="filter1_d_54_1619" x="23" y="14" width="73.5" height="44" filterUnits="userSpaceOnUse" color-interpolation-filters="sRGB">
<feFlood flood-opacity="0" result="BackgroundImageFix"/>
<feColorMatrix in="SourceAlpha" type="matrix" values="0 0 0 0 0 0 0 0 0 0 0 0 0 0 0 0 0 0 127 0" result="hardAlpha"/>
<feOffset dy="2"/>
<feComposite in2="hardAlpha" operator="out"/>
<feColorMatrix type="matrix" values="0 0 0 0 0.117647 0 0 0 0 0.232922 0 0 0 0 0.537255 0 0 0 1 0"/>
<feBlend mode="normal" in2="BackgroundImageFix" result="effect1_dropShadow_54_1619"/>
<feBlend mode="normal" in="SourceGraphic" in2="effect1_dropShadow_54_1619" result="shape"/>
</filter>
</defs>
</svg>
