<svg width="118" height="87" viewBox="0 0 118 87" fill="none" xmlns="http://www.w3.org/2000/svg">
<path fill-rule="evenodd" clip-rule="evenodd" d="M74.817 0L15.3149 9.25L0 44L43 69L102 60L118 25L74.817 0Z" fill="#1E3C89" fill-opacity="0.7"/>
<path fill-rule="evenodd" clip-rule="evenodd" d="M0 44L43 68.8914V87L0 62.1086V44Z" fill="#1E3D89" fill-opacity="0.8"/>
<path fill-rule="evenodd" clip-rule="evenodd" d="M102 60L43 68.8914V87L102 78.1086V60Z" fill="#1E3B89"/>
<path fill-rule="evenodd" clip-rule="evenodd" d="M102 60L118 25V43.1086L102 78.1086V60Z" fill="#1E3B89"/>
<g filter="url(#filter0_d_54_1634)">
<path fill-rule="evenodd" clip-rule="evenodd" d="M31.25 19L27.5 21.25L44.5 31.25H38.75V34H52.75L44.5 38.75L74.5 56L110.75 34.75L80.5 17.25L72.75 22V13.75H68.25V17.25L51.25 7L47.5 9.5L64.25 19.5H58.5V23.5L41 13L37.5 15.5L54.25 25.5H48.5V29.25L31.25 19ZM81 22L77.75 24L96 34.5L92.25 36.75L74.25 25.75L71 27.75L89.25 38.5L85.5 40.5L67.5 30L64.75 31.5L82.75 42L79 44.25L61 33.75L52.25 38.5L74.75 51.5L103 35L81 22ZM63.25 22.5V27.5L72.25 22.5H63.25ZM53.25 33.5V28.5H62.25L53.25 33.5ZM23.4913 37.5136L25.6664 38.7647C26.3599 38.3884 26.8623 37.9884 27.1736 37.5645C27.4927 37.1407 27.6327 36.7089 27.5933 36.2692C27.5578 35.8272 27.3529 35.3897 26.9785 34.9568C26.6081 34.5261 26.0801 34.1136 25.3945 33.7192C24.3581 33.1231 23.1504 32.7049 21.7712 32.4646C20.4 32.2244 18.9499 32.1858 17.421 32.349C15.896 32.5145 14.3809 32.9055 12.8757 33.522C11.335 34.1589 10.2573 34.8468 9.64255 35.5858C9.03178 36.3224 8.85643 37.0579 9.1165 37.7923C9.38445 38.5268 10.0602 39.2056 11.1439 39.8289C11.8492 40.2347 12.6156 40.5508 13.4431 40.7775C14.2706 41.0041 15.1218 41.1492 15.9965 41.2127C16.8752 41.2739 17.7422 41.2603 18.5972 41.1719C19.4562 41.0812 20.264 40.9225 21.0206 40.6959L18.8159 39.4277C18.3391 39.5569 17.8485 39.6351 17.3442 39.6623C16.8437 39.6918 16.3472 39.6759 15.8547 39.6147C15.37 39.5535 14.903 39.4504 14.4538 39.3053C14.0086 39.158 13.5948 38.9744 13.2126 38.7546C12.5861 38.3941 12.2078 37.9997 12.0777 37.5713C11.9516 37.1407 12.1053 36.6987 12.5388 36.2454C12.9762 35.7943 13.7209 35.35 14.773 34.9126C15.8606 34.4683 16.9324 34.1759 17.9884 34.0354C19.0484 33.8926 20.0414 33.8903 20.9674 34.0286C21.8934 34.1669 22.6953 34.4309 23.373 34.8208C23.7277 35.0248 23.9995 35.2401 24.1887 35.4668C24.3818 35.6912 24.4862 35.9212 24.502 36.157C24.5177 36.3927 24.4428 36.6262 24.2773 36.8574C24.1158 37.0863 23.8538 37.305 23.4913 37.5136ZM16.7631 42.8708L19.1037 44.2172L23.5884 43.3629L28.1393 45.9808L25.6586 47.9878L27.9992 49.3341L37.8464 41.0723L35.1394 39.515L16.7631 42.8708ZM29.6031 44.7964L26.2348 42.8588L33.5612 41.4633L33.6558 41.5176L29.6031 44.7964ZM45.7516 45.6195L43.0682 44.0759L28.9535 49.883L31.0577 51.0934L40.7867 47.1018L40.899 47.1665L34.5627 53.0688L36.129 53.9698L49.1384 51.9264L49.2448 51.9876L39.5454 55.9757L41.6496 57.1861L55.7643 51.379L53.0808 49.8354L39.2676 51.9808L39.1257 51.8992L45.7516 45.6195ZM60.1363 57.7903C60.6998 57.4843 60.952 57.1466 60.8929 56.7771C60.8378 56.4099 60.4851 56.0393 59.8349 55.6653C59.3778 55.4024 58.905 55.2097 58.4163 55.0873C57.9356 54.9649 57.4687 54.9117 57.0155 54.9276C56.5663 54.9411 56.1644 55.0204 55.8098 55.1655C55.5181 55.2834 55.3231 55.4205 55.2246 55.5769C55.1261 55.7333 55.1005 55.8999 55.1477 56.0767C55.199 56.2558 55.2955 56.436 55.4373 56.6173C55.5832 56.8009 55.7467 56.9788 55.928 57.1511L56.7318 57.9399C57.0589 58.2504 57.3288 58.5712 57.5416 58.9021C57.7583 59.2308 57.8706 59.5583 57.8785 59.8847C57.8942 60.2111 57.7741 60.525 57.5179 60.8264C57.2618 61.1279 56.8264 61.4033 56.2117 61.6526C55.3842 61.9926 54.4739 62.1876 53.481 62.2374C52.4958 62.2873 51.4851 62.1887 50.4487 61.9416C49.4203 61.6946 48.4214 61.2922 47.4521 60.7346C46.5143 60.1952 45.868 59.6557 45.5134 59.1163C45.1627 58.5745 45.1174 58.0567 45.3774 57.5625C45.6414 57.0706 46.2266 56.6252 47.1329 56.2263L49.2903 57.4673C48.8253 57.6849 48.5436 57.9263 48.4451 58.1915C48.3504 58.4589 48.4076 58.7321 48.6165 59.0108C48.8253 59.2897 49.1582 59.5605 49.6154 59.8235C50.0922 60.0977 50.5946 60.3051 51.1226 60.4457C51.6545 60.5839 52.1707 60.6497 52.6712 60.6429C53.1795 60.636 53.6346 60.5488 54.0366 60.3811C54.403 60.2337 54.6177 60.058 54.6808 59.854C54.7438 59.65 54.6907 59.42 54.5212 59.1639C54.3597 58.9077 54.1232 58.6267 53.8119 58.3207L52.8544 57.3619C52.1648 56.666 51.8338 56.0268 51.8614 55.4444C51.8929 54.8641 52.413 54.3654 53.4218 53.9483C54.2572 53.6038 55.1793 53.4157 56.188 53.384C57.2007 53.3499 58.2134 53.4542 59.2261 53.6967C60.2427 53.937 61.1766 54.3019 62.0277 54.7915C62.8868 55.2856 63.4641 55.79 63.7596 56.3045C64.0591 56.8213 64.0787 57.3132 63.8187 57.7801C63.5665 58.247 63.0424 58.655 62.2465 59.0041L60.1363 57.7903Z" fill="white"/>
</g>
<defs>
<filter id="filter0_d_54_1634" x="9" y="7" width="101.75" height="57.25" filterUnits="userSpaceOnUse" color-interpolation-filters="sRGB">
<feFlood flood-opacity="0" result="BackgroundImageFix"/>
<feColorMatrix in="SourceAlpha" type="matrix" values="0 0 0 0 0 0 0 0 0 0 0 0 0 0 0 0 0 0 127 0" result="hardAlpha"/>
<feOffset dy="2"/>
<feComposite in2="hardAlpha" operator="out"/>
<feColorMatrix type="matrix" values="0 0 0 0 0.117647 0 0 0 0 0.232922 0 0 0 0 0.537255 0 0 0 1 0"/>
<feBlend mode="normal" in2="BackgroundImageFix" result="effect1_dropShadow_54_1634"/>
<feBlend mode="normal" in="SourceGraphic" in2="effect1_dropShadow_54_1634" result="shape"/>
</filter>
</defs>
</svg>
