<svg width="121" height="88" viewBox="0 0 121 88" fill="none" xmlns="http://www.w3.org/2000/svg">
<path fill-rule="evenodd" clip-rule="evenodd" d="M0 35L60.3755 70V88L0 53V35Z" fill="#1E3D89" fill-opacity="0.8"/>
<g filter="url(#filter0_b_54_1618)">
<path fill-rule="evenodd" clip-rule="evenodd" d="M60.125 0L120.501 35L60.3755 70L0 35L60.125 0Z" fill="#1E3C89" fill-opacity="0.7"/>
</g>
<path fill-rule="evenodd" clip-rule="evenodd" d="M120.5 35L60.125 70V88L120.5 53V35Z" fill="#1E3B89"/>
<g filter="url(#filter1_d_54_1618)">
<path fill-rule="evenodd" clip-rule="evenodd" d="M79 13H40V33.3145L32.75 27L30.5 29.25L34 32H23V35.25H34L30.5 38.25L33 40.5L40 34.2V55H79V35.25H90L86.5 38.25L89 40.5L96.5 33.75L88.75 27L86.5 29.25L90 32H79V13ZM76 15H43V53H76V15ZM56 17H59V21H56V17ZM56 29H59V33H56V29ZM56 41H59V45H56V41ZM67.5 20.25V17C67.5 17 75 19.5 75 26C75 31.5 67 35 67 35C67 35 63 37.75 63 40.75C63 45 67.5 47 67.5 47V50.25C65.5 50 60 47 60 40.75C60 35.5 67 31.75 67 31.75C67 31.75 72 29.5 72 25.75C72 22 67.5 20.25 67.5 20.25ZM56 23H59V27H56V23ZM49.284 17C45.936 17 45 18.092 45 19.988C45 21.884 45.936 22.976 49.284 22.976C52.62 22.976 53.568 21.884 53.568 19.988C53.568 18.104 52.62 17 49.284 17ZM46.392 19.988C46.392 18.992 46.968 18.632 49.284 18.632C51.588 18.632 52.176 19.004 52.176 19.988C52.176 20.996 51.588 21.368 49.284 21.368C46.98 21.368 46.392 20.996 46.392 19.988ZM45.12 26.72H51.972L51.576 24.68H52.944L53.448 27.164V28.364L45.12 28.364V26.72ZM45 34.076C45 32.18 45.936 31.088 49.284 31.088C52.62 31.088 53.568 32.192 53.568 34.076C53.568 35.972 52.62 37.064 49.284 37.064C45.936 37.064 45 35.972 45 34.076ZM49.284 32.72C46.968 32.72 46.392 33.08 46.392 34.076C46.392 35.084 46.98 35.456 49.284 35.456C51.588 35.456 52.176 35.084 52.176 34.076C52.176 33.092 51.588 32.72 49.284 32.72ZM45.12 40.808H51.972L51.576 38.768H52.944L53.448 41.252V42.452H45.12V40.808ZM51.972 47.852H45.12V49.496H53.448V48.296L52.944 45.812H51.576L51.972 47.852ZM56 35H59V39H56V35ZM59 47H56V51H59V47Z" fill="white"/>
</g>
<path d="M18.3418 50.4968L19.4849 51.1568L19.4852 59.9408L18.0511 59.1128L18.0509 53.4488L16.1181 55.6567L15.3283 55.2007L13.3848 50.7306L13.385 56.4186L11.9613 55.5966L11.961 46.8126L13.1561 47.5026L15.7543 53.5507L18.3418 50.4968ZM20.6483 57.5044C20.6482 56.8564 20.7729 56.3564 21.0223 56.0044C21.2786 55.6565 21.6181 55.4725 22.0407 55.4525C22.4633 55.4245 22.9206 55.5525 23.4125 55.8365C23.8974 56.1165 24.3478 56.5126 24.7634 57.0246C25.1861 57.5326 25.5221 58.1066 25.7715 58.7466C26.0279 59.3906 26.1561 60.0366 26.1561 60.6846C26.1561 61.3326 26.0279 61.8306 25.7716 62.1786C25.5222 62.5306 25.1862 62.7166 24.7636 62.7366C24.3479 62.7606 23.8976 62.6325 23.4127 62.3525C22.9208 62.0685 22.4635 61.6725 22.0409 61.1645C21.6183 60.6565 21.2788 60.0805 21.0224 59.4364C20.773 58.7964 20.6483 58.1524 20.6483 57.5044ZM22.1447 58.3685C22.1447 58.9205 22.2625 59.4285 22.4981 59.8925C22.7406 60.3525 23.042 60.6865 23.4022 60.8945C23.7625 61.1025 24.0604 61.1145 24.2959 60.9306C24.5315 60.7386 24.6492 60.3666 24.6492 59.8146C24.6492 59.2626 24.5314 58.7546 24.2958 58.2906C24.0603 57.8265 23.7624 57.4905 23.4021 57.2825C23.0419 57.0745 22.7405 57.0645 22.498 57.2525C22.2625 57.4445 22.1447 57.8165 22.1447 58.3685ZM30.9423 57.4243L32.3869 58.2583L32.3871 67.3903L31.1193 66.6583C31.0846 66.1743 31.0569 65.8463 31.0361 65.6743C30.8491 65.9263 30.6032 66.0563 30.2983 66.0643C30.0004 66.0683 29.6748 65.9682 29.3215 65.7642C28.8781 65.5082 28.4728 65.1462 28.1056 64.6782C27.7384 64.2102 27.4439 63.6682 27.2222 63.0522C27.0005 62.4282 26.8896 61.7802 26.8896 61.1082C26.8896 60.4282 27.0004 59.9082 27.2221 59.5482C27.4438 59.1802 27.7382 58.9742 28.1054 58.9302C28.4726 58.8862 28.8779 58.9922 29.3213 59.2482C29.6469 59.4362 29.9483 59.6862 30.2254 59.9983C30.5094 60.3143 30.7485 60.6843 30.9425 61.1083L30.9423 57.4243ZM29.654 64.5282C30.0142 64.7363 30.3191 64.7603 30.5685 64.6003C30.8179 64.4403 30.9426 64.0563 30.9425 63.4483C30.9425 62.8483 30.8178 62.3323 30.5684 61.9003C30.319 61.4603 30.0141 61.1363 29.6539 60.9282C29.2728 60.7082 28.9645 60.6862 28.729 60.8622C28.5004 61.0422 28.3861 61.4122 28.3861 61.9722C28.3861 62.5322 28.5004 63.0422 28.7291 63.5022C28.9646 63.9662 29.2729 64.3082 29.654 64.5282ZM36.1271 63.1779C36.6052 63.4539 37.0278 63.8219 37.395 64.2819C37.7691 64.7379 38.0566 65.2479 38.2576 65.812C38.4654 66.372 38.5693 66.94 38.5694 67.516C38.5694 67.772 38.5486 68.02 38.507 68.26L34.9322 66.1958C34.9945 66.6958 35.14 67.1319 35.3687 67.5039C35.5973 67.8679 35.8813 68.1479 36.2208 68.3439C36.4633 68.4839 36.6781 68.5479 36.8651 68.5359C37.0591 68.5199 37.2081 68.4179 37.312 68.2299L38.372 69.562C38.2265 69.934 37.9459 70.1239 37.5303 70.1319C37.1215 70.1439 36.6643 70.0039 36.1585 69.7119C35.6735 69.4319 35.2232 69.0479 34.8075 68.5598C34.3918 68.0718 34.0558 67.5058 33.7995 66.8618C33.55 66.2218 33.4253 65.5538 33.4253 64.8578C33.4253 64.1698 33.5499 63.6538 33.7993 63.3098C34.0557 62.9698 34.3882 62.7938 34.7969 62.7818C35.2057 62.7699 35.6491 62.9019 36.1271 63.1779ZM36.0856 64.5099C35.8016 64.3459 35.5591 64.3099 35.3582 64.4019C35.1573 64.4939 35.0222 64.7078 34.9529 65.0438L37.0937 66.2799C37.0659 65.8799 36.9586 65.5259 36.7715 65.2179C36.5914 64.9059 36.3627 64.6699 36.0856 64.5099ZM45.5802 68.636C46.0998 68.936 46.5224 69.4081 46.8481 70.0521C47.1737 70.6881 47.3365 71.4301 47.3366 72.2781L47.3367 76.0221L45.9234 75.206L45.9233 72.026C45.9232 70.89 45.6495 70.164 45.1022 69.848C44.8043 69.676 44.5653 69.694 44.3852 69.902C44.212 70.114 44.1254 70.496 44.1254 71.048L44.1255 74.168L42.7226 73.3579L42.7225 70.1779C42.7225 69.0419 42.4488 68.3159 41.9015 67.9999C41.6035 67.8279 41.368 67.8479 41.1948 68.0599C41.0216 68.2719 40.935 68.6539 40.935 69.2059L40.9351 72.3259L39.5218 71.5098L39.5216 65.2938L40.7583 66.0079C40.7929 66.4839 40.8207 66.8039 40.8414 66.9679C41.1948 66.4599 41.7074 66.3999 42.3794 66.7879C42.7397 66.9959 43.0549 67.2859 43.3251 67.658C43.5953 68.03 43.7997 68.468 43.9383 68.972C44.1115 68.632 44.3401 68.44 44.6242 68.396C44.9082 68.352 45.2269 68.432 45.5802 68.636Z" fill="white"/>
<defs>
<filter id="filter0_b_54_1618" x="-135.914" y="-135.914" width="392.329" height="341.828" filterUnits="userSpaceOnUse" color-interpolation-filters="sRGB">
<feFlood flood-opacity="0" result="BackgroundImageFix"/>
<feGaussianBlur in="BackgroundImageFix" stdDeviation="67.957"/>
<feComposite in2="SourceAlpha" operator="in" result="effect1_backgroundBlur_54_1618"/>
<feBlend mode="normal" in="SourceGraphic" in2="effect1_backgroundBlur_54_1618" result="shape"/>
</filter>
<filter id="filter1_d_54_1618" x="23" y="13" width="73.5" height="44" filterUnits="userSpaceOnUse" color-interpolation-filters="sRGB">
<feFlood flood-opacity="0" result="BackgroundImageFix"/>
<feColorMatrix in="SourceAlpha" type="matrix" values="0 0 0 0 0 0 0 0 0 0 0 0 0 0 0 0 0 0 127 0" result="hardAlpha"/>
<feOffset dy="2"/>
<feComposite in2="hardAlpha" operator="out"/>
<feColorMatrix type="matrix" values="0 0 0 0 0.117647 0 0 0 0 0.232922 0 0 0 0 0.537255 0 0 0 1 0"/>
<feBlend mode="normal" in2="BackgroundImageFix" result="effect1_dropShadow_54_1618"/>
<feBlend mode="normal" in="SourceGraphic" in2="effect1_dropShadow_54_1618" result="shape"/>
</filter>
</defs>
</svg>
