<svg width="121" height="88" viewBox="0 0 121 88" fill="none" xmlns="http://www.w3.org/2000/svg">
<path fill-rule="evenodd" clip-rule="evenodd" d="M0 35L60.3755 70V88L0 53V35Z" fill="#1E3D89" fill-opacity="0.8"/>
<g filter="url(#filter0_b_56_1463)">
<path fill-rule="evenodd" clip-rule="evenodd" d="M60.125 0L120.501 35L60.3755 70L0 35L60.125 0Z" fill="#1E3C89" fill-opacity="0.7"/>
</g>
<path fill-rule="evenodd" clip-rule="evenodd" d="M120.5 35L60.125 70V88L120.5 53V35Z" fill="#1E3B89"/>
<g filter="url(#filter1_d_56_1463)">
<path fill-rule="evenodd" clip-rule="evenodd" d="M43 14.5L60.5 4L78 14.5L72.75 17.5L65.75 13.5V25.1328C64.0539 24.7249 62.1968 24.5 60.25 24.5C58.6791 24.5 57.1666 24.6464 55.75 24.9173V13.5L48.25 17.5L43 14.5ZM74.75 33C74.75 32.1299 74.527 31.2904 74.1127 30.5H94.75L87.75 26.25L92.75 23L110.5 33.5L92.75 43.5L87.25 40.75L94.75 36.5H73.4676C74.2914 35.4326 74.75 34.2477 74.75 33ZM60.25 41.5C62.1968 41.5 64.0539 41.2751 65.75 40.8672V55.75L73.25 50.75L78 53.75L60 64.5L42 53.75L47 50.75L55.75 55.75V41.0827C57.1666 41.3536 58.6791 41.5 60.25 41.5ZM45.75 33C45.75 32.1299 45.973 31.2904 46.3873 30.5H25.75L32.75 26.25L27.75 23L10 33.5L27.75 43.5L33.25 40.75L25.75 36.5H47.0324C46.2086 35.4326 45.75 34.2477 45.75 33ZM60.4265 37.5C65.1209 37.5 68.9265 35.4853 68.9265 33C68.9265 30.5147 65.1209 28.5 60.4265 28.5C55.7321 28.5 51.9265 30.5147 51.9265 33C51.9265 35.4853 55.7321 37.5 60.4265 37.5Z" fill="white"/>
</g>
<defs>
<filter id="filter0_b_56_1463" x="-135.914" y="-135.914" width="392.329" height="341.828" filterUnits="userSpaceOnUse" color-interpolation-filters="sRGB">
<feFlood flood-opacity="0" result="BackgroundImageFix"/>
<feGaussianBlur in="BackgroundImageFix" stdDeviation="67.957"/>
<feComposite in2="SourceAlpha" operator="in" result="effect1_backgroundBlur_56_1463"/>
<feBlend mode="normal" in="SourceGraphic" in2="effect1_backgroundBlur_56_1463" result="shape"/>
</filter>
<filter id="filter1_d_56_1463" x="10" y="4" width="100.5" height="62.5" filterUnits="userSpaceOnUse" color-interpolation-filters="sRGB">
<feFlood flood-opacity="0" result="BackgroundImageFix"/>
<feColorMatrix in="SourceAlpha" type="matrix" values="0 0 0 0 0 0 0 0 0 0 0 0 0 0 0 0 0 0 127 0" result="hardAlpha"/>
<feOffset dy="2"/>
<feComposite in2="hardAlpha" operator="out"/>
<feColorMatrix type="matrix" values="0 0 0 0 0.117647 0 0 0 0 0.232922 0 0 0 0 0.537255 0 0 0 1 0"/>
<feBlend mode="normal" in2="BackgroundImageFix" result="effect1_dropShadow_56_1463"/>
<feBlend mode="normal" in="SourceGraphic" in2="effect1_dropShadow_56_1463" result="shape"/>
</filter>
</defs>
</svg>
