<svg width="122" height="88" viewBox="0 0 122 88" fill="none" xmlns="http://www.w3.org/2000/svg">
<path fill-rule="evenodd" clip-rule="evenodd" d="M0 35L60.3755 70V88L0 53V35Z" fill="#1E3D89" fill-opacity="0.8"/>
<g filter="url(#filter0_b_54_1604)">
<path fill-rule="evenodd" clip-rule="evenodd" d="M60.125 0L120.501 35L60.3755 70L0 35L60.125 0Z" fill="#1E3C89" fill-opacity="0.7"/>
</g>
<path fill-rule="evenodd" clip-rule="evenodd" d="M120.501 35L60.125 70V88L120.501 53V35Z" fill="#1E3B89"/>
<g filter="url(#filter1_d_54_1604)">
<path fill-rule="evenodd" clip-rule="evenodd" d="M19 27.8205V40.9487H25.9744V34.7949L35.8205 40.9487L55.1026 38.4872L51 49.1538L60.4359 54.8974H51V59H72.7436V45.8718H66.1795V51.6154L59.6154 47.5128L63.7179 37.2564L82.1795 34.7949L88.7436 38.4872H79.3077V42.5897H101.872V29.4615H94.8974V34.7949L85.0513 29.4615L65.359 31.5128L69.8718 20.8462L60.4359 15.5128H69.8718V11H47.7179V23.7179H54.2821V18.3846L61.2564 22.4872L57.1538 32.7436L38.2821 35.6154L32.1282 31.9231H41.5641V27.8205H19Z" fill="white"/>
</g>
<path d="M120.627 39.715L120.883 40.1451L120.883 40.1451L120.627 39.715ZM120.842 39.5875L121.098 40.0175L121.528 39.7624L121.273 39.3324L120.842 39.5875ZM61.6275 74.715L61.8826 75.1451H61.8826L61.6275 74.715ZM61.4124 74.8426L60.9824 75.0977L61.2375 75.5277L61.6675 75.2726L61.4124 74.8426ZM61.1573 74.4126L60.9022 73.9825L60.4722 74.2376L60.7273 74.6677L61.1573 74.4126ZM61.3724 74.285L61.1173 73.855H61.1173L61.3724 74.285ZM120.372 39.285L120.117 38.855V38.855L120.372 39.285ZM120.587 39.1575L121.017 38.9024L120.762 38.4723L120.332 38.7274L120.587 39.1575ZM120.627 43.715L120.883 44.1451V44.1451L120.627 43.715ZM120.842 43.5875L121.098 44.0175L121.528 43.7624L121.273 43.3324L120.842 43.5875ZM61.6275 78.715L61.8826 79.1451H61.8826L61.6275 78.715ZM61.4124 78.8426L60.9824 79.0977L61.2375 79.5277L61.6675 79.2726L61.4124 78.8426ZM61.1573 78.4126L60.9022 77.9825L60.4722 78.2376L60.7273 78.6677L61.1573 78.4126ZM61.3724 78.285L61.1173 77.855H61.1173L61.3724 78.285ZM120.372 43.285L120.117 42.855V42.855L120.372 43.285ZM120.587 43.1575L121.017 42.9024L120.762 42.4723L120.332 42.7274L120.587 43.1575ZM120.842 47.5875L121.098 48.0175L121.528 47.7624L121.273 47.3324L120.842 47.5875ZM120.627 47.715L120.883 48.1451V48.1451L120.627 47.715ZM120.587 47.1575L121.017 46.9024L120.762 46.4723L120.332 46.7274L120.587 47.1575ZM120.372 47.285L120.117 46.855V46.855L120.372 47.285ZM61.3724 82.285L61.1173 81.855H61.1173L61.3724 82.285ZM61.1573 82.4126L60.9022 81.9825L60.4722 82.2376L60.7273 82.6677L61.1573 82.4126ZM61.4124 82.8426L60.9824 83.0977L61.2375 83.5277L61.6675 83.2726L61.4124 82.8426ZM61.6275 82.715L61.8826 83.1451H61.8826L61.6275 82.715ZM120.883 40.1451L121.098 40.0175L120.587 39.1575L120.372 39.285L120.883 40.1451ZM61.8826 75.1451L120.883 40.1451L120.372 39.285L61.3724 74.285L61.8826 75.1451ZM61.6675 75.2726L61.8826 75.1451L61.3724 74.285L61.1574 74.4126L61.6675 75.2726ZM60.7273 74.6677L60.9824 75.0977L61.8425 74.5875L61.5874 74.1575L60.7273 74.6677ZM61.1173 73.855L60.9022 73.9825L61.4125 74.8426L61.6275 74.715L61.1173 73.855ZM120.117 38.855L61.1173 73.855L61.6275 74.715L120.627 39.715L120.117 38.855ZM120.332 38.7274L120.117 38.855L120.627 39.715L120.842 39.5875L120.332 38.7274ZM121.273 39.3324L121.017 38.9024L120.157 39.4126L120.412 39.8426L121.273 39.3324ZM120.883 44.1451L121.098 44.0175L120.587 43.1575L120.372 43.285L120.883 44.1451ZM61.8826 79.1451L120.883 44.1451L120.372 43.285L61.3724 78.285L61.8826 79.1451ZM61.6675 79.2726L61.8826 79.1451L61.3724 78.285L61.1574 78.4126L61.6675 79.2726ZM60.7273 78.6677L60.9824 79.0977L61.8425 78.5875L61.5874 78.1575L60.7273 78.6677ZM61.1173 77.855L60.9022 77.9825L61.4125 78.8426L61.6275 78.715L61.1173 77.855ZM120.117 42.855L61.1173 77.855L61.6275 78.715L120.627 43.715L120.117 42.855ZM120.332 42.7274L120.117 42.855L120.627 43.715L120.842 43.5875L120.332 42.7274ZM121.273 43.3324L121.017 42.9024L120.157 43.4126L120.412 43.8426L121.273 43.3324ZM120.587 47.1575L120.372 47.285L120.883 48.1451L121.098 48.0175L120.587 47.1575ZM120.157 47.4126L120.412 47.8426L121.273 47.3324L121.017 46.9024L120.157 47.4126ZM120.627 47.715L120.842 47.5875L120.332 46.7274L120.117 46.855L120.627 47.715ZM61.6275 82.715L120.627 47.715L120.117 46.855L61.1173 81.855L61.6275 82.715ZM61.4125 82.8426L61.6275 82.715L61.1173 81.855L60.9022 81.9825L61.4125 82.8426ZM61.8425 82.5875L61.5874 82.1575L60.7273 82.6677L60.9824 83.0977L61.8425 82.5875ZM61.3724 82.285L61.1574 82.4126L61.6675 83.2726L61.8826 83.1451L61.3724 82.285ZM120.372 47.285L61.3724 82.285L61.8826 83.1451L120.883 48.1451L120.372 47.285Z" fill="white" fill-opacity="0.438401"/>
<path d="M22.5784 52.479L24.4215 60.431L26.1186 54.5231L27.816 55.5031L25.052 64.155L23.6941 63.371L21.8268 55.6009L20.0205 61.2499L18.6747 60.4728L15.7889 48.5588L17.6075 49.6088L19.4263 57.5469L21.172 51.6669L22.5784 52.479ZM31.9967 57.9171L35.5858 70.2372L33.7187 69.1591L32.9427 66.3731L29.4873 64.378L28.7357 66.282L26.9777 65.2669L30.457 57.028L31.9967 57.9171ZM32.3728 64.3081L31.1845 60.024L30.0328 62.957L32.3728 64.3081ZM39.655 62.3389C40.3582 62.7449 40.9725 63.2396 41.4979 63.823C42.0233 64.4063 42.4274 65.0363 42.7104 65.713C43.0014 66.385 43.1469 67.0617 43.1469 67.743C43.1469 68.415 43.0014 68.9237 42.7105 69.269C42.4276 69.6097 42.0235 69.7683 41.4981 69.745C40.9727 69.7123 40.3584 69.4929 39.6552 69.0869L38.358 68.3379L38.3581 71.8379L36.6001 70.8228L36.5997 60.5748L39.655 62.3389ZM39.4612 67.2529C40.0108 67.5702 40.4513 67.6893 40.7827 67.6099C41.1141 67.5213 41.2798 67.2063 41.2798 66.665C41.2798 66.1236 41.114 65.6173 40.7826 65.1459C40.4512 64.6653 40.0107 64.2662 39.4611 63.9489L38.3578 63.3119L38.3579 66.6159L39.4612 67.2529Z" fill="white"/>
<defs>
<filter id="filter0_b_54_1604" x="-135.914" y="-135.914" width="392.329" height="341.828" filterUnits="userSpaceOnUse" color-interpolation-filters="sRGB">
<feFlood flood-opacity="0" result="BackgroundImageFix"/>
<feGaussianBlur in="BackgroundImageFix" stdDeviation="67.957"/>
<feComposite in2="SourceAlpha" operator="in" result="effect1_backgroundBlur_54_1604"/>
<feBlend mode="normal" in="SourceGraphic" in2="effect1_backgroundBlur_54_1604" result="shape"/>
</filter>
<filter id="filter1_d_54_1604" x="19" y="11" width="82.8718" height="50" filterUnits="userSpaceOnUse" color-interpolation-filters="sRGB">
<feFlood flood-opacity="0" result="BackgroundImageFix"/>
<feColorMatrix in="SourceAlpha" type="matrix" values="0 0 0 0 0 0 0 0 0 0 0 0 0 0 0 0 0 0 127 0" result="hardAlpha"/>
<feOffset dy="2"/>
<feComposite in2="hardAlpha" operator="out"/>
<feColorMatrix type="matrix" values="0 0 0 0 0.117647 0 0 0 0 0.232922 0 0 0 0 0.537255 0 0 0 1 0"/>
<feBlend mode="normal" in2="BackgroundImageFix" result="effect1_dropShadow_54_1604"/>
<feBlend mode="normal" in="SourceGraphic" in2="effect1_dropShadow_54_1604" result="shape"/>
</filter>
</defs>
</svg>
