<svg width="121" height="88" viewBox="0 0 121 88" fill="none" xmlns="http://www.w3.org/2000/svg">
<path fill-rule="evenodd" clip-rule="evenodd" d="M0 35L60.3755 70V88L0 53V35Z" fill="#1E3D89" fill-opacity="0.8"/>
<g filter="url(#filter0_b_54_1603)">
<path fill-rule="evenodd" clip-rule="evenodd" d="M60.125 0L120.501 35L60.3755 70L0 35L60.125 0Z" fill="#1E3C89" fill-opacity="0.7"/>
</g>
<path fill-rule="evenodd" clip-rule="evenodd" d="M120.501 35L60.125 70V88L120.501 53V35Z" fill="#1E3B89"/>
<g filter="url(#filter1_d_54_1603)">
<path fill-rule="evenodd" clip-rule="evenodd" d="M19 27.8205V40.9487H25.9744V34.7949L35.8205 40.9487L55.1026 38.4872L51 49.1538L60.4359 54.8974H51V59H72.7436V45.8718H66.1795V51.6154L59.6154 47.5128L63.7179 37.2564L82.1795 34.7949L88.7436 38.4872H79.3077V42.5897H101.872V29.4615H94.8974V34.7949L85.0513 29.4615L65.359 31.5128L69.8718 20.8462L60.4359 15.5128H69.8718V11H47.7179V23.7179H54.2821V18.3846L61.2564 22.4872L57.1538 32.7436L38.2821 35.6154L32.1282 31.9231H41.5641V27.8205H19Z" fill="white"/>
</g>
<defs>
<filter id="filter0_b_54_1603" x="-135.914" y="-135.914" width="392.329" height="341.828" filterUnits="userSpaceOnUse" color-interpolation-filters="sRGB">
<feFlood flood-opacity="0" result="BackgroundImageFix"/>
<feGaussianBlur in="BackgroundImageFix" stdDeviation="67.957"/>
<feComposite in2="SourceAlpha" operator="in" result="effect1_backgroundBlur_54_1603"/>
<feBlend mode="normal" in="SourceGraphic" in2="effect1_backgroundBlur_54_1603" result="shape"/>
</filter>
<filter id="filter1_d_54_1603" x="19" y="11" width="82.8718" height="50" filterUnits="userSpaceOnUse" color-interpolation-filters="sRGB">
<feFlood flood-opacity="0" result="BackgroundImageFix"/>
<feColorMatrix in="SourceAlpha" type="matrix" values="0 0 0 0 0 0 0 0 0 0 0 0 0 0 0 0 0 0 127 0" result="hardAlpha"/>
<feOffset dy="2"/>
<feComposite in2="hardAlpha" operator="out"/>
<feColorMatrix type="matrix" values="0 0 0 0 0.117647 0 0 0 0 0.232922 0 0 0 0 0.537255 0 0 0 1 0"/>
<feBlend mode="normal" in2="BackgroundImageFix" result="effect1_dropShadow_54_1603"/>
<feBlend mode="normal" in="SourceGraphic" in2="effect1_dropShadow_54_1603" result="shape"/>
</filter>
</defs>
</svg>
