<svg width="153" height="180" viewBox="0 0 153 180" fill="none" xmlns="http://www.w3.org/2000/svg">
<path opacity="0.9" fill-rule="evenodd" clip-rule="evenodd" d="M85 178V86L4 40L4 132L85 178Z" fill="#03571F"/>
<g filter="url(#filter0_b_56_1460)">
<path fill-rule="evenodd" clip-rule="evenodd" d="M153 47L85 86L4 40L72 0L153 47ZM35 59L32 61L0 42L3.25 40.5L35 59ZM35 71L32 73L0 54L3.25 52.5L35 71ZM32 85L35 83L3.25 64.5L0 66L32 85ZM79 133L81 132L49 114L47 115L79 133ZM84 111L81 113L45 92L48.25 90.5L84 111ZM79 149L81 148L49 130L47 131L79 149ZM79 141L81 140L49 122L47 123L79 141ZM84 99L81 101L45 80L48.25 78.5L84 99ZM79 157L81 156L49 138L47 139L79 157ZM79 169L81 168L49 150L47 151L79 169ZM84 87L81 89L45 68L48.25 66.5L84 87ZM79 137L81 136L49 118L47 119L79 137ZM79 153L81 152L49 134L47 135L79 153ZM81 164L79 165L47 147L49 146L81 164ZM79 145L81 144L49 126L47 127L79 145ZM81 160L79 161L47 143L49 142L81 160ZM79 129L81 128L49 110L47 111L79 129Z" fill="#03571F" fill-opacity="0.7"/>
</g>
<g filter="url(#filter1_b_56_1460)">
<path fill-rule="evenodd" clip-rule="evenodd" d="M32 72V61L0 42V53L32 72ZM32 84V73L0 54V65L32 84ZM32 85V151.75L0 132.75V66L32 85ZM81 180V113L45 92V158.75L81 180ZM47 109L79 127V129L47 111V109ZM47 125L79 143V145L47 127V125ZM79 159L47 141V143L79 161V159ZM47 117L79 135V137L47 119V117ZM79 151L47 133V135L79 153V151ZM47 149L79 167V169L47 151V149ZM79 131L47 113V115L79 133V131ZM47 129L79 147V149L47 131V129ZM79 163L47 145V147L79 165V163ZM47 121L79 139V141L47 123V121ZM79 155L47 137V139L79 157V155ZM81 101V112L45 91V80L81 101ZM81 89V100L45 79V68L81 89Z" fill="#03571F" fill-opacity="0.8"/>
</g>
<path fill-rule="evenodd" clip-rule="evenodd" d="M153 47L85 86V178L153 138.614V47ZM35 59L32 61V72L35 70V59ZM35 71L32 73V84L35 82V71ZM32 85L35 83V150L32 151.75V85ZM81 113L84 111V178.25L81 180V113ZM81 101L84 99V110L81 112V101ZM81 89L84 87V98L81 100V89ZM49 110L47 109V111L49 110ZM49 126L47 125V127L49 126ZM47 117L49 118L47 119V117ZM49 134L47 133V135L49 134ZM47 145L49 146L47 147V145ZM49 114L47 113V115L49 114ZM47 129L49 130L47 131V129ZM49 142L47 141V143L49 142ZM47 121L49 122L47 123V121ZM49 138L47 137V139L49 138ZM47 149L49 150L47 151V149Z" fill="#03571F"/>
<g filter="url(#filter2_b_56_1460)">
<path d="M103.619 104.68C102.965 104.302 102.403 103.796 101.934 103.161C101.465 102.526 101.154 101.791 101 100.956L102.455 100.9C102.552 101.376 102.694 101.77 102.88 102.083C103.074 102.4 103.324 102.648 103.631 102.825C104.035 103.058 104.322 103.056 104.492 102.818C104.662 102.571 104.747 102.088 104.747 101.369L104.746 94.9151L106.504 95.9302L106.505 102.58C106.505 103.915 106.234 104.72 105.692 104.995C105.151 105.27 104.46 105.165 103.619 104.68ZM114.269 107.693C114.269 108.393 114.112 108.89 113.797 109.184C113.49 109.474 113.085 109.586 112.584 109.52C112.091 109.46 111.562 109.266 110.996 108.939C110.172 108.463 109.428 107.815 108.765 106.993C108.102 106.163 107.662 105.278 107.444 104.34L108.874 104.228C109.068 104.863 109.351 105.432 109.723 105.936C110.095 106.44 110.539 106.842 111.057 107.14C111.477 107.383 111.808 107.476 112.051 107.42C112.301 107.369 112.427 107.157 112.427 106.783C112.427 106.485 112.342 106.188 112.172 105.894C112.01 105.605 111.804 105.332 111.554 105.075C111.311 104.823 110.976 104.499 110.547 104.102C109.973 103.575 109.505 103.113 109.141 102.716C108.777 102.31 108.466 101.841 108.207 101.309C107.949 100.777 107.819 100.199 107.819 99.5733C107.819 98.9106 107.969 98.437 108.268 98.1523C108.575 97.863 108.975 97.7486 109.468 97.8093C109.969 97.8653 110.507 98.059 111.081 98.3904C111.865 98.8431 112.535 99.4358 113.093 100.168C113.651 100.901 114.011 101.664 114.172 102.457L112.742 102.569C112.596 102.047 112.378 101.58 112.087 101.169C111.796 100.749 111.432 100.413 110.996 100.161C110.6 99.9327 110.276 99.8534 110.026 99.9234C109.783 99.9887 109.662 100.194 109.662 100.539C109.662 100.801 109.739 101.064 109.892 101.33C110.046 101.587 110.24 101.839 110.474 102.086C110.717 102.329 111.04 102.637 111.444 103.01C112.026 103.542 112.507 104.021 112.887 104.445C113.267 104.861 113.59 105.346 113.857 105.901C114.132 106.452 114.269 107.049 114.269 107.693ZM118.51 102.862C119.213 103.268 119.828 103.763 120.353 104.346C120.878 104.93 121.283 105.56 121.566 106.236C121.857 106.908 122.002 107.585 122.002 108.266C122.002 108.938 121.857 109.447 121.566 109.792C121.283 110.133 120.879 110.292 120.353 110.268C119.828 110.236 119.214 110.016 118.51 109.61L117.213 108.861L117.213 112.361L115.455 111.346L115.455 101.098L118.51 102.862ZM118.316 107.776C118.866 108.094 119.306 108.213 119.638 108.133C119.969 108.045 120.135 107.73 120.135 107.188C120.135 106.647 119.969 106.141 119.638 105.669C119.306 105.189 118.866 104.79 118.316 104.472L117.213 103.835L117.213 107.139L118.316 107.776ZM105.729 120.036C106.158 120.283 106.525 120.365 106.833 120.281C107.148 120.202 107.398 119.983 107.584 119.623L109.051 121.45C108.833 122.015 108.433 122.353 107.851 122.465C107.269 122.568 106.574 122.386 105.766 121.919C104.982 121.466 104.266 120.834 103.62 120.022C102.973 119.21 102.46 118.293 102.08 117.271C101.7 116.24 101.51 115.201 101.51 114.156C101.51 113.111 101.696 112.294 102.068 111.706C102.447 111.123 102.961 110.798 103.607 110.733C104.262 110.672 104.981 110.868 105.765 111.321C106.574 111.788 107.269 112.413 107.851 113.197C108.433 113.972 108.833 114.768 109.051 115.584L107.584 115.717C107.398 115.143 107.148 114.635 106.832 114.191C106.525 113.753 106.157 113.409 105.729 113.162C105.276 112.901 104.872 112.807 104.517 112.882C104.161 112.957 103.878 113.195 103.668 113.596C103.466 113.993 103.365 114.536 103.365 115.227C103.365 115.918 103.466 116.583 103.668 117.222C103.878 117.866 104.161 118.431 104.517 118.916C104.873 119.401 105.277 119.775 105.729 120.036ZM109.537 118.791C109.537 117.718 109.723 116.887 110.095 116.299C110.467 115.711 110.972 115.391 111.611 115.34C112.257 115.284 112.977 115.485 113.769 115.942C114.561 116.4 115.276 117.027 115.915 117.825C116.561 118.619 117.07 119.524 117.442 120.541C117.822 121.563 118.012 122.611 118.012 123.684C118.012 124.767 117.822 125.6 117.443 126.183C117.071 126.771 116.562 127.093 115.915 127.149C115.276 127.201 114.561 126.998 113.769 126.54C112.977 126.083 112.257 125.457 111.611 124.664C110.972 123.866 110.467 122.958 110.095 121.941C109.723 120.924 109.538 119.874 109.537 118.791ZM111.392 119.862C111.392 120.543 111.49 121.201 111.684 121.836C111.886 122.475 112.164 123.042 112.52 123.537C112.884 124.027 113.3 124.407 113.769 124.678C114.238 124.949 114.65 125.047 115.006 124.972C115.369 124.893 115.648 124.648 115.842 124.237C116.044 123.831 116.145 123.288 116.145 122.606C116.145 121.925 116.044 121.269 115.842 120.639C115.648 120.005 115.369 119.442 115.005 118.952C114.65 118.458 114.237 118.075 113.769 117.804C113.3 117.533 112.884 117.438 112.52 117.517C112.164 117.592 111.885 117.832 111.683 118.238C111.489 118.639 111.392 119.181 111.392 119.862ZM126.902 123.707L128.235 124.477L128.236 134.725L126.562 133.759L126.562 127.151L124.307 129.727L123.386 129.195L121.118 123.98L121.119 130.616L119.458 129.657L119.457 119.409L120.852 120.214L123.883 127.27L126.902 123.707ZM103.62 136.68C102.966 136.302 102.404 135.796 101.935 135.161C101.466 134.526 101.155 133.791 101.001 132.956L102.456 132.9C102.553 133.376 102.695 133.77 102.881 134.083C103.075 134.4 103.325 134.648 103.632 134.825C104.036 135.058 104.323 135.056 104.493 134.818C104.663 134.571 104.748 134.088 104.748 133.369L104.747 126.915L106.505 127.93L106.506 134.58C106.506 135.915 106.235 136.72 105.693 136.995C105.152 137.27 104.461 137.165 103.62 136.68ZM110.791 133.218C111.639 133.708 112.302 134.371 112.779 135.206C113.256 136.032 113.494 136.959 113.494 137.985L113.495 142.213L112.076 141.394C112.068 141.315 112.056 141.187 112.04 141.009C112.032 140.827 112.015 140.664 111.991 140.519C111.805 140.748 111.563 140.86 111.264 140.855C110.973 140.846 110.617 140.72 110.197 140.477C109.76 140.225 109.36 139.906 108.997 139.518C108.641 139.136 108.358 138.716 108.148 138.258C107.938 137.792 107.833 137.325 107.833 136.858C107.833 136.373 107.95 136.021 108.184 135.801C108.427 135.577 108.75 135.484 109.154 135.521C109.558 135.559 110.003 135.717 110.488 135.997C110.924 136.249 111.373 136.592 111.833 137.026C111.809 135.939 111.413 135.174 110.645 134.73C110.031 134.376 109.582 134.434 109.299 134.905L108.099 133.414C108.325 133.004 108.673 132.78 109.142 132.742C109.611 132.696 110.16 132.854 110.791 133.218ZM111.833 138.314C111.429 137.969 111.078 137.71 110.779 137.537C110.383 137.309 110.075 137.215 109.857 137.257C109.639 137.29 109.53 137.456 109.53 137.754C109.53 138.025 109.615 138.284 109.785 138.531C109.962 138.783 110.189 138.989 110.464 139.147C110.827 139.357 111.147 139.425 111.421 139.35C111.696 139.266 111.834 139.014 111.834 138.594L111.833 138.314ZM115.834 136.312L117.459 142.039L118.974 138.126L120.732 139.141L118.077 144.846L116.707 144.055L113.967 135.234L115.834 136.312ZM123.909 140.793C124.758 141.283 125.421 141.946 125.898 142.781C126.375 143.607 126.613 144.533 126.613 145.56L126.613 149.788L125.195 148.969C125.187 148.89 125.175 148.761 125.158 148.584C125.15 148.402 125.134 148.239 125.11 148.094C124.924 148.323 124.681 148.435 124.382 148.43C124.091 148.421 123.736 148.295 123.316 148.052C122.879 147.8 122.479 147.48 122.115 147.093C121.76 146.71 121.477 146.29 121.267 145.833C121.056 145.366 120.951 144.9 120.951 144.433C120.951 143.948 121.068 143.595 121.303 143.376C121.545 143.152 121.869 143.059 122.273 143.096C122.677 143.133 123.121 143.292 123.606 143.572C124.043 143.824 124.491 144.167 124.952 144.601C124.928 143.514 124.532 142.748 123.764 142.305C123.15 141.95 122.701 142.009 122.418 142.48L121.218 140.989C121.444 140.578 121.792 140.354 122.261 140.317C122.729 140.27 123.279 140.429 123.909 140.793ZM124.952 145.889C124.548 145.544 124.196 145.285 123.897 145.112C123.501 144.883 123.194 144.79 122.976 144.832C122.758 144.865 122.649 145.03 122.649 145.329C122.649 145.6 122.734 145.859 122.903 146.106C123.081 146.358 123.307 146.563 123.582 146.722C123.946 146.932 124.265 147 124.54 146.925C124.815 146.841 124.952 146.589 124.952 146.169L124.952 145.889ZM107.925 152.029C107.925 152.729 107.767 153.226 107.452 153.52C107.145 153.81 106.741 153.922 106.24 153.856C105.747 153.795 105.217 153.602 104.651 153.275C103.827 152.799 103.083 152.15 102.42 151.329C101.758 150.498 101.317 149.614 101.099 148.676L102.529 148.564C102.723 149.199 103.006 149.768 103.378 150.272C103.75 150.776 104.195 151.177 104.712 151.476C105.132 151.719 105.464 151.812 105.706 151.756C105.957 151.705 106.082 151.492 106.082 151.119C106.082 150.82 105.997 150.524 105.827 150.23C105.666 149.941 105.459 149.668 105.209 149.411C104.966 149.159 104.631 148.835 104.203 148.438C103.629 147.911 103.16 147.449 102.796 147.052C102.432 146.646 102.121 146.177 101.863 145.645C101.604 145.113 101.475 144.534 101.475 143.909C101.475 143.246 101.624 142.773 101.923 142.488C102.23 142.199 102.63 142.084 103.123 142.145C103.624 142.201 104.162 142.395 104.736 142.726C105.52 143.179 106.191 143.771 106.748 144.504C107.306 145.237 107.666 146 107.828 146.793L106.397 146.905C106.251 146.383 106.033 145.916 105.742 145.505C105.451 145.085 105.088 144.749 104.651 144.497C104.255 144.268 103.932 144.189 103.681 144.259C103.439 144.324 103.317 144.53 103.317 144.875C103.317 145.136 103.394 145.4 103.548 145.666C103.701 145.923 103.895 146.175 104.13 146.422C104.372 146.665 104.696 146.973 105.1 147.346C105.682 147.878 106.163 148.356 106.542 148.781C106.922 149.197 107.246 149.682 107.512 150.237C107.787 150.788 107.925 151.385 107.925 152.029ZM118.034 163.172L115.597 161.765L113.366 158.279C113.172 158.186 113.023 158.109 112.918 158.048C112.125 157.591 111.406 156.965 110.759 156.172C110.121 155.374 109.616 154.466 109.244 153.449C108.872 152.431 108.686 151.381 108.686 150.299C108.686 149.225 108.872 148.395 109.244 147.807C109.615 147.219 110.121 146.899 110.759 146.848C111.406 146.792 112.125 146.993 112.917 147.45C113.709 147.907 114.425 148.535 115.063 149.333C115.71 150.126 116.219 151.032 116.591 152.049C116.971 153.071 117.161 154.119 117.161 155.192C117.161 156.237 116.983 157.054 116.627 157.642C116.272 158.221 115.791 158.554 115.185 158.643L118.034 163.172ZM110.541 151.37C110.541 152.051 110.638 152.709 110.832 153.344C111.034 153.983 111.313 154.55 111.669 155.045C112.032 155.535 112.449 155.915 112.917 156.186C113.386 156.457 113.798 156.555 114.154 156.48C114.518 156.401 114.797 156.156 114.991 155.745C115.193 155.339 115.294 154.795 115.294 154.114C115.294 153.433 115.193 152.777 114.991 152.147C114.797 151.512 114.518 150.95 114.154 150.46C113.798 149.965 113.386 149.583 112.917 149.312C112.448 149.041 112.032 148.946 111.668 149.025C111.313 149.1 111.034 149.34 110.832 149.746C110.638 150.147 110.541 150.689 110.541 151.37ZM118.63 150.93L120.388 151.945L120.388 160.373L124.425 162.704L124.425 164.524L118.63 161.178L118.63 150.93Z" fill="white" fill-opacity="0.5"/>
</g>
<defs>
<filter id="filter0_b_56_1460" x="-100" y="-100" width="353" height="369" filterUnits="userSpaceOnUse" color-interpolation-filters="sRGB">
<feFlood flood-opacity="0" result="BackgroundImageFix"/>
<feGaussianBlur in="BackgroundImageFix" stdDeviation="50"/>
<feComposite in2="SourceAlpha" operator="in" result="effect1_backgroundBlur_56_1460"/>
<feBlend mode="normal" in="SourceGraphic" in2="effect1_backgroundBlur_56_1460" result="shape"/>
</filter>
<filter id="filter1_b_56_1460" x="-135.914" y="-93.9141" width="352.828" height="409.828" filterUnits="userSpaceOnUse" color-interpolation-filters="sRGB">
<feFlood flood-opacity="0" result="BackgroundImageFix"/>
<feGaussianBlur in="BackgroundImageFix" stdDeviation="67.957"/>
<feComposite in2="SourceAlpha" operator="in" result="effect1_backgroundBlur_56_1460"/>
<feBlend mode="normal" in="SourceGraphic" in2="effect1_backgroundBlur_56_1460" result="shape"/>
</filter>
<filter id="filter2_b_56_1460" x="51.0001" y="42.57" width="127.237" height="176.493" filterUnits="userSpaceOnUse" color-interpolation-filters="sRGB">
<feFlood flood-opacity="0" result="BackgroundImageFix"/>
<feGaussianBlur in="BackgroundImageFix" stdDeviation="25"/>
<feComposite in2="SourceAlpha" operator="in" result="effect1_backgroundBlur_56_1460"/>
<feBlend mode="normal" in="SourceGraphic" in2="effect1_backgroundBlur_56_1460" result="shape"/>
</filter>
</defs>
</svg>
