<svg width="167" height="131" viewBox="0 0 167 131" fill="none" xmlns="http://www.w3.org/2000/svg">
<g filter="url(#filter0_b_54_1640)">
<path fill-rule="evenodd" clip-rule="evenodd" d="M150.25 35L90.25 0L0 53L7.46595 57.3862L0 61.75L76 106.25L166.25 53L158.551 48.5427L166.25 44L153.25 36.25L145.341 40.8947L142.776 39.4098L150.25 35Z" fill="#265B6E" fill-opacity="0.7"/>
</g>
<path fill-rule="evenodd" clip-rule="evenodd" d="M70.5 25L89 14V7L65.25 21.5L70.5 25ZM63 89.25L150.25 38V34.75L60 88V95.25L63.0785 93.4507L63 89.25ZM76 130.25L166.25 77.5V53L76 106.25V130.25ZM166.25 51.5L76 104.25V97L166.25 43.75V51.5Z" fill="#265B6E"/>
<g filter="url(#filter1_d_54_1640)">
<path fill-rule="evenodd" clip-rule="evenodd" d="M56.6191 33.0546L64.9116 28L72.7932 32.6083L64.6607 37.6197L56.6191 33.0546ZM52.9376 35.2986L44.84 40.2343L52.9931 44.8093L60.8951 39.9401L52.9376 35.2986ZM41.0139 42.5665L32.8838 47.5221L41.0116 52.1925L49.088 47.2157L41.0139 42.5665ZM29.0556 49.8555L21 54.7656L28.9881 59.6015L37.1099 54.5967L29.0556 49.8555ZM33.8448 62.5416L41.502 67.1772L49.7976 62.0653L42.0224 57.4884L33.8448 62.5416ZM45.3796 69.5246L55.25 75.5L63.7932 70.3038L54.7109 64.9575L46.5459 70.0029L45.3796 69.5246ZM68.0377 67.7222L76.1413 62.7934L66.8609 57.4496L58.814 62.4221L68.0377 67.7222ZM80.4126 60.1955L87.8579 55.6671L78.5405 50.2324L70.9815 54.9033L80.4126 60.1955ZM92.0069 53.1436L99.8039 48.4013L90.4009 42.9035L82.5329 47.7654L92.0069 53.1436ZM85.5227 40.0512L77.6707 35.4601L69.62 40.4349L77.5731 44.9498L85.5227 40.0512ZM65.7953 42.7983L73.6395 47.3737L65.9773 52.0953L57.997 47.6172L65.7953 42.7983ZM54.036 50.0648L61.9123 54.6001L53.8488 59.569L45.9762 55.0452L54.036 50.0648Z" fill="white"/>
</g>
<g filter="url(#filter2_b_54_1640)">
<path fill-rule="evenodd" clip-rule="evenodd" d="M131.5 38.5L89 14V7L137 35L131.5 38.5ZM60 95.25L0 60.25V53L60 88V95.25ZM76 130.25L0 86.25V61.75L76 106.25V130.25ZM63 96.5L76 104.25V97L63 89.25V96.5Z" fill="#265B6E" fill-opacity="0.8"/>
</g>
<defs>
<filter id="filter0_b_54_1640" x="-135.914" y="-135.914" width="438.078" height="378.078" filterUnits="userSpaceOnUse" color-interpolation-filters="sRGB">
<feFlood flood-opacity="0" result="BackgroundImageFix"/>
<feGaussianBlur in="BackgroundImageFix" stdDeviation="67.957"/>
<feComposite in2="SourceAlpha" operator="in" result="effect1_backgroundBlur_54_1640"/>
<feBlend mode="normal" in="SourceGraphic" in2="effect1_backgroundBlur_54_1640" result="shape"/>
</filter>
<filter id="filter1_d_54_1640" x="21" y="28" width="78.8039" height="49.5" filterUnits="userSpaceOnUse" color-interpolation-filters="sRGB">
<feFlood flood-opacity="0" result="BackgroundImageFix"/>
<feColorMatrix in="SourceAlpha" type="matrix" values="0 0 0 0 0 0 0 0 0 0 0 0 0 0 0 0 0 0 127 0" result="hardAlpha"/>
<feOffset dy="2"/>
<feColorMatrix type="matrix" values="0 0 0 0 0.11641 0 0 0 0 0.237537 0 0 0 0 0.536317 0 0 0 1 0"/>
<feBlend mode="normal" in2="BackgroundImageFix" result="effect1_dropShadow_54_1640"/>
<feBlend mode="normal" in="SourceGraphic" in2="effect1_dropShadow_54_1640" result="shape"/>
</filter>
<filter id="filter2_b_54_1640" x="-135.914" y="-128.914" width="408.828" height="395.078" filterUnits="userSpaceOnUse" color-interpolation-filters="sRGB">
<feFlood flood-opacity="0" result="BackgroundImageFix"/>
<feGaussianBlur in="BackgroundImageFix" stdDeviation="67.957"/>
<feComposite in2="SourceAlpha" operator="in" result="effect1_backgroundBlur_54_1640"/>
<feBlend mode="normal" in="SourceGraphic" in2="effect1_backgroundBlur_54_1640" result="shape"/>
</filter>
</defs>
</svg>
