<svg width="155" height="173" viewBox="0 0 155 173" fill="none" xmlns="http://www.w3.org/2000/svg">
<path fill-rule="evenodd" clip-rule="evenodd" d="M154.5 49.75L69.5 0L65 2.5L150 52.25L154.5 49.75ZM0 117.5L65 80.5L151 130.25L86 167.25L0 117.5Z" fill="#265B6E" fill-opacity="0.7"/>
<path fill-rule="evenodd" clip-rule="evenodd" d="M65 2.5V80.75L150 130.5V52.25L65 2.5ZM86 172.5L0 122.75V117.5L86 167.25V172.5Z" fill="#265B6E" fill-opacity="0.8"/>
<g filter="url(#filter0_d_54_1637)">
<path fill-rule="evenodd" clip-rule="evenodd" d="M63.75 86.25L52.25 93L126.75 136L138.5 129.25L63.75 86.25ZM63.75 86.75L53.5 93L126.75 135.25L137.25 129.25L63.75 86.75ZM46.25 97L40.1568 100.729L46.1033 104.076L52.1577 100.331L46.25 97ZM31.4968 106.029L37.4516 102.385L43.3864 105.757L37.4998 109.399L31.4968 106.029ZM22.7158 111.403L28.6878 107.748L34.6803 111.144L28.7612 114.806L22.7158 111.403ZM13.972 116.754L19.9059 113.123L25.9407 116.551L20.0273 120.21L13.972 116.754ZM29.5132 125.623L23.7084 122.31L29.6212 118.642L35.4472 121.952L29.5132 125.623ZM39.4195 131.276L33.1947 127.724L39.128 124.043L45.3749 127.592L39.4195 131.276ZM49.1459 136.827L43.1008 133.377L49.0555 129.683L55.1224 133.129L49.1459 136.827ZM59.0719 142.491L52.8261 138.927L58.8018 135.22L65.0698 138.781L59.0719 142.491ZM68.4723 147.856L62.7537 144.593L68.7508 140.872L74.5498 144.166L68.4723 147.856ZM78.0845 153.342L72.1477 149.954L78.2252 146.254L84.183 149.639L78.0845 153.342ZM88 159L81.7605 155.439L87.8589 151.727L94.1017 155.274L88 159ZM102.984 149.849L97.243 153.355L90.9779 149.829L96.7487 146.316L102.984 149.849ZM111.655 144.554L106.126 147.931L99.8684 144.417L105.443 141.024L111.655 144.554ZM120.75 139L114.704 142.692L108.468 139.182L114.529 135.493L120.75 139ZM104.86 130.042L110.875 133.433L104.803 137.119L98.7918 133.735L104.86 130.042ZM95.0866 124.532L101.206 127.982L95.1273 131.673L89.0717 128.264L95.0866 124.532ZM85.1011 118.903L91.4306 122.471L85.4043 126.199L79.0791 122.639L85.1011 118.903ZM75.3189 113.388L81.4466 116.842L75.4132 120.575L69.29 117.128L75.3189 113.388ZM65.355 107.771L71.6633 111.327L65.6229 115.064L59.3189 111.516L65.355 107.771ZM55.8133 102.391L61.6991 105.71L55.6515 109.451L49.7704 106.141L55.8133 102.391ZM87.2898 147.753L93.0801 144.237L87.1032 140.85L81.3015 144.382L87.2898 147.753ZM96.1876 142.35L101.791 138.948L95.8109 135.55L90.18 138.977L96.1876 142.35ZM86.1643 130.068L92.1593 133.475L86.4996 136.911L80.5336 133.561L86.1643 130.068ZM77.5295 135.425L83.4351 138.772L77.6139 142.306L71.755 139.008L77.5295 135.425ZM68.0623 136.929L73.8569 133.344L67.5685 129.78L61.7624 133.383L68.0623 136.929ZM76.8492 131.493L82.5093 127.991L76.2169 124.415L70.5287 127.944L76.8492 131.493ZM66.4721 118.877L72.5634 122.338L66.8457 125.876L60.7276 122.441L66.4721 118.877ZM57.8103 124.251L63.8974 127.7L58.0711 131.305L51.9733 127.872L57.8103 124.251ZM48.2808 125.794L54.1381 122.17L47.8708 118.618L42.0022 122.26L48.2808 125.794ZM57.0434 120.372L62.8175 116.8L56.5462 113.236L50.7443 116.836L57.0434 120.372ZM47.0408 107.834L52.8913 111.159L47.0598 114.767L41.184 111.468L47.0408 107.834ZM38.3525 113.225L44.1983 116.537L38.3095 120.181L32.4537 116.885L38.3525 113.225Z" fill="white"/>
</g>
<path fill-rule="evenodd" clip-rule="evenodd" d="M73 80L143.5 121.25V54L73 13.5L73 80Z" fill="white"/>
<path fill-rule="evenodd" clip-rule="evenodd" d="M73 13.5V76.75L70 78.5V11.75L73 13.5ZM154.5 49.75V127.645L154.75 127.5V132.75L86 172.5V167.25L150 130.246V52.25L154.5 49.75Z" fill="#265B6E"/>
<g filter="url(#filter1_b_54_1637)">
<path fill-rule="evenodd" clip-rule="evenodd" d="M73 76.75L143.5 118V121.25L70 78.5L73 76.75Z" fill="#265B6E" fill-opacity="0.7"/>
</g>
<defs>
<filter id="filter0_d_54_1637" x="13.972" y="86.25" width="124.528" height="74.75" filterUnits="userSpaceOnUse" color-interpolation-filters="sRGB">
<feFlood flood-opacity="0" result="BackgroundImageFix"/>
<feColorMatrix in="SourceAlpha" type="matrix" values="0 0 0 0 0 0 0 0 0 0 0 0 0 0 0 0 0 0 127 0" result="hardAlpha"/>
<feOffset dy="2"/>
<feComposite in2="hardAlpha" operator="out"/>
<feColorMatrix type="matrix" values="0 0 0 0 0.14902 0 0 0 0 0.356863 0 0 0 0 0.431373 0 0 0 1 0"/>
<feBlend mode="normal" in2="BackgroundImageFix" result="effect1_dropShadow_54_1637"/>
<feBlend mode="normal" in="SourceGraphic" in2="effect1_dropShadow_54_1637" result="shape"/>
</filter>
<filter id="filter1_b_54_1637" x="-65.9141" y="-59.1641" width="345.328" height="316.328" filterUnits="userSpaceOnUse" color-interpolation-filters="sRGB">
<feFlood flood-opacity="0" result="BackgroundImageFix"/>
<feGaussianBlur in="BackgroundImageFix" stdDeviation="67.957"/>
<feComposite in2="SourceAlpha" operator="in" result="effect1_backgroundBlur_54_1637"/>
<feBlend mode="normal" in="SourceGraphic" in2="effect1_backgroundBlur_54_1637" result="shape"/>
</filter>
</defs>
</svg>
