<svg width="125" height="181" viewBox="0 0 125 181" fill="none" xmlns="http://www.w3.org/2000/svg">
<path opacity="0.9" fill-rule="evenodd" clip-rule="evenodd" d="M45 177V70L5 46L5 153L45 177Z" fill="#03571F"/>
<path fill-rule="evenodd" clip-rule="evenodd" d="M5 71V75L10.3333 72L5 71ZM10 134V131L14 131.75L10 134ZM10 139V136L14 136.75L10 139ZM10 149V146L14 146.75L10 149ZM10 151V154L14 151.75L10 151ZM10 144V141L14 141.75L10 144Z" fill="#03571F"/>
<g filter="url(#filter0_b_55_1456)">
<path fill-rule="evenodd" clip-rule="evenodd" d="M45 70L5 46L85 0L125 24L45 70ZM44 83.75L40 86L0 62L4 59.75L44 83.75ZM40 152L44 149.75L14 131.75L10 134L40 152ZM44 159.75L40 162L10 144L14 141.75L44 159.75ZM40 157L44 154.75L14 136.75L10 139L40 157ZM44 164.75L40 167L10 149L14 146.75L44 164.75ZM40 172L44 169.75L14 151.75L10 154L40 172ZM39 90.75L35 93L5 75L9 72.75L39 90.75ZM40 73L44 70.75L4 46.75L0 49L40 73Z" fill="#03571F" fill-opacity="0.7"/>
</g>
<g filter="url(#filter1_b_55_1456)">
<path fill-rule="evenodd" clip-rule="evenodd" d="M40 73V84.75L0 60.75V49L40 73ZM40 180.5V172L10 154V151L40 169V167L10 149V146L40 164V162L10 144V141L40 159.25V157L10 139V136L40 154V152L10 134V131L40 149V86L0 62V156.5L40 180.5ZM5 71L35 89V93L5 75V71Z" fill="#03571F" fill-opacity="0.8"/>
</g>
<path fill-rule="evenodd" clip-rule="evenodd" d="M45 70L125 24V131L45 177V70ZM40 73L44 70.75V82.5L40 84.75V73ZM44 169.75L40 172V180.5L44 178V169.75ZM40 152L44 149.75V151.75L40 154V152ZM44 154.75L40 157V159L44 156.75V154.75ZM40 162L44 159.75V161.75L40 164V162ZM44 164.75L40 167V169L44 166.75V164.75ZM40 86L44 83.75V146.75L40 149V86Z" fill="#03571F"/>
<path d="M61.0015 105.648L63.0006 104.491L63.0001 119.863L60.4922 121.315L60.4925 111.403L57.112 119.177L55.7308 119.977L52.3326 116.085L52.3322 126.039L49.8425 127.481L49.8429 112.109L51.9329 110.899L56.4761 116.227L61.0015 105.648ZM72.0316 99.2619L77.4105 111.519L74.6118 113.14L73.4488 110.306L68.2693 113.305L67.1425 117.464L64.5073 118.99L69.7236 100.598L72.0316 99.2619ZM72.5947 108.197L70.8139 103.831L69.0872 110.227L72.5947 108.197ZM83.3655 98.0755C84.1288 97.6336 84.8255 97.4402 85.4555 97.4955C86.0855 97.5367 86.5822 97.8371 86.9457 98.3966C87.3091 98.9422 87.4908 99.7119 87.4908 100.706C87.4908 101.784 87.2848 102.841 86.8728 103.878C86.473 104.893 85.9217 105.814 85.2189 106.641C84.5162 107.454 83.7408 108.106 82.8927 108.597C81.8871 109.179 81.0148 109.418 80.2757 109.314C79.5488 109.203 79.0339 108.696 78.7311 107.794L80.8574 105.156C81.0149 105.694 81.2693 106.023 81.6207 106.142C81.972 106.26 82.3839 106.183 82.8564 105.909C83.4501 105.565 83.9045 105.078 84.2195 104.448C84.5466 103.797 84.7102 103.121 84.7102 102.421C84.7103 101.721 84.5407 101.238 84.2014 100.972C83.8743 100.686 83.4018 100.721 82.7839 101.079C81.9843 101.542 81.3482 102.366 80.8756 103.549L78.9856 103.572L79.8946 94.6883L86.8732 90.6477L86.8731 93.2517L82.1117 96.0086L81.7481 99.39C82.2691 98.8364 82.8082 98.3982 83.3655 98.0755ZM93.1897 99.7163L98.5146 96.6332L98.5145 99.3002L89.3368 104.614L89.3369 102.64L93.3534 95.1066C94.044 93.8107 94.5226 92.8336 94.7892 92.1753C95.0679 91.496 95.2072 90.8833 95.2072 90.3373C95.2073 89.7353 95.0619 89.3365 94.7711 89.1408C94.4804 88.9452 94.0866 88.9912 93.5898 89.2788C93.081 89.5734 92.6327 90.05 92.245 90.7084C91.8573 91.3529 91.5604 92.1268 91.3544 93.03L89.2827 92.8436C89.5977 91.4152 90.1672 90.1335 90.9911 88.9985C91.815 87.8495 92.7661 86.9628 93.8444 86.3385C94.6925 85.8474 95.4255 85.626 96.0434 85.6743C96.6734 85.7015 97.1519 85.9704 97.479 86.481C97.8182 86.9846 97.9878 87.6844 97.9878 88.5804C97.9878 89.4624 97.8 90.3971 97.4243 91.3846C97.0608 92.351 96.4066 93.7168 95.4615 95.482L93.1897 99.7163ZM109.52 85.242C109.52 87.832 109.114 90.041 108.303 91.869C107.491 93.683 106.334 95.0249 104.831 95.8948C103.329 96.7646 102.166 96.7661 101.342 95.8991C100.53 95.0111 100.125 93.2721 100.125 90.6821C100.125 88.0781 100.531 85.8621 101.342 84.0341C102.166 82.1991 103.33 80.8466 104.832 79.9768C106.334 79.1069 107.491 79.116 108.303 80.004C109.115 80.892 109.52 82.638 109.52 85.242ZM102.923 89.0616C102.923 90.7976 103.075 92.005 103.378 92.6836C103.693 93.3412 104.177 93.4806 104.831 93.1018C105.486 92.723 105.964 92.0259 106.267 91.0105C106.57 89.9812 106.722 88.5985 106.722 86.8625C106.722 85.1125 106.57 83.8982 106.267 83.2195C105.965 82.5409 105.486 82.391 104.832 82.7698C104.178 83.1486 103.693 83.8562 103.378 84.8926C103.075 85.908 102.923 87.2976 102.923 89.0616ZM120.435 78.9224C120.435 81.5124 120.029 83.7214 119.217 85.5494C118.406 87.3634 117.249 88.7054 115.746 89.5752C114.244 90.4451 113.081 90.4465 112.257 89.5795C111.445 88.6915 111.039 86.9525 111.039 84.3625C111.04 81.7585 111.445 79.5425 112.257 77.7145C113.081 75.8795 114.244 74.5271 115.747 73.6572C117.249 72.7874 118.406 72.7964 119.218 73.6844C120.029 74.5724 120.435 76.3184 120.435 78.9224ZM113.838 82.7421C113.838 84.4781 113.99 85.6854 114.292 86.364C114.607 87.0216 115.092 87.161 115.746 86.7822C116.401 86.4034 116.879 85.7063 117.182 84.6909C117.485 83.6616 117.636 82.2789 117.636 80.5429C117.637 78.7929 117.485 77.5786 117.182 76.8999C116.879 76.2213 116.401 76.0714 115.747 76.4502C115.092 76.829 114.608 77.5366 114.293 78.573C113.99 79.5884 113.838 80.9781 113.838 82.7421Z" fill="white"/>
<defs>
<filter id="filter0_b_55_1456" x="-100" y="-100" width="325" height="372" filterUnits="userSpaceOnUse" color-interpolation-filters="sRGB">
<feFlood flood-opacity="0" result="BackgroundImageFix"/>
<feGaussianBlur in="BackgroundImageFix" stdDeviation="50"/>
<feComposite in2="SourceAlpha" operator="in" result="effect1_backgroundBlur_55_1456"/>
<feBlend mode="normal" in="SourceGraphic" in2="effect1_backgroundBlur_55_1456" result="shape"/>
</filter>
<filter id="filter1_b_55_1456" x="-100" y="-51" width="240" height="331.5" filterUnits="userSpaceOnUse" color-interpolation-filters="sRGB">
<feFlood flood-opacity="0" result="BackgroundImageFix"/>
<feGaussianBlur in="BackgroundImageFix" stdDeviation="50"/>
<feComposite in2="SourceAlpha" operator="in" result="effect1_backgroundBlur_55_1456"/>
<feBlend mode="normal" in="SourceGraphic" in2="effect1_backgroundBlur_55_1456" result="shape"/>
</filter>
</defs>
</svg>
