<svg width="126" height="181" viewBox="0 0 126 181" fill="none" xmlns="http://www.w3.org/2000/svg">
<path opacity="0.9" fill-rule="evenodd" clip-rule="evenodd" d="M45.1308 177V70L5.01453 46L5.01453 153L45.1308 177Z" fill="#03571F"/>
<path fill-rule="evenodd" clip-rule="evenodd" d="M5.01453 71V75L10.3634 72L5.01453 71ZM10.0291 134V131L14.0407 131.75L10.0291 134ZM10.0291 139V136L14.0407 136.75L10.0291 139ZM10.0291 149V146L14.0407 146.75L10.0291 149ZM10.0291 151V154L14.0407 151.75L10.0291 151ZM10.0291 144V141L14.0407 141.75L10.0291 144Z" fill="#03571F"/>
<g filter="url(#filter0_b_55_1454)">
<path fill-rule="evenodd" clip-rule="evenodd" d="M45.1308 70L5.01453 46L85.247 0L125.363 24L45.1308 70ZM44.1279 83.75L40.1163 86L0 62L4.01163 59.75L44.1279 83.75ZM40.1163 152L44.1279 149.75L14.0407 131.75L10.0291 134L40.1163 152ZM44.1279 159.75L40.1163 162L10.0291 144L14.0407 141.75L44.1279 159.75ZM40.1163 157L44.1279 154.75L14.0407 136.75L10.0291 139L40.1163 157ZM44.1279 164.75L40.1163 167L10.0291 149L14.0407 146.75L44.1279 164.75ZM40.1163 172L44.1279 169.75L14.0407 151.75L10.0291 154L40.1163 172ZM39.1133 90.75L35.1017 93L5.01453 75L9.02616 72.75L39.1133 90.75ZM40.1163 73L44.1279 70.75L4.01163 46.75L0 49L40.1163 73Z" fill="#03571F" fill-opacity="0.7"/>
</g>
<g filter="url(#filter1_b_55_1454)">
<path fill-rule="evenodd" clip-rule="evenodd" d="M40.1163 73V84.75L0 60.75V49L40.1163 73ZM40.1163 180.5V172L10.0291 154V151L40.1163 169V167L10.0291 149V146L40.1163 164V162L10.0291 144V141L40.1163 159.25V157L10.0291 139V136L40.1163 154V152L10.0291 134V131L40.1163 149V86L0 62V156.5L40.1163 180.5ZM5.01453 71L35.1017 89V93L5.01453 75V71Z" fill="#03571F" fill-opacity="0.8"/>
</g>
<path fill-rule="evenodd" clip-rule="evenodd" d="M45.1308 70L125.363 24V131L45.1308 177V70ZM40.1163 73L44.1279 70.75V82.5L40.1163 84.75V73ZM44.1279 169.75L40.1163 172V180.5L44.1279 178V169.75ZM40.1163 152L44.1279 149.75V151.75L40.1163 154V152ZM44.1279 154.75L40.1163 157V159L44.1279 156.75V154.75ZM40.1163 162L44.1279 159.75V161.75L40.1163 164V162ZM44.1279 164.75L40.1163 167V169L44.1279 166.75V164.75ZM40.1163 86L44.1279 83.75V146.75L40.1163 149V86Z" fill="#03571F"/>
<path d="M59.7813 104.04L70.8487 115.075L70.8492 97.6507L75.0582 95.2208L75.0573 121.573L71.3784 123.697L60.2798 112.644L60.2793 130.104L56.1327 132.498L56.1335 106.146L59.7813 104.04ZM90.5149 86.2975L99.7425 107.322L94.9412 110.094L92.9461 105.234L84.0605 110.363L82.1273 117.491L77.6066 120.101L86.5553 88.5834L90.5149 86.2975ZM91.4809 101.615L88.4258 94.1274L85.4636 105.089L91.4809 101.615ZM117.753 89.2924C117.753 91.0924 117.347 92.8384 116.537 94.5304C115.747 96.1863 114.707 97.6743 113.419 98.9943C112.151 100.302 110.789 101.376 109.334 102.216C107.214 103.44 105.302 103.98 103.598 103.836C101.894 103.668 100.761 102.702 100.2 100.938L103.879 96.402C104.377 97.458 105.105 98.082 106.061 98.2741C107.017 98.4661 108.16 98.1781 109.49 97.4102C110.571 96.7862 111.423 96.0422 112.047 95.1782C112.691 94.3022 113.014 93.3843 113.014 92.4243C113.014 91.6563 112.795 91.1463 112.359 90.8942C111.943 90.6302 111.413 90.5402 110.769 90.6242C110.145 90.6962 109.283 90.8582 108.181 91.1101C106.706 91.4581 105.5 91.6621 104.565 91.722C103.629 91.758 102.829 91.476 102.164 90.876C101.499 90.2759 101.167 89.1719 101.167 87.5639C101.167 85.8599 101.551 84.1979 102.32 82.578C103.11 80.922 104.139 79.44 105.407 78.1321C106.696 76.7881 108.078 75.6901 109.554 74.8382C111.57 73.6742 113.295 73.2063 114.729 73.4343C116.163 73.6623 117.088 74.5564 117.504 76.1164L113.825 80.6523C113.451 79.7403 112.889 79.1883 112.141 78.9962C111.393 78.7802 110.458 78.9962 109.335 79.6442C108.317 80.2321 107.485 80.9881 106.841 81.9121C106.217 82.8001 105.906 83.6881 105.906 84.5761C105.906 85.2481 106.103 85.6981 106.498 85.9261C106.893 86.1301 107.392 86.2021 107.994 86.1421C108.618 86.0461 109.449 85.8782 110.489 85.6382C111.985 85.2782 113.222 85.0803 114.199 85.0443C115.175 84.9843 116.007 85.2723 116.693 85.9084C117.399 86.5084 117.753 87.6364 117.753 89.2924Z" fill="white"/>
<defs>
<filter id="filter0_b_55_1454" x="-100" y="-100" width="325.363" height="372" filterUnits="userSpaceOnUse" color-interpolation-filters="sRGB">
<feFlood flood-opacity="0" result="BackgroundImageFix"/>
<feGaussianBlur in="BackgroundImageFix" stdDeviation="50"/>
<feComposite in2="SourceAlpha" operator="in" result="effect1_backgroundBlur_55_1454"/>
<feBlend mode="normal" in="SourceGraphic" in2="effect1_backgroundBlur_55_1454" result="shape"/>
</filter>
<filter id="filter1_b_55_1454" x="-100" y="-51" width="240.116" height="331.5" filterUnits="userSpaceOnUse" color-interpolation-filters="sRGB">
<feFlood flood-opacity="0" result="BackgroundImageFix"/>
<feGaussianBlur in="BackgroundImageFix" stdDeviation="50"/>
<feComposite in2="SourceAlpha" operator="in" result="effect1_backgroundBlur_55_1454"/>
<feBlend mode="normal" in="SourceGraphic" in2="effect1_backgroundBlur_55_1454" result="shape"/>
</filter>
</defs>
</svg>
