<svg width="125" height="181" viewBox="0 0 125 181" fill="none" xmlns="http://www.w3.org/2000/svg">
<path opacity="0.9" fill-rule="evenodd" clip-rule="evenodd" d="M45 177V70L5 46L5 153L45 177Z" fill="#03571F"/>
<path fill-rule="evenodd" clip-rule="evenodd" d="M5 71V75L10.3333 72L5 71ZM10 134V131L14 131.75L10 134ZM10 139V136L14 136.75L10 139ZM10 149V146L14 146.75L10 149ZM10 151V154L14 151.75L10 151ZM10 144V141L14 141.75L10 144Z" fill="#03571F"/>
<g filter="url(#filter0_b_55_1452)">
<path fill-rule="evenodd" clip-rule="evenodd" d="M45 70L5 46L85 0L125 24L45 70ZM44 83.75L40 86L0 62L4 59.75L44 83.75ZM40 152L44 149.75L14 131.75L10 134L40 152ZM44 159.75L40 162L10 144L14 141.75L44 159.75ZM40 157L44 154.75L14 136.75L10 139L40 157ZM44 164.75L40 167L10 149L14 146.75L44 164.75ZM40 172L44 169.75L14 151.75L10 154L40 172ZM39 90.75L35 93L5 75L9 72.75L39 90.75ZM40 73L44 70.75L4 46.75L0 49L40 73Z" fill="#03571F" fill-opacity="0.7"/>
</g>
<g filter="url(#filter1_b_55_1452)">
<path fill-rule="evenodd" clip-rule="evenodd" d="M40 73V84.75L0 60.75V49L40 73ZM40 180.5V172L10 154V151L40 169V167L10 149V146L40 164V162L10 144V141L40 159.25V157L10 139V136L40 154V152L10 134V131L40 149V86L0 62V156.5L40 180.5ZM5 71L35 89V93L5 75V71Z" fill="#03571F" fill-opacity="0.8"/>
</g>
<path fill-rule="evenodd" clip-rule="evenodd" d="M45 70L125 24V131L45 177V70ZM40 73L44 70.75V82.5L40 84.75V73ZM44 169.75L40 172V180.5L44 178V169.75ZM40 152L44 149.75V151.75L40 154V152ZM44 154.75L40 157V159L44 156.75V154.75ZM40 162L44 159.75V161.75L40 164V162ZM44 164.75L40 167V169L44 166.75V164.75ZM40 86L44 83.75V146.75L40 149V86Z" fill="#03571F"/>
<path d="M78.3407 123.397L72.0786 127.023L66.3464 124.69C65.8479 125.026 65.4636 125.273 65.1936 125.429C63.1582 126.608 61.3097 127.138 59.6481 127.02C58.0073 126.866 56.7093 126.034 55.7539 124.523C54.7986 123.012 54.321 120.865 54.321 118.081C54.3211 115.321 54.7989 112.632 55.7544 110.015C56.7099 107.398 58.008 105.074 59.6489 103.044C61.3105 100.978 63.159 99.3557 65.1945 98.1772C67.2299 96.9986 69.068 96.4864 70.7088 96.6404C72.3704 96.7583 73.6788 97.5727 74.6342 99.0835C75.6103 100.582 76.0983 102.712 76.0982 105.472C76.0981 108.16 75.6411 110.788 74.7272 113.357C73.8132 115.903 72.5774 118.19 71.0196 120.22L78.3407 123.397ZM59.0877 115.321C59.0877 117.073 59.3369 118.476 59.8353 119.532C60.3545 120.575 61.071 121.204 61.9849 121.419C62.9195 121.598 63.9891 121.339 65.1938 120.641C66.3984 119.944 67.4577 118.97 68.3716 117.721C69.3063 116.436 70.0229 114.977 70.5214 113.345C71.0407 111.7 71.3003 110.002 71.3004 108.25C71.3004 106.498 71.0409 105.112 70.5217 104.093C70.0232 103.037 69.3067 102.42 68.3721 102.241C67.4582 102.026 66.399 102.268 65.1943 102.965C63.9897 103.663 62.92 104.654 61.9854 105.939C61.0715 107.188 60.3549 108.635 59.8356 110.28C59.3371 111.888 59.0878 113.569 59.0877 115.321ZM78.5642 107.932C78.5642 105.988 78.9382 104.055 79.6859 102.135C80.4544 100.202 81.4722 98.4723 82.7392 96.9467C84.0062 95.3972 85.377 94.1955 86.8517 93.3417C88.3055 92.4999 89.6556 92.1262 90.9017 92.2207C92.1687 92.2791 93.176 92.8359 93.9236 93.891C94.6921 94.934 95.0763 96.4276 95.0762 98.3716C95.0761 100.316 94.6918 102.254 93.9233 104.187C93.1755 106.108 92.1682 107.831 90.9012 109.357C89.655 110.87 88.3049 112.048 86.851 112.89C85.3764 113.744 84.0056 114.141 82.7386 114.083C81.4717 114.024 80.454 113.474 79.6856 112.431C78.9379 111.375 78.5641 109.876 78.5642 107.932ZM83.0505 105.334C83.0504 106.99 83.4035 108.106 84.1096 108.681C84.8365 109.22 85.74 109.177 86.82 108.552C87.9001 107.926 88.7932 106.929 89.4994 105.56C90.2056 104.168 90.5587 102.643 90.5588 100.987C90.5588 99.3311 90.2058 98.2156 89.4996 97.6404C88.7935 97.0653 87.9004 97.0904 86.8204 97.7157C85.7403 98.3411 84.8368 99.3562 84.1099 100.761C83.4036 102.154 83.0505 103.678 83.0505 105.334ZM113.974 89.1217C113.974 90.9217 113.569 92.6682 112.759 94.3612C111.97 96.0182 110.931 97.5075 109.643 98.8291C108.376 100.139 107.016 101.214 105.562 102.056C103.444 103.283 101.533 103.825 99.8297 103.683C98.1266 103.517 96.9947 102.553 96.434 100.789L100.11 96.2488C100.609 97.3042 101.336 97.9273 102.291 98.1181C103.246 98.309 104.389 98.0195 105.718 97.2499C106.798 96.6246 107.65 95.8795 108.273 95.0148C108.917 94.138 109.239 93.2196 109.239 92.2596C109.239 91.4916 109.021 90.9818 108.584 90.7304C108.169 90.4669 107.639 90.3775 106.996 90.4623C106.373 90.5351 105.511 90.6982 104.41 90.9515C102.935 91.3013 101.731 91.5068 100.796 91.568C99.8613 91.6051 99.0616 91.3241 98.397 90.7249C97.7324 90.1257 97.4002 89.0222 97.4002 87.4142C97.4003 85.7102 97.7846 84.0477 98.5531 82.4267C99.3424 80.7698 100.37 79.2865 101.637 77.9769C102.925 76.6313 104.306 75.5316 105.781 74.6778C107.796 73.5114 109.52 73.0412 110.953 73.2675C112.386 73.4937 113.31 74.3866 113.725 75.9461L110.049 80.4866C109.675 79.575 109.114 79.0237 108.367 78.8327C107.619 78.6176 106.684 78.8347 105.563 79.4841C104.545 80.0734 103.714 80.8304 103.07 81.7552C102.447 82.6439 102.136 83.5323 102.136 84.4203C102.136 85.0923 102.333 85.5421 102.728 85.7696C103.122 85.9731 103.621 86.0445 104.223 85.9838C104.846 85.887 105.677 85.718 106.715 85.4767C108.211 85.1148 109.447 84.9153 110.423 84.8781C111.399 84.8169 112.23 85.1039 112.915 85.7391C113.621 86.3382 113.974 87.4657 113.974 89.1217Z" fill="white"/>
<defs>
<filter id="filter0_b_55_1452" x="-100" y="-100" width="325" height="372" filterUnits="userSpaceOnUse" color-interpolation-filters="sRGB">
<feFlood flood-opacity="0" result="BackgroundImageFix"/>
<feGaussianBlur in="BackgroundImageFix" stdDeviation="50"/>
<feComposite in2="SourceAlpha" operator="in" result="effect1_backgroundBlur_55_1452"/>
<feBlend mode="normal" in="SourceGraphic" in2="effect1_backgroundBlur_55_1452" result="shape"/>
</filter>
<filter id="filter1_b_55_1452" x="-100" y="-51" width="240" height="331.5" filterUnits="userSpaceOnUse" color-interpolation-filters="sRGB">
<feFlood flood-opacity="0" result="BackgroundImageFix"/>
<feGaussianBlur in="BackgroundImageFix" stdDeviation="50"/>
<feComposite in2="SourceAlpha" operator="in" result="effect1_backgroundBlur_55_1452"/>
<feBlend mode="normal" in="SourceGraphic" in2="effect1_backgroundBlur_55_1452" result="shape"/>
</filter>
</defs>
</svg>
