<svg width="125" height="181" viewBox="0 0 125 181" fill="none" xmlns="http://www.w3.org/2000/svg">
<path opacity="0.9" fill-rule="evenodd" clip-rule="evenodd" d="M45 177V70L5 46L5 153L45 177Z" fill="#03571F"/>
<path fill-rule="evenodd" clip-rule="evenodd" d="M5 71V75L10.3333 72L5 71ZM10 134V131L14 131.75L10 134ZM10 139V136L14 136.75L10 139ZM10 149V146L14 146.75L10 149ZM10 151V154L14 151.75L10 151ZM10 144V141L14 141.75L10 144Z" fill="#03571F"/>
<g filter="url(#filter0_b_55_1449)">
<path fill-rule="evenodd" clip-rule="evenodd" d="M45 70L5 46L85 0L125 24L45 70ZM44 83.75L40 86L0 62L4 59.75L44 83.75ZM40 152L44 149.75L14 131.75L10 134L40 152ZM44 159.75L40 162L10 144L14 141.75L44 159.75ZM40 157L44 154.75L14 136.75L10 139L40 157ZM44 164.75L40 167L10 149L14 146.75L44 164.75ZM40 172L44 169.75L14 151.75L10 154L40 172ZM39 90.75L35 93L5 75L9 72.75L39 90.75ZM40 73L44 70.75L4 46.75L0 49L40 73Z" fill="#03571F" fill-opacity="0.7"/>
</g>
<g filter="url(#filter1_b_55_1449)">
<path fill-rule="evenodd" clip-rule="evenodd" d="M40 73V84.75L0 60.75V49L40 73ZM40 180.5V172L10 154V151L40 169V167L10 149V146L40 164V162L10 144V141L40 159.25V157L10 139V136L40 154V152L10 134V131L40 149V86L0 62V156.5L40 180.5ZM5 71L35 89V93L5 75V71Z" fill="#03571F" fill-opacity="0.8"/>
</g>
<path fill-rule="evenodd" clip-rule="evenodd" d="M45 70L125 24V131L45 177V70ZM40 73L44 70.75V82.5L40 84.75V73ZM44 169.75L40 172V180.5L44 178V169.75ZM40 152L44 149.75V151.75L40 154V152ZM44 154.75L40 157V159L44 156.75V154.75ZM40 162L44 159.75V161.75L40 164V162ZM44 164.75L40 167V169L44 166.75V164.75ZM40 86L44 83.75V146.75L40 149V86Z" fill="#03571F"/>
<path d="M61.3089 128.034L58.0039 129.948L54.9786 128.717C54.7155 128.894 54.5127 129.024 54.3702 129.107C53.2959 129.729 52.3203 130.009 51.4434 129.946C50.5774 129.865 49.8923 129.426 49.3881 128.628C48.8839 127.831 48.6318 126.698 48.6319 125.228C48.6319 123.772 48.8841 122.353 49.3884 120.971C49.8926 119.59 50.5778 118.364 51.4438 117.292C52.3208 116.202 53.2964 115.346 54.3706 114.724C55.4449 114.102 56.415 113.831 57.281 113.913C58.1579 113.975 58.8485 114.405 59.3527 115.202C59.8679 115.993 60.1254 117.117 60.1254 118.574C60.1253 119.992 59.8841 121.38 59.4018 122.736C58.9194 124.079 58.2672 125.286 57.445 126.358L61.3089 128.034ZM51.1476 123.772C51.1476 124.696 51.2791 125.437 51.5422 125.994C51.8162 126.545 52.1944 126.877 52.6767 126.99C53.1699 127.085 53.7345 126.948 54.3703 126.58C55.0061 126.212 55.5651 125.698 56.0474 125.039C56.5407 124.36 56.9189 123.59 57.182 122.729C57.4561 121.861 57.5932 120.964 57.5932 120.04C57.5932 119.115 57.4562 118.384 57.1822 117.846C56.9191 117.289 56.541 116.963 56.0477 116.869C55.5654 116.755 55.0063 116.883 54.3706 117.251C53.7348 117.619 53.1702 118.142 52.6769 118.82C52.1946 119.48 51.8164 120.243 51.5423 121.111C51.2792 121.96 51.1477 122.847 51.1476 123.772ZM67.4286 111.476L69.7142 110.153L69.7139 119.995L67.6914 121.166C67.6476 120.431 67.6038 119.944 67.5599 119.703C67.2749 120.463 66.9022 121.123 66.4418 121.68C65.9814 122.238 65.4552 122.689 64.8632 123.031C63.9096 123.584 63.1587 123.664 62.6106 123.272C62.0625 122.88 61.7885 122 61.7886 120.632L61.7888 114.742L64.0743 113.418L64.0742 118.434C64.0741 120.246 64.5783 120.859 65.5868 120.275C66.1349 119.958 66.5789 119.454 66.9187 118.763C67.2585 118.073 67.4285 117.284 67.4285 116.397L67.4286 111.476ZM72.9619 107.019C72.6002 107.228 72.2823 107.254 72.0083 107.096C71.7452 106.919 71.6137 106.615 71.6137 106.184C71.6137 105.741 71.7452 105.285 72.0083 104.816C72.2714 104.347 72.5893 104.004 72.962 103.789C73.3347 103.573 73.6581 103.55 73.9321 103.721C74.2062 103.879 74.3432 104.173 74.3432 104.604C74.3432 105.034 74.2061 105.494 73.9321 105.982C73.658 106.457 73.3346 106.803 72.9619 107.019ZM74.129 117.439L71.8435 118.762L71.8438 108.92L74.1293 107.597L74.129 117.439ZM82.1631 98.3282L84.4486 97.0049L84.4481 111.464L82.4421 112.625C82.3873 111.922 82.3435 111.454 82.3106 111.22C82.0146 111.961 81.6255 112.617 81.1432 113.187C80.6718 113.739 80.1566 114.177 79.5975 114.5C78.896 114.907 78.2547 115.075 77.6737 115.006C77.0928 114.937 76.6269 114.618 76.2762 114.048C75.9254 113.466 75.75 112.643 75.7501 111.579C75.7501 110.502 75.9255 109.476 76.2763 108.5C76.6271 107.512 77.093 106.647 77.674 105.905C78.255 105.164 78.8963 104.59 79.5978 104.183C80.1131 103.885 80.5899 103.729 81.0284 103.716C81.4778 103.697 81.856 103.845 82.1629 104.161L82.1631 98.3282ZM80.1238 111.935C80.6938 111.605 81.1761 111.085 81.5707 110.375C81.9654 109.665 82.1627 108.829 82.1628 107.866C82.1628 106.916 81.9655 106.327 81.5709 106.1C81.1763 105.86 80.694 105.905 80.1239 106.235C79.521 106.584 79.0332 107.113 78.6605 107.823C78.2988 108.526 78.1179 109.322 78.1178 110.208C78.1178 111.095 78.2987 111.693 78.6604 112.003C79.0331 112.307 79.5209 112.284 80.1238 111.935ZM88.1137 99.4998L90.3168 104.722L92.3723 97.034L94.7565 95.6536L91.1553 107.562L89.2972 108.637L85.5815 100.966L88.1137 99.4998ZM97.0159 93.0915C96.6542 93.3009 96.3363 93.3266 96.0623 93.1686C95.7992 92.9916 95.6677 92.6878 95.6677 92.2571C95.6677 91.8138 95.7992 91.3576 96.0623 90.8886C96.3254 90.4196 96.6433 90.0772 97.016 89.8615C97.3887 89.6457 97.7121 89.6231 97.9861 89.7938C98.2602 89.9518 98.3972 90.2461 98.3972 90.6768C98.3972 91.1074 98.2601 91.5668 97.9861 92.0548C97.712 92.5301 97.3886 92.8757 97.0159 93.0915ZM98.183 103.512L95.8975 104.835L95.8978 94.9928L98.1833 93.6695L98.183 103.512ZM104.079 90.0088C104.836 89.5708 105.504 89.38 106.085 89.4363C106.677 89.4736 107.132 89.7548 107.45 90.2801C107.779 90.7864 107.943 91.4955 107.943 92.4075C107.943 92.8128 107.91 93.2435 107.845 93.6996L102.188 96.9746C102.287 97.6521 102.517 98.0762 102.879 98.2467C103.241 98.4046 103.69 98.3281 104.227 98.0171C104.611 97.7949 104.951 97.5032 105.247 97.1418C105.553 96.7614 105.789 96.3273 105.954 95.8395L107.631 96.0084C107.401 96.8637 106.957 97.6781 106.299 98.4515C105.652 99.2187 104.929 99.8339 104.128 100.297C103.361 100.741 102.649 100.958 101.991 100.946C101.333 100.934 100.801 100.653 100.396 100.102C100.001 99.5455 99.804 98.716 99.8041 97.614C99.8041 96.5247 100.001 95.4795 100.396 94.4783C100.802 93.4708 101.328 92.5835 101.975 91.8164C102.621 91.0492 103.323 90.4467 104.079 90.0088ZM104.014 92.1938C103.564 92.4541 103.18 92.8409 102.863 93.3543C102.545 93.8677 102.331 94.4537 102.221 95.1126L105.608 93.1514C105.565 92.5688 105.395 92.2048 105.099 92.0595C104.814 91.8952 104.452 91.94 104.014 92.1938ZM115.967 83.3732L117.742 88.482L119.42 81.3739L121.639 80.0887L118.531 91.711L116.903 92.6535L114.963 87.7919L113.105 94.8527L111.461 95.8047L108.238 87.8477L110.59 86.4863L112.382 91.6616L114.059 84.4775L115.967 83.3732Z" fill="white"/>
<defs>
<filter id="filter0_b_55_1449" x="-100" y="-100" width="325" height="372" filterUnits="userSpaceOnUse" color-interpolation-filters="sRGB">
<feFlood flood-opacity="0" result="BackgroundImageFix"/>
<feGaussianBlur in="BackgroundImageFix" stdDeviation="50"/>
<feComposite in2="SourceAlpha" operator="in" result="effect1_backgroundBlur_55_1449"/>
<feBlend mode="normal" in="SourceGraphic" in2="effect1_backgroundBlur_55_1449" result="shape"/>
</filter>
<filter id="filter1_b_55_1449" x="-100" y="-51" width="240" height="331.5" filterUnits="userSpaceOnUse" color-interpolation-filters="sRGB">
<feFlood flood-opacity="0" result="BackgroundImageFix"/>
<feGaussianBlur in="BackgroundImageFix" stdDeviation="50"/>
<feComposite in2="SourceAlpha" operator="in" result="effect1_backgroundBlur_55_1449"/>
<feBlend mode="normal" in="SourceGraphic" in2="effect1_backgroundBlur_55_1449" result="shape"/>
</filter>
</defs>
</svg>
