<svg width="125" height="181" viewBox="0 0 125 181" fill="none" xmlns="http://www.w3.org/2000/svg">
<path opacity="0.9" fill-rule="evenodd" clip-rule="evenodd" d="M45 177V70L5 46L5 153L45 177Z" fill="#03571F"/>
<path fill-rule="evenodd" clip-rule="evenodd" d="M5 71V75L10.3333 72L5 71ZM10 134V131L14 131.75L10 134ZM10 139V136L14 136.75L10 139ZM10 149V146L14 146.75L10 149ZM10 151V154L14 151.75L10 151ZM10 144V141L14 141.75L10 144Z" fill="#03571F"/>
<g filter="url(#filter0_b_55_1455)">
<path fill-rule="evenodd" clip-rule="evenodd" d="M45 70L5 46L85 0L125 24L45 70ZM44 83.75L40 86L0 62L4 59.75L44 83.75ZM40 152L44 149.75L14 131.75L10 134L40 152ZM44 159.75L40 162L10 144L14 141.75L44 159.75ZM40 157L44 154.75L14 136.75L10 139L40 157ZM44 164.75L40 167L10 149L14 146.75L44 164.75ZM40 172L44 169.75L14 151.75L10 154L40 172ZM39 90.75L35 93L5 75L9 72.75L39 90.75ZM40 73L44 70.75L4 46.75L0 49L40 73Z" fill="#03571F" fill-opacity="0.7"/>
</g>
<g filter="url(#filter1_b_55_1455)">
<path fill-rule="evenodd" clip-rule="evenodd" d="M40 73V84.75L0 60.75V49L40 73ZM40 180.5V172L10 154V151L40 169V167L10 149V146L40 164V162L10 144V141L40 159.25V157L10 139V136L40 154V152L10 134V131L40 149V86L0 62V156.5L40 180.5ZM5 71L35 89V93L5 75V71Z" fill="#03571F" fill-opacity="0.8"/>
</g>
<path fill-rule="evenodd" clip-rule="evenodd" d="M45 70L125 24V131L45 177V70ZM40 73L44 70.75V82.5L40 84.75V73ZM44 169.75L40 172V180.5L44 178V169.75ZM40 152L44 149.75V151.75L40 154V152ZM44 154.75L40 157V159L44 156.75V154.75ZM40 162L44 159.75V161.75L40 164V162ZM44 164.75L40 167V169L44 166.75V164.75ZM40 86L44 83.75V146.75L40 149V86Z" fill="#03571F"/>
<path d="M62.7469 123.018L59.6029 124.817L56.3681 121.167L56.2591 121.23L54.3327 122.346L54.3325 127.89L51.6973 129.415L51.6978 114.043L56.2957 111.381C57.3377 110.778 58.2524 110.451 59.0399 110.401C59.8274 110.351 60.4332 110.582 60.8572 111.092C61.2813 111.589 61.4933 112.32 61.4932 113.286C61.4932 114.266 61.2751 115.253 60.8389 116.248C60.4027 117.242 59.7909 118.163 59.0033 119.011L62.7469 123.018ZM54.3329 115.101L54.3328 119.763L55.9866 118.805C56.762 118.356 57.4041 117.795 57.913 117.123C58.434 116.429 58.6945 115.69 58.6945 114.906C58.6945 114.108 58.4401 113.668 57.9313 113.584C57.4224 113.501 56.7742 113.687 55.9867 114.143L54.3329 115.101ZM70.3725 103.231L75.7514 115.488L72.9526 117.109L71.7896 114.275L66.6102 117.274L65.4833 121.433L62.8481 122.959L68.0644 104.567L70.3725 103.231ZM70.9356 112.166L69.1547 107.8L67.4281 114.197L70.9356 112.166ZM81.7066 96.6686C83.0029 95.918 84.1721 95.5421 85.214 95.5408C86.2681 95.5325 87.098 95.934 87.7037 96.7452C88.3095 97.5425 88.6123 98.7391 88.6123 100.335C88.6122 101.931 88.3093 103.485 87.7035 104.998C87.0976 106.511 86.2737 107.877 85.2318 109.096C84.1898 110.302 83.0146 111.283 81.7061 112.041L77.2717 114.608L77.2722 99.2361L81.7066 96.6686ZM81.3972 109.615C82.8269 108.788 83.9233 107.712 84.6867 106.388C85.45 105.064 85.8317 103.583 85.8317 101.945C85.8318 100.335 85.4441 99.3135 84.6687 98.8805C83.9055 98.4264 82.8151 98.6097 81.3975 99.4305L79.9073 100.293L79.907 110.478L81.3972 109.615ZM93.4128 105.262L90.7777 106.788L90.7782 91.4162L93.4133 89.8905L93.4128 105.262ZM104.696 83.3576L107.332 81.8319L107.331 90.9879C107.331 92.3039 107.107 93.5817 106.659 94.8212C106.21 96.0468 105.562 97.1711 104.714 98.1941C103.866 99.2032 102.86 100.044 101.697 100.718C100.522 101.398 99.5104 101.725 98.6623 101.698C97.8143 101.657 97.1661 101.283 96.7178 100.577C96.2696 99.8565 96.0455 98.8383 96.0455 97.5223L96.0458 88.3663L98.681 86.8406L98.6807 95.2616C98.6807 96.7456 98.9411 97.7007 99.4621 98.1271C99.9951 98.5464 100.74 98.479 101.697 97.9248C102.642 97.3777 103.375 96.5893 103.896 95.5596C104.43 94.523 104.696 93.2626 104.696 91.7786L104.696 83.3576ZM118.959 86.0198C118.959 87.0698 118.722 88.0886 118.25 89.0762C117.789 90.0427 117.183 90.9115 116.432 91.6824C115.693 92.4463 114.9 93.0738 114.052 93.5648C112.816 94.2804 111.701 94.5967 110.708 94.514C109.714 94.4172 109.054 93.8545 108.727 92.8259L110.871 90.1773C111.162 90.7929 111.586 91.1564 112.143 91.2677C112.701 91.379 113.367 91.2102 114.142 90.7612C114.772 90.3965 115.269 89.9618 115.633 89.4574C116.008 88.9459 116.196 88.4102 116.196 87.8502C116.196 87.4022 116.069 87.1049 115.815 86.9582C115.572 86.8045 115.263 86.7524 114.888 86.8018C114.524 86.8443 114.021 86.9394 113.379 87.0872C112.519 87.2912 111.816 87.4111 111.271 87.4468C110.726 87.4684 110.26 87.3045 109.872 86.955C109.484 86.6055 109.29 85.9617 109.29 85.0237C109.29 84.0297 109.515 83.0599 109.963 82.1144C110.423 81.1478 111.023 80.2826 111.762 79.5187C112.513 78.7337 113.319 78.0922 114.179 77.5942C115.354 76.9137 116.36 76.6395 117.196 76.7715C118.032 76.9034 118.571 77.4243 118.813 78.334L116.669 80.9826C116.451 80.4509 116.124 80.1293 115.688 80.0178C115.251 79.8924 114.706 80.019 114.052 80.3978C113.458 80.7416 112.974 81.1832 112.598 81.7226C112.235 82.2411 112.053 82.7593 112.053 83.2773C112.053 83.6693 112.168 83.9317 112.398 84.0644C112.628 84.1831 112.919 84.2247 113.27 84.1893C113.634 84.1329 114.118 84.0343 114.724 83.8935C115.597 83.6824 116.317 83.5661 116.887 83.5444C117.456 83.5087 117.941 83.6761 118.341 84.0466C118.753 84.3961 118.959 85.0538 118.959 86.0198Z" fill="white"/>
<defs>
<filter id="filter0_b_55_1455" x="-100" y="-100" width="325" height="372" filterUnits="userSpaceOnUse" color-interpolation-filters="sRGB">
<feFlood flood-opacity="0" result="BackgroundImageFix"/>
<feGaussianBlur in="BackgroundImageFix" stdDeviation="50"/>
<feComposite in2="SourceAlpha" operator="in" result="effect1_backgroundBlur_55_1455"/>
<feBlend mode="normal" in="SourceGraphic" in2="effect1_backgroundBlur_55_1455" result="shape"/>
</filter>
<filter id="filter1_b_55_1455" x="-100" y="-51" width="240" height="331.5" filterUnits="userSpaceOnUse" color-interpolation-filters="sRGB">
<feFlood flood-opacity="0" result="BackgroundImageFix"/>
<feGaussianBlur in="BackgroundImageFix" stdDeviation="50"/>
<feComposite in2="SourceAlpha" operator="in" result="effect1_backgroundBlur_55_1455"/>
<feBlend mode="normal" in="SourceGraphic" in2="effect1_backgroundBlur_55_1455" result="shape"/>
</filter>
</defs>
</svg>
