<svg width="126" height="181" viewBox="0 0 126 181" fill="none" xmlns="http://www.w3.org/2000/svg">
<path opacity="0.9" fill-rule="evenodd" clip-rule="evenodd" d="M45.1308 177V70L5.01453 46L5.01453 153L45.1308 177Z" fill="#03571F"/>
<path fill-rule="evenodd" clip-rule="evenodd" d="M5.01453 71V75L10.3634 72L5.01453 71ZM10.0291 134V131L14.0407 131.75L10.0291 134ZM10.0291 139V136L14.0407 136.75L10.0291 139ZM10.0291 149V146L14.0407 146.75L10.0291 149ZM10.0291 151V154L14.0407 151.75L10.0291 151ZM10.0291 144V141L14.0407 141.75L10.0291 144Z" fill="#03571F"/>
<g filter="url(#filter0_b_55_1451)">
<path fill-rule="evenodd" clip-rule="evenodd" d="M45.1308 70L5.01453 46L85.247 0L125.363 24L45.1308 70ZM44.1279 83.75L40.1163 86L0 62L4.01163 59.75L44.1279 83.75ZM40.1163 152L44.1279 149.75L14.0407 131.75L10.0291 134L40.1163 152ZM44.1279 159.75L40.1163 162L10.0291 144L14.0407 141.75L44.1279 159.75ZM40.1163 157L44.1279 154.75L14.0407 136.75L10.0291 139L40.1163 157ZM44.1279 164.75L40.1163 167L10.0291 149L14.0407 146.75L44.1279 164.75ZM40.1163 172L44.1279 169.75L14.0407 151.75L10.0291 154L40.1163 172ZM39.1133 90.75L35.1017 93L5.01453 75L9.02616 72.75L39.1133 90.75ZM40.1163 73L44.1279 70.75L4.01163 46.75L0 49L40.1163 73Z" fill="#03571F" fill-opacity="0.7"/>
</g>
<g filter="url(#filter1_b_55_1451)">
<path fill-rule="evenodd" clip-rule="evenodd" d="M40.1163 73V84.75L0 60.75V49L40.1163 73ZM40.1163 180.5V172L10.0291 154V151L40.1163 169V167L10.0291 149V146L40.1163 164V162L10.0291 144V141L40.1163 159.25V157L10.0291 139V136L40.1163 154V152L10.0291 134V131L40.1163 149V86L0 62V156.5L40.1163 180.5ZM5.01453 71L35.1017 89V93L5.01453 75V71Z" fill="#03571F" fill-opacity="0.8"/>
</g>
<path fill-rule="evenodd" clip-rule="evenodd" d="M45.1308 70L125.363 24V131L45.1308 177V70ZM40.1163 73L44.1279 70.75V82.5L40.1163 84.75V73ZM44.1279 169.75L40.1163 172V180.5L44.1279 178V169.75ZM40.1163 152L44.1279 149.75V151.75L40.1163 154V152ZM44.1279 154.75L40.1163 157V159L44.1279 156.75V154.75ZM40.1163 162L44.1279 159.75V161.75L40.1163 164V162ZM44.1279 164.75L40.1163 167V169L44.1279 166.75V164.75ZM40.1163 86L44.1279 83.75V146.75L40.1163 149V86Z" fill="#03571F"/>
<path d="M58.4553 103.803L64.5654 119.319L70.4274 96.8915L75.2599 94.1016L66.3735 125.583L62.5387 127.797L53.311 106.773L58.4553 103.803ZM85.7292 88.0576C87.5375 87.0136 89.1171 86.4616 90.4681 86.4017C91.8191 86.3417 92.8583 86.7617 93.5857 87.6618C94.334 88.5258 94.708 89.8338 94.708 91.5858C94.7079 93.3138 94.3338 95.0538 93.5855 96.8058C92.8579 98.5218 91.8187 100.13 90.4676 101.63C89.1166 103.106 87.5369 104.366 85.7286 105.41L82.3926 107.335L82.3923 116.335L77.8716 118.945L77.8725 92.5933L85.7292 88.0576ZM85.2299 101.27C86.6433 100.454 87.7761 99.4516 88.6283 98.2636C89.4805 97.0517 89.9066 95.7497 89.9067 94.3577C89.9067 92.9657 89.4807 92.1557 88.6285 91.9276C87.7763 91.6756 86.6436 91.9576 85.2302 92.7735L82.393 94.4115L82.3928 102.907L85.2299 101.27ZM101.371 79.027L112.439 90.0613L112.439 72.6373L116.648 70.2075L116.648 96.5595L112.969 98.6834L101.87 87.6311L101.869 105.091L97.7229 107.485L97.7237 81.1329L101.371 79.027Z" fill="white"/>
<defs>
<filter id="filter0_b_55_1451" x="-100" y="-100" width="325.363" height="372" filterUnits="userSpaceOnUse" color-interpolation-filters="sRGB">
<feFlood flood-opacity="0" result="BackgroundImageFix"/>
<feGaussianBlur in="BackgroundImageFix" stdDeviation="50"/>
<feComposite in2="SourceAlpha" operator="in" result="effect1_backgroundBlur_55_1451"/>
<feBlend mode="normal" in="SourceGraphic" in2="effect1_backgroundBlur_55_1451" result="shape"/>
</filter>
<filter id="filter1_b_55_1451" x="-100" y="-51" width="240.116" height="331.5" filterUnits="userSpaceOnUse" color-interpolation-filters="sRGB">
<feFlood flood-opacity="0" result="BackgroundImageFix"/>
<feGaussianBlur in="BackgroundImageFix" stdDeviation="50"/>
<feComposite in2="SourceAlpha" operator="in" result="effect1_backgroundBlur_55_1451"/>
<feBlend mode="normal" in="SourceGraphic" in2="effect1_backgroundBlur_55_1451" result="shape"/>
</filter>
</defs>
</svg>
