<svg width="119" height="221" viewBox="0 0 119 221" fill="none" xmlns="http://www.w3.org/2000/svg">
<path opacity="0.9" fill-rule="evenodd" clip-rule="evenodd" d="M30.2914 195.304V123.182L3.36572 107.006L3.36572 179.127L30.2914 195.304Z" fill="#03571F"/>
<path fill-rule="evenodd" clip-rule="evenodd" d="M3.36572 123.856V126.552L6.95582 124.53L3.36572 123.856ZM6.73143 166.32V164.298L9.424 164.804L6.73143 166.32ZM6.73143 169.691V167.669L9.424 168.174L6.73143 169.691ZM6.73143 176.431V174.409L9.424 174.914L6.73143 176.431ZM6.73143 177.779V179.801L9.424 178.285L6.73143 177.779ZM6.73143 173.061V171.039L9.424 171.544L6.73143 173.061Z" fill="#03571F"/>
<g filter="url(#filter0_b_54_1644)">
<path fill-rule="evenodd" clip-rule="evenodd" d="M84.1428 92.1768L30.2914 123.182L3.36571 107.006L57.2171 76L84.1428 92.1768ZM29.6183 132.45L26.9257 133.967L0 117.79L2.69257 116.273L29.6183 132.45ZM26.9257 178.453L29.6183 176.936L9.42399 164.804L6.73142 166.32L26.9257 178.453ZM29.6183 183.677L26.9257 185.193L6.73142 173.061L9.42399 171.544L29.6183 183.677ZM26.9257 181.823L29.6183 180.307L9.42399 168.174L6.73142 169.691L26.9257 181.823ZM29.6183 187.047L26.9257 188.564L6.73142 176.431L9.42399 174.914L29.6183 187.047ZM26.9257 191.934L29.6183 190.417L9.42399 178.285L6.73142 179.801L26.9257 191.934ZM26.2526 137.169L23.56 138.685L3.36571 126.552L6.05828 125.036L26.2526 137.169ZM26.9257 125.204L29.6183 123.688L2.69257 107.511L0 109.028L26.9257 125.204Z" fill="#03571F" fill-opacity="0.7"/>
</g>
<g filter="url(#filter1_b_54_1644)">
<path fill-rule="evenodd" clip-rule="evenodd" d="M26.9257 125.204V133.124L0 116.948V109.028L26.9257 125.204ZM26.9257 197.663V191.934L6.73142 179.801V177.779L26.9257 189.912V188.564L6.73142 176.431V174.409L26.9257 186.541V185.193L6.73142 173.061V171.039L26.9257 183.34V181.823L6.73142 169.691V167.669L26.9257 179.801V178.453L6.73142 166.32V164.298L26.9257 176.431V133.967L0 117.79V181.486L26.9257 197.663ZM3.36571 123.856L23.56 135.989V138.685L3.36571 126.552V123.856Z" fill="#03571F" fill-opacity="0.8"/>
</g>
<path fill-rule="evenodd" clip-rule="evenodd" d="M30.2914 123.182L84.1428 92.1768V164.298L30.2914 195.304V123.182ZM26.9257 125.204L29.6183 123.688V131.608L26.9257 133.124V125.204ZM29.6183 190.417L26.9257 191.934V197.663L29.6183 195.978V190.417ZM26.9257 178.453L29.6183 176.936V178.285L26.9257 179.801V178.453ZM29.6183 180.307L26.9257 181.823V183.171L29.6183 181.655V180.307ZM26.9257 185.193L29.6183 183.677V185.025L26.9257 186.541V185.193ZM29.6183 187.047L26.9257 188.564V189.912L29.6183 188.395V187.047ZM26.9257 133.967L29.6183 132.45V174.914L26.9257 176.431V133.967Z" fill="#03571F"/>
<path opacity="0.9" fill-rule="evenodd" clip-rule="evenodd" d="M30.2914 119.304V47.1823L3.36572 31.0055L3.36572 103.127L30.2914 119.304Z" fill="#03571F"/>
<path fill-rule="evenodd" clip-rule="evenodd" d="M3.36572 47.8564V50.5525L6.95582 48.5304L3.36572 47.8564ZM6.73143 90.3204V88.2983L9.424 88.8039L6.73143 90.3204ZM6.73143 93.6906V91.6685L9.424 92.174L6.73143 93.6906ZM6.73143 100.431V98.4088L9.424 98.9144L6.73143 100.431ZM6.73143 101.779V103.801L9.424 102.285L6.73143 101.779ZM6.73143 97.0608V95.0387L9.424 95.5442L6.73143 97.0608Z" fill="#03571F"/>
<g filter="url(#filter2_b_54_1644)">
<path fill-rule="evenodd" clip-rule="evenodd" d="M84.1428 16.1768L30.2914 47.1823L3.36571 31.0055L57.2171 0L84.1428 16.1768ZM29.6183 56.4503L26.9257 57.9669L0 41.7901L2.69257 40.2735L29.6183 56.4503ZM26.9257 102.453L29.6183 100.936L9.42399 88.8039L6.73142 90.3204L26.9257 102.453ZM29.6183 107.677L26.9257 109.193L6.73142 97.0608L9.42399 95.5442L29.6183 107.677ZM26.9257 105.823L29.6183 104.307L9.42399 92.174L6.73142 93.6906L26.9257 105.823ZM29.6183 111.047L26.9257 112.564L6.73142 100.431L9.42399 98.9144L29.6183 111.047ZM26.9257 115.934L29.6183 114.417L9.42399 102.285L6.73142 103.801L26.9257 115.934ZM26.2526 61.1685L23.56 62.6851L3.36571 50.5525L6.05828 49.0359L26.2526 61.1685ZM26.9257 49.2044L29.6183 47.6878L2.69257 31.511L0 33.0276L26.9257 49.2044Z" fill="#03571F" fill-opacity="0.7"/>
</g>
<g filter="url(#filter3_b_54_1644)">
<path fill-rule="evenodd" clip-rule="evenodd" d="M26.9257 49.2044V57.1243L0 40.9475V33.0276L26.9257 49.2044ZM26.9257 121.663V115.934L6.73142 103.801V101.779L26.9257 113.912V112.564L6.73142 100.431V98.4088L26.9257 110.541V109.193L6.73142 97.0608V95.0387L26.9257 107.34V105.823L6.73142 93.6906V91.6685L26.9257 103.801V102.453L6.73142 90.3204V88.2983L26.9257 100.431V57.9668L0 41.79V105.486L26.9257 121.663ZM3.36571 47.8563L23.56 59.9889V62.6851L3.36571 50.5525V47.8563Z" fill="#03571F" fill-opacity="0.8"/>
</g>
<path fill-rule="evenodd" clip-rule="evenodd" d="M30.2914 47.1823L84.1428 16.1768V88.2983L30.2914 119.304V47.1823ZM26.9257 49.2044L29.6183 47.6878V55.6077L26.9257 57.1243V49.2044ZM29.6183 114.417L26.9257 115.934V121.663L29.6183 119.978V114.417ZM26.9257 102.453L29.6183 100.936V102.285L26.9257 103.801V102.453ZM29.6183 104.307L26.9257 105.823V107.171L29.6183 105.655V104.307ZM26.9257 109.193L29.6183 107.677V109.025L26.9257 110.541V109.193ZM29.6183 111.047L26.9257 112.564V113.912L29.6183 112.395V111.047ZM26.9257 57.9668L29.6183 56.4503V98.9144L26.9257 100.431V57.9668Z" fill="#03571F"/>
<path opacity="0.9" fill-rule="evenodd" clip-rule="evenodd" d="M65.1486 218.304V146.182L38.2229 130.006L38.2229 202.127L65.1486 218.304Z" fill="#03571F"/>
<path fill-rule="evenodd" clip-rule="evenodd" d="M38.2229 146.856V149.552L41.813 147.53L38.2229 146.856ZM41.5886 189.32V187.298L44.2812 187.804L41.5886 189.32ZM41.5886 192.691V190.669L44.2812 191.174L41.5886 192.691ZM41.5886 199.431V197.409L44.2812 197.914L41.5886 199.431ZM41.5886 200.779V202.801L44.2812 201.285L41.5886 200.779ZM41.5886 196.061V194.039L44.2812 194.544L41.5886 196.061Z" fill="#03571F"/>
<g filter="url(#filter4_b_54_1644)">
<path fill-rule="evenodd" clip-rule="evenodd" d="M119 115.177L65.1486 146.182L38.2229 130.006L92.0743 99L119 115.177ZM64.4754 155.45L61.7829 156.967L34.8572 140.79L37.5497 139.273L64.4754 155.45ZM61.7829 201.453L64.4754 199.936L44.2812 187.804L41.5886 189.32L61.7829 201.453ZM64.4754 206.677L61.7829 208.193L41.5886 196.061L44.2812 194.544L64.4754 206.677ZM61.7829 204.823L64.4754 203.307L44.2812 191.174L41.5886 192.691L61.7829 204.823ZM64.4754 210.047L61.7829 211.564L41.5886 199.431L44.2812 197.914L64.4754 210.047ZM61.7829 214.934L64.4754 213.417L44.2812 201.285L41.5886 202.801L61.7829 214.934ZM61.1097 160.169L58.4172 161.685L38.2229 149.552L40.9155 148.036L61.1097 160.169ZM61.7829 148.204L64.4754 146.688L37.5497 130.511L34.8572 132.028L61.7829 148.204Z" fill="#03571F" fill-opacity="0.7"/>
</g>
<g filter="url(#filter5_b_54_1644)">
<path fill-rule="evenodd" clip-rule="evenodd" d="M61.7829 148.204V156.124L34.8572 139.948V132.028L61.7829 148.204ZM61.7829 220.663V214.934L41.5886 202.801V200.779L61.7829 212.912V211.564L41.5886 199.431V197.409L61.7829 209.541V208.193L41.5886 196.061V194.039L61.7829 206.34V204.823L41.5886 192.691V190.669L61.7829 202.801V201.453L41.5886 189.32V187.298L61.7829 199.431V156.967L34.8572 140.79V204.486L61.7829 220.663ZM38.2229 146.856L58.4172 158.989V161.685L38.2229 149.552V146.856Z" fill="#03571F" fill-opacity="0.8"/>
</g>
<path fill-rule="evenodd" clip-rule="evenodd" d="M65.1486 146.182L119 115.177V187.298L65.1486 218.304V146.182ZM61.7829 148.204L64.4755 146.688V154.608L61.7829 156.124V148.204ZM64.4755 213.417L61.7829 214.934V220.663L64.4755 218.978V213.417ZM61.7829 201.453L64.4755 199.936V201.285L61.7829 202.801V201.453ZM64.4755 203.307L61.7829 204.823V206.171L64.4755 204.655V203.307ZM61.7829 208.193L64.4755 206.677V208.025L61.7829 209.541V208.193ZM64.4755 210.047L61.7829 211.564V212.912L64.4755 211.395V210.047ZM61.7829 156.967L64.4755 155.45V197.914L61.7829 199.431V156.967Z" fill="#03571F"/>
<path opacity="0.9" fill-rule="evenodd" clip-rule="evenodd" d="M65.1486 142.304V70.1823L38.2229 54.0055L38.2229 126.127L65.1486 142.304Z" fill="#03571F"/>
<path fill-rule="evenodd" clip-rule="evenodd" d="M38.2229 70.8564V73.5525L41.813 71.5304L38.2229 70.8564ZM41.5886 113.32V111.298L44.2812 111.804L41.5886 113.32ZM41.5886 116.691V114.669L44.2812 115.174L41.5886 116.691ZM41.5886 123.431V121.409L44.2812 121.914L41.5886 123.431ZM41.5886 124.779V126.801L44.2812 125.285L41.5886 124.779ZM41.5886 120.061V118.039L44.2812 118.544L41.5886 120.061Z" fill="#03571F"/>
<g filter="url(#filter6_b_54_1644)">
<path fill-rule="evenodd" clip-rule="evenodd" d="M119 39.1768L65.1486 70.1823L38.2229 54.0055L92.0743 23L119 39.1768ZM64.4754 79.4503L61.7829 80.9669L34.8572 64.7901L37.5497 63.2735L64.4754 79.4503ZM61.7829 125.453L64.4754 123.936L44.2812 111.804L41.5886 113.32L61.7829 125.453ZM64.4754 130.677L61.7829 132.193L41.5886 120.061L44.2812 118.544L64.4754 130.677ZM61.7829 128.823L64.4754 127.307L44.2812 115.174L41.5886 116.691L61.7829 128.823ZM64.4754 134.047L61.7829 135.564L41.5886 123.431L44.2812 121.914L64.4754 134.047ZM61.7829 138.934L64.4754 137.417L44.2812 125.285L41.5886 126.801L61.7829 138.934ZM61.1097 84.1685L58.4172 85.6851L38.2229 73.5525L40.9155 72.0359L61.1097 84.1685ZM61.7829 72.2044L64.4754 70.6878L37.5497 54.511L34.8572 56.0276L61.7829 72.2044Z" fill="#03571F" fill-opacity="0.7"/>
</g>
<g filter="url(#filter7_b_54_1644)">
<path fill-rule="evenodd" clip-rule="evenodd" d="M61.7829 72.2044V80.1243L34.8572 63.9475V56.0276L61.7829 72.2044ZM61.7829 144.663V138.934L41.5886 126.801V124.779L61.7829 136.912V135.564L41.5886 123.431V121.409L61.7829 133.541V132.193L41.5886 120.061V118.039L61.7829 130.34V128.823L41.5886 116.691V114.669L61.7829 126.801V125.453L41.5886 113.32V111.298L61.7829 123.431V80.9668L34.8572 64.79V128.486L61.7829 144.663ZM38.2229 70.8563L58.4172 82.9889V85.6851L38.2229 73.5525V70.8563Z" fill="#03571F" fill-opacity="0.8"/>
</g>
<path fill-rule="evenodd" clip-rule="evenodd" d="M65.1486 70.1823L119 39.1768V111.298L65.1486 142.304V70.1823ZM61.7829 72.2044L64.4755 70.6878V78.6077L61.7829 80.1243V72.2044ZM64.4755 137.417L61.7829 138.934V144.663L64.4755 142.978V137.417ZM61.7829 125.453L64.4755 123.936V125.285L61.7829 126.801V125.453ZM64.4755 127.307L61.7829 128.823V130.171L64.4755 128.655V127.307ZM61.7829 132.193L64.4755 130.677V132.025L61.7829 133.541V132.193ZM64.4755 134.047L61.7829 135.564V136.912L64.4755 135.395V134.047ZM61.7829 80.9668L64.4755 79.4503V121.914L61.7829 123.431V80.9668Z" fill="#03571F"/>
<defs>
<filter id="filter0_b_54_1644" x="-100" y="-24" width="284.143" height="315.934" filterUnits="userSpaceOnUse" color-interpolation-filters="sRGB">
<feFlood flood-opacity="0" result="BackgroundImageFix"/>
<feGaussianBlur in="BackgroundImageFix" stdDeviation="50"/>
<feComposite in2="SourceAlpha" operator="in" result="effect1_backgroundBlur_54_1644"/>
<feBlend mode="normal" in="SourceGraphic" in2="effect1_backgroundBlur_54_1644" result="shape"/>
</filter>
<filter id="filter1_b_54_1644" x="-100" y="9.02762" width="226.926" height="288.635" filterUnits="userSpaceOnUse" color-interpolation-filters="sRGB">
<feFlood flood-opacity="0" result="BackgroundImageFix"/>
<feGaussianBlur in="BackgroundImageFix" stdDeviation="50"/>
<feComposite in2="SourceAlpha" operator="in" result="effect1_backgroundBlur_54_1644"/>
<feBlend mode="normal" in="SourceGraphic" in2="effect1_backgroundBlur_54_1644" result="shape"/>
</filter>
<filter id="filter2_b_54_1644" x="-100" y="-100" width="284.143" height="315.934" filterUnits="userSpaceOnUse" color-interpolation-filters="sRGB">
<feFlood flood-opacity="0" result="BackgroundImageFix"/>
<feGaussianBlur in="BackgroundImageFix" stdDeviation="50"/>
<feComposite in2="SourceAlpha" operator="in" result="effect1_backgroundBlur_54_1644"/>
<feBlend mode="normal" in="SourceGraphic" in2="effect1_backgroundBlur_54_1644" result="shape"/>
</filter>
<filter id="filter3_b_54_1644" x="-100" y="-66.9724" width="226.926" height="288.635" filterUnits="userSpaceOnUse" color-interpolation-filters="sRGB">
<feFlood flood-opacity="0" result="BackgroundImageFix"/>
<feGaussianBlur in="BackgroundImageFix" stdDeviation="50"/>
<feComposite in2="SourceAlpha" operator="in" result="effect1_backgroundBlur_54_1644"/>
<feBlend mode="normal" in="SourceGraphic" in2="effect1_backgroundBlur_54_1644" result="shape"/>
</filter>
<filter id="filter4_b_54_1644" x="-65.1428" y="-1" width="284.143" height="315.934" filterUnits="userSpaceOnUse" color-interpolation-filters="sRGB">
<feFlood flood-opacity="0" result="BackgroundImageFix"/>
<feGaussianBlur in="BackgroundImageFix" stdDeviation="50"/>
<feComposite in2="SourceAlpha" operator="in" result="effect1_backgroundBlur_54_1644"/>
<feBlend mode="normal" in="SourceGraphic" in2="effect1_backgroundBlur_54_1644" result="shape"/>
</filter>
<filter id="filter5_b_54_1644" x="-65.1428" y="32.0276" width="226.926" height="288.635" filterUnits="userSpaceOnUse" color-interpolation-filters="sRGB">
<feFlood flood-opacity="0" result="BackgroundImageFix"/>
<feGaussianBlur in="BackgroundImageFix" stdDeviation="50"/>
<feComposite in2="SourceAlpha" operator="in" result="effect1_backgroundBlur_54_1644"/>
<feBlend mode="normal" in="SourceGraphic" in2="effect1_backgroundBlur_54_1644" result="shape"/>
</filter>
<filter id="filter6_b_54_1644" x="-65.1428" y="-77" width="284.143" height="315.934" filterUnits="userSpaceOnUse" color-interpolation-filters="sRGB">
<feFlood flood-opacity="0" result="BackgroundImageFix"/>
<feGaussianBlur in="BackgroundImageFix" stdDeviation="50"/>
<feComposite in2="SourceAlpha" operator="in" result="effect1_backgroundBlur_54_1644"/>
<feBlend mode="normal" in="SourceGraphic" in2="effect1_backgroundBlur_54_1644" result="shape"/>
</filter>
<filter id="filter7_b_54_1644" x="-65.1428" y="-43.9724" width="226.926" height="288.635" filterUnits="userSpaceOnUse" color-interpolation-filters="sRGB">
<feFlood flood-opacity="0" result="BackgroundImageFix"/>
<feGaussianBlur in="BackgroundImageFix" stdDeviation="50"/>
<feComposite in2="SourceAlpha" operator="in" result="effect1_backgroundBlur_54_1644"/>
<feBlend mode="normal" in="SourceGraphic" in2="effect1_backgroundBlur_54_1644" result="shape"/>
</filter>
</defs>
</svg>
