<svg width="199" height="211" viewBox="0 0 199 211" fill="none" xmlns="http://www.w3.org/2000/svg">
<path opacity="0.9" fill-rule="evenodd" clip-rule="evenodd" d="M45.0018 176.511V69.8066L5.00018 45.8729L5.00018 152.577L45.0018 176.511Z" fill="#03571F"/>
<path fill-rule="evenodd" clip-rule="evenodd" d="M5.00018 70.8039V74.7928L10.3337 71.8011L5.00018 70.8039ZM10.0004 133.63V130.638L14.0005 131.386L10.0004 133.63ZM10.0004 138.616V135.624L14.0005 136.372L10.0004 138.616ZM10.0004 148.588V145.597L14.0005 146.345L10.0004 148.588ZM10.0004 150.583V153.575L14.0005 151.331L10.0004 150.583ZM10.0004 143.602V140.61L14.0005 141.358L10.0004 143.602Z" fill="#03571F"/>
<g filter="url(#filter0_b_54_1645)">
<path fill-rule="evenodd" clip-rule="evenodd" d="M45.0016 69.8066L5 45.8729L85.0032 0L125.005 23.9337L45.0016 69.8066ZM44.0018 83.5186L40.0016 85.7624L0 61.8287L4.00016 59.5849L44.0018 83.5186ZM40.0016 151.58L44.0018 149.336L14.0006 131.386L10.0004 133.63L40.0016 151.58ZM44.0018 159.309L40.0016 161.552L10.0004 143.602L14.0006 141.358L44.0018 159.309ZM40.0016 156.566L44.0018 154.323L14.0006 136.372L10.0004 138.616L40.0016 156.566ZM44.0018 164.295L40.0016 166.539L10.0004 148.588L14.0006 146.345L44.0018 164.295ZM40.0016 171.525L44.0018 169.281L14.0006 151.331L10.0004 153.575L40.0016 171.525ZM39.0016 90.4993L35.0014 92.7431L5.0002 74.7928L9.00036 72.549L39.0016 90.4993ZM40.0016 72.7983L44.0018 70.5546L4.00016 46.6209L0 48.8646L40.0016 72.7983Z" fill="#03571F" fill-opacity="0.7"/>
</g>
<g filter="url(#filter1_b_54_1645)">
<path fill-rule="evenodd" clip-rule="evenodd" d="M40.0016 72.7983V84.5159L0 60.5822V48.8646L40.0016 72.7983ZM40.0016 180.001V171.525L10.0004 153.575V150.583L40.0016 168.533V166.539L10.0004 148.588V145.597L40.0016 163.547V161.552L10.0004 143.602V140.61L40.0016 158.81V156.566L10.0004 138.616V135.624L40.0016 153.575V151.58L10.0004 133.63V130.638L40.0016 148.588V85.7624L0 61.8287V156.068L40.0016 180.001ZM5.0002 70.8039L35.0014 88.7541V92.7431L5.0002 74.7928V70.8039Z" fill="#03571F" fill-opacity="0.8"/>
</g>
<path fill-rule="evenodd" clip-rule="evenodd" d="M45.0016 69.8066L125.005 23.9337V130.638L45.0016 176.511V69.8066ZM40.0016 72.7984L44.0017 70.5546V82.2721L40.0016 84.5159V72.7984ZM44.0017 169.281L40.0016 171.525V180.001L44.0017 177.508V169.281ZM40.0016 151.58L44.0017 149.336V151.331L40.0016 153.575V151.58ZM44.0017 154.323L40.0016 156.566V158.561L44.0017 156.317V154.323ZM40.0016 161.553L44.0017 159.309V161.303L40.0016 163.547V161.553ZM44.0017 164.295L40.0016 166.539V168.533L44.0017 166.289V164.295ZM40.0016 85.7624L44.0017 83.5187V146.345L40.0016 148.588V85.7624Z" fill="#03571F"/>
<path fill-rule="evenodd" clip-rule="evenodd" d="M171.801 164.782V170.257L168.201 172.254V164.084C161.263 162.822 156.895 163.048 154.324 164.526C152.528 165.559 151.762 166.813 150.917 169.705L157.393 165.893L158.801 166.662V169.658L148.679 175.616C148.502 175.857 148.309 176.089 148.094 176.32L147.658 176.786C142.199 182.553 139.173 183.327 132.173 179.693L131.376 179.269C130.005 178.523 127.234 176.943 126.689 176.632L126.688 176.631L126.595 176.578C125.09 175.746 124.108 175.313 123.15 175.095C121.123 174.633 119.064 175.169 115.188 177.201L114.816 176.494L115.454 176.165C119.086 174.322 121.193 173.829 123.328 174.316C124.245 174.525 125.157 174.902 126.419 175.573L127.01 175.895L127.106 175.949L127.108 175.951L127.11 175.952L127.112 175.953C127.461 176.152 128.459 176.721 129.504 177.311L131.14 178.228C131.403 178.373 131.642 178.505 131.845 178.614L131.99 178.693C138.725 182.301 141.461 181.953 146.36 176.981L139.801 180.842V176.249L149.923 170.29L150.023 169.921C150.975 166.524 151.806 165.053 153.924 163.834C156.676 162.252 161.173 162.008 168.201 163.272V109.742L171.801 107.744V163.968L171.998 164.007C193.015 168.165 196.277 169.822 198.58 176.721C200.285 181.83 192.177 188.105 174.359 195.788L174.042 195.055C191.423 187.56 199.315 181.452 197.821 176.974L197.683 176.573C195.508 170.389 192.115 168.798 171.801 164.782ZM145.401 198.817L124.801 210.601V206.406L145.401 192.226V198.817ZM170.601 198.418C168.001 200.015 165.001 203.011 162.801 206.007C160.601 209.003 163.001 209.402 164.201 208.603C165.401 207.804 177.2 201.014 177.2 201.014C177.2 201.014 179.4 200.015 179.6 198.418C179.8 196.82 177.8 195.222 175.6 196.021C175.385 196.099 175.189 196.17 175.008 196.235C173.338 196.835 172.946 196.976 170.601 198.418Z" fill="#03571F"/>
<g filter="url(#filter2_b_54_1645)">
<path fill-rule="evenodd" clip-rule="evenodd" d="M171.801 107.744L103.802 68L100.202 69.9972L168.201 109.742L171.801 107.744ZM158.801 165.064L123.601 144.693L104.602 155.877L139.801 176.249L158.801 165.064ZM145.401 192.226L83.6022 156.077L63.0026 170.257L124.801 206.406L145.401 192.226ZM157.303 205.829C155.833 204.947 155.407 203.022 156.461 201.67C158.42 199.159 161.65 195.46 164.801 193.824C169.801 191.228 172.201 192.626 172.201 192.626L178.6 196.42C178.6 196.42 175.8 194.823 170.001 198.817C164.201 202.811 162.601 209.003 162.601 209.003L157.303 205.829Z" fill="#03571F" fill-opacity="0.7"/>
</g>
<g filter="url(#filter3_b_54_1645)">
<path fill-rule="evenodd" clip-rule="evenodd" d="M100.202 69.9972V132.51L168.201 172.254V109.742L100.202 69.9972ZM104.602 160.471L139.801 180.842V176.249L104.602 155.877V160.471ZM63.0026 174.451L124.801 210.601V206.406L63.0026 170.257V174.451Z" fill="#03571F" fill-opacity="0.8"/>
</g>
<path opacity="0.9" fill-rule="evenodd" clip-rule="evenodd" d="M124.201 160.007L135.401 166.662V153.081L124.201 146.426V160.007Z" fill="#03571F" fill-opacity="0.7"/>
<path fill-rule="evenodd" clip-rule="evenodd" d="M141.801 159.203L135.401 166.662V153.081L141.801 156.876V159.203Z" fill="#03571F"/>
<path fill-rule="evenodd" clip-rule="evenodd" d="M106.602 131.711L163.001 164.665V111.14L106.602 78.7849L106.602 131.711Z" fill="white"/>
<path fill-rule="evenodd" clip-rule="evenodd" d="M107.002 129.514V78.9846L104.602 77.5866V130.912L107.002 129.514Z" fill="#03571F"/>
<g filter="url(#filter4_b_54_1645)">
<path fill-rule="evenodd" clip-rule="evenodd" d="M107.002 129.514L163.001 162.268V164.865L104.602 130.912L107.002 129.514Z" fill="#03571F" fill-opacity="0.7"/>
</g>
<defs>
<filter id="filter0_b_54_1645" x="-100" y="-100" width="325.005" height="371.525" filterUnits="userSpaceOnUse" color-interpolation-filters="sRGB">
<feFlood flood-opacity="0" result="BackgroundImageFix"/>
<feGaussianBlur in="BackgroundImageFix" stdDeviation="50"/>
<feComposite in2="SourceAlpha" operator="in" result="effect1_backgroundBlur_54_1645"/>
<feBlend mode="normal" in="SourceGraphic" in2="effect1_backgroundBlur_54_1645" result="shape"/>
</filter>
<filter id="filter1_b_54_1645" x="-100" y="-51.1354" width="240.002" height="331.137" filterUnits="userSpaceOnUse" color-interpolation-filters="sRGB">
<feFlood flood-opacity="0" result="BackgroundImageFix"/>
<feGaussianBlur in="BackgroundImageFix" stdDeviation="50"/>
<feComposite in2="SourceAlpha" operator="in" result="effect1_backgroundBlur_54_1645"/>
<feBlend mode="normal" in="SourceGraphic" in2="effect1_backgroundBlur_54_1645" result="shape"/>
</filter>
<filter id="filter2_b_54_1645" x="-72.9115" y="-67.9141" width="387.426" height="412.831" filterUnits="userSpaceOnUse" color-interpolation-filters="sRGB">
<feFlood flood-opacity="0" result="BackgroundImageFix"/>
<feGaussianBlur in="BackgroundImageFix" stdDeviation="67.957"/>
<feComposite in2="SourceAlpha" operator="in" result="effect1_backgroundBlur_54_1645"/>
<feBlend mode="normal" in="SourceGraphic" in2="effect1_backgroundBlur_54_1645" result="shape"/>
</filter>
<filter id="filter3_b_54_1645" x="-72.9115" y="-65.9169" width="377.026" height="412.432" filterUnits="userSpaceOnUse" color-interpolation-filters="sRGB">
<feFlood flood-opacity="0" result="BackgroundImageFix"/>
<feGaussianBlur in="BackgroundImageFix" stdDeviation="67.957"/>
<feComposite in2="SourceAlpha" operator="in" result="effect1_backgroundBlur_54_1645"/>
<feBlend mode="normal" in="SourceGraphic" in2="effect1_backgroundBlur_54_1645" result="shape"/>
</filter>
<filter id="filter4_b_54_1645" x="-31.3123" y="-6.40012" width="330.227" height="307.179" filterUnits="userSpaceOnUse" color-interpolation-filters="sRGB">
<feFlood flood-opacity="0" result="BackgroundImageFix"/>
<feGaussianBlur in="BackgroundImageFix" stdDeviation="67.957"/>
<feComposite in2="SourceAlpha" operator="in" result="effect1_backgroundBlur_54_1645"/>
<feBlend mode="normal" in="SourceGraphic" in2="effect1_backgroundBlur_54_1645" result="shape"/>
</filter>
</defs>
</svg>
