<svg width="121" height="88" viewBox="0 0 121 88" fill="none" xmlns="http://www.w3.org/2000/svg">
<path fill-rule="evenodd" clip-rule="evenodd" d="M0 35L60.3755 70V88L0 53V35Z" fill="#265B6E" fill-opacity="0.8"/>
<g filter="url(#filter0_b_54_1607)">
<path fill-rule="evenodd" clip-rule="evenodd" d="M60.125 0L120.501 35L60.3755 70L0 35L60.125 0Z" fill="#265B6E" fill-opacity="0.7"/>
</g>
<path fill-rule="evenodd" clip-rule="evenodd" d="M120.5 35L60.125 70V88L120.5 53V35Z" fill="#265B6E"/>
<g filter="url(#filter1_d_54_1607)">
<path fill-rule="evenodd" clip-rule="evenodd" d="M60.75 9L45.75 17.75L50.5 20.75L57.25 16.75V25.1302C50.719 25.755 45.437 28.5689 43.6509 32.25H29.25L35.5 28.75L31.25 25.75L16 34.75L31.25 43.75L35.5 41L29.25 37H43.3401C44.7359 41.0449 50.2821 44.2032 57.25 44.8698V53L50.5 48.5L45.75 51.75L60.75 61.5L77.25 51.75L72.25 48.5L64.25 53V44.685C70.5044 43.738 75.3659 40.75 76.6599 37H90L83.5 41L88 43.75L103.5 34.75L88.5 25.75L84 28.75L90 32.25H76.3491C74.7019 28.8552 70.0814 26.1979 64.25 25.315V16.75L72.25 20.75L77.25 17.75L60.75 9ZM60 40C65.5228 40 70 37.5376 70 34.5C70 31.4624 65.5228 29 60 29C54.4772 29 50 31.4624 50 34.5C50 37.5376 54.4772 40 60 40Z" fill="white"/>
</g>
<path d="M8.42365 52.981C8.82144 53.2107 9.16293 53.2865 9.44813 53.2085C9.74083 53.1349 9.97349 52.9312 10.1461 52.5975L11.5084 54.2941C11.3057 54.8184 10.9342 55.1326 10.3939 55.2366C9.85348 55.3319 9.20802 55.1628 8.45748 54.7295C7.72945 54.3091 7.06522 53.7219 6.46477 52.9679C5.86433 52.2139 5.38771 51.3624 5.03493 50.4134C4.68216 49.4557 4.50575 48.4915 4.50572 47.5209C4.50569 46.5502 4.67829 45.7919 5.02351 45.2459C5.37624 44.7042 5.85282 44.4031 6.45324 44.3424C7.06116 44.2861 7.72914 44.4681 8.45717 44.8885C9.20771 45.3218 9.85318 45.9025 10.3936 46.6306C10.934 47.3499 11.3055 48.0887 11.5082 48.8471L10.146 48.9705C9.97335 48.4375 9.74067 47.9652 9.44795 47.5535C9.16273 47.1462 8.82123 46.8277 8.42345 46.598C8.00314 46.3553 7.62788 46.2686 7.29765 46.338C6.96742 46.4073 6.70474 46.6283 6.50961 47.0009C6.32199 47.3693 6.22819 47.8741 6.22821 48.5154C6.22823 49.1568 6.32207 49.7743 6.50972 50.3679C6.70488 50.9659 6.96758 51.4903 7.29782 51.941C7.62807 52.3916 8.00335 52.7383 8.42365 52.981ZM18.1243 57.3991C18.1244 58.0491 17.978 58.5106 17.6853 58.7836C17.4001 59.0523 17.0249 59.1562 16.5595 59.0956C16.1017 59.0392 15.6101 58.8594 15.0847 58.556C14.3192 58.114 13.6287 57.5116 13.0132 56.749C12.3978 55.9776 11.9887 55.1564 11.786 54.2854L13.1145 54.1815C13.2946 54.7708 13.5573 55.2995 13.9026 55.7675C14.2478 56.2355 14.6606 56.6082 15.141 56.8855C15.5312 57.1109 15.839 57.1975 16.0641 57.1456C16.2968 57.0979 16.4131 56.9007 16.4131 56.5541C16.4131 56.2767 16.3343 56.0016 16.1767 55.7286C16.0265 55.4599 15.8352 55.2064 15.6025 54.968C15.3773 54.734 15.0658 54.4329 14.668 54.0645C14.1352 53.5748 13.6998 53.1458 13.3621 52.7775C13.0243 52.4005 12.7354 51.9649 12.4952 51.4709C12.255 50.9769 12.1349 50.4396 12.1349 49.8589C12.1349 49.2436 12.2737 48.8038 12.5514 48.5394C12.8366 48.2708 13.2081 48.1646 13.6659 48.221C14.1312 48.273 14.6303 48.4528 15.1632 48.7605C15.8913 49.1809 16.5142 49.7312 17.0321 50.4116C17.55 51.0919 17.884 51.8004 18.0341 52.5371L16.7057 52.6411C16.5706 52.1557 16.3679 51.7224 16.0977 51.3411C15.8275 50.951 15.4898 50.639 15.0845 50.405C14.7167 50.1927 14.4165 50.119 14.1838 50.184C13.9587 50.2447 13.8461 50.4353 13.8461 50.756C13.8461 50.9986 13.9174 51.2435 14.06 51.4905C14.2026 51.7288 14.3828 51.9628 14.6004 52.1925C14.8256 52.4178 15.1258 52.7039 15.5011 53.0505C16.0415 53.5446 16.4881 53.9887 16.8408 54.3831C17.1936 54.7688 17.4938 55.2194 17.7415 55.7351C17.9967 56.2464 18.1243 56.8011 18.1243 57.3991ZM24.4939 54.317L26.1264 55.2596L26.1265 60.9276C26.1266 61.7422 25.9877 62.3727 25.7101 62.819C25.4324 63.2567 25.0308 63.4885 24.5055 63.5145C23.9801 63.5318 23.3572 63.3325 22.6366 62.9164C21.9086 62.4961 21.2819 61.9739 20.7565 61.3499C20.2311 60.7172 19.8296 60.0217 19.5519 59.2633C19.2741 58.4963 19.1353 57.7055 19.1352 56.8908L19.1351 51.2228L20.7675 52.1654L20.7677 57.3784C20.7677 58.297 20.9291 59.0749 21.2518 59.7119C21.5821 60.3532 22.0437 60.8451 22.6366 61.1874C23.222 61.5255 23.6761 61.5623 23.9988 61.298C24.329 61.038 24.4941 60.4487 24.4941 59.53L24.4939 54.317ZM26.7721 65.1482L29.8565 57.4133L31.3651 58.2844L28.2807 66.0193L26.7721 65.1482ZM35.0993 60.4404C35.9023 60.9041 36.6266 61.5087 37.2721 62.254C37.9251 63.0037 38.4392 63.8465 38.8145 64.7826C39.1898 65.7099 39.3775 66.6676 39.3775 67.6556C39.3775 68.6436 39.1899 69.3889 38.8147 69.8916C38.4394 70.3942 37.9291 70.6499 37.2836 70.6585C36.6382 70.6585 35.9101 70.4245 35.0996 69.9564L32.3526 68.3704L32.3523 58.8544L35.0993 60.4404ZM34.9081 68.2339C35.7938 68.7453 36.473 68.8645 36.9458 68.5915C37.4186 68.3185 37.655 67.675 37.655 66.661C37.655 65.6644 37.4148 64.7543 36.9344 63.931C36.4616 63.1033 35.7861 62.436 34.9079 61.9289L33.9848 61.3959L33.985 67.7009L34.9081 68.2339ZM46.2806 73.6564C46.2807 74.3064 46.1343 74.7679 45.8416 75.0408C45.5564 75.3095 45.1812 75.4135 44.7158 75.3528C44.258 75.2965 43.7664 75.1166 43.241 74.8133C42.4755 74.3712 41.785 73.7689 41.1695 73.0062C40.5541 72.2348 40.145 71.4137 39.9423 70.5427L41.2708 70.4387C41.4509 71.028 41.7136 71.5567 42.0589 72.0247C42.4041 72.4927 42.8169 72.8654 43.2973 73.1428C43.6876 73.3681 43.9953 73.4548 44.2204 73.4028C44.4531 73.3551 44.5694 73.158 44.5694 72.8113C44.5694 72.534 44.4906 72.2588 44.333 71.9858C44.1828 71.7171 43.9915 71.4636 43.7588 71.2253C43.5336 70.9913 43.2221 70.6901 42.8243 70.3218C42.2915 69.8321 41.8561 69.4031 41.5184 69.0347C41.1806 68.6577 40.8917 68.2222 40.6515 67.7282C40.4113 67.2342 40.2912 66.6968 40.2912 66.1162C40.2912 65.5008 40.43 65.061 40.7077 64.7967C40.9929 64.528 41.3644 64.4219 41.8222 64.4782C42.2875 64.5302 42.7866 64.7101 43.3195 65.0178C44.0476 65.4381 44.6705 65.9885 45.1884 66.6688C45.7063 67.3492 46.0403 68.0577 46.1904 68.7944L44.862 68.8983C44.7269 68.413 44.5242 67.9796 44.254 67.5983C43.9838 67.2083 43.6461 66.8963 43.2408 66.6623C42.873 66.4499 42.5728 66.3762 42.3401 66.4412C42.115 66.5019 42.0024 66.6926 42.0024 67.0132C42.0024 67.2559 42.0737 67.5007 42.2163 67.7477C42.3589 67.9861 42.5391 68.2201 42.7567 68.4497C42.9819 68.6751 43.2821 68.9611 43.6574 69.3078C44.1978 69.8018 44.6444 70.246 44.9971 70.6403C45.3499 71.026 45.6501 71.4767 45.8978 71.9923C46.153 72.5037 46.2806 73.0584 46.2806 73.6564ZM52.6502 70.5742L54.2827 71.5168L54.2828 77.1848C54.2829 77.9995 54.144 78.63 53.8664 79.0763C53.5887 79.5139 53.1872 79.7458 52.6618 79.7717C52.1364 79.7891 51.5135 79.5897 50.793 79.1737C50.0649 78.7533 49.4382 78.2311 48.9128 77.6071C48.3874 76.9744 47.9859 76.2789 47.7082 75.5206C47.4304 74.7536 47.2916 73.9627 47.2915 73.1481L47.2914 67.4801L48.9238 68.4226L48.924 73.6356C48.924 74.5543 49.0854 75.3321 49.4081 75.9691C49.7384 76.6105 50.2 77.1023 50.7929 77.4447C51.3783 77.7827 51.8324 77.8196 52.1551 77.5552C52.4853 77.2952 52.6504 76.7059 52.6504 75.7872L52.6502 70.5742Z" fill="white"/>
<defs>
<filter id="filter0_b_54_1607" x="-135.914" y="-135.914" width="392.329" height="341.828" filterUnits="userSpaceOnUse" color-interpolation-filters="sRGB">
<feFlood flood-opacity="0" result="BackgroundImageFix"/>
<feGaussianBlur in="BackgroundImageFix" stdDeviation="67.957"/>
<feComposite in2="SourceAlpha" operator="in" result="effect1_backgroundBlur_54_1607"/>
<feBlend mode="normal" in="SourceGraphic" in2="effect1_backgroundBlur_54_1607" result="shape"/>
</filter>
<filter id="filter1_d_54_1607" x="16" y="9" width="87.5" height="54.5" filterUnits="userSpaceOnUse" color-interpolation-filters="sRGB">
<feFlood flood-opacity="0" result="BackgroundImageFix"/>
<feColorMatrix in="SourceAlpha" type="matrix" values="0 0 0 0 0 0 0 0 0 0 0 0 0 0 0 0 0 0 127 0" result="hardAlpha"/>
<feOffset dy="2"/>
<feComposite in2="hardAlpha" operator="out"/>
<feColorMatrix type="matrix" values="0 0 0 0 0.14902 0 0 0 0 0.356863 0 0 0 0 0.431373 0 0 0 1 0"/>
<feBlend mode="normal" in2="BackgroundImageFix" result="effect1_dropShadow_54_1607"/>
<feBlend mode="normal" in="SourceGraphic" in2="effect1_dropShadow_54_1607" result="shape"/>
</filter>
</defs>
</svg>
