<svg width="121" height="88" viewBox="0 0 121 88" fill="none" xmlns="http://www.w3.org/2000/svg">
<path fill-rule="evenodd" clip-rule="evenodd" d="M0 35L60.3755 70V88L0 53V35Z" fill="#265B6E" fill-opacity="0.8"/>
<g filter="url(#filter0_b_54_1608)">
<path fill-rule="evenodd" clip-rule="evenodd" d="M60.125 0L120.501 35L60.3755 70L0 35L60.125 0Z" fill="#265B6E" fill-opacity="0.7"/>
</g>
<path fill-rule="evenodd" clip-rule="evenodd" d="M120.5 35L60.125 70V88L120.5 53V35Z" fill="#265B6E"/>
<g filter="url(#filter1_d_54_1608)">
<path fill-rule="evenodd" clip-rule="evenodd" d="M60.75 9L45.75 17.75L50.5 20.75L57.25 16.75V25.1302C50.719 25.755 45.437 28.5689 43.6509 32.25H29.25L35.5 28.75L31.25 25.75L16 34.75L31.25 43.75L35.5 41L29.25 37H43.3401C44.7359 41.0449 50.2821 44.2032 57.25 44.8698V53L50.5 48.5L45.75 51.75L60.75 61.5L77.25 51.75L72.25 48.5L64.25 53V44.685C70.5044 43.738 75.3659 40.75 76.6599 37H90L83.5 41L88 43.75L103.5 34.75L88.5 25.75L84 28.75L90 32.25H76.3491C74.7019 28.8552 70.0814 26.1979 64.25 25.315V16.75L72.25 20.75L77.25 17.75L60.75 9ZM60 40C65.5228 40 70 37.5376 70 34.5C70 31.4624 65.5228 29 60 29C54.4772 29 50 31.4624 50 34.5C50 37.5376 54.4772 40 60 40Z" fill="white"/>
</g>
<path d="M22.1173 52.6353C22.9821 53.1347 23.7621 53.7857 24.4573 54.5884C25.1605 55.3958 25.7142 56.3035 26.1183 57.3115C26.5225 58.3101 26.7246 59.3415 26.7246 60.4055C26.7246 61.4695 26.5226 62.2721 26.1185 62.8135C25.7144 63.3548 25.1648 63.6301 24.4697 63.6394C23.7746 63.6394 22.9905 63.3874 22.1176 62.8833L19.1593 61.1752L19.159 50.9272L22.1173 52.6353ZM21.9114 61.0283C22.8652 61.579 23.5967 61.7074 24.1059 61.4134C24.6151 61.1194 24.8697 60.4264 24.8696 59.3344C24.8696 58.2611 24.6109 57.2811 24.0936 56.3944C23.5844 55.5031 22.8569 54.7844 21.9112 54.2383L20.917 53.6643L20.9173 60.4543L21.9114 61.0283ZM31.9643 66.8748C32.3927 67.1221 32.7605 67.2038 33.0676 67.1198C33.3828 67.0405 33.6334 66.8212 33.8193 66.4619L35.2863 68.2889C35.0681 68.8536 34.668 69.1919 34.0861 69.3039C33.5041 69.4065 32.809 69.2245 32.0008 68.7578C31.2167 68.3051 30.5014 67.6728 29.8548 66.8607C29.2081 66.0487 28.6949 65.1317 28.3149 64.1097C27.935 63.0783 27.7451 62.04 27.745 60.9947C27.745 59.9493 27.9309 59.1327 28.3026 58.5447C28.6825 57.9614 29.1957 57.637 29.8424 57.5717C30.497 57.5111 31.2164 57.7071 32.0004 58.1598C32.8087 58.6265 33.5038 59.2518 34.0858 60.0359C34.6678 60.8106 35.0679 61.6062 35.2861 62.4229L33.8192 62.5559C33.6332 61.9819 33.3827 61.4732 33.0674 61.0298C32.7603 60.5912 32.3925 60.2481 31.9641 60.0008C31.5115 59.7395 31.1073 59.6461 30.7517 59.7208C30.3961 59.7954 30.1132 60.0334 29.9031 60.4347C29.701 60.8314 29.6 61.3751 29.6 62.0657C29.6 62.7564 29.7011 63.4214 29.9032 64.0607C30.1133 64.7047 30.3963 65.2694 30.7519 65.7548C31.1076 66.2401 31.5117 66.6135 31.9643 66.8748ZM41.7807 69.9108L38.1799 67.8316L38.1799 70.3796L42.3385 72.7808L42.3386 74.5588L36.422 71.1426L36.4217 60.8946L42.2049 64.2338L42.2049 65.9978L38.1797 63.6736L38.1798 66.0816L41.7807 68.1608L41.7807 69.9108Z" fill="white"/>
<defs>
<filter id="filter0_b_54_1608" x="-135.914" y="-135.914" width="392.329" height="341.828" filterUnits="userSpaceOnUse" color-interpolation-filters="sRGB">
<feFlood flood-opacity="0" result="BackgroundImageFix"/>
<feGaussianBlur in="BackgroundImageFix" stdDeviation="67.957"/>
<feComposite in2="SourceAlpha" operator="in" result="effect1_backgroundBlur_54_1608"/>
<feBlend mode="normal" in="SourceGraphic" in2="effect1_backgroundBlur_54_1608" result="shape"/>
</filter>
<filter id="filter1_d_54_1608" x="16" y="9" width="87.5" height="54.5" filterUnits="userSpaceOnUse" color-interpolation-filters="sRGB">
<feFlood flood-opacity="0" result="BackgroundImageFix"/>
<feColorMatrix in="SourceAlpha" type="matrix" values="0 0 0 0 0 0 0 0 0 0 0 0 0 0 0 0 0 0 127 0" result="hardAlpha"/>
<feOffset dy="2"/>
<feComposite in2="hardAlpha" operator="out"/>
<feColorMatrix type="matrix" values="0 0 0 0 0.14902 0 0 0 0 0.356863 0 0 0 0 0.431373 0 0 0 1 0"/>
<feBlend mode="normal" in2="BackgroundImageFix" result="effect1_dropShadow_54_1608"/>
<feBlend mode="normal" in="SourceGraphic" in2="effect1_dropShadow_54_1608" result="shape"/>
</filter>
</defs>
</svg>
