<svg width="121" height="88" viewBox="0 0 121 88" fill="none" xmlns="http://www.w3.org/2000/svg">
<path fill-rule="evenodd" clip-rule="evenodd" d="M0 35L60.3755 70V88L0 53V35Z" fill="#265B6E" fill-opacity="0.8"/>
<g filter="url(#filter0_b_54_1610)">
<path fill-rule="evenodd" clip-rule="evenodd" d="M60.125 0L120.501 35L60.3755 70L0 35L60.125 0Z" fill="#265B6E" fill-opacity="0.7"/>
</g>
<path fill-rule="evenodd" clip-rule="evenodd" d="M120.5 35L60.125 70V88L120.5 53V35Z" fill="#265B6E"/>
<g filter="url(#filter1_d_54_1610)">
<path fill-rule="evenodd" clip-rule="evenodd" d="M49.7169 18.3465L60.75 12L99.5 34.5L97 36L104.5 40.5L101 42.75L93.298 38.1357L90.5 39.75L98.5 44.25L95 46.5L86.75 41.75L84.25 43.25L92 47.75L88.75 50.25L80.5 45.5L68 52.75L75.75 57.5L72 59.75L64.25 55L60.75 57L22 34.5L32.5 28.25L25 23.5L28.5 21.25L36.6454 25.8655L45.7644 20.6201L38 16L41.5 13.5L49.7169 18.3465ZM29.25 34.5L60.75 16.25L92 34.5L60.75 52.75L29.25 34.5ZM47.5 29.4248L61.5088 21.5L77.5 30.5752L63.6233 38.5L47.5 29.4248ZM52.522 29.5526L61.5088 24.4398L72.478 30.703L63.4912 35.688L52.522 29.5526ZM37.5 33.6975L44.6534 29.5L63.5 39.9937L56.3466 44.06L37.5 33.6975ZM42.7 33.8618L44.8333 32.62L58.3 39.6982L55.9 40.94L42.7 33.8618ZM58.5 45.2434L63.6316 42.323L66 43.9159L77.1842 37.2788L74.6842 35.8186L80.2105 32.5L83.5 34.6239V36.4823L64.8158 47.5L61.9211 47.3673L58.5 45.2434ZM82 50C83.1046 50 84 49.5523 84 49C84 48.4477 83.1046 48 82 48C80.8954 48 80 48.4477 80 49C80 49.5523 80.8954 50 82 50ZM80 51.25C80 51.8023 79.1046 52.25 78 52.25C76.8954 52.25 76 51.8023 76 51.25C76 50.6977 76.8954 50.25 78 50.25C79.1046 50.25 80 50.6977 80 51.25ZM74.25 54.5C75.3546 54.5 76.25 54.0523 76.25 53.5C76.25 52.9477 75.3546 52.5 74.25 52.5C73.1454 52.5 72.25 52.9477 72.25 53.5C72.25 54.0523 73.1454 54.5 74.25 54.5Z" fill="white"/>
</g>
<path d="M22.2202 52.6948C22.9234 53.1008 23.5377 53.5955 24.0631 54.1788C24.5885 54.7622 24.9926 55.3922 25.2755 56.0689C25.5665 56.7409 25.712 57.4175 25.712 58.0989C25.7121 58.7709 25.5666 59.2795 25.2756 59.6249C24.9928 59.9655 24.5886 60.1242 24.0633 60.1008C23.5379 60.0681 22.9236 59.8488 22.2204 59.4428L20.9231 58.6937L20.9232 62.1937L19.1652 61.1787L19.1649 50.9307L22.2202 52.6948ZM22.0264 57.6088C22.576 57.9261 23.0165 58.0451 23.3479 57.9658C23.6793 57.8771 23.8449 57.5621 23.8449 57.0208C23.8449 56.4795 23.6792 55.9731 23.3478 55.5018C23.0164 55.0211 22.5759 54.6221 22.0263 54.3048L20.923 53.6677L20.9231 56.9717L22.0264 57.6088ZM32.3042 63.4451C33.2822 64.4111 33.7713 65.4822 33.7713 66.6582C33.7713 67.5822 33.4763 68.1352 32.8863 68.3171C32.3044 68.5038 31.484 68.2914 30.4251 67.6801L26.8849 65.6359L26.8846 55.3879L30.0975 57.243C31.0431 57.7891 31.811 58.4844 32.4011 59.3291C32.9992 60.1691 33.2983 61.0418 33.2983 61.9471C33.2984 62.8898 32.967 63.3891 32.3042 63.4451ZM28.6063 58.146L28.6063 60.568L29.9279 61.331C30.4047 61.6064 30.7806 61.7114 31.0554 61.6461C31.3383 61.5761 31.4797 61.3498 31.4797 60.9671C31.4797 60.5938 31.3423 60.2297 31.0675 59.8751C30.7926 59.5111 30.4127 59.1891 29.9278 58.909L28.6063 58.146ZM30.2796 65.832C30.8131 66.1401 31.2212 66.2637 31.5041 66.2031C31.7951 66.1471 31.9406 65.9138 31.9406 65.5031C31.9405 65.0924 31.795 64.6864 31.5041 64.2851C31.2212 63.8884 30.8089 63.5337 30.2674 63.221L28.6064 62.262L28.6065 64.866L30.2796 65.832ZM42.6543 64.4933L39.5385 67.6922L42.8001 74.8253L40.6178 73.5652L38.4595 68.7211L36.2894 71.0661L34.2526 69.89L37.5017 66.5581L34.3977 59.726L36.5437 60.9651L38.5807 65.5291L40.6174 63.3172L42.6543 64.4933Z" fill="white"/>
<defs>
<filter id="filter0_b_54_1610" x="-135.914" y="-135.914" width="392.329" height="341.828" filterUnits="userSpaceOnUse" color-interpolation-filters="sRGB">
<feFlood flood-opacity="0" result="BackgroundImageFix"/>
<feGaussianBlur in="BackgroundImageFix" stdDeviation="67.957"/>
<feComposite in2="SourceAlpha" operator="in" result="effect1_backgroundBlur_54_1610"/>
<feBlend mode="normal" in="SourceGraphic" in2="effect1_backgroundBlur_54_1610" result="shape"/>
</filter>
<filter id="filter1_d_54_1610" x="22" y="12" width="82.5" height="49.75" filterUnits="userSpaceOnUse" color-interpolation-filters="sRGB">
<feFlood flood-opacity="0" result="BackgroundImageFix"/>
<feColorMatrix in="SourceAlpha" type="matrix" values="0 0 0 0 0 0 0 0 0 0 0 0 0 0 0 0 0 0 127 0" result="hardAlpha"/>
<feOffset dy="2"/>
<feComposite in2="hardAlpha" operator="out"/>
<feColorMatrix type="matrix" values="0 0 0 0 0.14902 0 0 0 0 0.356863 0 0 0 0 0.431373 0 0 0 1 0"/>
<feBlend mode="normal" in2="BackgroundImageFix" result="effect1_dropShadow_54_1610"/>
<feBlend mode="normal" in="SourceGraphic" in2="effect1_dropShadow_54_1610" result="shape"/>
</filter>
</defs>
</svg>
