<svg width="121" height="88" viewBox="0 0 121 88" fill="none" xmlns="http://www.w3.org/2000/svg">
<path fill-rule="evenodd" clip-rule="evenodd" d="M0 35L60.3755 70V88L0 53V35Z" fill="#265B6E" fill-opacity="0.8"/>
<g filter="url(#filter0_b_53_1586)">
<path fill-rule="evenodd" clip-rule="evenodd" d="M60.125 0L120.501 35L60.3755 70L0 35L60.125 0Z" fill="#265B6E" fill-opacity="0.7"/>
</g>
<path fill-rule="evenodd" clip-rule="evenodd" d="M120.501 35L60.125 70V88L120.501 53V35Z" fill="#265B6E"/>
<g filter="url(#filter1_d_53_1586)">
<path fill-rule="evenodd" clip-rule="evenodd" d="M61.75 7L46.75 15.75L51.5 18.75L58.25 14.75V23.1302C51.719 23.755 46.437 26.5689 44.6509 30.25H30.25L36.5 26.75L32.25 23.75L17 32.75L32.25 41.75L36.5 39L30.25 35H44.3401C45.7359 39.0449 51.2821 42.2032 58.25 42.8698V51L51.5 46.5L46.75 49.75L61.75 59.5L78.25 49.75L73.25 46.5L65.25 51V42.685C71.5044 41.738 76.3659 38.75 77.6599 35H91L84.5 39L89 41.75L104.5 32.75L89.5 23.75L85 26.75L91 30.25H77.3491C75.7019 26.8552 71.0814 24.1979 65.25 23.315V14.75L73.25 18.75L78.25 15.75L61.75 7ZM61 38C66.5228 38 71 35.5376 71 32.5C71 29.4624 66.5228 27 61 27C55.4772 27 51 29.4624 51 32.5C51 35.5376 55.4772 38 61 38Z" fill="white"/>
</g>
<path d="M15.0601 54.8419C15.0601 55.4419 14.9251 55.8679 14.6549 56.1199C14.3916 56.3679 14.0452 56.4638 13.6157 56.4078C13.1931 56.3558 12.7393 56.1898 12.2543 55.9098C11.5477 55.5018 10.9103 54.9457 10.3422 54.2417C9.77405 53.5297 9.39645 52.7717 9.20937 51.9677L10.4356 51.8717C10.6019 52.4157 10.8444 52.9037 11.1631 53.3358C11.4818 53.7678 11.8628 54.1118 12.3062 54.3678C12.6665 54.5758 12.9506 54.6558 13.1584 54.6078C13.3732 54.5638 13.4805 54.3818 13.4805 54.0618C13.4805 53.8058 13.4078 53.5518 13.2623 53.2998C13.1237 53.0518 12.947 52.8178 12.7323 52.5978C12.5244 52.3818 12.2369 52.1038 11.8697 51.7638C11.3778 51.3118 10.976 50.9157 10.6642 50.5757C10.3524 50.2277 10.0857 49.8257 9.86398 49.3697C9.64227 48.9137 9.53141 48.4177 9.53139 47.8817C9.53138 47.3137 9.65953 46.9077 9.91586 46.6637C10.1791 46.4157 10.522 46.3177 10.9446 46.3697C11.3742 46.4178 11.8349 46.5838 12.3268 46.8678C12.9988 47.2558 13.5738 47.7638 14.0519 48.3918C14.5299 49.0199 14.8383 49.6739 14.9768 50.3539L13.7506 50.4498C13.6259 50.0018 13.4388 49.6018 13.1894 49.2498C12.94 48.8898 12.6282 48.6018 12.2541 48.3858C11.9146 48.1898 11.6375 48.1218 11.4227 48.1818C11.2149 48.2378 11.111 48.4138 11.111 48.7098C11.111 48.9338 11.1768 49.1598 11.3085 49.3878C11.4401 49.6078 11.6064 49.8238 11.8073 50.0358C12.0151 50.2438 12.2923 50.5078 12.6387 50.8278C13.1375 51.2838 13.5497 51.6938 13.8754 52.0578C14.201 52.4138 14.4781 52.8299 14.7067 53.3059C14.9423 53.7779 15.0601 54.2899 15.0601 54.8419ZM21.1684 52.1289L22.7482 58.9449L24.2029 53.8809L25.6578 54.721L23.2886 62.1369L22.1247 61.4649L20.5242 54.8048L18.9759 59.6468L17.8224 58.9807L15.3488 48.7687L16.9076 49.6687L18.4666 56.4728L19.9629 51.4328L21.1684 52.1289ZM28.0364 64.8782L26.5295 64.0082L26.5292 55.2242L28.0361 56.0942L28.0364 64.8782ZM28.9075 56.5974L35.0388 60.1376L35.0389 61.6856L32.7318 60.3535L32.7321 67.5895L31.2148 66.7134L31.2146 59.4774L28.9075 58.1454L28.9075 56.5974ZM38.8855 69.6904C39.2526 69.9024 39.5679 69.9725 39.8311 69.9005C40.1013 69.8325 40.3161 69.6445 40.4754 69.3365L41.7329 70.9025C41.5458 71.3865 41.2029 71.6765 40.7041 71.7725C40.2053 71.8605 39.6095 71.7045 38.9167 71.3044C38.2447 70.9164 37.6315 70.3744 37.0773 69.6784C36.523 68.9824 36.0831 68.1963 35.7574 67.3203C35.4318 66.4363 35.2689 65.5463 35.2689 64.6503C35.2689 63.7543 35.4282 63.0543 35.7469 62.5503C36.0725 62.0503 36.5124 61.7724 37.0666 61.7164C37.6278 61.6644 38.2444 61.8324 38.9164 62.2204C39.6092 62.6205 40.205 63.1565 40.7039 63.8285C41.2027 64.4925 41.5456 65.1745 41.7327 65.8745L40.4753 65.9885C40.3159 65.4965 40.1012 65.0605 39.831 64.6805C39.5677 64.3045 39.2525 64.0104 38.8853 63.7984C38.4973 63.5744 38.1509 63.4944 37.8461 63.5584C37.5412 63.6224 37.2988 63.8264 37.1187 64.1704C36.9455 64.5104 36.8589 64.9764 36.8589 65.5684C36.8589 66.1604 36.9455 66.7304 37.1188 67.2784C37.2989 67.8304 37.5414 68.3144 37.8462 68.7304C38.1511 69.1464 38.4975 69.4664 38.8855 69.6904ZM44.213 68.8906L47.6424 70.8707L47.6423 67.4147L49.1595 68.2907L49.1598 77.0747L47.6426 76.1987L47.6424 72.4187L44.213 70.4386L44.2132 74.2186L42.7063 73.3485L42.706 64.5645L44.2129 65.4346L44.213 68.8906Z" fill="white"/>
<defs>
<filter id="filter0_b_53_1586" x="-135.914" y="-135.914" width="392.329" height="341.828" filterUnits="userSpaceOnUse" color-interpolation-filters="sRGB">
<feFlood flood-opacity="0" result="BackgroundImageFix"/>
<feGaussianBlur in="BackgroundImageFix" stdDeviation="67.957"/>
<feComposite in2="SourceAlpha" operator="in" result="effect1_backgroundBlur_53_1586"/>
<feBlend mode="normal" in="SourceGraphic" in2="effect1_backgroundBlur_53_1586" result="shape"/>
</filter>
<filter id="filter1_d_53_1586" x="17" y="7" width="87.5" height="54.5" filterUnits="userSpaceOnUse" color-interpolation-filters="sRGB">
<feFlood flood-opacity="0" result="BackgroundImageFix"/>
<feColorMatrix in="SourceAlpha" type="matrix" values="0 0 0 0 0 0 0 0 0 0 0 0 0 0 0 0 0 0 127 0" result="hardAlpha"/>
<feOffset dy="2"/>
<feComposite in2="hardAlpha" operator="out"/>
<feColorMatrix type="matrix" values="0 0 0 0 0.14902 0 0 0 0 0.356863 0 0 0 0 0.431373 0 0 0 1 0"/>
<feBlend mode="normal" in2="BackgroundImageFix" result="effect1_dropShadow_53_1586"/>
<feBlend mode="normal" in="SourceGraphic" in2="effect1_dropShadow_53_1586" result="shape"/>
</filter>
</defs>
</svg>
