<svg width="131" height="87" viewBox="0 0 131 87" fill="none" xmlns="http://www.w3.org/2000/svg">
<path fill-rule="evenodd" clip-rule="evenodd" d="M33.2686 12C33.2686 12 4.59737 14.5 0.359013 34C-2.63276 53.25 19.3069 57.75 19.3069 57.75C19.3069 57.75 21.0521 71 34.5151 72.25C34.5151 76 26.2878 87 26.2878 87C26.2878 87 41.9946 81.5 54.4603 72.25C59.696 73.5 65.9288 76.75 81.885 76C100.334 73.5 104.323 64 104.323 64C104.323 64 131 61.75 131 37.75C131 13.75 98.3398 13.5 98.3398 13.5C98.3398 13.5 92.1069 0 65.6795 0C40.2494 0 33.2686 12 33.2686 12Z" fill="#03571F" fill-opacity="0.7"/>
<path d="M51.9054 47H49.2954V33.824H51.9054V47ZM59.1927 33.824C60.2367 33.824 61.1487 34.004 61.9287 34.364C62.7087 34.724 63.3087 35.234 63.7287 35.894C64.1607 36.542 64.3767 37.304 64.3767 38.18C64.3767 39.044 64.1607 39.806 63.7287 40.466C63.3087 41.114 62.7087 41.618 61.9287 41.978C61.1487 42.326 60.2367 42.5 59.1927 42.5H57.2667V47H54.6567V33.824H59.1927ZM58.9047 40.286C59.7207 40.286 60.3747 40.112 60.8667 39.764C61.3587 39.404 61.6047 38.876 61.6047 38.18C61.6047 37.484 61.3587 36.956 60.8667 36.596C60.3747 36.224 59.7207 36.038 58.9047 36.038H57.2667V40.286H58.9047ZM70.8516 34.472L72.7776 34.526C72.6156 39.98 72.0576 44.21 69.8256 46.964C69.5196 46.64 68.6376 45.974 68.1876 45.704C70.3476 43.364 70.7976 39.368 70.8516 34.472ZM75.4416 34.472L77.3856 34.526C77.2416 40.07 76.6836 44.3 74.3616 47.036C74.0736 46.712 73.1916 46.028 72.7236 45.758C74.9556 43.436 75.3876 39.44 75.4416 34.472ZM68.2236 38.63L69.2676 37.262C71.1396 38.594 73.1016 40.484 74.0556 41.834L72.8856 43.454C71.9856 42.05 70.0056 40.016 68.2236 38.63ZM72.9216 38.414L74.0016 37.028C75.9816 38.468 78.0696 40.466 79.0776 41.906L77.8896 43.544C76.9176 42.068 74.8116 39.89 72.9216 38.414ZM66.0996 32.708H80.4636V34.76H68.1696V48.584H66.0996V32.708ZM79.3476 32.708H81.4536V46.136C81.4536 47.234 81.2196 47.846 80.5536 48.188C79.8516 48.53 78.8616 48.584 77.3676 48.584C77.2776 48.008 76.9536 47.036 76.6656 46.478C77.5836 46.532 78.6276 46.514 78.9336 46.514C79.2396 46.514 79.3476 46.406 79.3476 46.118V32.708Z" fill="white"/>
</svg>
