<svg width="120" height="89" viewBox="0 0 120 89" fill="none" xmlns="http://www.w3.org/2000/svg">
<g filter="url(#filter0_b_53_1577)">
<ellipse cx="60" cy="35" rx="60" ry="35" fill="#171717" fill-opacity="0.7"/>
</g>
<path fill-rule="evenodd" clip-rule="evenodd" d="M0 35C0 53.75 26.1905 70 60 70C88.75 70.1428 119.25 57 120 35C120 41.8959 120 50.9072 120 55.8956C120 58.352 119.451 60.7712 118.053 62.7912C112.802 70.3809 96.2264 89 60 89C23.7736 89 7.19837 70.3809 1.9467 62.7912C0.548938 60.7712 0 58.3578 0 55.9013C0 49.8141 0 38.1044 0 35Z" fill="#171717"/>
<g filter="url(#filter1_d_53_1577)">
<path fill-rule="evenodd" clip-rule="evenodd" d="M100 11V26.75H92V20L78.25 27.75C78.25 27.75 74.75 29.25 71.25 29.25C67.75 29.25 63.75 27.75 63.75 27.75L53 21.5L59.25 17.5L67.75 22.25C67.75 22.25 69 23 71 23C73 23 75.25 21.5 75.25 21.5L85 16H73.25V11H100ZM21 57.25V41.5H29V48.25L42.75 40.5C42.75 40.5 46.25 39 49.75 39C53.25 39 57.25 40.5 57.25 40.5L68 46.75L61.75 50.75L53.25 46C53.25 46 52 45.25 50 45.25C48 45.25 45.75 46.75 45.75 46.75L36 52.25H47.75V57.25H21ZM21 11V26.5H29.25V19.5L41.25 26.5C41.25 26.5 42.25 27 42.25 27.75C42.25 28.5 40.75 29.25 40.75 29.25L32.5 34.25L39 38.25L50 31.5C50 31.5 51.5 30.25 51.5 28C51.5 25.75 49.5 24 49.5 24L36.25 15.75H47.75V11H21ZM99.5 41.75V57.25H72.75V52.5H84.25L71 44.25C71 44.25 69 42.5 69 40.25C69 38 70.5 36.75 70.5 36.75L81.5 30L88 34L79.75 39C79.75 39 78.25 39.75 78.25 40.5C78.25 41.25 79.25 41.75 79.25 41.75L91.25 48.75V41.75H99.5Z" fill="white"/>
</g>
<path d="M55.8529 81.066V79.316H59.7729V83.488C59.4556 84.0013 58.9469 84.412 58.2469 84.72C57.5563 85.0187 56.7909 85.168 55.9509 85.168C54.9523 85.168 54.0656 84.944 53.2909 84.496C52.5163 84.048 51.9143 83.4227 51.4849 82.62C51.0556 81.8173 50.8409 80.898 50.8409 79.862C50.8409 78.8167 51.0603 77.8927 51.4989 77.09C51.9469 76.2873 52.5583 75.6667 53.3329 75.228C54.1076 74.7893 54.9663 74.57 55.9089 74.57C56.8516 74.57 57.6683 74.7847 58.3589 75.214C59.0589 75.634 59.5303 76.1753 59.7729 76.838L58.0929 77.804C57.8876 77.3747 57.5936 77.0387 57.2109 76.796C56.8283 76.544 56.3756 76.418 55.8529 76.418C55.3023 76.418 54.8076 76.558 54.3689 76.838C53.9303 77.118 53.5849 77.5193 53.3329 78.042C53.0809 78.5647 52.9549 79.1713 52.9549 79.862C52.9549 80.5713 53.0809 81.1873 53.3329 81.71C53.5943 82.2327 53.9583 82.634 54.4249 82.914C54.9009 83.194 55.4516 83.334 56.0769 83.334C56.8049 83.334 57.3743 83.1333 57.7849 82.732V81.066H55.8529ZM66.3204 78.938L70.6744 85H68.0564L64.8644 80.492L63.4644 81.99V85H61.4344V74.752H63.4644V79.526L67.7204 74.752H70.2544L66.3204 78.938Z" fill="white"/>
<defs>
<filter id="filter0_b_53_1577" x="-100" y="-100" width="320" height="270" filterUnits="userSpaceOnUse" color-interpolation-filters="sRGB">
<feFlood flood-opacity="0" result="BackgroundImageFix"/>
<feGaussianBlur in="BackgroundImageFix" stdDeviation="50"/>
<feComposite in2="SourceAlpha" operator="in" result="effect1_backgroundBlur_53_1577"/>
<feBlend mode="normal" in="SourceGraphic" in2="effect1_backgroundBlur_53_1577" result="shape"/>
</filter>
<filter id="filter1_d_53_1577" x="21" y="11" width="79" height="48.25" filterUnits="userSpaceOnUse" color-interpolation-filters="sRGB">
<feFlood flood-opacity="0" result="BackgroundImageFix"/>
<feColorMatrix in="SourceAlpha" type="matrix" values="0 0 0 0 0 0 0 0 0 0 0 0 0 0 0 0 0 0 127 0" result="hardAlpha"/>
<feOffset dy="2"/>
<feComposite in2="hardAlpha" operator="out"/>
<feColorMatrix type="matrix" values="0 0 0 0 0.0901961 0 0 0 0 0.0901961 0 0 0 0 0.0901961 0 0 0 1 0"/>
<feBlend mode="normal" in2="BackgroundImageFix" result="effect1_dropShadow_53_1577"/>
<feBlend mode="normal" in="SourceGraphic" in2="effect1_dropShadow_53_1577" result="shape"/>
</filter>
</defs>
</svg>
