<svg width="120" height="89" viewBox="0 0 120 89" fill="none" xmlns="http://www.w3.org/2000/svg">
<g filter="url(#filter0_b_53_1578)">
<ellipse cx="60" cy="35" rx="60" ry="35" fill="#171717" fill-opacity="0.7"/>
</g>
<path fill-rule="evenodd" clip-rule="evenodd" d="M0 35C0 53.75 26.1905 70 60 70C88.75 70.1428 119.25 57 120 35C120 41.8959 120 50.9072 120 55.8956C120 58.352 119.451 60.7712 118.053 62.7912C112.802 70.3809 96.2264 89 60 89C23.7736 89 7.19837 70.3809 1.9467 62.7912C0.548938 60.7712 0 58.3578 0 55.9013C0 49.8141 0 38.1044 0 35Z" fill="#171717"/>
<g filter="url(#filter1_d_53_1578)">
<path fill-rule="evenodd" clip-rule="evenodd" d="M11 36.244V31.744H30.75L24.5 27.494L29.25 24.744L44.25 33.994L29.25 42.744L24.5 40.244L30.75 36.244H11ZM94.75 36.244H75V31.744H94.75L88.5 27.494L93.25 24.744L108.25 33.994L93.25 42.744L88.5 40.244L94.75 36.244Z" fill="white"/>
</g>
<g filter="url(#filter2_d_53_1578)">
<path fill-rule="evenodd" clip-rule="evenodd" d="M78 12H42V56H78V12ZM73 16H47V52H73V16Z" fill="#C31B21"/>
</g>
<path d="M38.4859 84H36.4559V73.752H38.4859V84ZM44.0419 73.752C45.0405 73.752 45.9412 73.9527 46.7439 74.354C47.5559 74.7553 48.1952 75.3433 48.6619 76.118C49.1285 76.8833 49.3619 77.798 49.3619 78.862C49.3619 79.926 49.1285 80.8453 48.6619 81.62C48.1952 82.3947 47.5605 82.9873 46.7579 83.398C45.9552 83.7993 45.0499 84 44.0419 84H40.6259V73.752H44.0419ZM43.8039 82.264C44.9052 82.264 45.7499 81.97 46.3379 81.382C46.9259 80.794 47.2199 79.954 47.2199 78.862C47.2199 77.7887 46.9212 76.958 46.3239 76.37C45.7359 75.7727 44.8959 75.474 43.8039 75.474H42.6559V82.264H43.8039ZM57.9461 81.032C57.9461 81.732 57.7641 82.32 57.4001 82.796C57.0455 83.2627 56.5788 83.608 56.0001 83.832C55.4308 84.056 54.8195 84.168 54.1661 84.168C53.2141 84.168 52.3555 83.9487 51.5901 83.51C50.8248 83.062 50.3161 82.432 50.0641 81.62L51.7161 80.682C51.9401 81.2047 52.2668 81.6107 52.6961 81.9C53.1255 82.1893 53.6388 82.334 54.2361 82.334C54.7215 82.334 55.1041 82.236 55.3841 82.04C55.6735 81.844 55.8181 81.5593 55.8181 81.186C55.8181 80.8873 55.7201 80.64 55.5241 80.444C55.3375 80.248 55.0995 80.094 54.8101 79.982C54.5301 79.87 54.1428 79.7393 53.6481 79.59C52.9855 79.394 52.4441 79.2027 52.0241 79.016C51.6041 78.82 51.2448 78.5307 50.9461 78.148C50.6475 77.7653 50.4981 77.2613 50.4981 76.636C50.4981 75.9733 50.6708 75.4133 51.0161 74.956C51.3708 74.4893 51.8328 74.144 52.4021 73.92C52.9808 73.6867 53.6015 73.57 54.2641 73.57C55.1695 73.57 55.9441 73.7753 56.5881 74.186C57.2321 74.5967 57.6475 75.152 57.8341 75.852L56.1821 76.79C56.0141 76.3513 55.7621 76.0107 55.4261 75.768C55.0901 75.516 54.6701 75.39 54.1661 75.39C53.7088 75.39 53.3355 75.4973 53.0461 75.712C52.7661 75.9173 52.6261 76.1927 52.6261 76.538C52.6261 76.7993 52.7148 77.0187 52.8921 77.196C53.0695 77.364 53.2935 77.504 53.5641 77.616C53.8441 77.7187 54.2175 77.84 54.6841 77.98C55.3561 78.176 55.9115 78.3767 56.3501 78.582C56.7888 78.778 57.1621 79.0767 57.4701 79.478C57.7875 79.87 57.9461 80.388 57.9461 81.032ZM58.3913 84L62.2273 73.752H64.1033L60.2673 84H58.3913ZM67.3609 84H65.3309V73.752H67.3609V84ZM73.0289 73.752C73.8409 73.752 74.5502 73.892 75.1569 74.172C75.7635 74.452 76.2302 74.8487 76.5569 75.362C76.8929 75.866 77.0609 76.4587 77.0609 77.14C77.0609 77.812 76.8929 78.4047 76.5569 78.918C76.2302 79.422 75.7635 79.814 75.1569 80.094C74.5502 80.3647 73.8409 80.5 73.0289 80.5H71.5309V84H69.5009V73.752H73.0289ZM72.8049 78.778C73.4395 78.778 73.9482 78.6427 74.3309 78.372C74.7135 78.092 74.9049 77.6813 74.9049 77.14C74.9049 76.5987 74.7135 76.188 74.3309 75.908C73.9482 75.6187 73.4395 75.474 72.8049 75.474H71.5309V78.778H72.8049ZM85.3309 81.032C85.3309 81.732 85.1489 82.32 84.7849 82.796C84.4302 83.2627 83.9636 83.608 83.3849 83.832C82.8156 84.056 82.2042 84.168 81.5509 84.168C80.5989 84.168 79.7402 83.9487 78.9749 83.51C78.2096 83.062 77.7009 82.432 77.4489 81.62L79.1009 80.682C79.3249 81.2047 79.6516 81.6107 80.0809 81.9C80.5102 82.1893 81.0236 82.334 81.6209 82.334C82.1062 82.334 82.4889 82.236 82.7689 82.04C83.0582 81.844 83.2029 81.5593 83.2029 81.186C83.2029 80.8873 83.1049 80.64 82.9089 80.444C82.7222 80.248 82.4842 80.094 82.1949 79.982C81.9149 79.87 81.5276 79.7393 81.0329 79.59C80.3702 79.394 79.8289 79.2027 79.4089 79.016C78.9889 78.82 78.6296 78.5307 78.3309 78.148C78.0322 77.7653 77.8829 77.2613 77.8829 76.636C77.8829 75.9733 78.0556 75.4133 78.4009 74.956C78.7556 74.4893 79.2176 74.144 79.7869 73.92C80.3656 73.6867 80.9862 73.57 81.6489 73.57C82.5542 73.57 83.3289 73.7753 83.9729 74.186C84.6169 74.5967 85.0322 75.152 85.2189 75.852L83.5669 76.79C83.3989 76.3513 83.1469 76.0107 82.8109 75.768C82.4749 75.516 82.0549 75.39 81.5509 75.39C81.0936 75.39 80.7202 75.4973 80.4309 75.712C80.1509 75.9173 80.0109 76.1927 80.0109 76.538C80.0109 76.7993 80.0996 77.0187 80.2769 77.196C80.4542 77.364 80.6782 77.504 80.9489 77.616C81.2289 77.7187 81.6022 77.84 82.0689 77.98C82.7409 78.176 83.2962 78.3767 83.7349 78.582C84.1736 78.778 84.5469 79.0767 84.8549 79.478C85.1722 79.87 85.3309 80.388 85.3309 81.032Z" fill="white"/>
<g filter="url(#filter3_d_53_1578)">
<path fill-rule="evenodd" clip-rule="evenodd" d="M64.5117 25.16C64.9584 24.5134 65.1817 23.5734 65.1817 22.34C65.1817 21.1 64.9584 20.1567 64.5117 19.51C64.0651 18.8634 63.4284 18.54 62.6017 18.54C61.7751 18.54 61.1351 18.8634 60.6817 19.51C60.2351 20.1567 60.0117 21.1 60.0117 22.34C60.0117 23.5734 60.2351 24.5134 60.6817 25.16C61.1351 25.8 61.7751 26.12 62.6017 26.12C63.4284 26.12 64.0651 25.8 64.5117 25.16ZM61.8017 24.19C61.6351 23.7834 61.5517 23.1667 61.5517 22.34C61.5517 21.5 61.6351 20.88 61.8017 20.48C61.9751 20.0734 62.2417 19.87 62.6017 19.87C62.9617 19.87 63.2251 20.0734 63.3917 20.48C63.5584 20.8867 63.6417 21.5067 63.6417 22.34C63.6417 23.1667 63.5584 23.7834 63.3917 24.19C63.2251 24.59 62.9617 24.79 62.6017 24.79C62.2417 24.79 61.9751 24.59 61.8017 24.19ZM66.4775 21.33V19.94L68.7175 18.67H69.8475V26H68.3775V20.27L66.4775 21.33ZM52.5 37.16C52.9467 36.5134 53.17 35.5734 53.17 34.34C53.17 33.1 52.9467 32.1567 52.5 31.51C52.0533 30.8634 51.4167 30.54 50.59 30.54C49.7633 30.54 49.1233 30.8634 48.67 31.51C48.2233 32.1567 48 33.1 48 34.34C48 35.5734 48.2233 36.5134 48.67 37.16C49.1233 37.8 49.7633 38.12 50.59 38.12C51.4167 38.12 52.0533 37.8 52.5 37.16ZM49.79 36.19C49.6233 35.7834 49.54 35.1667 49.54 34.34C49.54 33.5 49.6233 32.88 49.79 32.48C49.9633 32.0734 50.23 31.87 50.59 31.87C50.95 31.87 51.2133 32.0734 51.38 32.48C51.5467 32.8867 51.63 33.5067 51.63 34.34C51.63 35.1667 51.5467 35.7834 51.38 36.19C51.2133 36.59 50.95 36.79 50.59 36.79C50.23 36.79 49.9633 36.59 49.79 36.19ZM71.1876 34.34C71.1876 35.5734 70.9642 36.5134 70.5176 37.16C70.0709 37.8 69.4342 38.12 68.6076 38.12C67.7809 38.12 67.1409 37.8 66.6876 37.16C66.2409 36.5134 66.0176 35.5734 66.0176 34.34C66.0176 33.1 66.2409 32.1567 66.6876 31.51C67.1409 30.8634 67.7809 30.54 68.6076 30.54C69.4342 30.54 70.0709 30.8634 70.5176 31.51C70.9642 32.1567 71.1876 33.1 71.1876 34.34ZM67.5576 34.34C67.5576 35.1667 67.6409 35.7834 67.8076 36.19C67.9809 36.59 68.2476 36.79 68.6076 36.79C68.9676 36.79 69.2309 36.59 69.3976 36.19C69.5642 35.7834 69.6476 35.1667 69.6476 34.34C69.6476 33.5067 69.5642 32.8867 69.3976 32.48C69.2309 32.0734 68.9676 31.87 68.6076 31.87C68.2476 31.87 67.9809 32.0734 67.8076 32.48C67.6409 32.88 67.5576 33.5 67.5576 34.34ZM59.1759 46.34C59.1759 47.5734 58.9525 48.5134 58.5059 49.16C58.0592 49.8 57.4225 50.12 56.5959 50.12C55.7692 50.12 55.1292 49.8 54.6759 49.16C54.2292 48.5134 54.0059 47.5734 54.0059 46.34C54.0059 45.1 54.2292 44.1567 54.6759 43.51C55.1292 42.8634 55.7692 42.54 56.5959 42.54C57.4225 42.54 58.0592 42.8634 58.5059 43.51C58.9525 44.1567 59.1759 45.1 59.1759 46.34ZM55.5459 46.34C55.5459 47.1667 55.6292 47.7834 55.7959 48.19C55.9692 48.59 56.2359 48.79 56.5959 48.79C56.9559 48.79 57.2192 48.59 57.3859 48.19C57.5525 47.7834 57.6359 47.1667 57.6359 46.34C57.6359 45.5067 57.5525 44.8867 57.3859 44.48C57.2192 44.0734 56.9559 43.87 56.5959 43.87C56.2359 43.87 55.9692 44.0734 55.7959 44.48C55.6292 44.88 55.5459 45.5 55.5459 46.34ZM60.4717 43.94V45.33L62.3717 44.27V50H63.8417V42.67H62.7117L60.4717 43.94ZM66.4775 43.94V45.33L68.3775 44.27V50H69.8475V42.67H68.7175L66.4775 43.94ZM48.46 43.94V45.33L50.36 44.27V50H51.83V42.67H50.7L48.46 43.94ZM60.4717 31.94V33.33L62.3717 32.27V38H63.8417V30.67H62.7117L60.4717 31.94ZM59.1759 34.34C59.1759 35.5734 58.9525 36.5134 58.5059 37.16C58.0592 37.8 57.4225 38.12 56.5959 38.12C55.7692 38.12 55.1292 37.8 54.6759 37.16C54.2292 36.5134 54.0059 35.5734 54.0059 34.34C54.0059 33.1 54.2292 32.1567 54.6759 31.51C55.1292 30.8634 55.7692 30.54 56.5959 30.54C57.4225 30.54 58.0592 30.8634 58.5059 31.51C58.9525 32.1567 59.1759 33.1 59.1759 34.34ZM55.5459 34.34C55.5459 35.1667 55.6292 35.7834 55.7959 36.19C55.9692 36.59 56.2359 36.79 56.5959 36.79C56.9559 36.79 57.2192 36.59 57.3859 36.19C57.5525 35.7834 57.6359 35.1667 57.6359 34.34C57.6359 33.5067 57.5525 32.8867 57.3859 32.48C57.2192 32.0734 56.9559 31.87 56.5959 31.87C56.2359 31.87 55.9692 32.0734 55.7959 32.48C55.6292 32.88 55.5459 33.5 55.5459 34.34ZM54.4658 21.33V19.94L56.7058 18.67H57.8358V26H56.3658V20.27L54.4658 21.33ZM52.5 25.16C52.9467 24.5134 53.17 23.5734 53.17 22.34C53.17 21.1 52.9467 20.1567 52.5 19.51C52.0533 18.8634 51.4167 18.54 50.59 18.54C49.7633 18.54 49.1233 18.8634 48.67 19.51C48.2233 20.1567 48 21.1 48 22.34C48 23.5734 48.2233 24.5134 48.67 25.16C49.1233 25.8 49.7633 26.12 50.59 26.12C51.4167 26.12 52.0533 25.8 52.5 25.16ZM49.79 24.19C49.6233 23.7834 49.54 23.1667 49.54 22.34C49.54 21.5 49.6233 20.88 49.79 20.48C49.9633 20.0734 50.23 19.87 50.59 19.87C50.95 19.87 51.2133 20.0734 51.38 20.48C51.5467 20.8867 51.63 21.5067 51.63 22.34C51.63 23.1667 51.5467 23.7834 51.38 24.19C51.2133 24.59 50.95 24.79 50.59 24.79C50.23 24.79 49.9633 24.59 49.79 24.19Z" fill="white"/>
</g>
<defs>
<filter id="filter0_b_53_1578" x="-100" y="-100" width="320" height="270" filterUnits="userSpaceOnUse" color-interpolation-filters="sRGB">
<feFlood flood-opacity="0" result="BackgroundImageFix"/>
<feGaussianBlur in="BackgroundImageFix" stdDeviation="50"/>
<feComposite in2="SourceAlpha" operator="in" result="effect1_backgroundBlur_53_1578"/>
<feBlend mode="normal" in="SourceGraphic" in2="effect1_backgroundBlur_53_1578" result="shape"/>
</filter>
<filter id="filter1_d_53_1578" x="11" y="24.744" width="97.25" height="20" filterUnits="userSpaceOnUse" color-interpolation-filters="sRGB">
<feFlood flood-opacity="0" result="BackgroundImageFix"/>
<feColorMatrix in="SourceAlpha" type="matrix" values="0 0 0 0 0 0 0 0 0 0 0 0 0 0 0 0 0 0 127 0" result="hardAlpha"/>
<feOffset dy="2"/>
<feComposite in2="hardAlpha" operator="out"/>
<feColorMatrix type="matrix" values="0 0 0 0 0.0901961 0 0 0 0 0.0901961 0 0 0 0 0.0901961 0 0 0 1 0"/>
<feBlend mode="normal" in2="BackgroundImageFix" result="effect1_dropShadow_53_1578"/>
<feBlend mode="normal" in="SourceGraphic" in2="effect1_dropShadow_53_1578" result="shape"/>
</filter>
<filter id="filter2_d_53_1578" x="42" y="12" width="36" height="45" filterUnits="userSpaceOnUse" color-interpolation-filters="sRGB">
<feFlood flood-opacity="0" result="BackgroundImageFix"/>
<feColorMatrix in="SourceAlpha" type="matrix" values="0 0 0 0 0 0 0 0 0 0 0 0 0 0 0 0 0 0 127 0" result="hardAlpha"/>
<feOffset dy="1"/>
<feColorMatrix type="matrix" values="0 0 0 0 0.44769 0 0 0 0 0 0 0 0 0 0.0159889 0 0 0 1 0"/>
<feBlend mode="normal" in2="BackgroundImageFix" result="effect1_dropShadow_53_1578"/>
<feBlend mode="normal" in="SourceGraphic" in2="effect1_dropShadow_53_1578" result="shape"/>
</filter>
<filter id="filter3_d_53_1578" x="48" y="18.54" width="23.1876" height="33.58" filterUnits="userSpaceOnUse" color-interpolation-filters="sRGB">
<feFlood flood-opacity="0" result="BackgroundImageFix"/>
<feColorMatrix in="SourceAlpha" type="matrix" values="0 0 0 0 0 0 0 0 0 0 0 0 0 0 0 0 0 0 127 0" result="hardAlpha"/>
<feOffset dy="2"/>
<feComposite in2="hardAlpha" operator="out"/>
<feColorMatrix type="matrix" values="0 0 0 0 0.0901961 0 0 0 0 0.0901961 0 0 0 0 0.0901961 0 0 0 1 0"/>
<feBlend mode="normal" in2="BackgroundImageFix" result="effect1_dropShadow_53_1578"/>
<feBlend mode="normal" in="SourceGraphic" in2="effect1_dropShadow_53_1578" result="shape"/>
</filter>
</defs>
</svg>
