<svg width="132" height="87" viewBox="0 0 132 87" fill="none" xmlns="http://www.w3.org/2000/svg">
<path fill-rule="evenodd" clip-rule="evenodd" d="M33.36 12C33.36 12 4.61 14.5 0.36 34C-2.64 53.25 19.36 57.75 19.36 57.75C19.36 57.75 21.11 71 34.61 72.25C34.61 76 26.36 87 26.36 87C26.36 87 42.11 81.5 54.61 72.25C59.86 73.5 66.11 76.75 82.11 76C100.61 73.5 104.61 64 104.61 64C104.61 64 131.36 61.75 131.36 37.75C131.36 13.75 98.61 13.5 98.61 13.5C98.61 13.5 92.36 0 65.86 0C40.36 0 33.36 12 33.36 12Z" fill="#265B6E" fill-opacity="0.7"/>
<path d="M43.0632 33.824C44.3472 33.824 45.5052 34.082 46.5372 34.598C47.5812 35.114 48.4032 35.87 49.0032 36.866C49.6032 37.85 49.9032 39.026 49.9032 40.394C49.9032 41.762 49.6032 42.944 49.0032 43.94C48.4032 44.936 47.5872 45.698 46.5552 46.226C45.5232 46.742 44.3592 47 43.0632 47H38.6712V33.824H43.0632ZM42.7572 44.768C44.1732 44.768 45.2592 44.39 46.0152 43.634C46.7712 42.878 47.1492 41.798 47.1492 40.394C47.1492 39.014 46.7652 37.946 45.9972 37.19C45.2412 36.422 44.1612 36.038 42.7572 36.038H41.2812V44.768H42.7572ZM56.4401 33.824C57.7241 33.824 58.8821 34.082 59.9141 34.598C60.9581 35.114 61.7801 35.87 62.3801 36.866C62.9801 37.85 63.2801 39.026 63.2801 40.394C63.2801 41.762 62.9801 42.944 62.3801 43.94C61.7801 44.936 60.9641 45.698 59.9321 46.226C58.9001 46.742 57.7361 47 56.4401 47H52.0481V33.824H56.4401ZM56.1341 44.768C57.5501 44.768 58.6361 44.39 59.3921 43.634C60.1481 42.878 60.5261 41.798 60.5261 40.394C60.5261 39.014 60.1421 37.946 59.3741 37.19C58.6181 36.422 57.5381 36.038 56.1341 36.038H54.6581V44.768H56.1341ZM67.5311 33.824L73.9211 42.536V33.824H76.3511V47H74.2271L67.8191 38.27V47H65.4251V33.824H67.5311ZM83.8348 34.472L85.7608 34.526C85.5988 39.98 85.0408 44.21 82.8088 46.964C82.5028 46.64 81.6208 45.974 81.1708 45.704C83.3308 43.364 83.7808 39.368 83.8348 34.472ZM88.4248 34.472L90.3688 34.526C90.2248 40.07 89.6668 44.3 87.3448 47.036C87.0568 46.712 86.1748 46.028 85.7068 45.758C87.9388 43.436 88.3708 39.44 88.4248 34.472ZM81.2068 38.63L82.2508 37.262C84.1228 38.594 86.0848 40.484 87.0388 41.834L85.8688 43.454C84.9688 42.05 82.9888 40.016 81.2068 38.63ZM85.9048 38.414L86.9848 37.028C88.9648 38.468 91.0528 40.466 92.0608 41.906L90.8728 43.544C89.9008 42.068 87.7948 39.89 85.9048 38.414ZM79.0828 32.708H93.4468V34.76H81.1528V48.584H79.0828V32.708ZM92.3308 32.708H94.4368V46.136C94.4368 47.234 94.2028 47.846 93.5368 48.188C92.8348 48.53 91.8448 48.584 90.3508 48.584C90.2608 48.008 89.9368 47.036 89.6488 46.478C90.5668 46.532 91.6108 46.514 91.9168 46.514C92.2228 46.514 92.3308 46.406 92.3308 46.118V32.708Z" fill="white"/>
</svg>
