<svg width="132" height="87" viewBox="0 0 132 87" fill="none" xmlns="http://www.w3.org/2000/svg">
<path fill-rule="evenodd" clip-rule="evenodd" d="M33.36 12C33.36 12 4.61 14.5 0.36 34C-2.64 53.25 19.36 57.75 19.36 57.75C19.36 57.75 21.11 71 34.61 72.25C34.61 76 26.36 87 26.36 87C26.36 87 42.11 81.5 54.61 72.25C59.86 73.5 66.11 76.75 82.11 76C100.61 73.5 104.61 64 104.61 64C104.61 64 131.36 61.75 131.36 37.75C131.36 13.75 98.61 13.5 98.61 13.5C98.61 13.5 92.36 0 65.86 0C40.36 0 33.36 12 33.36 12Z" fill="#265B6E" fill-opacity="0.7"/>
<path d="M41.0607 33.824C42.1047 33.824 43.0167 34.004 43.7967 34.364C44.5767 34.724 45.1767 35.234 45.5967 35.894C46.0287 36.542 46.2447 37.304 46.2447 38.18C46.2447 39.044 46.0287 39.806 45.5967 40.466C45.1767 41.114 44.5767 41.618 43.7967 41.978C43.0167 42.326 42.1047 42.5 41.0607 42.5H39.1347V47H36.5247V33.824H41.0607ZM40.7727 40.286C41.5887 40.286 42.2427 40.112 42.7347 39.764C43.2267 39.404 43.4727 38.876 43.4727 38.18C43.4727 37.484 43.2267 36.956 42.7347 36.596C42.2427 36.224 41.5887 36.038 40.7727 36.038H39.1347V40.286H40.7727ZM56.8776 43.184C56.8776 44.084 56.6436 44.84 56.1756 45.452C55.7196 46.052 55.1196 46.496 54.3756 46.784C53.6436 47.072 52.8576 47.216 52.0176 47.216C50.7936 47.216 49.6896 46.934 48.7056 46.37C47.7216 45.794 47.0676 44.984 46.7436 43.94L48.8676 42.734C49.1556 43.406 49.5756 43.928 50.1276 44.3C50.6796 44.672 51.3396 44.858 52.1076 44.858C52.7316 44.858 53.2236 44.732 53.5836 44.48C53.9556 44.228 54.1416 43.862 54.1416 43.382C54.1416 42.998 54.0156 42.68 53.7636 42.428C53.5236 42.176 53.2176 41.978 52.8456 41.834C52.4856 41.69 51.9876 41.522 51.3516 41.33C50.4996 41.078 49.8036 40.832 49.2636 40.592C48.7236 40.34 48.2616 39.968 47.8776 39.476C47.4936 38.984 47.3016 38.336 47.3016 37.532C47.3016 36.68 47.5236 35.96 47.9676 35.372C48.4236 34.772 49.0176 34.328 49.7496 34.04C50.4936 33.74 51.2916 33.59 52.1436 33.59C53.3076 33.59 54.3036 33.854 55.1316 34.382C55.9596 34.91 56.4936 35.624 56.7336 36.524L54.6096 37.73C54.3936 37.166 54.0696 36.728 53.6376 36.416C53.2056 36.092 52.6656 35.93 52.0176 35.93C51.4296 35.93 50.9496 36.068 50.5776 36.344C50.2176 36.608 50.0376 36.962 50.0376 37.406C50.0376 37.742 50.1516 38.024 50.3796 38.252C50.6076 38.468 50.8956 38.648 51.2436 38.792C51.6036 38.924 52.0836 39.08 52.6836 39.26C53.5476 39.512 54.2616 39.77 54.8256 40.034C55.3896 40.286 55.8696 40.67 56.2656 41.186C56.6736 41.69 56.8776 42.356 56.8776 43.184ZM57.396 33.824H68.016V36.146H64.02V47H61.392V36.146H57.396V33.824ZM71.6775 33.824L78.0675 42.536V33.824H80.4975V47H78.3735L71.9655 38.27V47H69.5715V33.824H71.6775ZM87.9813 34.472L89.9073 34.526C89.7453 39.98 89.1873 44.21 86.9553 46.964C86.6493 46.64 85.7673 45.974 85.3173 45.704C87.4773 43.364 87.9273 39.368 87.9813 34.472ZM92.5713 34.472L94.5153 34.526C94.3713 40.07 93.8133 44.3 91.4913 47.036C91.2033 46.712 90.3213 46.028 89.8533 45.758C92.0853 43.436 92.5173 39.44 92.5713 34.472ZM85.3533 38.63L86.3973 37.262C88.2693 38.594 90.2313 40.484 91.1853 41.834L90.0153 43.454C89.1153 42.05 87.1353 40.016 85.3533 38.63ZM90.0513 38.414L91.1313 37.028C93.1113 38.468 95.1993 40.466 96.2073 41.906L95.0193 43.544C94.0473 42.068 91.9413 39.89 90.0513 38.414ZM83.2293 32.708H97.5933V34.76H85.2993V48.584H83.2293V32.708ZM96.4773 32.708H98.5833V46.136C98.5833 47.234 98.3493 47.846 97.6833 48.188C96.9813 48.53 95.9913 48.584 94.4973 48.584C94.4073 48.008 94.0833 47.036 93.7953 46.478C94.7133 46.532 95.7573 46.514 96.0633 46.514C96.3693 46.514 96.4773 46.406 96.4773 46.118V32.708Z" fill="white"/>
</svg>
