<svg width="132" height="87" viewBox="0 0 132 87" fill="none" xmlns="http://www.w3.org/2000/svg">
<path fill-rule="evenodd" clip-rule="evenodd" d="M33.36 12C33.36 12 4.61 14.5 0.36 34C-2.64 53.25 19.36 57.75 19.36 57.75C19.36 57.75 21.11 71 34.61 72.25C34.61 76 26.36 87 26.36 87C26.36 87 42.11 81.5 54.61 72.25C59.86 73.5 66.11 76.75 82.11 76C100.61 73.5 104.61 64 104.61 64C104.61 64 131.36 61.75 131.36 37.75C131.36 13.75 98.61 13.5 98.61 13.5C98.61 13.5 92.36 0 65.86 0C40.36 0 33.36 12 33.36 12Z" fill="#265B6E" fill-opacity="0.7"/>
<path d="M43.798 32.546H55.39V37.73H43.798V35.912H53.212V34.364H43.798V32.546ZM42.52 32.546H44.644V36.974C44.644 40.142 44.284 45.074 42.088 48.152C41.746 47.756 40.828 47.018 40.36 46.784C42.34 43.976 42.52 39.836 42.52 36.974V32.546ZM43.852 38.882H55.228V40.772H43.852V38.882ZM46.57 41.816H52.564V46.838H46.57V45.128H50.548V43.526H46.57V41.816ZM45.436 41.816H47.416V47.918H45.436V41.816ZM54.526 38.882H56.704C56.704 38.882 56.704 39.494 56.686 39.764C56.488 45.002 56.308 47.054 55.768 47.738C55.372 48.26 54.958 48.44 54.382 48.53C53.86 48.602 53.032 48.62 52.132 48.584C52.096 47.972 51.862 47.108 51.538 46.568C52.276 46.622 52.924 46.64 53.248 46.64C53.536 46.64 53.698 46.586 53.86 46.37C54.202 45.956 54.4 44.156 54.526 39.26V38.882ZM58.63 36.02H63.634V38.054H58.63V36.02ZM60.25 31.97H62.248V44.03H60.25V31.97ZM58.468 44.3C59.728 43.742 61.654 42.77 63.49 41.798L64.12 43.706C62.518 44.66 60.754 45.668 59.278 46.46L58.468 44.3ZM63.904 34.202H75.262V36.146H63.904V34.202ZM63.346 44.66C64.93 44.372 67.306 43.832 69.592 43.31L69.79 45.11C67.738 45.668 65.56 46.244 63.85 46.676L63.346 44.66ZM69.646 31.736H71.698C71.572 38.972 72.562 46.586 73.75 46.586C73.984 46.586 74.146 45.938 74.182 44.336C74.596 44.822 75.208 45.272 75.64 45.506C75.352 47.918 74.83 48.62 73.462 48.62C70.33 48.62 69.682 39.8 69.646 31.736ZM72.04 32.762L73.246 31.718C73.948 32.222 74.83 32.96 75.244 33.482L73.966 34.652C73.57 34.112 72.742 33.32 72.04 32.762ZM73.084 37.334L75.01 37.694C73.876 42.5 71.788 46.226 68.602 48.512C68.296 48.152 67.486 47.45 67.054 47.144C70.222 45.146 72.148 41.726 73.084 37.334ZM66.01 39.008V41.204H67.396V39.008H66.01ZM64.426 37.352H69.07V42.878H64.426V37.352ZM82.12 34.472L84.046 34.526C83.884 39.98 83.326 44.21 81.094 46.964C80.788 46.64 79.906 45.974 79.456 45.704C81.616 43.364 82.066 39.368 82.12 34.472ZM86.71 34.472L88.654 34.526C88.51 40.07 87.952 44.3 85.63 47.036C85.342 46.712 84.46 46.028 83.992 45.758C86.224 43.436 86.656 39.44 86.71 34.472ZM79.492 38.63L80.536 37.262C82.408 38.594 84.37 40.484 85.324 41.834L84.154 43.454C83.254 42.05 81.274 40.016 79.492 38.63ZM84.19 38.414L85.27 37.028C87.25 38.468 89.338 40.466 90.346 41.906L89.158 43.544C88.186 42.068 86.08 39.89 84.19 38.414ZM77.368 32.708H91.732V34.76H79.438V48.584H77.368V32.708ZM90.616 32.708H92.722V46.136C92.722 47.234 92.488 47.846 91.822 48.188C91.12 48.53 90.13 48.584 88.636 48.584C88.546 48.008 88.222 47.036 87.934 46.478C88.852 46.532 89.896 46.514 90.202 46.514C90.508 46.514 90.616 46.406 90.616 46.118V32.708Z" fill="white"/>
</svg>
