<svg width="125" height="181" viewBox="0 0 125 181" fill="none" xmlns="http://www.w3.org/2000/svg">
<path opacity="0.9" fill-rule="evenodd" clip-rule="evenodd" d="M45 176.511V69.8066L5 45.8729L5 152.577L45 176.511Z" fill="#265B6E"/>
<path fill-rule="evenodd" clip-rule="evenodd" d="M5 70.8039V74.7928L10.3333 71.8011L5 70.8039ZM10 133.63V130.638L14 131.386L10 133.63ZM10 138.616V135.624L14 136.372L10 138.616ZM10 148.588V145.597L14 146.345L10 148.588ZM10 150.583V153.575L14 151.331L10 150.583ZM10 143.602V140.611L14 141.358L10 143.602Z" fill="#265B6E"/>
<g filter="url(#filter0_b_55_1456)">
<path fill-rule="evenodd" clip-rule="evenodd" d="M45 69.8066L5 45.8729L85 0L125 23.9337L45 69.8066ZM44 83.5186L40 85.7624L0 61.8287L4 59.5849L44 83.5186ZM40 151.58L44 149.336L14 131.386L10 133.63L40 151.58ZM44 159.309L40 161.552L10 143.602L14 141.358L44 159.309ZM40 156.566L44 154.323L14 136.372L10 138.616L40 156.566ZM44 164.295L40 166.539L10 148.588L14 146.345L44 164.295ZM40 171.525L44 169.281L14 151.331L10 153.575L40 171.525ZM39 90.4993L35 92.7431L5 74.7928L9 72.549L39 90.4993ZM40 72.7983L44 70.5546L4 46.6209L0 48.8646L40 72.7983Z" fill="#265B6E" fill-opacity="0.7"/>
</g>
<g filter="url(#filter1_b_55_1456)">
<path fill-rule="evenodd" clip-rule="evenodd" d="M40 72.7983V84.5159L0 60.5822V48.8646L40 72.7983ZM40 180.001V171.525L10 153.575V150.583L40 168.533V166.539L10 148.588V145.597L40 163.547V161.552L10 143.602V140.61L40 158.81V156.566L10 138.616V135.624L40 153.575V151.58L10 133.63V130.638L40 148.588V85.7624L0 61.8287V156.068L40 180.001ZM5 70.8039L35 88.7541V92.7431L5 74.7928V70.8039Z" fill="#265B6E" fill-opacity="0.8"/>
</g>
<path fill-rule="evenodd" clip-rule="evenodd" d="M45 69.8066L125 23.9337V130.638L45 176.511V69.8066ZM40 72.7983L44 70.5546V82.2721L40 84.5159V72.7983ZM44 169.281L40 171.525V180.001L44 177.508V169.281ZM40 151.58L44 149.336V151.331L40 153.575V151.58ZM44 154.323L40 156.566V158.561L44 156.317V154.323ZM40 161.552L44 159.309V161.303L40 163.547V161.552ZM44 164.295L40 166.539V168.533L44 166.289V164.295ZM40 85.7624L44 83.5186V146.345L40 148.588V85.7624Z" fill="#265B6E"/>
<path d="M60.985 105.379L62.9855 104.224L62.985 119.596L60.4753 121.045L60.4756 111.133L57.0928 118.903L55.7107 119.701L52.31 115.805L52.3097 125.759L49.8182 127.198L49.8187 111.826L51.9101 110.618L56.4564 115.952L60.985 105.379ZM72.0228 99.0056L77.4054 111.269L74.6047 112.886L73.4409 110.052L68.2579 113.044L67.1302 117.202L64.4932 118.725L69.7131 100.339L72.0228 99.0056ZM72.5863 107.941L70.8042 103.573L69.0763 109.968L72.5863 107.941ZM83.3645 97.8328C84.1284 97.3918 84.8255 97.1993 85.4559 97.2552C86.0864 97.2972 86.5834 97.5982 86.9471 98.1582C87.3108 98.7042 87.4927 99.4742 87.4926 100.468C87.4926 101.546 87.2865 102.603 86.8742 103.639C86.4741 104.654 85.9224 105.575 85.2192 106.401C84.516 107.213 83.7401 107.864 82.8914 108.354C81.8851 108.935 81.0121 109.173 80.2726 109.068C79.5452 108.956 79.0299 108.448 78.7268 107.545L80.8547 104.91C81.0123 105.449 81.2668 105.778 81.6184 105.897C81.97 106.016 82.3822 105.939 82.8551 105.666C83.4492 105.323 83.9038 104.836 84.2191 104.206C84.5464 103.555 84.7101 102.88 84.7102 102.18C84.7102 101.48 84.5405 100.997 84.201 100.731C83.8737 100.444 83.4008 100.479 82.7825 100.836C81.9823 101.298 81.3458 102.12 80.8729 103.303L78.9816 103.324L79.8911 94.4414L86.8746 90.4092L86.8746 93.0132L82.1098 95.7644L81.746 99.1454C82.2673 98.5923 82.8068 98.1548 83.3645 97.8328ZM93.1955 99.4853L98.5241 96.4087L98.524 99.0757L89.34 104.378L89.34 102.404L93.3593 94.8758C94.0504 93.5808 94.5294 92.6043 94.7961 91.9463C95.075 91.2673 95.2144 90.6548 95.2144 90.1088C95.2145 89.5068 95.069 89.1078 94.778 88.9118C94.487 88.7158 94.093 88.7613 93.5959 89.0483C93.0867 89.3424 92.6381 89.8184 92.2501 90.4764C91.8621 91.1204 91.5651 91.8939 91.359 92.7969L89.2858 92.608C89.601 91.18 90.1709 89.8989 90.9954 88.7649C91.8198 87.6169 92.7716 86.7314 93.8506 86.1083C94.6993 85.6183 95.4328 85.3978 96.0511 85.4468C96.6816 85.4747 97.1605 85.7442 97.4878 86.2552C97.8272 86.7592 97.997 87.4592 97.9969 88.3552C97.9969 89.2372 97.809 90.1717 97.4331 91.1587C97.0693 92.1247 96.4146 93.4897 95.4689 95.2538L93.1955 99.4853ZM109.538 85.0307C109.537 87.6207 109.131 89.8292 108.319 91.6562C107.507 93.4692 106.349 94.8098 104.845 95.6778C103.342 96.5459 102.178 96.5459 101.354 95.6779C100.541 94.789 100.135 93.0495 100.135 90.4595C100.135 87.8555 100.542 85.64 101.354 83.8129C102.178 81.9789 103.342 80.6279 104.846 79.7598C106.349 78.8918 107.507 78.9022 108.319 79.7912C109.132 80.6802 109.538 82.4267 109.538 85.0307ZM102.936 88.8424C102.936 90.5784 103.087 91.7859 103.39 92.4649C103.706 93.1229 104.191 93.2628 104.845 92.8848C105.5 92.5068 105.979 91.8103 106.282 90.7953C106.585 89.7663 106.737 88.3838 106.737 86.6478C106.737 84.8978 106.585 83.6833 106.282 83.0043C105.979 82.3253 105.5 82.1748 104.846 82.5528C104.191 82.9308 103.706 83.6379 103.391 84.6739C103.088 85.6889 102.936 87.0784 102.936 88.8424ZM120.46 78.7242C120.46 81.3142 120.054 83.5227 119.241 85.3497C118.429 87.1627 117.271 88.5033 115.768 89.3713C114.264 90.2394 113.1 90.2394 112.276 89.3714C111.464 88.4825 111.058 86.743 111.058 84.153C111.058 81.549 111.464 79.3335 112.276 77.5064C113.101 75.6724 114.265 74.3214 115.768 73.4533C117.272 72.5853 118.429 72.5957 119.242 73.4847C120.054 74.3737 120.46 76.1202 120.46 78.7242ZM113.858 82.5359C113.858 84.2719 114.01 85.4794 114.313 86.1584C114.628 86.8164 115.113 86.9563 115.768 86.5783C116.422 86.2003 116.901 85.5038 117.204 84.4888C117.508 83.4598 117.659 82.0773 117.659 80.3413C117.659 78.5913 117.508 77.3768 117.205 76.6978C116.902 76.0188 116.423 75.8683 115.768 76.2463C115.113 76.6243 114.628 77.3314 114.313 78.3674C114.01 79.3824 113.858 80.7719 113.858 82.5359Z" fill="white"/>
<defs>
<filter id="filter0_b_55_1456" x="-100" y="-100" width="325" height="371.525" filterUnits="userSpaceOnUse" color-interpolation-filters="sRGB">
<feFlood flood-opacity="0" result="BackgroundImageFix"/>
<feGaussianBlur in="BackgroundImageFix" stdDeviation="50"/>
<feComposite in2="SourceAlpha" operator="in" result="effect1_backgroundBlur_55_1456"/>
<feBlend mode="normal" in="SourceGraphic" in2="effect1_backgroundBlur_55_1456" result="shape"/>
</filter>
<filter id="filter1_b_55_1456" x="-100" y="-51.1354" width="240" height="331.137" filterUnits="userSpaceOnUse" color-interpolation-filters="sRGB">
<feFlood flood-opacity="0" result="BackgroundImageFix"/>
<feGaussianBlur in="BackgroundImageFix" stdDeviation="50"/>
<feComposite in2="SourceAlpha" operator="in" result="effect1_backgroundBlur_55_1456"/>
<feBlend mode="normal" in="SourceGraphic" in2="effect1_backgroundBlur_55_1456" result="shape"/>
</filter>
</defs>
</svg>
