<svg width="126" height="181" viewBox="0 0 126 181" fill="none" xmlns="http://www.w3.org/2000/svg">
<path opacity="0.9" fill-rule="evenodd" clip-rule="evenodd" d="M45 176.511V69.8066L5 45.8729L5 152.577L45 176.511Z" fill="#265B6E"/>
<path fill-rule="evenodd" clip-rule="evenodd" d="M5 70.8039V74.7928L10.3333 71.8011L5 70.8039ZM10 133.63V130.638L14 131.386L10 133.63ZM10 138.616V135.624L14 136.372L10 138.616ZM10 148.588V145.597L14 146.345L10 148.588ZM10 150.583V153.575L14 151.331L10 150.583ZM10 143.602V140.611L14 141.358L10 143.602Z" fill="#265B6E"/>
<g filter="url(#filter0_b_55_1454)">
<path fill-rule="evenodd" clip-rule="evenodd" d="M45 69.8066L5 45.8729L85 0L125 23.9337L45 69.8066ZM44 83.5186L40 85.7624L0 61.8287L4 59.5849L44 83.5186ZM40 151.58L44 149.336L14 131.386L10 133.63L40 151.58ZM44 159.309L40 161.552L10 143.602L14 141.358L44 159.309ZM40 156.566L44 154.323L14 136.372L10 138.616L40 156.566ZM44 164.295L40 166.539L10 148.588L14 146.345L44 164.295ZM40 171.525L44 169.281L14 151.331L10 153.575L40 171.525ZM39 90.4993L35 92.7431L5 74.7928L9 72.549L39 90.4993ZM40 72.7983L44 70.5546L4 46.6209L0 48.8646L40 72.7983Z" fill="#265B6E" fill-opacity="0.7"/>
</g>
<g filter="url(#filter1_b_55_1454)">
<path fill-rule="evenodd" clip-rule="evenodd" d="M40 72.7983V84.5159L0 60.5822V48.8646L40 72.7983ZM40 180.001V171.525L10 153.575V150.583L40 168.533V166.539L10 148.588V145.597L40 163.547V161.552L10 143.602V140.61L40 158.81V156.566L10 138.616V135.624L40 153.575V151.58L10 133.63V130.638L40 148.588V85.7624L0 61.8287V156.068L40 180.001ZM5 70.8039L35 88.7541V92.7431L5 74.7928V70.8039Z" fill="#265B6E" fill-opacity="0.8"/>
</g>
<path fill-rule="evenodd" clip-rule="evenodd" d="M45 69.8066L125 23.9337V130.638L45 176.511V69.8066ZM40 72.7983L44 70.5546V82.2721L40 84.5159V72.7983ZM44 169.281L40 171.525V180.001L44 177.508V169.281ZM40 151.58L44 149.336V151.331L40 153.575V151.58ZM44 154.323L40 156.566V158.561L44 156.317V154.323ZM40 161.552L44 159.309V161.303L40 163.547V161.552ZM44 164.295L40 166.539V168.533L44 166.289V164.295ZM40 85.7624L44 83.5186V146.345L40 148.588V85.7624Z" fill="#265B6E"/>
<path d="M59.5328 103.815L70.5998 114.848L70.6004 97.4245L74.8092 94.9944L74.8083 121.346L71.1295 123.47L60.0313 112.419L60.0307 129.879L55.8843 132.273L55.8851 105.921L59.5328 103.815ZM90.2653 86.0701L99.4927 107.094L94.6915 109.866L92.6964 105.006L83.8112 110.136L81.8781 117.264L77.3575 119.874L86.3059 88.3562L90.2653 86.0701ZM91.2313 101.388L88.1763 93.9002L85.2143 104.862L91.2313 101.388ZM117.502 89.0634C117.502 90.8634 117.097 92.6094 116.286 94.3014C115.496 95.9575 114.457 97.4455 113.168 98.7655C111.901 100.074 110.539 101.148 109.084 101.988C106.964 103.212 105.052 103.752 103.348 103.608C101.644 103.44 100.511 102.474 99.9498 100.71L103.629 96.1738C104.127 97.2298 104.855 97.8538 105.811 98.0458C106.767 98.2377 107.91 97.9497 109.24 97.1817C110.321 96.5576 111.173 95.8136 111.797 94.9496C112.441 94.0736 112.763 93.1556 112.763 92.1956C112.763 91.4276 112.545 90.9176 112.109 90.6656C111.693 90.4016 111.163 90.3116 110.519 90.3956C109.895 90.4676 109.033 90.6297 107.931 90.8817C106.455 91.2298 105.25 91.4338 104.315 91.4938C103.379 91.5299 102.579 91.2479 101.914 90.6479C101.249 90.0479 100.917 88.9439 100.917 87.3359C100.917 85.6319 101.301 83.9699 102.07 82.3499C102.86 80.6939 103.889 79.2118 105.157 77.9038C106.446 76.5598 107.828 75.4617 109.303 74.6097C111.319 73.4456 113.045 72.9775 114.479 73.2055C115.913 73.4335 116.838 74.3274 117.253 75.8874L113.574 80.4235C113.2 79.5115 112.639 78.9596 111.891 78.7676C111.143 78.5516 110.207 78.7676 109.085 79.4157C108.067 80.0037 107.235 80.7597 106.591 81.6838C105.967 82.5718 105.656 83.4598 105.655 84.3478C105.655 85.0198 105.853 85.4698 106.248 85.6978C106.643 85.9017 107.141 85.9737 107.744 85.9137C108.368 85.8177 109.199 85.6497 110.238 85.4096C111.735 85.0496 112.971 84.8515 113.948 84.8155C114.925 84.7555 115.756 85.0435 116.442 85.6794C117.149 86.2794 117.502 87.4074 117.502 89.0634Z" fill="white"/>
<defs>
<filter id="filter0_b_55_1454" x="-100" y="-100" width="325" height="371.525" filterUnits="userSpaceOnUse" color-interpolation-filters="sRGB">
<feFlood flood-opacity="0" result="BackgroundImageFix"/>
<feGaussianBlur in="BackgroundImageFix" stdDeviation="50"/>
<feComposite in2="SourceAlpha" operator="in" result="effect1_backgroundBlur_55_1454"/>
<feBlend mode="normal" in="SourceGraphic" in2="effect1_backgroundBlur_55_1454" result="shape"/>
</filter>
<filter id="filter1_b_55_1454" x="-100" y="-51.1354" width="240" height="331.137" filterUnits="userSpaceOnUse" color-interpolation-filters="sRGB">
<feFlood flood-opacity="0" result="BackgroundImageFix"/>
<feGaussianBlur in="BackgroundImageFix" stdDeviation="50"/>
<feComposite in2="SourceAlpha" operator="in" result="effect1_backgroundBlur_55_1454"/>
<feBlend mode="normal" in="SourceGraphic" in2="effect1_backgroundBlur_55_1454" result="shape"/>
</filter>
</defs>
</svg>
