<svg width="125" height="181" viewBox="0 0 125 181" fill="none" xmlns="http://www.w3.org/2000/svg">
<path opacity="0.9" fill-rule="evenodd" clip-rule="evenodd" d="M45 176.511V69.8066L5 45.8729L5 152.577L45 176.511Z" fill="#265B6E"/>
<path fill-rule="evenodd" clip-rule="evenodd" d="M5 70.8039V74.7928L10.3333 71.8011L5 70.8039ZM10 133.63V130.638L14 131.386L10 133.63ZM10 138.616V135.624L14 136.372L10 138.616ZM10 148.588V145.597L14 146.345L10 148.588ZM10 150.583V153.575L14 151.331L10 150.583ZM10 143.602V140.611L14 141.358L10 143.602Z" fill="#265B6E"/>
<g filter="url(#filter0_b_55_1452)">
<path fill-rule="evenodd" clip-rule="evenodd" d="M45 69.8066L5 45.8729L85 0L125 23.9337L45 69.8066ZM44 83.5186L40 85.7624L0 61.8287L4 59.5849L44 83.5186ZM40 151.58L44 149.336L14 131.386L10 133.63L40 151.58ZM44 159.309L40 161.552L10 143.602L14 141.358L44 159.309ZM40 156.566L44 154.323L14 136.372L10 138.616L40 156.566ZM44 164.295L40 166.539L10 148.588L14 146.345L44 164.295ZM40 171.525L44 169.281L14 151.331L10 153.575L40 171.525ZM39 90.4993L35 92.7431L5 74.7928L9 72.549L39 90.4993ZM40 72.7983L44 70.5546L4 46.6209L0 48.8646L40 72.7983Z" fill="#265B6E" fill-opacity="0.7"/>
</g>
<g filter="url(#filter1_b_55_1452)">
<path fill-rule="evenodd" clip-rule="evenodd" d="M40 72.7983V84.5159L0 60.5822V48.8646L40 72.7983ZM40 180.001V171.525L10 153.575V150.583L40 168.533V166.539L10 148.588V145.597L40 163.547V161.552L10 143.602V140.61L40 158.81V156.566L10 138.616V135.624L40 153.575V151.58L10 133.63V130.638L40 148.588V85.7624L0 61.8287V156.068L40 180.001ZM5 70.8039L35 88.7541V92.7431L5 74.7928V70.8039Z" fill="#265B6E" fill-opacity="0.8"/>
</g>
<path fill-rule="evenodd" clip-rule="evenodd" d="M45 69.8066L125 23.9337V130.638L45 176.511V69.8066ZM40 72.7983L44 70.5546V82.2721L40 84.5159V72.7983ZM44 169.281L40 171.525V180.001L44 177.508V169.281ZM40 151.58L44 149.336V151.331L40 153.575V151.58ZM44 154.323L40 156.566V158.561L44 156.317V154.323ZM40 161.552L44 159.309V161.303L40 163.547V161.552ZM44 164.295L40 166.539V168.533L44 166.289V164.295ZM40 85.7624L44 83.5186V146.345L40 148.588V85.7624Z" fill="#265B6E"/>
<path d="M78.3369 123.166L72.0705 126.784L66.3342 124.444C65.8354 124.78 65.4509 125.026 65.1807 125.182C63.1439 126.359 61.2941 126.887 59.6314 126.767C57.9895 126.611 56.6905 125.777 55.7345 124.265C54.7785 122.753 54.3005 120.605 54.3006 117.821C54.3007 115.061 54.7788 112.373 55.7349 109.757C56.6911 107.141 57.9901 104.819 59.6321 102.791C61.2949 100.727 63.1447 99.1065 65.1816 97.9305C67.2184 96.7544 69.0578 96.2444 70.6997 96.4003C72.3624 96.5203 73.6718 97.3362 74.6278 98.8482C75.6046 100.348 76.093 102.478 76.0929 105.238C76.0928 107.926 75.6354 110.554 74.7209 113.122C73.8063 115.666 72.5696 117.952 71.0107 119.98L78.3369 123.166ZM59.0706 115.067C59.0705 116.819 59.3199 118.223 59.8187 119.279C60.3382 120.323 61.0552 120.953 61.9697 121.169C62.905 121.349 63.9754 121.091 65.1809 120.394C66.3863 119.698 67.4464 118.726 68.3609 117.478C69.2962 116.194 70.0133 114.736 70.5121 113.104C71.0318 111.46 71.2916 109.762 71.2917 108.01C71.2918 106.258 71.032 104.872 70.5124 103.852C70.0137 102.796 69.2966 102.178 68.3614 101.998C67.4469 101.782 66.3869 102.022 65.1814 102.718C63.9759 103.415 62.9055 104.405 61.9702 105.689C61.0557 106.937 60.3386 108.383 59.819 110.027C59.3201 111.635 59.0706 113.315 59.0706 115.067ZM78.5605 107.701C78.5606 105.757 78.9348 103.825 79.6831 101.905C80.4521 99.9732 81.4706 98.2452 82.7384 96.7211C84.0063 95.1731 85.3781 93.973 86.8538 93.121C88.3087 92.2809 89.6596 91.9089 90.9066 92.0049C92.1745 92.0648 93.1825 92.6228 93.9306 93.6788C94.6996 94.7227 95.0841 96.2167 95.084 98.1607C95.0839 100.105 94.6994 102.043 93.9303 103.975C93.182 105.895 92.174 107.617 90.9061 109.141C89.659 110.653 88.308 111.829 86.8531 112.669C85.3775 113.521 84.0057 113.917 82.7379 113.857C81.4701 113.797 80.4517 113.245 79.6827 112.201C78.9345 111.145 78.5605 109.645 78.5605 107.701ZM83.0499 105.109C83.0499 106.765 83.4032 107.881 84.1098 108.457C84.8372 108.997 85.7413 108.955 86.8221 108.331C87.9029 107.707 88.7966 106.711 89.5033 105.343C90.21 103.951 90.5634 102.427 90.5634 100.771C90.5635 99.1149 90.2102 97.9989 89.5036 97.4229C88.7969 96.8469 87.9032 96.8709 86.8224 97.495C85.7417 98.119 84.8375 99.133 84.1101 100.537C83.4034 101.929 83.05 103.453 83.0499 105.109ZM113.995 88.9336C113.995 90.7336 113.59 92.4796 112.779 94.1716C111.989 95.8276 110.95 97.3157 109.661 98.6357C108.393 99.9437 107.032 101.018 105.577 101.858C103.457 103.082 101.545 103.622 99.8408 103.478C98.1365 103.31 97.0039 102.344 96.4428 100.58L100.122 96.044C100.62 97.1 101.348 97.724 102.304 97.9159C103.26 98.1079 104.403 97.8199 105.733 97.0518C106.814 96.4278 107.666 95.6838 108.29 94.8198C108.934 93.9437 109.256 93.0257 109.256 92.0657C109.256 91.2977 109.038 90.7877 108.602 90.5357C108.186 90.2718 107.656 90.1818 107.012 90.2658C106.388 90.3378 105.526 90.4998 104.424 90.7519C102.948 91.0999 101.743 91.304 100.808 91.364C99.8724 91.4 99.0722 91.118 98.4071 90.5181C97.7421 89.9181 97.4096 88.8141 97.4096 87.2061C97.4097 85.5021 97.7942 83.8401 98.5633 82.2201C99.3531 80.564 100.382 79.082 101.65 77.774C102.938 76.4299 104.321 75.3319 105.796 74.4798C107.812 73.3158 109.537 72.8477 110.972 73.0757C112.406 73.3036 113.33 74.1976 113.746 75.7576L110.067 80.2937C109.693 79.3817 109.132 78.8297 108.384 78.6377C107.636 78.4218 106.7 78.6378 105.578 79.2858C104.56 79.8739 103.728 80.6299 103.084 81.5539C102.46 82.4419 102.148 83.3299 102.148 84.2179C102.148 84.8899 102.346 85.3399 102.741 85.5679C103.136 85.7719 103.634 85.8439 104.237 85.7839C104.861 85.6879 105.692 85.5198 106.731 85.2798C108.228 84.9198 109.464 84.7217 110.441 84.6857C111.418 84.6257 112.249 84.9136 112.935 85.5496C113.642 86.1496 113.995 87.2776 113.995 88.9336Z" fill="white"/>
<defs>
<filter id="filter0_b_55_1452" x="-100" y="-100" width="325" height="371.525" filterUnits="userSpaceOnUse" color-interpolation-filters="sRGB">
<feFlood flood-opacity="0" result="BackgroundImageFix"/>
<feGaussianBlur in="BackgroundImageFix" stdDeviation="50"/>
<feComposite in2="SourceAlpha" operator="in" result="effect1_backgroundBlur_55_1452"/>
<feBlend mode="normal" in="SourceGraphic" in2="effect1_backgroundBlur_55_1452" result="shape"/>
</filter>
<filter id="filter1_b_55_1452" x="-100" y="-51.1354" width="240" height="331.137" filterUnits="userSpaceOnUse" color-interpolation-filters="sRGB">
<feFlood flood-opacity="0" result="BackgroundImageFix"/>
<feGaussianBlur in="BackgroundImageFix" stdDeviation="50"/>
<feComposite in2="SourceAlpha" operator="in" result="effect1_backgroundBlur_55_1452"/>
<feBlend mode="normal" in="SourceGraphic" in2="effect1_backgroundBlur_55_1452" result="shape"/>
</filter>
</defs>
</svg>
