<svg width="125" height="181" viewBox="0 0 125 181" fill="none" xmlns="http://www.w3.org/2000/svg">
<path opacity="0.9" fill-rule="evenodd" clip-rule="evenodd" d="M45 176.511V69.8066L5 45.8729L5 152.577L45 176.511Z" fill="#265B6E"/>
<path fill-rule="evenodd" clip-rule="evenodd" d="M5 70.8039V74.7928L10.3333 71.8011L5 70.8039ZM10 133.63V130.638L14 131.386L10 133.63ZM10 138.616V135.624L14 136.372L10 138.616ZM10 148.588V145.597L14 146.345L10 148.588ZM10 150.583V153.575L14 151.331L10 150.583ZM10 143.602V140.611L14 141.358L10 143.602Z" fill="#265B6E"/>
<g filter="url(#filter0_b_55_1449)">
<path fill-rule="evenodd" clip-rule="evenodd" d="M45 69.8066L5 45.8729L85 0L125 23.9337L45 69.8066ZM44 83.5186L40 85.7624L0 61.8287L4 59.5849L44 83.5186ZM40 151.58L44 149.336L14 131.386L10 133.63L40 151.58ZM44 159.309L40 161.552L10 143.602L14 141.358L44 159.309ZM40 156.566L44 154.323L14 136.372L10 138.616L40 156.566ZM44 164.295L40 166.539L10 148.588L14 146.345L44 164.295ZM40 171.525L44 169.281L14 151.331L10 153.575L40 171.525ZM39 90.4993L35 92.7431L5 74.7928L9 72.549L39 90.4993ZM40 72.7983L44 70.5546L4 46.6209L0 48.8646L40 72.7983Z" fill="#265B6E" fill-opacity="0.7"/>
</g>
<g filter="url(#filter1_b_55_1449)">
<path fill-rule="evenodd" clip-rule="evenodd" d="M40 72.7983V84.5159L0 60.5822V48.8646L40 72.7983ZM40 180.001V171.525L10 153.575V150.583L40 168.533V166.539L10 148.588V145.597L40 163.547V161.552L10 143.602V140.61L40 158.81V156.566L10 138.616V135.624L40 153.575V151.58L10 133.63V130.638L40 148.588V85.7624L0 61.8287V156.068L40 180.001ZM5 70.8039L35 88.7541V92.7431L5 74.7928V70.8039Z" fill="#265B6E" fill-opacity="0.8"/>
</g>
<path fill-rule="evenodd" clip-rule="evenodd" d="M45 69.8066L125 23.9337V130.638L45 176.511V69.8066ZM40 72.7983L44 70.5546V82.2721L40 84.5159V72.7983ZM44 169.281L40 171.525V180.001L44 177.508V169.281ZM40 151.58L44 149.336V151.331L40 153.575V151.58ZM44 154.323L40 156.566V158.561L44 156.317V154.323ZM40 161.552L44 159.309V161.303L40 163.547V161.552ZM44 164.295L40 166.539V168.533L44 166.289V164.295ZM40 85.7624L44 83.5186V146.345L40 148.588V85.7624Z" fill="#265B6E"/>
<path d="M61.2926 127.746L57.9854 129.655L54.9579 128.42C54.6946 128.598 54.4917 128.728 54.3491 128.81C53.2741 129.431 52.2978 129.709 51.4203 129.646C50.5537 129.564 49.8681 129.124 49.3636 128.326C48.859 127.528 48.6067 126.394 48.6068 124.925C48.6068 123.468 48.8592 122.049 49.3638 120.669C49.8684 119.288 50.5541 118.062 51.4207 116.992C52.2982 115.903 53.2745 115.048 54.3495 114.427C55.4245 113.806 56.3953 113.537 57.2619 113.619C58.1394 113.683 58.8305 114.113 59.335 114.911C59.8506 115.703 60.1083 116.827 60.1083 118.284C60.1082 119.702 59.8669 121.089 59.3842 122.445C58.9015 123.787 58.2488 124.994 57.426 126.064L61.2926 127.746ZM51.1243 123.471C51.1243 124.396 51.2559 125.137 51.5191 125.694C51.7933 126.245 52.1717 126.577 52.6544 126.691C53.148 126.786 53.7129 126.65 54.3492 126.283C54.9854 125.916 55.5448 125.403 56.0275 124.744C56.5211 124.066 56.8996 123.297 57.1629 122.435C57.4371 121.568 57.5743 120.671 57.5743 119.747C57.5744 118.822 57.4373 118.091 57.163 117.552C56.8998 116.995 56.5214 116.669 56.0278 116.574C55.5451 116.46 54.9857 116.587 54.3494 116.954C53.7132 117.321 53.1483 117.844 52.6547 118.521C52.172 119.18 51.7935 119.943 51.5193 120.811C51.256 121.66 51.1243 122.546 51.1243 123.471ZM67.4166 111.195L69.7037 109.874L69.7034 119.716L67.6795 120.885C67.6357 120.15 67.5918 119.663 67.548 119.422C67.2627 120.182 66.8898 120.841 66.429 121.398C65.9683 121.955 65.4418 122.405 64.8494 122.747C63.8951 123.298 63.1437 123.377 62.5952 122.985C62.0468 122.592 61.7726 121.712 61.7726 120.344L61.7728 114.454L64.0599 113.133L64.0598 118.149C64.0597 119.96 64.5643 120.575 65.5735 119.992C66.1219 119.675 66.5662 119.172 66.9063 118.482C67.2463 117.791 67.4164 117.003 67.4164 116.116L67.4166 111.195ZM72.9537 106.744C72.5917 106.953 72.2736 106.978 71.9994 106.82C71.7361 106.643 71.6045 106.339 71.6045 105.908C71.6045 105.465 71.7362 105.009 71.9995 104.54C72.2627 104.071 72.5809 103.729 72.9538 103.514C73.3268 103.299 73.6504 103.276 73.9246 103.447C74.1988 103.606 74.3359 103.9 74.3359 104.331C74.3359 104.762 74.1988 105.221 73.9245 105.708C73.6503 106.183 73.3267 106.529 72.9537 106.744ZM74.1216 117.165L71.8345 118.486L71.8348 108.644L74.1219 107.323L74.1216 117.165ZM82.1612 98.0647L84.4484 96.7441L84.4479 111.203L82.4405 112.362C82.3857 111.659 82.3418 111.19 82.3089 110.956C82.0127 111.697 81.6233 112.353 81.1406 112.923C80.6689 113.474 80.1533 113.911 79.5939 114.234C78.8919 114.639 78.2501 114.807 77.6688 114.737C77.0874 114.668 76.6212 114.348 76.2702 113.778C75.9192 113.195 75.7438 112.372 75.7438 111.308C75.7438 110.231 75.9194 109.205 76.2704 108.23C76.6215 107.242 77.0877 106.377 77.6691 105.636C78.2505 104.895 78.8922 104.322 79.5942 103.917C80.1098 103.619 80.587 103.464 81.0257 103.451C81.4755 103.432 81.8539 103.581 82.161 103.898L82.1612 98.0647ZM80.1205 111.669C80.6909 111.339 81.1736 110.82 81.5685 110.111C81.9634 109.401 82.1609 108.565 82.1609 107.603C82.1609 106.653 81.9635 106.064 81.5686 105.836C81.1737 105.595 80.6911 105.639 80.1207 105.969C79.5174 106.317 79.0292 106.846 78.6562 107.555C78.2942 108.258 78.1132 109.053 78.1132 109.94C78.1132 110.826 78.2941 111.425 78.6561 111.735C79.0291 112.039 79.5172 112.017 80.1205 111.669ZM88.1159 99.2434L90.3206 104.468L92.3776 96.7827L94.7634 95.4052L91.1597 107.309L89.3003 108.382L85.582 100.706L88.1159 99.2434ZM97.0244 92.8457C96.6624 93.0547 96.3443 93.0801 96.0701 92.9218C95.8068 92.7444 95.6752 92.4404 95.6752 92.0098C95.6752 91.5664 95.8068 91.1104 96.0701 90.6418C96.3334 90.1731 96.6515 89.8311 97.0245 89.6157C97.3974 89.4004 97.721 89.3782 97.9953 89.5492C98.2695 89.7075 98.4066 90.002 98.4066 90.4327C98.4066 90.8633 98.2694 91.3225 97.9952 91.8102C97.7209 92.2852 97.3973 92.6304 97.0244 92.8457ZM98.1923 103.267L95.9051 104.588L95.9055 94.7458L98.1926 93.4252L98.1923 103.267ZM104.093 89.7715C104.85 89.3345 105.519 89.1445 106.1 89.2014C106.692 89.2394 107.148 89.5212 107.466 90.0469C107.795 90.5536 107.959 91.2629 107.959 92.1749C107.959 92.5802 107.926 93.0109 107.861 93.4669L102.2 96.7351C102.299 97.4127 102.529 97.8371 102.891 98.008C103.253 98.1664 103.703 98.0904 104.241 97.78C104.624 97.5583 104.965 97.267 105.261 96.906C105.568 96.526 105.804 96.0921 105.968 95.6044L107.647 95.7754C107.416 96.6304 106.972 97.4443 106.314 98.2169C105.666 98.9833 104.943 99.5976 104.142 100.06C103.374 100.503 102.661 100.719 102.003 100.706C101.345 100.693 100.813 100.412 100.407 99.8606C100.012 99.3033 99.8144 98.4736 99.8145 97.3716C99.8145 96.2823 100.012 95.2373 100.407 94.2366C100.813 93.2296 101.339 92.3429 101.987 91.5766C102.634 90.8102 103.336 90.2085 104.093 89.7715ZM104.027 91.9565C103.577 92.2162 103.193 92.6025 102.875 93.1155C102.557 93.6286 102.343 94.2144 102.233 94.8731L105.623 92.916C105.579 92.3333 105.409 91.9691 105.113 91.8235C104.828 91.6588 104.466 91.7032 104.027 91.9565ZM115.988 83.1502L117.765 88.2611L119.444 81.155L121.665 79.8725L118.555 91.4911L116.926 92.4316L114.984 87.5677L113.125 94.6262L111.479 95.5763L108.255 87.6154L110.608 86.2568L112.401 91.4343L114.079 84.2522L115.988 83.1502Z" fill="white"/>
<defs>
<filter id="filter0_b_55_1449" x="-100" y="-100" width="325" height="371.525" filterUnits="userSpaceOnUse" color-interpolation-filters="sRGB">
<feFlood flood-opacity="0" result="BackgroundImageFix"/>
<feGaussianBlur in="BackgroundImageFix" stdDeviation="50"/>
<feComposite in2="SourceAlpha" operator="in" result="effect1_backgroundBlur_55_1449"/>
<feBlend mode="normal" in="SourceGraphic" in2="effect1_backgroundBlur_55_1449" result="shape"/>
</filter>
<filter id="filter1_b_55_1449" x="-100" y="-51.1354" width="240" height="331.137" filterUnits="userSpaceOnUse" color-interpolation-filters="sRGB">
<feFlood flood-opacity="0" result="BackgroundImageFix"/>
<feGaussianBlur in="BackgroundImageFix" stdDeviation="50"/>
<feComposite in2="SourceAlpha" operator="in" result="effect1_backgroundBlur_55_1449"/>
<feBlend mode="normal" in="SourceGraphic" in2="effect1_backgroundBlur_55_1449" result="shape"/>
</filter>
</defs>
</svg>
