<svg width="125" height="181" viewBox="0 0 125 181" fill="none" xmlns="http://www.w3.org/2000/svg">
<path opacity="0.9" fill-rule="evenodd" clip-rule="evenodd" d="M45 176.511V69.8066L5 45.8729L5 152.577L45 176.511Z" fill="#265B6E"/>
<path fill-rule="evenodd" clip-rule="evenodd" d="M5 70.8039V74.7928L10.3333 71.8011L5 70.8039ZM10 133.63V130.638L14 131.386L10 133.63ZM10 138.616V135.624L14 136.372L10 138.616ZM10 148.588V145.597L14 146.345L10 148.588ZM10 150.583V153.575L14 151.331L10 150.583ZM10 143.602V140.611L14 141.358L10 143.602Z" fill="#265B6E"/>
<g filter="url(#filter0_b_55_1455)">
<path fill-rule="evenodd" clip-rule="evenodd" d="M45 69.8066L5 45.8729L85 0L125 23.9337L45 69.8066ZM44 83.5186L40 85.7624L0 61.8287L4 59.5849L44 83.5186ZM40 151.58L44 149.336L14 131.386L10 133.63L40 151.58ZM44 159.309L40 161.552L10 143.602L14 141.358L44 159.309ZM40 156.566L44 154.323L14 136.372L10 138.616L40 156.566ZM44 164.295L40 166.539L10 148.588L14 146.345L44 164.295ZM40 171.525L44 169.281L14 151.331L10 153.575L40 171.525ZM39 90.4993L35 92.7431L5 74.7928L9 72.549L39 90.4993ZM40 72.7983L44 70.5546L4 46.6209L0 48.8646L40 72.7983Z" fill="#265B6E" fill-opacity="0.7"/>
</g>
<g filter="url(#filter1_b_55_1455)">
<path fill-rule="evenodd" clip-rule="evenodd" d="M40 72.7983V84.5159L0 60.5822V48.8646L40 72.7983ZM40 180.001V171.525L10 153.575V150.583L40 168.533V166.539L10 148.588V145.597L40 163.547V161.552L10 143.602V140.61L40 158.81V156.566L10 138.616V135.624L40 153.575V151.58L10 133.63V130.638L40 148.588V85.7624L0 61.8287V156.068L40 180.001ZM5 70.8039L35 88.7541V92.7431L5 74.7928V70.8039Z" fill="#265B6E" fill-opacity="0.8"/>
</g>
<path fill-rule="evenodd" clip-rule="evenodd" d="M45 69.8066L125 23.9337V130.638L45 176.511V69.8066ZM40 72.7983L44 70.5546V82.2721L40 84.5159V72.7983ZM44 169.281L40 171.525V180.001L44 177.508V169.281ZM40 151.58L44 149.336V151.331L40 153.575V151.58ZM44 154.323L40 156.566V158.561L44 156.317V154.323ZM40 161.552L44 159.309V161.303L40 163.547V161.552ZM44 164.295L40 166.539V168.533L44 166.289V164.295ZM40 85.7624L44 83.5186V146.345L40 148.588V85.7624Z" fill="#265B6E"/>
<path d="M62.7316 122.742L59.5854 124.538L56.3484 120.884L56.2393 120.947L54.3115 122.06L54.3114 127.604L51.6744 129.126L51.6749 113.754L56.276 111.098C57.3186 110.496 58.234 110.17 59.0221 110.121C59.8101 110.072 60.4163 110.303 60.8406 110.814C61.265 111.311 61.4771 112.043 61.4771 113.009C61.477 113.989 61.2588 114.976 60.8223 115.97C60.3858 116.964 59.7735 117.884 58.9854 118.731L62.7316 122.742ZM54.3118 114.815L54.3116 119.477L55.9666 118.521C56.7425 118.073 57.3851 117.513 57.8943 116.841C58.4157 116.148 58.6764 115.41 58.6764 114.626C58.6764 113.828 58.4218 113.387 57.9126 113.303C57.4034 113.219 56.7548 113.404 55.9667 113.859L54.3118 114.815ZM70.3625 102.964L75.7451 115.228L72.9444 116.845L71.7806 114.01L66.5975 117.003L65.4699 121.161L62.8329 122.684L68.0528 104.298L70.3625 102.964ZM70.9259 111.9L69.1439 107.532L67.416 113.926L70.9259 111.9ZM81.7044 96.4156C83.0017 95.6666 84.1716 95.292 85.2143 95.292C86.2691 95.285 87.0996 95.6874 87.7057 96.4994C88.3119 97.2974 88.615 98.4944 88.6149 100.09C88.6149 101.686 88.3117 103.24 87.7055 104.752C87.0992 106.264 86.2748 107.629 85.2321 108.847C84.1894 110.052 83.0133 111.032 81.7039 111.788L77.2665 114.35L77.267 98.9777L81.7044 96.4156ZM81.3948 109.362C82.8255 108.536 83.9227 107.462 84.6866 106.139C85.4504 104.815 85.8324 103.335 85.8324 101.697C85.8325 100.087 85.4445 99.065 84.6686 98.631C83.9048 98.176 82.8137 98.3581 81.3952 99.1771L79.9039 100.038L79.9036 110.223L81.3948 109.362ZM93.4188 105.024L90.7818 106.546L90.7823 91.1741L93.4193 89.6515L93.4188 105.024ZM104.71 83.1322L107.347 81.6096L107.347 90.7656C107.347 92.0816 107.123 93.3591 106.674 94.5981C106.225 95.8232 105.577 96.9467 104.728 97.9687C103.879 98.9767 102.873 99.8168 101.709 100.489C100.533 101.168 99.5206 101.493 98.6719 101.465C97.8233 101.423 97.1746 101.049 96.7261 100.342C96.2775 99.621 96.0533 98.6025 96.0533 97.2865L96.0536 88.1305L98.6906 86.6079L98.6903 95.0289C98.6903 96.5129 98.9509 97.4684 99.4722 97.8954C100.006 98.3154 100.751 98.2488 101.709 97.6958C102.655 97.1498 103.388 96.3623 103.91 95.3332C104.443 94.2972 104.71 93.0372 104.71 91.5532L104.71 83.1322ZM118.982 85.8115C118.982 86.8615 118.746 87.88 118.273 88.867C117.812 89.833 117.206 90.701 116.454 91.4711C115.715 92.2341 114.92 92.8606 114.072 93.3506C112.835 94.0647 111.72 94.3797 110.726 94.2957C109.731 94.1978 109.071 93.6343 108.743 92.6053L110.889 89.9592C111.18 90.5752 111.605 90.9392 112.162 91.0512C112.72 91.1632 113.387 90.9952 114.163 90.5471C114.793 90.1831 115.29 89.7491 115.654 89.2451C116.03 88.7341 116.218 88.1986 116.218 87.6386C116.218 87.1906 116.091 86.8931 115.836 86.7461C115.594 86.5921 115.284 86.5396 114.909 86.5886C114.545 86.6306 114.042 86.7251 113.399 86.8721C112.538 87.0752 111.835 87.1942 111.29 87.2292C110.744 87.2502 110.277 87.0857 109.889 86.7358C109.501 86.3858 109.307 85.7418 109.307 84.8038C109.307 83.8098 109.532 82.8403 109.98 81.8953C110.441 80.9292 111.041 80.0647 111.781 79.3017C112.533 78.5177 113.339 77.8772 114.2 77.3801C115.376 76.7011 116.382 76.4281 117.218 76.561C118.055 76.694 118.595 77.2155 118.837 78.1255L116.691 80.7715C116.473 80.2396 116.145 79.9176 115.709 79.8056C115.272 79.6796 114.727 79.8056 114.072 80.1836C113.478 80.5266 112.993 80.9677 112.617 81.5067C112.254 82.0247 112.072 82.5427 112.072 83.0607C112.072 83.4527 112.187 83.7152 112.417 83.8482C112.648 83.9672 112.938 84.0092 113.29 83.9742C113.654 83.9181 114.139 83.8201 114.745 83.6801C115.618 83.4701 116.339 83.3546 116.909 83.3335C117.479 83.2985 117.964 83.4665 118.364 83.8375C118.776 84.1875 118.982 84.8455 118.982 85.8115Z" fill="white"/>
<defs>
<filter id="filter0_b_55_1455" x="-100" y="-100" width="325" height="371.525" filterUnits="userSpaceOnUse" color-interpolation-filters="sRGB">
<feFlood flood-opacity="0" result="BackgroundImageFix"/>
<feGaussianBlur in="BackgroundImageFix" stdDeviation="50"/>
<feComposite in2="SourceAlpha" operator="in" result="effect1_backgroundBlur_55_1455"/>
<feBlend mode="normal" in="SourceGraphic" in2="effect1_backgroundBlur_55_1455" result="shape"/>
</filter>
<filter id="filter1_b_55_1455" x="-100" y="-51.1354" width="240" height="331.137" filterUnits="userSpaceOnUse" color-interpolation-filters="sRGB">
<feFlood flood-opacity="0" result="BackgroundImageFix"/>
<feGaussianBlur in="BackgroundImageFix" stdDeviation="50"/>
<feComposite in2="SourceAlpha" operator="in" result="effect1_backgroundBlur_55_1455"/>
<feBlend mode="normal" in="SourceGraphic" in2="effect1_backgroundBlur_55_1455" result="shape"/>
</filter>
</defs>
</svg>
