<svg width="126" height="181" viewBox="0 0 126 181" fill="none" xmlns="http://www.w3.org/2000/svg">
<path opacity="0.9" fill-rule="evenodd" clip-rule="evenodd" d="M45 176.511V69.8066L5 45.8729L5 152.577L45 176.511Z" fill="#265B6E"/>
<path fill-rule="evenodd" clip-rule="evenodd" d="M5 70.8039V74.7928L10.3333 71.8011L5 70.8039ZM10 133.63V130.638L14 131.386L10 133.63ZM10 138.616V135.624L14 136.372L10 138.616ZM10 148.588V145.597L14 146.345L10 148.588ZM10 150.583V153.575L14 151.331L10 150.583ZM10 143.602V140.611L14 141.358L10 143.602Z" fill="#265B6E"/>
<g filter="url(#filter0_b_55_1451)">
<path fill-rule="evenodd" clip-rule="evenodd" d="M45 69.8066L5 45.8729L85 0L125 23.9337L45 69.8066ZM44 83.5186L40 85.7624L0 61.8287L4 59.5849L44 83.5186ZM40 151.58L44 149.336L14 131.386L10 133.63L40 151.58ZM44 159.309L40 161.552L10 143.602L14 141.358L44 159.309ZM40 156.566L44 154.323L14 136.372L10 138.616L40 156.566ZM44 164.295L40 166.539L10 148.588L14 146.345L44 164.295ZM40 171.525L44 169.281L14 151.331L10 153.575L40 171.525ZM39 90.4993L35 92.7431L5 74.7928L9 72.549L39 90.4993ZM40 72.7983L44 70.5546L4 46.6209L0 48.8646L40 72.7983Z" fill="#265B6E" fill-opacity="0.7"/>
</g>
<g filter="url(#filter1_b_55_1451)">
<path fill-rule="evenodd" clip-rule="evenodd" d="M40 72.7983V84.5159L0 60.5822V48.8646L40 72.7983ZM40 180.001V171.525L10 153.575V150.583L40 168.533V166.539L10 148.588V145.597L40 163.547V161.552L10 143.602V140.61L40 158.81V156.566L10 138.616V135.624L40 153.575V151.58L10 133.63V130.638L40 148.588V85.7624L0 61.8287V156.068L40 180.001ZM5 70.8039L35 88.7541V92.7431L5 74.7928V70.8039Z" fill="#265B6E" fill-opacity="0.8"/>
</g>
<path fill-rule="evenodd" clip-rule="evenodd" d="M45 69.8066L125 23.9337V130.638L45 176.511V69.8066ZM40 72.7983L44 70.5546V82.2721L40 84.5159V72.7983ZM44 169.281L40 171.525V180.001L44 177.508V169.281ZM40 151.58L44 149.336V151.331L40 153.575V151.58ZM44 154.323L40 156.566V158.561L44 156.317V154.323ZM40 161.552L44 159.309V161.303L40 163.547V161.552ZM44 164.295L40 166.539V168.533L44 166.289V164.295ZM40 85.7624L44 83.5186V146.345L40 148.588V85.7624Z" fill="#265B6E"/>
<path d="M58.2068 103.58L64.3167 119.096L70.1785 96.6681L75.0108 93.8779L66.1247 125.36L62.2901 127.574L53.0627 106.551L58.2068 103.58ZM85.4798 87.8332C87.288 86.7892 88.8676 86.2371 90.2185 86.1771C91.5695 86.117 92.6087 86.537 93.3361 87.437C94.0843 88.301 94.4583 89.609 94.4583 91.361C94.4582 93.089 94.0841 94.829 93.3358 96.581C92.6083 98.297 91.569 99.905 90.218 101.405C88.867 102.881 87.2874 104.141 85.4792 105.185L82.1433 107.111L82.1431 116.111L77.6225 118.721L77.6233 92.3695L85.4798 87.8332ZM84.9805 101.045C86.3939 100.229 87.5266 99.2272 88.3788 98.0391C89.231 96.8271 89.6571 95.5251 89.6571 94.1331C89.6572 92.7411 89.2311 91.9311 88.379 91.7031C87.5269 91.4512 86.3941 91.7332 84.9808 92.5493L82.1438 94.1873L82.1435 102.683L84.9805 101.045ZM101.122 78.8018L112.189 89.8354L112.189 72.4114L116.398 69.9813L116.397 96.3333L112.718 98.4574L101.62 87.4058L101.619 104.866L97.473 107.26L97.4739 80.9079L101.122 78.8018Z" fill="white"/>
<defs>
<filter id="filter0_b_55_1451" x="-100" y="-100" width="325" height="371.525" filterUnits="userSpaceOnUse" color-interpolation-filters="sRGB">
<feFlood flood-opacity="0" result="BackgroundImageFix"/>
<feGaussianBlur in="BackgroundImageFix" stdDeviation="50"/>
<feComposite in2="SourceAlpha" operator="in" result="effect1_backgroundBlur_55_1451"/>
<feBlend mode="normal" in="SourceGraphic" in2="effect1_backgroundBlur_55_1451" result="shape"/>
</filter>
<filter id="filter1_b_55_1451" x="-100" y="-51.1354" width="240" height="331.137" filterUnits="userSpaceOnUse" color-interpolation-filters="sRGB">
<feFlood flood-opacity="0" result="BackgroundImageFix"/>
<feGaussianBlur in="BackgroundImageFix" stdDeviation="50"/>
<feComposite in2="SourceAlpha" operator="in" result="effect1_backgroundBlur_55_1451"/>
<feBlend mode="normal" in="SourceGraphic" in2="effect1_backgroundBlur_55_1451" result="shape"/>
</filter>
</defs>
</svg>
