<svg width="141" height="189" viewBox="0 0 141 189" fill="none" xmlns="http://www.w3.org/2000/svg">
<path opacity="0.9" fill-rule="evenodd" clip-rule="evenodd" d="M45 176.511V69.8066L5 45.8729L5 152.577L45 176.511Z" fill="#265B6E"/>
<path fill-rule="evenodd" clip-rule="evenodd" d="M5 70.8039V74.7928L10.3333 71.8011L5 70.8039ZM10 133.63V130.638L14 131.386L10 133.63ZM10 138.616V135.624L14 136.372L10 138.616ZM10 148.588V145.597L14 146.345L10 148.588ZM10 150.583V153.575L14 151.331L10 150.583ZM10 143.602V140.61L14 141.358L10 143.602Z" fill="#265B6E"/>
<g filter="url(#filter0_b_55_1458)">
<path fill-rule="evenodd" clip-rule="evenodd" d="M45 69.8066L5 45.8729L85 0L125 23.9337L45 69.8066ZM44 83.5186L40 85.7624L0 61.8287L4 59.5849L44 83.5186ZM40 151.58L44 149.336L14 131.386L10 133.63L40 151.58ZM44 159.309L40 161.552L10 143.602L14 141.358L44 159.309ZM40 156.566L44 154.323L14 136.372L10 138.616L40 156.566ZM44 164.295L40 166.539L10 148.588L14 146.345L44 164.295ZM40 171.525L44 169.281L14 151.331L10 153.575L40 171.525ZM39 90.4993L35 92.7431L5 74.7928L9 72.549L39 90.4993ZM40 72.7983L44 70.5546L4 46.6209L0 48.8646L40 72.7983Z" fill="#265B6E" fill-opacity="0.7"/>
</g>
<g filter="url(#filter1_b_55_1458)">
<path fill-rule="evenodd" clip-rule="evenodd" d="M40 72.7983V84.5159L0 60.5822V48.8646L40 72.7983ZM40 180.001V171.525L10 153.575V150.583L40 168.533V166.539L10 148.588V145.597L40 163.547V161.552L10 143.602V140.61L40 158.81V156.566L10 138.616V135.624L40 153.575V151.58L10 133.63V130.638L40 148.588V85.7624L0 61.8287V156.068L40 180.001ZM5 70.8039L35 88.7541V92.7431L5 74.7928V70.8039Z" fill="#265B6E" fill-opacity="0.8"/>
</g>
<path fill-rule="evenodd" clip-rule="evenodd" d="M45 69.8066L125 23.9337V130.638L45 176.511V69.8066ZM40 72.7984L44 70.5546V82.2721L40 84.5159V72.7984ZM44 169.281L40 171.525V180.001L44 177.508V169.281ZM40 151.58L44 149.336V151.331L40 153.575V151.58ZM44 154.323L40 156.566V158.561L44 156.317V154.323ZM40 161.553L44 159.309V161.303L40 163.547V161.553ZM44 164.295L40 166.539V168.533L44 166.289V164.295ZM40 85.7624L44 83.5187V146.345L40 148.588V85.7624Z" fill="#265B6E"/>
<g filter="url(#filter2_b_55_1458)">
<path fill-rule="evenodd" clip-rule="evenodd" d="M92.8224 118.778L129.318 140.333L125.94 142.338L129.318 144.333L104.273 159.199L125.757 171.889L101.946 186.111L65.4507 164.556L82.5058 154.369L61 141.667L64.3778 139.662L61 137.667L92.8224 118.778Z" fill="#265B6E" fill-opacity="0.7"/>
</g>
<path fill-rule="evenodd" clip-rule="evenodd" d="M92.8224 122.222L123.532 140.778L97.4418 155.667L66.8972 137.667L92.8224 122.222Z" fill="white"/>
<g filter="url(#filter3_b_55_1458)">
<path fill-rule="evenodd" clip-rule="evenodd" d="M77.9126 127.709L102.199 113.898C102.199 113.898 109.395 120.298 112.319 126.923C115.242 133.547 122.326 141.519 122.326 141.519L98.264 155.667C98.264 155.667 91.2928 147.47 88.1445 140.733C84.9962 133.996 77.9126 127.709 77.9126 127.709Z" fill="#265B6E" fill-opacity="0.7"/>
</g>
<g filter="url(#filter4_b_55_1458)">
<path fill-rule="evenodd" clip-rule="evenodd" d="M79.7116 126.811L103.998 113C103.998 113 111.194 119.4 114.118 126.025C117.041 132.649 124.125 140.621 124.125 140.621L100.063 154.768C100.063 154.768 93.0918 146.572 89.9435 139.835C86.7952 133.098 79.7116 126.811 79.7116 126.811Z" fill="#265B6E" fill-opacity="0.7"/>
</g>
<path fill-rule="evenodd" clip-rule="evenodd" d="M97.4956 162.111L129.318 143.222V140.333L97.4956 159.222V162.111ZM129.318 169.111L97.4956 188V163.222L129.318 144.333V169.111ZM125.757 174.778L101.946 189V186.111L125.757 171.889V174.778Z" fill="#265B6E"/>
<g filter="url(#filter5_b_55_1458)">
<path fill-rule="evenodd" clip-rule="evenodd" d="M124.9 159.667L140.111 159.889L116.411 173.667L100.945 173.885L124.9 159.667Z" fill="white" fill-opacity="0.5"/>
</g>
<g filter="url(#filter6_b_55_1458)">
<path fill-rule="evenodd" clip-rule="evenodd" d="M97.4956 162.111L61 140.556V137.667L97.4956 159.222V162.111ZM61 167L97.4956 187.889V163.222L61 141.667V167ZM98.8308 187.111L101.946 189V186.111L101.279 185.667L98.8308 187.111ZM116.411 174.333L101.167 174.556L100.945 173.885L116.411 173.667L140.111 159.889L140.333 160.556L116.411 174.333Z" fill="#265B6E" fill-opacity="0.8"/>
</g>
<path opacity="0.34568" fill-rule="evenodd" clip-rule="evenodd" d="M62.0014 166.111L96.1604 185.667V182.778L62.0014 163.222L62.0014 166.111Z" fill="white"/>
<defs>
<filter id="filter0_b_55_1458" x="-100" y="-100" width="325" height="371.525" filterUnits="userSpaceOnUse" color-interpolation-filters="sRGB">
<feFlood flood-opacity="0" result="BackgroundImageFix"/>
<feGaussianBlur in="BackgroundImageFix" stdDeviation="50"/>
<feComposite in2="SourceAlpha" operator="in" result="effect1_backgroundBlur_55_1458"/>
<feBlend mode="normal" in="SourceGraphic" in2="effect1_backgroundBlur_55_1458" result="shape"/>
</filter>
<filter id="filter1_b_55_1458" x="-100" y="-51.1354" width="240" height="331.137" filterUnits="userSpaceOnUse" color-interpolation-filters="sRGB">
<feFlood flood-opacity="0" result="BackgroundImageFix"/>
<feGaussianBlur in="BackgroundImageFix" stdDeviation="50"/>
<feComposite in2="SourceAlpha" operator="in" result="effect1_backgroundBlur_55_1458"/>
<feBlend mode="normal" in="SourceGraphic" in2="effect1_backgroundBlur_55_1458" result="shape"/>
</filter>
<filter id="filter2_b_55_1458" x="-74.9141" y="-17.1363" width="340.146" height="339.162" filterUnits="userSpaceOnUse" color-interpolation-filters="sRGB">
<feFlood flood-opacity="0" result="BackgroundImageFix"/>
<feGaussianBlur in="BackgroundImageFix" stdDeviation="67.957"/>
<feComposite in2="SourceAlpha" operator="in" result="effect1_backgroundBlur_55_1458"/>
<feBlend mode="normal" in="SourceGraphic" in2="effect1_backgroundBlur_55_1458" result="shape"/>
</filter>
<filter id="filter3_b_55_1458" x="27.9126" y="63.8983" width="144.413" height="141.768" filterUnits="userSpaceOnUse" color-interpolation-filters="sRGB">
<feFlood flood-opacity="0" result="BackgroundImageFix"/>
<feGaussianBlur in="BackgroundImageFix" stdDeviation="25"/>
<feComposite in2="SourceAlpha" operator="in" result="effect1_backgroundBlur_55_1458"/>
<feBlend mode="normal" in="SourceGraphic" in2="effect1_backgroundBlur_55_1458" result="shape"/>
</filter>
<filter id="filter4_b_55_1458" x="29.7116" y="63" width="144.413" height="141.768" filterUnits="userSpaceOnUse" color-interpolation-filters="sRGB">
<feFlood flood-opacity="0" result="BackgroundImageFix"/>
<feGaussianBlur in="BackgroundImageFix" stdDeviation="25"/>
<feComposite in2="SourceAlpha" operator="in" result="effect1_backgroundBlur_55_1458"/>
<feBlend mode="normal" in="SourceGraphic" in2="effect1_backgroundBlur_55_1458" result="shape"/>
</filter>
<filter id="filter5_b_55_1458" x="50.9449" y="109.667" width="139.166" height="114.219" filterUnits="userSpaceOnUse" color-interpolation-filters="sRGB">
<feFlood flood-opacity="0" result="BackgroundImageFix"/>
<feGaussianBlur in="BackgroundImageFix" stdDeviation="25"/>
<feComposite in2="SourceAlpha" operator="in" result="effect1_backgroundBlur_55_1458"/>
<feBlend mode="normal" in="SourceGraphic" in2="effect1_backgroundBlur_55_1458" result="shape"/>
</filter>
<filter id="filter6_b_55_1458" x="-74.9141" y="1.75256" width="351.162" height="323.162" filterUnits="userSpaceOnUse" color-interpolation-filters="sRGB">
<feFlood flood-opacity="0" result="BackgroundImageFix"/>
<feGaussianBlur in="BackgroundImageFix" stdDeviation="67.957"/>
<feComposite in2="SourceAlpha" operator="in" result="effect1_backgroundBlur_55_1458"/>
<feBlend mode="normal" in="SourceGraphic" in2="effect1_backgroundBlur_55_1458" result="shape"/>
</filter>
</defs>
</svg>
